<svg xmlns="http://www.w3.org/2000/svg" xmlns:xlink="http://www.w3.org/1999/xlink" width="190" height="297" viewBox="0 0 190 297">
  <defs>
    <clipPath id="clip-path">
      <rect id="Rectángulo_418440" data-name="Rectángulo 418440" width="125.663" height="100.385" rx="16.35" transform="translate(125.663 100.385) rotate(180)"/>
    </clipPath>
  </defs>
  <g id="Grupo_1210533" data-name="Grupo 1210533" transform="translate(-180 -4636)">
    <g id="Grupo_1210479" data-name="Grupo 1210479" transform="translate(-27 1851)">
      <rect id="Rectángulo_416878" data-name="Rectángulo 416878" width="149" height="292" rx="30" transform="translate(207 2785)" fill="#56678d"/>
    </g>
    <g id="Law" transform="translate(149.87 4655.283)">
      <g id="Grupo_1210477" data-name="Grupo 1210477" transform="translate(94.467 62.597)" clip-path="url(#clip-path)">
        <rect id="Rectángulo_418439" data-name="Rectángulo 418439" width="125.663" height="100.385" rx="16.35" transform="translate(125.663 100.385) rotate(180)" fill="#ffdb99"/>
        <path id="Trazado_1080761" data-name="Trazado 1080761" d="M125.63,9.94H266.62V34.173H125.63Z" transform="translate(-133.829 -17.831)" fill="#ff8c5f"/>
      </g>
      <ellipse id="Elipse_11891" data-name="Elipse 11891" cx="2.66" cy="2.66" rx="2.66" ry="2.66" transform="translate(205.994 67.918)" fill="#ffdb99"/>
      <ellipse id="Elipse_11892" data-name="Elipse 11892" cx="2.66" cy="2.66" rx="2.66" ry="2.66" transform="translate(195.529 67.918)" fill="#ffdb99"/>
      <ellipse id="Elipse_11893" data-name="Elipse 11893" cx="2.66" cy="2.66" rx="2.66" ry="2.66" transform="translate(185.068 67.918)" fill="#ffdb99"/>
      <path id="Trazado_1080762" data-name="Trazado 1080762" d="M55.383,240.58s-17.488,9.114-18.6,23.142-2.221,67.288-6.657,93.029c0,0,11.094,6.806,22.484,8.286l6.921-94.1Z" transform="translate(0 -94.675)" fill="#ffb08d"/>
      <path id="Trazado_1080763" data-name="Trazado 1080763" d="M289.94,302.5c6.893-13.787,13.227-17.143,17.768-17.631,4.837-.548,7.453,2.232,14.659.713,4.135-.867,8.867-2.95,10.48-1.031a2.364,2.364,0,0,1,.45.987c.258,1.294-1.815,5.007-29.218,16.9Z" transform="translate(-117.332 -114.177)" fill="#ffb08d"/>
      <path id="Trazado_1080764" data-name="Trazado 1080764" d="M198.968,227.23a27.2,27.2,0,0,1,6.992,1.821c9.46,3.872,14.088,12.125,16.161,15.942,4.475,8.259,3.778,12.717,6.663,25.659a164.358,164.358,0,0,0,8.012,25.714l-17.033,7.266c-1.843-2.638-4.234-6.279-6.762-10.77a145.34,145.34,0,0,1-9.021-19.616C197.372,254.48,198.579,232.818,198.968,227.23Z" transform="translate(-76.094 -88.646)" fill="#ffb08d"/>
      <path id="Trazado_1080765" data-name="Trazado 1080765" d="M273.632,295.75C261.321,302.8,232,320.713,235.343,332.635c1.393,4.963,8.379,8.692,14.028,8.33,5.78-.373,9.027-4.935,22.089-20.669,5.484-6.625,9.964-11.862,12.525-14.861Z" transform="translate(-92.557 -119.59)" fill="#ffb08d"/>
      <path id="Trazado_1080766" data-name="Trazado 1080766" d="M247.711,344.407a.28.28,0,0,1-.274-.236,24.661,24.661,0,0,1,6.076-17.828.28.28,0,0,1,.389-.027.269.269,0,0,1,.033.384,24.071,24.071,0,0,0-5.956,17.4.28.28,0,0,1-.23.313Z" transform="translate(-98.102 -133.364)" fill="#383333"/>
      <path id="Trazado_1080767" data-name="Trazado 1080767" d="M54.621,130.345S48.506,178.79,64.9,186s69.1,4.705,76.413-11.8-5.725-67.546-5.725-67.546Z" transform="translate(-10.556 -34.196)" fill="#383333"/>
      <path id="Trazado_1080768" data-name="Trazado 1080768" d="M310.65,371.452a13.991,13.991,0,0,1,3.455,2.3,14.374,14.374,0,0,1,4.184,7.228,10.633,10.633,0,0,1,2.616-6.7,10.468,10.468,0,0,1,5.133-3.142,9.871,9.871,0,0,1-4.711-1.991,10.211,10.211,0,0,1-3.663-6.279,9.1,9.1,0,0,1-1.574,4.936A9.218,9.218,0,0,1,310.65,371.452Z" transform="translate(-126.685 -149.902)" fill="#ffb833"/>
      <path id="Trazado_1080769" data-name="Trazado 1080769" d="M334,389.366a4.574,4.574,0,0,1,1.163.773,4.847,4.847,0,0,1,1.415,2.435,3.493,3.493,0,0,1,2.61-3.318,3.29,3.29,0,0,1-1.59-.669,3.477,3.477,0,0,1-1.234-2.117,3.076,3.076,0,0,1-.548,1.645A3.121,3.121,0,0,1,334,389.366Z" transform="translate(-137.23 -160.56)" fill="#ffb833"/>
      <path id="Trazado_1080770" data-name="Trazado 1080770" d="M309.15,366.055a3.18,3.18,0,0,1,.8.548,3.334,3.334,0,0,1,.971,1.645,2.4,2.4,0,0,1,.6-1.546,2.369,2.369,0,0,1,1.179-.724,2.308,2.308,0,0,1-1.1-.461,2.375,2.375,0,0,1-.845-1.448,2.079,2.079,0,0,1-.362,1.135A2.128,2.128,0,0,1,309.15,366.055Z" transform="translate(-126.008 -150.444)" fill="#ffb833"/>
      <path id="Trazado_1080771" data-name="Trazado 1080771" d="M440,106.118a9.985,9.985,0,0,1,2.512,1.645,10.419,10.419,0,0,1,3.044,5.254,7.721,7.721,0,0,1,1.9-4.87,7.634,7.634,0,0,1,3.729-2.287,7.184,7.184,0,0,1-3.422-1.442A7.436,7.436,0,0,1,445.1,99.85a6.536,6.536,0,0,1-1.141,3.576A6.7,6.7,0,0,1,440,106.118Z" transform="translate(-290.002 -54.756)" fill="#ffb833"/>
      <path id="Trazado_1080772" data-name="Trazado 1080772" d="M456.91,119.147a3.388,3.388,0,0,1,.85.548,3.5,3.5,0,0,1,1.026,1.771,2.589,2.589,0,0,1,.642-1.645,2.55,2.55,0,0,1,1.256-.768,2.4,2.4,0,0,1-1.157-.488,2.485,2.485,0,0,1-.894-1.536,2.192,2.192,0,0,1-.384,1.2A2.265,2.265,0,0,1,456.91,119.147Z" transform="translate(-362.443 -101.879)" fill="#ffb833"/>
      <path id="Trazado_1080773" data-name="Trazado 1080773" d="M438.87,102.227a2.272,2.272,0,0,1,.576.384,2.385,2.385,0,0,1,.7,1.212,1.738,1.738,0,0,1,1.3-1.645,1.646,1.646,0,0,1-.79-.335,1.706,1.706,0,0,1-.614-1.053,1.485,1.485,0,0,1-.263.828,1.546,1.546,0,0,1-.91.609Z" transform="translate(-381.867 -95.545)" fill="#ffb833"/>
      <path id="Trazado_1080774" data-name="Trazado 1080774" d="M61.3,134.507a8.2,8.2,0,0,0-6.071-2.353,6.232,6.232,0,0,0-3.724,1.4c-3.384,3.164-2.089,13.161,3.756,15.717,3.263,1.431,6.729,0,7.9-.548q-.938-7.091-1.865-14.214Z" transform="translate(-8.821 -45.701)" fill="#ff8c5f"/>
      <path id="Trazado_1080775" data-name="Trazado 1080775" d="M60.068,150.615a.192.192,0,0,1-.143-.055,5.275,5.275,0,0,1-1.958-4.332,5.985,5.985,0,0,1,2.358-3.784l-4.936.225a.208.208,0,1,1,0-.411l5.6-.258a.214.214,0,0,1,.208.143.208.208,0,0,1-.088.236s-2.49,1.579-2.742,3.9a4.9,4.9,0,0,0,1.837,3.987.208.208,0,0,1,0,.291A.236.236,0,0,1,60.068,150.615Z" transform="translate(-11.299 -50.155)" fill="#383333"/>
      <path id="Trazado_1080776" data-name="Trazado 1080776" d="M190.865,134.507a8.2,8.2,0,0,1,6.071-2.353,6.232,6.232,0,0,1,3.724,1.4c3.384,3.164,2.089,13.161-3.757,15.717-3.263,1.431-6.729,0-7.9-.548q.938-7.091,1.865-14.214Z" transform="translate(-71.747 -45.701)" fill="#ff8c5f"/>
      <path id="Trazado_1080777" data-name="Trazado 1080777" d="M198.208,150.614a.219.219,0,0,1-.148-.06.208.208,0,0,1,0-.291,4.9,4.9,0,0,0,1.837-3.987c-.247-2.32-2.709-3.883-2.742-3.9a.2.2,0,0,1,.121-.378l5.632.258a.208.208,0,0,1,.2.219.214.214,0,0,1-.214.192l-4.936-.225a5.985,5.985,0,0,1,2.358,3.784,5.259,5.259,0,0,1-1.958,4.332.192.192,0,0,1-.148.055Z" transform="translate(-75.383 -50.155)" fill="#383333"/>
      <circle id="Elipse_11894" data-name="Elipse 11894" cx="39.144" cy="39.144" r="39.144" transform="translate(46.735 41.639)" fill="#ffb08d"/>
      <path id="Trazado_1080778" data-name="Trazado 1080778" d="M91.979,171.89s.779,20.982-4.272,26.422-20.2,7.365-24.864,17.872,11.461,48.566,0,106.257c0,0,37.488,27.392,99.259,0,0,0-9.909-15.733-12.821-41.958s6.411-64.71-2.331-73.43-22.725-4.08-29.136-12.821-5.78-26.032-5.78-26.032S102.859,162.354,91.979,171.89Z" transform="translate(-14.38 -61.187)" fill="#ffb08d"/>
      <path id="Trazado_1080779" data-name="Trazado 1080779" d="M62.29,118.781s8.1,39.237,38.579,37.982,37.993-31.938,38.6-50.123C139.454,106.639,89.4,70.884,62.29,118.781Z" transform="translate(-14.524 -28.395)" fill="#ffb08d"/>
      <path id="Trazado_1080780" data-name="Trazado 1080780" d="M85.537,128.213a12.267,12.267,0,0,1,7.025-2.4c1.716-.06,4.042-.148,4.771,1.19a1.881,1.881,0,0,1,0,1.9c-.79,1.1-2.824.137-6.1.148-4.3,0-7.085,1.678-7.376,1.064C83.629,129.672,85.022,128.646,85.537,128.213Z" transform="translate(-24.253 -42.834)" fill="#383333"/>
      <path id="Trazado_1080781" data-name="Trazado 1080781" d="M167.468,127.251a12.278,12.278,0,0,0-7.129-2.122c-1.716,0-4.042,0-4.722,1.371a1.887,1.887,0,0,0,.1,1.9c.834,1.058,2.83,0,6.1-.088,4.3-.154,7.129,1.4,7.409.779C169.442,128.643,168.022,127.651,167.468,127.251Z" transform="translate(-56.576 -42.535)" fill="#383333"/>
      <path id="Trazado_1080782" data-name="Trazado 1080782" d="M129.148,151.631c-.8,0-1.475-.038-1.771-.06a.274.274,0,0,1-.258-.3.269.269,0,0,1,.3-.252c2.194.159,5.374,0,5.692-.779.362-.894-1.376-5.413-2.55-8.045a.274.274,0,1,1,.5-.225c.324.718,3.126,7.069,2.561,8.478C133.217,151.439,130.892,151.631,129.148,151.631Z" transform="translate(-43.801 -50.064)" fill="#383333"/>
      <ellipse id="Elipse_11895" data-name="Elipse 11895" cx="2.972" cy="4.771" rx="2.972" ry="4.771" transform="translate(58.446 106.119) rotate(-89.714)" fill="#ff8c5f"/>
      <ellipse id="Elipse_11896" data-name="Elipse 11896" cx="2.972" cy="4.771" rx="2.972" ry="4.771" transform="translate(103.167 106.328) rotate(-89.714)" fill="#ff8c5f"/>
      <path id="Trazado_1080783" data-name="Trazado 1080783" d="M161.849,144.7a3.384,3.384,0,1,1-.356-4.766,3.384,3.384,0,0,1,.356,4.766Z" transform="translate(-56.798 -48.851)" fill="#383333" fill-rule="evenodd"/>
      <path id="Trazado_1080784" data-name="Trazado 1080784" d="M167.653,140.132c-.077-.066-.724,1.1-1.579,1.02-.625-.055-.8-.74-1.607-1.338a4.058,4.058,0,0,0-2.4-.735,8.647,8.647,0,0,0,1.393,1.958c.784.828,1.289,1.365,1.963,1.365C166.8,142.419,167.751,140.231,167.653,140.132Z" transform="translate(-59.585 -48.836)" fill="#383333" fill-rule="evenodd"/>
      <path id="Trazado_1080785" data-name="Trazado 1080785" d="M103.791,147.456a3.384,3.384,0,1,1-.077-4.782A3.384,3.384,0,0,1,103.791,147.456Z" transform="translate(-30.639 -50.029)" fill="#383333" fill-rule="evenodd"/>
      <path id="Trazado_1080786" data-name="Trazado 1080786" d="M93.616,143.306c.071-.071.823,1.025,1.645.877.62-.11.724-.812,1.475-1.481a4.052,4.052,0,0,1,2.32-.943,8.687,8.687,0,0,1-1.206,2.073c-.7.894-1.157,1.475-1.832,1.536-1.344.126-2.49-1.969-2.4-2.062Z" transform="translate(-28.669 -50.047)" fill="#383333" fill-rule="evenodd"/>
      <path id="Trazado_1080787" data-name="Trazado 1080787" d="M131.387,180.171a7.387,7.387,0,0,1-3.23-.746.208.208,0,0,1-.093-.274.2.2,0,0,1,.274-.1,6.921,6.921,0,0,0,3.351.7,7.024,7.024,0,0,0,2.912-.773.2.2,0,0,1,.186.362,7.3,7.3,0,0,1-3.06.823Z" transform="translate(-44.219 -66.846)" fill="#383333"/>
      <path id="Trazado_1080788" data-name="Trazado 1080788" d="M123.336,205.939a44.214,44.214,0,0,1-8.462-.762.285.285,0,0,1-.208-.329.274.274,0,0,1,.329-.208c.121,0,12.021,2.583,22.945-1.886a.275.275,0,0,1,.208.51,39.621,39.621,0,0,1-14.812,2.676Z" transform="translate(-38.175 -77.583)" fill="#383333"/>
      <path id="Trazado_1080789" data-name="Trazado 1080789" d="M102.289,222.962c-2.6-.472-3.389-1.925-7.239-4.42-4.766-3.087-6.032-3.608-7.129-3.153-1.426.576-1.135,2.194-3.23,4.288a13.118,13.118,0,0,1-4.256,2.8C77.3,223.806,65.4,230.255,61.79,237.351c-3.219,6.312-.137,13.754.855,16.55,3.926,11.039,5.912,36.035-2.956,97.652a90.612,90.612,0,0,0,9.432,3.888c17.313,6.032,32.021,5.314,40.691,4.809,24.848-1.453,44.9-10.266,55.837-15.98,0,0-15.646-30.88-15.355-54.773s4.08-54.346-2.331-61.919-23.943-7.288-26.4-9.038c-.839-.592-1.826-3.669-4.223-4.075-2.095-.362-4.086,1.245-5.248,2.194-3.29,2.66-3.093,5.056-5.824,6.12A7.025,7.025,0,0,1,102.289,222.962Z" transform="translate(-13.35 -82.859)" fill="#ff832f"/>
      <path id="Trazado_1080790" data-name="Trazado 1080790" d="M115.2,242.086a1.442,1.442,0,0,1-.269,0c-3.883-.592-11.758-15.744-12.065-16.386a.275.275,0,0,1,.488-.252c2.78,5.374,8.774,15.657,11.686,16.1s7.08-9.646,8.412-13.562a.274.274,0,0,1,.345-.17.269.269,0,0,1,.17.346,71.767,71.767,0,0,1-2.961,7.129c-2.21,4.508-4.162,6.795-5.807,6.795Z" transform="translate(-32.834 -87.774)" fill="#383333"/>
      <path id="Trazado_1080791" data-name="Trazado 1080791" d="M152.125,235.809c-3.636,0-7.8-9.356-7.974-9.756a.274.274,0,0,1,.143-.362.269.269,0,0,1,.356.143c.044.093,4.2,9.427,7.475,9.427,2.7,0,6.191-9.833,7.31-13.622a.285.285,0,0,1,.346-.186.28.28,0,0,1,.181.346C159.539,223.229,155.722,235.809,152.125,235.809Z" transform="translate(-51.482 -86.032)" fill="#383333"/>
      <path id="Trazado_1080792" data-name="Trazado 1080792" d="M147.618,273.063a.28.28,0,0,1-.274-.247l-4.475-43.186a.276.276,0,1,1,.548-.055l4.458,43.186a.274.274,0,0,1-.247.3Z" transform="translate(-50.913 -89.593)" fill="#383333"/>
      <circle id="Elipse_11897" data-name="Elipse 11897" cx="2.693" cy="2.693" r="2.693" transform="translate(95.29 152.716)" fill="#383333"/>
      <circle id="Elipse_11898" data-name="Elipse 11898" cx="2.693" cy="2.693" r="2.693" transform="translate(97.122 164.907)" fill="#383333"/>
      <path id="Trazado_1080793" data-name="Trazado 1080793" d="M94.775,53.485A35.6,35.6,0,0,0,82.765,63.1c-6.526,8.264-4.59,15.58-10.743,21.316-4.387,4.091-10.7,7.436-19.9,8.687,0,0-11.352-50.534,39.139-48.313,0,0,20.362-5.55,30.9.927S140.68,72.969,138.35,93.106c0,0-7.283,1.4-12.931-3.1-2.687-2.144-3.778-4.656-5.122-7.721-9.35-21.387-12.235-24.343-14.807-26.021a18.41,18.41,0,0,0-10.716-2.775Z" transform="translate(-9.438 -5.254)" fill="#383333"/>
      <path id="Trazado_1080794" data-name="Trazado 1080794" d="M190.072,225.76s19.66.625,27.151,14.933S227,279.415,227,279.415s-11.16,11.933-21.98,11.374-10.787-16.227-11.083-16.923S184.418,226.478,190.072,225.76Z" transform="translate(-71.404 -87.982)" fill="#ff832f"/>
      <path id="Trazado_1080795" data-name="Trazado 1080795" d="M65.8,233.05c-20.631,7.924-25.478,18.887-26.871,23.131-1.13,3.455-1.431,8-1.991,16.956-.614,9.942-.669,18.146-.6,23.767a60.372,60.372,0,0,0,10.886,2.15c6.131.713,13.617.713,19.073-2.15.883-8.412,1.47-17.609,1.546-27.48A284.693,284.693,0,0,0,65.8,233.05Z" transform="translate(-2.794 -91.274)" fill="#ff832f"/>
      <path id="Trazado_1080796" data-name="Trazado 1080796" d="M223.516,320.639a.207.207,0,0,1-.093,0,.269.269,0,0,1-.159-.351c6.032-16.024-1.437-28.045-1.514-28.165a.274.274,0,0,1,.461-.3c.077.126,7.678,12.361,1.563,28.654A.274.274,0,0,1,223.516,320.639Z" transform="translate(-86.521 -117.767)" fill="#383333"/>
      <path id="Trazado_1080797" data-name="Trazado 1080797" d="M67.5,328.583a.269.269,0,0,1-.208-.1A25.6,25.6,0,0,1,65.329,298.2a.274.274,0,0,1,.461.3,25.061,25.061,0,0,0,1.919,29.641.274.274,0,0,1-.038.384A.258.258,0,0,1,67.5,328.583Z" transform="translate(-14.069 -120.643)" fill="#383333"/>
      <g id="Grupo_1210478" data-name="Grupo 1210478" transform="translate(45.688 45.094)">
        <path id="Trazado_1080798" data-name="Trazado 1080798" d="M171.876,94.551c-7.721,0-11.264-10.381-14.39-19.567-1.453-4.256-2.824-8.275-4.442-10.589-4.979-7.129-17.549-7.129-17.68-7.1a.274.274,0,1,1,0-.548,33.7,33.7,0,0,1,7.1.855c3.548.817,8.341,2.6,11.039,6.471,1.645,2.386,3.044,6.438,4.508,10.732,3.148,9.224,6.7,19.671,14.412,19.194a.263.263,0,0,1,.291.258.274.274,0,0,1-.252.291Z" transform="translate(-93.089 -56.75)" fill="#fff"/>
        <path id="Trazado_1080799" data-name="Trazado 1080799" d="M195.283,93.2h-.033c-4.124-.477-7.919-4.6-11.28-12.257a73.545,73.545,0,0,1-3.806-11.313.281.281,0,1,1,.548-.126c.055.225,5.232,22.073,14.615,23.148a.274.274,0,1,1,0,.548Z" transform="translate(-113.441 -62.409)" fill="#fff"/>
        <path id="Trazado_1080800" data-name="Trazado 1080800" d="M58.774,96.287a.28.28,0,0,1-.274-.274.274.274,0,0,1,.274-.274c7.59-.049,14.116-6.69,17-17.324,2.742-9.959,14.379-15.284,14.494-15.355a.276.276,0,1,1,.225.5c-.115.049-11.516,5.276-14.187,14.982-2.978,10.88-9.7,17.669-17.549,17.724Z" transform="translate(-58.5 -59.589)" fill="#fff"/>
        <path id="Trazado_1080801" data-name="Trazado 1080801" d="M58.775,95.646a.28.28,0,0,1-.241-.148.269.269,0,0,1,.115-.367C68.273,89.976,72.1,75.065,72.134,74.911a.274.274,0,0,1,.329-.2.28.28,0,0,1,.2.335c-.038.148-3.916,15.295-13.759,20.565A.291.291,0,0,1,58.775,95.646Z" transform="translate(-58.501 -64.859)" fill="#fff"/>
        <path id="Trazado_1080802" data-name="Trazado 1080802" d="M73.6,204.314a.247.247,0,0,1-.159-.055c-6.153-4.458-6.619-27.134-6.636-28.1a.274.274,0,1,1,.548-.005c0,.23.477,23.362,6.405,27.666a.274.274,0,0,1-.159.494Z" transform="translate(-62.253 -110.55)" fill="#fff"/>
        <path id="Trazado_1080803" data-name="Trazado 1080803" d="M92.028,211.446a.28.28,0,0,1-.219-.11c-2.55-3.373-1.919-11.094-1.892-11.423a.275.275,0,0,1,.548.049c0,.077-.636,7.837,1.788,11.045a.28.28,0,0,1-.055.384A.268.268,0,0,1,92.028,211.446Z" transform="translate(-72.648 -121.291)" fill="#fff"/>
        <path id="Trazado_1080804" data-name="Trazado 1080804" d="M197.234,197.949a.225.225,0,0,1-.1,0,.269.269,0,0,1-.148-.356c3.466-8.292.647-25.478.62-25.648a.28.28,0,0,1,.225-.318.274.274,0,0,1,.318.225c.115.713,2.874,17.516-.658,25.955A.274.274,0,0,1,197.234,197.949Z" transform="translate(-121.03 -108.627)" fill="#fff"/>
        <path id="Trazado_1080805" data-name="Trazado 1080805" d="M180.5,205.4a.3.3,0,0,1-.121-.027.274.274,0,0,1-.126-.367c2.078-4.228,0-11.856,0-11.933a.274.274,0,0,1,.186-.34.28.28,0,0,1,.34.192c.088.324,2.15,7.913,0,12.322A.274.274,0,0,1,180.5,205.4Z" transform="translate(-113.474 -118.156)" fill="#fff"/>
        <path id="Trazado_1080806" data-name="Trazado 1080806" d="M121.53,168.67l13.968-1.02a7.831,7.831,0,0,1-5.824,5.413c-.17.033-4.02.735-6.614-1.919a6.766,6.766,0,0,1-1.53-2.473Z" transform="translate(-86.965 -106.833)" fill="#fff"/>
      </g>
      <path id="Trazado_1080807" data-name="Trazado 1080807" d="M263.093,156.831a.564.564,0,0,1-.564-.534,63.23,63.23,0,0,0-10.379-31.684A65.886,65.886,0,0,0,242.005,155.8a.565.565,0,1,1-1.127-.071,67,67,0,0,1,10.788-32.455.561.561,0,0,1,.936-.008,64.388,64.388,0,0,1,11.044,32.969.56.56,0,0,1-.534.594Z" transform="translate(-111.303 -25.823)" fill="#ff8c5f"/>
      <path id="Trazado_1080808" data-name="Trazado 1080808" d="M252.3,217.248c-2.146-.064-7.425-.218-9.943-3.979a7.647,7.647,0,0,1-1.127-2.687V208.14h22.516v3.224a6.766,6.766,0,0,1-.887,2.134C260.307,217.481,254.119,217.3,252.3,217.248Z" transform="translate(-111.524 -78.958)" fill="#ff8c5f" fill-rule="evenodd"/>
      <path id="Trazado_1080809" data-name="Trazado 1080809" d="M389.253,156.831h-.03a.567.567,0,0,1-.534-.594,64.387,64.387,0,0,1,11.044-32.969.561.561,0,0,1,.936.008A66.952,66.952,0,0,1,411.46,155.73a.565.565,0,1,1-1.127.071,65.829,65.829,0,0,0-10.146-31.188A63.229,63.229,0,0,0,389.809,156.3.564.564,0,0,1,389.253,156.831Z" transform="translate(-203.572 -25.823)" fill="#ff8c5f"/>
      <path id="Trazado_1080810" data-name="Trazado 1080810" d="M400.453,217.248c2.142-.064,7.425-.218,9.943-3.979a7.7,7.7,0,0,0,1.127-2.687V208.14H389v3.224a6.635,6.635,0,0,0,.883,2.134C392.434,217.481,398.635,217.3,400.453,217.248Z" transform="translate(-203.767 -78.958)" fill="#ff8c5f" fill-rule="evenodd"/>
      <path id="Trazado_1080811" data-name="Trazado 1080811" d="M267.742,118.465a1.5,1.5,0,0,1-.4-2.95,105.049,105.049,0,0,1,56.68.008,1.5,1.5,0,0,1-.812,2.893,102.008,102.008,0,0,0-55.053,0,1.375,1.375,0,0,1-.413.049Z" transform="translate(-127.139 -18.709)" fill="#ff8c5f"/>
      <rect id="Rectángulo_418441" data-name="Rectángulo 418441" width="6.696" height="60.659" rx="3.348" transform="translate(165.19 85.842)" fill="#ff8c5f"/>
      <path id="Trazado_1080812" data-name="Trazado 1080812" d="M311.043,243.19h21.708a2.822,2.822,0,0,1,2.822,2.822v3.9a.282.282,0,0,1-.282.282H308.612a.282.282,0,0,1-.282-.282v-4a2.721,2.721,0,0,1,2.713-2.721Z" transform="translate(-153.41 -100.837)" fill="#ff8c5f"/>
    </g>
  </g>
</svg>
