<svg xmlns="http://www.w3.org/2000/svg" xmlns:xlink="http://www.w3.org/1999/xlink" width="400" height="340" viewBox="0 0 400 340">
  <defs>
    <clipPath id="clip-path">
      <rect id="Rectángulo_419053" data-name="Rectángulo 419053" width="400" height="340" transform="translate(1020 6218)" fill="#fff" stroke="#707070" stroke-width="1"/>
    </clipPath>
    <clipPath id="clip-path-2">
      <path id="Trazado_1083836" data-name="Trazado 1083836" d="M331,330.525H194.02c-9.2,0-16.73-6.782-16.73-15.07s7.528-15.07,16.73-15.07H331v30.139Z" transform="translate(-177.29 -300.386)"/>
    </clipPath>
    <clipPath id="clip-path-3">
      <path id="Trazado_1083841" data-name="Trazado 1083841" d="M150.437,373.522H296.8c9.2,0,16.729-6.782,16.729-15.07S306,343.383,296.8,343.383H150.437Z" transform="translate(-150.437 -343.383)"/>
    </clipPath>
  </defs>
  <g id="Enmascarar_grupo_1098920" data-name="Enmascarar grupo 1098920" transform="translate(-1020 -6218)" clip-path="url(#clip-path)">
    <g id="Grupo_1211726" data-name="Grupo 1211726" transform="translate(0 7)">
      <rect id="Rectángulo_419052" data-name="Rectángulo 419052" width="230" height="340" rx="26" transform="translate(1105 6211)" fill="#56678d"/>
      <g id="Grupo_1211725" data-name="Grupo 1211725" transform="translate(992.475 6195.284)">
        <g id="Grupo_1211577" data-name="Grupo 1211577" transform="translate(43.397 162.704)">
          <g id="Grupo_1211575" data-name="Grupo 1211575" transform="translate(286.472)">
            <path id="Trazado_1083747" data-name="Trazado 1083747" d="M367.708,328.044S337.776,221.36,444.559,175.738C444.558,175.738,460.691,283.157,367.708,328.044Z" transform="translate(-363.845 -175.738)" fill="#edddc3"/>
            <path id="Trazado_1083748" data-name="Trazado 1083748" d="M443.043,181.216c.407-.544-.508-1.07-.911-.532a314.531,314.531,0,0,0-20.087,30.834.406.406,0,0,0-.05.087c-.443.764-.89,1.526-1.329,2.293q-4.926,8.6-9.522,17.383a48.376,48.376,0,0,1-1.046-14.144,89.045,89.045,0,0,1,1.5-12.227c.151-.788.307-1.578.494-2.359.157-.66-.859-.942-1.018-.28a76.222,76.222,0,0,0-2.03,21.936,38.983,38.983,0,0,0,1.369,8.458q-4.7,9.005-9.129,18.147-5.446,11.212-10.546,22.589c-3.479-7.22-4.119-15.615-3.875-23.515a112.1,112.1,0,0,1,2.6-20.311c.293-1.348.6-2.7.966-4.029a.528.528,0,0,0-1.018-.28A100.589,100.589,0,0,0,387,237.149a87.228,87.228,0,0,0-.655,24.525,39.931,39.931,0,0,0,3.831,12.965q-2.357,5.255-4.658,10.535-1.965,4.524-3.88,9.071a.443.443,0,0,0-.028.067q-3.149,7.453-6.174,14.956c-2.116-8.15-2.3-16.836-2.178-25.195.115-7.8.673-15.6,1.546-23.358.172-1.529.361-3.141.568-4.587.1-.664-.921-.951-1.018-.28-.636,4.438-1.066,8.912-1.423,13.381a183,183,0,0,0-.428,27.359,69.154,69.154,0,0,0,2.281,14.293c-.044.11-.089.219-.133.33q-1.6,4-3.156,8.012a34.994,34.994,0,0,0-1.41,3.684,1.527,1.527,0,0,1-.059.158c-.238.637.781.912,1.018.28,1.19-3.189,2.44-6.356,3.695-9.518,2.509-6.323,5.112-12.61,7.758-18.877,7.812-2.155,14.893-6.592,21.284-11.467a132.166,132.166,0,0,0,14.976-13.409c.918-.952,1.831-1.912,2.7-2.907.445-.509-.3-1.259-.746-.746-2.42,2.767-5.06,5.361-7.74,7.874a106.751,106.751,0,0,1-18.365,14.153,52.272,52.272,0,0,1-11.581,5.246c.641-1.512,1.267-3.03,1.915-4.54q7.1-16.519,14.825-32.758c13.991-5.34,26.388-15.038,35.6-26.8.69-.881,1.379-1.77,2-2.7.378-.566-.535-1.095-.911-.532a62.5,62.5,0,0,1-5.881,7.258,88.6,88.6,0,0,1-17.018,14.554,74.764,74.764,0,0,1-13.125,6.833c5.856-12.216,12.008-24.3,18.62-36.121q1.856-3.319,3.767-6.609a39.5,39.5,0,0,0,13.458-5.924,17.925,17.925,0,0,0,4.028-3.679c.4-.547-.512-1.073-.911-.532.111-.15-.084.1-.16.192q-.336.386-.695.749a22.211,22.211,0,0,1-2.929,2.454,37.973,37.973,0,0,1-12.044,5.45c5.21-8.929,10.729-17.684,16.762-26.076Q441.668,183.052,443.043,181.216Z" transform="translate(-364.467 -176.215)" fill="#fff9f0"/>
          </g>
          <g id="Grupo_1211576" data-name="Grupo 1211576" transform="translate(0)">
            <path id="Trazado_1083749" data-name="Trazado 1083749" d="M123.1,328.044S153.034,221.36,46.251,175.738C46.252,175.738,30.119,283.157,123.1,328.044Z" transform="translate(-45.181 -175.738)" fill="#edddc3"/>
            <path id="Trazado_1083750" data-name="Trazado 1083750" d="M48.737,181.216c-.407-.544.508-1.07.911-.532a314.528,314.528,0,0,1,20.087,30.834.447.447,0,0,1,.05.087c.443.764.89,1.526,1.329,2.293q4.926,8.6,9.522,17.383a48.376,48.376,0,0,0,1.046-14.144,89.044,89.044,0,0,0-1.5-12.227c-.151-.788-.307-1.578-.494-2.359-.157-.66.859-.942,1.018-.28a76.19,76.19,0,0,1,2.029,21.936,38.982,38.982,0,0,1-1.369,8.458q4.7,9.005,9.129,18.147,5.446,11.212,10.546,22.589c3.479-7.22,4.119-15.615,3.875-23.515a112.1,112.1,0,0,0-2.6-20.311c-.293-1.348-.6-2.7-.966-4.029a.528.528,0,0,1,1.018-.28,100.585,100.585,0,0,1,2.407,11.886,87.228,87.228,0,0,1,.655,24.525,39.931,39.931,0,0,1-3.831,12.965q2.357,5.255,4.658,10.535,1.965,4.524,3.88,9.071a.444.444,0,0,1,.028.067q3.15,7.453,6.174,14.956c2.116-8.15,2.3-16.836,2.178-25.195-.115-7.8-.672-15.6-1.545-23.358-.172-1.529-.36-3.141-.568-4.587-.1-.664.921-.951,1.018-.28.636,4.438,1.066,8.912,1.423,13.381a183,183,0,0,1,.428,27.359,69.218,69.218,0,0,1-2.281,14.293c.044.11.089.219.133.33q1.6,4,3.156,8.012a34.989,34.989,0,0,1,1.41,3.684,1.536,1.536,0,0,0,.059.158c.237.637-.781.912-1.018.28-1.19-3.189-2.44-6.356-3.695-9.518-2.509-6.323-5.112-12.61-7.758-18.877-7.812-2.155-14.893-6.592-21.284-11.467a132.163,132.163,0,0,1-14.976-13.409c-.918-.952-1.831-1.912-2.7-2.907-.445-.509.3-1.259.746-.746,2.42,2.767,5.06,5.361,7.74,7.874a106.751,106.751,0,0,0,18.365,14.153,52.272,52.272,0,0,0,11.582,5.246c-.641-1.512-1.267-3.03-1.915-4.54q-7.1-16.519-14.825-32.758c-13.991-5.34-26.388-15.038-35.6-26.8-.69-.881-1.379-1.77-2-2.7-.378-.566.535-1.095.911-.532a62.5,62.5,0,0,0,5.881,7.258,88.6,88.6,0,0,0,17.018,14.554,74.764,74.764,0,0,0,13.125,6.833c-5.856-12.216-12.008-24.3-18.62-36.121q-1.855-3.319-3.767-6.609A39.5,39.5,0,0,1,55.5,206.354a17.925,17.925,0,0,1-4.028-3.679c-.4-.547.512-1.073.911-.532-.111-.15.084.1.16.192q.336.386.695.749a22.272,22.272,0,0,0,2.929,2.454,37.973,37.973,0,0,0,12.044,5.45C63,202.06,57.483,193.3,51.45,184.912Q50.112,183.052,48.737,181.216Z" transform="translate(-45.53 -176.215)" fill="#fff9f0"/>
          </g>
        </g>
        <g id="Grupo_1211724" data-name="Grupo 1211724" transform="translate(27.525 46.721)">
          <g id="Grupo_1211723" data-name="Grupo 1211723" transform="translate(11.862)">
            <g id="Grupo_1211640" data-name="Grupo 1211640" transform="translate(0 144.289)">
              <g id="Grupo_1211608" data-name="Grupo 1211608" transform="translate(280.767)">
                <g id="Grupo_1211592" data-name="Grupo 1211592" transform="translate(12.679)">
                  <g id="Grupo_1211578" data-name="Grupo 1211578" transform="translate(0 13.62)">
                    <path id="Trazado_1083751" data-name="Trazado 1083751" d="M368.3,328.412a113.588,113.588,0,0,0,13.311-17.247,179.244,179.244,0,0,0,22.361-48.633,181.628,181.628,0,0,0,6.8-39.5c.053-.876-1.31-.873-1.363,0a179.9,179.9,0,0,1-16.063,64.149,165.554,165.554,0,0,1-21.3,34.842c-1.5,1.857-3.031,3.719-4.706,5.424-.615.627.348,1.591.964.965Z" transform="translate(-367.143 -222.376)" fill="#d9ae5f"/>
                  </g>
                  <g id="Grupo_1211579" data-name="Grupo 1211579" transform="translate(39.031)">
                    <path id="Trazado_1083752" data-name="Trazado 1083752" d="M412.837,237.149s-7.358-17.752,4.385-29.923C417.222,207.225,421.864,224.053,412.837,237.149Z" transform="translate(-410.561 -207.225)" fill="#d9ae5f"/>
                    <path id="Trazado_1083753" data-name="Trazado 1083753" d="M417.344,207.225c-.454.47-.869.951-1.268,1.437.761,5.5,1.144,15.76-4.308,24.656a29.806,29.806,0,0,0,1.19,3.83C421.986,224.053,417.344,207.225,417.344,207.225Z" transform="translate(-410.683 -207.225)" fill="#061726" opacity="0.1"/>
                  </g>
                  <g id="Grupo_1211582" data-name="Grupo 1211582" transform="translate(30.323 15.935)">
                    <g id="Grupo_1211580" data-name="Grupo 1211580" transform="translate(8.431 5.688)">
                      <path id="Trazado_1083754" data-name="Trazado 1083754" d="M410.253,254.137s3.353-18.922,19.8-22.859C430.055,231.278,424.909,247.958,410.253,254.137Z" transform="translate(-410.253 -231.278)" fill="#d9ae5f"/>
                      <path id="Trazado_1083755" data-name="Trazado 1083755" d="M430.055,231.278c-.636.152-1.245.334-1.842.529-2.32,5.046-7.518,13.9-16.9,18.461a29.743,29.743,0,0,0-1.058,3.868C424.909,247.958,430.055,231.278,430.055,231.278Z" transform="translate(-410.253 -231.278)" fill="#061726" opacity="0.1"/>
                    </g>
                    <g id="Grupo_1211581" data-name="Grupo 1211581">
                      <path id="Trazado_1083756" data-name="Trazado 1083756" d="M408.694,254.659s-12.773-14.358-5.671-29.707C403.023,224.951,412.927,239.327,408.694,254.659Z" transform="translate(-400.874 -224.951)" fill="#d9ae5f"/>
                      <path id="Trazado_1083757" data-name="Trazado 1083757" d="M403.183,224.951c-.274.593-.51,1.184-.726,1.774,2.523,4.948,6.249,14.513,4.017,24.706a29.744,29.744,0,0,0,2.38,3.228C413.086,239.327,403.183,224.951,403.183,224.951Z" transform="translate(-401.034 -224.951)" fill="#061726" opacity="0.1"/>
                    </g>
                  </g>
                  <g id="Grupo_1211585" data-name="Grupo 1211585" transform="translate(26.688 36.398)">
                    <g id="Grupo_1211583" data-name="Grupo 1211583" transform="translate(6.139 9.007)">
                      <path id="Trazado_1083758" data-name="Trazado 1083758" d="M403.66,277.844s5.768-18.33,22.587-20.112C426.247,257.732,418.991,273.609,403.66,277.844Z" transform="translate(-403.66 -257.732)" fill="#d9ae5f"/>
                      <path id="Trazado_1083759" data-name="Trazado 1083759" d="M426.247,257.732c-.65.069-1.277.171-1.9.287-2.952,4.7-9.249,12.811-19.143,16.126a29.734,29.734,0,0,0-1.549,3.7C418.991,273.609,426.247,257.732,426.247,257.732Z" transform="translate(-403.66 -257.732)" fill="#061726" opacity="0.1"/>
                    </g>
                    <g id="Grupo_1211584" data-name="Grupo 1211584">
                      <path id="Trazado_1083760" data-name="Trazado 1083760" d="M402.214,277.9s-10.813-15.886-1.789-30.19C400.425,247.713,408.39,263.246,402.214,277.9Z" transform="translate(-396.831 -247.713)" fill="#d9ae5f"/>
                      <path id="Trazado_1083761" data-name="Trazado 1083761" d="M400.722,247.713c-.349.553-.658,1.108-.949,1.665,1.863,5.232,4.324,15.2.795,25.018a29.687,29.687,0,0,0,1.944,3.508C408.687,263.246,400.722,247.713,400.722,247.713Z" transform="translate(-397.128 -247.713)" fill="#061726" opacity="0.1"/>
                    </g>
                  </g>
                  <g id="Grupo_1211588" data-name="Grupo 1211588" transform="translate(19.35 56.004)">
                    <g id="Grupo_1211586" data-name="Grupo 1211586" transform="translate(4.515 11.602)">
                      <path id="Trazado_1083762" data-name="Trazado 1083762" d="M393.692,300.052s7.665-17.622,24.578-17.623C418.27,282.429,409.384,297.454,393.692,300.052Z" transform="translate(-393.691 -282.429)" fill="#d9ae5f"/>
                      <path id="Trazado_1083763" data-name="Trazado 1083763" d="M418.27,282.429c-.654,0-1.288.035-1.915.085-3.431,4.367-10.546,11.767-20.734,14.021a29.845,29.845,0,0,0-1.93,3.516C409.384,297.454,418.27,282.429,418.27,282.429Z" transform="translate(-393.691 -282.429)" fill="#061726" opacity="0.1"/>
                    </g>
                    <g id="Grupo_1211587" data-name="Grupo 1211587">
                      <path id="Trazado_1083764" data-name="Trazado 1083764" d="M392.32,299.734s-9.081-16.936,1.4-30.211C393.718,269.523,400,285.808,392.32,299.734Z" transform="translate(-388.668 -269.523)" fill="#d9ae5f"/>
                      <path id="Trazado_1083765" data-name="Trazado 1083765" d="M393.952,269.523c-.4.513-.771,1.033-1.119,1.555,1.3,5.4,2.7,15.568-1.843,24.962a29.709,29.709,0,0,0,1.563,3.693C400.239,285.808,393.952,269.523,393.952,269.523Z" transform="translate(-388.903 -269.523)" fill="#061726" opacity="0.1"/>
                    </g>
                  </g>
                  <g id="Grupo_1211591" data-name="Grupo 1211591" transform="translate(9.295 75.66)">
                    <g id="Grupo_1211589" data-name="Grupo 1211589" transform="translate(3.346 13.612)">
                      <path id="Trazado_1083766" data-name="Trazado 1083766" d="M381.2,321.976s9.212-16.864,26.058-15.352C407.263,306.625,397.067,320.794,381.2,321.976Z" transform="translate(-381.205 -306.528)" fill="#d9ae5f"/>
                      <path id="Trazado_1083767" data-name="Trazado 1083767" d="M407.263,306.626c-.651-.058-1.286-.081-1.915-.086-3.808,4.043-11.557,10.775-21.906,12.108a29.8,29.8,0,0,0-2.237,3.329C397.067,320.8,407.263,306.626,407.263,306.626Z" transform="translate(-381.205 -306.529)" fill="#061726" opacity="0.1"/>
                    </g>
                    <g id="Grupo_1211590" data-name="Grupo 1211590">
                      <path id="Trazado_1083768" data-name="Trazado 1083768" d="M379.88,321.352s-7.528-17.68,4.1-29.965C383.978,291.388,388.78,308.17,379.88,321.352Z" transform="translate(-377.483 -291.387)" fill="#d9ae5f"/>
                      <path id="Trazado_1083769" data-name="Trazado 1083769" d="M384.11,291.388c-.45.475-.86.959-1.254,1.449.813,5.495,1.3,15.748-4.071,24.7a29.764,29.764,0,0,0,1.227,3.819C388.912,308.17,384.11,291.388,384.11,291.388Z" transform="translate(-377.614 -291.387)" fill="#061726" opacity="0.1"/>
                    </g>
                  </g>
                </g>
                <g id="Grupo_1211607" data-name="Grupo 1211607" transform="translate(0 64.368)">
                  <g id="Grupo_1211593" data-name="Grupo 1211593" transform="translate(0 8.679)">
                    <path id="Trazado_1083770" data-name="Trazado 1083770" d="M353.751,346.464a103.152,103.152,0,0,0,18.821-6.067,162.7,162.7,0,0,0,41.717-24.9,164.888,164.888,0,0,0,25.381-26.067c.49-.628-.531-1.326-1.019-.7a163.3,163.3,0,0,1-44.977,39.752,150.324,150.324,0,0,1-33.84,15.13c-2.077.619-4.179,1.226-6.308,1.642a.618.618,0,0,0,.226,1.215Z" transform="translate(-353.039 -288.481)" fill="#d9ae5f"/>
                  </g>
                  <g id="Grupo_1211594" data-name="Grupo 1211594" transform="translate(76.853)">
                    <path id="Trazado_1083771" data-name="Trazado 1083771" d="M438.529,298.966s3.614-17.064,18.655-20.139C457.184,278.826,452.011,293.8,438.529,298.966Z" transform="translate(-438.529 -278.826)" fill="#d9ae5f"/>
                    <path id="Trazado_1083772" data-name="Trazado 1083772" d="M457.184,278.826c-.582.119-1.14.265-1.686.424-2.257,4.507-7.24,12.381-15.89,16.238a27.028,27.028,0,0,0-1.077,3.477C452.011,293.8,457.184,278.826,457.184,278.826Z" transform="translate(-438.529 -278.826)" fill="#061726" opacity="0.1"/>
                  </g>
                  <g id="Grupo_1211597" data-name="Grupo 1211597" transform="translate(66.274 5.133)">
                    <g id="Grupo_1211595" data-name="Grupo 1211595" transform="translate(1.188 16.251)">
                      <path id="Trazado_1083773" data-name="Trazado 1083773" d="M428.084,310.951s12.231-12.436,26.562-6.932C454.645,304.018,442.225,313.857,428.084,310.951Z" transform="translate(-428.083 -302.613)" fill="#d9ae5f"/>
                      <path id="Trazado_1083774" data-name="Trazado 1083774" d="M454.645,304.114c-.554-.213-1.1-.39-1.65-.55-4.329,2.584-12.766,6.537-22.133,5.132a27.02,27.02,0,0,0-2.78,2.351C442.225,313.953,454.645,304.114,454.645,304.114Z" transform="translate(-428.083 -302.709)" fill="#061726" opacity="0.1"/>
                    </g>
                    <g id="Grupo_1211596" data-name="Grupo 1211596">
                      <path id="Trazado_1083775" data-name="Trazado 1083775" d="M426.9,309.679s-2.182-17.305,11.019-25.143C437.915,284.536,437.941,300.38,426.9,309.679Z" transform="translate(-426.761 -284.536)" fill="#d9ae5f"/>
                      <path id="Trazado_1083776" data-name="Trazado 1083776" d="M437.915,284.536c-.51.3-.99.624-1.455.954-.654,5-2.78,14.071-9.686,20.551a27.048,27.048,0,0,0,.123,3.638C437.941,300.38,437.915,284.536,437.915,284.536Z" transform="translate(-426.761 -284.536)" fill="#061726" opacity="0.1"/>
                    </g>
                  </g>
                  <g id="Grupo_1211600" data-name="Grupo 1211600" transform="translate(51.106 19.32)">
                    <g id="Grupo_1211598" data-name="Grupo 1211598" transform="translate(1.117 17.106)">
                      <path id="Trazado_1083777" data-name="Trazado 1083777" d="M411.13,325.337s13.733-10.754,27.234-3.447C438.364,321.891,424.778,330.044,411.13,325.337Z" transform="translate(-411.13 -319.346)" fill="#d9ae5f"/>
                      <path id="Trazado_1083778" data-name="Trazado 1083778" d="M438.364,322.091c-.521-.282-1.044-.529-1.565-.759-4.626,2-13.5,4.836-22.609,2.233a27.159,27.159,0,0,0-3.06,1.972C424.778,330.244,438.364,322.091,438.364,322.091Z" transform="translate(-411.13 -319.546)" fill="#061726" opacity="0.1"/>
                    </g>
                    <g id="Grupo_1211599" data-name="Grupo 1211599">
                      <path id="Trazado_1083779" data-name="Trazado 1083779" d="M409.888,323.829s.069-17.443,14.171-23.511C424.059,300.317,422.039,316.033,409.888,323.829Z" transform="translate(-409.888 -300.317)" fill="#d9ae5f"/>
                      <path id="Trazado_1083780" data-name="Trazado 1083780" d="M424.059,300.317c-.545.235-1.062.491-1.565.758-1.294,4.872-4.572,13.594-12.258,19.129a27.135,27.135,0,0,0-.348,3.624C422.039,316.033,424.059,300.317,424.059,300.317Z" transform="translate(-409.888 -300.317)" fill="#061726" opacity="0.1"/>
                    </g>
                  </g>
                  <g id="Grupo_1211603" data-name="Grupo 1211603" transform="translate(34.234 30.97)">
                    <g id="Grupo_1211601" data-name="Grupo 1211601" transform="translate(1.155 17.313)">
                      <path id="Trazado_1083781" data-name="Trazado 1083781" d="M392.4,336.817s14.789-9.249,27.446-.561C419.851,336.256,405.481,342.934,392.4,336.817Z" transform="translate(-392.405 -332.535)" fill="#d9ae5f"/>
                      <path id="Trazado_1083782" data-name="Trazado 1083782" d="M419.851,336.553c-.489-.335-.982-.636-1.476-.92-4.811,1.506-13.937,3.387-22.719-.16a26.976,26.976,0,0,0-3.251,1.64C405.481,343.231,419.851,336.553,419.851,336.553Z" transform="translate(-392.405 -332.832)" fill="#061726" opacity="0.1"/>
                    </g>
                    <g id="Grupo_1211602" data-name="Grupo 1211602">
                      <path id="Trazado_1083783" data-name="Trazado 1083783" d="M391.121,335.165s1.9-17.339,16.567-21.889C407.688,313.276,404.026,328.692,391.121,335.165Z" transform="translate(-391.12 -313.276)" fill="#d9ae5f"/>
                      <path id="Trazado_1083784" data-name="Trazado 1083784" d="M407.688,313.276c-.566.176-1.108.377-1.637.589-1.8,4.709-5.977,13.038-14.2,17.732a27.127,27.127,0,0,0-.727,3.567C404.026,328.692,407.688,313.276,407.688,313.276Z" transform="translate(-391.12 -313.276)" fill="#061726" opacity="0.1"/>
                    </g>
                  </g>
                  <g id="Grupo_1211606" data-name="Grupo 1211606" transform="translate(15.8 41.255)">
                    <g id="Grupo_1211604" data-name="Grupo 1211604" transform="translate(1.176 17.124)">
                      <path id="Trazado_1083785" data-name="Trazado 1083785" d="M371.923,346.769s15.558-7.888,27.386,1.9C399.308,348.669,384.4,354.033,371.923,346.769Z" transform="translate(-371.923 -343.765)" fill="#d9ae5f"/>
                      <path id="Trazado_1083786" data-name="Trazado 1083786" d="M399.308,348.856c-.457-.379-.921-.721-1.388-1.048-4.926,1.069-14.184,2.126-22.614-2.194a27.009,27.009,0,0,0-3.384,1.342C384.4,354.22,399.308,348.856,399.308,348.856Z" transform="translate(-371.923 -343.952)" fill="#061726" opacity="0.1"/>
                    </g>
                    <g id="Grupo_1211605" data-name="Grupo 1211605">
                      <path id="Trazado_1083787" data-name="Trazado 1083787" d="M370.615,345.035s3.449-17.1,18.46-20.318C389.075,324.717,384.048,339.743,370.615,345.035Z" transform="translate(-370.615 -324.717)" fill="#d9ae5f"/>
                      <path id="Trazado_1083788" data-name="Trazado 1083788" d="M389.075,324.717c-.58.124-1.136.276-1.683.44-2.214,4.529-7.121,12.45-15.734,16.389a27.047,27.047,0,0,0-1.044,3.488C384.048,339.743,389.075,324.717,389.075,324.717Z" transform="translate(-370.615 -324.717)" fill="#061726" opacity="0.1"/>
                    </g>
                  </g>
                </g>
              </g>
              <g id="Grupo_1211639" data-name="Grupo 1211639">
                <g id="Grupo_1211623" data-name="Grupo 1211623" transform="translate(24.271)">
                  <g id="Grupo_1211609" data-name="Grupo 1211609" transform="translate(14.924 13.62)">
                    <path id="Trazado_1083789" data-name="Trazado 1083789" d="M126.792,328.412a113.587,113.587,0,0,1-13.311-17.247A179.245,179.245,0,0,1,91.12,262.532a181.625,181.625,0,0,1-6.8-39.5c-.054-.876,1.31-.873,1.363,0a179.9,179.9,0,0,0,16.063,64.149,165.554,165.554,0,0,0,21.3,34.842c1.5,1.857,3.031,3.719,4.706,5.424.615.627-.348,1.591-.964.965Z" transform="translate(-84.32 -222.376)" fill="#d9ae5f"/>
                  </g>
                  <g id="Grupo_1211610" data-name="Grupo 1211610" transform="translate(11.671)">
                    <path id="Trazado_1083790" data-name="Trazado 1083790" d="M86.28,237.149s7.358-17.752-4.385-29.923C81.895,207.225,77.254,224.053,86.28,237.149Z" transform="translate(-80.702 -207.225)" fill="#d9ae5f"/>
                    <path id="Trazado_1083791" data-name="Trazado 1083791" d="M81.895,207.225c.454.47.869.951,1.268,1.437-.761,5.5-1.144,15.76,4.308,24.656a29.8,29.8,0,0,1-1.19,3.83C77.254,224.053,81.895,207.225,81.895,207.225Z" transform="translate(-80.702 -207.225)" fill="#061726" opacity="0.1"/>
                  </g>
                  <g id="Grupo_1211613" data-name="Grupo 1211613" transform="translate(0 15.935)">
                    <g id="Grupo_1211611" data-name="Grupo 1211611" transform="translate(0 5.688)">
                      <path id="Trazado_1083792" data-name="Trazado 1083792" d="M87.522,254.137s-3.353-18.922-19.8-22.859C67.72,231.278,72.866,247.958,87.522,254.137Z" transform="translate(-67.719 -231.278)" fill="#d9ae5f"/>
                      <path id="Trazado_1083793" data-name="Trazado 1083793" d="M67.72,231.278c.636.152,1.245.334,1.842.529,2.32,5.046,7.518,13.9,16.9,18.461a29.741,29.741,0,0,1,1.058,3.868C72.866,247.958,67.72,231.278,67.72,231.278Z" transform="translate(-67.719 -231.278)" fill="#061726" opacity="0.1"/>
                    </g>
                    <g id="Grupo_1211612" data-name="Grupo 1211612" transform="translate(19.362)">
                      <path id="Trazado_1083794" data-name="Trazado 1083794" d="M90.309,254.659s12.773-14.358,5.671-29.707C95.979,224.951,86.076,239.327,90.309,254.659Z" transform="translate(-89.257 -224.951)" fill="#d9ae5f"/>
                      <path id="Trazado_1083795" data-name="Trazado 1083795" d="M95.979,224.951c.274.593.51,1.184.726,1.774-2.523,4.948-6.249,14.513-4.017,24.706a29.744,29.744,0,0,1-2.38,3.228C86.076,239.327,95.979,224.951,95.979,224.951Z" transform="translate(-89.257 -224.951)" fill="#061726" opacity="0.1"/>
                    </g>
                  </g>
                  <g id="Grupo_1211616" data-name="Grupo 1211616" transform="translate(3.143 36.398)">
                    <g id="Grupo_1211614" data-name="Grupo 1211614" transform="translate(0 9.007)">
                      <path id="Trazado_1083796" data-name="Trazado 1083796" d="M93.8,277.844s-5.768-18.33-22.587-20.112C71.215,257.732,78.47,273.609,93.8,277.844Z" transform="translate(-71.215 -257.732)" fill="#d9ae5f"/>
                      <path id="Trazado_1083797" data-name="Trazado 1083797" d="M71.215,257.732c.65.069,1.277.171,1.9.287,2.952,4.7,9.249,12.811,19.143,16.126a29.909,29.909,0,0,1,1.549,3.7C78.47,273.609,71.215,257.732,71.215,257.732Z" transform="translate(-71.215 -257.732)" fill="#061726" opacity="0.1"/>
                    </g>
                    <g id="Grupo_1211615" data-name="Grupo 1211615" transform="translate(20.995)">
                      <path id="Trazado_1083798" data-name="Trazado 1083798" d="M96.916,277.9s10.813-15.886,1.789-30.19C98.706,247.713,90.741,263.246,96.916,277.9Z" transform="translate(-94.57 -247.713)" fill="#d9ae5f"/>
                      <path id="Trazado_1083799" data-name="Trazado 1083799" d="M98.706,247.713c.349.553.658,1.108.949,1.665-1.863,5.232-4.324,15.2-.795,25.018a29.691,29.691,0,0,1-1.944,3.508C90.741,263.246,98.706,247.713,98.706,247.713Z" transform="translate(-94.57 -247.713)" fill="#061726" opacity="0.1"/>
                    </g>
                  </g>
                  <g id="Grupo_1211619" data-name="Grupo 1211619" transform="translate(10.113 56.004)">
                    <g id="Grupo_1211617" data-name="Grupo 1211617" transform="translate(0 11.602)">
                      <path id="Trazado_1083800" data-name="Trazado 1083800" d="M103.546,300.052s-7.665-17.622-24.578-17.623C78.968,282.429,87.854,297.454,103.546,300.052Z" transform="translate(-78.968 -282.429)" fill="#d9ae5f"/>
                      <path id="Trazado_1083801" data-name="Trazado 1083801" d="M78.968,282.429c.654,0,1.288.035,1.915.085,3.431,4.367,10.546,11.767,20.734,14.021a29.735,29.735,0,0,1,1.929,3.516C87.854,297.454,78.968,282.429,78.968,282.429Z" transform="translate(-78.968 -282.429)" fill="#061726" opacity="0.1"/>
                    </g>
                    <g id="Grupo_1211618" data-name="Grupo 1211618" transform="translate(21.623)">
                      <path id="Trazado_1083802" data-name="Trazado 1083802" d="M106.841,299.734s9.081-16.936-1.4-30.211C105.443,269.523,99.156,285.808,106.841,299.734Z" transform="translate(-103.021 -269.523)" fill="#d9ae5f"/>
                      <path id="Trazado_1083803" data-name="Trazado 1083803" d="M105.443,269.523c.4.513.771,1.033,1.119,1.555-1.3,5.4-2.7,15.568,1.843,24.962a29.615,29.615,0,0,1-1.564,3.693C99.156,285.808,105.443,269.523,105.443,269.523Z" transform="translate(-103.021 -269.523)" fill="#061726" opacity="0.1"/>
                    </g>
                  </g>
                  <g id="Grupo_1211622" data-name="Grupo 1211622" transform="translate(19.857 75.66)">
                    <g id="Grupo_1211620" data-name="Grupo 1211620" transform="translate(0 13.612)">
                      <path id="Trazado_1083804" data-name="Trazado 1083804" d="M115.866,321.976s-9.212-16.864-26.058-15.352C89.809,306.625,100.005,320.794,115.866,321.976Z" transform="translate(-89.808 -306.528)" fill="#d9ae5f"/>
                      <path id="Trazado_1083805" data-name="Trazado 1083805" d="M89.809,306.626c.651-.058,1.286-.081,1.915-.086,3.808,4.043,11.557,10.775,21.906,12.108a29.8,29.8,0,0,1,2.237,3.329C100.005,320.8,89.809,306.626,89.809,306.626Z" transform="translate(-89.808 -306.529)" fill="#061726" opacity="0.1"/>
                    </g>
                    <g id="Grupo_1211621" data-name="Grupo 1211621" transform="translate(21.616)">
                      <path id="Trazado_1083806" data-name="Trazado 1083806" d="M119.245,321.352s7.528-17.68-4.1-29.965C115.147,291.388,110.344,308.17,119.245,321.352Z" transform="translate(-113.853 -291.387)" fill="#d9ae5f"/>
                      <path id="Trazado_1083807" data-name="Trazado 1083807" d="M115.147,291.388c.449.475.86.959,1.254,1.449-.813,5.495-1.3,15.748,4.071,24.7a29.766,29.766,0,0,1-1.227,3.819C110.344,308.17,115.147,291.388,115.147,291.388Z" transform="translate(-113.853 -291.387)" fill="#061726" opacity="0.1"/>
                    </g>
                  </g>
                </g>
                <g id="Grupo_1211638" data-name="Grupo 1211638" transform="translate(0 64.368)">
                  <g id="Grupo_1211624" data-name="Grupo 1211624" transform="translate(8.748 8.679)">
                    <path id="Trazado_1083808" data-name="Trazado 1083808" d="M136.5,346.464a103.152,103.152,0,0,1-18.821-6.067,162.715,162.715,0,0,1-41.718-24.9,164.881,164.881,0,0,1-25.38-26.067c-.49-.628.531-1.326,1.019-.7a163.3,163.3,0,0,0,44.977,39.752,150.324,150.324,0,0,0,33.84,15.13c2.077.619,4.179,1.226,6.308,1.642a.618.618,0,0,1-.226,1.215Z" transform="translate(-50.451 -288.481)" fill="#d9ae5f"/>
                  </g>
                  <g id="Grupo_1211625" data-name="Grupo 1211625">
                    <path id="Trazado_1083809" data-name="Trazado 1083809" d="M59.375,298.966S55.761,281.9,40.72,278.827C40.72,278.826,45.892,293.8,59.375,298.966Z" transform="translate(-40.72 -278.826)" fill="#d9ae5f"/>
                    <path id="Trazado_1083810" data-name="Trazado 1083810" d="M40.72,278.826c.581.119,1.139.265,1.687.424,2.257,4.507,7.24,12.381,15.89,16.238a27.024,27.024,0,0,1,1.077,3.477C45.892,293.8,40.72,278.826,40.72,278.826Z" transform="translate(-40.72 -278.826)" fill="#061726" opacity="0.1"/>
                  </g>
                  <g id="Grupo_1211628" data-name="Grupo 1211628" transform="translate(1.482 5.133)">
                    <g id="Grupo_1211626" data-name="Grupo 1211626" transform="translate(0 16.251)">
                      <path id="Trazado_1083811" data-name="Trazado 1083811" d="M68.931,310.951S56.7,298.515,42.369,304.019C42.37,304.018,54.789,313.857,68.931,310.951Z" transform="translate(-42.369 -302.613)" fill="#d9ae5f"/>
                      <path id="Trazado_1083812" data-name="Trazado 1083812" d="M42.37,304.114c.554-.213,1.1-.39,1.65-.55,4.329,2.584,12.765,6.537,22.132,5.132a27.019,27.019,0,0,1,2.78,2.351C54.789,313.953,42.37,304.114,42.37,304.114Z" transform="translate(-42.369 -302.709)" fill="#061726" opacity="0.1"/>
                    </g>
                    <g id="Grupo_1211627" data-name="Grupo 1211627" transform="translate(16.598)">
                      <path id="Trazado_1083813" data-name="Trazado 1083813" d="M71.851,309.679s2.182-17.305-11.019-25.143C60.832,284.536,60.806,300.38,71.851,309.679Z" transform="translate(-60.832 -284.536)" fill="#d9ae5f"/>
                      <path id="Trazado_1083814" data-name="Trazado 1083814" d="M60.832,284.536c.51.3.99.624,1.455.954.654,5,2.78,14.071,9.686,20.551a27.047,27.047,0,0,1-.123,3.638C60.806,300.38,60.832,284.536,60.832,284.536Z" transform="translate(-60.832 -284.536)" fill="#061726" opacity="0.1"/>
                    </g>
                  </g>
                  <g id="Grupo_1211631" data-name="Grupo 1211631" transform="translate(16.051 19.32)">
                    <g id="Grupo_1211629" data-name="Grupo 1211629" transform="translate(0 17.106)">
                      <path id="Trazado_1083815" data-name="Trazado 1083815" d="M85.809,325.337s-13.733-10.754-27.234-3.447C58.575,321.891,72.161,330.044,85.809,325.337Z" transform="translate(-58.575 -319.346)" fill="#d9ae5f"/>
                      <path id="Trazado_1083816" data-name="Trazado 1083816" d="M58.575,322.091c.521-.282,1.044-.529,1.565-.759,4.626,2,13.5,4.836,22.609,2.233a27.161,27.161,0,0,1,3.06,1.972C72.161,330.244,58.575,322.091,58.575,322.091Z" transform="translate(-58.575 -319.546)" fill="#061726" opacity="0.1"/>
                    </g>
                    <g id="Grupo_1211630" data-name="Grupo 1211630" transform="translate(14.18)">
                      <path id="Trazado_1083817" data-name="Trazado 1083817" d="M88.52,323.829s-.069-17.443-14.171-23.511C74.349,300.317,76.368,316.033,88.52,323.829Z" transform="translate(-74.349 -300.317)" fill="#d9ae5f"/>
                      <path id="Trazado_1083818" data-name="Trazado 1083818" d="M74.349,300.317c.545.235,1.062.491,1.566.758,1.294,4.872,4.572,13.594,12.258,19.129a27.136,27.136,0,0,1,.348,3.624C76.368,316.033,74.349,300.317,74.349,300.317Z" transform="translate(-74.349 -300.317)" fill="#061726" opacity="0.1"/>
                    </g>
                  </g>
                  <g id="Grupo_1211634" data-name="Grupo 1211634" transform="translate(32.673 30.97)">
                    <g id="Grupo_1211632" data-name="Grupo 1211632" transform="translate(0 17.313)">
                      <path id="Trazado_1083819" data-name="Trazado 1083819" d="M104.511,336.817s-14.789-9.249-27.446-.561C77.065,336.256,91.434,342.934,104.511,336.817Z" transform="translate(-77.065 -332.535)" fill="#d9ae5f"/>
                      <path id="Trazado_1083820" data-name="Trazado 1083820" d="M77.065,336.553c.489-.335.982-.636,1.476-.92,4.811,1.506,13.937,3.387,22.719-.16a27,27,0,0,1,3.25,1.64C91.434,343.231,77.065,336.553,77.065,336.553Z" transform="translate(-77.065 -332.832)" fill="#061726" opacity="0.1"/>
                    </g>
                    <g id="Grupo_1211633" data-name="Grupo 1211633" transform="translate(12.033)">
                      <path id="Trazado_1083821" data-name="Trazado 1083821" d="M107.017,335.165s-1.9-17.339-16.567-21.889C90.45,313.276,94.112,328.692,107.017,335.165Z" transform="translate(-90.45 -313.276)" fill="#d9ae5f"/>
                      <path id="Trazado_1083822" data-name="Trazado 1083822" d="M90.45,313.276c.566.176,1.108.377,1.637.589,1.8,4.709,5.977,13.038,14.2,17.732a27.125,27.125,0,0,1,.727,3.567C94.112,328.692,90.45,313.276,90.45,313.276Z" transform="translate(-90.45 -313.276)" fill="#061726" opacity="0.1"/>
                    </g>
                  </g>
                  <g id="Grupo_1211637" data-name="Grupo 1211637" transform="translate(51.146 41.255)">
                    <g id="Grupo_1211635" data-name="Grupo 1211635" transform="translate(0 17.124)">
                      <path id="Trazado_1083823" data-name="Trazado 1083823" d="M125,346.769s-15.558-7.888-27.385,1.9C97.614,348.669,112.523,354.033,125,346.769Z" transform="translate(-97.614 -343.765)" fill="#d9ae5f"/>
                      <path id="Trazado_1083824" data-name="Trazado 1083824" d="M97.614,348.856c.457-.379.921-.721,1.388-1.048,4.926,1.069,14.184,2.126,22.614-2.194A27.008,27.008,0,0,1,125,346.956C112.523,354.22,97.614,348.856,97.614,348.856Z" transform="translate(-97.614 -343.952)" fill="#061726" opacity="0.1"/>
                    </g>
                    <g id="Grupo_1211636" data-name="Grupo 1211636" transform="translate(10.1)">
                      <path id="Trazado_1083825" data-name="Trazado 1083825" d="M127.309,345.035s-3.449-17.1-18.46-20.318C108.849,324.717,113.877,339.743,127.309,345.035Z" transform="translate(-108.849 -324.717)" fill="#d9ae5f"/>
                      <path id="Trazado_1083826" data-name="Trazado 1083826" d="M108.849,324.717c.58.124,1.137.276,1.683.44,2.214,4.529,7.121,12.45,15.734,16.389a27.043,27.043,0,0,1,1.044,3.488C113.877,339.743,108.849,324.717,108.849,324.717Z" transform="translate(-108.849 -324.717)" fill="#061726" opacity="0.1"/>
                    </g>
                  </g>
                </g>
              </g>
            </g>
            <g id="Grupo_1211677" data-name="Grupo 1211677" transform="translate(31.161)">
              <g id="Grupo_1211673" data-name="Grupo 1211673" transform="translate(33.35 97.686)">
                <g id="Grupo_1211648" data-name="Grupo 1211648">
                  <g id="Grupo_1211647" data-name="Grupo 1211647">
                    <g id="Grupo_1211646" data-name="Grupo 1211646" transform="translate(6.621 8.881)">
                      <rect id="Rectángulo_419012" data-name="Rectángulo 419012" width="33.987" height="159.85" fill="#b0bad9"/>
                      <g id="Grupo_1211645" data-name="Grupo 1211645" transform="translate(4.213)">
                        <g id="Grupo_1211641" data-name="Grupo 1211641">
                          <rect id="Rectángulo_419013" data-name="Rectángulo 419013" width="2.222" height="159.85" fill="#c9d5f2"/>
                        </g>
                        <g id="Grupo_1211642" data-name="Grupo 1211642" transform="translate(7.779)">
                          <rect id="Rectángulo_419014" data-name="Rectángulo 419014" width="2.222" height="159.85" fill="#c9d5f2"/>
                        </g>
                        <g id="Grupo_1211643" data-name="Grupo 1211643" transform="translate(15.558)">
                          <rect id="Rectángulo_419015" data-name="Rectángulo 419015" width="2.222" height="159.85" fill="#c9d5f2"/>
                        </g>
                        <g id="Grupo_1211644" data-name="Grupo 1211644" transform="translate(23.337)">
                          <rect id="Rectángulo_419016" data-name="Rectángulo 419016" width="2.222" height="159.85" fill="#c9d5f2"/>
                        </g>
                      </g>
                    </g>
                    <rect id="Rectángulo_419017" data-name="Rectángulo 419017" width="47.229" height="15.339" fill="#c9d5f2"/>
                    <rect id="Rectángulo_419018" data-name="Rectángulo 419018" width="47.229" height="15.339" transform="translate(0 168.731)" fill="#c9d5f2"/>
                  </g>
                  <path id="Trazado_1083827" data-name="Trazado 1083827" d="M154.556,172.447V325.838h-27.55s15.558-81.658,15.558-153.391h11.992Z" transform="translate(-113.948 -157.108)" fill="#061726" opacity="0.1"/>
                </g>
                <g id="Grupo_1211656" data-name="Grupo 1211656" transform="translate(66.674)">
                  <g id="Grupo_1211655" data-name="Grupo 1211655">
                    <g id="Grupo_1211654" data-name="Grupo 1211654" transform="translate(6.621 8.881)">
                      <rect id="Rectángulo_419019" data-name="Rectángulo 419019" width="33.987" height="159.85" fill="#b0bad9"/>
                      <g id="Grupo_1211653" data-name="Grupo 1211653" transform="translate(4.214)">
                        <g id="Grupo_1211649" data-name="Grupo 1211649">
                          <rect id="Rectángulo_419020" data-name="Rectángulo 419020" width="2.222" height="159.85" fill="#c9d5f2"/>
                        </g>
                        <g id="Grupo_1211650" data-name="Grupo 1211650" transform="translate(7.779)">
                          <rect id="Rectángulo_419021" data-name="Rectángulo 419021" width="2.222" height="159.85" fill="#c9d5f2"/>
                        </g>
                        <g id="Grupo_1211651" data-name="Grupo 1211651" transform="translate(15.558)">
                          <rect id="Rectángulo_419022" data-name="Rectángulo 419022" width="2.222" height="159.85" fill="#c9d5f2"/>
                        </g>
                        <g id="Grupo_1211652" data-name="Grupo 1211652" transform="translate(23.336)">
                          <rect id="Rectángulo_419023" data-name="Rectángulo 419023" width="2.222" height="159.85" fill="#c9d5f2"/>
                        </g>
                      </g>
                    </g>
                    <rect id="Rectángulo_419024" data-name="Rectángulo 419024" width="47.229" height="15.339" fill="#c9d5f2"/>
                    <rect id="Rectángulo_419025" data-name="Rectángulo 419025" width="47.229" height="15.339" transform="translate(0 168.731)" fill="#c9d5f2"/>
                  </g>
                  <path id="Trazado_1083828" data-name="Trazado 1083828" d="M228.723,172.447V325.838h-27.55s15.558-81.658,15.558-153.391h11.992Z" transform="translate(-188.115 -157.108)" fill="#061726" opacity="0.1"/>
                </g>
                <g id="Grupo_1211664" data-name="Grupo 1211664" transform="translate(133.35)">
                  <g id="Grupo_1211663" data-name="Grupo 1211663" transform="translate(0)">
                    <g id="Grupo_1211662" data-name="Grupo 1211662" transform="translate(6.621 8.881)">
                      <rect id="Rectángulo_419026" data-name="Rectángulo 419026" width="33.987" height="159.85" fill="#b0bad9"/>
                      <g id="Grupo_1211661" data-name="Grupo 1211661" transform="translate(4.214)">
                        <g id="Grupo_1211657" data-name="Grupo 1211657">
                          <rect id="Rectángulo_419027" data-name="Rectángulo 419027" width="2.222" height="159.85" fill="#c9d5f2"/>
                        </g>
                        <g id="Grupo_1211658" data-name="Grupo 1211658" transform="translate(7.779)">
                          <rect id="Rectángulo_419028" data-name="Rectángulo 419028" width="2.222" height="159.85" fill="#c9d5f2"/>
                        </g>
                        <g id="Grupo_1211659" data-name="Grupo 1211659" transform="translate(15.558)">
                          <rect id="Rectángulo_419029" data-name="Rectángulo 419029" width="2.222" height="159.85" fill="#c9d5f2"/>
                        </g>
                        <g id="Grupo_1211660" data-name="Grupo 1211660" transform="translate(23.336)">
                          <rect id="Rectángulo_419030" data-name="Rectángulo 419030" width="2.222" height="159.85" fill="#c9d5f2"/>
                        </g>
                      </g>
                    </g>
                    <rect id="Rectángulo_419031" data-name="Rectángulo 419031" width="47.229" height="15.339" fill="#c9d5f2"/>
                    <rect id="Rectángulo_419032" data-name="Rectángulo 419032" width="47.229" height="15.339" transform="translate(0 168.731)" fill="#c9d5f2"/>
                  </g>
                  <path id="Trazado_1083829" data-name="Trazado 1083829" d="M302.891,172.447V325.838h-27.55S290.9,244.181,290.9,172.447h11.992Z" transform="translate(-262.283 -157.108)" fill="#061726" opacity="0.1"/>
                </g>
                <g id="Grupo_1211672" data-name="Grupo 1211672" transform="translate(200.024)">
                  <g id="Grupo_1211671" data-name="Grupo 1211671">
                    <g id="Grupo_1211670" data-name="Grupo 1211670" transform="translate(6.621 8.881)">
                      <rect id="Rectángulo_419033" data-name="Rectángulo 419033" width="33.987" height="159.85" fill="#b0bad9"/>
                      <g id="Grupo_1211669" data-name="Grupo 1211669" transform="translate(4.214)">
                        <g id="Grupo_1211665" data-name="Grupo 1211665">
                          <rect id="Rectángulo_419034" data-name="Rectángulo 419034" width="2.222" height="159.85" fill="#c9d5f2"/>
                        </g>
                        <g id="Grupo_1211666" data-name="Grupo 1211666" transform="translate(7.779)">
                          <rect id="Rectángulo_419035" data-name="Rectángulo 419035" width="2.222" height="159.85" fill="#c9d5f2"/>
                        </g>
                        <g id="Grupo_1211667" data-name="Grupo 1211667" transform="translate(15.558)">
                          <rect id="Rectángulo_419036" data-name="Rectángulo 419036" width="2.222" height="159.85" fill="#c9d5f2"/>
                        </g>
                        <g id="Grupo_1211668" data-name="Grupo 1211668" transform="translate(23.336)">
                          <rect id="Rectángulo_419037" data-name="Rectángulo 419037" width="2.222" height="159.85" fill="#c9d5f2"/>
                        </g>
                      </g>
                    </g>
                    <rect id="Rectángulo_419038" data-name="Rectángulo 419038" width="47.229" height="15.339" fill="#c9d5f2"/>
                    <rect id="Rectángulo_419039" data-name="Rectángulo 419039" width="47.229" height="15.339" transform="translate(0 168.731)" fill="#c9d5f2"/>
                  </g>
                  <path id="Trazado_1083830" data-name="Trazado 1083830" d="M377.058,172.447V325.838h-27.55s15.558-81.658,15.558-153.391h11.992Z" transform="translate(-336.45 -157.108)" fill="#061726" opacity="0.1"/>
                </g>
              </g>
              <g id="Grupo_1211676" data-name="Grupo 1211676" transform="translate(8.875)">
                <path id="Trazado_1083831" data-name="Trazado 1083831" d="M88.184,138.753c-4.734,3.11-3.607,5.654,2.5,5.654H376.024c6.112,0,7.239-2.544,2.5-5.654l-136.565-89.7c-4.734-3.11-12.481-3.11-17.215,0Z" transform="translate(-85.256 -46.721)" fill="#b0bad9"/>
                <g id="Grupo_1211675" data-name="Grupo 1211675" transform="translate(39.93 14.28)">
                  <g id="Grupo_1211674" data-name="Grupo 1211674">
                    <path id="Trazado_1083832" data-name="Trazado 1083832" d="M131.813,129.824c-3.457,2.271-2.634,4.129,1.829,4.129h208.4c4.464,0,5.288-1.858,1.829-4.129L244.131,64.31a12.451,12.451,0,0,0-12.574,0Z" transform="translate(-129.673 -62.606)" fill="#9da8c6"/>
                    <path id="Trazado_1083833" data-name="Trazado 1083833" d="M344.932,130.621H144.578c-4.464,0-5.288-1.858-1.829-4.13L239.78,62.758a12.24,12.24,0,0,0-8.223,1.552l-99.745,65.516c-3.457,2.271-2.634,4.129,1.829,4.129h208.4C345.975,133.955,347.08,132.515,344.932,130.621Z" transform="translate(-129.673 -62.607)" fill="#8192b5" opacity="0.47"/>
                  </g>
                  <circle id="Elipse_14327" data-name="Elipse 14327" cx="16.344" cy="16.344" r="16.344" transform="matrix(0.933, -0.359, 0.359, 0.933, 87.054, 29.394)" fill="#8192b5"/>
                </g>
              </g>
              <rect id="Rectángulo_419040" data-name="Rectángulo 419040" width="296.203" height="15.541" transform="translate(8.876 281.755)" fill="#8192b5"/>
              <rect id="Rectángulo_419041" data-name="Rectángulo 419041" width="313.952" height="7.771" transform="translate(0 293.411)" fill="#9da8c6"/>
            </g>
            <g id="Grupo_1211690" data-name="Grupo 1211690" transform="translate(98.633 223.687)">
              <g id="Grupo_1211683" data-name="Grupo 1211683" transform="translate(8.222)">
                <g id="Grupo_1211682" data-name="Grupo 1211682" transform="translate(0 0.001)">
                  <g id="Grupo_1211681" data-name="Grupo 1211681">
                    <path id="Trazado_1083834" data-name="Trazado 1083834" d="M329.21,334.387H181.142c-11.857,0-21.559-8.739-21.559-19.421s9.7-19.421,21.559-19.421H329.21Z" transform="translate(-159.583 -295.546)" fill="#035aa6"/>
                    <g id="Grupo_1211680" data-name="Grupo 1211680" transform="translate(15.918 4.351)">
                      <path id="Trazado_1083835" data-name="Trazado 1083835" d="M331,330.525H194.02c-9.2,0-16.73-6.782-16.73-15.07s7.528-15.07,16.73-15.07H331v30.139Z" transform="translate(-177.29 -300.386)" fill="#f2e4ce"/>
                      <g id="Grupo_1211679" data-name="Grupo 1211679">
                        <g id="Grupo_1211678" data-name="Grupo 1211678" clip-path="url(#clip-path-2)">
                          <rect id="Rectángulo_419042" data-name="Rectángulo 419042" width="188.498" height="1.197" transform="translate(-9.961 25.419)" fill="#d9ae5f"/>
                          <rect id="Rectángulo_419043" data-name="Rectángulo 419043" width="188.498" height="1.197" transform="translate(-9.961 18.233)" fill="#d9ae5f"/>
                          <rect id="Rectángulo_419044" data-name="Rectángulo 419044" width="188.498" height="1.197" transform="translate(-9.961 11.047)" fill="#d9ae5f"/>
                          <rect id="Rectángulo_419045" data-name="Rectángulo 419045" width="188.498" height="1.197" transform="translate(-9.961 3.86)" fill="#d9ae5f"/>
                          <rect id="Rectángulo_419046" data-name="Rectángulo 419046" width="188.498" height="1.197" transform="translate(-9.961 -3.327)" fill="#d9ae5f"/>
                        </g>
                      </g>
                    </g>
                  </g>
                  <path id="Trazado_1083837" data-name="Trazado 1083837" d="M330.8,301.979H193.818c-8.234,0-14.933,5.955-14.933,13.273s6.7,13.272,14.933,13.272H330.8v3.593H193.818c-10.215,0-18.526-7.566-18.526-16.866s8.31-16.867,18.526-16.867H330.8v3.593Z" transform="translate(-161.17 -295.833)" fill="#2f89cc"/>
                </g>
                <path id="Trazado_1083838" data-name="Trazado 1083838" d="M159.583,314.966c0-10.682,9.7-19.421,21.559-19.421H329.21v19.421Z" transform="translate(-159.583 -295.545)" fill="#061726" opacity="0.1"/>
              </g>
              <g id="Grupo_1211689" data-name="Grupo 1211689" transform="translate(0 38.653)">
                <g id="Grupo_1211688" data-name="Grupo 1211688">
                  <g id="Grupo_1211687" data-name="Grupo 1211687">
                    <path id="Trazado_1083839" data-name="Trazado 1083839" d="M150.437,377.383H307.886c11.858,0,21.56-8.739,21.56-19.421s-9.7-19.421-21.56-19.421H150.437Z" transform="translate(-150.437 -338.542)" fill="#a54832"/>
                    <g id="Grupo_1211686" data-name="Grupo 1211686" transform="translate(0 4.352)">
                      <path id="Trazado_1083840" data-name="Trazado 1083840" d="M150.437,373.522H296.8c9.2,0,16.729-6.782,16.729-15.07S306,343.383,296.8,343.383H150.437Z" transform="translate(-150.437 -343.383)" fill="#f2e4ce"/>
                      <g id="Grupo_1211685" data-name="Grupo 1211685">
                        <g id="Grupo_1211684" data-name="Grupo 1211684" clip-path="url(#clip-path-3)">
                          <rect id="Rectángulo_419047" data-name="Rectángulo 419047" width="197.881" height="1.197" transform="translate(-24.83 25.419)" fill="#d9ae5f"/>
                          <rect id="Rectángulo_419048" data-name="Rectángulo 419048" width="197.881" height="1.197" transform="translate(-24.83 18.233)" fill="#d9ae5f"/>
                          <rect id="Rectángulo_419049" data-name="Rectángulo 419049" width="197.881" height="1.197" transform="translate(-24.83 11.047)" fill="#d9ae5f"/>
                          <rect id="Rectángulo_419050" data-name="Rectángulo 419050" width="197.881" height="1.197" transform="translate(-24.83 3.86)" fill="#d9ae5f"/>
                          <rect id="Rectángulo_419051" data-name="Rectángulo 419051" width="197.881" height="1.197" transform="translate(-24.83 -3.327)" fill="#d9ae5f"/>
                        </g>
                      </g>
                    </g>
                  </g>
                  <path id="Trazado_1083842" data-name="Trazado 1083842" d="M150.437,344.976H296.8c8.234,0,14.933,5.955,14.933,13.273s-6.7,13.272-14.933,13.272H150.437v3.593H296.8c10.215,0,18.526-7.566,18.526-16.866s-8.311-16.867-18.526-16.867H150.437Z" transform="translate(-150.437 -338.829)" fill="#b25f46"/>
                </g>
                <path id="Trazado_1083843" data-name="Trazado 1083843" d="M329.446,357.963c0-10.682-9.7-19.421-21.56-19.421H150.437v19.421Z" transform="translate(-150.437 -338.542)" fill="#061726" opacity="0.1"/>
              </g>
            </g>
            <g id="Grupo_1211722" data-name="Grupo 1211722" transform="translate(87.508 76.503)">
              <g id="Grupo_1211698" data-name="Grupo 1211698" transform="translate(100.63 4.804)">
                <g id="Grupo_1211691" data-name="Grupo 1211691">
                  <path id="Trazado_1083844" data-name="Trazado 1083844" d="M322.065,146.132,250,150.9v-13.74l72.065,4.774Z" transform="translate(-250 -137.165)" fill="#d9ae5f"/>
                  <path id="Trazado_1083845" data-name="Trazado 1083845" d="M250,144.807v6.87l72.065-4.773v-2.1Z" transform="translate(-250 -137.937)" fill="#061726" opacity="0.1"/>
                </g>
                <g id="Grupo_1211697" data-name="Grupo 1211697" transform="translate(44.433 0.626)">
                  <g id="Grupo_1211695" data-name="Grupo 1211695" transform="translate(0 6.468)">
                    <path id="Trazado_1083846" data-name="Trazado 1083846" d="M353.176,187.179l-22.141-36.537-3.172-5.234a.735.735,0,0,0-1.255,0l-22.141,36.537-3.172,5.234a.727.727,0,0,0,1.255.734l22.141-36.537,2.544-4.2,21.513,35.5,3.172,5.234A.727.727,0,0,0,353.176,187.179Z" transform="translate(-299.604 -145.056)" fill="#e5ceae"/>
                    <g id="Grupo_1211694" data-name="Grupo 1211694" transform="translate(0 40.088)">
                      <g id="Grupo_1211692" data-name="Grupo 1211692" transform="translate(2.32 2.402)">
                        <path id="Trazado_1083847" data-name="Trazado 1083847" d="M327.319,217.633a25.312,25.312,0,0,0,25.312-25.312H302.007A25.313,25.313,0,0,0,327.319,217.633Z" transform="translate(-302.007 -192.321)" fill="#d9ae5f"/>
                        <path id="Trazado_1083848" data-name="Trazado 1083848" d="M343.605,192.321A25.315,25.315,0,0,1,323.913,217a25.3,25.3,0,0,0,30.931-24.678Z" transform="translate(-304.22 -192.321)" fill="#061726" opacity="0.1"/>
                      </g>
                      <g id="Grupo_1211693" data-name="Grupo 1211693">
                        <path id="Trazado_1083849" data-name="Trazado 1083849" d="M301.747,194.453h50.624c3.092,0,3.1-4.8,0-4.8H301.747c-3.092,0-3.1,4.8,0,4.8Z" transform="translate(-299.426 -189.649)" fill="#bf7c63"/>
                      </g>
                    </g>
                  </g>
                  <g id="Grupo_1211696" data-name="Grupo 1211696" transform="translate(21.164)">
                    <path id="Trazado_1083850" data-name="Trazado 1083850" d="M335.905,144.329a6.468,6.468,0,1,1-6.468-6.468A6.468,6.468,0,0,1,335.905,144.329Z" transform="translate(-322.969 -137.861)" fill="#d9ae5f"/>
                    <path id="Trazado_1083851" data-name="Trazado 1083851" d="M333.254,144.665a3.481,3.481,0,1,1-3.481-3.481A3.481,3.481,0,0,1,333.254,144.665Z" transform="translate(-323.305 -138.197)" fill="#f2e4ce"/>
                  </g>
                </g>
              </g>
              <g id="Grupo_1211721" data-name="Grupo 1211721">
                <g id="Grupo_1211715" data-name="Grupo 1211715" transform="translate(0 4.804)">
                  <g id="Grupo_1211706" data-name="Grupo 1211706" transform="translate(101.561)">
                    <g id="Grupo_1211699" data-name="Grupo 1211699">
                      <path id="Trazado_1083852" data-name="Trazado 1083852" d="M323.1,146.132,251.036,150.9v-13.74l72.066,4.774Z" transform="translate(-251.036 -137.165)" fill="#bf7c63"/>
                      <path id="Trazado_1083853" data-name="Trazado 1083853" d="M251.036,144.807v6.87L323.1,146.9v-2.1Z" transform="translate(-251.036 -137.937)" fill="#061726" opacity="0.1"/>
                    </g>
                    <g id="Grupo_1211705" data-name="Grupo 1211705" transform="translate(44.433 0.626)">
                      <g id="Grupo_1211703" data-name="Grupo 1211703" transform="translate(0 6.468)">
                        <path id="Trazado_1083854" data-name="Trazado 1083854" d="M354.213,187.179l-22.141-36.537-3.172-5.234a.735.735,0,0,0-1.255,0L305.5,181.945l-3.172,5.234a.727.727,0,0,0,1.255.734l22.141-36.537,2.544-4.2,21.513,35.5,3.172,5.234A.727.727,0,0,0,354.213,187.179Z" transform="translate(-300.64 -145.056)" fill="#e5ceae"/>
                        <g id="Grupo_1211702" data-name="Grupo 1211702" transform="translate(0 40.088)">
                          <g id="Grupo_1211700" data-name="Grupo 1211700" transform="translate(2.321 2.402)">
                            <path id="Trazado_1083855" data-name="Trazado 1083855" d="M328.356,217.633a25.312,25.312,0,0,0,25.312-25.312H303.044A25.312,25.312,0,0,0,328.356,217.633Z" transform="translate(-303.044 -192.321)" fill="#d9ae5f"/>
                            <path id="Trazado_1083856" data-name="Trazado 1083856" d="M344.641,192.321A25.315,25.315,0,0,1,324.949,217a25.3,25.3,0,0,0,30.932-24.678Z" transform="translate(-305.257 -192.321)" fill="#061726" opacity="0.1"/>
                          </g>
                          <g id="Grupo_1211701" data-name="Grupo 1211701">
                            <path id="Trazado_1083857" data-name="Trazado 1083857" d="M302.783,194.453h50.624c3.092,0,3.1-4.8,0-4.8H302.783c-3.092,0-3.1,4.8,0,4.8Z" transform="translate(-300.463 -189.649)" fill="#bf7c63"/>
                          </g>
                        </g>
                      </g>
                      <g id="Grupo_1211704" data-name="Grupo 1211704" transform="translate(21.164)">
                        <path id="Trazado_1083858" data-name="Trazado 1083858" d="M336.941,144.329a6.468,6.468,0,1,1-6.468-6.468A6.468,6.468,0,0,1,336.941,144.329Z" transform="translate(-324.005 -137.861)" fill="#d9ae5f"/>
                        <path id="Trazado_1083859" data-name="Trazado 1083859" d="M334.29,144.665a3.481,3.481,0,1,1-3.481-3.481A3.481,3.481,0,0,1,334.29,144.665Z" transform="translate(-324.341 -138.197)" fill="#f2e4ce"/>
                      </g>
                    </g>
                  </g>
                  <g id="Grupo_1211714" data-name="Grupo 1211714">
                    <g id="Grupo_1211707" data-name="Grupo 1211707" transform="translate(27.633)">
                      <path id="Trazado_1083860" data-name="Trazado 1083860" d="M168.8,146.132l72.065,4.773v-13.74L168.8,141.939Z" transform="translate(-168.8 -137.165)" fill="#bf7c63"/>
                      <path id="Trazado_1083861" data-name="Trazado 1083861" d="M240.865,144.807v6.87L168.8,146.9v-2.1Z" transform="translate(-168.8 -137.937)" fill="#061726" opacity="0.1"/>
                    </g>
                    <g id="Grupo_1211713" data-name="Grupo 1211713" transform="translate(0 0.626)">
                      <g id="Grupo_1211711" data-name="Grupo 1211711" transform="translate(0 6.468)">
                        <path id="Trazado_1083862" data-name="Trazado 1083862" d="M139.933,187.179l22.141-36.537,3.172-5.234a.735.735,0,0,1,1.255,0l22.141,36.537,3.172,5.234a.727.727,0,0,1-1.255.734l-22.141-36.537-2.544-4.2-21.513,35.5-3.172,5.234A.727.727,0,0,1,139.933,187.179Z" transform="translate(-138.239 -145.056)" fill="#e5ceae"/>
                        <g id="Grupo_1211710" data-name="Grupo 1211710" transform="translate(0 40.088)">
                          <g id="Grupo_1211708" data-name="Grupo 1211708" transform="translate(2.321 2.402)">
                            <path id="Trazado_1083863" data-name="Trazado 1083863" d="M165.955,217.633a25.312,25.312,0,0,1-25.312-25.312h50.624A25.312,25.312,0,0,1,165.955,217.633Z" transform="translate(-140.643 -192.321)" fill="#d9ae5f"/>
                            <path id="Trazado_1083864" data-name="Trazado 1083864" d="M151.883,192.321A25.315,25.315,0,0,0,171.575,217a25.3,25.3,0,0,1-30.932-24.678Z" transform="translate(-140.643 -192.321)" fill="#061726" opacity="0.1"/>
                          </g>
                          <g id="Grupo_1211709" data-name="Grupo 1211709">
                            <path id="Trazado_1083865" data-name="Trazado 1083865" d="M191.006,194.453H140.382c-3.092,0-3.1-4.8,0-4.8h50.624c3.092,0,3.1,4.8,0,4.8Z" transform="translate(-138.061 -189.649)" fill="#bf7c63"/>
                          </g>
                        </g>
                      </g>
                      <g id="Grupo_1211712" data-name="Grupo 1211712" transform="translate(21.165)">
                        <path id="Trazado_1083866" data-name="Trazado 1083866" d="M161.6,144.329a6.468,6.468,0,1,0,6.468-6.468A6.468,6.468,0,0,0,161.6,144.329Z" transform="translate(-161.605 -137.861)" fill="#d9ae5f"/>
                        <path id="Trazado_1083867" data-name="Trazado 1083867" d="M164.928,144.665a3.481,3.481,0,1,0,3.481-3.481A3.481,3.481,0,0,0,164.928,144.665Z" transform="translate(-161.941 -138.197)" fill="#f2e4ce"/>
                      </g>
                    </g>
                  </g>
                </g>
                <g id="Grupo_1211720" data-name="Grupo 1211720" transform="translate(61.072)">
                  <g id="Grupo_1211718" data-name="Grupo 1211718" transform="translate(0 14.927)">
                    <g id="Grupo_1211716" data-name="Grupo 1211716" transform="translate(22.968)">
                      <path id="Trazado_1083868" data-name="Trazado 1083868" d="M264.725,269.247H231.546l12.729-120.821H252Z" transform="translate(-231.546 -148.426)" fill="#bf7c63"/>
                      <path id="Trazado_1083869" data-name="Trazado 1083869" d="M256.753,198.655c-2.474,27.632-11.541,50.084-23.474,59.221l-1.733,16.446h33.178Z" transform="translate(-231.546 -153.5)" fill="#061726" opacity="0.1"/>
                    </g>
                    <g id="Grupo_1211717" data-name="Grupo 1211717" transform="translate(0 112.991)">
                      <path id="Trazado_1083870" data-name="Trazado 1083870" d="M285.112,293.38c-5.186-11.154-20.933-19.265-39.558-19.265S211.183,282.226,206,293.38Z" transform="translate(-205.997 -274.115)" fill="#d9ae5f"/>
                      <path id="Trazado_1083871" data-name="Trazado 1083871" d="M249.36,274.115c-1.936,0-3.832.108-5.7.278,16.077,1.463,29.212,8.993,33.859,18.987h11.4C283.731,282.226,267.985,274.115,249.36,274.115Z" transform="translate(-209.802 -274.115)" fill="#061726" opacity="0.1"/>
                    </g>
                  </g>
                  <g id="Grupo_1211719" data-name="Grupo 1211719" transform="translate(27.66)">
                    <circle id="Elipse_14328" data-name="Elipse 14328" cx="11.898" cy="11.898" r="11.898" fill="#d9ae5f"/>
                    <path id="Trazado_1083872" data-name="Trazado 1083872" d="M255.683,144.337a6.4,6.4,0,1,1-6.4-6.4A6.4,6.4,0,0,1,255.683,144.337Z" transform="translate(-237.383 -132.439)" fill="#f2e4ce"/>
                  </g>
                </g>
              </g>
            </g>
          </g>
          <path id="Trazado_1083873" data-name="Trazado 1083873" d="M424.138,389.562H30.911a3.4,3.4,0,0,1-3.386-3.386v-1.04a3.4,3.4,0,0,1,3.386-3.386H424.139a3.4,3.4,0,0,1,3.386,3.386v1.04A3.4,3.4,0,0,1,424.138,389.562Z" transform="translate(-27.525 -80.567)" fill="#1172b3"/>
        </g>
      </g>
    </g>
  </g>
</svg>
