<svg xmlns="http://www.w3.org/2000/svg" xmlns:xlink="http://www.w3.org/1999/xlink" width="113" height="113" viewBox="0 0 113 113">
  <defs>
    <filter id="Trazado_982547" x="0" y="0" width="113" height="113" filterUnits="userSpaceOnUse">
      <feOffset dy="3" input="SourceAlpha"/>
      <feGaussianBlur stdDeviation="3" result="blur"/>
      <feFlood flood-opacity="0.161"/>
      <feComposite operator="in" in2="blur"/>
      <feComposite in="SourceGraphic"/>
    </filter>
  </defs>
  <g id="Grupo_1210353" data-name="Grupo 1210353" transform="translate(-325 -1212.808)">
    <g id="Grupo_1209737" data-name="Grupo 1209737" transform="translate(0 -6316)">
      <g id="Grupo_1208705" data-name="Grupo 1208705" transform="translate(-1.454 3213.429)">
        <g id="Grupo_1148633" data-name="Grupo 1148633" transform="translate(71.408 600.047)">
          <g id="Grupo_1148525" data-name="Grupo 1148525" transform="translate(264.046 3721.333)">
            <g transform="matrix(1, 0, 0, 1, -9, -6)" filter="url(#Trazado_982547)">
              <g id="Trazado_982547-2" data-name="Trazado 982547" transform="translate(9 6)" fill="#e6d567">
                <path d="M 47.5 93.5 C 41.28937149047852 93.5 35.26533508300781 92.28397369384766 29.59518623352051 89.88570404052734 C 24.11771965026855 87.56893157958984 19.19813346862793 84.25196075439453 14.97309303283691 80.02691650390625 C 10.74804019927979 75.80186462402344 7.431066513061523 70.88229370117188 5.114293098449707 65.40481567382812 C 2.716026782989502 59.73468017578125 1.5 53.71062850952148 1.5 47.5 C 1.5 41.28937149047852 2.716026782989502 35.26533508300781 5.114293098449707 29.59518623352051 C 7.431066513061523 24.11771965026855 10.74804019927979 19.19813346862793 14.97309303283691 14.97309303283691 C 19.19813346862793 10.74804019927979 24.11771965026855 7.431066513061523 29.59518623352051 5.114293098449707 C 35.26533508300781 2.716026782989502 41.28937149047852 1.5 47.5 1.5 C 53.71062850952148 1.5 59.73468017578125 2.716026782989502 65.40481567382812 5.114293098449707 C 70.88229370117188 7.431066513061523 75.80186462402344 10.74804019927979 80.02691650390625 14.97309303283691 C 84.25196075439453 19.19813346862793 87.56893157958984 24.11771965026855 89.88570404052734 29.59518623352051 C 92.28397369384766 35.26533508300781 93.5 41.28937149047852 93.5 47.5 C 93.5 53.71062850952148 92.28397369384766 59.73468017578125 89.88570404052734 65.40481567382812 C 87.56893157958984 70.88229370117188 84.25196075439453 75.80186462402344 80.02691650390625 80.02691650390625 C 75.80186462402344 84.25196075439453 70.88229370117188 87.56893157958984 65.40481567382812 89.88570404052734 C 59.73468017578125 92.28397369384766 53.71062850952148 93.5 47.5 93.5 Z" stroke="none"/>
                <path d="M 47.5 3 C 41.49121475219727 3 35.66376876831055 4.176155090332031 30.17950439453125 6.495796203613281 C 24.88084411621094 8.736953735351562 20.12152099609375 11.94598388671875 16.03375244140625 16.03375244140625 C 11.94598388671875 20.12152099609375 8.736953735351562 24.88084411621094 6.495796203613281 30.17950439453125 C 4.176155090332031 35.66376876831055 3 41.49121475219727 3 47.5 C 3 53.50878524780273 4.176155090332031 59.33623123168945 6.495796203613281 64.82049560546875 C 8.736953735351562 70.11915588378906 11.94598388671875 74.87847900390625 16.03375244140625 78.96624755859375 C 20.12152099609375 83.05401611328125 24.88084411621094 86.26304626464844 30.17950439453125 88.50419616699219 C 35.66376876831055 90.82384490966797 41.49121475219727 92 47.5 92 C 53.50878524780273 92 59.33623123168945 90.82384490966797 64.82049560546875 88.50419616699219 C 70.11915588378906 86.26304626464844 74.87847900390625 83.05401611328125 78.96624755859375 78.96624755859375 C 83.05401611328125 74.87847900390625 86.26304626464844 70.11915588378906 88.50419616699219 64.82049560546875 C 90.82384490966797 59.33623123168945 92 53.50878524780273 92 47.5 C 92 41.49121475219727 90.82384490966797 35.66376876831055 88.50419616699219 30.17950439453125 C 86.26304626464844 24.88084411621094 83.05401611328125 20.12152099609375 78.96624755859375 16.03375244140625 C 74.87847900390625 11.94598388671875 70.11915588378906 8.736953735351562 64.82049560546875 6.495796203613281 C 59.33623123168945 4.176155090332031 53.50878524780273 3 47.5 3 M 47.5 0 C 73.7335205078125 0 95 21.2664794921875 95 47.5 C 95 73.7335205078125 73.7335205078125 95 47.5 95 C 21.2664794921875 95 0 73.7335205078125 0 47.5 C 0 21.2664794921875 21.2664794921875 0 47.5 0 Z" stroke="none" fill="#ba9c5a"/>
              </g>
            </g>
          </g>
        </g>
      </g>
    </g>
    <g id="subasta" transform="translate(343.965 1232.738)">
      <g id="Grupo_1210324" data-name="Grupo 1210324" transform="translate(6.893 2.179)">
        <path id="Trazado_1080517" data-name="Trazado 1080517" d="M57.856,65.642H20.143V68a4.714,4.714,0,1,1-9.428,0V6.714A4.714,4.714,0,0,0,6,2H49.606a8.25,8.25,0,0,1,8.25,8.25Z" transform="translate(-6 -2)" fill="#adaba6"/>
      </g>
      <g id="Grupo_1210325" data-name="Grupo 1210325" transform="translate(6.893 2.179)">
        <path id="Trazado_1080518" data-name="Trazado 1080518" d="M10.714,6.714V54.945a26.1,26.1,0,0,0,16.5,5.982c15.622,0,28.285-14.246,28.285-31.821C55.5,17.645,50.111,7.6,42.029,2H6A4.714,4.714,0,0,1,10.714,6.714Z" transform="translate(-6 -2)" fill="#f1efeb"/>
      </g>
      <g id="Grupo_1210327" data-name="Grupo 1210327" transform="translate(16.321 65.82)">
        <g id="Grupo_1210326" data-name="Grupo 1210326">
          <path id="Trazado_1080519" data-name="Trazado 1080519" d="M56.428,56H18.714v2.357A4.714,4.714,0,0,1,14,63.071H56.428a4.714,4.714,0,0,0,4.714-4.714V56Z" transform="translate(-14 -56)" fill="#74726f"/>
        </g>
      </g>
      <g id="Grupo_1210328" data-name="Grupo 1210328" transform="translate(2.179 2.179)">
        <path id="Trazado_1080520" data-name="Trazado 1080520" d="M11.428,16.143H2V6.714a4.714,4.714,0,0,1,9.428,0Z" transform="translate(-2 -2)" fill="#74726f"/>
      </g>
      <g id="Grupo_1210329" data-name="Grupo 1210329" transform="translate(16.741 42.319)">
        <circle id="Elipse_11879" data-name="Elipse 11879" cx="9.346" cy="9.346" r="9.346" transform="translate(0 0)" fill="#b57769"/>
      </g>
      <g id="Grupo_1210330" data-name="Grupo 1210330" transform="translate(20.676 47.238)">
        <ellipse id="Elipse_11880" data-name="Elipse 11880" cx="4.919" cy="4.427" rx="4.919" ry="4.427" transform="translate(0 0)" fill="#f29f8c"/>
      </g>
      <g id="Grupo_1210331" data-name="Grupo 1210331" transform="translate(55.201 43.43)">
        <path id="Trazado_1080521" data-name="Trazado 1080521" d="M0,0H4.167V20.834H0Z" transform="translate(0 2.946) rotate(-45)" fill="#bf8859"/>
      </g>
      <g id="Grupo_1210332" data-name="Grupo 1210332" transform="translate(46.953 35.18)">
        <path id="Trazado_1080522" data-name="Trazado 1080522" d="M0,0H11.666V8.334H0Z" transform="translate(0 8.248) rotate(-45)" fill="#bf8859"/>
      </g>
      <g id="Grupo_1210333" data-name="Grupo 1210333" transform="translate(42.24 42.249)">
        <path id="Trazado_1080523" data-name="Trazado 1080523" d="M0,0H5V11.666H0Z" transform="translate(0 3.535) rotate(-45)" fill="#bf8859"/>
      </g>
      <g id="Grupo_1210334" data-name="Grupo 1210334" transform="translate(54.025 30.466)">
        <path id="Trazado_1080524" data-name="Trazado 1080524" d="M0,0H5V11.666H0Z" transform="translate(0 3.535) rotate(-45)" fill="#bf8859"/>
      </g>
      <g id="Grupo_1210335" data-name="Grupo 1210335" transform="translate(1 1)">
        <path id="Trazado_1080525" data-name="Trazado 1080525" d="M58.749,74.07H16.321a5.9,5.9,0,0,1-5.893-5.893V17.5H2.179A1.178,1.178,0,0,1,1,16.321V6.893a5.893,5.893,0,0,1,11.786,0V68.177a3.536,3.536,0,1,0,7.071,0V65.82a1.178,1.178,0,0,1,1.179-1.179H63.463a1.178,1.178,0,0,1,1.179,1.179v2.357A5.9,5.9,0,0,1,58.749,74.07ZM21.033,71.713H58.749a3.54,3.54,0,0,0,3.536-3.536V67H22.214v1.179a5.861,5.861,0,0,1-1.181,3.536ZM3.357,15.143h7.071V6.893a3.536,3.536,0,0,0-7.071,0Z" transform="translate(-1 -1)"/>
      </g>
      <g id="Grupo_1210336" data-name="Grupo 1210336" transform="translate(57.57 49.91)">
        <path id="Trazado_1080526" data-name="Trazado 1080526" d="M49,42.5h2.357V58.41H49Z" transform="translate(-49 -42.5)"/>
      </g>
      <g id="Grupo_1210337" data-name="Grupo 1210337" transform="translate(6.893 1)">
        <path id="Trazado_1080527" data-name="Trazado 1080527" d="M59.035,31.642H56.678V9.25a5.9,5.9,0,0,0-5.893-5.893H6V1H50.785a8.26,8.26,0,0,1,8.25,8.25Z" transform="translate(-6 -1)"/>
      </g>
      <g id="Grupo_1210338" data-name="Grupo 1210338" transform="translate(41.07 41.07)">
        <path id="Trazado_1080528" data-name="Trazado 1080528" d="M44.428,49.143A1.175,1.175,0,0,1,43.6,48.8l-8.25-8.25a1.177,1.177,0,0,1,0-1.666l3.536-3.536a1.177,1.177,0,0,1,1.666,0L48.8,43.6a1.177,1.177,0,0,1,0,1.666L45.262,48.8A1.175,1.175,0,0,1,44.428,49.143Zm-6.583-9.428L44.428,46.3,46.3,44.428l-6.583-6.583Z" transform="translate(-35 -35)"/>
      </g>
      <g id="Grupo_1210339" data-name="Grupo 1210339" transform="translate(52.856 29.285)">
        <path id="Trazado_1080529" data-name="Trazado 1080529" d="M54.428,39.143A1.175,1.175,0,0,1,53.6,38.8l-8.25-8.25a1.177,1.177,0,0,1,0-1.666l3.536-3.536a1.177,1.177,0,0,1,1.666,0L58.8,33.6a1.177,1.177,0,0,1,0,1.666L55.262,38.8A1.175,1.175,0,0,1,54.428,39.143Zm-6.583-9.428L54.428,36.3,56.3,34.428l-6.583-6.583Z" transform="translate(-45 -25)"/>
      </g>
      <g id="Grupo_1210340" data-name="Grupo 1210340" transform="translate(46.121 34.347)">
        <path id="Trazado_1080530" data-name="Trazado 1080530" d="M0,0H11.666V2.357H0Z" transform="translate(0 8.248) rotate(-45)"/>
      </g>
      <g id="Grupo_1210341" data-name="Grupo 1210341" transform="translate(52.013 40.24)">
        <path id="Trazado_1080531" data-name="Trazado 1080531" d="M0,0H11.666V2.357H0Z" transform="translate(0 8.248) rotate(-45)"/>
      </g>
      <g id="Grupo_1210342" data-name="Grupo 1210342" transform="translate(54.38 42.595)">
        <path id="Trazado_1080532" data-name="Trazado 1080532" d="M61.858,55.983a1.175,1.175,0,0,1-.833-.345L46.293,40.906l1.666-1.666,13.9,13.9,1.28-1.28-13.9-13.9,1.666-1.666L65.638,51.025a1.177,1.177,0,0,1,0,1.666l-2.946,2.946A1.175,1.175,0,0,1,61.858,55.983Z" transform="translate(-46.293 -36.293)"/>
      </g>
      <g id="Grupo_1210343" data-name="Grupo 1210343" transform="translate(16.321 22.214)">
        <path id="Trazado_1080533" data-name="Trazado 1080533" d="M14,19H52.892v2.357H14Z" transform="translate(-14 -19)"/>
      </g>
      <g id="Grupo_1210344" data-name="Grupo 1210344" transform="translate(16.321 31.642)">
        <path id="Trazado_1080534" data-name="Trazado 1080534" d="M14,27H48.178v2.357H14Z" transform="translate(-14 -27)"/>
      </g>
      <g id="Grupo_1210345" data-name="Grupo 1210345" transform="translate(16.321 26.928)">
        <path id="Trazado_1080535" data-name="Trazado 1080535" d="M14,23H52.892v2.357H14Z" transform="translate(-14 -23)"/>
      </g>
      <g id="Grupo_1210346" data-name="Grupo 1210346" transform="translate(16.321 12.786)">
        <path id="Trazado_1080536" data-name="Trazado 1080536" d="M14,11H52.892v2.357H14Z" transform="translate(-14 -11)"/>
      </g>
      <g id="Grupo_1210347" data-name="Grupo 1210347" transform="translate(16.321 8.071)">
        <path id="Trazado_1080537" data-name="Trazado 1080537" d="M14,7H52.892V9.357H14Z" transform="translate(-14 -7)"/>
      </g>
      <g id="Grupo_1210348" data-name="Grupo 1210348" transform="translate(16.321 17.5)">
        <path id="Trazado_1080538" data-name="Trazado 1080538" d="M14,15H52.892v2.357H14Z" transform="translate(-14 -15)"/>
      </g>
      <g id="Grupo_1210349" data-name="Grupo 1210349" transform="translate(16.321 36.357)">
        <path id="Trazado_1080539" data-name="Trazado 1080539" d="M14,31H45.821v2.357H14Z" transform="translate(-14 -31)"/>
      </g>
      <g id="Grupo_1210350" data-name="Grupo 1210350" transform="translate(15.143 41.071)">
        <path id="Trazado_1080540" data-name="Trazado 1080540" d="M23.607,56.214A10.607,10.607,0,1,1,34.214,45.607,10.619,10.619,0,0,1,23.607,56.214Zm0-18.857a8.25,8.25,0,1,0,8.25,8.25A8.26,8.26,0,0,0,23.607,37.357Z" transform="translate(-13 -35)"/>
      </g>
      <g id="Grupo_1210351" data-name="Grupo 1210351" transform="translate(19.857 45.785)">
        <path id="Trazado_1080541" data-name="Trazado 1080541" d="M22.893,50.786a5.893,5.893,0,1,1,5.893-5.893A5.9,5.9,0,0,1,22.893,50.786Zm0-9.428a3.536,3.536,0,1,0,3.536,3.536A3.54,3.54,0,0,0,22.893,41.357Z" transform="translate(-17 -39)"/>
      </g>
      <g id="Grupo_1210352" data-name="Grupo 1210352" transform="translate(38.714 56.391)">
        <path id="Trazado_1080542" data-name="Trazado 1080542" d="M47.143,53.893H42.428a4.716,4.716,0,0,1-3.993-2.21A7.772,7.772,0,0,1,33,53.893V51.536a5.418,5.418,0,0,0,4.516-2.417l.4-.594a1.179,1.179,0,0,1,2.159.654,2.359,2.359,0,0,0,2.357,2.357h4.714Z" transform="translate(-33 -47.999)"/>
      </g>
    </g>
  </g>
</svg>
