<svg xmlns="http://www.w3.org/2000/svg" xmlns:xlink="http://www.w3.org/1999/xlink" width="113" height="113" viewBox="0 0 113 113">
  <defs>
    <filter id="Trazado_982547" x="0" y="0" width="113" height="113" filterUnits="userSpaceOnUse">
      <feOffset dy="3" input="SourceAlpha"/>
      <feGaussianBlur stdDeviation="3" result="blur"/>
      <feFlood flood-opacity="0.161"/>
      <feComposite operator="in" in2="blur"/>
      <feComposite in="SourceGraphic"/>
    </filter>
  </defs>
  <g id="Grupo_1210356" data-name="Grupo 1210356" transform="translate(-742.046 -1212.808)">
    <g id="Grupo_1209738" data-name="Grupo 1209738" transform="translate(0 -6316)">
      <g id="Grupo_1208706" data-name="Grupo 1208706" transform="translate(-1.454 3213.429)">
        <g id="Grupo_1148634" data-name="Grupo 1148634" transform="translate(488.454 600.047)">
          <g id="Grupo_1148525" data-name="Grupo 1148525" transform="translate(264.046 3721.333)">
            <g transform="matrix(1, 0, 0, 1, -9, -6)" filter="url(#Trazado_982547)">
              <g id="Trazado_982547-2" data-name="Trazado 982547" transform="translate(9 6)" fill="#e6d567">
                <path d="M 47.5 93.5 C 41.28937149047852 93.5 35.26533508300781 92.28397369384766 29.59518623352051 89.88570404052734 C 24.11771965026855 87.56893157958984 19.19813346862793 84.25196075439453 14.97309303283691 80.02691650390625 C 10.74804019927979 75.80186462402344 7.431066513061523 70.88229370117188 5.114293098449707 65.40481567382812 C 2.716026782989502 59.73468017578125 1.5 53.71062850952148 1.5 47.5 C 1.5 41.28937149047852 2.716026782989502 35.26533508300781 5.114293098449707 29.59518623352051 C 7.431066513061523 24.11771965026855 10.74804019927979 19.19813346862793 14.97309303283691 14.97309303283691 C 19.19813346862793 10.74804019927979 24.11771965026855 7.431066513061523 29.59518623352051 5.114293098449707 C 35.26533508300781 2.716026782989502 41.28937149047852 1.5 47.5 1.5 C 53.71062850952148 1.5 59.73468017578125 2.716026782989502 65.40481567382812 5.114293098449707 C 70.88229370117188 7.431066513061523 75.80186462402344 10.74804019927979 80.02691650390625 14.97309303283691 C 84.25196075439453 19.19813346862793 87.56893157958984 24.11771965026855 89.88570404052734 29.59518623352051 C 92.28397369384766 35.26533508300781 93.5 41.28937149047852 93.5 47.5 C 93.5 53.71062850952148 92.28397369384766 59.73468017578125 89.88570404052734 65.40481567382812 C 87.56893157958984 70.88229370117188 84.25196075439453 75.80186462402344 80.02691650390625 80.02691650390625 C 75.80186462402344 84.25196075439453 70.88229370117188 87.56893157958984 65.40481567382812 89.88570404052734 C 59.73468017578125 92.28397369384766 53.71062850952148 93.5 47.5 93.5 Z" stroke="none"/>
                <path d="M 47.5 3 C 41.49121475219727 3 35.66376876831055 4.176155090332031 30.17950439453125 6.495796203613281 C 24.88084411621094 8.736953735351562 20.12152099609375 11.94598388671875 16.03375244140625 16.03375244140625 C 11.94598388671875 20.12152099609375 8.736953735351562 24.88084411621094 6.495796203613281 30.17950439453125 C 4.176155090332031 35.66376876831055 3 41.49121475219727 3 47.5 C 3 53.50878524780273 4.176155090332031 59.33623123168945 6.495796203613281 64.82049560546875 C 8.736953735351562 70.11915588378906 11.94598388671875 74.87847900390625 16.03375244140625 78.96624755859375 C 20.12152099609375 83.05401611328125 24.88084411621094 86.26304626464844 30.17950439453125 88.50419616699219 C 35.66376876831055 90.82384490966797 41.49121475219727 92 47.5 92 C 53.50878524780273 92 59.33623123168945 90.82384490966797 64.82049560546875 88.50419616699219 C 70.11915588378906 86.26304626464844 74.87847900390625 83.05401611328125 78.96624755859375 78.96624755859375 C 83.05401611328125 74.87847900390625 86.26304626464844 70.11915588378906 88.50419616699219 64.82049560546875 C 90.82384490966797 59.33623123168945 92 53.50878524780273 92 47.5 C 92 41.49121475219727 90.82384490966797 35.66376876831055 88.50419616699219 30.17950439453125 C 86.26304626464844 24.88084411621094 83.05401611328125 20.12152099609375 78.96624755859375 16.03375244140625 C 74.87847900390625 11.94598388671875 70.11915588378906 8.736953735351562 64.82049560546875 6.495796203613281 C 59.33623123168945 4.176155090332031 53.50878524780273 3 47.5 3 M 47.5 0 C 73.7335205078125 0 95 21.2664794921875 95 47.5 C 95 73.7335205078125 73.7335205078125 95 47.5 95 C 21.2664794921875 95 0 73.7335205078125 0 47.5 C 0 21.2664794921875 21.2664794921875 0 47.5 0 Z" stroke="none" fill="#ba9c5a"/>
              </g>
            </g>
          </g>
        </g>
      </g>
    </g>
    <g id="juez" transform="translate(737.805 1231.749)">
      <g id="Grupo_1210355" data-name="Grupo 1210355" transform="translate(29.259 1.062)">
        <path id="Trazado_1080543" data-name="Trazado 1080543" d="M228.549,30.994a1.465,1.465,0,0,1-.5-1.685,4.955,4.955,0,0,0-.744-4.768,1.461,1.461,0,0,1,0-1.809,4.946,4.946,0,0,0-.981-7.044,10.728,10.728,0,0,1-2.752-3.064c-1.989-3.324-5.82-6.9-12.61-4.281a2.823,2.823,0,0,1-2.029,0l-.051-.019h-.9l-4.073,3.253-2.747,3.6-2.5,3.033,2.122,6.328V29.88l-3.8,2.569-.749,4.317.642,2.783,2.292,1.224a6.675,6.675,0,0,0,1.894-2.679l17.7-.192a6.6,6.6,0,0,0,5.753,4.431,6.3,6.3,0,0,0,4.034-11.338Z" transform="translate(-173.325 -7.439)" fill="#ccc6ce"/>
        <path id="Trazado_1080544" data-name="Trazado 1080544" d="M204,294.09l-8.579-3.322-1.864.609-6.071,3.975h-8.777l-5.764-4.609h-1.87l-1.338.523-1.72.932-2.4,3.4-.238,1.167v9.728l-.2.011.565,4.225,6.674,10.511h28.34l.963-1.427V302.9l4.855-5.512v-1.594a8.389,8.389,0,0,0-2.576-1.7Z" transform="translate(-146.702 -250.312)" fill="#7b6c79"/>
        <path id="Trazado_1080545" data-name="Trazado 1080545" d="M138.257,294.4l-7.235,2.826a8.569,8.569,0,0,0-2.564,1.719v1.276l4.749,5.744.4,2.986.528-.156V300.86C134.135,298.085,136.427,295.792,138.257,294.4Z" transform="translate(-115.219 -253.451)" fill="#665e68"/>
        <g id="Grupo_1210354" data-name="Grupo 1210354" transform="translate(15.867 0.001)">
          <path id="Trazado_1080546" data-name="Trazado 1080546" d="M154.707,36.038A6.292,6.292,0,0,1,157.225,31a1.465,1.465,0,0,0,.5-1.685,4.954,4.954,0,0,1,.744-4.768,1.461,1.461,0,0,0,0-1.809,4.946,4.946,0,0,1,.981-7.044,10.728,10.728,0,0,0,2.752-3.064,11.007,11.007,0,0,1,4.364-4.3c-6.758-2.581-10.575.984-12.559,4.3a10.733,10.733,0,0,1-2.752,3.064,4.946,4.946,0,0,0-.981,7.044,1.461,1.461,0,0,1,0,1.809,4.954,4.954,0,0,0-.743,4.771,1.462,1.462,0,0,1-.5,1.682,6.316,6.316,0,0,0-2.156,2.935l.587.625h3.1v6.6l.905,1.039a6.344,6.344,0,0,0,1.593.14,6.243,6.243,0,0,0,3.79-1.56A6.287,6.287,0,0,1,154.707,36.038Z" transform="translate(-146.874 -7.443)" fill="#b7aeb8"/>
        </g>
        <path id="Trazado_1080547" data-name="Trazado 1080547" d="M295.746,244.033a1.03,1.03,0,0,1-.658-.958l0-4.221a10.1,10.1,0,0,1-5.546,1.654c-.186,0-.369-.006-.55-.014v8.314h4.2l2.569-3.044.121-1.681Z" transform="translate(-252.839 -205.829)" fill="#ffcebe"/>
        <path id="Trazado_1080548" data-name="Trazado 1080548" d="M252.738,240.415a10.631,10.631,0,0,1-5.692-1.667v4.23a.948.948,0,0,1-.439.834l-.362.141v.935l2.33,3.829h4.163v-8.3Z" transform="translate(-216.196 -205.738)" fill="#ffb1a0"/>
        <path id="Trazado_1080549" data-name="Trazado 1080549" d="M114.047,329.968l-3.653-3.734c-.2.189-.394.39-.583.6l-.495.489v6.714l-1.929,2.018v5.1l.883.712h6.351l1.58-.712v-5.907A7.55,7.55,0,0,0,114.047,329.968Z" transform="translate(-97.155 -280.738)" fill="#544e55"/>
        <path id="Trazado_1080550" data-name="Trazado 1080550" d="M421.445,351.587a1.856,1.856,0,0,0,1.857-1.857V333.08a9.692,9.692,0,0,0-2.995-6.937l-3.666,3.747a7.55,7.55,0,0,0-2.153,5.28v16.418Z" transform="translate(-360.429 -280.66)" fill="#665e68"/>
        <path id="Trazado_1080551" data-name="Trazado 1080551" d="M95.247,272.084V254.437H90.4v17.647a2.424,2.424,0,1,0,4.848,0Z" transform="translate(-82.591 -219.188)" fill="#bd7b62"/>
        <path id="Trazado_1080552" data-name="Trazado 1080552" d="M126.786,430.784h-8.052l-.609.141-1.161.916-.559,1.463v3.962h13.338v-3.523a2.958,2.958,0,0,0-2.958-2.958Z" transform="translate(-104.886 -370.368)" fill="#bd7b62"/>
        <path id="Trazado_1080553" data-name="Trazado 1080553" d="M67.219,430.784H58.326a2.958,2.958,0,0,0-2.958,2.958v3.523h8.893v-3.523A2.958,2.958,0,0,1,67.219,430.784Z" transform="translate(-52.56 -370.368)" fill="#ad6a50"/>
        <path id="Trazado_1080554" data-name="Trazado 1080554" d="M284.7,354.847l-5.2-17.048-3.2-.322-2.466,19.714a24.687,24.687,0,0,0,2.844.167,20.911,20.911,0,0,0,7.476-1.369A.918.918,0,0,0,284.7,354.847Z" transform="translate(-239.854 -290.376)" fill="#dbedff"/>
        <path id="Trazado_1080555" data-name="Trazado 1080555" d="M238.653,337.8l-5.191,17.029a.924.924,0,0,0,.567,1.151,22.4,22.4,0,0,0,3.86,1.029L240,355.173l1.849-16.756-.63-.934Z" transform="translate(-205.199 -290.382)" fill="#b5dcff"/>
        <path id="Trazado_1080556" data-name="Trazado 1080556" d="M296.5,302.982l-1.691-.936a9.951,9.951,0,0,1-4.07.863c-.048,0-.1,0-.143,0l-.191.255v4.709l.191.166.111,0a7.755,7.755,0,0,0,6.5-3.575Z" transform="translate(-254.055 -260.002)" fill="#b5dcff"/>
        <path id="Trazado_1080557" data-name="Trazado 1080557" d="M252.007,302.924a10.929,10.929,0,0,1-4.174-.857l-1.571.7-.87,1.742a7.823,7.823,0,0,0,6.615,3.549Z" transform="translate(-215.465 -260.02)" fill="#8bcaff"/>
        <path id="Trazado_1080558" data-name="Trazado 1080558" d="M206.5,277.434l3.838,3.838a1.408,1.408,0,0,0,1.991,0l1.952-1.952a1.408,1.408,0,0,0,0-1.991l-2.11-2.11Z" transform="translate(-182.122 -237.004)" fill="#938493"/>
        <path id="Trazado_1080559" data-name="Trazado 1080559" d="M322.216,281.508a1.408,1.408,0,0,0,1.991,0l3.812-3.812-5.686-2.2-2.071,2.071a1.408,1.408,0,0,0,0,1.991Z" transform="translate(-279.297 -237.24)" fill="#938493"/>
        <path id="Trazado_1080560" data-name="Trazado 1080560" d="M61.891,470.46H37.152a1.463,1.463,0,0,0-1.463,1.463v1.922a1.463,1.463,0,0,0,1.463,1.463H61.89a1.463,1.463,0,0,0,1.463-1.463v-1.922a1.463,1.463,0,0,0-1.463-1.463Z" transform="translate(-35.689 -404.382)" fill="#ffe559"/>
        <path id="Trazado_1080561" data-name="Trazado 1080561" d="M36,197.965l.642.41h4.513v-4.656l-.831-.66H37.143a1.454,1.454,0,0,0-1.454,1.454v2.762Z" transform="translate(-35.689 -166.569)" fill="#fbc700"/>
        <path id="Trazado_1080562" data-name="Trazado 1080562" d="M37.143,220.548a1.454,1.454,0,0,1-1.454-1.454v5.169a1.454,1.454,0,0,0,1.454,1.454h3.181l.831-.4v-5.169l-.831.4Z" transform="translate(-35.689 -188.889)" fill="#eab900"/>
        <path id="Trazado_1080563" data-name="Trazado 1080563" d="M144.78,198.375H148.7l.678-.47.3-.58v-2.813a1.454,1.454,0,0,0-1.454-1.454h-3.18l-.261.244v5.072Z" transform="translate(-129.212 -166.568)" fill="#fbc700"/>
        <path id="Trazado_1080564" data-name="Trazado 1080564" d="M148.223,220.548h-3.181l-.261-.366v5.169l.261.366h3.181a1.454,1.454,0,0,0,1.454-1.454v-5.169A1.454,1.454,0,0,1,148.223,220.548Z" transform="translate(-129.212 -188.889)" fill="#eab900"/>
        <path id="Trazado_1080565" data-name="Trazado 1080565" d="M68.163,193.058h11.2v5.316h-11.2Z" transform="translate(-63.529 -166.568)" fill="#ffe559"/>
        <path id="Trazado_1080566" data-name="Trazado 1080566" d="M68.163,229.281h11.2v5.169h-11.2Z" transform="translate(-63.529 -197.622)" fill="#ffd500"/>
        <path id="Trazado_1080567" data-name="Trazado 1080567" d="M278.872,103.109a15.018,15.018,0,0,1-7.559-2,4.52,4.52,0,0,0-4.415,0c-.38.213-.8.429-1.263.638l-.4.773V116l2.462,3.96,3.7,2.025.535.157.573.041a10.3,10.3,0,0,0,6.828-9.659v-8.967A.453.453,0,0,0,278.872,103.109Z" transform="translate(-232.479 -87.244)" fill="#ffdecf"/>
        <path id="Trazado_1080568" data-name="Trazado 1080568" d="M226.51,119.878V109.019a14.477,14.477,0,0,1-6.442,1.365.453.453,0,0,0-.469.447v9.047a10.169,10.169,0,0,0,10.439,10.159,9.952,9.952,0,0,0,3.346-.576,10.091,10.091,0,0,1-6.873-9.583Z" transform="translate(-193.352 -94.522)" fill="#ffcebe"/>
        <path id="Trazado_1080569" data-name="Trazado 1080569" d="M114.357,470.46H98.087l-.354.077-.589.553-.255.553v2.569l.442.74.5.272.38.085h16.141a1.463,1.463,0,0,0,1.463-1.463v-1.922A1.463,1.463,0,0,0,114.357,470.46Z" transform="translate(-88.155 -404.382)" fill="#ffe559"/>
        <path id="Trazado_1080570" data-name="Trazado 1080570" d="M44.582,473.845v-1.922a1.463,1.463,0,0,1,1.463-1.463H37.152a1.463,1.463,0,0,0-1.463,1.463v1.922a1.463,1.463,0,0,0,1.463,1.463h8.893A1.463,1.463,0,0,1,44.582,473.845Z" transform="translate(-35.689 -404.382)" fill="#ffd500"/>
      </g>
      <path id="Trazado_1080571" data-name="Trazado 1080571" d="M30.723,73.059H63.567a1.07,1.07,0,1,0,0-2.141h-5.6c0-.03.007-.06.011-.09s.006-.046.008-.068c.007-.077.012-.155.012-.234V68.6a2.524,2.524,0,0,0-.114-.753c-.016-.051-.036-.1-.055-.149a24.38,24.38,0,0,0,8.263,1.412h.026a21.945,21.945,0,0,0,7.832-1.439,1.986,1.986,0,0,0,1.182-2.462L70.2,49.043a8.9,8.9,0,0,0,2.627-2.257,2.457,2.457,0,0,0,2.1-.7l3.319-3.319,7.918,3.066a6.824,6.824,0,0,1,1.4.793l-2.853,2.916a8.573,8.573,0,0,0-2.458,6.028v3.409a1.07,1.07,0,0,0,2.141,0V55.571a6.444,6.444,0,0,1,1.848-4.531L89.11,48.1a8.514,8.514,0,0,1,1.951,5.38v16.65a.787.787,0,0,1-.786.786H84.388V63.976a1.07,1.07,0,0,0-2.141,0v6.943H68.561a1.07,1.07,0,0,0,0,2.141H90.275A2.93,2.93,0,0,0,93.2,70.132V53.482a10.556,10.556,0,0,0-6.234-9.631l-.021-.008L72.578,38.278l0-2.825A11.467,11.467,0,0,0,74.54,33.6a7.643,7.643,0,0,0,5.868,3.428,7.373,7.373,0,0,0,4.718-13.263h0a.393.393,0,0,1-.138-.458,6.025,6.025,0,0,0-.9-5.8.391.391,0,0,1,0-.489,5.959,5.959,0,0,0,1.278-3.708,6.041,6.041,0,0,0-2.471-4.861A9.636,9.636,0,0,1,80.426,5.7C77.261.408,72.32-1.272,66.512.967a1.745,1.745,0,0,1-1.259,0C59.446-1.272,54.5.407,51.34,5.7a9.639,9.639,0,0,1-2.465,2.749,6.04,6.04,0,0,0-2.471,4.86,5.959,5.959,0,0,0,1.278,3.708.391.391,0,0,1,0,.489,6.025,6.025,0,0,0-.9,5.8.39.39,0,0,1-.14.454,7.359,7.359,0,0,0-2.225,2.72h-13.7a2.527,2.527,0,0,0-2.524,2.524v7.431a2.527,2.527,0,0,0,2.524,2.524H36v15a3.5,3.5,0,0,0,2.424,3.326v3.123h-3.4A4.033,4.033,0,0,0,31,64.436V66.07h-.275A2.537,2.537,0,0,0,28.189,68.6v1.922a2.537,2.537,0,0,0,2.534,2.534ZM56.5,65.189a1.982,1.982,0,0,0-.033,1.091,2.516,2.516,0,0,0-1.007-.21h-.274V64.436a4.033,4.033,0,0,0-4.028-4.028H49.375V55.571a8.572,8.572,0,0,0-2.458-6.028l-2.844-2.907a6.744,6.744,0,0,1,1.388-.8l7.912-3.09,3.344,3.344a2.464,2.464,0,0,0,2.045.705A8.625,8.625,0,0,0,61.42,49.05Zm-9.266-9.618v4.836H40.562V57.285a3.505,3.505,0,0,0,2.424-3.327h0V48.586l2.4,2.454A6.443,6.443,0,0,1,47.234,55.571ZM55.55,41.894l3.5-1.365,1.615,1.615a.338.338,0,0,1,0,.478l-1.953,1.953a.34.34,0,0,1-.477,0Zm17.5,23.832a19.815,19.815,0,0,1-3.493.948l-.572-4.615a1.07,1.07,0,0,0-2.124.263l.571,4.608q-.655.043-1.315.043h-.023q-.954,0-1.887-.077l.567-4.574a1.07,1.07,0,0,0-2.124-.263l-.566,4.565a21.344,21.344,0,0,1-3.5-.924l4.833-15.855a9.828,9.828,0,0,0,2.5.322h.017a8.718,8.718,0,0,0,2.282-.307Zm-7.126-17.7h-.008a6.868,6.868,0,0,1-5.291-2.34l1.312-1.312a12.163,12.163,0,0,0,4.008.664h.013a10.96,10.96,0,0,0,3.758-.659l1.274,1.274a6.65,6.65,0,0,1-5.066,2.372ZM60.9,39.354A2.059,2.059,0,0,0,61.18,38.3V36.686a11.808,11.808,0,0,0,9.256.027v1.6a2.1,2.1,0,0,0,.288,1.061L69.468,40.63a2.469,2.469,0,0,0-.722,1.82,8.725,8.725,0,0,1-2.8.449,10.1,10.1,0,0,1-3.049-.461,2.47,2.47,0,0,0-.722-1.808Zm15.164,2.569-2.651,2.651a.337.337,0,0,1-.478,0h0l-1.952-1.952h0a.338.338,0,0,1,0-.477l1.577-1.577ZM75.047,26.342a9.237,9.237,0,0,1-18.472.075V18A16.236,16.236,0,0,0,64.2,15.854a3.424,3.424,0,0,1,3.228-.069A16.684,16.684,0,0,0,75.047,18Zm-27.122-.87a2.521,2.521,0,0,0,.86-2.91,3.884,3.884,0,0,1,.582-3.738,2.532,2.532,0,0,0,0-3.13,3.838,3.838,0,0,1-.823-2.388,3.893,3.893,0,0,1,1.593-3.132A11.858,11.858,0,0,0,53.177,6.8c2.643-4.417,6.447-5.706,11.307-3.832a3.882,3.882,0,0,0,2.8,0C72.142,1.09,75.946,2.38,78.589,6.8a11.854,11.854,0,0,0,3.039,3.378,3.892,3.892,0,0,1,1.593,3.132,3.837,3.837,0,0,1-.823,2.388,2.532,2.532,0,0,0,0,3.13,3.884,3.884,0,0,1,.583,3.735,2.524,2.524,0,0,0,.859,2.913,5.233,5.233,0,0,1-3.349,9.413,5.49,5.49,0,0,1-4.612-3.271,11.286,11.286,0,0,0,1.309-5.273c0-9.895,0-8.9,0-9.017a1.513,1.513,0,0,0-1.548-1.468,13.976,13.976,0,0,1-7.022-1.867,5.552,5.552,0,0,0-5.458,0c-.172.1-.356.194-.548.292A13.678,13.678,0,0,1,56,15.853a1.518,1.518,0,0,0-1.566,1.524v9.04A11.231,11.231,0,0,0,55.8,31.792a5.528,5.528,0,0,1-4.528,3.094q-.241.009-.481,0V29.006a2.527,2.527,0,0,0-2.524-2.524H46.908A5.257,5.257,0,0,1,47.926,25.472Zm-1.766,3.15h2.11a.384.384,0,0,1,.383.383v7.431a.384.384,0,0,1-.383.383h-2.11Zm2.11,10.339a2.527,2.527,0,0,0,2.454-1.942c.211.01.423.014.634.006a7.573,7.573,0,0,0,5.785-3.3,10.75,10.75,0,0,0,1.9,1.744v2.764L44.673,43.844l-.018.007a8.7,8.7,0,0,0-1.669.927V38.961ZM32.823,36.82h-2.11a.384.384,0,0,1-.383-.383V29.005a.384.384,0,0,1,.383-.383h2.11Zm2.141,0v-8.2h9.055v8.2Zm3.173,17.138v-15h2.708v8.2h0v6.8a1.354,1.354,0,1,1-2.708,0Zm-5,10.478a1.89,1.89,0,0,1,1.887-1.888H51.159a1.89,1.89,0,0,1,1.887,1.888v1.634H33.138ZM30.33,68.6a.393.393,0,0,1,.393-.393H55.461a.393.393,0,0,1,.393.393v1.922a.393.393,0,0,1-.393.393H30.723a.393.393,0,0,1-.393-.393V68.6Z" transform="translate(0 0)"/>
    </g>
  </g>
</svg>
