<svg xmlns="http://www.w3.org/2000/svg" xmlns:xlink="http://www.w3.org/1999/xlink" width="294" height="315" viewBox="0 0 294 315">
  <defs>
    <clipPath id="clip-path">
      <rect id="Rectángulo_418638" data-name="Rectángulo 418638" width="294" height="315" transform="translate(180 259.201)" fill="#fff" stroke="#707070" stroke-width="1"/>
    </clipPath>
  </defs>
  <g id="Enmascarar_grupo_1098890" data-name="Enmascarar grupo 1098890" transform="translate(-180 -259.201)" clip-path="url(#clip-path)">
    <g id="Grupo_1210818" data-name="Grupo 1210818" transform="translate(181.51 258.633)">
      <path id="Trazado_1082296" data-name="Trazado 1082296" d="M167.619,100c61.2,3.067,79.91,31.9,98.521,66.314s44.592,49.444,50.532,97.8S287.3,358.447,287.3,358.447H54.994s-36.959-43.134-18.149-89.592,37.618-34.665,37.288-83.121S115.582,97.4,167.619,100Z" transform="translate(-30.081 -42.878)" fill="#f7f4ed"/>
      <g id="Grupo_1210789" data-name="Grupo 1210789" transform="translate(0 0)">
        <g id="OBJECTS" transform="translate(0)">
          <g id="Grupo_1210773" data-name="Grupo 1210773" transform="translate(3.731 206.122)">
            <g id="Grupo_1210771" data-name="Grupo 1210771">
              <path id="Trazado_1082205" data-name="Trazado 1082205" d="M157.081,466.043l-6.024,6.024L72.79,393.8a4.259,4.259,0,0,1,0-6.024h0a4.259,4.259,0,0,1,6.024,0Z" transform="translate(-46.511 -361.498)" fill="#799599"/>
              <rect id="Rectángulo_418640" data-name="Rectángulo 418640" width="65.195" height="38.7" transform="translate(6.813 52.912) rotate(-45)" fill="#95afb5"/>
              <g id="Grupo_1210770" data-name="Grupo 1210770">
                <path id="Trazado_1082206" data-name="Trazado 1082206" d="M77.95,446.029l-8.423,8.423a.959.959,0,0,1-1.355,0L40.365,426.645a.959.959,0,0,1,0-1.355l8.424-8.424a.959.959,0,0,1,1.355,0l27.807,27.807A.96.96,0,0,1,77.95,446.029Z" transform="translate(-40.084 -367.638)" fill="#799599"/>
                <path id="Trazado_1082207" data-name="Trazado 1082207" d="M139.465,384.514l-8.424,8.423a.959.959,0,0,1-1.355,0L101.879,365.13a.959.959,0,0,1,0-1.355l8.423-8.423a.959.959,0,0,1,1.355,0l27.807,27.807A.956.956,0,0,1,139.465,384.514Z" transform="translate(-52.651 -355.072)" fill="#799599"/>
                <path id="Trazado_1082208" data-name="Trazado 1082208" d="M75.833,452.335h0a1.3,1.3,0,0,1-1.833,0L43.879,422.214a1.3,1.3,0,0,1,0-1.833h0a1.3,1.3,0,0,1,1.833,0L75.833,450.5A1.3,1.3,0,0,1,75.833,452.335Z" transform="translate(-40.782 -368.336)" fill="#95afb5"/>
                <path id="Trazado_1082209" data-name="Trazado 1082209" d="M137.348,390.82h0a1.3,1.3,0,0,1-1.833,0L105.394,360.7a1.3,1.3,0,0,1,0-1.833h0a1.3,1.3,0,0,1,1.833,0l30.121,30.121A1.3,1.3,0,0,1,137.348,390.82Z" transform="translate(-53.349 -355.769)" fill="#95afb5"/>
              </g>
              <path id="Trazado_1082210" data-name="Trazado 1082210" d="M121.99,431.476l-5.5,5.5a1.667,1.667,0,0,1-2.358,0h0a1.667,1.667,0,0,1,0-2.358l5.5-5.5a1.667,1.667,0,0,1,2.358,0h0A1.667,1.667,0,0,1,121.99,431.476Z" transform="translate(-55.112 -370.099)" fill="#95afb5"/>
              <path id="Trazado_1082211" data-name="Trazado 1082211" d="M158.157,467.129l-6.015,6.015a1.3,1.3,0,0,1-1.843,0l-31.291-31.291a1.3,1.3,0,0,1,0-1.843l6.015-6.015a1.3,1.3,0,0,1,1.843,0l31.291,31.291A1.3,1.3,0,0,1,158.157,467.129Z" transform="translate(-56.13 -371.117)" fill="#95afb5"/>
              <path id="Trazado_1082212" data-name="Trazado 1082212" d="M171.012,480.5l-5.5,5.5a1.667,1.667,0,0,1-2.358,0h0a1.667,1.667,0,0,1,0-2.358l5.5-5.5a1.667,1.667,0,0,1,2.358,0h0A1.667,1.667,0,0,1,171.012,480.5Z" transform="translate(-65.127 -380.114)" fill="#95afb5"/>
              <path id="Trazado_1082213" data-name="Trazado 1082213" d="M166.494,489.849a7.408,7.408,0,1,0,8.367-8.367Z" transform="translate(-65.909 -380.896)" fill="#95afb5"/>
            </g>
            <g id="Grupo_1210772" data-name="Grupo 1210772" transform="translate(172.567 0.813)">
              <path id="Trazado_1082214" data-name="Trazado 1082214" d="M326.771,474.938l-5.405-5.405,70.224-70.224a3.822,3.822,0,0,1,5.405,0h0a3.822,3.822,0,0,1,0,5.405Z" transform="translate(-317.103 -364.693)" fill="#799599"/>
              <path id="Trazado_1082215" data-name="Trazado 1082215" d="M375.455,443.453l-4.935-4.935a1.5,1.5,0,0,1,0-2.115h0a1.5,1.5,0,0,1,2.115,0l4.935,4.935a1.5,1.5,0,0,1,0,2.115h0A1.5,1.5,0,0,1,375.455,443.453Z" transform="translate(-327.055 -372.41)" fill="#95afb5"/>
              <path id="Trazado_1082216" data-name="Trazado 1082216" d="M336.308,475.9l-5.4-5.4a1.169,1.169,0,0,1,0-1.653l28.076-28.076a1.169,1.169,0,0,1,1.653,0l5.4,5.4a1.169,1.169,0,0,1,0,1.654L337.961,475.9A1.169,1.169,0,0,1,336.308,475.9Z" transform="translate(-318.983 -373.324)" fill="#95afb5"/>
              <path id="Trazado_1082217" data-name="Trazado 1082217" d="M331.472,487.437l-4.935-4.935a1.5,1.5,0,0,1,0-2.115h0a1.5,1.5,0,0,1,2.115,0l4.935,4.935a1.5,1.5,0,0,1,0,2.115h0A1.5,1.5,0,0,1,331.472,487.437Z" transform="translate(-318.07 -381.396)" fill="#95afb5"/>
              <path id="Trazado_1082218" data-name="Trazado 1082218" d="M321.722,483.384a6.647,6.647,0,1,0,7.507,7.507Z" transform="translate(-316.009 -382.098)" fill="#95afb5"/>
              <circle id="Elipse_14256" data-name="Elipse 14256" cx="34.216" cy="34.216" r="34.216" transform="translate(46.075)" fill="#95afb5"/>
              <circle id="Elipse_14257" data-name="Elipse 14257" cx="30.711" cy="30.711" r="30.711" transform="translate(49.58 3.505)" fill="#799599"/>
              <circle id="Elipse_14258" data-name="Elipse 14258" cx="28.707" cy="28.707" r="28.707" transform="translate(51.584 5.509)" fill="#b6cdd3"/>
              <ellipse id="Elipse_14259" data-name="Elipse 14259" cx="11.178" cy="16.693" rx="11.178" ry="16.693" transform="translate(71.866 19.027) rotate(-45)" fill="#f0f6f7"/>
              <path id="Trazado_1082219" data-name="Trazado 1082219" d="M419.446,401.626c-1.355,1.355-4.094.813-6.117-1.21s-2.565-4.762-1.21-6.117,4.094-.813,6.117,1.21S420.8,400.271,419.446,401.626Z" transform="translate(-335.491 -363.746)" fill="#f0f6f7"/>
            </g>
          </g>
          <g id="Grupo_1210779" data-name="Grupo 1210779" transform="translate(0 6)">
            <path id="Trazado_1082220" data-name="Trazado 1082220" d="M258.568,343.1H218.36l6.138-80.886,2.154-1.093a6.657,6.657,0,0,0,1.862-10.465l4.149-102.413h11.6l4.149,102.413a6.654,6.654,0,0,0,1.862,10.465l2.154,1.093Z" transform="translate(-92.239 -131.552)" fill="#95afb5"/>
            <path id="Trazado_1082221" data-name="Trazado 1082221" d="M255.952,320.978H228.02l2.154-1.093a6.657,6.657,0,0,0,1.862-10.465h19.9a6.654,6.654,0,0,0,1.862,10.465Z" transform="translate(-95.761 -190.32)" fill="#799599"/>
            <g id="Grupo_1210778" data-name="Grupo 1210778">
              <g id="Grupo_1210775" data-name="Grupo 1210775" transform="translate(154.493)">
                <path id="Trazado_1082222" data-name="Trazado 1082222" d="M263.012,131.729s16.988,1.532,26.5-1.055c14.934-4.06,16.34-6.832,24.127-8.258s22.246-.278,52.421,17.322l-.28,4.586s-33.718-20.371-49.822-15.458c-8.134,2.482-11.339,6.857-26.446,11.562-10.7,3.332-26.03,3.694-26.03,3.694Z" transform="translate(-263.012 -121.977)" fill="#95afb5"/>
                <g id="Grupo_1210774" data-name="Grupo 1210774" transform="translate(66.847 21.261)">
                  <path id="Trazado_1082223" data-name="Trazado 1082223" d="M381.117,316.588H428.2a9.079,9.079,0,0,0,7.754-4.357l2.72-4.467H370.643l2.72,4.467A9.08,9.08,0,0,0,381.117,316.588Z" transform="translate(-369.101 -210.977)" fill="#799599"/>
                  <line id="Línea_669" data-name="Línea 669" y1="96.31" transform="translate(35.555)" fill="none" stroke="#799599" stroke-linecap="round" stroke-linejoin="round" stroke-miterlimit="10" stroke-width="1"/>
                  <path id="Trazado_1082224" data-name="Trazado 1082224" d="M370.643,252.848l34.014-95.7,34.014,95.7" transform="translate(-369.101 -156.061)" fill="none" stroke="#799599" stroke-linecap="round" stroke-linejoin="round" stroke-miterlimit="10" stroke-width="1"/>
                  <path id="Trazado_1082225" data-name="Trazado 1082225" d="M438.271,308.215h-69a1.057,1.057,0,0,1-1.057-1.057h0a1.057,1.057,0,0,1,1.057-1.057h69a1.057,1.057,0,0,1,1.057,1.057h0A1.057,1.057,0,0,1,438.271,308.215Z" transform="translate(-368.217 -210.37)" fill="#95afb5"/>
                </g>
                <circle id="Elipse_14260" data-name="Elipse 14260" cx="3.527" cy="3.527" r="3.527" transform="translate(98.875 16.687)" fill="#95afb5"/>
              </g>
              <g id="Grupo_1210777" data-name="Grupo 1210777">
                <path id="Trazado_1082226" data-name="Trazado 1082226" d="M177.855,131.729s-16.988,1.532-26.5-1.055c-14.934-4.06-16.34-6.832-24.127-8.258s-22.246-.278-52.421,17.322l.28,4.586s33.718-20.371,49.822-15.458c8.135,2.482,11.339,6.857,26.446,11.562,10.7,3.332,26.03,3.694,26.03,3.694Z" transform="translate(-39.897 -121.977)" fill="#95afb5"/>
                <g id="Grupo_1210776" data-name="Grupo 1210776" transform="translate(0 21.261)">
                  <path id="Trazado_1082227" data-name="Trazado 1082227" d="M79.846,316.588H32.767a9.079,9.079,0,0,1-7.754-4.357l-2.72-4.467H90.321l-2.72,4.467A9.08,9.08,0,0,1,79.846,316.588Z" transform="translate(-20.752 -210.977)" fill="#799599"/>
                  <line id="Línea_670" data-name="Línea 670" y1="96.31" transform="translate(35.555)" fill="none" stroke="#799599" stroke-linecap="round" stroke-linejoin="round" stroke-miterlimit="10" stroke-width="1"/>
                  <path id="Trazado_1082228" data-name="Trazado 1082228" d="M90.321,252.848l-34.014-95.7-34.014,95.7" transform="translate(-20.752 -156.061)" fill="none" stroke="#799599" stroke-linecap="round" stroke-linejoin="round" stroke-miterlimit="10" stroke-width="1"/>
                  <path id="Trazado_1082229" data-name="Trazado 1082229" d="M20.924,308.215h69a1.057,1.057,0,0,0,1.057-1.057h0a1.057,1.057,0,0,0-1.057-1.057h-69a1.057,1.057,0,0,0-1.057,1.057h0A1.057,1.057,0,0,0,20.924,308.215Z" transform="translate(-19.867 -210.37)" fill="#95afb5"/>
                </g>
                <circle id="Elipse_14261" data-name="Elipse 14261" cx="3.527" cy="3.527" r="3.527" transform="translate(32.028 16.687)" fill="#95afb5"/>
              </g>
            </g>
            <circle id="Elipse_14262" data-name="Elipse 14262" cx="13.969" cy="13.969" r="13.969" transform="translate(132.257 2.719)" fill="#799599"/>
            <circle id="Elipse_14263" data-name="Elipse 14263" cx="8.392" cy="8.392" r="8.392" transform="translate(137.834 8.296)" fill="#95afb5"/>
          </g>
          <g id="Grupo_1210788" data-name="Grupo 1210788" transform="translate(12.737 52.58)">
            <path id="Trazado_1082231" data-name="Trazado 1082231" d="M350.86,301.694s-3.644,61.639-36.007,47.3c-6.614-2.928-27.979-31.065-39.068-51.631s12-44.7,12-44.7c9.3,7.445,34.444,54.36,34.444,54.36l13.694-27.421S346.368,285.97,350.86,301.694Z" transform="translate(-126.378 -142.387)" fill="#ec8a47"/>
            <path id="Trazado_1082232" data-name="Trazado 1082232" d="M288.04,409.884l-94.808-14.221s55.869-12.189,62.979-50.383,30.271-38.194,30.271-38.194Z" transform="translate(-110.129 -153.504)" fill="#9e3b52"/>
            <path id="Trazado_1082233" data-name="Trazado 1082233" d="M263.515,379.061a460.89,460.89,0,0,0,25.223,95.246H161.975s-1.167-41.292,29.712-100.072Z" transform="translate(-103.742 -167.223)" fill="#17333a"/>
            <path id="Trazado_1082234" data-name="Trazado 1082234" d="M191.039,186.572s-26.747,17.656-20.517,38.514,37.687,20.583,45.524,7.043S218.6,184.356,191.039,186.572Z" transform="translate(-105.297 -128.863)" fill="#2a5c70"/>
            <path id="Trazado_1082235" data-name="Trazado 1082235" d="M176.367,216.738c7.9-4.164,44.517,3.516,62.8,12.95S269.82,262.86,269.82,262.86s8.081,7.206,8.081,23.713-14.385,60.075-14.385,60.075c-26.557,14.676-69.022-3.43-69.022-3.43s-25.848-69.794-31.13-87.672S169.054,220.593,176.367,216.738Z" transform="translate(-103.744 -134.81)" fill="#fff"/>
            <path id="Trazado_1082236" data-name="Trazado 1082236" d="M251.346,230.858s27.294,11.122,39.894,51.633,4.938,113.445,4.938,113.445l3.734-1.625V361.806s3.06-54.65,3.522-62.741c.812-14.256-12.6-34.058-12.6-34.058s-5.282-12.135-6.5-15.673S251.346,230.858,251.346,230.858Z" transform="translate(-122.002 -137.931)" fill="#ec8a47"/>
            <path id="Trazado_1082237" data-name="Trazado 1082237" d="M204.246,213.091s23.455-3.671,64.222,26.234l-5.282,1.318,13.138,11.928s9.966,18.11,9.926,51.718c0,0-6.482-50.2-42.972-75.657l-40.434-11.382Z" transform="translate(-112.093 -134.273)" fill="#d37739"/>
            <path id="Trazado_1082238" data-name="Trazado 1082238" d="M251.567,249.655c-18.787-20.028-47.607-38.815-47.607-38.815a17.708,17.708,0,0,0,3.135-9.334,23.643,23.643,0,0,0-2.618-11.617l35.775,4.273c-3.915,14.76-2.005,22.495.175,26.338a8.569,8.569,0,0,0,3.079,3.422C252.952,234.9,251.567,249.655,251.567,249.655Z" transform="translate(-112.321 -129.562)" fill="#f0aca1"/>
            <path id="Trazado_1082239" data-name="Trazado 1082239" d="M225.779,292.454c-.474,27.588-25.125,101.808-25.125,101.808l-41.393-14.9,22.47-52.871s-3.464-27.039-17.645-47.354-18.537-61.625-13.2-66.433,39.3,2.458,39.3,2.458,31.293,13.6,35.585,77.289" transform="translate(-101.029 -133.887)" fill="#ec8a47"/>
            <path id="Trazado_1082240" data-name="Trazado 1082240" d="M201.865,213.128c21.412,4.859,32.91,35.663,32.6,79.748,0,0-17.268-36.882-30.881-54.15l7.032-6.1-19.426-15.125Z" transform="translate(-109.712 -134.309)" fill="#d37739"/>
            <path id="Trazado_1082241" data-name="Trazado 1082241" d="M154.7,210.6s16.241,14.319,11.636,35.425-10.151,22.628-10.151,22.628-22.343,0-28.309-8.836c0,0-21.841-6.436-23.789-25.972S132.97,202.371,154.7,210.6Z" transform="translate(-91.899 -133.254)" fill="#ec8a47"/>
            <path id="Trazado_1082242" data-name="Trazado 1082242" d="M107.546,232.3c-2.816,6.972.744,17.948,10.8,23.162s24.062,2.559,30.062-14.4S115.943,211.508,107.546,232.3Z" transform="translate(-92.434 -136.012)" fill="#d37739"/>
            <g id="Grupo_1210780" data-name="Grupo 1210780" transform="translate(0 46.006)">
              <path id="Trazado_1082243" data-name="Trazado 1082243" d="M124.994,187.174c-5.959-9.991,5.553-17.876,15.3-14.484,7.981,2.775,6.5,12.588,7.043,14.755s.835,16.438,8.543,25.42,5.65,20.651-1.992,22.931c-9.87,2.946-14.44,8.973-17.691,7.619s-3.488-6.129-3.488-6.129-20.587,6.5-30.067,0c0,0-4.876.812-8.939-4.063s-5.959-20.31-4.334-24.918,3.522-8.059,6.5-7.046,6.23-7.855,10.293-7.313,6.1-1.673,8.532-4.382S124.994,187.174,124.994,187.174Z" transform="translate(-88.793 -171.89)" fill="#f0aca1"/>
              <path id="Trazado_1082244" data-name="Trazado 1082244" d="M134.288,190.507c4.469,3.657,17.741,1.291,19.774-2.3" transform="translate(-98.087 -175.223)" fill="none" stroke="#c6817b" stroke-linecap="round" stroke-linejoin="round" stroke-miterlimit="10" stroke-width="1"/>
              <path id="Trazado_1082245" data-name="Trazado 1082245" d="M106.2,246.316a5.742,5.742,0,0,0,2.709-2.3s10.9,1.869,14.357-1.9c0,0,6.908,4.2,16.93-2.438,3.642-2.412,2.709-25.733-5.832-23.432" transform="translate(-92.35 -180.92)" fill="none" stroke="#c6817b" stroke-linecap="round" stroke-linejoin="round" stroke-miterlimit="10" stroke-width="1"/>
              <path id="Trazado_1082246" data-name="Trazado 1082246" d="M143.027,205.826c-5.147,20.045,4.551,19.538,2.623,27.581" transform="translate(-99.561 -178.823)" fill="none" stroke="#c6817b" stroke-linecap="round" stroke-linejoin="round" stroke-miterlimit="10" stroke-width="1"/>
              <path id="Trazado_1082247" data-name="Trazado 1082247" d="M145.043,229.777a7.563,7.563,0,0,0,1.951-5.147" transform="translate(-100.284 -182.665)" fill="none" stroke="#c6817b" stroke-linecap="round" stroke-linejoin="round" stroke-miterlimit="10" stroke-width="1"/>
              <path id="Trazado_1082248" data-name="Trazado 1082248" d="M126.364,240.663c-3.521-1.219-5.553-12.731-4.876-31.693" transform="translate(-95.446 -179.465)" fill="none" stroke="#c6817b" stroke-linecap="round" stroke-linejoin="round" stroke-miterlimit="10" stroke-width="1"/>
              <path id="Trazado_1082249" data-name="Trazado 1082249" d="M108.248,244.248c-5.227-2.438-5.494-16.311-5.222-27.011" transform="translate(-91.686 -181.154)" fill="none" stroke="#c6817b" stroke-linecap="round" stroke-linejoin="round" stroke-miterlimit="10" stroke-width="1"/>
              <path id="Trazado_1082250" data-name="Trazado 1082250" d="M143.99,249.835c.948-5.959,3.25-11.919,14.9-16.524" transform="translate(-100.069 -184.438)" fill="#f0aca1" stroke="#c6817b" stroke-linecap="round" stroke-linejoin="round" stroke-miterlimit="10" stroke-width="1"/>
              <path id="Trazado_1082251" data-name="Trazado 1082251" d="M139.828,193.168c3.244,1.264,1.72,3.3,5.478,4.617s7.72,1.117,9.142,0" transform="translate(-99.219 -176.237)" fill="#f0aca1" stroke="#c6817b" stroke-linecap="round" stroke-linejoin="round" stroke-miterlimit="10" stroke-width="1"/>
              <path id="Trazado_1082252" data-name="Trazado 1082252" d="M147.037,218.081a22.984,22.984,0,0,0,8.885,0" transform="translate(-100.692 -181.327)" fill="#f0aca1" stroke="#c6817b" stroke-linecap="round" stroke-linejoin="round" stroke-miterlimit="10" stroke-width="1"/>
              <path id="Trazado_1082253" data-name="Trazado 1082253" d="M156.735,223.736s-4.733,2-5.719,4.1" transform="translate(-101.505 -182.482)" fill="#f0aca1" stroke="#c6817b" stroke-linecap="round" stroke-linejoin="round" stroke-miterlimit="10" stroke-width="1"/>
            </g>
            <path id="Trazado_1082254" data-name="Trazado 1082254" d="M134.005,272.154s17.872,2.573,24.915-3.792" transform="translate(-98.029 -145.593)" fill="none" stroke="#d37739" stroke-linecap="round" stroke-linejoin="round" stroke-miterlimit="10" stroke-width="1"/>
            <path id="Trazado_1082255" data-name="Trazado 1082255" d="M160.909,268.912l6.9.416s12.686-17.848,10.973-38.5c-1.229-14.811-12.458-19.556-12.458-19.556" transform="translate(-103.526 -133.931)" fill="none" stroke="#d37739" stroke-linecap="round" stroke-linejoin="round" stroke-miterlimit="10" stroke-width="1"/>
            <path id="Trazado_1082256" data-name="Trazado 1082256" d="M169.927,393.135c4.416-13.815,19.422-54.311,19.422-54.311s-3.928-25.733-9.346-34.131-10.421-23.94-10.421-23.94,13.537-5.672,15.027-13.552" transform="translate(-105.298 -145.356)" fill="none" stroke="#d37739" stroke-linecap="round" stroke-linejoin="round" stroke-miterlimit="10" stroke-width="1"/>
            <path id="Trazado_1082257" data-name="Trazado 1082257" d="M291.645,252.668s6.228,9.246,7.425,16.794c0,0,8.674,13.5,10.514,21.253s-.766,63.51-.766,63.51" transform="translate(-130.234 -142.387)" fill="none" stroke="#d37739" stroke-linecap="round" stroke-linejoin="round" stroke-miterlimit="10" stroke-width="1"/>
            <path id="Trazado_1082258" data-name="Trazado 1082258" d="M334.473,320.986c-5.393,19.058,3.1,24.2,3.1,24.2" transform="translate(-138.618 -156.344)" fill="none" stroke="#d37739" stroke-linecap="round" stroke-linejoin="round" stroke-miterlimit="10" stroke-width="1"/>
            <path id="Trazado_1082259" data-name="Trazado 1082259" d="M367.066,308.611a23.848,23.848,0,0,1-5.217-2.4,21,21,0,0,1-9.609-15.957,20.014,20.014,0,0,1-.108-3.727S362.573,292.887,367.066,308.611Z" transform="translate(-142.583 -149.303)" fill="#d37739"/>
            <g id="Grupo_1210782" data-name="Grupo 1210782" transform="translate(187.248 63.281)">
              <path id="Trazado_1082260" data-name="Trazado 1082260" d="M389.1,254.129C382.45,263.05,374.142,270,369.347,271.7c-3.309,1.174,20.587-39.956,27.95-44.66,1.521-.972.12,5.744-.479,8.183-.567,2.305-3.84,8.567-3.84,8.567" transform="translate(-333.293 -200.413)" fill="#f0aca1"/>
              <path id="Trazado_1082261" data-name="Trazado 1082261" d="M401.231,227.065c1.22.182.469,3.893.042,5.838s-3.071,8.222-4.557,11.55-2.9,8.426-3.682,9.7-4.744,5.914-4.744,5.914" transform="translate(-337.226 -200.438)" fill="none" stroke="#c6817b" stroke-linecap="round" stroke-linejoin="round" stroke-miterlimit="10" stroke-width="1"/>
              <g id="Grupo_1210781" data-name="Grupo 1210781">
                <path id="Trazado_1082262" data-name="Trazado 1082262" d="M411.684,196.273s-6.6,1.715-13.6,9.893-17.418,25.6-17.418,25.6L395.53,223.9s11.462-8.2,13.276-13.488S411.684,196.273,411.684,196.273Z" transform="translate(-335.668 -194.147)" fill="#e3e7e8"/>
                <path id="Trazado_1082263" data-name="Trazado 1082263" d="M413.929,193.6s-11.187,14.887-20.816,29.473-9.2,20.25-9.2,20.25,6.655-12.886,21.95-28.888C405.857,214.435,416.9,203.778,413.929,193.6Z" transform="translate(-336.331 -193.601)" fill="#7f3c2f"/>
                <path id="Trazado_1082264" data-name="Trazado 1082264" d="M397.137,214.8s7.243-8.209,8.719-18.814a9.632,9.632,0,0,0-7.551,3.733c-2.9,3.83-4.023,12.361-4.023,12.361s-22.529-22.375-37.079-16.094,6.691,31.24,8.6,32.2S397.137,214.8,397.137,214.8Z" transform="translate(-329.841 -193.861)" fill="#fff"/>
                <path id="Trazado_1082265" data-name="Trazado 1082265" d="M393.327,216.05c-.175.174-.349.349-.532.524,0,0-17.413,19.035-24.427,37.97l-7.013,3.161s-22.8-9.825-37.238-10.7c0,0,5.516-34.693,24.21-52.821a95.325,95.325,0,0,1,39.509,20.674l4.817-1.414a28.452,28.452,0,0,0,9.06-19.842l2.13.041S404.25,205.168,393.327,216.05Z" transform="translate(-324.116 -193.602)" fill="#b5475c"/>
                <path id="Trazado_1082266" data-name="Trazado 1082266" d="M402.887,221.725c-.175.174-.349.349-.532.524,0,0-17.413,19.035-24.427,37.97l-7.013,3.161c2.7-15.208,24.5-39.243,24.5-39.243l7.363-2.754Z" transform="translate(-333.677 -199.277)" fill="#7f3c2f"/>
              </g>
              <path id="Trazado_1082267" data-name="Trazado 1082267" d="M392.209,226.63c-2.9.854-4.263,3.94-4.886,6.213a7.734,7.734,0,0,0-4.882,4.589c-1.2,3.084-5.42,9.095-5.42,9.095,1.448-3.235,1.413-9.229.672-9.095-.8.146-3.115,1.872-3.965,5.49s-4.956,9.293-4.956,9.293c-4.163,1.91-8.344,6.73-9.077,9.847-1.811,7.693,2.809,14.066,9.234,9.565,6.514-4.563,9.1-8.375,9.1-8.375h0a60.134,60.134,0,0,0,5.86-6.39c2.832-3.614,6.247-12.781,7.26-17.7C393.129,229.534,395.694,225.605,392.209,226.63Z" transform="translate(-331.304 -200.316)" fill="#f0aca1"/>
              <path id="Trazado_1082268" data-name="Trazado 1082268" d="M381.363,240.246c.5.263.567,4.917-.672,9.095a31.574,31.574,0,0,1-3.434,7.505" transform="translate(-334.972 -203.13)" fill="none" stroke="#c6817b" stroke-linecap="round" stroke-linejoin="round" stroke-miterlimit="10" stroke-width="1"/>
              <path id="Trazado_1082269" data-name="Trazado 1082269" d="M392.818,234.4c1.634.645-2.827,10.2-4.314,14.1a42.2,42.2,0,0,1-3.328,6.8" transform="translate(-336.59 -201.937)" fill="none" stroke="#c6817b" stroke-linecap="round" stroke-linejoin="round" stroke-miterlimit="10" stroke-width="1"/>
              <path id="Trazado_1082270" data-name="Trazado 1082270" d="M400.368,226.472c.991.512.247,2.113-.739,5.885S392.65,250.7,392.65,250.7" transform="translate(-338.117 -200.316)" fill="none" stroke="#c6817b" stroke-linecap="round" stroke-linejoin="round" stroke-miterlimit="10" stroke-width="1"/>
            </g>
            <path id="Trazado_1082271" data-name="Trazado 1082271" d="M368.136,278.892l-2.945,11.39-3.3,12.8a21,21,0,0,1-9.609-15.957l1.231-3.286,4.75-12.629Z" transform="translate(-142.622 -146.174)" fill="#f0aca1"/>
            <path id="Trazado_1082272" data-name="Trazado 1082272" d="M240.56,220.5a15.6,15.6,0,0,1-10.185-.4c-10.273-3.9-18.413-12.54-23.147-18.6a23.643,23.643,0,0,0-2.618-11.617l35.775,4.273C236.47,208.923,238.38,216.658,240.56,220.5Z" transform="translate(-112.454 -129.562)" fill="#e09890"/>
            <g id="Grupo_1210787" data-name="Grupo 1210787" transform="translate(76.875)">
              <path id="Trazado_1082273" data-name="Trazado 1082273" d="M235.646,137.616s-.008.008,0,.008c-1.878,18.015-10.917,42.952-29.473,41.989-17.88-.931-23.967-20.871-19.216-38.313,2.53-9.334,8.164-17.951,16.758-22.558,7.71-4.138,13.8-5.045,18.421-4.543a19.536,19.536,0,0,1,2.753.493,17.377,17.377,0,0,1,7.2,3.732q.012,0,.024.024s.008-.008.008.008a12.064,12.064,0,0,1,1.432,1.472.937.937,0,0,1,.135.175,1.567,1.567,0,0,1,.2.2C235.861,122.4,236.529,129.261,235.646,137.616Z" transform="translate(-185.405 -114.073)" fill="#2a5c70"/>
              <g id="Grupo_1210785" data-name="Grupo 1210785" transform="translate(3.828 37.003)">
                <g id="Grupo_1210783" data-name="Grupo 1210783">
                  <path id="Trazado_1082274" data-name="Trazado 1082274" d="M199.479,163.994s-3.862-4.876-7.827-2.98.626,26.682,9.5,20.993S199.479,163.994,199.479,163.994Z" transform="translate(-190.215 -160.577)" fill="#f0aca1"/>
                  <path id="Trazado_1082275" data-name="Trazado 1082275" d="M192.778,169.155s-.939-5.912,2.5-3.881S199.8,179.292,197.958,180s-5.212-9.176-.343-8.7" transform="translate(-190.715 -161.449)" fill="none" stroke="#c6817b" stroke-linecap="round" stroke-linejoin="round" stroke-miterlimit="10" stroke-width="1"/>
                </g>
                <g id="Grupo_1210784" data-name="Grupo 1210784" transform="translate(50.483)">
                  <path id="Trazado_1082276" data-name="Trazado 1082276" d="M258.88,163.994s3.862-4.876,7.827-2.98-.626,26.682-9.5,20.993S258.88,163.994,258.88,163.994Z" transform="translate(-253.659 -160.577)" fill="#f0aca1"/>
                  <path id="Trazado_1082277" data-name="Trazado 1082277" d="M267.713,169.155s.939-5.912-2.5-3.881-4.515,14.018-2.675,14.729,5.212-9.176.343-8.7" transform="translate(-255.29 -161.449)" fill="none" stroke="#c6817b" stroke-linecap="round" stroke-linejoin="round" stroke-miterlimit="10" stroke-width="1"/>
                </g>
              </g>
              <path id="Trazado_1082278" data-name="Trazado 1082278" d="M224.348,123.562c-24.959,0-27.66,21.989-25.446,42.176,2.541,23.167,20.283,32.139,25.446,32.139,5.808,0,23.144-10.868,25.456-32.187C251.993,145.519,249.286,123.562,224.348,123.562Z" transform="translate(-188.036 -116.011)" fill="#f0aca1" stroke="#c6817b" stroke-linecap="round" stroke-linejoin="round" stroke-miterlimit="10" stroke-width="1"/>
              <path id="Trazado_1082279" data-name="Trazado 1082279" d="M229.173,194.688s.424-.812,2.292-.559,3.678,1.879,4.98,3.86c0,0-1.584,2.895-7.526,2.895s-7.017-2.895-7.017-2.895,1.811-3.145,3.9-3.909A3.15,3.15,0,0,1,229.173,194.688Z" transform="translate(-192.861 -130.371)" fill="#b5475c"/>
              <path id="Trazado_1082280" data-name="Trazado 1082280" d="M235.955,160.951s8.83-6.269,16.117-3.115c0,0-5.418-.677-15.44,4.469Z" transform="translate(-195.732 -122.832)" fill="#2a5c70"/>
              <path id="Trazado_1082281" data-name="Trazado 1082281" d="M247.536,168.96a2.641,2.641,0,1,1-2.641-2.641A2.641,2.641,0,0,1,247.536,168.96Z" transform="translate(-197.019 -124.746)" fill="#2a5c70"/>
              <path id="Trazado_1082282" data-name="Trazado 1082282" d="M247.913,167.675s2-.3,2.641-1.185a2.242,2.242,0,0,1-2.438,1.727Z" transform="translate(-198.175 -124.781)" fill="#2a5c70"/>
              <path id="Trazado_1082283" data-name="Trazado 1082283" d="M220.986,160.951s-8.83-6.269-16.117-3.115c0,0,5.418-.677,15.44,4.469Z" transform="translate(-189.381 -122.832)" fill="#2a5c70"/>
              <path id="Trazado_1082284" data-name="Trazado 1082284" d="M212.188,168.96a2.641,2.641,0,1,0,2.641-2.641A2.641,2.641,0,0,0,212.188,168.96Z" transform="translate(-190.877 -124.746)" fill="#2a5c70"/>
              <path id="Trazado_1082285" data-name="Trazado 1082285" d="M212.488,167.675s-2-.3-2.641-1.185a2.242,2.242,0,0,0,2.438,1.727Z" transform="translate(-190.398 -124.781)" fill="#2a5c70"/>
              <path id="Trazado_1082286" data-name="Trazado 1082286" d="M227.562,166.489c2.3,2.776.135,13.341-.677,14.56s1.116,2.844,3.267,2.709" transform="translate(-193.84 -124.781)" fill="#f0aca1" stroke="#c6817b" stroke-linecap="round" stroke-linejoin="round" stroke-miterlimit="10" stroke-width="1"/>
              <path id="Trazado_1082287" data-name="Trazado 1082287" d="M254.516,179.407a3.3,3.3,0,1,1-3.3-3.3A3.3,3.3,0,0,1,254.516,179.407Z" transform="translate(-198.175 -126.746)" fill="#e5948c"/>
              <path id="Trazado_1082288" data-name="Trazado 1082288" d="M212.3,178.9a3.3,3.3,0,1,1-3.3-3.3A3.3,3.3,0,0,1,212.3,178.9Z" transform="translate(-189.551 -126.642)" fill="#e5948c"/>
              <path id="Trazado_1082289" data-name="Trazado 1082289" d="M236.444,198.517a14.352,14.352,0,0,0-7.922-2.082,12.985,12.985,0,0,0-6.62,2.082S230.05,200.143,236.444,198.517Z" transform="translate(-192.861 -130.899)" fill="#fff" stroke="#2a5c70" stroke-linecap="round" stroke-linejoin="round" stroke-miterlimit="10" stroke-width="1"/>
              <path id="Trazado_1082290" data-name="Trazado 1082290" d="M248.88,164.845s.064-10.066-.477-14.259c0,0-5.848-1.918-10.973-12.54v-.008a52.954,52.954,0,0,1-2.363-5.737s-2.371,10.893-36.778,18.986c0,0-.231,7.694-.318,12.166a44.888,44.888,0,0,1-3.827-16.766c0-.286-.008-.573-.008-.859a32.8,32.8,0,0,1,.4-5.156c1.13-7.145,4.878-14.593,13.965-20.155a30.2,30.2,0,0,1,16.049-4.368c.732.016,1.44.064,2.125.135a14.383,14.383,0,0,1,7.2,2.562q.012,0,.024.024s.008-.008.008.008a6.6,6.6,0,0,1,1.432,1.472.938.938,0,0,1,.135.175s.064,0,.175.008c.024,0,.056.008.088.008a19.518,19.518,0,0,1,13.607,7.846,25.915,25.915,0,0,1,4.345,9.875C256.8,151.987,248.88,164.845,248.88,164.845Z" transform="translate(-187.188 -114.495)" fill="#2a5c70"/>
              <g id="Grupo_1210786" data-name="Grupo 1210786" transform="translate(8.563 35.76)">
                <circle id="Elipse_14264" data-name="Elipse 14264" cx="8.75" cy="8.75" r="8.75" transform="translate(4.926 17.027) rotate(-76.656)" fill="none" stroke="#2a5c70" stroke-linecap="round" stroke-linejoin="round" stroke-miterlimit="10" stroke-width="1"/>
                <circle id="Elipse_14265" data-name="Elipse 14265" cx="8.75" cy="8.75" r="8.75" transform="translate(30.032 17.822) rotate(-81.037)" fill="none" stroke="#2a5c70" stroke-linecap="round" stroke-linejoin="round" stroke-miterlimit="10" stroke-width="1"/>
                <path id="Trazado_1082291" data-name="Trazado 1082291" d="M226.6,171.986s2.8-2.4,7.068,0" transform="translate(-202.384 -161.446)" fill="none" stroke="#2a5c70" stroke-linecap="round" stroke-linejoin="round" stroke-miterlimit="10" stroke-width="1"/>
                <path id="Trazado_1082292" data-name="Trazado 1082292" d="M257.472,170.746h2.975s3.421-3.833,3.437-5.9" transform="translate(-208.691 -160.206)" fill="none" stroke="#2a5c70" stroke-linecap="round" stroke-linejoin="round" stroke-miterlimit="10" stroke-width="1"/>
                <path id="Trazado_1082293" data-name="Trazado 1082293" d="M202.882,170.507h-3.319a14.105,14.105,0,0,1-3.4-6.826" transform="translate(-196.167 -159.968)" fill="none" stroke="#2a5c70" stroke-linecap="round" stroke-linejoin="round" stroke-miterlimit="10" stroke-width="1"/>
              </g>
              <path id="Trazado_1082294" data-name="Trazado 1082294" d="M233.681,125.107c-1.623,5.188-13.447,17.872-25.789,18.962a41.9,41.9,0,0,0,11.49-8.53c-.469.231-15.6,7.726-26.624,10.726-.8.223-1.583.422-2.339.581.1-.064.971-.581,2.331-1.44,4.846-3.032,15.938-10.352,21.349-16.909-.4.271-11.936,8.18-20.951,11.753-.947.374-1.87.7-2.745.971a5.08,5.08,0,0,1-3.048.08c2.53-9.334,8.164-17.951,16.758-22.558,7.71-4.138,13.8-5.045,18.421-4.543a7.271,7.271,0,0,1,.629,1.528,8.494,8.494,0,0,1-1.019,7.177,13.133,13.133,0,0,0,3.143-7.042,6.379,6.379,0,0,0,0-1.17,17.377,17.377,0,0,1,7.2,3.732q.012,0,.024.024s.008-.008.008.008a6.6,6.6,0,0,1,1.432,1.472.937.937,0,0,1,.135.175s.064,0,.175.008a.785.785,0,0,1,.024.191A12.16,12.16,0,0,1,233.681,125.107Z" transform="translate(-185.803 -114.073)" fill="#366d89"/>
              <path id="Trazado_1082295" data-name="Trazado 1082295" d="M263,149.742c-17.338-6.573-11.243-25.662-16.662-27.889a1.156,1.156,0,0,1,.064-.183,19.518,19.518,0,0,1,13.607,7.846c2.817,5.769,2.936,12.532.963,12.111-2.849-.613-5.769-5.085-5.769-5.085C255.931,144.531,263,149.742,263,149.742Z" transform="translate(-197.853 -115.625)" fill="#366d89"/>
            </g>
          </g>
        </g>
      </g>
    </g>
  </g>
</svg>
