<svg xmlns="http://www.w3.org/2000/svg" xmlns:xlink="http://www.w3.org/1999/xlink" width="103" height="103.633" viewBox="0 0 103 103.633">
  <defs>
    <filter id="Trazado_978624" x="0" y="0" width="103" height="103" filterUnits="userSpaceOnUse">
      <feOffset dy="3" input="SourceAlpha"/>
      <feGaussianBlur stdDeviation="3" result="blur"/>
      <feFlood flood-opacity="0.161"/>
      <feComposite operator="in" in2="blur"/>
      <feComposite in="SourceGraphic"/>
    </filter>
  </defs>
  <g id="Grupo_1210955" data-name="Grupo 1210955" transform="translate(-615 -4179)">
    <g id="Grupo_1209912" data-name="Grupo 1209912" transform="translate(449.5 3121)">
      <g id="Grupo_1178144" data-name="Grupo 1178144" transform="translate(-19.5 -2004)">
        <g id="Grupo_1177896" data-name="Grupo 1177896" transform="translate(14 196)">
          <g id="Grupo_1176881" data-name="Grupo 1176881">
            <g id="Grupo_1175148" data-name="Grupo 1175148" transform="translate(0 1580)">
              <g id="Grupo_1173798" data-name="Grupo 1173798" transform="translate(-3 -3520)">
                <g id="Grupo_1171925" data-name="Grupo 1171925" transform="translate(-22 -2246)">
                  <g id="Grupo_1164524" data-name="Grupo 1164524" transform="translate(205 7058)">
                    <g id="Grupo_1144123" data-name="Grupo 1144123">
                      <g transform="matrix(1, 0, 0, 1, -9, -6)" filter="url(#Trazado_978624)">
                        <g id="Trazado_978624-2" data-name="Trazado 978624" transform="translate(9 6)" fill="#edeef2">
                          <path d="M 42.5 83.5 C 36.96437835693359 83.5 31.59512901306152 82.41617584228516 26.54141235351562 80.27863311767578 C 21.65934181213379 78.21369171142578 17.27447128295898 75.25723266601562 13.50862312316895 71.49137878417969 C 9.742764472961426 67.72553253173828 6.786305904388428 63.34066009521484 4.721364498138428 58.45858764648438 C 2.583823442459106 53.40486907958984 1.5 48.03562164306641 1.5 42.5 C 1.5 36.96437835693359 2.583823442459106 31.59512901306152 4.721364498138428 26.54141235351562 C 6.786305904388428 21.65934181213379 9.742764472961426 17.27447128295898 13.50862312316895 13.50862312316895 C 17.27447128295898 9.742764472961426 21.65934181213379 6.786305904388428 26.54141235351562 4.721364498138428 C 31.59512901306152 2.583823442459106 36.96437835693359 1.5 42.5 1.5 C 48.03562164306641 1.5 53.40486907958984 2.583823442459106 58.45858764648438 4.721364498138428 C 63.34066009521484 6.786305904388428 67.72553253173828 9.742764472961426 71.49137878417969 13.50862312316895 C 75.25723266601562 17.27447128295898 78.21369171142578 21.65934181213379 80.27863311767578 26.54141235351562 C 82.41617584228516 31.59512901306152 83.5 36.96437835693359 83.5 42.5 C 83.5 48.03562164306641 82.41617584228516 53.40486907958984 80.27863311767578 58.45858764648438 C 78.21369171142578 63.34066009521484 75.25723266601562 67.72553253173828 71.49137878417969 71.49137878417969 C 67.72553253173828 75.25723266601562 63.34066009521484 78.21369171142578 58.45858764648438 80.27863311767578 C 53.40486907958984 82.41617584228516 48.03562164306641 83.5 42.5 83.5 Z" stroke="none"/>
                          <path d="M 42.5 3 C 37.16621398925781 3 31.99356079101562 4.043960571289062 27.125732421875 6.102882385253906 C 22.42246627807617 8.092185974121094 18.19785308837891 10.94070434570312 14.56928253173828 14.56928253173828 C 10.94070434570312 18.19785308837891 8.092185974121094 22.42246627807617 6.102882385253906 27.125732421875 C 4.043960571289062 31.99356079101562 3 37.16621398925781 3 42.5 C 3 47.83378601074219 4.043960571289062 53.00643920898438 6.102882385253906 57.87425231933594 C 8.092185974121094 62.57753372192383 10.94070434570312 66.80213165283203 14.56928253173828 70.43071746826172 C 18.19786834716797 74.05929565429688 22.42246627807617 76.90781402587891 27.125732421875 78.89711761474609 C 31.99356079101562 80.95603942871094 37.16621398925781 82 42.5 82 C 47.83378601074219 82 53.00642395019531 80.95603942871094 57.87425231933594 78.89711761474609 C 62.57753372192383 76.90781402587891 66.80213165283203 74.05929565429688 70.43071746826172 70.43071746826172 C 74.05929565429688 66.80213165283203 76.90781402587891 62.57753372192383 78.89711761474609 57.87425231933594 C 80.95603942871094 53.00642395019531 82 47.83378601074219 82 42.5 C 82 37.16621398925781 80.95603942871094 31.99356079101562 78.89711761474609 27.125732421875 C 76.90781402587891 22.42246627807617 74.05929565429688 18.19786834716797 70.43071746826172 14.56928253173828 C 66.80213165283203 10.94070434570312 62.57753372192383 8.092185974121094 57.87425231933594 6.102882385253906 C 53.00643920898438 4.043960571289062 47.83378601074219 3 42.5 3 M 42.5 0 C 65.97209167480469 0 85 19.02789306640625 85 42.5 C 85 65.97209167480469 65.97209167480469 85 42.5 85 C 19.02789306640625 85 0 65.97209167480469 0 42.5 C 0 19.02789306640625 19.02789306640625 0 42.5 0 Z" stroke="none" fill="#56678d"/>
                        </g>
                      </g>
                    </g>
                  </g>
                </g>
              </g>
            </g>
          </g>
        </g>
      </g>
    </g>
    <g id="equilibrar" transform="translate(621.063 4191.765)">
      <path id="Trazado_1082522" data-name="Trazado 1082522" d="M125.724,108.465a1.507,1.507,0,0,1-.841-.254,16.458,16.458,0,0,0-9.155-2.775H81.207a16.459,16.459,0,0,0-9.162,2.775,1.526,1.526,0,0,1-1.514.1l-6.058-3.029,1.354-2.711,5.3,2.647a19.479,19.479,0,0,1,10.08-2.806h34.522a19.486,19.486,0,0,1,10.091,2.806l5.293-2.647,1.354,2.711-6.058,3.029A1.549,1.549,0,0,1,125.724,108.465Z" transform="translate(-53.027 -84.232)" fill="#91562f"/>
      <path id="Trazado_1082523" data-name="Trazado 1082523" d="M178.94,475.392h-42.4a6.058,6.058,0,0,1,6.058-6.058h30.289A6.057,6.057,0,0,1,178.94,475.392Z" transform="translate(-112.3 -386.038)" fill="#f9b44d"/>
      <path id="Trazado_1082524" data-name="Trazado 1082524" d="M285.182,469.334H273.066a6.058,6.058,0,0,1,6.058,6.058H291.24A6.057,6.057,0,0,0,285.182,469.334Z" transform="translate(-224.6 -386.038)" fill="#fa982f"/>
      <path id="Trazado_1082525" data-name="Trazado 1082525" d="M222.974,441.259H204.8l6.058-6.058h6.058Z" transform="translate(-168.45 -357.962)" fill="#f9b44d"/>
      <rect id="Rect치ngulo_418735" data-name="Rect치ngulo 418735" width="6.058" height="63.607" transform="translate(42.409 13.63)" fill="#91562f"/>
      <path id="Trazado_1082526" data-name="Trazado 1082526" d="M237.1,20.657h-6.058l-1.56-6.238a4.728,4.728,0,0,1,4.589-5.878h0a4.731,4.731,0,0,1,4.589,5.878Z" transform="translate(-188.634 -7.025)" fill="#f9b44d"/>
      <path id="Trazado_1082527" data-name="Trazado 1082527" d="M249.417,8.542A4.724,4.724,0,0,0,248,8.784a4.714,4.714,0,0,1,3.168,5.635l-1.558,6.238h2.84l1.56-6.238a4.728,4.728,0,0,0-4.589-5.878Z" transform="translate(-203.979 -7.026)" fill="#fa982f"/>
      <rect id="Rect치ngulo_418736" data-name="Rect치ngulo 418736" width="15.144" height="3.029" transform="translate(37.865 12.116)" fill="#f9b44d"/>
      <g id="Grupo_1210954" data-name="Grupo 1210954" transform="translate(0.635 18.175)">
        <path id="Trazado_1082528" data-name="Trazado 1082528" d="M35.754,139.521,21.1,107.554,6.453,139.521a1.515,1.515,0,0,1-2.008.745h0a1.515,1.515,0,0,1-.745-2.008h0l16.027-34.97a1.515,1.515,0,0,1,2.753,0l16.027,34.97a1.512,1.512,0,0,1-.745,2.007h0a1.513,1.513,0,0,1-2.008-.743Z" transform="translate(-3.562 -102.405)" fill="#f0e4d6"/>
        <path id="Trazado_1082529" data-name="Trazado 1082529" d="M342.948,139.521,328.3,107.554l-14.651,31.967a1.515,1.515,0,0,1-2.008.745h0a1.515,1.515,0,0,1-.745-2.008h0l16.027-34.97a1.515,1.515,0,0,1,2.753,0l16.027,34.97a1.512,1.512,0,0,1-.745,2.007h0a1.513,1.513,0,0,1-2.008-.743Z" transform="translate(-256.236 -102.405)" fill="#f0e4d6"/>
      </g>
      <path id="Trazado_1082530" data-name="Trazado 1082530" d="M315.732,315.736H349.05a9.086,9.086,0,0,1-9.087,9.087H324.819a9.088,9.088,0,0,1-9.087-9.087Z" transform="translate(-259.694 -259.7)" fill="#f9b44d"/>
      <path id="Trazado_1082531" data-name="Trazado 1082531" d="M410.151,315.736a9.086,9.086,0,0,1-9.087,9.087h9.087a9.086,9.086,0,0,0,9.087-9.087Z" transform="translate(-329.881 -259.7)" fill="#fa982f"/>
      <path id="Trazado_1082532" data-name="Trazado 1082532" d="M8.537,315.736H41.855a9.086,9.086,0,0,1-9.087,9.087H17.624a9.088,9.088,0,0,1-9.087-9.087Z" transform="translate(-7.019 -259.7)" fill="#f9b44d"/>
      <path id="Trazado_1082533" data-name="Trazado 1082533" d="M102.956,315.736a9.086,9.086,0,0,1-9.087,9.087h9.087a9.086,9.086,0,0,0,9.087-9.087Z" transform="translate(-77.206 -259.7)" fill="#fa982f"/>
      <path id="Trazado_1082534" data-name="Trazado 1082534" d="M90.733,55.4,75.814,22.853l3.618-1.8-1.354-2.711L74.551,20.1l-.477-1.04a1.515,1.515,0,0,0-2.753,0l-.426.93A19.478,19.478,0,0,0,62.7,18.175H49.981V15.146H53.01V12.117h-2.6L51.5,7.76a6.244,6.244,0,1,0-12.116,0l1.089,4.357h-2.6v3.029h3.029v3.029H28.18a19.468,19.468,0,0,0-8.2,1.817l-.426-.93a1.515,1.515,0,0,0-2.753,0l-.477,1.04L12.8,18.337l-1.354,2.714,3.618,1.808L.142,55.4h0A1.489,1.489,0,0,0,0,56.036a10.613,10.613,0,0,0,10.6,10.6H25.749a10.613,10.613,0,0,0,10.6-10.6,1.477,1.477,0,0,0-.151-.627h0L21.24,22.735A16.5,16.5,0,0,1,28.18,21.2H40.894V76.611l-5.17,5.17H30.293a7.581,7.581,0,0,0-7.572,7.572,1.515,1.515,0,0,0,1.514,1.514h42.4a1.515,1.515,0,0,0,1.514-1.514,7.581,7.581,0,0,0-7.572-7.572H55.151l-5.17-5.17V21.2H62.7a16.5,16.5,0,0,1,6.941,1.531L54.662,55.4h0a1.47,1.47,0,0,0-.138.631,10.613,10.613,0,0,0,10.6,10.6H80.27a10.613,10.613,0,0,0,10.6-10.6,1.477,1.477,0,0,0-.151-.627Zm-64.984,8.2H10.605a7.585,7.585,0,0,1-7.421-6.058H33.17A7.585,7.585,0,0,1,25.749,63.608Zm6.727-9.087H3.878L17.79,24.171a1.5,1.5,0,0,0,.775,0ZM42.9,4.266a3.314,3.314,0,0,1,5.067,0,3.2,3.2,0,0,1,.586,2.759l-1.274,5.092H43.591L42.318,7.026A3.2,3.2,0,0,1,42.9,4.266Zm1.019,13.909V15.146h3.029v3.029H43.923ZM46.952,21.2v54.52H43.923V21.2Zm13.63,63.607a4.552,4.552,0,0,1,4.284,3.029H26.009a4.552,4.552,0,0,1,4.284-3.029Zm-9.714-3.029H40.007l3.029-3.029h4.8ZM72.307,24.175a1.033,1.033,0,0,0,.766-.032L87,54.522H58.4ZM80.27,63.608H65.125A7.585,7.585,0,0,1,57.7,57.551H87.69A7.584,7.584,0,0,1,80.27,63.608Z" transform="translate(0 0)"/>
    </g>
  </g>
</svg>
