<svg xmlns="http://www.w3.org/2000/svg" xmlns:xlink="http://www.w3.org/1999/xlink" width="113" height="113" viewBox="0 0 113 113">
  <defs>
    <filter id="Trazado_982547" x="0" y="0" width="113" height="113" filterUnits="userSpaceOnUse">
      <feOffset dy="3" input="SourceAlpha"/>
      <feGaussianBlur stdDeviation="3" result="blur"/>
      <feFlood flood-opacity="0.161"/>
      <feComposite operator="in" in2="blur"/>
      <feComposite in="SourceGraphic"/>
    </filter>
  </defs>
  <g id="Grupo_1210956" data-name="Grupo 1210956" transform="translate(-325 -4583.534)">
    <g id="Grupo_1209935" data-name="Grupo 1209935" transform="translate(0 -2945.274)">
      <g id="Grupo_1208705" data-name="Grupo 1208705" transform="translate(-1.454 3213.429)">
        <g id="Grupo_1148633" data-name="Grupo 1148633" transform="translate(71.408 600.047)">
          <g id="Grupo_1148525" data-name="Grupo 1148525" transform="translate(264.046 3721.333)">
            <g transform="matrix(1, 0, 0, 1, -9, -6)" filter="url(#Trazado_982547)">
              <g id="Trazado_982547-2" data-name="Trazado 982547" transform="translate(9 6)" fill="#e6d567">
                <path d="M 47.5 93.5 C 41.28937149047852 93.5 35.26533508300781 92.28397369384766 29.59518623352051 89.88570404052734 C 24.11771965026855 87.56893157958984 19.19813346862793 84.25196075439453 14.97309303283691 80.02691650390625 C 10.74804019927979 75.80186462402344 7.431066513061523 70.88229370117188 5.114293098449707 65.40481567382812 C 2.716026782989502 59.73468017578125 1.5 53.71062850952148 1.5 47.5 C 1.5 41.28937149047852 2.716026782989502 35.26533508300781 5.114293098449707 29.59518623352051 C 7.431066513061523 24.11771965026855 10.74804019927979 19.19813346862793 14.97309303283691 14.97309303283691 C 19.19813346862793 10.74804019927979 24.11771965026855 7.431066513061523 29.59518623352051 5.114293098449707 C 35.26533508300781 2.716026782989502 41.28937149047852 1.5 47.5 1.5 C 53.71062850952148 1.5 59.73468017578125 2.716026782989502 65.40481567382812 5.114293098449707 C 70.88229370117188 7.431066513061523 75.80186462402344 10.74804019927979 80.02691650390625 14.97309303283691 C 84.25196075439453 19.19813346862793 87.56893157958984 24.11771965026855 89.88570404052734 29.59518623352051 C 92.28397369384766 35.26533508300781 93.5 41.28937149047852 93.5 47.5 C 93.5 53.71062850952148 92.28397369384766 59.73468017578125 89.88570404052734 65.40481567382812 C 87.56893157958984 70.88229370117188 84.25196075439453 75.80186462402344 80.02691650390625 80.02691650390625 C 75.80186462402344 84.25196075439453 70.88229370117188 87.56893157958984 65.40481567382812 89.88570404052734 C 59.73468017578125 92.28397369384766 53.71062850952148 93.5 47.5 93.5 Z" stroke="none"/>
                <path d="M 47.5 3 C 41.49121475219727 3 35.66376876831055 4.176155090332031 30.17950439453125 6.495796203613281 C 24.88084411621094 8.736953735351562 20.12152099609375 11.94598388671875 16.03375244140625 16.03375244140625 C 11.94598388671875 20.12152099609375 8.736953735351562 24.88084411621094 6.495796203613281 30.17950439453125 C 4.176155090332031 35.66376876831055 3 41.49121475219727 3 47.5 C 3 53.50878524780273 4.176155090332031 59.33623123168945 6.495796203613281 64.82049560546875 C 8.736953735351562 70.11915588378906 11.94598388671875 74.87847900390625 16.03375244140625 78.96624755859375 C 20.12152099609375 83.05401611328125 24.88084411621094 86.26304626464844 30.17950439453125 88.50419616699219 C 35.66376876831055 90.82384490966797 41.49121475219727 92 47.5 92 C 53.50878524780273 92 59.33623123168945 90.82384490966797 64.82049560546875 88.50419616699219 C 70.11915588378906 86.26304626464844 74.87847900390625 83.05401611328125 78.96624755859375 78.96624755859375 C 83.05401611328125 74.87847900390625 86.26304626464844 70.11915588378906 88.50419616699219 64.82049560546875 C 90.82384490966797 59.33623123168945 92 53.50878524780273 92 47.5 C 92 41.49121475219727 90.82384490966797 35.66376876831055 88.50419616699219 30.17950439453125 C 86.26304626464844 24.88084411621094 83.05401611328125 20.12152099609375 78.96624755859375 16.03375244140625 C 74.87847900390625 11.94598388671875 70.11915588378906 8.736953735351562 64.82049560546875 6.495796203613281 C 59.33623123168945 4.176155090332031 53.50878524780273 3 47.5 3 M 47.5 0 C 73.7335205078125 0 95 21.2664794921875 95 47.5 C 95 73.7335205078125 73.7335205078125 95 47.5 95 C 21.2664794921875 95 0 73.7335205078125 0 47.5 C 0 21.2664794921875 21.2664794921875 0 47.5 0 Z" stroke="none" fill="#ba9c5a"/>
              </g>
            </g>
          </g>
        </g>
      </g>
    </g>
    <g id="delincuente" transform="translate(350.013 4602.301)">
      <path id="Trazado_1082535" data-name="Trazado 1082535" d="M8.012,7.977H68.791v67.3H8.012Zm0,0" transform="translate(-6.915 -6.894)" fill="#656d78"/>
      <path id="Trazado_1082536" data-name="Trazado 1082536" d="M150.38,90.99a6.51,6.51,0,0,0-6.512-6.512V80.137H133.015a13.017,13.017,0,0,0-13,12.351v7.163l3.234-3.234a40.831,40.831,0,0,0,11.939,2.171h.022a40.7,40.7,0,0,0,11.917-2.171l3.256,3.256h.022V90.99Zm0,0" transform="translate(-103.72 -69.265)" fill="#965353"/>
      <path id="Trazado_1082537" data-name="Trazado 1082537" d="M275.108,87.734a3.26,3.26,0,0,1,3.256,3.256,3.027,3.027,0,0,0,.022.375v5.073l3.234,3.234h.022V90.99h-.022a6.51,6.51,0,0,0-6.512-6.512V80.137h-3.256v4.341a3.258,3.258,0,0,0,3.256,3.256Zm0,0" transform="translate(-234.96 -69.265)" fill="#844747"/>
      <path id="Trazado_1082538" data-name="Trazado 1082538" d="M150.38,203.393l-3.256-3.256a40.7,40.7,0,0,1-11.917,2.171h-.022a40.831,40.831,0,0,1-11.939-2.171l-3.234,3.234V208.5a15.19,15.19,0,0,0,15.173,14.413h.022a15.193,15.193,0,0,0,15.174-15.195h.021v-4.33Zm0,0" transform="translate(-103.72 -172.985)" fill="#eac6bb"/>
      <path id="Trazado_1082539" data-name="Trazado 1082539" d="M236.709,203.525l-3.236-3.235v7.567h-.022a15.171,15.171,0,0,1-7.664,13.2,15,15,0,0,1-5.9,1.9,15.317,15.317,0,0,0,1.622.093h.022a15.193,15.193,0,0,0,15.174-15.195h.022v-4.33h-.022Zm0,0" transform="translate(-190.049 -173.117)" fill="#d3b1a9"/>
      <path id="Trazado_1082540" data-name="Trazado 1082540" d="M190.981,353.336a15.039,15.039,0,0,1-7.51,2h-.022a15.085,15.085,0,0,1-7.531-2l-.066.119v5.133l7.609,7.6.011-.011,7.576-7.587v-5.133Zm0,0" transform="translate(-151.984 -305.4)" fill="#eac6bb"/>
      <path id="Trazado_1082541" data-name="Trazado 1082541" d="M101.86,392.123a7.349,7.349,0,0,0-1.107-.076H94.241l-7.576,7.587v.011h-.011l-7.608-7.6H72.535a8.69,8.69,0,0,0-8.683,8.683v6.512h45.584v-6.512A8.67,8.67,0,0,0,101.86,392.123Zm0,0" transform="translate(-55.179 -338.859)" fill="#fc6e51"/>
      <path id="Trazado_1082542" data-name="Trazado 1082542" d="M316.2,392.123a7.348,7.348,0,0,0-1.107-.076h-3.258a7.5,7.5,0,0,1,1.107.076,8.667,8.667,0,0,1,7.576,8.606v6.512h3.258v-6.512A8.67,8.67,0,0,0,316.2,392.123Zm0,0" transform="translate(-269.52 -338.859)" fill="#e9573f"/>
      <path id="Trazado_1082543" data-name="Trazado 1082543" d="M56.984,394.895A1.084,1.084,0,0,1,55.9,393.81a9.781,9.781,0,0,1,9.77-9.77,1.085,1.085,0,0,1,0,2.171,7.608,7.608,0,0,0-7.6,7.6A1.084,1.084,0,0,1,56.984,394.895Zm0,0" transform="translate(-48.305 -331.938)"/>
      <path id="Trazado_1082544" data-name="Trazado 1082544" d="M337.651,394.908a1.084,1.084,0,0,1-1.085-1.085,7.607,7.607,0,0,0-7.6-7.6,1.085,1.085,0,1,1,0-2.171,9.778,9.778,0,0,1,9.768,9.768A1.084,1.084,0,0,1,337.651,394.908Zm0,0" transform="translate(-283.39 -331.951)"/>
      <path id="Trazado_1082545" data-name="Trazado 1082545" d="M127.509,386.21H121a1.085,1.085,0,1,1,0-2.171h6.509a1.085,1.085,0,0,1,0,2.171Zm0,0" transform="translate(-103.636 -331.937)"/>
      <path id="Trazado_1082546" data-name="Trazado 1082546" d="M56.985,456.733a1.085,1.085,0,0,1-1.085-1.085v-6.508a1.085,1.085,0,0,1,2.171,0v6.508A1.085,1.085,0,0,1,56.985,456.733Zm0,0" transform="translate(-48.305 -387.268)"/>
      <path id="Trazado_1082547" data-name="Trazado 1082547" d="M392.968,456.733a1.084,1.084,0,0,1-1.085-1.085v-6.508a1.085,1.085,0,0,1,2.171,0v6.508A1.084,1.084,0,0,1,392.968,456.733Zm0,0" transform="translate(-338.707 -387.268)"/>
      <path id="Trazado_1082548" data-name="Trazado 1082548" d="M168.976,353.51a1.084,1.084,0,0,1-1.085-1.085v-5.133a1.085,1.085,0,1,1,2.171,0v5.133A1.084,1.084,0,0,1,168.976,353.51Zm0,0" transform="translate(-145.104 -299.238)"/>
      <path id="Trazado_1082549" data-name="Trazado 1082549" d="M280.976,353.513a1.084,1.084,0,0,1-1.085-1.085v-5.135a1.085,1.085,0,0,1,2.171,0v5.135A1.084,1.084,0,0,1,280.976,353.513Zm0,0" transform="translate(-241.909 -299.238)"/>
      <path id="Trazado_1082550" data-name="Trazado 1082550" d="M128.171,265.406a16.3,16.3,0,0,1-16.28-16.281,1.085,1.085,0,1,1,2.171,0,14.109,14.109,0,1,0,28.219,0,1.085,1.085,0,1,1,2.171,0A16.3,16.3,0,0,1,128.171,265.406Zm0,0" transform="translate(-96.701 -214.388)"/>
      <path id="Trazado_1082551" data-name="Trazado 1082551" d="M287.487,386.226h-6.511a1.085,1.085,0,1,1,0-2.171h6.511a1.085,1.085,0,1,1,0,2.171Zm0,0" transform="translate(-241.909 -331.951)"/>
      <path id="Trazado_1082552" data-name="Trazado 1082552" d="M176.594,393.812a1.083,1.083,0,0,1-.766-.317l-7.618-7.6a1.085,1.085,0,1,1,1.533-1.537l7.618,7.6a1.085,1.085,0,0,1-.766,1.854Zm0,0" transform="translate(-145.103 -331.942)"/>
      <path id="Trazado_1082553" data-name="Trazado 1082553" d="M225.078,393.822a1.085,1.085,0,0,1-.768-1.853l7.583-7.6a1.086,1.086,0,1,1,1.537,1.535l-7.583,7.6A1.083,1.083,0,0,1,225.078,393.822Zm0,0" transform="translate(-193.594 -331.953)"/>
      <path id="Trazado_1082554" data-name="Trazado 1082554" d="M449.1,69.465a1.084,1.084,0,0,1-1.085-1.085V1.085a1.085,1.085,0,1,1,2.171,0V68.379A1.084,1.084,0,0,1,449.1,69.465Zm0,0" transform="translate(-387.221)"/>
      <path id="Trazado_1082555" data-name="Trazado 1082555" d="M337.1,69.465a1.084,1.084,0,0,1-1.085-1.085V1.085a1.085,1.085,0,0,1,2.171,0V68.379A1.084,1.084,0,0,1,337.1,69.465Zm0,0" transform="translate(-290.416)"/>
      <path id="Trazado_1082556" data-name="Trazado 1082556" d="M225.1,69.465a1.084,1.084,0,0,1-1.085-1.085V1.085a1.085,1.085,0,0,1,2.171,0V68.379A1.084,1.084,0,0,1,225.1,69.465Zm0,0" transform="translate(-193.611)"/>
      <path id="Trazado_1082557" data-name="Trazado 1082557" d="M113.1,69.465a1.084,1.084,0,0,1-1.085-1.085V1.085a1.085,1.085,0,1,1,2.171,0V68.379A1.084,1.084,0,0,1,113.1,69.465Zm0,0" transform="translate(-96.805)"/>
      <path id="Trazado_1082558" data-name="Trazado 1082558" d="M1.1,69.465A1.084,1.084,0,0,1,.012,68.379V1.085a1.085,1.085,0,0,1,2.171,0V68.379A1.084,1.084,0,0,1,1.1,69.465Zm0,0" transform="translate(0)"/>
      <path id="Trazado_1082559" data-name="Trazado 1082559" d="M295.5,112.835a1.085,1.085,0,0,1-1.085-1.085,5.433,5.433,0,0,0-5.427-5.427,1.085,1.085,0,1,1,0-2.171,7.606,7.606,0,0,1,7.6,7.6A1.085,1.085,0,0,1,295.5,112.835Zm0,0" transform="translate(-248.836 -90.022)"/>
      <path id="Trazado_1082560" data-name="Trazado 1082560" d="M288.991,78.664a1.085,1.085,0,0,1-1.085-1.085V73.237a1.085,1.085,0,0,1,2.171,0v4.341A1.085,1.085,0,0,1,288.991,78.664Zm0,0" transform="translate(-248.836 -62.363)"/>
      <path id="Trazado_1082561" data-name="Trazado 1082561" d="M219.831,74.323H208.976a1.085,1.085,0,1,1,0-2.171h10.856a1.085,1.085,0,0,1,0,2.171Zm0,0" transform="translate(-179.676 -62.364)"/>
      <path id="Trazado_1082562" data-name="Trazado 1082562" d="M112.96,87.347a1.085,1.085,0,0,1-1.085-1.085,14.127,14.127,0,0,1,14.112-14.109,1.085,1.085,0,0,1,0,2.171,11.954,11.954,0,0,0-11.941,11.939,1.085,1.085,0,0,1-1.085,1.085Zm0,0" transform="translate(-96.687 -62.363)"/>
      <path id="Trazado_1082563" data-name="Trazado 1082563" d="M316.248,197.584a1.082,1.082,0,0,1-.767-.318l-3.256-3.256a1.085,1.085,0,0,1,1.534-1.535l3.256,3.256a1.085,1.085,0,0,1-.767,1.853Zm0,0" transform="translate(-269.581 -166.088)"/>
      <path id="Trazado_1082564" data-name="Trazado 1082564" d="M148.911,196.491a41.539,41.539,0,0,1-12.307-2.235,1.085,1.085,0,1,1,.733-2.043,40.012,40.012,0,0,0,11.573,2.107,40.063,40.063,0,0,0,11.573-2.107,1.085,1.085,0,1,1,.733,2.043,41.518,41.518,0,0,1-12.3,2.235Zm0,0" transform="translate(-117.439 -166.08)"/>
      <path id="Trazado_1082565" data-name="Trazado 1082565" d="M112.96,197.582a1.086,1.086,0,0,1-.767-1.854l3.258-3.256a1.086,1.086,0,0,1,1.535,1.536l-3.258,3.256A1.082,1.082,0,0,1,112.96,197.582Zm0,0" transform="translate(-96.687 -166.086)"/>
    </g>
  </g>
</svg>
