<svg xmlns="http://www.w3.org/2000/svg" xmlns:xlink="http://www.w3.org/1999/xlink" width="113" height="113" viewBox="0 0 113 113">
  <defs>
    <filter id="Trazado_982547" x="0" y="0" width="113" height="113" filterUnits="userSpaceOnUse">
      <feOffset dy="3" input="SourceAlpha"/>
      <feGaussianBlur stdDeviation="3" result="blur"/>
      <feFlood flood-opacity="0.161"/>
      <feComposite operator="in" in2="blur"/>
      <feComposite in="SourceGraphic"/>
    </filter>
  </defs>
  <g id="Grupo_1210959" data-name="Grupo 1210959" transform="translate(-742.046 -4583.534)">
    <g id="Grupo_1209936" data-name="Grupo 1209936" transform="translate(0 -2945.274)">
      <g id="Grupo_1208706" data-name="Grupo 1208706" transform="translate(-1.454 3213.429)">
        <g id="Grupo_1148634" data-name="Grupo 1148634" transform="translate(488.454 600.047)">
          <g id="Grupo_1148525" data-name="Grupo 1148525" transform="translate(264.046 3721.333)">
            <g transform="matrix(1, 0, 0, 1, -9, -6)" filter="url(#Trazado_982547)">
              <g id="Trazado_982547-2" data-name="Trazado 982547" transform="translate(9 6)" fill="#e6d567">
                <path d="M 47.5 93.5 C 41.28937149047852 93.5 35.26533508300781 92.28397369384766 29.59518623352051 89.88570404052734 C 24.11771965026855 87.56893157958984 19.19813346862793 84.25196075439453 14.97309303283691 80.02691650390625 C 10.74804019927979 75.80186462402344 7.431066513061523 70.88229370117188 5.114293098449707 65.40481567382812 C 2.716026782989502 59.73468017578125 1.5 53.71062850952148 1.5 47.5 C 1.5 41.28937149047852 2.716026782989502 35.26533508300781 5.114293098449707 29.59518623352051 C 7.431066513061523 24.11771965026855 10.74804019927979 19.19813346862793 14.97309303283691 14.97309303283691 C 19.19813346862793 10.74804019927979 24.11771965026855 7.431066513061523 29.59518623352051 5.114293098449707 C 35.26533508300781 2.716026782989502 41.28937149047852 1.5 47.5 1.5 C 53.71062850952148 1.5 59.73468017578125 2.716026782989502 65.40481567382812 5.114293098449707 C 70.88229370117188 7.431066513061523 75.80186462402344 10.74804019927979 80.02691650390625 14.97309303283691 C 84.25196075439453 19.19813346862793 87.56893157958984 24.11771965026855 89.88570404052734 29.59518623352051 C 92.28397369384766 35.26533508300781 93.5 41.28937149047852 93.5 47.5 C 93.5 53.71062850952148 92.28397369384766 59.73468017578125 89.88570404052734 65.40481567382812 C 87.56893157958984 70.88229370117188 84.25196075439453 75.80186462402344 80.02691650390625 80.02691650390625 C 75.80186462402344 84.25196075439453 70.88229370117188 87.56893157958984 65.40481567382812 89.88570404052734 C 59.73468017578125 92.28397369384766 53.71062850952148 93.5 47.5 93.5 Z" stroke="none"/>
                <path d="M 47.5 3 C 41.49121475219727 3 35.66376876831055 4.176155090332031 30.17950439453125 6.495796203613281 C 24.88084411621094 8.736953735351562 20.12152099609375 11.94598388671875 16.03375244140625 16.03375244140625 C 11.94598388671875 20.12152099609375 8.736953735351562 24.88084411621094 6.495796203613281 30.17950439453125 C 4.176155090332031 35.66376876831055 3 41.49121475219727 3 47.5 C 3 53.50878524780273 4.176155090332031 59.33623123168945 6.495796203613281 64.82049560546875 C 8.736953735351562 70.11915588378906 11.94598388671875 74.87847900390625 16.03375244140625 78.96624755859375 C 20.12152099609375 83.05401611328125 24.88084411621094 86.26304626464844 30.17950439453125 88.50419616699219 C 35.66376876831055 90.82384490966797 41.49121475219727 92 47.5 92 C 53.50878524780273 92 59.33623123168945 90.82384490966797 64.82049560546875 88.50419616699219 C 70.11915588378906 86.26304626464844 74.87847900390625 83.05401611328125 78.96624755859375 78.96624755859375 C 83.05401611328125 74.87847900390625 86.26304626464844 70.11915588378906 88.50419616699219 64.82049560546875 C 90.82384490966797 59.33623123168945 92 53.50878524780273 92 47.5 C 92 41.49121475219727 90.82384490966797 35.66376876831055 88.50419616699219 30.17950439453125 C 86.26304626464844 24.88084411621094 83.05401611328125 20.12152099609375 78.96624755859375 16.03375244140625 C 74.87847900390625 11.94598388671875 70.11915588378906 8.736953735351562 64.82049560546875 6.495796203613281 C 59.33623123168945 4.176155090332031 53.50878524780273 3 47.5 3 M 47.5 0 C 73.7335205078125 0 95 21.2664794921875 95 47.5 C 95 73.7335205078125 73.7335205078125 95 47.5 95 C 21.2664794921875 95 0 73.7335205078125 0 47.5 C 0 21.2664794921875 21.2664794921875 0 47.5 0 Z" stroke="none" fill="#ba9c5a"/>
              </g>
            </g>
          </g>
        </g>
      </g>
    </g>
    <g id="decision" transform="translate(740.298 4603.929)">
      <g id="Grupo_1210957" data-name="Grupo 1210957" transform="translate(23.415 0.974)">
        <path id="Trazado_1082566" data-name="Trazado 1082566" d="M217.335,7.5H182.008a1.954,1.954,0,0,0-1.948,1.948V56.464l37.924,1.3,1.3-48.314A1.954,1.954,0,0,0,217.335,7.5Z" transform="translate(-160.563 -7.5)" fill="#e1dee2"/>
        <path id="Trazado_1082567" data-name="Trazado 1082567" d="M216.685,24.448V26.4H180.06V72.113h37.275a1.954,1.954,0,0,0,1.948-1.948V22.5h-.649A1.954,1.954,0,0,0,216.685,24.448Z" transform="translate(-160.563 -20.552)" fill="#c5bec6"/>
        <path id="Trazado_1082568" data-name="Trazado 1082568" d="M187.335,37.5H152.008a1.954,1.954,0,0,0-1.948,1.948V86.464l37.924,1.3,1.3-48.314A1.954,1.954,0,0,0,187.335,37.5Z" transform="translate(-134.459 -33.604)" fill="#faf8f8"/>
        <path id="Trazado_1082569" data-name="Trazado 1082569" d="M186.685,54.448V98.541a.974.974,0,0,1-.974.974H150.06v.649a1.954,1.954,0,0,0,1.948,1.948h35.327a1.954,1.954,0,0,0,1.948-1.948V52.5h-.649A1.954,1.954,0,0,0,186.685,54.448Z" transform="translate(-134.459 -46.656)" fill="#e1dee2"/>
        <path id="Trazado_1082570" data-name="Trazado 1082570" d="M65.085,462.3a6.236,6.236,0,0,0-.85-.057H42.387a5.446,5.446,0,0,0-4.891,2.89l30.013,1.3a6.433,6.433,0,0,0-2.424-4.132Z" transform="translate(-36.515 -403.186)" fill="#d09180"/>
        <path id="Trazado_1082571" data-name="Trazado 1082571" d="M63.532,468.118s-.79-4.85-5.021-5.431a8.212,8.212,0,0,1,.753,1.525.973.973,0,0,1-.915,1.308H30.921a8.424,8.424,0,0,0-.981,2.6Z" transform="translate(-29.94 -403.569)" fill="#b46e5a"/>
        <path id="Trazado_1082572" data-name="Trazado 1082572" d="M298.309,422.576c.327-.566.8-2.7-.306-3.29-3.012-1.542-10.437-5.162-10.437-5.162l-1.948.92V417.5s6.848,4.62,9.689,6.458C296.37,424.625,297.982,423.142,298.309,422.576Z" transform="translate(-252.411 -361.313)" fill="#d09180"/>
        <path id="Trazado_1082573" data-name="Trazado 1082573" d="M364.026,454.454c-.195-.112-.586-.318-1.11-.586a4.878,4.878,0,0,1-2.7,4.671c.494.32.868.556,1.063.668a2.744,2.744,0,1,0,2.744-4.752Z" transform="translate(-317.323 -395.895)" fill="#b46e5a"/>
        <path id="Trazado_1082574" data-name="Trazado 1082574" d="M236.284,384.516l-7.655-4.419-1.948.983v2.391l7.655,4.419Z" transform="translate(-201.129 -331.705)" fill="#b46e5a"/>
        <path id="Trazado_1082575" data-name="Trazado 1082575" d="M0,0H3.9V4.308H0Z" transform="matrix(0.5, -0.866, 0.866, 0.5, 21.82, 49.612)" fill="#a65d4e"/>
        <path id="Trazado_1082576" data-name="Trazado 1082576" d="M168.853,345.6s2.744,1.516,1.841,3.08l-1.948,3.374c-.9,1.563-3.587-.055-3.587-.055l-2.271-5.577Z" transform="translate(-145.62 -301.685)" fill="#d09180"/>
        <path id="Trazado_1082577" data-name="Trazado 1082577" d="M103.262,278.375l-1.6-3.478-7.893.723c-.977,1.692-.977,4.433-1.954,6.125s-3.351,3.063-4.328,4.755l3.32,7.2,3.814-.349Z" transform="translate(-80.009 -240.168)" fill="#d09180"/>
        <path id="Trazado_1082578" data-name="Trazado 1082578" d="M151.061,301.676c-1.423,2.307-4.644,4.2-5.986,6.526s-1.372,6.062-2.659,8.447l4.079-.374c.977-1.692.977-4.433,1.954-6.125s3.351-3.063,4.328-4.755Z" transform="translate(-127.808 -263.469)" fill="#b46e5a"/>
        <path id="Trazado_1082579" data-name="Trazado 1082579" d="M67.764,398.195c1.77,0,5.256-2.311,5.256-2.311l-13.4-5.764a5.506,5.506,0,0,0-.236,2.849c.261.975,1.572,2.241,3.236,3.4A11.834,11.834,0,0,0,67.764,398.195Z" transform="translate(-55.471 -340.426)" fill="#d09180"/>
        <path id="Trazado_1082580" data-name="Trazado 1082580" d="M89.546,435.816c-.975.261-2.727-.241-4.561-1.1,2.707,1.883,6.35,3.476,7.935,3.051a5.528,5.528,0,0,0,2.352-1.627v-1.948H91.9A5.526,5.526,0,0,1,89.546,435.816Z" transform="translate(-77.836 -378.772)" fill="#b46e5a"/>
        <path id="Trazado_1082581" data-name="Trazado 1082581" d="M65.21,362.966a1.347,1.347,0,0,0-1.874.5l-.915,1.584a6.642,6.642,0,0,0-.536,1.275l9.914,5.724,4-1.386c.379-.656-.813-2.054-2.619-3.1Z" transform="translate(-57.737 -316.634)" fill="#ebae9d"/>
        <path id="Trazado_1082582" data-name="Trazado 1082582" d="M139.6,399.676a1.25,1.25,0,0,1,.37,1.8l-.915,1.584a6.606,6.606,0,0,1-.838,1.1l3.374,1.948a6.6,6.6,0,0,0,.838-1.1l.915-1.584a1.372,1.372,0,0,0-.5-1.874Z" transform="translate(-124.154 -348.741)" fill="#d09180"/>
        <path id="Trazado_1082583" data-name="Trazado 1082583" d="M156.529,237c.885,1.533.627,5.707.627,5.707l-11.692-8.723a5.507,5.507,0,0,1,2.349-1.629c.975-.261,2.727.241,4.561,1.1A11.832,11.832,0,0,1,156.529,237Z" transform="translate(-130.46 -203.092)" fill="#d09180"/>
        <path id="Trazado_1082584" data-name="Trazado 1082584" d="M201.9,244.713c-.261-.975-1.572-2.241-3.236-3.4,2.984,1.4,6.186,3.761,6.61,5.347a5.525,5.525,0,0,1-.233,2.85l-1.687.974-1.687-2.922A5.527,5.527,0,0,0,201.9,244.713Z" transform="translate(-176.754 -210.947)" fill="#b46e5a"/>
        <path id="Trazado_1082585" data-name="Trazado 1082585" d="M131.17,249.918a1.347,1.347,0,0,1-.5-1.874l.915-1.584a6.654,6.654,0,0,1,.836-1.1l9.914,5.724.8,4.159c-.379.656-2.185.323-3.991-.72Z" transform="translate(-117.415 -214.466)" fill="#ebae9d"/>
        <path id="Trazado_1082586" data-name="Trazado 1082586" d="M197.227,292.866a1.25,1.25,0,0,0,1.742-.579l.915-1.584a6.6,6.6,0,0,0,.534-1.276l3.374,1.948a6.608,6.608,0,0,1-.534,1.276l-.915,1.584a1.372,1.372,0,0,1-1.874.5Z" transform="translate(-175.5 -252.811)" fill="#d09180"/>
      </g>
      <g id="Grupo_1210958" data-name="Grupo 1210958" transform="translate(22.441)">
        <path id="Trazado_1082587" data-name="Trazado 1082587" d="M404.217,85.5a.974.974,0,0,0-.974.974v37.859a.975.975,0,0,1-.974.974h-.974v-5.351a.974.974,0,0,0-1.948,0v8.923a.975.975,0,0,1-.974.974h-4.8a.974.974,0,0,0,0,1.948h4.8a2.926,2.926,0,0,0,2.922-2.922v-1.623h.974a2.926,2.926,0,0,0,2.922-2.922V86.472A.974.974,0,0,0,404.217,85.5Z" transform="translate(-344.523 -74.394)"/>
        <path id="Trazado_1082588" data-name="Trazado 1082588" d="M184.705,0H149.379a2.926,2.926,0,0,0-2.922,2.922V3.9h-.974a2.926,2.926,0,0,0-2.922,2.922v9.966a.974.974,0,1,0,1.948,0V6.819a.975.975,0,0,1,.974-.974h35.327a.975.975,0,0,1,.974.974V41.665a.974.974,0,1,0,1.948,0V6.819A2.926,2.926,0,0,0,180.809,3.9H148.4V2.922a.975.975,0,0,1,.974-.974h35.327a.975.975,0,0,1,.974.974v5.26a.974.974,0,1,0,1.948,0V2.922A2.926,2.926,0,0,0,184.705,0Z" transform="translate(-126.959)"/>
        <path id="Trazado_1082589" data-name="Trazado 1082589" d="M193.214,172.248h22.671a.974.974,0,0,0,0-1.948H193.214a.974.974,0,0,0,0,1.948Z" transform="translate(-170.187 -148.182)"/>
        <path id="Trazado_1082590" data-name="Trazado 1082590" d="M193.214,132.248h18.775a.974.974,0,1,0,0-1.948H193.214a.974.974,0,0,0,0,1.948Z" transform="translate(-170.187 -113.377)"/>
        <path id="Trazado_1082591" data-name="Trazado 1082591" d="M193.214,92.248h26.277a.974.974,0,1,0,0-1.948H193.214a.974.974,0,0,0,0,1.948Z" transform="translate(-170.187 -78.572)"/>
        <path id="Trazado_1082592" data-name="Trazado 1082592" d="M70.6,190.718c-1.228-.709-9.768-4.882-11.364-5.661H63.39a.974.974,0,1,0,0-1.948H55.833l-5.624-3.247H71.745a.974.974,0,1,0,0-1.948H49.192a5.108,5.108,0,0,0-1.025-1.125,9.155,9.155,0,0,0,.62-.72,2.345,2.345,0,0,0,2.315-1.155l.142-.247h20.5a.974.974,0,1,0,0-1.948H52.317a8.3,8.3,0,0,0,.693-3.247H71.745a.974.974,0,1,0,0-1.948h-19.3a12.846,12.846,0,0,0-3.547-3.247H71.745a.974.974,0,1,0,0-1.948H45.39c-1.564-.7-3.537-1.361-4.874-1a3.9,3.9,0,0,0-.526.184v-8.8a.974.974,0,0,0-1.948,0v10.17a8.164,8.164,0,0,0-1.3,1.63l-.909,1.575a2.276,2.276,0,0,0-.261,1.751,2.346,2.346,0,0,0,.412.846,15.9,15.9,0,0,0-.739,2.627,10.343,10.343,0,0,1-.869,2.785.974.974,0,1,0,1.687.974,11.811,11.811,0,0,0,1.085-3.34,19.212,19.212,0,0,1,.48-1.885l9.331,5.387a19.21,19.21,0,0,1-1.393,1.358,11.806,11.806,0,0,0-2.35,2.609,11.811,11.811,0,0,0-1.085,3.34,19.212,19.212,0,0,1-.48,1.885l-9.33-5.387c.275-.311.587-.614.9-.906a.974.974,0,0,0-1.329-1.424,12.508,12.508,0,0,0-1.4,1.487,2.342,2.342,0,0,0-.938.066,2.276,2.276,0,0,0-1.386,1.1l-.909,1.575a7.407,7.407,0,0,0-.869,4.863c.574,2.143,4.23,4.395,5.337,5.034.123.071.279.159.461.259h-2.9c-4.593,0-6.478,4.125-6.833,6.305a.974.974,0,0,0,.961,1.131H57.006a.974.974,0,0,0,.961-1.131c-.355-2.181-2.24-6.305-6.833-6.305H41.51a7.594,7.594,0,0,0,1.023-1.335l.915-1.584a2.347,2.347,0,0,0-.157-2.584,9.183,9.183,0,0,0,.314-.895,4.916,4.916,0,0,0,1.65.329,2.821,2.821,0,0,0,.706-.085,2.307,2.307,0,0,0,.75-.345l5.014,2.9H46.54a.974.974,0,1,0,0,1.948H55.1l1.006.581c.675.455,9.478,6.391,10.781,7.143a3.718,3.718,0,0,0,3.718-6.44Zm-14.339-2.861L47.87,183.01l.974-1.687,8.394,4.847ZM41.02,163.207a1.391,1.391,0,0,1,.355-.039,12.715,12.715,0,0,1,5.195,1.949c2.638,1.523,4.225,3.09,4.429,3.851a3.05,3.05,0,0,1,.042,1.089l-10.983-6.341a3.035,3.035,0,0,1,.962-.509ZM37.5,167.089l.013-.021.915-1.584c.06-.1.134-.216.218-.333L50.508,172a3.934,3.934,0,0,1-.179.356l-.915,1.584a.4.4,0,0,1-.544.146l-11.214-6.474a.422.422,0,0,1-.2-.257A.335.335,0,0,1,37.5,167.089Zm-4.8,22.054c-2.639-1.523-4.225-3.09-4.429-3.851a3.032,3.032,0,0,1-.04-1.088l10.983,6.341a3.049,3.049,0,0,1-.964.508,1.214,1.214,0,0,1-.248.036h-.216A13.281,13.281,0,0,1,32.7,189.143Zm23.028,7.434H24.7a7.28,7.28,0,0,1,.61-1.259,4.443,4.443,0,0,1,3.974-2.281H51.135a4.878,4.878,0,0,1,4.592,3.54ZM41.76,187.2l-.915,1.584a3.974,3.974,0,0,1-.219.333l-11.864-6.849c.059-.131.119-.252.179-.356l.915-1.584.012-.022a.335.335,0,0,1,.209-.169.388.388,0,0,1,.1-.014.437.437,0,0,1,.217.059l11.214,6.474a.4.4,0,0,1,.146.543Zm2.308-4.415a9.649,9.649,0,0,1,.83-2.61,9.641,9.641,0,0,1,1.845-2.024,2.649,2.649,0,0,1,.936,1.084.316.316,0,0,1-.035.276L45.7,182.88a.316.316,0,0,1-.221.169A2.648,2.648,0,0,1,44.069,182.781Zm26.209,12.042a1.772,1.772,0,0,1-2.418.648c-.941-.544-6.538-4.29-9.941-6.583l1.04-1.8c3.687,1.8,9.73,4.774,10.671,5.318a1.772,1.772,0,0,1,.648,2.418Z" transform="translate(-22.441 -132.028)"/>
      </g>
    </g>
  </g>
</svg>
