<svg xmlns="http://www.w3.org/2000/svg" xmlns:xlink="http://www.w3.org/1999/xlink" width="110" height="110" viewBox="0 0 110 110">
  <defs>
    <filter id="Trazado_982547" x="0" y="0" width="110" height="110" filterUnits="userSpaceOnUse">
      <feOffset dy="3" input="SourceAlpha"/>
      <feGaussianBlur stdDeviation="3" result="blur"/>
      <feFlood flood-opacity="0.161"/>
      <feComposite operator="in" in2="blur"/>
      <feComposite in="SourceGraphic"/>
    </filter>
  </defs>
  <g id="Grupo_1211001" data-name="Grupo 1211001" transform="translate(-692 -6074.28)">
    <g id="Grupo_1200151" data-name="Grupo 1200151" transform="translate(701 6080.28)">
      <g id="Grupo_1185952" data-name="Grupo 1185952" transform="translate(0 0)">
        <g id="Grupo_1184115" data-name="Grupo 1184115">
          <g id="Grupo_1183744" data-name="Grupo 1183744" transform="translate(0 0)">
            <g id="Grupo_1181546" data-name="Grupo 1181546">
              <g id="Grupo_1177563" data-name="Grupo 1177563">
                <g id="Grupo_1173148" data-name="Grupo 1173148" transform="translate(0 0)">
                  <g id="Grupo_1163803" data-name="Grupo 1163803" transform="translate(0 0)">
                    <g id="Grupo_1163015" data-name="Grupo 1163015" transform="translate(0 0)">
                      <g id="Grupo_1157017" data-name="Grupo 1157017" transform="translate(0 0)">
                        <g id="Grupo_1155793" data-name="Grupo 1155793" transform="translate(0 0)">
                          <g id="Grupo_1154704" data-name="Grupo 1154704" transform="translate(0 0)">
                            <g id="Grupo_1150790" data-name="Grupo 1150790">
                              <g id="Grupo_1154214" data-name="Grupo 1154214">
                                <g id="Grupo_1152583" data-name="Grupo 1152583">
                                  <g id="Grupo_1146973" data-name="Grupo 1146973">
                                    <g id="Grupo_1146954" data-name="Grupo 1146954">
                                      <g transform="matrix(1, 0, 0, 1, -9, -6)" filter="url(#Trazado_982547)">
                                        <g id="Trazado_982547-2" data-name="Trazado 982547" transform="translate(9 6)" fill="#f2d944">
                                          <path d="M 46.00000762939453 90.49988555908203 C 39.99188613891602 90.49988555908203 34.16427612304688 89.32352447509766 28.67906188964844 87.00347137451172 C 23.38020706176758 84.76226043701172 18.62104797363281 81.55342864990234 14.53375434875488 77.46615600585938 C 10.44647407531738 73.37887573242188 7.237647533416748 68.61971282958984 4.996420860290527 63.32085800170898 C 2.676367521286011 57.83565902709961 1.500007629394531 52.00806045532227 1.500007629394531 45.99993896484375 C 1.500007629394531 39.99181747436523 2.676367521286011 34.16421890258789 4.996420860290527 28.67901802062988 C 7.237647533416748 23.38017845153809 10.44647407531738 18.62101936340332 14.53375434875488 14.53373908996582 C 18.62104797363281 10.44645881652832 23.38020706176758 7.237632274627686 28.67906188964844 4.996418952941895 C 34.16427612304688 2.676365613937378 39.99188613891602 1.500005602836609 46.00000762939453 1.500005602836609 C 52.00812911987305 1.500005602836609 57.83573913574219 2.676365613937378 63.32095336914062 4.996418952941895 C 68.61980438232422 7.237632274627686 73.37896728515625 10.44645881652832 77.46626281738281 14.53373908996582 C 81.55354309082031 18.62101936340332 84.76236724853516 23.38017845153809 87.00359344482422 28.67901802062988 C 89.32364654541016 34.16421890258789 90.50000762939453 39.99181747436523 90.50000762939453 45.99993896484375 C 90.50000762939453 52.00806045532227 89.32364654541016 57.83565902709961 87.00359344482422 63.32085800170898 C 84.76236724853516 68.61971282958984 81.55354309082031 73.37887573242188 77.46626281738281 77.46615600585938 C 73.37896728515625 81.55342864990234 68.61980438232422 84.76226043701172 63.32095336914062 87.00347137451172 C 57.83573913574219 89.32352447509766 52.00812911987305 90.49988555908203 46.00000762939453 90.49988555908203 Z" stroke="none"/>
                                          <path d="M 46.00000762939453 2.999992370605469 C 40.19372177124023 2.999992370605469 34.56270599365234 4.136497497558594 29.26339340209961 6.377906799316406 C 24.14333343505859 8.543510437011719 19.54441833496094 11.64437866210938 15.59440612792969 15.59439849853516 C 11.6444091796875 19.54439544677734 8.543525695800781 24.14329528808594 6.377922058105469 29.26335144042969 C 4.136505126953125 34.56266784667969 3.000007629394531 40.19366836547852 3.000007629394531 45.99993896484375 C 3.000007629394531 51.80620956420898 4.136505126953125 57.43722534179688 6.377922058105469 62.73654174804688 C 8.543525695800781 67.85658264160156 11.6444091796875 72.45548248291016 15.59440612792969 76.40549468994141 C 19.54441833496094 80.35549926757812 24.14333343505859 83.45636749267578 29.26337814331055 85.62196350097656 C 34.56270599365234 87.86338043212891 40.19372177124023 88.9998779296875 46.00000762939453 88.9998779296875 C 51.80629348754883 88.9998779296875 57.43730926513672 87.86338043212891 62.73662185668945 85.62196350097656 C 67.85668182373047 83.45636749267578 72.45558166503906 80.35549926757812 76.40559387207031 76.40549468994141 C 80.35560607910156 72.45548248291016 83.45648193359375 67.85658264160156 85.62207794189453 62.73654174804688 C 87.86351013183594 57.43722534179688 89.00000762939453 51.80620956420898 89.00000762939453 45.99993896484375 C 89.00000762939453 40.19366836547852 87.86351013183594 34.56266784667969 85.62207794189453 29.26335144042969 C 83.45648193359375 24.14329528808594 80.35560607910156 19.54439544677734 76.40559387207031 15.59439849853516 C 72.45558166503906 11.64437866210938 67.85668182373047 8.543510437011719 62.73662185668945 6.377906799316406 C 57.43729400634766 4.136497497558594 51.80629348754883 2.999992370605469 46.00000762939453 2.999992370605469 M 46.00000762939453 -7.62939453125e-06 C 71.40509033203125 -7.62939453125e-06 92.00000762939453 20.59487915039062 92.00000762939453 45.99993896484375 C 92.00000762939453 71.40501403808594 71.40509033203125 91.99988555908203 46.00000762939453 91.99988555908203 C 20.59490966796875 91.99988555908203 7.62939453125e-06 71.40501403808594 7.62939453125e-06 45.99993896484375 C 7.62939453125e-06 20.59487915039062 20.59490966796875 -7.62939453125e-06 46.00000762939453 -7.62939453125e-06 Z" stroke="none" fill="#ba9c5a"/>
                                        </g>
                                      </g>
                                    </g>
                                  </g>
                                </g>
                              </g>
                            </g>
                          </g>
                        </g>
                      </g>
                    </g>
                  </g>
                </g>
              </g>
            </g>
          </g>
        </g>
      </g>
    </g>
    <g id="obediente_1_" data-name="obediente (1)" transform="translate(703.115 6094.67)">
      <g id="Grupo_1210977" data-name="Grupo 1210977" transform="translate(27.183 0.897)">
        <path id="Trazado_1082793" data-name="Trazado 1082793" d="M154.99,7.5H116.913a.6.6,0,0,0-.6.6V24.673h3.921a2.93,2.93,0,0,1,.2,5.853v3.635h0a1.2,1.2,0,0,1,1.014,1.18v7.422a1.2,1.2,0,0,1-1.014,1.18h0v3.635a2.93,2.93,0,0,1-.2,5.853h-3.921v4.907h8.252a1.2,1.2,0,0,1,1.2,1.2v2.379s0,0,0,0h.911a1.2,1.2,0,0,1,1.2,1.2v3.813h27.719V8.1A.6.6,0,0,0,154.99,7.5Z" transform="translate(-116.315 -7.5)" fill="#fff3de"/>
      </g>
      <g id="Grupo_1210978" data-name="Grupo 1210978" transform="translate(27.183 0.897)">
        <path id="Trazado_1082794" data-name="Trazado 1082794" d="M120.236,24.673l.107,0V8.1a.6.6,0,0,1,.6-.6h-4.028a.6.6,0,0,0-.6.6V24.673Z" transform="translate(-116.315 -7.5)" fill="#ffe5c2"/>
        <path id="Trazado_1082795" data-name="Trazado 1082795" d="M120.236,391.63h-3.921v4.907h4.028v-4.909Z" transform="translate(-116.315 -345.697)" fill="#ffe5c2"/>
      </g>
      <g id="Grupo_1210996" data-name="Grupo 1210996" transform="translate(15.975 18.07)">
        <g id="Grupo_1210979" data-name="Grupo 1210979" transform="translate(16.347 12.335)">
          <path id="Trazado_1082796" data-name="Trazado 1082796" d="M159.3,254.29h5.535v4.089H159.3Z" transform="translate(-159.296 -254.29)" fill="#883f2e"/>
          <path id="Trazado_1082797" data-name="Trazado 1082797" d="M237.5,254.29h7.905v4.089H237.5Z" transform="translate(-228.151 -254.29)" fill="#883f2e"/>
        </g>
        <g id="Grupo_1210980" data-name="Grupo 1210980" transform="translate(16.347 14.453)">
          <path id="Trazado_1082798" data-name="Trazado 1082798" d="M159.3,272h5.535v1.971H159.3Z" transform="translate(-159.296 -272)" fill="#6d3326"/>
          <path id="Trazado_1082799" data-name="Trazado 1082799" d="M237.5,272h7.905v1.971H237.5Z" transform="translate(-228.151 -272)" fill="#6d3326"/>
        </g>
        <g id="Grupo_1210981" data-name="Grupo 1210981" transform="translate(33.603 11.381)">
          <path id="Trazado_1082800" data-name="Trazado 1082800" d="M325.833,249.309a3,3,0,0,1-3,3H304.3a.682.682,0,0,1-.682-.681v-4.634a.682.682,0,0,1,.682-.682h18.537A3,3,0,0,1,325.833,249.309Z" transform="translate(-303.616 -246.31)" fill="#ca6e59"/>
        </g>
        <g id="Grupo_1210982" data-name="Grupo 1210982" transform="translate(33.603 11.381)">
          <path id="Trazado_1082801" data-name="Trazado 1082801" d="M307.691,249.74a.681.681,0,0,1-.681-.682V246.31H304.3a.682.682,0,0,0-.682.682v4.634a.682.682,0,0,0,.682.682h18.537a3,3,0,0,0,2.967-2.567Z" transform="translate(-303.616 -246.31)" fill="#bb5d4c"/>
        </g>
        <g id="Grupo_1210983" data-name="Grupo 1210983" transform="translate(21.882 11.381)">
          <path id="Trazado_1082802" data-name="Trazado 1082802" d="M209.4,246.909v4.8a.6.6,0,0,1-.6.6h-2.621a.6.6,0,0,1-.6-.6v-4.8a.6.6,0,0,1,.6-.6H208.8A.6.6,0,0,1,209.4,246.909Z" transform="translate(-205.585 -246.311)" fill="#ca6e59"/>
        </g>
        <g id="Grupo_1210984" data-name="Grupo 1210984" transform="translate(21.882 11.381)">
          <path id="Trazado_1082803" data-name="Trazado 1082803" d="M207.318,251.71v-4.8a.6.6,0,0,1,.6-.6h-1.733a.6.6,0,0,0-.6.6v4.8a.6.6,0,0,0,.6.6h1.733A.6.6,0,0,1,207.318,251.71Z" transform="translate(-205.585 -246.311)" fill="#bb5d4c"/>
        </g>
        <g id="Grupo_1210985" data-name="Grupo 1210985" transform="translate(7.428 5.853)">
          <path id="Trazado_1082804" data-name="Trazado 1082804" d="M92.426,312.312H84.885a1.209,1.209,0,0,1-.182-.015v3.635c.068,0,.136-.008.2-.008h7.5c.069,0,.137,0,.2.008V312.3A1.189,1.189,0,0,1,92.426,312.312Z" transform="translate(-84.703 -298.879)" fill="#883f2e"/>
          <path id="Trazado_1082805" data-name="Trazado 1082805" d="M84.885,312.312a1.209,1.209,0,0,1-.182-.015v3.635c.068,0,.136-.008.2-.008h2.807v-3.612H84.885Z" transform="translate(-84.703 -298.879)" fill="#6d3326"/>
          <path id="Trazado_1082806" data-name="Trazado 1082806" d="M84.885,203.7h7.541a1.2,1.2,0,0,1,.182.015v-3.635c-.068,0-.136.008-.2.008h-7.5c-.069,0-.137,0-.2-.008v3.635A1.2,1.2,0,0,1,84.885,203.7Z" transform="translate(-84.703 -200.079)" fill="#883f2e"/>
          <path id="Trazado_1082807" data-name="Trazado 1082807" d="M84.885,203.7h2.829v-3.612H84.907c-.069,0-.137,0-.2-.008v3.635A1.217,1.217,0,0,1,84.885,203.7Z" transform="translate(-84.703 -200.078)" fill="#6d3326"/>
        </g>
        <g id="Grupo_1210986" data-name="Grupo 1210986" transform="translate(6.415 9.473)">
          <path id="Trazado_1082808" data-name="Trazado 1082808" d="M86.158,231.548v7.422a1.2,1.2,0,0,1-1.2,1.2H77.421a1.2,1.2,0,0,1-1.2-1.2v-7.422a1.2,1.2,0,0,1,1.2-1.2h7.541A1.2,1.2,0,0,1,86.158,231.548Z" transform="translate(-76.225 -230.352)" fill="#ca6e59"/>
        </g>
        <g id="Grupo_1210987" data-name="Grupo 1210987" transform="translate(6.415 9.473)">
          <path id="Trazado_1082809" data-name="Trazado 1082809" d="M80.263,238.97v-7.422a1.2,1.2,0,0,1,1.2-1.2H77.421a1.2,1.2,0,0,0-1.2,1.2v7.422a1.2,1.2,0,0,0,1.2,1.2h4.038A1.2,1.2,0,0,1,80.263,238.97Z" transform="translate(-76.225 -230.352)" fill="#bb5d4c"/>
        </g>
        <g id="Grupo_1210990" data-name="Grupo 1210990" transform="translate(0 33.665)">
          <path id="Trazado_1082810" data-name="Trazado 1082810" d="M58.737,436.382a1.224,1.224,0,0,0,.006-.123v-2.379a1.2,1.2,0,0,0-1.2-1.2H41.391a1.2,1.2,0,0,0-1.2,1.2v2.379a1.22,1.22,0,0,0,.006.123Z" transform="translate(-38.089 -432.685)" fill="#ca6e59"/>
          <path id="Trazado_1082811" data-name="Trazado 1082811" d="M44.243,436.382a1.223,1.223,0,0,1-.006-.123v-2.379a1.2,1.2,0,0,1,1.2-1.2H41.391a1.2,1.2,0,0,0-1.2,1.2v2.379a1.222,1.222,0,0,0,.006.123Z" transform="translate(-38.089 -432.685)" fill="#bb5d4c"/>
          <g id="Grupo_1210988" data-name="Grupo 1210988" transform="translate(0 3.578)">
            <path id="Trazado_1082812" data-name="Trazado 1082812" d="M45.34,467.617H23.176a.6.6,0,0,1-.6-.6V463.8a1.2,1.2,0,0,1,1.2-1.2h20.37a1.2,1.2,0,0,1,1.2,1.2Z" transform="translate(-22.578 -462.608)" fill="#883f2e"/>
          </g>
          <g id="Grupo_1210989" data-name="Grupo 1210989" transform="translate(0 3.578)">
            <path id="Trazado_1082813" data-name="Trazado 1082813" d="M26.574,467.019V463.8a1.2,1.2,0,0,1,1.2-1.2h-4a1.2,1.2,0,0,0-1.2,1.2v3.215a.6.6,0,0,0,.6.6h4A.6.6,0,0,1,26.574,467.019Z" transform="translate(-22.578 -462.608)" fill="#6d3326"/>
          </g>
        </g>
        <g id="Grupo_1210995" data-name="Grupo 1210995" transform="translate(4.702)">
          <g id="Grupo_1210991" data-name="Grupo 1210991" transform="translate(0 22.898)">
            <path id="Trazado_1082814" data-name="Trazado 1082814" d="M75.262,345.563a2.93,2.93,0,0,1-2.93,2.93h-7.5a2.93,2.93,0,0,1,0-5.861h7.5A2.93,2.93,0,0,1,75.262,345.563Z" transform="translate(-61.905 -342.633)" fill="#ca6e59"/>
          </g>
          <g id="Grupo_1210992" data-name="Grupo 1210992" transform="translate(0 22.898)">
            <path id="Trazado_1082815" data-name="Trazado 1082815" d="M65.9,345.563a2.93,2.93,0,0,1,2.93-2.93H64.835a2.93,2.93,0,0,0,0,5.861h3.992A2.93,2.93,0,0,1,65.9,345.563Z" transform="translate(-61.905 -342.633)" fill="#bb5d4c"/>
          </g>
          <g id="Grupo_1210993" data-name="Grupo 1210993" transform="translate(0)">
            <path id="Trazado_1082816" data-name="Trazado 1082816" d="M75.262,154.058a2.93,2.93,0,0,1-2.93,2.93h-7.5a2.93,2.93,0,0,1,0-5.861h7.5A2.93,2.93,0,0,1,75.262,154.058Z" transform="translate(-61.905 -151.128)" fill="#ca6e59"/>
          </g>
          <g id="Grupo_1210994" data-name="Grupo 1210994">
            <path id="Trazado_1082817" data-name="Trazado 1082817" d="M65.9,154.058a2.93,2.93,0,0,1,2.93-2.93H64.835a2.93,2.93,0,0,0,0,5.861h3.992A2.93,2.93,0,0,1,65.9,154.058Z" transform="translate(-61.905 -151.128)" fill="#bb5d4c"/>
          </g>
        </g>
      </g>
      <g id="Grupo_1210999" data-name="Grupo 1210999" transform="translate(38.429 6.47)">
        <g id="Grupo_1210997" data-name="Grupo 1210997" transform="translate(0)">
          <circle id="Elipse_14304" data-name="Elipse 14304" cx="8.39" cy="8.39" r="8.39" fill="#4fc123"/>
        </g>
        <g id="Grupo_1210998" data-name="Grupo 1210998" transform="translate(0)">
          <path id="Trazado_1082818" data-name="Trazado 1082818" d="M214.393,62.5a8.392,8.392,0,0,1,6.38-8.146,8.39,8.39,0,1,0,0,16.292A8.392,8.392,0,0,1,214.393,62.5Z" transform="translate(-210.372 -54.107)" fill="#47a920"/>
        </g>
      </g>
      <g id="Grupo_1211000" data-name="Grupo 1211000" transform="translate(15.078 0)">
        <path id="Trazado_1082819" data-name="Trazado 1082819" d="M68.8,28.554H67.352V13.033a.9.9,0,0,0-.924-.9.922.922,0,0,0-.869.934V28.554h-6.01a.9.9,0,0,0,0,1.794H68.8a2.1,2.1,0,1,1,0,4.2H50.475v-4.2h4.888a.9.9,0,0,0,0-1.794h-5.1a1.58,1.58,0,0,0-1.449.954H42.467a1.5,1.5,0,0,0-1.392-.954H38.455a1.5,1.5,0,0,0-1.392.954H33.219v-.77a2.091,2.091,0,0,0-1.014-1.79V24.666a3.827,3.827,0,0,0-1.1-7.492H28.079V1.794H65.559V8.848a.9.9,0,0,0,.924.9.922.922,0,0,0,.869-.934V1.495A1.5,1.5,0,0,0,65.858,0H27.781a1.5,1.5,0,0,0-1.495,1.495V17.173H23.607a3.827,3.827,0,0,0-1.1,7.492v2.283a2.091,2.091,0,0,0-1.014,1.79V36.16a2.091,2.091,0,0,0,1.014,1.79v2.283a3.827,3.827,0,0,0,1.1,7.492h2.678v3.113H19.277a2.1,2.1,0,0,0-2.092,2.092v1.485H17.17a2.1,2.1,0,0,0-2.092,2.092v3.215a1.5,1.5,0,0,0,1.495,1.495H65.858a1.5,1.5,0,0,0,1.495-1.495V36.345H68.8a3.9,3.9,0,0,0,0-7.791ZM42.57,31.3h6.112v2.3H42.57Zm-3.816-.954h2.023v4.2H38.753Zm-5.535.954H36.96v2.3H33.219ZM21.574,21a2.036,2.036,0,0,1,2.034-2.034h7.5a2.034,2.034,0,1,1,0,4.067h-7.5A2.036,2.036,0,0,1,21.574,21ZM23.585,36.46a.3.3,0,0,1-.3-.3V28.739a.3.3,0,0,1,.3-.3h7.541a.3.3,0,0,1,.3.3v7.422a.3.3,0,0,1-.3.3Zm6.826,1.794v1.818H24.3V38.253ZM24.3,26.646V24.828h6.112v1.818Zm-.692,19.286a2.034,2.034,0,0,1,0-4.067h7.5a2.034,2.034,0,0,1,0,4.067ZM37.84,59.426H16.872V56.509a.3.3,0,0,1,.3-.3h5.551a.9.9,0,0,0,0-1.794H18.978V52.931a.3.3,0,0,1,.3-.3H35.434a.3.3,0,0,1,.3.3v1.485H26.906a.9.9,0,0,0,0,1.794H37.541a.3.3,0,0,1,.3.3Zm27.719,0H39.633V56.509a2.1,2.1,0,0,0-2.092-2.092h-.014V52.931a2.1,2.1,0,0,0-2.092-2.092H28.079V47.726H31.1a3.827,3.827,0,0,0,1.1-7.492V37.95a2.091,2.091,0,0,0,1.014-1.79v-.77h3.844a1.5,1.5,0,0,0,1.392.954h2.621a1.5,1.5,0,0,0,1.392-.954h6.344a1.58,1.58,0,0,0,1.449.954h15.3V59.426Z" transform="translate(-15.078 0)"/>
        <path id="Trazado_1082820" data-name="Trazado 1082820" d="M202.872,55.894a9.287,9.287,0,1,0,9.287-9.287A9.3,9.3,0,0,0,202.872,55.894Zm16.78,0a7.493,7.493,0,1,1-7.493-7.493A7.5,7.5,0,0,1,219.652,55.894Z" transform="translate(-180.418 -41.034)"/>
        <path id="Trazado_1082821" data-name="Trazado 1082821" d="M247.874,102.939a.9.9,0,0,0-1.268,1.268l2.758,2.758a.9.9,0,0,0,1.268,0l4.276-4.276a.9.9,0,1,0-1.268-1.268L250,105.063Z" transform="translate(-218.691 -89.064)"/>
        <path id="Trazado_1082822" data-name="Trazado 1082822" d="M243.681,327.966a.9.9,0,0,0,.9.9H261.07a.9.9,0,0,0,0-1.794H244.578A.9.9,0,0,0,243.681,327.966Z" transform="translate(-216.347 -287.962)"/>
        <path id="Trazado_1082823" data-name="Trazado 1082823" d="M319.9,363.546h-8.5a.9.9,0,1,0,0,1.793h8.5a.9.9,0,1,0,0-1.793Z" transform="translate(-275.177 -320.077)"/>
        <path id="Trazado_1082824" data-name="Trazado 1082824" d="M244.578,365.339h4.881a.9.9,0,0,0,0-1.793h-4.881a.9.9,0,1,0,0,1.793Z" transform="translate(-216.347 -320.077)"/>
        <path id="Trazado_1082825" data-name="Trazado 1082825" d="M261.069,400.023H244.577a.9.9,0,1,0,0,1.794h16.492a.9.9,0,1,0,0-1.794Z" transform="translate(-216.346 -352.193)"/>
        <path id="Trazado_1082826" data-name="Trazado 1082826" d="M350.714,436.5H346.4a.9.9,0,0,0,0,1.793h4.318a.9.9,0,1,0,0-1.793Z" transform="translate(-305.992 -384.308)"/>
        <path id="Trazado_1082827" data-name="Trazado 1082827" d="M254,436.5h-9.424a.9.9,0,1,0,0,1.793H254a.9.9,0,1,0,0-1.793Z" transform="translate(-216.347 -384.308)"/>
      </g>
    </g>
  </g>
</svg>
