<svg xmlns="http://www.w3.org/2000/svg" xmlns:xlink="http://www.w3.org/1999/xlink" width="110" height="110" viewBox="0 0 110 110">
  <defs>
    <filter id="Trazado_982547" x="0" y="0" width="110" height="110" filterUnits="userSpaceOnUse">
      <feOffset dy="3" input="SourceAlpha"/>
      <feGaussianBlur stdDeviation="3" result="blur"/>
      <feFlood flood-opacity="0.161"/>
      <feComposite operator="in" in2="blur"/>
      <feComposite in="SourceGraphic"/>
    </filter>
  </defs>
  <g id="Grupo_1211024" data-name="Grupo 1211024" transform="translate(-3338 -5872.28)">
    <g id="Grupo_1209916" data-name="Grupo 1209916" transform="translate(3347 5878.28)">
      <g id="Grupo_1185951" data-name="Grupo 1185951" transform="translate(0 0)">
        <g id="Grupo_1184083" data-name="Grupo 1184083" transform="translate(0 0)">
          <g id="Grupo_1183743" data-name="Grupo 1183743" transform="translate(0 0)">
            <g id="Grupo_1181545" data-name="Grupo 1181545">
              <g id="Grupo_1177562" data-name="Grupo 1177562">
                <g id="Grupo_1173147" data-name="Grupo 1173147" transform="translate(0 0)">
                  <g id="Grupo_1163801" data-name="Grupo 1163801" transform="translate(0 0)">
                    <g id="Grupo_1163014" data-name="Grupo 1163014" transform="translate(0 0)">
                      <g id="Grupo_1157015" data-name="Grupo 1157015" transform="translate(0 0)">
                        <g id="Grupo_1155792" data-name="Grupo 1155792" transform="translate(0 0)">
                          <g id="Grupo_1154703" data-name="Grupo 1154703" transform="translate(0 0)">
                            <g id="Grupo_1150789" data-name="Grupo 1150789">
                              <g id="Grupo_1154212" data-name="Grupo 1154212">
                                <g id="Grupo_1152583" data-name="Grupo 1152583">
                                  <g id="Grupo_1146973" data-name="Grupo 1146973">
                                    <g id="Grupo_1146954" data-name="Grupo 1146954">
                                      <g transform="matrix(1, 0, 0, 1, -9, -6)" filter="url(#Trazado_982547)">
                                        <g id="Trazado_982547-2" data-name="Trazado 982547" transform="translate(9 6)" fill="#f2d944">
                                          <path d="M 46.00000762939453 90.49988555908203 C 39.99188613891602 90.49988555908203 34.16427612304688 89.32352447509766 28.67906188964844 87.00347137451172 C 23.38020706176758 84.76226043701172 18.62104797363281 81.55342864990234 14.53375434875488 77.46615600585938 C 10.44647407531738 73.37887573242188 7.237647533416748 68.61971282958984 4.996420860290527 63.32085800170898 C 2.676367521286011 57.83565902709961 1.500007629394531 52.00806045532227 1.500007629394531 45.99993896484375 C 1.500007629394531 39.99181747436523 2.676367521286011 34.16421890258789 4.996420860290527 28.67901802062988 C 7.237647533416748 23.38017845153809 10.44647407531738 18.62101936340332 14.53375434875488 14.53373908996582 C 18.62104797363281 10.44645881652832 23.38020706176758 7.237632274627686 28.67906188964844 4.996418952941895 C 34.16427612304688 2.676365613937378 39.99188613891602 1.500005602836609 46.00000762939453 1.500005602836609 C 52.00812911987305 1.500005602836609 57.83573913574219 2.676365613937378 63.32095336914062 4.996418952941895 C 68.61980438232422 7.237632274627686 73.37896728515625 10.44645881652832 77.46626281738281 14.53373908996582 C 81.55354309082031 18.62101936340332 84.76236724853516 23.38017845153809 87.00359344482422 28.67901802062988 C 89.32364654541016 34.16421890258789 90.50000762939453 39.99181747436523 90.50000762939453 45.99993896484375 C 90.50000762939453 52.00806045532227 89.32364654541016 57.83565902709961 87.00359344482422 63.32085800170898 C 84.76236724853516 68.61971282958984 81.55354309082031 73.37887573242188 77.46626281738281 77.46615600585938 C 73.37896728515625 81.55342864990234 68.61980438232422 84.76226043701172 63.32095336914062 87.00347137451172 C 57.83573913574219 89.32352447509766 52.00812911987305 90.49988555908203 46.00000762939453 90.49988555908203 Z" stroke="none"/>
                                          <path d="M 46.00000762939453 2.999992370605469 C 40.19372177124023 2.999992370605469 34.56270599365234 4.136497497558594 29.26339340209961 6.377906799316406 C 24.14333343505859 8.543510437011719 19.54441833496094 11.64437866210938 15.59440612792969 15.59439849853516 C 11.6444091796875 19.54439544677734 8.543525695800781 24.14329528808594 6.377922058105469 29.26335144042969 C 4.136505126953125 34.56266784667969 3.000007629394531 40.19366836547852 3.000007629394531 45.99993896484375 C 3.000007629394531 51.80620956420898 4.136505126953125 57.43722534179688 6.377922058105469 62.73654174804688 C 8.543525695800781 67.85658264160156 11.6444091796875 72.45548248291016 15.59440612792969 76.40549468994141 C 19.54441833496094 80.35549926757812 24.14333343505859 83.45636749267578 29.26337814331055 85.62196350097656 C 34.56270599365234 87.86338043212891 40.19372177124023 88.9998779296875 46.00000762939453 88.9998779296875 C 51.80629348754883 88.9998779296875 57.43730926513672 87.86338043212891 62.73662185668945 85.62196350097656 C 67.85668182373047 83.45636749267578 72.45558166503906 80.35549926757812 76.40559387207031 76.40549468994141 C 80.35560607910156 72.45548248291016 83.45648193359375 67.85658264160156 85.62207794189453 62.73654174804688 C 87.86351013183594 57.43722534179688 89.00000762939453 51.80620956420898 89.00000762939453 45.99993896484375 C 89.00000762939453 40.19366836547852 87.86351013183594 34.56266784667969 85.62207794189453 29.26335144042969 C 83.45648193359375 24.14329528808594 80.35560607910156 19.54439544677734 76.40559387207031 15.59439849853516 C 72.45558166503906 11.64437866210938 67.85668182373047 8.543510437011719 62.73662185668945 6.377906799316406 C 57.43729400634766 4.136497497558594 51.80629348754883 2.999992370605469 46.00000762939453 2.999992370605469 M 46.00000762939453 -7.62939453125e-06 C 71.40509033203125 -7.62939453125e-06 92.00000762939453 20.59487915039062 92.00000762939453 45.99993896484375 C 92.00000762939453 71.40501403808594 71.40509033203125 91.99988555908203 46.00000762939453 91.99988555908203 C 20.59490966796875 91.99988555908203 7.62939453125e-06 71.40501403808594 7.62939453125e-06 45.99993896484375 C 7.62939453125e-06 20.59487915039062 20.59490966796875 -7.62939453125e-06 46.00000762939453 -7.62939453125e-06 Z" stroke="none" fill="#ba9c5a"/>
                                        </g>
                                      </g>
                                    </g>
                                  </g>
                                </g>
                              </g>
                            </g>
                          </g>
                        </g>
                      </g>
                    </g>
                  </g>
                </g>
              </g>
            </g>
          </g>
        </g>
      </g>
    </g>
    <g id="obediente_2_" data-name="obediente (2)" transform="translate(3347.491 5893)">
      <g id="Grupo_1211014" data-name="Grupo 1211014" transform="translate(11.311 1.183)">
        <g id="Grupo_1211012" data-name="Grupo 1211012">
          <g id="Grupo_1211009" data-name="Grupo 1211009" transform="translate(0 30.902)">
            <g id="Grupo_1211002" data-name="Grupo 1211002" transform="translate(0 0)">
              <path id="Trazado_1082828" data-name="Trazado 1082828" d="M39.225,204.15l2.841,4.921a.473.473,0,0,0,.41.237H61.94a.473.473,0,0,0,.41-.237l2.841-4.921a.473.473,0,0,0-.41-.71H39.634a.473.473,0,0,0-.41.71Z" transform="translate(-39.16 -203.44)" fill="#fed402"/>
            </g>
            <g id="Grupo_1211008" data-name="Grupo 1211008">
              <g id="Grupo_1211003" data-name="Grupo 1211003" transform="translate(42.302 0)">
                <path id="Trazado_1082829" data-name="Trazado 1082829" d="M307.446,204.15l2.841,4.921a.473.473,0,0,0,.41.237h19.465a.473.473,0,0,0,.41-.237l2.841-4.921a.473.473,0,0,0-.41-.71H307.856A.473.473,0,0,0,307.446,204.15Z" transform="translate(-307.382 -203.44)" fill="#fed402"/>
              </g>
              <g id="Grupo_1211004" data-name="Grupo 1211004" transform="translate(0 0)">
                <path id="Trazado_1082830" data-name="Trazado 1082830" d="M39.225,204.15l2.841,4.921a.473.473,0,0,0,.41.237H61.94a.473.473,0,0,0,.41-.237l2.841-4.921a.473.473,0,0,0-.41-.71H39.634a.473.473,0,0,0-.41.71Z" transform="translate(-39.16 -203.44)" fill="#ca6e59"/>
              </g>
              <g id="Grupo_1211005" data-name="Grupo 1211005" transform="translate(0)">
                <path id="Trazado_1082831" data-name="Trazado 1082831" d="M48.75,209.069l-2.841-4.921a.473.473,0,0,1,.41-.71H39.634a.473.473,0,0,0-.41.71l2.841,4.921a.473.473,0,0,0,.41.237h6.684A.473.473,0,0,1,48.75,209.069Z" transform="translate(-39.161 -203.439)" fill="#bb5d4c"/>
              </g>
              <g id="Grupo_1211006" data-name="Grupo 1211006" transform="translate(42.302 0)">
                <path id="Trazado_1082832" data-name="Trazado 1082832" d="M307.446,204.15l2.841,4.921a.473.473,0,0,0,.41.237h19.465a.473.473,0,0,0,.41-.237l2.841-4.921a.473.473,0,0,0-.41-.71H307.856A.473.473,0,0,0,307.446,204.15Z" transform="translate(-307.382 -203.44)" fill="#ca6e59"/>
              </g>
              <g id="Grupo_1211007" data-name="Grupo 1211007" transform="translate(42.302)">
                <path id="Trazado_1082833" data-name="Trazado 1082833" d="M317.8,209.069l-2.841-4.921a.473.473,0,0,1,.41-.71h-7.51a.473.473,0,0,0-.41.71l2.841,4.921a.473.473,0,0,0,.41.237h7.51A.473.473,0,0,1,317.8,209.069Z" transform="translate(-307.383 -203.439)" fill="#bb5d4c"/>
              </g>
            </g>
          </g>
          <path id="Trazado_1082834" data-name="Trazado 1082834" d="M242.285,132.83V103.912a.789.789,0,0,0-.789-.789h-4.742a.789.789,0,0,0-.789.789V132.83h6.319Z" transform="translate(-204.927 -88.042)" fill="#bb5d4c"/>
          <path id="Trazado_1082835" data-name="Trazado 1082835" d="M238.642,132.83V103.912a.789.789,0,0,1,.789-.789h-2.676a.789.789,0,0,0-.789.789V132.83h2.676Z" transform="translate(-204.927 -88.042)" fill="#a44f3e"/>
          <g id="Grupo_1211010" data-name="Grupo 1211010" transform="translate(29.783 0)">
            <circle id="Elipse_14305" data-name="Elipse 14305" cx="4.415" cy="4.415" r="4.415" fill="#883f2e"/>
          </g>
          <g id="Grupo_1211011" data-name="Grupo 1211011" transform="translate(29.783)">
            <path id="Trazado_1082836" data-name="Trazado 1082836" d="M231.949,11.915a4.414,4.414,0,0,1,2.443-3.95,4.415,4.415,0,1,0,0,7.9A4.414,4.414,0,0,1,231.949,11.915Z" transform="translate(-228.005 -7.5)" fill="#6d3326"/>
          </g>
        </g>
        <g id="Grupo_1211013" data-name="Grupo 1211013" transform="translate(6.079 44.788)">
          <path id="Trazado_1082837" data-name="Trazado 1082837" d="M224,298.262v-3.623a3.154,3.154,0,0,0-3.154-3.154H212.41a3.154,3.154,0,0,0-3.154,3.154v3.623Z" transform="translate(-188.508 -291.485)" fill="#883f2e"/>
          <path id="Trazado_1082838" data-name="Trazado 1082838" d="M214.577,298.262v-3.623a3.154,3.154,0,0,1,3.154-3.154h-5.322a3.154,3.154,0,0,0-3.154,3.154v3.623Z" transform="translate(-188.508 -291.485)" fill="#6d3326"/>
          <path id="Trazado_1082839" data-name="Trazado 1082839" d="M197.929,341.641v-4.48a2.7,2.7,0,0,0-2.7-2.7h-21.35a2.7,2.7,0,0,0-2.7,2.7v4.48Z" transform="translate(-156.431 -327.68)" fill="#bb5d4c"/>
          <path id="Trazado_1082840" data-name="Trazado 1082840" d="M177.824,341.641v-4.48a2.7,2.7,0,0,1,2.7-2.7h-6.651a2.7,2.7,0,0,0-2.7,2.7v4.48Z" transform="translate(-156.432 -327.68)" fill="#a44f3e"/>
          <path id="Trazado_1082841" data-name="Trazado 1082841" d="M81.916,379.006a4.213,4.213,0,0,0-4.213,4.213v8a4.213,4.213,0,0,0,4.213,4.213h1.707V384.272h8.614v11.164h48.235V379.006Z" transform="translate(-77.703 -365.203)" fill="#fff3de"/>
        </g>
      </g>
      <g id="Grupo_1211023" data-name="Grupo 1211023" transform="translate(7.279 59.774)">
        <g id="Grupo_1211018" data-name="Grupo 1211018" transform="translate(0)">
          <g id="Grupo_1211015" data-name="Grupo 1211015">
            <path id="Trazado_1082842" data-name="Trazado 1082842" d="M27.919,395.435a4.213,4.213,0,0,1-4.213-4.213v-8a4.213,4.213,0,0,1,4.213-4.213H21.811a8.215,8.215,0,0,0,0,16.43h6.108Z" transform="translate(-13.596 -379.006)" fill="#3675bb"/>
          </g>
          <g id="Grupo_1211016" data-name="Grupo 1211016">
            <path id="Trazado_1082843" data-name="Trazado 1082843" d="M17.586,387.221a8.215,8.215,0,0,1,8.215-8.215h-3.99a8.215,8.215,0,0,0,0,16.43H25.8A8.215,8.215,0,0,1,17.586,387.221Z" transform="translate(-13.596 -379.006)" fill="#2b68b6"/>
          </g>
          <g id="Grupo_1211017" data-name="Grupo 1211017" transform="translate(10.11 0.006)">
            <path id="Trazado_1082844" data-name="Trazado 1082844" d="M83.623,390.849a4.208,4.208,0,0,1-1.93-3.54v-8c0-.089,0-.176.009-.264a4.213,4.213,0,0,0-4,4.207v8a4.213,4.213,0,0,0,4.213,4.213h1.707Z" transform="translate(-77.703 -379.041)" fill="#ffe5c2"/>
            <path id="Trazado_1082845" data-name="Trazado 1082845" d="M169.857,458.174h48.235v3.944H169.857Z" transform="translate(-155.323 -445.694)" fill="#ffe5c2"/>
          </g>
        </g>
        <g id="Grupo_1211022" data-name="Grupo 1211022" transform="translate(16.031 5.266)">
          <g id="Grupo_1211019" data-name="Grupo 1211019">
            <path id="Trazado_1082846" data-name="Trazado 1082846" d="M123.854,426.447V412.395H115.24v14.052a.473.473,0,0,0,.742.389l3.564-2.467,3.564,2.467A.473.473,0,0,0,123.854,426.447Z" transform="translate(-115.24 -412.395)" fill="#fb2b3a"/>
          </g>
          <g id="Grupo_1211021" data-name="Grupo 1211021" transform="translate(0)">
            <g id="Grupo_1211020" data-name="Grupo 1211020">
              <path id="Trazado_1082847" data-name="Trazado 1082847" d="M119.205,412.395H115.24v14.052a.473.473,0,0,0,.742.389l3.223-2.231Z" transform="translate(-115.24 -412.395)" fill="#e41f2d"/>
            </g>
          </g>
        </g>
      </g>
      <path id="Trazado_1082848" data-name="Trazado 1082848" d="M83.739,75.02h-2.4V60.957h2.4a1.183,1.183,0,0,0,0-2.366H60.07v-3.14a3.89,3.89,0,0,0-3.886-3.886h-2.12v-2.44a4.341,4.341,0,0,0-4.213-4.334V25.707a1.183,1.183,0,1,0-2.366,0V44.788H43.532V17.447h3.953v2.741a1.183,1.183,0,0,0,2.366,0V17.052a1.974,1.974,0,0,0-1.971-1.971H46.692V11.069A5.614,5.614,0,0,0,50.98,6.781h14.5V8.938L53.911,30.914a1.653,1.653,0,0,0-1.259,2.472l2.841,4.92a1.66,1.66,0,0,0,1.434.828H68.062a1.183,1.183,0,0,0,0-2.366H57.337l-2.021-3.5H78l-2.021,3.5h-2.4a1.183,1.183,0,0,0,0,2.366h2.811a1.66,1.66,0,0,0,1.434-.828l2.841-4.921a1.653,1.653,0,0,0-1.259-2.472L67.843,8.938V6.781H72.27a1.183,1.183,0,1,0,0-2.366H50.98a5.6,5.6,0,0,0-10.942,0H18.748a1.183,1.183,0,0,0,0,2.366h4.428V8.938L11.61,30.914a1.653,1.653,0,0,0-1.259,2.472h0l2.841,4.921a1.661,1.661,0,0,0,1.434.828H34.091a1.66,1.66,0,0,0,1.434-.828l2.841-4.921a1.653,1.653,0,0,0-1.259-2.472L25.541,8.938V6.781h14.5a5.614,5.614,0,0,0,4.288,4.288v4.012H43.138a1.974,1.974,0,0,0-1.971,1.971V44.791a4.341,4.341,0,0,0-4.213,4.334v2.44h-2.12a3.891,3.891,0,0,0-3.886,3.886v3.14H15.494a9.4,9.4,0,1,0,0,18.8h6.633v1.706a1.656,1.656,0,0,0,2.6,1.362l2.891-2,2.891,2a1.656,1.656,0,0,0,2.6-1.362V77.386H83.739a1.183,1.183,0,1,0,0-2.365ZM65.477,30.9H56.591l8.886-16.884Zm2.366-16.884L76.729,30.9H67.843Zm-44.668,0V30.9H14.289ZM33.681,36.769H15.035l-2.021-3.5H35.7Zm.746-5.867H25.541V14.018ZM42.277,5.6A3.232,3.232,0,1,1,45.509,8.83,3.236,3.236,0,0,1,42.277,5.6ZM39.32,49.125a1.974,1.974,0,0,1,1.971-1.971h8.436A1.974,1.974,0,0,1,51.7,49.125v2.44H39.32ZM15.494,75.02a7.032,7.032,0,1,1,0-14.064H17.14a5.364,5.364,0,0,0-.934,3.03v8a5.363,5.363,0,0,0,.934,3.03ZM30.74,77.738l-2.451-1.7a1.183,1.183,0,0,0-1.346,0l-2.451,1.7V66.222H30.74ZM78.975,63.857H53.408a1.183,1.183,0,0,0,0,2.366H78.975v3.532H53.408a1.183,1.183,0,1,0,0,2.366H78.975v2.9H33.106v-8.8h9.981a1.183,1.183,0,0,0,0-2.366H21.6a1.183,1.183,0,0,0,0,2.366h.525v8.8H21.6a3.033,3.033,0,0,1-3.03-3.03v-8a3.033,3.033,0,0,1,3.03-3.03H40.62a1.183,1.183,0,0,0,0-2.366H33.313v-3.14a1.522,1.522,0,0,1,1.52-1.52h21.35a1.522,1.522,0,0,1,1.52,1.52v3.14H46.14a1.183,1.183,0,0,0,0,2.366H78.975Z"/>
    </g>
  </g>
</svg>
