<svg xmlns="http://www.w3.org/2000/svg" xmlns:xlink="http://www.w3.org/1999/xlink" width="110" height="110" viewBox="0 0 110 110">
  <defs>
    <filter id="Trazado_982547" x="0" y="0" width="110" height="110" filterUnits="userSpaceOnUse">
      <feOffset dy="3" input="SourceAlpha"/>
      <feGaussianBlur stdDeviation="3" result="blur"/>
      <feFlood flood-opacity="0.161"/>
      <feComposite operator="in" in2="blur"/>
      <feComposite in="SourceGraphic"/>
    </filter>
  </defs>
  <g id="Grupo_1211025" data-name="Grupo 1211025" transform="translate(-3653 -5873.28)">
    <g id="Grupo_1209917" data-name="Grupo 1209917" transform="translate(3662 5879.28)">
      <g id="Grupo_1185952" data-name="Grupo 1185952" transform="translate(0 0)">
        <g id="Grupo_1184115" data-name="Grupo 1184115">
          <g id="Grupo_1183744" data-name="Grupo 1183744" transform="translate(0 0)">
            <g id="Grupo_1181546" data-name="Grupo 1181546">
              <g id="Grupo_1177563" data-name="Grupo 1177563">
                <g id="Grupo_1173148" data-name="Grupo 1173148" transform="translate(0 0)">
                  <g id="Grupo_1163803" data-name="Grupo 1163803" transform="translate(0 0)">
                    <g id="Grupo_1163015" data-name="Grupo 1163015" transform="translate(0 0)">
                      <g id="Grupo_1157017" data-name="Grupo 1157017" transform="translate(0 0)">
                        <g id="Grupo_1155793" data-name="Grupo 1155793" transform="translate(0 0)">
                          <g id="Grupo_1154704" data-name="Grupo 1154704" transform="translate(0 0)">
                            <g id="Grupo_1150790" data-name="Grupo 1150790">
                              <g id="Grupo_1154214" data-name="Grupo 1154214">
                                <g id="Grupo_1152583" data-name="Grupo 1152583">
                                  <g id="Grupo_1146973" data-name="Grupo 1146973">
                                    <g id="Grupo_1146954" data-name="Grupo 1146954">
                                      <g transform="matrix(1, 0, 0, 1, -9, -6)" filter="url(#Trazado_982547)">
                                        <g id="Trazado_982547-2" data-name="Trazado 982547" transform="translate(9 6)" fill="#f2d944">
                                          <path d="M 46.00000762939453 90.49988555908203 C 39.99188613891602 90.49988555908203 34.16427612304688 89.32352447509766 28.67906188964844 87.00347137451172 C 23.38020706176758 84.76226043701172 18.62104797363281 81.55342864990234 14.53375434875488 77.46615600585938 C 10.44647407531738 73.37887573242188 7.237647533416748 68.61971282958984 4.996420860290527 63.32085800170898 C 2.676367521286011 57.83565902709961 1.500007629394531 52.00806045532227 1.500007629394531 45.99993896484375 C 1.500007629394531 39.99181747436523 2.676367521286011 34.16421890258789 4.996420860290527 28.67901802062988 C 7.237647533416748 23.38017845153809 10.44647407531738 18.62101936340332 14.53375434875488 14.53373908996582 C 18.62104797363281 10.44645881652832 23.38020706176758 7.237632274627686 28.67906188964844 4.996418952941895 C 34.16427612304688 2.676365613937378 39.99188613891602 1.500005602836609 46.00000762939453 1.500005602836609 C 52.00812911987305 1.500005602836609 57.83573913574219 2.676365613937378 63.32095336914062 4.996418952941895 C 68.61980438232422 7.237632274627686 73.37896728515625 10.44645881652832 77.46626281738281 14.53373908996582 C 81.55354309082031 18.62101936340332 84.76236724853516 23.38017845153809 87.00359344482422 28.67901802062988 C 89.32364654541016 34.16421890258789 90.50000762939453 39.99181747436523 90.50000762939453 45.99993896484375 C 90.50000762939453 52.00806045532227 89.32364654541016 57.83565902709961 87.00359344482422 63.32085800170898 C 84.76236724853516 68.61971282958984 81.55354309082031 73.37887573242188 77.46626281738281 77.46615600585938 C 73.37896728515625 81.55342864990234 68.61980438232422 84.76226043701172 63.32095336914062 87.00347137451172 C 57.83573913574219 89.32352447509766 52.00812911987305 90.49988555908203 46.00000762939453 90.49988555908203 Z" stroke="none"/>
                                          <path d="M 46.00000762939453 2.999992370605469 C 40.19372177124023 2.999992370605469 34.56270599365234 4.136497497558594 29.26339340209961 6.377906799316406 C 24.14333343505859 8.543510437011719 19.54441833496094 11.64437866210938 15.59440612792969 15.59439849853516 C 11.6444091796875 19.54439544677734 8.543525695800781 24.14329528808594 6.377922058105469 29.26335144042969 C 4.136505126953125 34.56266784667969 3.000007629394531 40.19366836547852 3.000007629394531 45.99993896484375 C 3.000007629394531 51.80620956420898 4.136505126953125 57.43722534179688 6.377922058105469 62.73654174804688 C 8.543525695800781 67.85658264160156 11.6444091796875 72.45548248291016 15.59440612792969 76.40549468994141 C 19.54441833496094 80.35549926757812 24.14333343505859 83.45636749267578 29.26337814331055 85.62196350097656 C 34.56270599365234 87.86338043212891 40.19372177124023 88.9998779296875 46.00000762939453 88.9998779296875 C 51.80629348754883 88.9998779296875 57.43730926513672 87.86338043212891 62.73662185668945 85.62196350097656 C 67.85668182373047 83.45636749267578 72.45558166503906 80.35549926757812 76.40559387207031 76.40549468994141 C 80.35560607910156 72.45548248291016 83.45648193359375 67.85658264160156 85.62207794189453 62.73654174804688 C 87.86351013183594 57.43722534179688 89.00000762939453 51.80620956420898 89.00000762939453 45.99993896484375 C 89.00000762939453 40.19366836547852 87.86351013183594 34.56266784667969 85.62207794189453 29.26335144042969 C 83.45648193359375 24.14329528808594 80.35560607910156 19.54439544677734 76.40559387207031 15.59439849853516 C 72.45558166503906 11.64437866210938 67.85668182373047 8.543510437011719 62.73662185668945 6.377906799316406 C 57.43729400634766 4.136497497558594 51.80629348754883 2.999992370605469 46.00000762939453 2.999992370605469 M 46.00000762939453 -7.62939453125e-06 C 71.40509033203125 -7.62939453125e-06 92.00000762939453 20.59487915039062 92.00000762939453 45.99993896484375 C 92.00000762939453 71.40501403808594 71.40509033203125 91.99988555908203 46.00000762939453 91.99988555908203 C 20.59490966796875 91.99988555908203 7.62939453125e-06 71.40501403808594 7.62939453125e-06 45.99993896484375 C 7.62939453125e-06 20.59487915039062 20.59490966796875 -7.62939453125e-06 46.00000762939453 -7.62939453125e-06 Z" stroke="none" fill="#ba9c5a"/>
                                        </g>
                                      </g>
                                    </g>
                                  </g>
                                </g>
                              </g>
                            </g>
                          </g>
                        </g>
                      </g>
                    </g>
                  </g>
                </g>
              </g>
            </g>
          </g>
        </g>
      </g>
    </g>
    <g id="objetivo" transform="translate(3676.907 5896.917)">
      <path id="Trazado_1082849" data-name="Trazado 1082849" d="M136.344,243.572l8.2-8.11c3.061-3.061,8.948.8,5.768,4.543l-9.924,11.676a6.961,6.961,0,0,1-1.327,1.2,9.9,9.9,0,0,1-5.382,1.363H118.947a27.637,27.637,0,0,0-3.188.185l-4.236.476-8.785-8.525s4.984-9.412,14.76-6.706a21.052,21.052,0,0,0,5.618.747h9.679c4.556,0,4.592,7.24-.038,7.24h-8.426" transform="translate(-90.259 -205.452)" fill="#ffcdac"/>
      <path id="Trazado_1082850" data-name="Trazado 1082850" d="M24.34,333.28l8.358-8.575a.006.006,0,0,0,0-.009L18.516,310.934a.006.006,0,0,0-.009,0l-8.437,8.759Zm0,0" transform="translate(-8.846 -272.73)" fill="#6bd5e1"/>
      <path id="Trazado_1082851" data-name="Trazado 1082851" d="M58.488,100.317a5.221,5.221,0,0,0-4.722,5.2v5.558A1.738,1.738,0,0,0,55.5,112.81h11.92a1.738,1.738,0,0,0,1.738-1.738v-5.558a5.22,5.22,0,0,0-4.728-5.2" transform="translate(-47.235 -87.693)" fill="#ffb677"/>
      <path id="Trazado_1082852" data-name="Trazado 1082852" d="M80.79,16.665a5.833,5.833,0,1,1-5.833-5.833A5.832,5.832,0,0,1,80.79,16.665Zm0,0" transform="translate(-60.729 -9.077)" fill="#ffcdac"/>
      <path id="Trazado_1082853" data-name="Trazado 1082853" d="M185.254,100.317a5.221,5.221,0,0,0-4.722,5.2v5.558a1.739,1.739,0,0,0,1.739,1.738h11.92a1.738,1.738,0,0,0,1.738-1.738v-5.558a5.221,5.221,0,0,0-4.728-5.2" transform="translate(-158.604 -87.693)" fill="#ff8364"/>
      <path id="Trazado_1082854" data-name="Trazado 1082854" d="M207.556,16.665a5.833,5.833,0,1,1-5.833-5.833A5.832,5.832,0,0,1,207.556,16.665Zm0,0" transform="translate(-172.098 -9.077)" fill="#ffcdac"/>
      <path id="Trazado_1082855" data-name="Trazado 1082855" d="M312.024,100.317a5.221,5.221,0,0,0-4.722,5.2v5.558a1.739,1.739,0,0,0,1.738,1.738h11.92a1.739,1.739,0,0,0,1.739-1.738v-5.558a5.221,5.221,0,0,0-4.729-5.2" transform="translate(-269.978 -87.693)" fill="#ffd98e"/>
      <path id="Trazado_1082856" data-name="Trazado 1082856" d="M334.326,16.665a5.833,5.833,0,1,1-5.833-5.833A5.833,5.833,0,0,1,334.326,16.665Zm0,0" transform="translate(-283.471 -9.077)" fill="#ffcdac"/>
      <path id="Trazado_1082857" data-name="Trazado 1082857" d="M60.716,225.485a5.632,5.632,0,0,0-3.474-1.456,4.973,4.973,0,0,0-3.821,1.455l-6.914,6.842a4.59,4.59,0,0,0-.468-.668,4.482,4.482,0,0,0-3.5-1.566H32.857a19.852,19.852,0,0,1-5.292-.7,13.02,13.02,0,0,0-12.146,2.57,17.666,17.666,0,0,0-3.163,3.4l-1.735-1.684a1.234,1.234,0,0,0-.856-.347H9.657a1.236,1.236,0,0,0-.877.377L.343,242.458a1.224,1.224,0,0,0,.037,1.735L14.65,257.78a1.223,1.223,0,0,0,1.72-.032l8.358-8.575a1.23,1.23,0,0,0-.024-1.741l-.728-.706,1.666-.187a26.469,26.469,0,0,1,3.047-.176H43.415a11.056,11.056,0,0,0,6.041-1.556l.04-.027a8.152,8.152,0,0,0,1.56-1.417l9.924-11.675a4.273,4.273,0,0,0-.265-6.2ZM15.462,255.175l-12.5-11.905,6.735-6.993,12.43,12.062ZM59.117,230.1,49.192,241.78a5.718,5.718,0,0,1-1.074.979,8.7,8.7,0,0,1-4.7,1.158H28.688a28.884,28.884,0,0,0-3.324.193l-3.662.411-7.667-7.44a15.257,15.257,0,0,1,2.931-3.225,10.53,10.53,0,0,1,9.946-2.107,22.3,22.3,0,0,0,5.944.792h9.679a2.21,2.21,0,0,1,2.2,2.4,2.649,2.649,0,0,1-.573,1.7,2.079,2.079,0,0,1-1.668.7H34.072a1.223,1.223,0,0,0,0,2.447H42.5a4.536,4.536,0,0,0,3.533-1.563,5.024,5.024,0,0,0,1.152-3.117l7.963-7.88a2.864,2.864,0,0,1,3.911.065,1.843,1.843,0,0,1,.059,2.82Zm0,0" transform="translate(0 -196.375)"/>
      <path id="Trazado_1082858" data-name="Trazado 1082858" d="M231.653,334.166a1.223,1.223,0,1,0-2.382.558l.011.05a1.224,1.224,0,0,0,1.19.944,1.238,1.238,0,0,0,.28-.032,1.223,1.223,0,0,0,.912-1.47Zm0,0" transform="translate(-201.396 -292.311)"/>
      <path id="Trazado_1082859" data-name="Trazado 1082859" d="M46.653,26.309h11.92a2.944,2.944,0,0,0,1.738-.566,2.944,2.944,0,0,0,1.738.566h11.92a2.944,2.944,0,0,0,1.738-.566,2.944,2.944,0,0,0,1.738.566h11.92a2.965,2.965,0,0,0,2.961-2.962V17.789a6.414,6.414,0,0,0-3.488-5.735,7.056,7.056,0,1,0-10.865,0A6.408,6.408,0,0,0,75.707,14a6.4,6.4,0,0,0-2.266-1.942,7.056,7.056,0,1,0-10.865,0A6.4,6.4,0,0,0,60.311,14a6.4,6.4,0,0,0-2.266-1.943,7.056,7.056,0,1,0-10.865,0,6.415,6.415,0,0,0-3.489,5.735v5.558a2.965,2.965,0,0,0,2.962,2.962ZM83.406,2.947a4.61,4.61,0,1,1-4.61,4.61A4.615,4.615,0,0,1,83.406,2.947ZM80.227,13.853a7.031,7.031,0,0,0,6.355,0,3.975,3.975,0,0,1,3.3,3.935v5.558a.516.516,0,0,1-.515.515H77.445a.516.516,0,0,1-.515-.515V17.789A3.975,3.975,0,0,1,80.227,13.853ZM68.009,2.947a4.61,4.61,0,1,1-4.61,4.61A4.615,4.615,0,0,1,68.009,2.947ZM64.831,13.853a7.031,7.031,0,0,0,6.355,0,3.975,3.975,0,0,1,3.3,3.935v5.558a.516.516,0,0,1-.515.515H62.049a.516.516,0,0,1-.515-.515V17.789A3.975,3.975,0,0,1,64.831,13.853ZM52.613,2.947A4.61,4.61,0,1,1,48,7.556,4.615,4.615,0,0,1,52.613,2.947ZM46.138,17.789a3.975,3.975,0,0,1,3.3-3.935,7.031,7.031,0,0,0,6.355,0,3.975,3.975,0,0,1,3.3,3.935v5.558a.516.516,0,0,1-.515.515H46.653a.516.516,0,0,1-.515-.515Zm0,0" transform="translate(-38.384)"/>
    </g>
  </g>
</svg>
