<svg xmlns="http://www.w3.org/2000/svg" xmlns:xlink="http://www.w3.org/1999/xlink" width="110" height="110" viewBox="0 0 110 110">
  <defs>
    <filter id="Trazado_982547" x="0" y="0" width="110" height="110" filterUnits="userSpaceOnUse">
      <feOffset dy="3" input="SourceAlpha"/>
      <feGaussianBlur stdDeviation="3" result="blur"/>
      <feFlood flood-opacity="0.161"/>
      <feComposite operator="in" in2="blur"/>
      <feComposite in="SourceGraphic"/>
    </filter>
  </defs>
  <g id="Grupo_1211026" data-name="Grupo 1211026" transform="translate(-3338 -6214.28)">
    <g id="Grupo_1209919" data-name="Grupo 1209919" transform="translate(3347 6220.28)">
      <g id="Grupo_1185951" data-name="Grupo 1185951" transform="translate(0 0)">
        <g id="Grupo_1184083" data-name="Grupo 1184083" transform="translate(0 0)">
          <g id="Grupo_1183743" data-name="Grupo 1183743" transform="translate(0 0)">
            <g id="Grupo_1181545" data-name="Grupo 1181545">
              <g id="Grupo_1177562" data-name="Grupo 1177562">
                <g id="Grupo_1173147" data-name="Grupo 1173147" transform="translate(0 0)">
                  <g id="Grupo_1163801" data-name="Grupo 1163801" transform="translate(0 0)">
                    <g id="Grupo_1163014" data-name="Grupo 1163014" transform="translate(0 0)">
                      <g id="Grupo_1157015" data-name="Grupo 1157015" transform="translate(0 0)">
                        <g id="Grupo_1155792" data-name="Grupo 1155792" transform="translate(0 0)">
                          <g id="Grupo_1154703" data-name="Grupo 1154703" transform="translate(0 0)">
                            <g id="Grupo_1150789" data-name="Grupo 1150789">
                              <g id="Grupo_1154212" data-name="Grupo 1154212">
                                <g id="Grupo_1152583" data-name="Grupo 1152583">
                                  <g id="Grupo_1146973" data-name="Grupo 1146973">
                                    <g id="Grupo_1146954" data-name="Grupo 1146954">
                                      <g transform="matrix(1, 0, 0, 1, -9, -6)" filter="url(#Trazado_982547)">
                                        <g id="Trazado_982547-2" data-name="Trazado 982547" transform="translate(9 6)" fill="#f2d944">
                                          <path d="M 46.00000762939453 90.49988555908203 C 39.99188613891602 90.49988555908203 34.16427612304688 89.32352447509766 28.67906188964844 87.00347137451172 C 23.38020706176758 84.76226043701172 18.62104797363281 81.55342864990234 14.53375434875488 77.46615600585938 C 10.44647407531738 73.37887573242188 7.237647533416748 68.61971282958984 4.996420860290527 63.32085800170898 C 2.676367521286011 57.83565902709961 1.500007629394531 52.00806045532227 1.500007629394531 45.99993896484375 C 1.500007629394531 39.99181747436523 2.676367521286011 34.16421890258789 4.996420860290527 28.67901802062988 C 7.237647533416748 23.38017845153809 10.44647407531738 18.62101936340332 14.53375434875488 14.53373908996582 C 18.62104797363281 10.44645881652832 23.38020706176758 7.237632274627686 28.67906188964844 4.996418952941895 C 34.16427612304688 2.676365613937378 39.99188613891602 1.500005602836609 46.00000762939453 1.500005602836609 C 52.00812911987305 1.500005602836609 57.83573913574219 2.676365613937378 63.32095336914062 4.996418952941895 C 68.61980438232422 7.237632274627686 73.37896728515625 10.44645881652832 77.46626281738281 14.53373908996582 C 81.55354309082031 18.62101936340332 84.76236724853516 23.38017845153809 87.00359344482422 28.67901802062988 C 89.32364654541016 34.16421890258789 90.50000762939453 39.99181747436523 90.50000762939453 45.99993896484375 C 90.50000762939453 52.00806045532227 89.32364654541016 57.83565902709961 87.00359344482422 63.32085800170898 C 84.76236724853516 68.61971282958984 81.55354309082031 73.37887573242188 77.46626281738281 77.46615600585938 C 73.37896728515625 81.55342864990234 68.61980438232422 84.76226043701172 63.32095336914062 87.00347137451172 C 57.83573913574219 89.32352447509766 52.00812911987305 90.49988555908203 46.00000762939453 90.49988555908203 Z" stroke="none"/>
                                          <path d="M 46.00000762939453 2.999992370605469 C 40.19372177124023 2.999992370605469 34.56270599365234 4.136497497558594 29.26339340209961 6.377906799316406 C 24.14333343505859 8.543510437011719 19.54441833496094 11.64437866210938 15.59440612792969 15.59439849853516 C 11.6444091796875 19.54439544677734 8.543525695800781 24.14329528808594 6.377922058105469 29.26335144042969 C 4.136505126953125 34.56266784667969 3.000007629394531 40.19366836547852 3.000007629394531 45.99993896484375 C 3.000007629394531 51.80620956420898 4.136505126953125 57.43722534179688 6.377922058105469 62.73654174804688 C 8.543525695800781 67.85658264160156 11.6444091796875 72.45548248291016 15.59440612792969 76.40549468994141 C 19.54441833496094 80.35549926757812 24.14333343505859 83.45636749267578 29.26337814331055 85.62196350097656 C 34.56270599365234 87.86338043212891 40.19372177124023 88.9998779296875 46.00000762939453 88.9998779296875 C 51.80629348754883 88.9998779296875 57.43730926513672 87.86338043212891 62.73662185668945 85.62196350097656 C 67.85668182373047 83.45636749267578 72.45558166503906 80.35549926757812 76.40559387207031 76.40549468994141 C 80.35560607910156 72.45548248291016 83.45648193359375 67.85658264160156 85.62207794189453 62.73654174804688 C 87.86351013183594 57.43722534179688 89.00000762939453 51.80620956420898 89.00000762939453 45.99993896484375 C 89.00000762939453 40.19366836547852 87.86351013183594 34.56266784667969 85.62207794189453 29.26335144042969 C 83.45648193359375 24.14329528808594 80.35560607910156 19.54439544677734 76.40559387207031 15.59439849853516 C 72.45558166503906 11.64437866210938 67.85668182373047 8.543510437011719 62.73662185668945 6.377906799316406 C 57.43729400634766 4.136497497558594 51.80629348754883 2.999992370605469 46.00000762939453 2.999992370605469 M 46.00000762939453 -7.62939453125e-06 C 71.40509033203125 -7.62939453125e-06 92.00000762939453 20.59487915039062 92.00000762939453 45.99993896484375 C 92.00000762939453 71.40501403808594 71.40509033203125 91.99988555908203 46.00000762939453 91.99988555908203 C 20.59490966796875 91.99988555908203 7.62939453125e-06 71.40501403808594 7.62939453125e-06 45.99993896484375 C 7.62939453125e-06 20.59487915039062 20.59490966796875 -7.62939453125e-06 46.00000762939453 -7.62939453125e-06 Z" stroke="none" fill="#ba9c5a"/>
                                        </g>
                                      </g>
                                    </g>
                                  </g>
                                </g>
                              </g>
                            </g>
                          </g>
                        </g>
                      </g>
                    </g>
                  </g>
                </g>
              </g>
            </g>
          </g>
        </g>
      </g>
    </g>
    <g id="crimen" transform="translate(3358.625 6244.575)">
      <circle id="Elipse_14306" data-name="Elipse 14306" cx="7.536" cy="7.536" r="7.536" transform="translate(26.839 16.074)" fill="#d8a148"/>
      <circle id="Elipse_14307" data-name="Elipse 14307" cx="5.383" cy="5.383" r="5.383" transform="translate(28.992 18.227)" fill="#f6b94d"/>
      <circle id="Elipse_14308" data-name="Elipse 14308" cx="7.536" cy="7.536" r="7.536" transform="translate(26.839 21.457)" fill="#d8a148"/>
      <circle id="Elipse_14309" data-name="Elipse 14309" cx="5.383" cy="5.383" r="5.383" transform="translate(28.992 23.61)" fill="#f6b94d"/>
      <circle id="Elipse_14310" data-name="Elipse 14310" cx="7.536" cy="7.536" r="7.536" transform="translate(26.839 26.84)" fill="#d8a148"/>
      <circle id="Elipse_14311" data-name="Elipse 14311" cx="5.383" cy="5.383" r="5.383" transform="translate(28.992 28.993)" fill="#f6b94d"/>
      <path id="Trazado_1082860" data-name="Trazado 1082860" d="M58.072,33.184v-3.23l5.2-11.479a1.738,1.738,0,0,0-1.558-2.517H61.1a1.744,1.744,0,0,0-.868.231V7.345a2.153,2.153,0,1,0-4.306,0V4.115a2.153,2.153,0,1,0-4.306,0V6.268a2.153,2.153,0,1,0-4.306,0V9.5A2.153,2.153,0,0,0,43,9.5v7.187a41.948,41.948,0,0,0,2.154,13.27v3.228Z" transform="translate(3.218 0.075)" fill="#e0cacd"/>
      <path id="Trazado_1082861" data-name="Trazado 1082861" d="M47.153,9.5V6.268a2.181,2.181,0,0,1,2.153-2.153A2.153,2.153,0,0,1,51.46,6.268V4.115a2.153,2.153,0,1,1,4.306,0v3.23a2.153,2.153,0,1,1,4.306,0v8.849a1.744,1.744,0,0,1,.868-.231h.617a1.742,1.742,0,0,1,1.561,2.513l-5.2,11.479V31.03H50.383a3.23,3.23,0,0,1-3.23-3.23A41.945,41.945,0,0,1,45,14.532V7.345A2.153,2.153,0,0,1,47.153,9.5Z" transform="translate(3.371 0.075)" fill="#f7dddf"/>
      <path id="Trazado_1082862" data-name="Trazado 1082862" d="M43,31H60.226v6.46H43Z" transform="translate(3.217 2.3)" fill="#333"/>
      <path id="Trazado_1082863" data-name="Trazado 1082863" d="M52.137,25.955l.369-2.211a3.994,3.994,0,0,1,3.952-3.348,1.077,1.077,0,0,0,.861-.431l2.707-3.61a.69.69,0,0,1,.2-.179L59.153,14.31a2.82,2.82,0,0,0-.851.754l-2.4,3.2a6.137,6.137,0,0,0-5.519,5.124L50.014,25.6Z" transform="translate(3.755 1.021)" fill="#c6b3b6"/>
      <path id="Trazado_1082864" data-name="Trazado 1082864" d="M54,6.962h2.153v8.613H54Z" transform="translate(4.06 0.458)" fill="#c6b3b6"/>
      <path id="Trazado_1082865" data-name="Trazado 1082865" d="M44,64.992V37H59.072V64.992Z" transform="translate(3.294 2.759)" fill="#d8a148"/>
      <path id="Trazado_1082866" data-name="Trazado 1082866" d="M58.919,64.826V39.159A15.063,15.063,0,0,0,46,54.06V64.826Z" transform="translate(3.447 2.925)" fill="#f6b94d"/>
      <path id="Trazado_1082867" data-name="Trazado 1082867" d="M43,33H60.226v2.153H43Z" transform="translate(3.217 2.453)" fill="#4d4d4d"/>
      <path id="Trazado_1082868" data-name="Trazado 1082868" d="M46,8.962h2.153v6.46H46Z" transform="translate(3.447 0.612)" fill="#c6b3b6"/>
      <path id="Trazado_1082869" data-name="Trazado 1082869" d="M50,6.962h2.153v8.613H50Z" transform="translate(3.754 0.458)" fill="#c6b3b6"/>
      <path id="Trazado_1082870" data-name="Trazado 1082870" d="M7.383,33.184v-3.23l-5.2-11.479a1.738,1.738,0,0,1,1.558-2.517h.617a1.744,1.744,0,0,1,.871.231V7.345a2.153,2.153,0,1,1,4.306,0V4.115a2.153,2.153,0,1,1,4.306,0V6.268a2.153,2.153,0,0,1,4.306,0V9.5a2.153,2.153,0,0,1,4.306,0v7.187A41.948,41.948,0,0,1,20.3,29.955v3.228Z" transform="translate(0.077 0.075)" fill="#e0cacd"/>
      <path id="Trazado_1082871" data-name="Trazado 1082871" d="M18.149,9.536V6.306A2.181,2.181,0,0,0,16,4.153a2.153,2.153,0,0,0-2.153,2.153V4.153a2.153,2.153,0,1,0-4.306,0v3.23a2.153,2.153,0,1,0-4.306,0v8.849A1.744,1.744,0,0,0,4.359,16H3.742a1.742,1.742,0,0,0-1.558,2.521l5.2,11.474v1.077h7.536a3.23,3.23,0,0,0,3.23-3.23A41.952,41.952,0,0,0,20.3,14.569V7.383A2.153,2.153,0,0,0,18.149,9.536Z" transform="translate(0.077 0.078)" fill="#f7dddf"/>
      <path id="Trazado_1082872" data-name="Trazado 1082872" d="M5,31H22.226v6.46H5Z" transform="translate(0.306 2.3)" fill="#333"/>
      <path id="Trazado_1082873" data-name="Trazado 1082873" d="M12.59,25.955l-.369-2.211a3.994,3.994,0,0,0-3.952-3.348,1.077,1.077,0,0,1-.861-.431L4.7,16.354a.69.69,0,0,0-.2-.179L5.574,14.31a2.82,2.82,0,0,1,.851.754l2.4,3.2a6.137,6.137,0,0,1,5.519,5.124l.368,2.21Z" transform="translate(0.268 1.021)" fill="#c6b3b6"/>
      <path id="Trazado_1082874" data-name="Trazado 1082874" d="M8,6.962h2.153v8.613H8Z" transform="translate(0.536 0.458)" fill="#c6b3b6"/>
      <path id="Trazado_1082875" data-name="Trazado 1082875" d="M21.072,64.992V37H6V64.992Z" transform="translate(0.383 2.759)" fill="#d8a148"/>
      <path id="Trazado_1082876" data-name="Trazado 1082876" d="M6,39.159V64.826H18.919V54.06A15.063,15.063,0,0,0,6,39.159Z" transform="translate(0.383 2.925)" fill="#f6b94d"/>
      <path id="Trazado_1082877" data-name="Trazado 1082877" d="M5,33H22.226v2.153H5Z" transform="translate(0.306 2.453)" fill="#4d4d4d"/>
      <path id="Trazado_1082878" data-name="Trazado 1082878" d="M57.055,42.7l-1.838-1.838V37H53.064v2.153a1.076,1.076,0,0,0-.761.315L46.92,44.852a1.077,1.077,0,0,0,0,1.522l.854.854L46.53,48.471a1.077,1.077,0,0,0-1-.705H36.915a1.077,1.077,0,0,0-1.077,1.077v1.077H31.532V48.843a1.077,1.077,0,0,0-1.077-1.077H21.843a1.069,1.069,0,0,0-1,.705L19.6,47.228l.854-.854a1.077,1.077,0,0,0,0-1.522l-5.383-5.383a1.077,1.077,0,0,0-.761-.315V37H12.153v3.861L10.315,42.7a1.077,1.077,0,0,0,0,1.522L15.7,49.6a1.077,1.077,0,0,0,1.522,0l.854-.854,2.692,2.692v1.707a1.077,1.077,0,0,0,1.077,1.077h8.613a1.077,1.077,0,0,0,1.077-1.077V52.072h4.306v1.077a1.077,1.077,0,0,0,1.077,1.077h8.613A1.077,1.077,0,0,0,46.6,53.149V51.442L49.3,48.75l.854.854a1.077,1.077,0,0,0,1.522,0l5.383-5.383A1.077,1.077,0,0,0,57.055,42.7ZM16.46,47.32,12.6,43.46l1.707-1.707,3.861,3.861Zm12.919,4.752h-6.46V49.919h6.46Zm15.072,0h-6.46V49.919h6.46Zm6.46-4.752L49.2,45.613l3.861-3.861,1.707,1.707Z" transform="translate(0.689 2.759)" fill="gray"/>
      <path id="Trazado_1082879" data-name="Trazado 1082879" d="M35.46,29.153H33.306V27H31.153v2.153H30.077a1.077,1.077,0,0,0-.761,1.838l2.469,2.469H29v2.153h2.153v2.153h2.153V35.613h1.077a1.077,1.077,0,0,0,.761-1.838l-2.469-2.469H35.46Z" transform="translate(2.145 1.993)" fill="#d8a148"/>
      <path id="Trazado_1082880" data-name="Trazado 1082880" d="M16,8.962h2.153v6.46H16Z" transform="translate(1.149 0.612)" fill="#c6b3b6"/>
      <path id="Trazado_1082881" data-name="Trazado 1082881" d="M12,6.962h2.153v8.613H12Z" transform="translate(0.843 0.458)" fill="#c6b3b6"/>
      <path id="Trazado_1082882" data-name="Trazado 1082882" d="M6.383,30.3v1.921H5.306A1.077,1.077,0,0,0,4.23,33.3v6.46a1.077,1.077,0,0,0,1.077,1.077V67.751H7.46V44.133c0-1.5,0-2.543-.017-3.3h5.4V43.62L11,45.458a1.077,1.077,0,0,0,0,1.522l5.383,5.383a1.077,1.077,0,0,0,1.522,0l.854-.854,1.615,1.615V67.751h2.153V56.985h8.613a1.077,1.077,0,0,0,1.077-1.077V54.832h4.306v1.077A1.077,1.077,0,0,0,37.6,56.985h8.613V67.751h2.153V53.124l1.615-1.615.854.854a1.077,1.077,0,0,0,1.522,0l5.383-5.383a1.077,1.077,0,0,0,0-1.522L55.907,43.62V40.836h5.4c-.017.754-.017,1.8-.017,3.3V67.751h2.153V40.836a1.077,1.077,0,0,0,1.077-1.077V33.3a1.077,1.077,0,0,0-1.077-1.077H62.366V30.3l5.086-11.226A2.82,2.82,0,0,0,64.931,15H64.52V7.461a3.23,3.23,0,0,0-4.306-3.046V4.231a3.23,3.23,0,0,0-6.352-.849,3.23,3.23,0,0,0-4.414,3v.184a3.23,3.23,0,0,0-4.306,3.046V16.8A42.988,42.988,0,0,0,47.3,30.253l0,1.97H46.217A1.077,1.077,0,0,0,45.141,33.3v6.46a1.077,1.077,0,0,0,1.077,1.077v9.689H37.6A1.077,1.077,0,0,0,36.528,51.6v1.077H32.222V51.6a1.077,1.077,0,0,0-1.077-1.077H22.532V40.836a1.077,1.077,0,0,0,1.077-1.077V33.3a1.077,1.077,0,0,0-1.077-1.077H21.455v-1.98A42.973,42.973,0,0,0,23.609,16.8V9.614A3.23,3.23,0,0,0,19.3,6.569V6.385a3.23,3.23,0,0,0-4.414-3,3.23,3.23,0,0,0-6.352.849v.184A3.23,3.23,0,0,0,4.23,7.461V15H3.819A2.822,2.822,0,0,0,1,17.816a2.787,2.787,0,0,0,.28,1.223ZM48.371,50.08v-.185l.093.093Zm3.23,0-1.707-1.707,3.861-3.861,1.707,1.707ZM49.391,29.732a40.828,40.828,0,0,1-2.1-12.931V9.614a1.077,1.077,0,1,1,2.153,0v6.46H51.6V6.385a1.077,1.077,0,1,1,2.153,0v9.689h2.153V4.231a1.077,1.077,0,1,1,2.153,0V16.074h2.153V7.461a1.077,1.077,0,1,1,2.153,0V15.8a2.631,2.631,0,0,0-.307.323l-2.4,3.2a6.137,6.137,0,0,0-5.519,5.122l-.368,2.211,2.123.355.369-2.212a3.994,3.994,0,0,1,3.952-3.349,1.077,1.077,0,0,0,.861-.431l2.707-3.61a.67.67,0,0,1,.533-.266h.617a.665.665,0,0,1,.665.665.724.724,0,0,1-.088.335l-5.2,11.474a1.077,1.077,0,0,0-.1.445v2.153H49.447V30.07a1.077,1.077,0,0,0-.056-.34Zm-2.1,4.644H62.366v4.306H47.294Zm6.46,6.46v1.077a1.076,1.076,0,0,0-.761.315L48.371,46.85V40.836ZM38.681,52.679h6.46v2.153h-6.46Zm-32.3-18.3H21.455v4.306H6.383Zm10.766,15.7-3.861-3.861L15,44.512l3.861,3.861Zm3.137-.093.093-.093v.185Zm3.322,2.692h6.46v2.153h-6.46Zm-3.23-5.829-4.622-4.622A1.077,1.077,0,0,0,15,41.913V40.836h5.383Zm-16.56-29.7h.617a.67.67,0,0,1,.538.266l2.7,3.61a1.077,1.077,0,0,0,.861.431,3.994,3.994,0,0,1,3.952,3.348l.369,2.212,2.123-.355-.368-2.21a6.137,6.137,0,0,0-5.519-5.124l-2.4-3.2a2.631,2.631,0,0,0-.307-.323V7.461a1.077,1.077,0,0,1,2.153,0v8.613h2.153V4.231a1.077,1.077,0,1,1,2.153,0V16.074H15V6.385a1.077,1.077,0,1,1,2.153,0v9.689H19.3V9.614a1.077,1.077,0,0,1,2.153,0V16.8a40.828,40.828,0,0,1-2.1,12.929,1.077,1.077,0,0,0-.056.34v2.153H8.536V30.07a1.077,1.077,0,0,0-.1-.445L3.223,18.12a.666.666,0,0,1,.6-.969Z" transform="translate(0 0)"/>
      <path id="Trazado_1082883" data-name="Trazado 1082883" d="M33.306,27H31.153v2.153H30.077a1.077,1.077,0,0,0-.761,1.838l2.469,2.469H29v2.153h2.153v2.153h2.153V35.613h1.077a1.077,1.077,0,0,0,.761-1.838l-2.469-2.469H35.46V29.153H33.306Z" transform="translate(2.145 1.993)"/>
      <path id="Trazado_1082884" data-name="Trazado 1082884" d="M32.613,41.993a8.6,8.6,0,0,0,8.176-11.3,8.5,8.5,0,0,0,0-5.383,8.613,8.613,0,1,0-16.35,0,8.492,8.492,0,0,0,0,5.383,8.6,8.6,0,0,0,8.175,11.3Zm0-2.153a6.46,6.46,0,1,1,6.46-6.46,6.46,6.46,0,0,1-6.46,6.46Zm0-23.685A6.46,6.46,0,0,1,39.056,22.3a8.574,8.574,0,0,0-12.887,0,6.46,6.46,0,0,1,6.443-6.147Zm0,5.383a6.46,6.46,0,0,1,6.443,6.147,8.574,8.574,0,0,0-12.887,0A6.46,6.46,0,0,1,32.613,21.538Z" transform="translate(1.762 0.996)"/>
    </g>
  </g>
</svg>
