<svg xmlns="http://www.w3.org/2000/svg" xmlns:xlink="http://www.w3.org/1999/xlink" width="108" height="108" viewBox="0 0 108 108">
  <defs>
    <filter id="Trazado_904820" x="0" y="0" width="108" height="108" filterUnits="userSpaceOnUse">
      <feOffset dy="3" input="SourceAlpha"/>
      <feGaussianBlur stdDeviation="3" result="blur"/>
      <feFlood flood-opacity="0.161"/>
      <feComposite operator="in" in2="blur"/>
      <feComposite in="SourceGraphic"/>
    </filter>
  </defs>
  <g id="Grupo_1211030" data-name="Grupo 1211030" transform="translate(-192 -7215)">
    <g id="Grupo_1209923" data-name="Grupo 1209923" transform="translate(-2 2421.945)">
      <g id="Grupo_1208067" data-name="Grupo 1208067" transform="translate(203 4797.713)">
        <g id="Grupo_1206630" data-name="Grupo 1206630" transform="translate(0 1.342)">
          <g id="Grupo_1185091" data-name="Grupo 1185091" transform="translate(0 0)">
            <g id="Grupo_1179560" data-name="Grupo 1179560">
              <g id="Grupo_1173787" data-name="Grupo 1173787" transform="translate(0)">
                <g id="Grupo_1171910" data-name="Grupo 1171910">
                  <g id="Grupo_1167341" data-name="Grupo 1167341">
                    <g id="Grupo_1166792" data-name="Grupo 1166792">
                      <g transform="matrix(1, 0, 0, 1, -9, -6)" filter="url(#Trazado_904820)">
                        <g id="Trazado_904820-2" data-name="Trazado 904820" transform="translate(9 6)" fill="#fdfaeb">
                          <path d="M 44.99999618530273 88.50006866455078 C 39.12687301635742 88.50006866455078 33.43022155761719 87.35014343261719 28.06829643249512 85.08222961425781 C 22.88852119445801 82.89136505126953 18.23629570007324 79.75465393066406 14.24084663391113 75.75919342041016 C 10.24540901184082 71.76374053955078 7.108683586120605 67.11151885986328 4.917821407318115 61.93174362182617 C 2.649921178817749 56.56980514526367 1.499996185302734 50.87315368652344 1.499996185302734 45.00003051757812 C 1.499996185302734 39.12690734863281 2.649921178817749 33.43025588989258 4.917821407318115 28.06831741333008 C 7.108683586120605 22.88854217529297 10.24540901184082 18.23631858825684 14.24084663391113 14.24086761474609 C 18.23629570007324 10.24541759490967 22.88852119445801 7.10869312286377 28.06829643249512 4.917842864990234 C 33.43022155761719 2.649930477142334 39.12687301635742 1.500005483627319 44.99999618530273 1.500005483627319 C 50.87311935424805 1.500005483627319 56.56977081298828 2.649930477142334 61.93169784545898 4.917842864990234 C 67.11147308349609 7.10869312286377 71.76369476318359 10.24541759490967 75.75914764404297 14.24086761474609 C 79.75458526611328 18.23631858825684 82.89131164550781 22.88854217529297 85.08216857910156 28.06831741333008 C 87.35007476806641 33.43025588989258 88.5 39.12690734863281 88.5 45.00003051757812 C 88.5 50.87315368652344 87.35007476806641 56.56980514526367 85.08216857910156 61.93174362182617 C 82.89131164550781 67.11151885986328 79.75458526611328 71.76374053955078 75.75914764404297 75.75919342041016 C 71.76369476318359 79.75465393066406 67.11147308349609 82.89136505126953 61.93169784545898 85.08222961425781 C 56.56977081298828 87.35014343261719 50.87311935424805 88.50006866455078 44.99999618530273 88.50006866455078 Z" stroke="none"/>
                          <path d="M 44.99999618530273 3 C 39.32870864868164 3 33.82865142822266 4.110061645507812 28.65262603759766 6.299346923828125 C 23.65165710449219 8.414573669433594 19.15968322753906 11.44334411621094 15.301513671875 15.30152893066406 C 11.44333648681641 19.15969848632812 8.414566040039062 23.65167236328125 6.299339294433594 28.65264511108398 C 4.110054016113281 33.82868576049805 2.999992370605469 39.32874298095703 2.999992370605469 45.00003051757812 C 2.999992370605469 50.67131805419922 4.110054016113281 56.1713752746582 6.299339294433594 61.34741592407227 C 8.414566040039062 66.348388671875 11.44333648681641 70.84036254882812 15.301513671875 74.69853210449219 C 19.15968322753906 78.55671691894531 23.65165710449219 81.58548736572266 28.65262603759766 83.70071411132812 C 33.82865142822266 85.88999938964844 39.32870864868164 87.00006103515625 44.99999618530273 87.00006103515625 C 50.67128372192383 87.00006103515625 56.17134094238281 85.88999938964844 61.34736633300781 83.70071411132812 C 66.34834289550781 81.58548736572266 70.84030914306641 78.55671691894531 74.69847869873047 74.69853210449219 C 78.55665588378906 70.84036254882812 81.58542633056641 66.348388671875 83.70065307617188 61.34741592407227 C 85.88993835449219 56.1713752746582 87 50.67131805419922 87 45.00003051757812 C 87 39.32874298095703 85.88993835449219 33.82868576049805 83.70065307617188 28.65264511108398 C 81.58542633056641 23.65167236328125 78.55665588378906 19.15969848632812 74.69847869873047 15.30152893066406 C 70.84030914306641 11.44334411621094 66.34834289550781 8.414573669433594 61.34736633300781 6.299346923828125 C 56.17134094238281 4.110061645507812 50.67128372192383 3 44.99999618530273 3 M 44.99999618530273 0 C 69.85281372070312 0 90 20.14720153808594 90 45.00003051757812 C 90 69.85285949707031 69.85281372070312 90.00006103515625 44.99999618530273 90.00006103515625 C 20.14717864990234 90.00006103515625 -7.62939453125e-06 69.85285949707031 -7.62939453125e-06 45.00003051757812 C -7.62939453125e-06 20.14720153808594 20.14717864990234 0 44.99999618530273 0 Z" stroke="none" fill="#847625"/>
                        </g>
                      </g>
                    </g>
                  </g>
                </g>
              </g>
            </g>
          </g>
        </g>
      </g>
    </g>
    <g id="Page-1" transform="translate(213.16 7233.161)">
      <g id="_001---Coin" data-name="001---Coin" transform="translate(-0.003 0)">
        <path id="Path" d="M65.493,32.746a31.5,31.5,0,0,1-3.711,14.9l-2.857-2.857H53.451l2.332,2.332,1.533,1.544h.011l.5.5v4.258a31.746,31.746,0,0,1-51.889-36h7.006l3.284-3.284H11.853l-2.244-2A31.746,31.746,0,0,1,65.493,32.746Z" transform="translate(-0.902 0.095)" fill="#ff9801" fill-rule="evenodd"/>
        <path id="Path-2" data-name="Path" d="M54.714,44.875l-1.533-1.544L50.85,41H47.566L49.9,43.332l1.533,1.544h.011l.5.5v4.258A31.637,31.637,0,0,1,29.467,60.66q.834.045,1.678.045A31.65,31.65,0,0,0,55.229,49.637V45.379l-.5-.5Z" transform="translate(1.7 3.883)" fill="#f57c00" fill-rule="evenodd"/>
        <path id="Path-3" data-name="Path" d="M31.139,1c-.539,0-1.073.019-1.6.045a31.735,31.735,0,0,1,27.419,44.38l2.22,2.22A31.746,31.746,0,0,0,31.139,1Z" transform="translate(1.706 0.095)" fill="#f57c00" fill-rule="evenodd"/>
        <path id="Path-4" data-name="Path" d="M47.263,35.141l-2.945.744.821.821a1.087,1.087,0,0,1-.5,1.828l-.558.142.766,1.544a1.087,1.087,0,0,1-.471,1.412c-.974.624-1.27,2.157-1.314,3.558a2.169,2.169,0,0,1-2.726,1.992c-1.533-.394-3.47-.9-5.244-1.39-1.357,4.127.471,8.7.471,8.7-8.779-6.207-14.286-6.787-17.406-6.119l-.109-.449c4.379-7.663,2.189-9.852,1.095-14.231-.307-1.237-.887-3.087-1.292-5.233l-.328-7.116A12.122,12.122,0,0,1,24.614,11.8a15.478,15.478,0,0,1,18.052,2.715l3.229,7.619a2.555,2.555,0,0,1-.482,3.755V28.1a4.458,4.458,0,0,0,.624,2.255l1.9,3.164a1.095,1.095,0,0,1-.679,1.62Z" transform="translate(0.568 0.951)" fill="#ffdf00" fill-rule="evenodd"/>
        <path id="Path-5" data-name="Path" d="M46.845,33.52l-1.9-3.164a4.458,4.458,0,0,1-.624-2.255V25.89a2.555,2.555,0,0,0,.482-3.755l-3.229-7.619A15.962,15.962,0,0,0,29.1,10.111a16.639,16.639,0,0,1,9.185,4.405l3.229,7.619a2.555,2.555,0,0,1-.482,3.755V28.1a4.458,4.458,0,0,0,.624,2.255l1.9,3.164a1.095,1.095,0,0,1-.679,1.62l-2.945.744.821.821a1.087,1.087,0,0,1-.5,1.828l-.558.142.766,1.544a1.087,1.087,0,0,1-.471,1.412c-.974.624-1.27,2.157-1.314,3.558a2.124,2.124,0,0,1-.86,1.625l1.423.368a2.169,2.169,0,0,0,2.726-1.992c.044-1.4.339-2.934,1.314-3.558a1.087,1.087,0,0,0,.471-1.412l-.766-1.544.558-.142a1.087,1.087,0,0,0,.5-1.828l-.825-.821,2.945-.744a1.095,1.095,0,0,0,.679-1.62Z" transform="translate(1.665 0.952)" fill="#fec108" fill-rule="evenodd"/>
        <path id="Path-6" data-name="Path" d="M33.671,43.522c-1.006-.264-2.055-.547-3.057-.822a12.555,12.555,0,0,0-.228,6.137c1.248.726,2.568,1.567,3.983,2.566A15.008,15.008,0,0,1,33.671,43.522Z" transform="translate(1.76 4.044)" fill="#fec108" fill-rule="evenodd"/>
        <path id="Path-7" data-name="Path" d="M17.1,25.181s-1.049-2.627.068-4.231,3.96-1.685,3.957-1.695,1.048,2.62-.058,4.291S17.1,25.19,17.1,25.181Z" transform="translate(0.486 1.823)" fill="#ffeb3a" fill-rule="evenodd"/>
        <path id="Path-8" data-name="Path" d="M17.075,24.738a6.438,6.438,0,0,0,2.266,3.995,6.061,6.061,0,0,0,4.556.547,6.209,6.209,0,0,0-2.256-3.941A6.92,6.92,0,0,0,17.075,24.738Z" transform="translate(0.526 2.328)" fill="#ffeb3a" fill-rule="evenodd"/>
        <path id="Path-9" data-name="Path" d="M25.078,24.047s-1.042-2.593.045-4.355,3.866-2.137,3.863-2.147,1.04,2.585-.031,4.415-3.875,2.1-3.877,2.086Z" transform="translate(1.241 1.662)" fill="#ffeb3a" fill-rule="evenodd"/>
        <path id="Path-10" data-name="Path" d="M25.054,23.573s.383,2.737,2.243,3.871,4.465.109,4.462.1-.385-2.751-2.229-3.812S25.056,23.583,25.054,23.573Z" transform="translate(1.282 2.199)" fill="#ffeb3a" fill-rule="evenodd"/>
        <path id="Path-11" data-name="Path" d="M32.863,22.07s-1.032-2.559.013-4.476A6.645,6.645,0,0,1,36.609,15a6.207,6.207,0,0,1,.007,4.534A5.842,5.842,0,0,1,32.863,22.07Z" transform="translate(1.978 1.421)" fill="#ffeb3a" fill-rule="evenodd"/>
        <path id="Path-12" data-name="Path" d="M32.839,21.569s.393,2.776,2.211,3.75,4.335-.335,4.332-.345-.4-2.785-2.189-3.692S32.842,21.579,32.839,21.569Z" transform="translate(2.019 1.983)" fill="#ffeb3a" fill-rule="evenodd"/>
        <path id="Path-13" data-name="Path" d="M40.4,19.259a6.448,6.448,0,0,1-.03-4.6,7.249,7.249,0,0,1,3.572-3.016A6.683,6.683,0,0,1,44,16.3,6.319,6.319,0,0,1,40.4,19.259Z" transform="translate(2.693 1.103)" fill="#ffeb3a" fill-rule="evenodd"/>
        <path id="Path-14" data-name="Path" d="M40.379,18.739s.406,2.811,2.169,3.632,4.17-.766,4.165-.777-.408-2.819-2.143-3.575S40.383,18.749,40.379,18.739Z" transform="translate(2.733 1.686)" fill="#ffeb3a" fill-rule="evenodd"/>
        <g id="Grupo_1211029" data-name="Grupo 1211029">
          <circle id="Oval" cx="1.095" cy="1.095" r="1.095" transform="translate(31.75 4.379)"/>
          <circle id="Oval-2" data-name="Oval" cx="1.095" cy="1.095" r="1.095" transform="translate(31.75 59.114)"/>
          <circle id="Oval-3" data-name="Oval" cx="1.095" cy="1.095" r="1.095" transform="translate(59.117 31.746)"/>
          <circle id="Oval-4" data-name="Oval" cx="1.095" cy="1.095" r="1.095" transform="translate(4.383 31.746)"/>
          <path id="Path-15" data-name="Path" d="M48,11.643a1.095,1.095,0,1,0,1.548,0A1.095,1.095,0,0,0,48,11.643Z" transform="translate(3.424 1.072)" fill-rule="evenodd"/>
          <path id="Path-16" data-name="Path" d="M12.643,47a1.095,1.095,0,1,0,1.548,0A1.095,1.095,0,0,0,12.643,47Z" transform="translate(0.076 4.42)" fill-rule="evenodd"/>
          <path id="Path-17" data-name="Path" d="M48,48.547A1.095,1.095,0,1,0,48,47,1.095,1.095,0,0,0,48,48.547Z" transform="translate(3.424 4.42)" fill-rule="evenodd"/>
          <path id="Path-18" data-name="Path" d="M21.947,8.009a1.095,1.095,0,1,0-.838,0,1.095,1.095,0,0,0,.838,0Z" transform="translate(0.844 0.559)" fill-rule="evenodd"/>
          <path id="Path-19" data-name="Path" d="M40.242,52.18a1.095,1.095,0,1,0,.838,0,1.095,1.095,0,0,0-.838,0Z" transform="translate(2.656 4.933)" fill-rule="evenodd"/>
          <path id="Path-20" data-name="Path" d="M54.611,21.539a1.095,1.095,0,1,0-.838,0,1.095,1.095,0,0,0,.838,0Z" transform="translate(3.937 1.84)" fill-rule="evenodd"/>
          <path id="Path-21" data-name="Path" d="M7.578,38.65a1.095,1.095,0,1,0,.838,0,1.095,1.095,0,0,0-.838,0Z" transform="translate(-0.437 3.652)" fill-rule="evenodd"/>
          <path id="Path-22" data-name="Path" d="M40.242,8.009a1.095,1.095,0,1,0-.593-.593,1.095,1.095,0,0,0,.593.593Z" transform="translate(2.656 0.559)" fill-rule="evenodd"/>
          <path id="Path-23" data-name="Path" d="M21.947,52.18a1.095,1.095,0,1,0,.593.593,1.095,1.095,0,0,0-.593-.593Z" transform="translate(0.844 4.933)" fill-rule="evenodd"/>
          <path id="Path-24" data-name="Path" d="M8.417,19.516a1.095,1.095,0,1,0,.593.593,1.095,1.095,0,0,0-.593-.593Z" transform="translate(-0.437 1.84)" fill-rule="evenodd"/>
          <path id="Path-25" data-name="Path" d="M26.431,6.649a1.095,1.095,0,1,0-.822-.164,1.095,1.095,0,0,0,.822.164Z" transform="translate(1.288 0.424)" fill-rule="evenodd"/>
          <circle id="Oval-5" data-name="Oval" cx="1.095" cy="1.095" r="1.095" transform="translate(36.759 60.344) rotate(-68.465)"/>
          <path id="Path-26" data-name="Path" d="M54.541,25.431a1.095,1.095,0,1,0,.164-.822,1.095,1.095,0,0,0-.164.822Z" transform="translate(4.072 2.284)" fill-rule="evenodd"/>
          <path id="Path-27" data-name="Path" d="M7.649,34.758a1.095,1.095,0,1,0-.164.822,1.095,1.095,0,0,0,.164-.822Z" transform="translate(-0.572 3.208)" fill-rule="evenodd"/>
          <path id="Path-28" data-name="Path" d="M45.894,9.916a1.095,1.095,0,1,0-1.518.3,1.095,1.095,0,0,0,1.518-.3Z" transform="translate(3.065 0.778)" fill-rule="evenodd"/>
          <path id="Path-29" data-name="Path" d="M16.295,50.273a1.095,1.095,0,1,0,1.518-.3,1.095,1.095,0,0,0-1.518.3Z" transform="translate(0.435 4.715)" fill-rule="evenodd"/>
          <path id="Path-30" data-name="Path" d="M17.813,10.218a1.095,1.095,0,1,0-1.518-.3,1.095,1.095,0,0,0,1.518.3Z" transform="translate(0.435 0.778)" fill-rule="evenodd"/>
          <path id="Path-31" data-name="Path" d="M44.376,49.971a1.095,1.095,0,1,0,1.518.3,1.095,1.095,0,0,0-1.518-.3Z" transform="translate(3.065 4.715)" fill-rule="evenodd"/>
          <path id="Path-32" data-name="Path" d="M52.489,17.115a1.095,1.095,0,1,0-1.518-.3,1.095,1.095,0,0,0,1.518.3Z" transform="translate(3.718 1.431)" fill-rule="evenodd"/>
          <path id="Path-33" data-name="Path" d="M9.7,43.074a1.095,1.095,0,1,0,1.518.3,1.095,1.095,0,0,0-1.518-.3Z" transform="translate(-0.218 4.062)" fill-rule="evenodd"/>
          <path id="Path-34" data-name="Path" d="M35.758,6.649A1.095,1.095,0,1,0,34.9,5.361a1.095,1.095,0,0,0,.856,1.287Z" transform="translate(2.212 0.424)" fill-rule="evenodd"/>
          <circle id="Oval-6" data-name="Oval" cx="1.095" cy="1.095" r="1.095" transform="translate(26.094 59.019) rotate(-21.535)"/>
          <path id="Path-35" data-name="Path" d="M55.828,33.9a1.095,1.095,0,1,0,.859,1.287A1.095,1.095,0,0,0,55.828,33.9Z" transform="translate(4.072 3.208)" fill-rule="evenodd"/>
          <path id="Path-36" data-name="Path" d="M6.361,26.288A1.095,1.095,0,1,0,5.5,25a1.095,1.095,0,0,0,.859,1.283Z" transform="translate(-0.572 2.284)" fill-rule="evenodd"/>
          <path id="Shape" d="M47.689,17.845a3.612,3.612,0,0,0-.453-.142,5.3,5.3,0,0,0,.4-.707,7.7,7.7,0,0,0-.034-5.5,1.083,1.083,0,0,0-1.484-.582,9.314,9.314,0,0,0-3.09,2.107,16.387,16.387,0,0,0-18.38-2.1,13.213,13.213,0,0,0-7.611,10,3.37,3.37,0,0,0-.323.37,5.12,5.12,0,0,0-.574,3.9c-1.026.079-2.053.146-3.084.186a1.095,1.095,0,1,0,.043,2.189h.043q1.782-.069,3.55-.219a7.928,7.928,0,0,0,.646,1.587c.289,1.48.649,2.813.943,3.888.125.453.236.863.328,1.222.2.813.438,1.539.664,2.241.994,3.077,1.713,5.3-1.642,11.181a1.063,1.063,0,0,0-.05.151,8.33,8.33,0,0,0-1.631.7,1.095,1.095,0,0,0,1.082,1.9c1.834-1.042,7.3-2.619,18.434,5.255a1.095,1.095,0,0,0,1.649-1.3,14.231,14.231,0,0,1-.7-6.945c1.423.386,2.894.772,4.187,1.106a3.272,3.272,0,0,0,2.795-.547,3.205,3.205,0,0,0,1.293-2.469c.045-1.376.348-2.372.81-2.663a2.174,2.174,0,0,0,.865-2.832l-.229-.459a2.164,2.164,0,0,0,.736-2.766l1.2-.3a2.189,2.189,0,0,0,1.346-3.251l-1.9-3.166a3.284,3.284,0,0,1-.481-1.695V26.461a3.681,3.681,0,0,0,1.08-2.23,7.054,7.054,0,0,0,2.065-1.03,1.107,1.107,0,0,0,.307-.948c-.09-.571-.645-3.472-2.795-4.407Zm-1.81-4.359a4.624,4.624,0,0,1-.236,2.609,4.388,4.388,0,0,1-1.871,1.885,4.393,4.393,0,0,1,.236-2.593A4.934,4.934,0,0,1,45.879,13.486ZM25.627,12.87a14.3,14.3,0,0,1,16.225,2.009,6.967,6.967,0,0,0-.117,4.031c-.547.234-1.095.471-1.642.692l-.019.008-.034.013-.143.058h-.008a6.77,6.77,0,0,0-.575-4.9,1.1,1.1,0,0,0-.953-.3.977.977,0,0,0-.169.044,7.462,7.462,0,0,0-4.337,3.1,6.2,6.2,0,0,0-.4,4.309c-.657.2-1.326.378-1.99.562a6.6,6.6,0,0,0-.486-4.908,1.1,1.1,0,0,0-.918-.328,1.046,1.046,0,0,0-.117.02c-.985.182-3.409.8-4.552,2.639a5.692,5.692,0,0,0-.485,4.1c-.707.134-1.414.265-2.126.379a6.923,6.923,0,0,0-.195-4.588,1.1,1.1,0,0,0-1.147-.682,9.8,9.8,0,0,0-1.79.314,11.1,11.1,0,0,1,5.976-6.575ZM35.77,18.685a4.379,4.379,0,0,1,2.038-1.673,4.228,4.228,0,0,1-.233,2.592,3.911,3.911,0,0,1-2.031,1.642,4.025,4.025,0,0,1,.226-2.558Zm4.311,6.764a3.452,3.452,0,0,1-2.539.032,3.612,3.612,0,0,1-1.434-2.08,3.8,3.8,0,0,1,2.564-.014,3.448,3.448,0,0,1,1.409,2.066Zm-8.4,2.673a3.722,3.722,0,0,1-2.58-.269,4,4,0,0,1-1.477-2.117,4.16,4.16,0,0,1,2.6.286A3.819,3.819,0,0,1,31.683,28.122ZM27.25,21.079a3.985,3.985,0,0,1,2.175-1.411,3.8,3.8,0,0,1-.219,2.55A3.613,3.613,0,0,1,27.048,23.6a3.581,3.581,0,0,1,.2-2.518ZM18.94,27.17a4.651,4.651,0,0,1,2.588.574,4.138,4.138,0,0,1,1.49,2.126,4.142,4.142,0,0,1-2.577-.562A4.379,4.379,0,0,1,18.94,27.17ZM18.5,22.553a3.653,3.653,0,0,1,2.28-1.121,3.452,3.452,0,0,1-.192,2.487,3.146,3.146,0,0,1-2.1,1.056l-.161.016a3.307,3.307,0,0,1,.172-2.443Zm29.02,11.624-2.946.737a1.095,1.095,0,0,0-.509,1.836l.823.823-2.5.625a1.095,1.095,0,0,0,.265,2.159,1.054,1.054,0,0,0,.266-.033l1.075-.268.328.752c-1.142.721-1.752,2.217-1.83,4.443a1.019,1.019,0,0,1-.416.788,1.1,1.1,0,0,1-.936.185c-2.224-.575-6.909-1.8-9.086-2.528a2.228,2.228,0,0,1-1.494-3,1.095,1.095,0,1,0-2.08-.685,4.429,4.429,0,0,0,2.882,5.764c.75.25,1.777.555,2.923.876a14.355,14.355,0,0,0-.008,5.4c-6.293-3.99-10.846-5.018-14.006-4.883,2.944-5.761,2.039-8.581,1.08-11.55-.219-.667-.438-1.356-.623-2.1-.092-.372-.208-.8-.337-1.269-.054-.2-.109-.412-.169-.625a6.662,6.662,0,0,0,2.4.438c.084,0,.163,0,.244-.007-.149,1.181-.269,3.565.9,4.989a3.084,3.084,0,0,0,2.47,1.119,1.095,1.095,0,1,0,0-2.189.887.887,0,0,1-.777-.319c-.669-.812-.517-2.943-.338-3.847a1.037,1.037,0,0,0,0-.261,1.1,1.1,0,0,0,.347-.953,7.748,7.748,0,0,0-1.983-4.084c.657-.109,1.314-.24,1.97-.365a6.263,6.263,0,0,0,2.512,3.571,5.134,5.134,0,0,0,2.694.69,6.691,6.691,0,0,0,3-.657,1.1,1.1,0,0,0,.424-1.032,7.328,7.328,0,0,0-2.08-4.1c.674-.186,1.35-.363,2.02-.567A5.758,5.758,0,0,0,36.5,27.405a4.357,4.357,0,0,0,2.089.495,7.159,7.159,0,0,0,3.489-.985,1.106,1.106,0,0,0,.357-.992,6.885,6.885,0,0,0-2.127-4.069c.143-.056.289-.109.431-.162l.023-.009.032-.013.038-.015h.021l.014-.007.036-.014h.01l.032-.012c.455-.184.908-.38,1.361-.571A5.112,5.112,0,0,0,44.763,24.2a3.491,3.491,0,0,0,1.018.282,4.981,4.981,0,0,1-2.386,1.7,1.1,1.1,0,0,0,.69,2.08,7.715,7.715,0,0,0,.75-.3V28.2a5.483,5.483,0,0,0,.779,2.817ZM45.7,22.21a3.331,3.331,0,0,1-1.367-2.037,3.527,3.527,0,0,1,2.49-.319,3.2,3.2,0,0,1,1.331,2.019A3.248,3.248,0,0,1,45.7,22.21Z" transform="translate(0.044 0.854)"/>
          <path id="Shape-2" data-name="Shape" d="M33.841,0A32.786,32.786,0,0,0,8.87,11.517a1.1,1.1,0,0,0,.1,1.527l2.244,2a1.1,1.1,0,0,0,.729.278h1.736L12.589,16.42H6.036a1.1,1.1,0,0,0-.957.564A32.841,32.841,0,0,0,58.756,54.232a1.1,1.1,0,0,0,.264-.713V49.261a1.1,1.1,0,0,0-.321-.774l-.5-.5A1.066,1.066,0,0,0,58.1,47.9l-1.916-1.926h2.378L61.1,48.514a1.095,1.095,0,0,0,1.739-.257A32.841,32.841,0,0,0,33.841,0ZM61.579,45.894l-1.785-1.785a1.1,1.1,0,0,0-.774-.321H53.546a1.095,1.095,0,0,0-.774,1.869l3.862,3.873a1.191,1.191,0,0,0,.1.085l.1.1v3.394A30.652,30.652,0,0,1,6.693,18.61h6.349a1.1,1.1,0,0,0,.774-.321L17.1,15.005a1.095,1.095,0,0,0-.774-1.869H12.364l-1.12-1A30.652,30.652,0,0,1,61.579,45.894Z" transform="translate(-0.997 0)"/>
        </g>
      </g>
    </g>
  </g>
</svg>
