<svg xmlns="http://www.w3.org/2000/svg" xmlns:xlink="http://www.w3.org/1999/xlink" width="103" height="103" viewBox="0 0 103 103">
  <defs>
    <filter id="Trazado_978624" x="0" y="0" width="103" height="103" filterUnits="userSpaceOnUse">
      <feOffset dy="3" input="SourceAlpha"/>
      <feGaussianBlur stdDeviation="3" result="blur"/>
      <feFlood flood-opacity="0.161"/>
      <feComposite operator="in" in2="blur"/>
      <feComposite in="SourceGraphic"/>
    </filter>
  </defs>
  <g id="Grupo_1211033" data-name="Grupo 1211033" transform="translate(-615 -8094)">
    <g id="Grupo_1209924" data-name="Grupo 1209924" transform="translate(449.5 7036)">
      <g id="Grupo_1178144" data-name="Grupo 1178144" transform="translate(-19.5 -2004)">
        <g id="Grupo_1177896" data-name="Grupo 1177896" transform="translate(14 196)">
          <g id="Grupo_1176881" data-name="Grupo 1176881">
            <g id="Grupo_1175148" data-name="Grupo 1175148" transform="translate(0 1580)">
              <g id="Grupo_1173798" data-name="Grupo 1173798" transform="translate(-3 -3520)">
                <g id="Grupo_1171925" data-name="Grupo 1171925" transform="translate(-22 -2246)">
                  <g id="Grupo_1164524" data-name="Grupo 1164524" transform="translate(205 7058)">
                    <g id="Grupo_1144123" data-name="Grupo 1144123">
                      <g transform="matrix(1, 0, 0, 1, -9, -6)" filter="url(#Trazado_978624)">
                        <g id="Trazado_978624-2" data-name="Trazado 978624" transform="translate(9 6)" fill="#edeef2">
                          <path d="M 42.5 83.5 C 36.96437835693359 83.5 31.59512901306152 82.41617584228516 26.54141235351562 80.27863311767578 C 21.65934181213379 78.21369171142578 17.27447128295898 75.25723266601562 13.50862312316895 71.49137878417969 C 9.742764472961426 67.72553253173828 6.786305904388428 63.34066009521484 4.721364498138428 58.45858764648438 C 2.583823442459106 53.40486907958984 1.5 48.03562164306641 1.5 42.5 C 1.5 36.96437835693359 2.583823442459106 31.59512901306152 4.721364498138428 26.54141235351562 C 6.786305904388428 21.65934181213379 9.742764472961426 17.27447128295898 13.50862312316895 13.50862312316895 C 17.27447128295898 9.742764472961426 21.65934181213379 6.786305904388428 26.54141235351562 4.721364498138428 C 31.59512901306152 2.583823442459106 36.96437835693359 1.5 42.5 1.5 C 48.03562164306641 1.5 53.40486907958984 2.583823442459106 58.45858764648438 4.721364498138428 C 63.34066009521484 6.786305904388428 67.72553253173828 9.742764472961426 71.49137878417969 13.50862312316895 C 75.25723266601562 17.27447128295898 78.21369171142578 21.65934181213379 80.27863311767578 26.54141235351562 C 82.41617584228516 31.59512901306152 83.5 36.96437835693359 83.5 42.5 C 83.5 48.03562164306641 82.41617584228516 53.40486907958984 80.27863311767578 58.45858764648438 C 78.21369171142578 63.34066009521484 75.25723266601562 67.72553253173828 71.49137878417969 71.49137878417969 C 67.72553253173828 75.25723266601562 63.34066009521484 78.21369171142578 58.45858764648438 80.27863311767578 C 53.40486907958984 82.41617584228516 48.03562164306641 83.5 42.5 83.5 Z" stroke="none"/>
                          <path d="M 42.5 3 C 37.16621398925781 3 31.99356079101562 4.043960571289062 27.125732421875 6.102882385253906 C 22.42246627807617 8.092185974121094 18.19785308837891 10.94070434570312 14.56928253173828 14.56928253173828 C 10.94070434570312 18.19785308837891 8.092185974121094 22.42246627807617 6.102882385253906 27.125732421875 C 4.043960571289062 31.99356079101562 3 37.16621398925781 3 42.5 C 3 47.83378601074219 4.043960571289062 53.00643920898438 6.102882385253906 57.87425231933594 C 8.092185974121094 62.57753372192383 10.94070434570312 66.80213165283203 14.56928253173828 70.43071746826172 C 18.19786834716797 74.05929565429688 22.42246627807617 76.90781402587891 27.125732421875 78.89711761474609 C 31.99356079101562 80.95603942871094 37.16621398925781 82 42.5 82 C 47.83378601074219 82 53.00642395019531 80.95603942871094 57.87425231933594 78.89711761474609 C 62.57753372192383 76.90781402587891 66.80213165283203 74.05929565429688 70.43071746826172 70.43071746826172 C 74.05929565429688 66.80213165283203 76.90781402587891 62.57753372192383 78.89711761474609 57.87425231933594 C 80.95603942871094 53.00642395019531 82 47.83378601074219 82 42.5 C 82 37.16621398925781 80.95603942871094 31.99356079101562 78.89711761474609 27.125732421875 C 76.90781402587891 22.42246627807617 74.05929565429688 18.19786834716797 70.43071746826172 14.56928253173828 C 66.80213165283203 10.94070434570312 62.57753372192383 8.092185974121094 57.87425231933594 6.102882385253906 C 53.00643920898438 4.043960571289062 47.83378601074219 3 42.5 3 M 42.5 0 C 65.97209167480469 0 85 19.02789306640625 85 42.5 C 85 65.97209167480469 65.97209167480469 85 42.5 85 C 19.02789306640625 85 0 65.97209167480469 0 42.5 C 0 19.02789306640625 19.02789306640625 0 42.5 0 Z" stroke="none" fill="#56678d"/>
                        </g>
                      </g>
                    </g>
                  </g>
                </g>
              </g>
            </g>
          </g>
        </g>
      </g>
    </g>
    <g id="palacio-de-justicia" transform="translate(632.375 8108.374)">
      <path id="Trazado_1082898" data-name="Trazado 1082898" d="M55.549,49.1,54.48,32H48.069L47,49.1Z" transform="translate(3.154 2.125)" fill="#ddd"/>
      <path id="Trazado_1082899" data-name="Trazado 1082899" d="M36.549,49.1,35.48,32H29.069L28,49.1Z" transform="translate(1.851 2.125)" fill="#ddd"/>
      <path id="Trazado_1082900" data-name="Trazado 1082900" d="M17.549,49.1,16.48,32H10.069L9,49.1Z" transform="translate(0.549 2.125)" fill="#ddd"/>
      <path id="Trazado_1082901" data-name="Trazado 1082901" d="M9,28v3.206a1.069,1.069,0,0,0,1.069,1.069H16.48a1.069,1.069,0,0,0,1.069-1.069V28" transform="translate(0.549 1.851)" fill="#ccc"/>
      <path id="Trazado_1082902" data-name="Trazado 1082902" d="M7,52.274V50.137A2.137,2.137,0,0,1,9.137,48h8.549a2.137,2.137,0,0,1,2.137,2.137v2.137" transform="translate(0.411 3.223)" fill="#ccc"/>
      <path id="Trazado_1082903" data-name="Trazado 1082903" d="M60.031,29.44H7.349L33.69,7Z" transform="translate(0.435 0.411)" fill="#b5b5b5"/>
      <path id="Trazado_1082904" data-name="Trazado 1082904" d="M66.114,28.715,34.057,2,2,28.715l3.206,3.206L34.057,7.343,62.908,31.921Z" transform="translate(0.069 0.069)" fill="#939393"/>
      <path id="Trazado_1082905" data-name="Trazado 1082905" d="M4.137,56h59.84a2.137,2.137,0,0,1,2.137,2.137v4.274H2V58.137A2.137,2.137,0,0,1,4.137,56Z" transform="translate(0.069 3.771)" fill="#939393"/>
      <path id="Trazado_1082906" data-name="Trazado 1082906" d="M4,56.274V54.137A2.137,2.137,0,0,1,6.137,52H61.7a2.137,2.137,0,0,1,2.137,2.137v2.137" transform="translate(0.206 3.497)" fill="#b5b5b5"/>
      <g id="Grupo_1211032" data-name="Grupo 1211032" transform="translate(27.714 29.851)">
        <path id="Trazado_1082907" data-name="Trazado 1082907" d="M28,28v3.206a1.069,1.069,0,0,0,1.069,1.069H35.48a1.069,1.069,0,0,0,1.069-1.069V28" transform="translate(-25.863 -28)" fill="#ccc"/>
        <path id="Trazado_1082908" data-name="Trazado 1082908" d="M26,52.274V50.137A2.137,2.137,0,0,1,28.137,48h8.549a2.137,2.137,0,0,1,2.137,2.137v2.137" transform="translate(-26 -26.629)" fill="#ccc"/>
        <path id="Trazado_1082909" data-name="Trazado 1082909" d="M47,28v3.206a1.069,1.069,0,0,0,1.069,1.069H54.48a1.069,1.069,0,0,0,1.069-1.069V28" transform="translate(-24.56 -28)" fill="#ccc"/>
        <path id="Trazado_1082910" data-name="Trazado 1082910" d="M45,52.274V50.137A2.137,2.137,0,0,1,47.137,48h8.549a2.137,2.137,0,0,1,2.137,2.137v2.137" transform="translate(-24.697 -26.629)" fill="#ccc"/>
      </g>
      <path id="Trazado_1082911" data-name="Trazado 1082911" d="M34.55,19.48v2.137h4.274V19.48H37.755V16.274h1.067V14.137H33.48V12H31.343v2.137H26v2.137h1.069V19.48H26v2.137h4.274V19.48H29.206V16.274h2.137v7.48H29.206v2.137h6.411V23.754H33.48v-7.48h2.138V19.48Z" transform="translate(1.714 0.754)" fill="#f9d266"/>
      <path id="Trazado_1082912" data-name="Trazado 1082912" d="M65.114,58.9V57.634a3.206,3.206,0,0,0-3.206-3.206V53.36a3.2,3.2,0,0,0-2.191-3.025L58.756,34.87a2.137,2.137,0,0,0,1.015-1.813V30.92h.3L62.284,32.8a1.069,1.069,0,0,0,1.448-.059l3.206-3.206a1.069,1.069,0,0,0-.071-1.576L34.81,1.249a1.069,1.069,0,0,0-1.37,0L1.384,27.963a1.069,1.069,0,0,0-.071,1.576l3.206,3.206a1.069,1.069,0,0,0,1.448.059L8.179,30.92h.3v2.137A2.137,2.137,0,0,0,9.5,34.873L8.538,50.338A3.2,3.2,0,0,0,6.343,53.36v1.069a3.206,3.206,0,0,0-3.206,3.206V58.9A3.206,3.206,0,0,0,1,61.908v4.274a1.069,1.069,0,0,0,1.069,1.069H66.182a1.069,1.069,0,0,0,1.069-1.069V61.908A3.206,3.206,0,0,0,65.114,58.9Zm-5.343-4.471H49.085V53.36a1.069,1.069,0,0,1,1.069-1.069H58.7a1.069,1.069,0,0,1,1.069,1.069ZM19.112,50.335,18.15,34.87a2.137,2.137,0,0,0,1.015-1.813V30.92h9.617v2.137A2.137,2.137,0,0,0,29.8,34.873L28.84,50.338a3.2,3.2,0,0,0-2.195,3.022v1.069H21.3V53.36a3.2,3.2,0,0,0-2.191-3.025Zm-3.087-15.14.935,14.96H10.685l.935-14.96Zm40.605,0,.935,14.96H51.291l.935-14.96ZM10.682,28.783,34.126,8.814,57.564,28.783Zm21.237,6.411h4.4l.935,14.96h-6.27Zm5.412-2.137H30.92V30.92h6.411Zm-8.549,20.3a1.069,1.069,0,0,1,1.069-1.069H38.4a1.069,1.069,0,0,1,1.069,1.069v1.069H28.783Zm10.632-3.025L38.453,34.87a2.137,2.137,0,0,0,1.015-1.813V30.92h9.617v2.137A2.137,2.137,0,0,0,50.1,34.873l-.962,15.464a3.2,3.2,0,0,0-2.195,3.022v1.069H41.605V53.36a3.2,3.2,0,0,0-2.191-3.025ZM57.634,33.057H51.223V30.92h6.411Zm-52.3-2.52L3.651,28.856l30.474-25.4L64.6,28.856l-1.682,1.681L34.815,6.6a1.069,1.069,0,0,0-1.389,0Zm11.7.383v2.137H10.617V30.92ZM8.48,53.36a1.069,1.069,0,0,1,1.069-1.069H18.1a1.069,1.069,0,0,1,1.069,1.069v1.069H8.48ZM6.343,56.565H61.908a1.069,1.069,0,0,1,1.069,1.069V58.7H5.274V57.634A1.069,1.069,0,0,1,6.343,56.565Zm58.771,8.549H3.137V61.908A1.069,1.069,0,0,1,4.206,60.84h59.84a1.069,1.069,0,0,1,1.069,1.069Z" transform="translate(0 0)"/>
      <path id="Trazado_1082913" data-name="Trazado 1082913" d="M34.55,19.48v2.137h4.274V19.48H37.755V16.274h1.067V14.137H33.48V12H31.343v2.137H26v2.137h1.069V19.48H26v2.137h4.274V19.48H29.206V16.274h2.137v7.48H29.206v2.137h6.411V23.754H33.48v-7.48h2.138V19.48Z" transform="translate(1.714 0.754)"/>
    </g>
  </g>
</svg>
