<svg xmlns="http://www.w3.org/2000/svg" xmlns:xlink="http://www.w3.org/1999/xlink" width="93.934" height="93.934" viewBox="0 0 93.934 93.934">
  <defs>
    <filter id="Trazado_978624" x="0" y="0" width="93.934" height="93.934" filterUnits="userSpaceOnUse">
      <feOffset dy="3" input="SourceAlpha"/>
      <feGaussianBlur stdDeviation="3" result="blur"/>
      <feFlood flood-opacity="0.161"/>
      <feComposite operator="in" in2="blur"/>
      <feComposite in="SourceGraphic"/>
    </filter>
  </defs>
  <g id="Grupo_1211065" data-name="Grupo 1211065" transform="translate(-189 -9259.033)">
    <g id="Grupo_1209932" data-name="Grupo 1209932" transform="translate(198 9265.033)">
      <g id="Grupo_1208071" data-name="Grupo 1208071">
        <g id="Grupo_1144123" data-name="Grupo 1144123">
          <g transform="matrix(1, 0, 0, 1, -9, -6)" filter="url(#Trazado_978624)">
            <g id="Trazado_978624-2" data-name="Trazado 978624" transform="translate(9 6)" fill="#efeadd">
              <path d="M 37.966796875 74.43359375 C 33.04315185546875 74.43359375 28.26757431030273 73.46962738037109 23.77274131774902 71.56847381591797 C 19.43047523498535 69.73184967041016 15.53040790557861 67.10224914550781 12.18087482452393 63.75271987915039 C 8.831341743469238 60.4031867980957 6.201741218566895 56.50312042236328 4.365118980407715 52.16086196899414 C 2.463963508605957 47.66601943969727 1.499996900558472 42.89044189453125 1.499996900558472 37.966796875 C 1.499996900558472 33.04315185546875 2.463963508605957 28.26757431030273 4.365118980407715 23.77274131774902 C 6.201741218566895 19.43047523498535 8.831341743469238 15.53040790557861 12.18087482452393 12.18087482452393 C 15.53040790557861 8.831341743469238 19.43047523498535 6.201741218566895 23.77274131774902 4.365118980407715 C 28.26757431030273 2.463963508605957 33.04315185546875 1.499996900558472 37.966796875 1.499996900558472 C 42.89044189453125 1.499996900558472 47.66601943969727 2.463963508605957 52.16086196899414 4.365118980407715 C 56.50312042236328 6.201741218566895 60.4031867980957 8.831341743469238 63.75271987915039 12.18087482452393 C 67.10224914550781 15.53040790557861 69.73184967041016 19.43047523498535 71.56847381591797 23.77274131774902 C 73.46962738037109 28.26757431030273 74.43359375 33.04315185546875 74.43359375 37.966796875 C 74.43359375 42.89044189453125 73.46962738037109 47.66601943969727 71.56847381591797 52.16086196899414 C 69.73184967041016 56.50313186645508 67.10224914550781 60.4031867980957 63.75271987915039 63.75271987915039 C 60.4031867980957 67.10224914550781 56.50313186645508 69.73184967041016 52.16086196899414 71.56847381591797 C 47.66601943969727 73.46962738037109 42.89044189453125 74.43359375 37.966796875 74.43359375 Z" stroke="none"/>
              <path d="M 37.966796875 3 C 33.2449836730957 3 28.66600799560547 3.924095153808594 24.35705947875977 5.746635437011719 C 20.19359588623047 7.507621765136719 16.45379638671875 10.02927398681641 13.24153518676758 13.24153518676758 C 10.02927398681641 16.45379638671875 7.507621765136719 20.19359588623047 5.746635437011719 24.35705947875977 C 3.924095153808594 28.66600799560547 3 33.2449836730957 3 37.966796875 C 3 42.6886100769043 3.924095153808594 47.26758575439453 5.746635437011719 51.57653427124023 C 7.507621765136719 55.73999786376953 10.02927398681641 59.47979736328125 13.24153518676758 62.69205856323242 C 16.45379638671875 65.90431976318359 20.19359588623047 68.42597198486328 24.35705947875977 70.18695831298828 C 28.66600799560547 72.00949859619141 33.2449836730957 72.93359375 37.966796875 72.93359375 C 42.6886100769043 72.93359375 47.26758575439453 72.00949859619141 51.57653427124023 70.18695831298828 C 55.73999786376953 68.42597198486328 59.47979736328125 65.90431976318359 62.69205856323242 62.69205856323242 C 65.90431976318359 59.47979736328125 68.42597198486328 55.73999786376953 70.18695831298828 51.57653427124023 C 72.00949859619141 47.26758575439453 72.93359375 42.6886100769043 72.93359375 37.966796875 C 72.93359375 33.2449836730957 72.00949859619141 28.66600799560547 70.18695831298828 24.35705947875977 C 68.42597198486328 20.19359588623047 65.90431976318359 16.45379638671875 62.69205856323242 13.24153518676758 C 59.47979736328125 10.02927398681641 55.73999786376953 7.507621765136719 51.57653427124023 5.746635437011719 C 47.26758575439453 3.924095153808594 42.6886100769043 3 37.966796875 3 M 37.966796875 0 C 58.93528366088867 0 75.93359375 16.99831008911133 75.93359375 37.966796875 C 75.93359375 58.93528366088867 58.93528366088867 75.93359375 37.966796875 75.93359375 C 16.99831008911133 75.93359375 0 58.93528366088867 0 37.966796875 C 0 16.99831008911133 16.99831008911133 0 37.966796875 0 Z" stroke="none" fill="#847625"/>
            </g>
          </g>
        </g>
      </g>
    </g>
    <g id="ley-de-delitos-ciberneticos" transform="translate(210.71 9277.369)">
      <g id="Grupo_1211035" data-name="Grupo 1211035" transform="translate(3.345 20.712)">
        <path id="Trazado_1082938" data-name="Trazado 1082938" d="M13.583,28.237,6.641,37.055a.7.7,0,0,1-.1.112H3.58V33.942l7.984-7.552a16.357,16.357,0,0,0,2.018,1.847Z" transform="translate(-3.58 -26.39)" fill="#ed7370"/>
      </g>
      <g id="Grupo_1211036" data-name="Grupo 1211036" transform="translate(8.641 11.476)">
        <path id="Trazado_1082939" data-name="Trazado 1082939" d="M24.394,22.019c-1.639,1.795-3.277,3.6-4.916,5.385A19.194,19.194,0,0,1,15.4,25.072a15.9,15.9,0,0,1-2.026-1.847,19.338,19.338,0,0,1-2.689-3.851c1.639-1.787,3.277-3.59,4.916-5.385A16.892,16.892,0,0,1,24.394,22.019Z" transform="translate(-10.69 -13.99)" fill="#fac372"/>
      </g>
      <g id="Grupo_1211037" data-name="Grupo 1211037" transform="translate(16.833 18.812)">
        <path id="Trazado_1082940" data-name="Trazado 1082940" d="M22.2,32.018l-.119-.1A1.2,1.2,0,0,1,22,30.223l5.474-6a1.2,1.2,0,0,1,1.691-.074l.119.1a1.2,1.2,0,0,1,.074,1.691l-5.474,6A1.192,1.192,0,0,1,22.2,32.018Z" transform="translate(-21.69 -23.84)" fill="#ed7370"/>
      </g>
      <g id="Grupo_1211038" data-name="Grupo 1211038" transform="translate(6.16 9.07)">
        <path id="Trazado_1082941" data-name="Trazado 1082941" d="M7.866,18.938l-.119-.1a1.2,1.2,0,0,1-.074-1.691l5.474-6a1.2,1.2,0,0,1,1.691-.074l.119.1a1.2,1.2,0,0,1,.074,1.691l-5.474,6a1.2,1.2,0,0,1-1.691.074Z" transform="translate(-7.36 -10.76)" fill="#ed7370"/>
      </g>
      <g id="Grupo_1211039" data-name="Grupo 1211039" transform="translate(3.345 31.481)">
        <path id="Trazado_1082942" data-name="Trazado 1082942" d="M47.4,40.85v2.771a4,4,0,0,1-4.007,4.007H7.594A4.005,4.005,0,0,1,3.58,43.621V40.85Z" transform="translate(-3.58 -40.85)" fill="#dfdedb"/>
      </g>
      <g id="Grupo_1211040" data-name="Grupo 1211040" transform="translate(16.93 38.266)">
        <path id="Trazado_1082943" data-name="Trazado 1082943" d="M38.481,56.395a1.734,1.734,0,0,1-1.743,1.735H23.555a1.739,1.739,0,0,1-.611-3.366L25,54a1.749,1.749,0,0,0,1.132-1.631V49.96h8.029v2.406A1.731,1.731,0,0,0,35.293,54l2.048.767A1.734,1.734,0,0,1,38.481,56.395Z" transform="translate(-21.82 -49.96)" fill="#dfdedb"/>
      </g>
      <g id="Grupo_1211064" data-name="Grupo 1211064" transform="translate(2.66 4.14)">
        <g id="Grupo_1211046" data-name="Grupo 1211046">
          <g id="Grupo_1211041" data-name="Grupo 1211041" transform="translate(13.585 33.441)">
            <path id="Trazado_1082944" data-name="Trazado 1082944" d="M36.5,58.581H23.321a2.423,2.423,0,0,1-.849-4.692l2.056-.767a1.065,1.065,0,0,0,.685-.991V49.725a.683.683,0,0,1,.685-.685h8.029a.683.683,0,0,1,.685.685v2.406a1.047,1.047,0,0,0,.685.991l2.056.767a2.422,2.422,0,0,1-.849,4.692ZM26.59,50.4v1.72A2.433,2.433,0,0,1,25.011,54.4l-2.056.767a1.055,1.055,0,0,0,.372,2.041H36.5a1.054,1.054,0,0,0,.372-2.041L34.82,54.4a2.433,2.433,0,0,1-1.579-2.272V50.4Z" transform="translate(-20.9 -49.04)"/>
          </g>
          <g id="Grupo_1211044" data-name="Grupo 1211044">
            <g id="Grupo_1211042" data-name="Grupo 1211042" transform="translate(0.007)">
              <path id="Trazado_1082945" data-name="Trazado 1082945" d="M47.164,32.166H3.355a.683.683,0,0,1-.685-.685V8.84a4.7,4.7,0,0,1,4.7-4.7H43.164a4.7,4.7,0,0,1,4.692,4.7V31.481A.69.69,0,0,1,47.164,32.166ZM4.04,30.8H46.486V8.847a3.331,3.331,0,0,0-3.322-3.329H7.362A3.333,3.333,0,0,0,4.033,8.847V30.8Z" transform="translate(-2.67 -4.14)"/>
            </g>
            <g id="Grupo_1211043" data-name="Grupo 1211043" transform="translate(0 26.656)">
              <path id="Trazado_1082946" data-name="Trazado 1082946" d="M43.154,48.078H7.36a4.7,4.7,0,0,1-4.7-4.692V40.615a.683.683,0,0,1,.685-.685H47.161a.683.683,0,0,1,.685.685v2.771A4.687,4.687,0,0,1,43.154,48.078ZM4.038,41.3v2.085a3.326,3.326,0,0,0,3.329,3.322H43.162a3.325,3.325,0,0,0,3.322-3.322V41.3Z" transform="translate(-2.66 -39.93)"/>
            </g>
          </g>
          <g id="Grupo_1211045" data-name="Grupo 1211045" transform="translate(19.178 30.052)">
            <path id="Trazado_1082947" data-name="Trazado 1082947" d="M34.569,45.86H29.1a.685.685,0,0,1,0-1.37h5.474a.685.685,0,1,1,0,1.37Z" transform="translate(-28.41 -44.49)"/>
          </g>
        </g>
        <g id="Grupo_1211054" data-name="Grupo 1211054" transform="translate(0.007 4.244)">
          <g id="Grupo_1211047" data-name="Grupo 1211047" transform="translate(0 19.187)">
            <path id="Trazado_1082948" data-name="Trazado 1082948" d="M6.312,40.2H3.355a.683.683,0,0,1-.685-.685V36.285a.685.685,0,1,1,1.37,0v2.54H6.319A.683.683,0,0,1,7,39.51.7.7,0,0,1,6.312,40.2Z" transform="translate(-2.67 -35.6)"/>
          </g>
          <g id="Grupo_1211048" data-name="Grupo 1211048" transform="translate(0 11.641)">
            <path id="Trazado_1082949" data-name="Trazado 1082949" d="M6.312,37.61H3.355a.683.683,0,0,1-.685-.685V33.7a.671.671,0,0,1,.216-.5l7.977-7.545a.684.684,0,0,1,.5-.186.7.7,0,0,1,.484.223,14.619,14.619,0,0,0,1.936,1.765.666.666,0,0,1,.261.462.689.689,0,0,1-.142.506L6.953,37.237a1.223,1.223,0,0,1-.156.179A.688.688,0,0,1,6.312,37.61ZM4.04,36.239H5.992L12.4,28.114c-.38-.32-.737-.648-1.087-.991L4.04,34Z" transform="translate(-2.67 -25.469)"/>
          </g>
          <g id="Grupo_1211051" data-name="Grupo 1211051" transform="translate(3.254 0.366)">
            <g id="Grupo_1211049" data-name="Grupo 1211049" transform="translate(0)">
              <ellipse id="Elipse_14312" data-name="Elipse 14312" cx="5.765" cy="7.686" rx="5.765" ry="7.686" transform="translate(0 8.509) rotate(-47.595)" fill="none"/>
            </g>
            <g id="Grupo_1211050" data-name="Grupo 1211050" transform="translate(2.031 2.042)">
              <path id="Trazado_1082950" data-name="Trazado 1082950" d="M19.243,27.854a.614.614,0,0,1-.276-.06,20.108,20.108,0,0,1-4.216-2.413,16.351,16.351,0,0,1-2.115-1.929,20.041,20.041,0,0,1-2.786-3.985.675.675,0,0,1,.1-.789L14.4,13.8l.469-.506a.687.687,0,0,1,.782-.164,17.5,17.5,0,0,1,9.116,8.327.677.677,0,0,1-.1.789c-1.639,1.795-3.277,3.6-4.923,5.385a.679.679,0,0,1-.506.223Zm-7.954-8.61a18.354,18.354,0,0,0,2.354,3.292A15.148,15.148,0,0,0,15.578,24.3a18.139,18.139,0,0,0,3.486,2.048L23.317,21.7a15.984,15.984,0,0,0-7.776-7.1l-.134.142Q13.351,16.984,11.288,19.245Z" transform="translate(-9.766 -13.071)"/>
            </g>
          </g>
          <g id="Grupo_1211052" data-name="Grupo 1211052" transform="translate(13.479 9.748)">
            <path id="Trazado_1082951" data-name="Trazado 1082951" d="M22.765,32.79A1.864,1.864,0,0,1,21.5,32.3l-.119-.1a1.881,1.881,0,0,1-.119-2.659l5.474-6a1.881,1.881,0,0,1,2.659-.119l.119.1a1.883,1.883,0,0,1,.119,2.659l-5.474,6a1.859,1.859,0,0,1-1.3.611A.359.359,0,0,0,22.765,32.79Zm5.362-8.5h-.022a.517.517,0,0,0-.35.164l-5.474,6a.5.5,0,0,0,.03.715l.119.1a.5.5,0,0,0,.715-.03l5.474-6a.522.522,0,0,0-.03-.722l-.119-.1a.526.526,0,0,0-.343-.127Z" transform="translate(-20.767 -22.927)"/>
          </g>
          <g id="Grupo_1211053" data-name="Grupo 1211053" transform="translate(2.807)">
            <path id="Trazado_1082952" data-name="Trazado 1082952" d="M8.436,19.7a1.864,1.864,0,0,1-1.266-.492l-.119-.1a1.883,1.883,0,0,1-.119-2.659l5.474-6a1.883,1.883,0,0,1,2.659-.119l.119.1a1.881,1.881,0,0,1,.119,2.659l-5.474,6a1.859,1.859,0,0,1-1.3.611H8.436ZM13.8,11.21a.508.508,0,0,0-.38.164l-5.474,6a.522.522,0,0,0,.03.722l.119.1a.553.553,0,0,0,.365.134.517.517,0,0,0,.35-.164l5.474-6a.5.5,0,0,0-.03-.715l-.119-.1A.456.456,0,0,0,13.8,11.21Z" transform="translate(-6.439 -9.839)"/>
          </g>
        </g>
        <g id="Grupo_1211059" data-name="Grupo 1211059" transform="translate(28.072 3.762)">
          <g id="Grupo_1211055" data-name="Grupo 1211055" transform="translate(1.467 1.712)">
            <path id="Trazado_1082953" data-name="Trazado 1082953" d="M43.005,17.8a.676.676,0,0,1-.484-.2.683.683,0,0,1,0-.968l4.938-4.938a.685.685,0,0,1,.968.968L43.489,17.6a.689.689,0,0,1-.484.2Z" transform="translate(-42.32 -11.49)"/>
          </g>
          <g id="Grupo_1211058" data-name="Grupo 1211058" transform="translate(0 0)">
            <g id="Grupo_1211056" data-name="Grupo 1211056" transform="translate(4.787 4.78)">
              <path id="Trazado_1082954" data-name="Trazado 1082954" d="M50.787,20.309a.528.528,0,0,1-.1-.007l-3.322-.5a.686.686,0,0,1,.209-1.356l2.406.357L49.617,16.4a.693.693,0,0,1,.573-.782.684.684,0,0,1,.782.573l.5,3.322a.691.691,0,0,1-.194.588A.7.7,0,0,1,50.787,20.309Z" transform="translate(-46.779 -15.609)"/>
            </g>
            <g id="Grupo_1211057" data-name="Grupo 1211057">
              <path id="Trazado_1082955" data-name="Trazado 1082955" d="M41.534,13.882a.688.688,0,0,1-.678-.581l-.5-3.322A.687.687,0,0,1,41.14,9.2l3.322.5a.686.686,0,1,1-.209,1.356l-2.406-.357L42.2,13.1a.688.688,0,0,1-.573.782h-.1Z" transform="translate(-40.351 -9.191)"/>
            </g>
          </g>
        </g>
        <g id="Grupo_1211063" data-name="Grupo 1211063" transform="translate(25.04 15.566)">
          <g id="Grupo_1211060" data-name="Grupo 1211060">
            <path id="Trazado_1082956" data-name="Trazado 1082956" d="M51.042,26.41H36.965a.685.685,0,0,1,0-1.37H51.042a.685.685,0,0,1,0,1.37Z" transform="translate(-36.28 -25.04)"/>
          </g>
          <g id="Grupo_1211061" data-name="Grupo 1211061" transform="translate(0 3.501)">
            <path id="Trazado_1082957" data-name="Trazado 1082957" d="M51.042,31.11H36.965a.685.685,0,0,1,0-1.37H51.042a.685.685,0,0,1,0,1.37Z" transform="translate(-36.28 -29.74)"/>
          </g>
          <g id="Grupo_1211062" data-name="Grupo 1211062" transform="translate(0 6.994)">
            <path id="Trazado_1082958" data-name="Trazado 1082958" d="M51.042,35.8H36.965a.685.685,0,1,1,0-1.37H51.042a.685.685,0,0,1,0,1.37Z" transform="translate(-36.28 -34.43)"/>
          </g>
        </g>
      </g>
    </g>
  </g>
</svg>
