<svg xmlns="http://www.w3.org/2000/svg" xmlns:xlink="http://www.w3.org/1999/xlink" width="93.934" height="93.934" viewBox="0 0 93.934 93.934">
  <defs>
    <filter id="Trazado_978624" x="0" y="0" width="93.934" height="93.934" filterUnits="userSpaceOnUse">
      <feOffset dy="3" input="SourceAlpha"/>
      <feGaussianBlur stdDeviation="3" result="blur"/>
      <feFlood flood-opacity="0.161"/>
      <feComposite operator="in" in2="blur"/>
      <feComposite in="SourceGraphic"/>
    </filter>
  </defs>
  <g id="Grupo_1211034" data-name="Grupo 1211034" transform="translate(-609 -9259.033)">
    <g id="Grupo_1209933" data-name="Grupo 1209933" transform="translate(618 9265.033)">
      <g id="Grupo_1208072" data-name="Grupo 1208072">
        <g id="Grupo_1144123" data-name="Grupo 1144123">
          <g transform="matrix(1, 0, 0, 1, -9, -6)" filter="url(#Trazado_978624)">
            <g id="Trazado_978624-2" data-name="Trazado 978624" transform="translate(9 6)" fill="#efeadd">
              <path d="M 37.966796875 74.43359375 C 33.04315185546875 74.43359375 28.26757431030273 73.46962738037109 23.77274131774902 71.56847381591797 C 19.43047523498535 69.73184967041016 15.53040790557861 67.10224914550781 12.18087482452393 63.75271987915039 C 8.831341743469238 60.4031867980957 6.201741218566895 56.50312042236328 4.365118980407715 52.16086196899414 C 2.463963508605957 47.66601943969727 1.499996900558472 42.89044189453125 1.499996900558472 37.966796875 C 1.499996900558472 33.04315185546875 2.463963508605957 28.26757431030273 4.365118980407715 23.77274131774902 C 6.201741218566895 19.43047523498535 8.831341743469238 15.53040790557861 12.18087482452393 12.18087482452393 C 15.53040790557861 8.831341743469238 19.43047523498535 6.201741218566895 23.77274131774902 4.365118980407715 C 28.26757431030273 2.463963508605957 33.04315185546875 1.499996900558472 37.966796875 1.499996900558472 C 42.89044189453125 1.499996900558472 47.66601943969727 2.463963508605957 52.16086196899414 4.365118980407715 C 56.50312042236328 6.201741218566895 60.4031867980957 8.831341743469238 63.75271987915039 12.18087482452393 C 67.10224914550781 15.53040790557861 69.73184967041016 19.43047523498535 71.56847381591797 23.77274131774902 C 73.46962738037109 28.26757431030273 74.43359375 33.04315185546875 74.43359375 37.966796875 C 74.43359375 42.89044189453125 73.46962738037109 47.66601943969727 71.56847381591797 52.16086196899414 C 69.73184967041016 56.50313186645508 67.10224914550781 60.4031867980957 63.75271987915039 63.75271987915039 C 60.4031867980957 67.10224914550781 56.50313186645508 69.73184967041016 52.16086196899414 71.56847381591797 C 47.66601943969727 73.46962738037109 42.89044189453125 74.43359375 37.966796875 74.43359375 Z" stroke="none"/>
              <path d="M 37.966796875 3 C 33.2449836730957 3 28.66600799560547 3.924095153808594 24.35705947875977 5.746635437011719 C 20.19359588623047 7.507621765136719 16.45379638671875 10.02927398681641 13.24153518676758 13.24153518676758 C 10.02927398681641 16.45379638671875 7.507621765136719 20.19359588623047 5.746635437011719 24.35705947875977 C 3.924095153808594 28.66600799560547 3 33.2449836730957 3 37.966796875 C 3 42.6886100769043 3.924095153808594 47.26758575439453 5.746635437011719 51.57653427124023 C 7.507621765136719 55.73999786376953 10.02927398681641 59.47979736328125 13.24153518676758 62.69205856323242 C 16.45379638671875 65.90431976318359 20.19359588623047 68.42597198486328 24.35705947875977 70.18695831298828 C 28.66600799560547 72.00949859619141 33.2449836730957 72.93359375 37.966796875 72.93359375 C 42.6886100769043 72.93359375 47.26758575439453 72.00949859619141 51.57653427124023 70.18695831298828 C 55.73999786376953 68.42597198486328 59.47979736328125 65.90431976318359 62.69205856323242 62.69205856323242 C 65.90431976318359 59.47979736328125 68.42597198486328 55.73999786376953 70.18695831298828 51.57653427124023 C 72.00949859619141 47.26758575439453 72.93359375 42.6886100769043 72.93359375 37.966796875 C 72.93359375 33.2449836730957 72.00949859619141 28.66600799560547 70.18695831298828 24.35705947875977 C 68.42597198486328 20.19359588623047 65.90431976318359 16.45379638671875 62.69205856323242 13.24153518676758 C 59.47979736328125 10.02927398681641 55.73999786376953 7.507621765136719 51.57653427124023 5.746635437011719 C 47.26758575439453 3.924095153808594 42.6886100769043 3 37.966796875 3 M 37.966796875 0 C 58.93528366088867 0 75.93359375 16.99831008911133 75.93359375 37.966796875 C 75.93359375 58.93528366088867 58.93528366088867 75.93359375 37.966796875 75.93359375 C 16.99831008911133 75.93359375 0 58.93528366088867 0 37.966796875 C 0 16.99831008911133 16.99831008911133 0 37.966796875 0 Z" stroke="none" fill="#847625"/>
            </g>
          </g>
        </g>
      </g>
    </g>
    <g id="derechos-civiles" transform="translate(623.924 9276.882)">
      <path id="Trazado_1082914" data-name="Trazado 1082914" d="M196,85.582V94.02l1.565,4.154v39.842H205.7l1.877-37.287,4.756-8.9V85.582Z" transform="translate(-171.467 -74.87)" fill="#fdbba8"/>
      <path id="Trazado_1082915" data-name="Trazado 1082915" d="M265.133,85.582V91.83a6.943,6.943,0,0,1-3.09,5.778,3.755,3.755,0,0,0-1.666,3.121l-1.878.789,1.878.789v35.71h3.755V100.729a10.69,10.69,0,0,0,4.756-8.9V85.582Z" transform="translate(-226.144 -74.87)" fill="#fc9e8d"/>
      <path id="Trazado_1082916" data-name="Trazado 1082916" d="M292.756,37.5a2.378,2.378,0,0,0-2.378,2.378L288.5,41.756l1.878,1.877a2.378,2.378,0,0,0,4.756,0V39.878A2.378,2.378,0,0,0,292.756,37.5Z" transform="translate(-252.39 -32.806)" fill="#fc8071"/>
      <path id="Trazado_1082917" data-name="Trazado 1082917" d="M254.756,22.5a2.378,2.378,0,0,0-2.378,2.378L250.5,27.694l1.878,2.816a2.378,2.378,0,1,0,4.756,0V24.878A2.378,2.378,0,0,0,254.756,22.5Z" transform="translate(-219.146 -19.684)" fill="#fc9e8d"/>
      <path id="Trazado_1082918" data-name="Trazado 1082918" d="M216.756,7.5a2.378,2.378,0,0,0-2.378,2.378l-1.877,7.51h6.634V9.878A2.378,2.378,0,0,0,216.756,7.5Z" transform="translate(-185.902 -6.561)" fill="#fc8071"/>
      <path id="Trazado_1082919" data-name="Trazado 1082919" d="M191.878,7.5A2.378,2.378,0,0,0,189.5,9.878v7.51h4.756V9.878A2.378,2.378,0,0,0,191.878,7.5Z" transform="translate(-165.781 -6.561)" fill="#fc9e8d"/>
      <path id="Trazado_1082920" data-name="Trazado 1082920" d="M175.256,76.011V72.256h4.756a2.378,2.378,0,0,0,2.375-2.493,2.422,2.422,0,0,0-2.443-2.263h-4.689a4.756,4.756,0,0,0-4.756,4.756v3.755a10.708,10.708,0,0,0,12.892,10.477V84.147A8.136,8.136,0,0,0,175.256,76.011Z" transform="translate(-149.159 -59.051)" fill="#fdd9c4"/>
      <path id="Trazado_1082921" data-name="Trazado 1082921" d="M33,269.082v8.438l1.565,4.154v16.874H42.7l1.877-14.319,4.756-8.9v-6.248Z" transform="translate(-28.87 -235.402)" fill="#f6d76f"/>
      <path id="Trazado_1082922" data-name="Trazado 1082922" d="M102.133,269.082v6.248a6.943,6.943,0,0,1-3.09,5.778,3.755,3.755,0,0,0-1.666,3.121l-1.877.789,1.877.789v12.742h3.755v-14.32a10.69,10.69,0,0,0,4.756-8.9v-6.248Z" transform="translate(-83.546 -235.402)" fill="#f9bb69"/>
      <path id="Trazado_1082923" data-name="Trazado 1082923" d="M129.756,221a2.378,2.378,0,0,0-2.378,2.378l-1.877,1.877,1.877,1.877a2.378,2.378,0,0,0,4.756,0v-3.755A2.378,2.378,0,0,0,129.756,221Z" transform="translate(-109.792 -193.338)" fill="#fc9f63"/>
      <path id="Trazado_1082924" data-name="Trazado 1082924" d="M91.756,206a2.378,2.378,0,0,0-2.378,2.378L87.5,211.194l1.877,2.816a2.378,2.378,0,0,0,4.756,0v-5.632A2.378,2.378,0,0,0,91.756,206Z" transform="translate(-76.548 -180.216)" fill="#f9bb69"/>
      <path id="Trazado_1082925" data-name="Trazado 1082925" d="M53.756,191a2.378,2.378,0,0,0-2.378,2.378l-1.877,7.51h6.634v-7.51A2.378,2.378,0,0,0,53.756,191Z" transform="translate(-43.304 -167.093)" fill="#fc9f63"/>
      <path id="Trazado_1082926" data-name="Trazado 1082926" d="M28.878,191a2.378,2.378,0,0,0-2.378,2.378v7.51h4.756v-7.51A2.378,2.378,0,0,0,28.878,191Z" transform="translate(-23.183 -167.093)" fill="#f9bb69"/>
      <path id="Trazado_1082927" data-name="Trazado 1082927" d="M12.256,259.511v-3.755h4.756a2.378,2.378,0,0,0,2.375-2.493A2.422,2.422,0,0,0,16.945,251H12.256A4.756,4.756,0,0,0,7.5,255.756v3.755a10.708,10.708,0,0,0,12.892,10.477v-2.341A8.136,8.136,0,0,0,12.256,259.511Z" transform="translate(-6.561 -219.583)" fill="#fae8ac"/>
      <path id="Trazado_1082928" data-name="Trazado 1082928" d="M359,269.082v8.438l1.565,4.154v16.874H368.7l1.878-14.319,4.756-8.9v-6.248Z" transform="translate(-314.065 -235.402)" fill="#ae6e5a"/>
      <path id="Trazado_1082929" data-name="Trazado 1082929" d="M428.133,269.082v6.248a6.943,6.943,0,0,1-3.09,5.778,3.755,3.755,0,0,0-1.666,3.121l-1.878.789,1.878.789v12.742h3.755v-14.32a10.69,10.69,0,0,0,4.756-8.9v-6.248Z" transform="translate(-368.742 -235.402)" fill="#8d5d4d"/>
      <path id="Trazado_1082930" data-name="Trazado 1082930" d="M455.756,221a2.378,2.378,0,0,0-2.378,2.378l-1.877,1.877,1.877,1.877a2.378,2.378,0,1,0,4.756,0v-3.755A2.378,2.378,0,0,0,455.756,221Z" transform="translate(-394.988 -193.338)" fill="#6c4b41"/>
      <path id="Trazado_1082931" data-name="Trazado 1082931" d="M417.756,206a2.378,2.378,0,0,0-2.378,2.378l-1.877,2.816,1.877,2.816a2.378,2.378,0,0,0,4.756,0v-5.632A2.378,2.378,0,0,0,417.756,206Z" transform="translate(-361.744 -180.216)" fill="#8d5d4d"/>
      <path id="Trazado_1082932" data-name="Trazado 1082932" d="M379.756,191a2.378,2.378,0,0,0-2.378,2.378l-1.878,7.51h6.634v-7.51A2.378,2.378,0,0,0,379.756,191Z" transform="translate(-328.5 -167.093)" fill="#6c4b41"/>
      <path id="Trazado_1082933" data-name="Trazado 1082933" d="M354.878,191a2.378,2.378,0,0,0-2.378,2.378v7.51h4.756v-7.51A2.378,2.378,0,0,0,354.878,191Z" transform="translate(-308.379 -167.093)" fill="#8d5d4d"/>
      <path id="Trazado_1082934" data-name="Trazado 1082934" d="M338.256,259.511v-3.755h4.756a2.378,2.378,0,0,0,2.375-2.493A2.422,2.422,0,0,0,342.945,251h-4.689a4.756,4.756,0,0,0-4.756,4.756v3.755a10.708,10.708,0,0,0,12.892,10.477v-2.341A8.136,8.136,0,0,0,338.256,259.511Z" transform="translate(-291.757 -219.583)" fill="#d7795c"/>
      <path id="Trazado_1082935" data-name="Trazado 1082935" d="M186.281,7.072a3.315,3.315,0,0,0-4.919-2.9,3.314,3.314,0,0,0-4.756-1.877,3.314,3.314,0,0,0-5.532-1.283,3.315,3.315,0,0,0-5.7,2.309V8.58A5.69,5.69,0,0,0,163,13.205V16.96a11.626,11.626,0,0,0,4.756,9.386v36.8a.939.939,0,0,0,.939.939h11.891a.939.939,0,0,0,.939-.939v-36.8a11.626,11.626,0,0,0,4.756-9.387Zm-3.317-1.439A1.441,1.441,0,0,1,184.4,7.072v3.755a1.439,1.439,0,1,1-2.879,0V7.072A1.441,1.441,0,0,1,182.964,5.632Zm-4.756-1.877a1.441,1.441,0,0,1,1.439,1.439v5.632a1.439,1.439,0,1,1-2.879,0V5.194A1.441,1.441,0,0,1,178.208,3.755Zm-4.756-1.877a1.441,1.441,0,0,1,1.439,1.439V7.855a3.439,3.439,0,0,0-1.507-.345h-1.372V3.317A1.441,1.441,0,0,1,173.451,1.877Zm-6.2,1.439a1.439,1.439,0,1,1,2.879,0V7.51H168.7a5.688,5.688,0,0,0-1.439.185Zm12.808,21.762a.939.939,0,0,0-.417.78V62.207H169.634V25.858a.939.939,0,0,0-.416-.78,9.755,9.755,0,0,1-4.34-8.118V13.205A3.822,3.822,0,0,1,168.7,9.387h4.689a1.49,1.49,0,0,1,1.5,1.369,1.439,1.439,0,0,1-1.438,1.51H168.7a.939.939,0,0,0-.939.939V16.96a.939.939,0,0,0,.939.939,7.2,7.2,0,0,1,6.312,3.737.939.939,0,0,0,1.646-.9,9.083,9.083,0,0,0-7.018-4.662V14.144h3.818a3.332,3.332,0,0,0,2.379-1.007,3.309,3.309,0,0,0,4.755,0,3.311,3.311,0,0,0,3.818.679V16.96A9.754,9.754,0,0,1,180.064,25.078Z" transform="translate(-142.598 0)"/>
      <path id="Trazado_1082936" data-name="Trazado 1082936" d="M19.964,187.255a3.3,3.3,0,0,0-1.6.414,3.314,3.314,0,0,0-4.756-1.877,3.314,3.314,0,0,0-5.532-1.283,3.315,3.315,0,0,0-5.7,2.309v5.263A5.69,5.69,0,0,0,0,196.705v3.755a11.626,11.626,0,0,0,4.756,9.386v1.315a.939.939,0,0,0,1.877,0v-1.8a.939.939,0,0,0-.417-.78,9.755,9.755,0,0,1-4.34-8.118v-3.755A3.822,3.822,0,0,1,5.7,192.887h4.689a1.49,1.49,0,0,1,1.5,1.369,1.439,1.439,0,0,1-1.438,1.51H5.7a.939.939,0,0,0-.939.939v3.755a.939.939,0,0,0,.939.939,7.2,7.2,0,0,1,6.312,3.737.939.939,0,0,0,1.646-.9,9.083,9.083,0,0,0-7.019-4.662v-1.926h3.818a3.332,3.332,0,0,0,2.379-1.007,3.309,3.309,0,0,0,4.755,0,3.311,3.311,0,0,0,3.818.679v3.145a9.754,9.754,0,0,1-4.34,8.119.939.939,0,0,0-.417.78V222.74H6.634v-7.823a.939.939,0,1,0-1.877,0v8.762a.939.939,0,0,0,.939.939H17.586a.939.939,0,0,0,.939-.939V209.847a11.626,11.626,0,0,0,4.756-9.387v-9.888A3.321,3.321,0,0,0,19.964,187.255Zm-15.708,3.94v-4.378a1.439,1.439,0,0,1,2.879,0v4.193H5.7A5.688,5.688,0,0,0,4.256,191.195Zm6.128-.185H9.012v-4.193a1.439,1.439,0,0,1,2.879,0v4.538A3.439,3.439,0,0,0,10.384,191.01Zm4.824,4.756a1.441,1.441,0,0,1-1.439-1.439v-5.632a1.439,1.439,0,1,1,2.879,0v5.632A1.441,1.441,0,0,1,15.208,195.766Zm4.756,0a1.441,1.441,0,0,1-1.439-1.439v-3.755a1.439,1.439,0,0,1,2.879,0v3.755A1.441,1.441,0,0,1,19.964,195.766Z" transform="translate(0 -160.532)"/>
      <path id="Trazado_1082937" data-name="Trazado 1082937" d="M345.964,187.255a3.3,3.3,0,0,0-1.6.414,3.314,3.314,0,0,0-4.756-1.877,3.314,3.314,0,0,0-5.532-1.283,3.315,3.315,0,0,0-5.7,2.309v5.263A5.69,5.69,0,0,0,326,196.705v3.755a11.626,11.626,0,0,0,4.756,9.386v13.832a.939.939,0,0,0,.939.939h11.891a.939.939,0,0,0,.939-.939V209.847a11.626,11.626,0,0,0,4.756-9.387v-9.888A3.321,3.321,0,0,0,345.964,187.255Zm-4.756,0a1.441,1.441,0,0,1,1.439,1.439v5.632a1.439,1.439,0,0,1-2.879,0v-5.632A1.441,1.441,0,0,1,341.208,187.255Zm-4.756-1.877a1.441,1.441,0,0,1,1.439,1.439v4.538a3.439,3.439,0,0,0-1.507-.345h-1.372v-4.193A1.441,1.441,0,0,1,336.451,185.377Zm-6.2,1.439a1.439,1.439,0,1,1,2.879,0v4.193H331.7a5.688,5.688,0,0,0-1.439.185Zm12.808,21.762a.939.939,0,0,0-.417.78V222.74H332.634V209.358a.939.939,0,0,0-.416-.78,9.755,9.755,0,0,1-4.34-8.118v-3.755a3.822,3.822,0,0,1,3.818-3.818h4.689a1.49,1.49,0,0,1,1.5,1.369,1.439,1.439,0,0,1-1.438,1.51H331.7a.939.939,0,0,0-.939.939v3.755a.939.939,0,0,0,.939.939,7.2,7.2,0,0,1,6.312,3.737.939.939,0,0,0,1.646-.9,9.083,9.083,0,0,0-7.018-4.662v-1.926h3.818a3.332,3.332,0,0,0,2.379-1.007,3.309,3.309,0,0,0,4.755,0,3.311,3.311,0,0,0,3.818.679v3.145A9.754,9.754,0,0,1,343.064,208.579Zm2.9-12.812a1.441,1.441,0,0,1-1.439-1.439v-3.755a1.439,1.439,0,1,1,2.879,0v3.755A1.441,1.441,0,0,1,345.964,195.766Z" transform="translate(-285.196 -160.532)"/>
    </g>
  </g>
</svg>
