<svg xmlns="http://www.w3.org/2000/svg" xmlns:xlink="http://www.w3.org/1999/xlink" width="93.934" height="93.934" viewBox="0 0 93.934 93.934">
  <defs>
    <filter id="Trazado_978624" x="0" y="0" width="93.934" height="93.934" filterUnits="userSpaceOnUse">
      <feOffset dy="3" input="SourceAlpha"/>
      <feGaussianBlur stdDeviation="3" result="blur"/>
      <feFlood flood-opacity="0.161"/>
      <feComposite operator="in" in2="blur"/>
      <feComposite in="SourceGraphic"/>
    </filter>
  </defs>
  <g id="Grupo_1211073" data-name="Grupo 1211073" transform="translate(-1029 -9259.033)">
    <g id="Grupo_1209934" data-name="Grupo 1209934" transform="translate(-4 4013.445)">
      <g id="Grupo_1208073" data-name="Grupo 1208073" transform="translate(836 3815.588)">
        <g id="Grupo_1144123" data-name="Grupo 1144123" transform="translate(206 1436)">
          <g transform="matrix(1, 0, 0, 1, -9, -6)" filter="url(#Trazado_978624)">
            <g id="Trazado_978624-2" data-name="Trazado 978624" transform="translate(9 6)" fill="#efeadd">
              <path d="M 37.966796875 74.43359375 C 33.04315185546875 74.43359375 28.26757431030273 73.46962738037109 23.77274131774902 71.56847381591797 C 19.43047523498535 69.73184967041016 15.53040790557861 67.10224914550781 12.18087482452393 63.75271987915039 C 8.831341743469238 60.4031867980957 6.201741218566895 56.50312042236328 4.365118980407715 52.16086196899414 C 2.463963508605957 47.66601943969727 1.499996900558472 42.89044189453125 1.499996900558472 37.966796875 C 1.499996900558472 33.04315185546875 2.463963508605957 28.26757431030273 4.365118980407715 23.77274131774902 C 6.201741218566895 19.43047523498535 8.831341743469238 15.53040790557861 12.18087482452393 12.18087482452393 C 15.53040790557861 8.831341743469238 19.43047523498535 6.201741218566895 23.77274131774902 4.365118980407715 C 28.26757431030273 2.463963508605957 33.04315185546875 1.499996900558472 37.966796875 1.499996900558472 C 42.89044189453125 1.499996900558472 47.66601943969727 2.463963508605957 52.16086196899414 4.365118980407715 C 56.50312042236328 6.201741218566895 60.4031867980957 8.831341743469238 63.75271987915039 12.18087482452393 C 67.10224914550781 15.53040790557861 69.73184967041016 19.43047523498535 71.56847381591797 23.77274131774902 C 73.46962738037109 28.26757431030273 74.43359375 33.04315185546875 74.43359375 37.966796875 C 74.43359375 42.89044189453125 73.46962738037109 47.66601943969727 71.56847381591797 52.16086196899414 C 69.73184967041016 56.50313186645508 67.10224914550781 60.4031867980957 63.75271987915039 63.75271987915039 C 60.4031867980957 67.10224914550781 56.50313186645508 69.73184967041016 52.16086196899414 71.56847381591797 C 47.66601943969727 73.46962738037109 42.89044189453125 74.43359375 37.966796875 74.43359375 Z" stroke="none"/>
              <path d="M 37.966796875 3 C 33.2449836730957 3 28.66600799560547 3.924095153808594 24.35705947875977 5.746635437011719 C 20.19359588623047 7.507621765136719 16.45379638671875 10.02927398681641 13.24153518676758 13.24153518676758 C 10.02927398681641 16.45379638671875 7.507621765136719 20.19359588623047 5.746635437011719 24.35705947875977 C 3.924095153808594 28.66600799560547 3 33.2449836730957 3 37.966796875 C 3 42.6886100769043 3.924095153808594 47.26758575439453 5.746635437011719 51.57653427124023 C 7.507621765136719 55.73999786376953 10.02927398681641 59.47979736328125 13.24153518676758 62.69205856323242 C 16.45379638671875 65.90431976318359 20.19359588623047 68.42597198486328 24.35705947875977 70.18695831298828 C 28.66600799560547 72.00949859619141 33.2449836730957 72.93359375 37.966796875 72.93359375 C 42.6886100769043 72.93359375 47.26758575439453 72.00949859619141 51.57653427124023 70.18695831298828 C 55.73999786376953 68.42597198486328 59.47979736328125 65.90431976318359 62.69205856323242 62.69205856323242 C 65.90431976318359 59.47979736328125 68.42597198486328 55.73999786376953 70.18695831298828 51.57653427124023 C 72.00949859619141 47.26758575439453 72.93359375 42.6886100769043 72.93359375 37.966796875 C 72.93359375 33.2449836730957 72.00949859619141 28.66600799560547 70.18695831298828 24.35705947875977 C 68.42597198486328 20.19359588623047 65.90431976318359 16.45379638671875 62.69205856323242 13.24153518676758 C 59.47979736328125 10.02927398681641 55.73999786376953 7.507621765136719 51.57653427124023 5.746635437011719 C 47.26758575439453 3.924095153808594 42.6886100769043 3 37.966796875 3 M 37.966796875 0 C 58.93528366088867 0 75.93359375 16.99831008911133 75.93359375 37.966796875 C 75.93359375 58.93528366088867 58.93528366088867 75.93359375 37.966796875 75.93359375 C 16.99831008911133 75.93359375 0 58.93528366088867 0 37.966796875 C 0 16.99831008911133 16.99831008911133 0 37.966796875 0 Z" stroke="none" fill="#847625"/>
            </g>
          </g>
        </g>
      </g>
    </g>
    <g id="pruebas-de-software" transform="translate(1051.167 9278.201)">
      <g id="Grupo_1211071" data-name="Grupo 1211071" transform="translate(1.007 0.727)">
        <path id="Trazado_1082959" data-name="Trazado 1082959" d="M57.984,362.451v3.391H10.4v-3.391l26.978-1.722Z" transform="translate(-10.4 -326.511)" fill="#756e78"/>
        <path id="Trazado_1082960" data-name="Trazado 1082960" d="M57.984,116.46v25.384H10.4V116.46H27.271s.9,6.062,6.824,6.062,6.292-6.062,6.292-6.062Z" transform="translate(-10.4 -105.905)" fill="#b2e5fb"/>
        <path id="Trazado_1082961" data-name="Trazado 1082961" d="M468.636,370.611V374H465.1a3.179,3.179,0,0,0,.85-2.077v-1.314l1.281-.846Z" transform="translate(-421.052 -334.672)" fill="#655f66"/>
        <path id="Trazado_1082962" data-name="Trazado 1082962" d="M467.615,116.46v25.384H464.93V119.221a4.026,4.026,0,0,0-.96-2.761Z" transform="translate(-420.032 -105.905)" fill="#90d8f9"/>
        <path id="Trazado_1082963" data-name="Trazado 1082963" d="M175.647,418.851l-2.841.361a9.3,9.3,0,0,0-13.562,0l-2.87-.307,2.9-5.4h13.511Z" transform="translate(-142.233 -374.17)" fill="#cee0ea"/>
        <path id="Trazado_1082964" data-name="Trazado 1082964" d="M142.445,470.891l-2.022.194h-23.94a.507.507,0,0,1-.484-.526v-2.531a.507.507,0,0,1,.484-.527h24.451l1.511.194a.507.507,0,0,1,.484.527v2.144A.507.507,0,0,1,142.445,470.891Z" transform="translate(-105.768 -422.939)" fill="#e6edf4"/>
        <path id="Trazado_1082965" data-name="Trazado 1082965" d="M369.927,468.027v2.531a.507.507,0,0,1-.484.526H367.13c.563,0,.608-.543.608-.794V467.5h1.7A.507.507,0,0,1,369.927,468.027Z" transform="translate(-332.573 -422.939)" fill="#cee0ea"/>
        <g id="Grupo_1211068" data-name="Grupo 1211068" transform="translate(13.761)">
          <circle id="Elipse_14313" data-name="Elipse 14313" cx="6.436" cy="6.436" r="6.436" transform="translate(3.479 3.853)" fill="#b2e5fb"/>
          <g id="Grupo_1211066" data-name="Grupo 1211066">
            <path id="Trazado_1082966" data-name="Trazado 1082966" d="M171.5,15.768l-.713-.057a.289.289,0,0,1-.279-.211,9.682,9.682,0,0,0-.7-2.162.289.289,0,0,1,.049-.347l.715-.715a.581.581,0,0,0,0-.821L168.55,9.428a.581.581,0,0,0-.822,0l-.711.711a.289.289,0,0,1-.347.048,8.408,8.408,0,0,0-1.965-.816.289.289,0,0,1-.211-.279V8.081a.581.581,0,0,0-.581-.581h-2.867a.581.581,0,0,0-.581.581V9.087a.289.289,0,0,1-.211.279,8.383,8.383,0,0,0-1.966.812.289.289,0,0,1-.346-.048l-.715-.714a.579.579,0,0,0-.821,0l-2.028,2.028a.579.579,0,0,0,0,.821l.711.712a.289.289,0,0,1,.048.347,8.4,8.4,0,0,0-.816,1.965.289.289,0,0,1-.279.211h-1.01a.581.581,0,0,0-.581.581v2.867a.581.581,0,0,0,.581.581h1.006a.289.289,0,0,1,.28.211,8.379,8.379,0,0,0,.812,1.967.288.288,0,0,1-.039.335s.02.124.016.128l-.361.578a.582.582,0,0,0,0,.822l1.732,1.732a.581.581,0,0,0,.821,0l.712-.712a.289.289,0,0,1,.347-.048,9.4,9.4,0,0,0,2.077.869.289.289,0,0,1,.21.279V26.7a.581.581,0,0,0,.581.581l2.454.153a.581.581,0,0,0,.581-.581V25.848a.289.289,0,0,1,.211-.279,10.547,10.547,0,0,0,2.2-.923.289.289,0,0,1,.347.048l.715.715a.581.581,0,0,0,.822,0l1.78-1.8a.581.581,0,0,0,0-.821l-.712-.712a.289.289,0,0,1-.048-.347,9.429,9.429,0,0,0,.832-2.093.289.289,0,0,1,.279-.21H171.7a.581.581,0,0,0,.581-.581l-.193-2.491a.581.581,0,0,0-.581-.581Zm-9.032,6.9a5.142,5.142,0,1,1,5.142-5.142,5.142,5.142,0,0,1-5.142,5.142Z" transform="translate(-152.449 -7.5)" fill="#756e78"/>
          </g>
          <g id="Grupo_1211067" data-name="Grupo 1211067" transform="translate(1.745 5.839)">
            <path id="Trazado_1082967" data-name="Trazado 1082967" d="M188.765,70.528V73.4a.582.582,0,0,1-.581.581h-1.01a.288.288,0,0,0-.279.21,8.436,8.436,0,0,1-.817,1.965.289.289,0,0,0,.047.347l.712.712a.581.581,0,0,1,0,.821l-2.028,2.028a.581.581,0,0,1-.822,0l-.715-.715a.289.289,0,0,0-.347-.048,8.374,8.374,0,0,1-1.966.813.288.288,0,0,0-.211.279V81.4a.582.582,0,0,1-.581.581H177.3a.582.582,0,0,1-.581-.581v-1.01a.288.288,0,0,0-.21-.279,8.436,8.436,0,0,1-1.965-.817.289.289,0,0,0-.347.047l-.712.712a.581.581,0,0,1-.821,0l-2.028-2.028a.582.582,0,0,1,0-.822l.715-.714.01-.012c7.2,4.339,14.291-1.557,14.726-8.7a8.433,8.433,0,0,1,.813,1.966.288.288,0,0,0,.279.211h1.007a.582.582,0,0,1,.581.581Z" transform="translate(-170.465 -67.77)" fill="#655f66"/>
          </g>
        </g>
        <g id="Grupo_1211069" data-name="Grupo 1211069" transform="translate(7.702 20.123)">
          <path id="Trazado_1082968" data-name="Trazado 1082968" d="M102.451,221.719a5.856,5.856,0,0,1-6.113,6.105c-2.34,0-3.911-1.135-5.473-2.7a6.5,6.5,0,0,1,8.935-8.935A7.35,7.35,0,0,1,102.451,221.719Z" transform="translate(-89.903 -215.224)" fill="#fe93d3"/>
          <path id="Trazado_1082969" data-name="Trazado 1082969" d="M111.858,230.683a6.495,6.495,0,0,1-12.028,3.4,6.495,6.495,0,0,0,8.935-8.935A6.49,6.49,0,0,1,111.858,230.683Z" transform="translate(-98.868 -224.188)" fill="#fe73c5"/>
        </g>
        <g id="Grupo_1211070" data-name="Grupo 1211070" transform="translate(26.893 20.123)">
          <path id="Trazado_1082970" data-name="Trazado 1082970" d="M300.6,221.719a5.992,5.992,0,0,1-6.293,6.092,6.686,6.686,0,0,1-5.332-2.691,6.5,6.5,0,0,1,8.935-8.935A7.064,7.064,0,0,1,300.6,221.719Z" transform="translate(-288.012 -215.224)" fill="#66c6a6"/>
          <path id="Trazado_1082971" data-name="Trazado 1082971" d="M309.959,230.674a6.5,6.5,0,0,1-12.029,3.4,6.5,6.5,0,0,0,8.935-8.935A6.491,6.491,0,0,1,309.959,230.674Z" transform="translate(-296.969 -224.179)" fill="#50b29f"/>
        </g>
      </g>
      <g id="Grupo_1211072" data-name="Grupo 1211072" transform="translate(0 0)">
        <path id="Trazado_1082972" data-name="Trazado 1082972" d="M47.9,10.361H35.539V9.323a1.309,1.309,0,0,0-1.308-1.308h-.679A9.11,9.11,0,0,0,32.927,6.5l.484-.484a1.309,1.309,0,0,0,0-1.849L31.383,2.14a1.308,1.308,0,0,0-1.849,0l-.48.48a9.122,9.122,0,0,0-1.513-.629V1.308A1.309,1.309,0,0,0,26.232,0H23.365a1.309,1.309,0,0,0-1.308,1.308v.679a9.111,9.111,0,0,0-1.514.626l-.484-.484a1.309,1.309,0,0,0-1.849,0L16.182,4.156a1.308,1.308,0,0,0,0,1.849l.48.48A9.112,9.112,0,0,0,16.033,8h-.684a1.309,1.309,0,0,0-1.308,1.308v1.055H8.234a.727.727,0,0,0,0,1.453h5.807v.36a1.309,1.309,0,0,0,1.308,1.308h.679A9.11,9.11,0,0,0,16.654,15l-.484.484a1.309,1.309,0,0,0,0,1.849L18.2,19.357a1.308,1.308,0,0,0,1.849,0l.48-.48a9.118,9.118,0,0,0,1.513.629v.684A1.309,1.309,0,0,0,23.348,21.5h2.868a1.309,1.309,0,0,0,1.308-1.308v-.679a9.11,9.11,0,0,0,1.514-.626l.484.484a1.309,1.309,0,0,0,1.849,0L33.4,17.342a1.308,1.308,0,0,0,0-1.849l-.48-.48a9.119,9.119,0,0,0,.629-1.513h.684a1.309,1.309,0,0,0,1.308-1.308v-.376H47.9a.243.243,0,0,1,.242.242V35.94H1.453V12.057a.243.243,0,0,1,.242-.242H4.844a.727.727,0,0,0,0-1.453H1.7a1.7,1.7,0,0,0-1.7,1.7V39.181a1.7,1.7,0,0,0,1.7,1.7H8.709a.727.727,0,1,0,0-1.453H1.7a.243.243,0,0,1-.242-.242V37.393H48.146v1.788a.243.243,0,0,1-.242.242H12.1a.727.727,0,1,0,0,1.453H16.8l-2.128,3.972H11.723a1.212,1.212,0,0,0-1.211,1.211v2.329A1.212,1.212,0,0,0,11.723,49.6h15.45a.727.727,0,1,0,0-1.453H11.965V46.3H37.41v1.844H30.563a.727.727,0,1,0,0,1.453h7.089a1.212,1.212,0,0,0,1.211-1.211V46.059a1.212,1.212,0,0,0-1.211-1.211H34.922l-2.128-3.972H47.9a1.7,1.7,0,0,0,1.7-1.7V12.057a1.7,1.7,0,0,0-1.7-1.7ZM34.086,12.046H33a.726.726,0,0,0-.706.553,7.669,7.669,0,0,1-.9,2.159.727.727,0,0,0,.107.891l.768.768-1.822,1.822-.771-.771a.726.726,0,0,0-.89-.108,7.67,7.67,0,0,1-2.16.892.727.727,0,0,0-.555.706v1.086H23.493v-1.09a.726.726,0,0,0-.553-.706,7.669,7.669,0,0,1-2.159-.9.727.727,0,0,0-.891.107l-.768.768L17.3,16.4l.771-.771a.726.726,0,0,0,.108-.89,7.67,7.67,0,0,1-.892-2.16.727.727,0,0,0-.706-.555H15.495V9.452h1.09A.726.726,0,0,0,17.29,8.9a7.669,7.669,0,0,1,.9-2.159.727.727,0,0,0-.107-.891l-.768-.768,1.822-1.822.771.771a.727.727,0,0,0,.89.108,7.671,7.671,0,0,1,2.16-.892.727.727,0,0,0,.555-.706V1.453h2.577v1.09a.726.726,0,0,0,.553.706,7.672,7.672,0,0,1,2.159.9.726.726,0,0,0,.891-.107l.768-.768L32.28,5.093l-.771.771a.726.726,0,0,0-.108.89,7.67,7.67,0,0,1,.892,2.16A.727.727,0,0,0,33,9.469h1.086v2.577Zm-14.112,32.8a8.6,8.6,0,0,1,9.65,0Zm13.3,0H31.888a10.029,10.029,0,0,0-14.177,0H16.326l2.128-3.972H31.146Z" transform="translate(0 0)"/>
        <path id="Trazado_1082973" data-name="Trazado 1082973" d="M201.192,50.375a5.869,5.869,0,1,0,5.869,5.869A5.876,5.876,0,0,0,201.192,50.375Zm0,10.285a4.416,4.416,0,1,1,4.416-4.416A4.421,4.421,0,0,1,201.192,60.66Z" transform="translate(-176.402 -45.495)"/>
        <path id="Trazado_1082974" data-name="Trazado 1082974" d="M96.846,214.946a7.221,7.221,0,1,0-7.221,7.221A7.229,7.229,0,0,0,96.846,214.946Zm-12.989,0a5.768,5.768,0,1,1,5.768,5.768A5.774,5.774,0,0,1,83.857,214.946Z" transform="translate(-74.421 -187.602)"/>
        <path id="Trazado_1082975" data-name="Trazado 1082975" d="M133.443,259.794a.726.726,0,0,0,1.027-1.027l-1.434-1.434,1.434-1.434a.726.726,0,1,0-1.027-1.027l-1.434,1.435-1.434-1.435a.727.727,0,1,0-1.027,1.027l1.434,1.434-1.434,1.434a.727.727,0,1,0,1.027,1.027l1.434-1.434Z" transform="translate(-116.805 -229.988)"/>
        <path id="Trazado_1082976" data-name="Trazado 1082976" d="M283.91,216.335a.727.727,0,1,0-1.411.349,7.22,7.22,0,1,0,.077-3.769.727.727,0,0,0,1.395.407,5.77,5.77,0,1,1-.061,3.012Z" transform="translate(-255.113 -187.599)"/>
        <path id="Trazado_1082977" data-name="Trazado 1082977" d="M324.582,259.929h.023a.727.727,0,0,0,.55-.28l3.334-4.278a.727.727,0,1,0-1.146-.893l-2.8,3.59-1.461-1.645a.727.727,0,0,0-1.087.965l2.04,2.3A.727.727,0,0,0,324.582,259.929Z" transform="translate(-290.64 -229.573)"/>
      </g>
    </g>
  </g>
</svg>
