<svg xmlns="http://www.w3.org/2000/svg" xmlns:xlink="http://www.w3.org/1999/xlink" width="103" height="103" viewBox="0 0 103 103">
  <defs>
    <filter id="Trazado_978624" x="0" y="0" width="103" height="103" filterUnits="userSpaceOnUse">
      <feOffset dy="3" input="SourceAlpha"/>
      <feGaussianBlur stdDeviation="3" result="blur"/>
      <feFlood flood-opacity="0.161"/>
      <feComposite operator="in" in2="blur"/>
      <feComposite in="SourceGraphic"/>
    </filter>
  </defs>
  <g id="Grupo_1210820" data-name="Grupo 1210820" transform="translate(-164.789 -1997.131)">
    <g id="Grupo_1209745" data-name="Grupo 1209745" transform="translate(-0.711 939.131)">
      <g id="Grupo_1178144" data-name="Grupo 1178144" transform="translate(-19.5 -2004)">
        <g id="Grupo_1177896" data-name="Grupo 1177896" transform="translate(14 196)">
          <g id="Grupo_1176881" data-name="Grupo 1176881">
            <g id="Grupo_1175148" data-name="Grupo 1175148" transform="translate(0 1580)">
              <g id="Grupo_1173798" data-name="Grupo 1173798" transform="translate(-3 -3520)">
                <g id="Grupo_1171925" data-name="Grupo 1171925" transform="translate(-22 -2246)">
                  <g id="Grupo_1164524" data-name="Grupo 1164524" transform="translate(205 7058)">
                    <g id="Grupo_1144123" data-name="Grupo 1144123">
                      <g transform="matrix(1, 0, 0, 1, -9, -6)" filter="url(#Trazado_978624)">
                        <g id="Trazado_978624-2" data-name="Trazado 978624" transform="translate(9 6)" fill="#edeef2">
                          <path d="M 42.5 83.5 C 36.96437835693359 83.5 31.59512901306152 82.41617584228516 26.54141235351562 80.27863311767578 C 21.65934181213379 78.21369171142578 17.27447128295898 75.25723266601562 13.50862312316895 71.49137878417969 C 9.742764472961426 67.72553253173828 6.786305904388428 63.34066009521484 4.721364498138428 58.45858764648438 C 2.583823442459106 53.40486907958984 1.5 48.03562164306641 1.5 42.5 C 1.5 36.96437835693359 2.583823442459106 31.59512901306152 4.721364498138428 26.54141235351562 C 6.786305904388428 21.65934181213379 9.742764472961426 17.27447128295898 13.50862312316895 13.50862312316895 C 17.27447128295898 9.742764472961426 21.65934181213379 6.786305904388428 26.54141235351562 4.721364498138428 C 31.59512901306152 2.583823442459106 36.96437835693359 1.5 42.5 1.5 C 48.03562164306641 1.5 53.40486907958984 2.583823442459106 58.45858764648438 4.721364498138428 C 63.34066009521484 6.786305904388428 67.72553253173828 9.742764472961426 71.49137878417969 13.50862312316895 C 75.25723266601562 17.27447128295898 78.21369171142578 21.65934181213379 80.27863311767578 26.54141235351562 C 82.41617584228516 31.59512901306152 83.5 36.96437835693359 83.5 42.5 C 83.5 48.03562164306641 82.41617584228516 53.40486907958984 80.27863311767578 58.45858764648438 C 78.21369171142578 63.34066009521484 75.25723266601562 67.72553253173828 71.49137878417969 71.49137878417969 C 67.72553253173828 75.25723266601562 63.34066009521484 78.21369171142578 58.45858764648438 80.27863311767578 C 53.40486907958984 82.41617584228516 48.03562164306641 83.5 42.5 83.5 Z" stroke="none"/>
                          <path d="M 42.5 3 C 37.16621398925781 3 31.99356079101562 4.043960571289062 27.125732421875 6.102882385253906 C 22.42246627807617 8.092185974121094 18.19785308837891 10.94070434570312 14.56928253173828 14.56928253173828 C 10.94070434570312 18.19785308837891 8.092185974121094 22.42246627807617 6.102882385253906 27.125732421875 C 4.043960571289062 31.99356079101562 3 37.16621398925781 3 42.5 C 3 47.83378601074219 4.043960571289062 53.00643920898438 6.102882385253906 57.87425231933594 C 8.092185974121094 62.57753372192383 10.94070434570312 66.80213165283203 14.56928253173828 70.43071746826172 C 18.19786834716797 74.05929565429688 22.42246627807617 76.90781402587891 27.125732421875 78.89711761474609 C 31.99356079101562 80.95603942871094 37.16621398925781 82 42.5 82 C 47.83378601074219 82 53.00642395019531 80.95603942871094 57.87425231933594 78.89711761474609 C 62.57753372192383 76.90781402587891 66.80213165283203 74.05929565429688 70.43071746826172 70.43071746826172 C 74.05929565429688 66.80213165283203 76.90781402587891 62.57753372192383 78.89711761474609 57.87425231933594 C 80.95603942871094 53.00642395019531 82 47.83378601074219 82 42.5 C 82 37.16621398925781 80.95603942871094 31.99356079101562 78.89711761474609 27.125732421875 C 76.90781402587891 22.42246627807617 74.05929565429688 18.19786834716797 70.43071746826172 14.56928253173828 C 66.80213165283203 10.94070434570312 62.57753372192383 8.092185974121094 57.87425231933594 6.102882385253906 C 53.00643920898438 4.043960571289062 47.83378601074219 3 42.5 3 M 42.5 0 C 65.97209167480469 0 85 19.02789306640625 85 42.5 C 85 65.97209167480469 65.97209167480469 85 42.5 85 C 19.02789306640625 85 0 65.97209167480469 0 42.5 C 0 19.02789306640625 19.02789306640625 0 42.5 0 Z" stroke="none" fill="#9ec6e0"/>
                        </g>
                      </g>
                    </g>
                  </g>
                </g>
              </g>
            </g>
          </g>
        </g>
      </g>
    </g>
    <g id="subasta_1_" data-name="subasta (1)" transform="translate(174.995 1993.26)">
      <path id="Trazado_1082297" data-name="Trazado 1082297" d="M366.152,80.412a7.562,7.562,0,0,1,6.888,5.111.787.787,0,0,1-.733,1.071H360a.786.786,0,0,1-.733-1.071A7.562,7.562,0,0,1,366.152,80.412Z" transform="translate(-308.229 -50.398)" fill="#f0414a" fill-rule="evenodd"/>
      <path id="Trazado_1082298" data-name="Trazado 1082298" d="M380.9,81.005a7.73,7.73,0,0,1,5.885,5.035.787.787,0,0,1-.733,1.071h-10.3a.787.787,0,0,1-.733-1.071A7.73,7.73,0,0,1,380.9,81.005Z" transform="translate(-321.974 -50.916)" fill="#fb545c" fill-rule="evenodd"/>
      <circle id="Elipse_14266" data-name="Elipse 14266" cx="3.359" cy="3.359" r="3.359" transform="translate(54.115 23.806) rotate(-7.992)" fill="#f9c795"/>
      <path id="Trazado_1082299" data-name="Trazado 1082299" d="M400.2,28.148a3.359,3.359,0,1,1-2.714,3.3A3.359,3.359,0,0,1,400.2,28.148Z" transform="translate(-341.633 -4.789)" fill="#fdd7ad" fill-rule="evenodd"/>
      <path id="Trazado_1082300" data-name="Trazado 1082300" d="M103.724,80.412a7.561,7.561,0,0,1,6.888,5.111.787.787,0,0,1-.733,1.071H97.569a.787.787,0,0,1-.733-1.071A7.562,7.562,0,0,1,103.724,80.412Z" transform="translate(-79.217 -50.398)" fill="#008535" fill-rule="evenodd"/>
      <path id="Trazado_1082301" data-name="Trazado 1082301" d="M118.471,81.005a7.73,7.73,0,0,1,5.885,5.035.787.787,0,0,1-.733,1.071h-10.3a.787.787,0,0,1-.733-1.071,7.73,7.73,0,0,1,5.885-5.035Z" transform="translate(-92.962 -50.916)" fill="#0c9e47" fill-rule="evenodd"/>
      <path id="Trazado_1082302" data-name="Trazado 1082302" d="M128.292,34.377a3.359,3.359,0,1,0-3.359-3.359A3.365,3.365,0,0,0,128.292,34.377Z" transform="translate(-103.785 -4.363)" fill="#f9c795" fill-rule="evenodd"/>
      <path id="Trazado_1082303" data-name="Trazado 1082303" d="M137.772,28.148a3.359,3.359,0,1,1-2.714,3.3A3.359,3.359,0,0,1,137.772,28.148Z" transform="translate(-112.621 -4.789)" fill="#fdd7ad" fill-rule="evenodd"/>
      <path id="Trazado_1082304" data-name="Trazado 1082304" d="M17.945,204.9a7.562,7.562,0,0,1,6.888,5.111.787.787,0,0,1-.733,1.071H11.79a.787.787,0,0,1-.733-1.071,7.561,7.561,0,0,1,6.888-5.111Z" transform="translate(-4.361 -159.037)" fill="#ee8700" fill-rule="evenodd"/>
      <path id="Trazado_1082305" data-name="Trazado 1082305" d="M32.692,205.5a7.73,7.73,0,0,1,5.885,5.035.787.787,0,0,1-.733,1.071H27.54a.787.787,0,0,1-.733-1.071,7.73,7.73,0,0,1,5.885-5.035Z" transform="translate(-18.105 -159.554)" fill="#f89b00" fill-rule="evenodd"/>
      <path id="Trazado_1082306" data-name="Trazado 1082306" d="M42.513,158.867a3.359,3.359,0,1,0-3.359-3.359A3.365,3.365,0,0,0,42.513,158.867Z" transform="translate(-28.928 -113.002)" fill="#f9c795" fill-rule="evenodd"/>
      <path id="Trazado_1082307" data-name="Trazado 1082307" d="M51.994,152.638a3.359,3.359,0,0,1,0,6.593,3.359,3.359,0,0,1,0-6.593Z" transform="translate(-37.765 -113.428)" fill="#fdd7ad" fill-rule="evenodd"/>
      <circle id="Elipse_14267" data-name="Elipse 14267" cx="22.051" cy="22.051" r="22.051" transform="translate(19.163 32.409)" fill="#f9c795"/>
      <path id="Trazado_1082308" data-name="Trazado 1082308" d="M193.456,138.669a21.951,21.951,0,0,1-12.2,6.2,22.051,22.051,0,0,1,0-43.578,22.051,22.051,0,0,1,12.2,37.382Z" transform="translate(-136.649 -68.615)" fill="#fdd7ad" fill-rule="evenodd"/>
      <path id="Trazado_1082309" data-name="Trazado 1082309" d="M215.359,416.178c4.377,0,8.131,3.029,9.735,7.346a.988.988,0,0,1-.926,1.332H206.55a.988.988,0,0,1-.926-1.332c1.6-4.317,5.358-7.346,9.735-7.346Z" transform="translate(-174.145 -343.411)" fill="#0e82f5" fill-rule="evenodd"/>
      <path id="Trazado_1082310" data-name="Trazado 1082310" d="M233.266,416.8a10.85,10.85,0,0,1,8.517,7.267.988.988,0,0,1-.926,1.332H225.675a.988.988,0,0,1-.926-1.332A10.85,10.85,0,0,1,233.266,416.8Z" transform="translate(-190.834 -343.953)" fill="#2a92fa" fill-rule="evenodd"/>
      <circle id="Elipse_14268" data-name="Elipse 14268" cx="4.715" cy="4.715" r="4.715" transform="translate(36.499 63.337)" fill="#dea368"/>
      <path id="Trazado_1082311" data-name="Trazado 1082311" d="M264.251,342.876a4.716,4.716,0,1,1-3.76,4.618A4.717,4.717,0,0,1,264.251,342.876Z" transform="translate(-222.082 -279.442)" fill="#e6b17c" fill-rule="evenodd"/>
      <path id="Trazado_1082312" data-name="Trazado 1082312" d="M387.376,363.62a8.414,8.414,0,0,1,7.664,5.687.875.875,0,0,1-.816,1.191h-13.7a.875.875,0,0,1-.816-1.191A8.414,8.414,0,0,1,387.376,363.62Z" transform="translate(-326.069 -297.545)" fill="#f9ac00" fill-rule="evenodd"/>
      <path id="Trazado_1082313" data-name="Trazado 1082313" d="M401.6,364.115a8.574,8.574,0,0,1,6.7,5.624.875.875,0,0,1-.816,1.191H395.714a.875.875,0,0,1-.816-1.191,8.574,8.574,0,0,1,6.7-5.624Z" transform="translate(-339.321 -297.977)" fill="#fdc72e" fill-rule="evenodd"/>
      <circle id="Elipse_14269" data-name="Elipse 14269" cx="3.737" cy="3.737" r="3.737" transform="translate(57.167 59.057) rotate(-6.258)" fill="#dea368"/>
      <g id="Grupo_1210819" data-name="Grupo 1210819" transform="translate(13.395 35.692)">
        <path id="Trazado_1082314" data-name="Trazado 1082314" d="M425.949,305.537a3.738,3.738,0,1,1-2.973,3.659A3.738,3.738,0,0,1,425.949,305.537Z" transform="translate(-377.273 -282.55)" fill="#e6b17c" fill-rule="evenodd"/>
        <path id="Trazado_1082315" data-name="Trazado 1082315" d="M239.91,270.439h-6.6v-1.658a1.414,1.414,0,0,1,1.411-1.411H245.1a1.414,1.414,0,0,1,1.411,1.411v1.658Z" transform="translate(-211.759 -249.243)" fill="#ee8700" fill-rule="evenodd"/>
        <path id="Trazado_1082316" data-name="Trazado 1082316" d="M255.836,270.439h-4.274v-1.658a1.414,1.414,0,0,1,1.411-1.411h8.05a1.414,1.414,0,0,1,1.411,1.411v1.658Z" transform="translate(-227.685 -249.243)" fill="#f89b00" fill-rule="evenodd"/>
        <path id="Trazado_1082317" data-name="Trazado 1082317" d="M208.613,287.027h14.855a2.436,2.436,0,0,1,2.653,2.117v.952H205.96v-.952A2.436,2.436,0,0,1,208.613,287.027Z" transform="translate(-187.89 -266.397)" fill="#d96500" fill-rule="evenodd"/>
        <path id="Trazado_1082318" data-name="Trazado 1082318" d="M226.863,287.027h12.531a2.436,2.436,0,0,1,2.653,2.117v.952H224.21v-.952A2.436,2.436,0,0,1,226.863,287.027Z" transform="translate(-203.816 -266.397)" fill="#e37200" fill-rule="evenodd"/>
        <path id="Trazado_1082319" data-name="Trazado 1082319" d="M311.208,182.4l.758-2.827,19.931,4.568a2.137,2.137,0,0,1,1.4,1.015,2.2,2.2,0,0,1-.824,3.075,2.136,2.136,0,0,1-1.72.179L311.208,182.4Z" transform="translate(-279.736 -172.627)" fill="#b54500" fill-rule="evenodd"/>
        <path id="Trazado_1082320" data-name="Trazado 1082320" d="M311.208,192.09l.379-1.414,21.955,5.883a2.2,2.2,0,0,1-1.07,1.361,2.136,2.136,0,0,1-1.72.179l-19.545-6.009Z" transform="translate(-279.736 -182.314)" fill="#a83b00" fill-rule="evenodd"/>
        <path id="Trazado_1082321" data-name="Trazado 1082321" d="M274.478,138.157l.254-.947-6.362-1.7-.254.947a18.662,18.662,0,0,1-2.585,9.648l-.254.947,6.362,1.7.254-.947A18.677,18.677,0,0,1,274.478,138.157Z" transform="translate(-239.654 -134.168)" fill="#ee8700" fill-rule="evenodd"/>
        <path id="Trazado_1082322" data-name="Trazado 1082322" d="M285.919,141.222l.254-.947-4.692-1.257-.254.947a18.662,18.662,0,0,1-2.585,9.648l-.254.947,4.692,1.257.254-.947A18.677,18.677,0,0,1,285.919,141.222Z" transform="translate(-251.095 -137.234)" fill="#f89b00" fill-rule="evenodd"/>
        <path id="Trazado_1082323" data-name="Trazado 1082323" d="M284.8,126.7l.2-.758a1.269,1.269,0,0,1,1.549-.894l4.845,1.3a1.268,1.268,0,0,1,.894,1.549l-.2.758a.481.481,0,0,1-.588.339l-6.362-1.7A.481.481,0,0,1,284.8,126.7Z" transform="translate(-256.672 -125.009)" fill="#d96500" fill-rule="evenodd"/>
        <path id="Trazado_1082324" data-name="Trazado 1082324" d="M299.659,128.564l3.176.851h0a1.269,1.269,0,0,1,.892,1.549l-.2.758a.481.481,0,0,1-.588.339l-4.694-1.258a.481.481,0,0,1-.337-.587l.2-.758a1.269,1.269,0,0,1,1.549-.894Z" transform="translate(-268.115 -128.073)" fill="#e37200" fill-rule="evenodd"/>
        <path id="Trazado_1082325" data-name="Trazado 1082325" d="M260.764,219.7l.2-.758a.481.481,0,0,1,.588-.339l6.362,1.7a.481.481,0,0,1,.339.588l-.2.758a1.269,1.269,0,0,1-1.549.894l-4.845-1.3A1.269,1.269,0,0,1,260.764,219.7Z" transform="translate(-235.677 -206.667)" fill="#d96500" fill-rule="evenodd"/>
        <path id="Trazado_1082326" data-name="Trazado 1082326" d="M279.359,223.37a.481.481,0,0,1,.338.587l-.2.758a1.269,1.269,0,0,1-1.549.894l-3.176-.851h0a1.269,1.269,0,0,1-.892-1.549l.2-.758a.481.481,0,0,1,.588-.339l4.694,1.258Z" transform="translate(-247.118 -209.733)" fill="#e37200" fill-rule="evenodd"/>
        <path id="Trazado_1082327" data-name="Trazado 1082327" d="M71.77,363.62a8.414,8.414,0,0,1,7.664,5.687.875.875,0,0,1-.816,1.191h-13.7a.875.875,0,0,1-.816-1.191A8.414,8.414,0,0,1,71.77,363.62Z" transform="translate(-64.045 -333.237)" fill="#3bd97d" fill-rule="evenodd"/>
        <path id="Trazado_1082328" data-name="Trazado 1082328" d="M85.991,364.115a8.574,8.574,0,0,1,6.7,5.624.875.875,0,0,1-.816,1.191H80.109a.875.875,0,0,1-.816-1.191,8.574,8.574,0,0,1,6.7-5.624Z" transform="translate(-77.298 -333.669)" fill="#4fe88e" fill-rule="evenodd"/>
      </g>
      <circle id="Elipse_14270" data-name="Elipse 14270" cx="3.737" cy="3.737" r="3.737" transform="matrix(0.999, -0.036, 0.036, 0.999, 17.259, 58.72)" fill="#dea368"/>
      <path id="Trazado_1082329" data-name="Trazado 1082329" d="M110.344,305.537a3.738,3.738,0,0,1,0,7.318,3.738,3.738,0,0,1,0-7.318Z" transform="translate(-88.459 -246.858)" fill="#e6b17c" fill-rule="evenodd"/>
      <path id="Trazado_1082330" data-name="Trazado 1082330" d="M32.1,58.439c0-.8.923-1.479,2.017-1.479H48.974c1.094,0,2.017.678,2.017,1.479v.316H32.1Zm3.483-3.207a.776.776,0,0,1,.775-.775H46.733a.776.776,0,0,1,.775.775v.455H35.585v-.455Zm-4.12,4.8H51.627a.637.637,0,0,0,.637-.637v-.953a3.061,3.061,0,0,0-3.29-2.753h-.192v-.455a2.051,2.051,0,0,0-2.049-2.049H36.36a2.051,2.051,0,0,0-2.048,2.049v.455h-.193a3.062,3.062,0,0,0-3.29,2.753v.953a.637.637,0,0,0,.637.637ZM68.353,72.214a.216.216,0,0,1-.2.1h-13.7a.237.237,0,0,1-.222-.324,7.373,7.373,0,0,1,14.14,0,.217.217,0,0,1-.025.221ZM50.312,80.659a.329.329,0,0,1-.289.152H32.406a.352.352,0,0,1-.329-.475c1.564-4.209,5.151-6.93,9.138-6.93s7.574,2.721,9.139,6.93a.33.33,0,0,1-.041.324ZM28.166,72.214a.216.216,0,0,1-.2.1h-13.7a.216.216,0,0,1-.2-.1.219.219,0,0,1-.026-.221,7.784,7.784,0,0,1,7.071-5.281,7.784,7.784,0,0,1,7.071,5.281A.217.217,0,0,1,28.166,72.214ZM18.02,62.338a3.1,3.1,0,1,1,3.1,3.1,3.1,3.1,0,0,1-3.1-3.1Zm23.194,9.793a4.078,4.078,0,1,1,4.078-4.078A4.083,4.083,0,0,1,41.214,72.131ZM26.072,39.319a21.373,21.373,0,0,0-5.965,18.766,4.372,4.372,0,0,1,3.6,7.78,9.468,9.468,0,0,1,5.675,5.667,1.5,1.5,0,0,1,.076.826,21.247,21.247,0,0,0,4.922,2.4,10.721,10.721,0,0,1,3.951-2.2,5.352,5.352,0,1,1,5.773,0,10.719,10.719,0,0,1,3.951,2.2,21.251,21.251,0,0,0,4.923-2.4,1.5,1.5,0,0,1,.076-.826,9.468,9.468,0,0,1,5.675-5.667,4.372,4.372,0,0,1,3.6-7.782,21.445,21.445,0,0,0,.109-6.55L46.451,46.621a18.087,18.087,0,0,0-.179,2.357,1.112,1.112,0,0,1,.315,1.1l-.2.759a1.907,1.907,0,0,1-1.838,1.41,1.888,1.888,0,0,1-.491-.065l-4.845-1.3a1.9,1.9,0,0,1-1.345-2.329l.2-.759a1.118,1.118,0,0,1,.824-.8,18.028,18.028,0,0,0,2.324-8.673,1.087,1.087,0,0,1-.2-.256,1.1,1.1,0,0,1-.112-.847l.2-.758a1.9,1.9,0,0,1,2.329-1.344l4.845,1.3a1.9,1.9,0,0,1,1.344,2.329l-.2.758a1.108,1.108,0,0,1-.824.8,18.224,18.224,0,0,0-1.025,2.132l13.063,2.994a21.419,21.419,0,0,0-34.564-6.109ZM7.43,51.41a.15.15,0,0,1-.14-.2,6.931,6.931,0,0,1,6.294-4.7,6.64,6.64,0,0,1,5.464,3.1q-.2.894-.321,1.8Zm6.154-11.625a2.722,2.722,0,1,1-2.722,2.722A2.725,2.725,0,0,1,13.584,39.785Zm4.768-4.226a.149.149,0,0,1-.139-.2,6.931,6.931,0,0,1,6.294-4.7,6.729,6.729,0,0,1,5.91,3.856q-.894.483-1.752,1.052H18.352Zm6.155-11.625a2.722,2.722,0,1,1-2.722,2.722A2.725,2.725,0,0,1,24.507,23.934ZM57.922,30.65a6.931,6.931,0,0,1,6.293,4.7.149.149,0,0,1-.139.2H53.765q-.858-.57-1.753-1.052a6.728,6.728,0,0,1,5.911-3.856Zm0-6.717A2.722,2.722,0,1,1,55.2,26.655,2.725,2.725,0,0,1,57.922,23.934ZM39.1,48.886l.162-.607L45.318,49.9l-.163.607a.629.629,0,0,1-.769.444l-4.845-1.3a.629.629,0,0,1-.445-.769ZM42.481,38.8l4.785,1.282A19.294,19.294,0,0,0,45.01,48.5L40.225,47.22A19.286,19.286,0,0,0,42.481,38.8Zm5.914-.384-.162.607L42.173,37.4l.163-.607a.632.632,0,0,1,.769-.444l4.845,1.3a.629.629,0,0,1,.445.77ZM66.409,48.552a1.563,1.563,0,0,1-.586,2.189,1.5,1.5,0,0,1-1.225.128l-17.92-5.51a17.707,17.707,0,0,1,.459-1.718l18.276,4.188a1.5,1.5,0,0,1,1,.723Zm-2,13.787a3.1,3.1,0,1,1-3.1-3.1A3.1,3.1,0,0,1,64.407,62.338Zm5.157,9.194a9.463,9.463,0,0,0-5.674-5.667,4.37,4.37,0,0,0-.362-7.293,22.687,22.687,0,0,0,.234-6.629l.461.142a2.882,2.882,0,0,0,.849.131,2.85,2.85,0,0,0,.624-5.628l-3.517-.806a22.766,22.766,0,0,0-6.684-8.95h8.58A1.423,1.423,0,0,0,65.4,34.894,8.592,8.592,0,0,0,60.377,29.8a3.995,3.995,0,1,0-4.915,0,8.356,8.356,0,0,0-4.587,4.133,22.8,22.8,0,0,0-19.321,0A8.354,8.354,0,0,0,26.967,29.8a4,4,0,1,0-4.915,0,8.592,8.592,0,0,0-5.027,5.091,1.423,1.423,0,0,0,1.327,1.938h8.58a22.743,22.743,0,0,0-7.482,11.2,8.088,8.088,0,0,0-3.412-2.377,4,4,0,1,0-4.909,0A8.59,8.59,0,0,0,6.1,50.746,1.423,1.423,0,0,0,7.43,52.683H18.592a22.8,22.8,0,0,0,.31,5.888,4.37,4.37,0,0,0-.364,7.294,9.468,9.468,0,0,0-5.675,5.667,1.512,1.512,0,0,0,1.41,2.058h13.7a1.5,1.5,0,0,0,.741-.194,22.454,22.454,0,0,0,4.655,2.356,12.863,12.863,0,0,0-2.482,4.14,1.625,1.625,0,0,0,1.523,2.191H50.023a1.624,1.624,0,0,0,1.523-2.191,12.863,12.863,0,0,0-2.481-4.14A22.448,22.448,0,0,0,53.718,73.4a1.5,1.5,0,0,0,.741.194h13.7a1.512,1.512,0,0,0,1.408-2.058Z" transform="translate(0 0)" fill-rule="evenodd"/>
    </g>
  </g>
</svg>
