<svg xmlns="http://www.w3.org/2000/svg" xmlns:xlink="http://www.w3.org/1999/xlink" width="103" height="103" viewBox="0 0 103 103">
  <defs>
    <filter id="Trazado_978624" x="0" y="0" width="103" height="103" filterUnits="userSpaceOnUse">
      <feOffset dy="3" input="SourceAlpha"/>
      <feGaussianBlur stdDeviation="3" result="blur"/>
      <feFlood flood-opacity="0.161"/>
      <feComposite operator="in" in2="blur"/>
      <feComposite in="SourceGraphic"/>
    </filter>
  </defs>
  <g id="Grupo_1211083" data-name="Grupo 1211083" transform="translate(-159.789 -10530)">
    <g id="Grupo_1210098" data-name="Grupo 1210098" transform="translate(-5.711 9472)">
      <g id="Grupo_1178144" data-name="Grupo 1178144" transform="translate(-19.5 -2004)">
        <g id="Grupo_1177896" data-name="Grupo 1177896" transform="translate(14 196)">
          <g id="Grupo_1176881" data-name="Grupo 1176881">
            <g id="Grupo_1175148" data-name="Grupo 1175148" transform="translate(0 1580)">
              <g id="Grupo_1173798" data-name="Grupo 1173798" transform="translate(-3 -3520)">
                <g id="Grupo_1171925" data-name="Grupo 1171925" transform="translate(-22 -2246)">
                  <g id="Grupo_1164524" data-name="Grupo 1164524" transform="translate(205 7058)">
                    <g id="Grupo_1144123" data-name="Grupo 1144123">
                      <g transform="matrix(1, 0, 0, 1, -9, -6)" filter="url(#Trazado_978624)">
                        <g id="Trazado_978624-2" data-name="Trazado 978624" transform="translate(9 6)" fill="#edeef2">
                          <path d="M 42.5 83.5 C 36.96437835693359 83.5 31.59512901306152 82.41617584228516 26.54141235351562 80.27863311767578 C 21.65934181213379 78.21369171142578 17.27447128295898 75.25723266601562 13.50862312316895 71.49137878417969 C 9.742764472961426 67.72553253173828 6.786305904388428 63.34066009521484 4.721364498138428 58.45858764648438 C 2.583823442459106 53.40486907958984 1.5 48.03562164306641 1.5 42.5 C 1.5 36.96437835693359 2.583823442459106 31.59512901306152 4.721364498138428 26.54141235351562 C 6.786305904388428 21.65934181213379 9.742764472961426 17.27447128295898 13.50862312316895 13.50862312316895 C 17.27447128295898 9.742764472961426 21.65934181213379 6.786305904388428 26.54141235351562 4.721364498138428 C 31.59512901306152 2.583823442459106 36.96437835693359 1.5 42.5 1.5 C 48.03562164306641 1.5 53.40486907958984 2.583823442459106 58.45858764648438 4.721364498138428 C 63.34066009521484 6.786305904388428 67.72553253173828 9.742764472961426 71.49137878417969 13.50862312316895 C 75.25723266601562 17.27447128295898 78.21369171142578 21.65934181213379 80.27863311767578 26.54141235351562 C 82.41617584228516 31.59512901306152 83.5 36.96437835693359 83.5 42.5 C 83.5 48.03562164306641 82.41617584228516 53.40486907958984 80.27863311767578 58.45858764648438 C 78.21369171142578 63.34066009521484 75.25723266601562 67.72553253173828 71.49137878417969 71.49137878417969 C 67.72553253173828 75.25723266601562 63.34066009521484 78.21369171142578 58.45858764648438 80.27863311767578 C 53.40486907958984 82.41617584228516 48.03562164306641 83.5 42.5 83.5 Z" stroke="none"/>
                          <path d="M 42.5 3 C 37.16621398925781 3 31.99356079101562 4.043960571289062 27.125732421875 6.102882385253906 C 22.42246627807617 8.092185974121094 18.19785308837891 10.94070434570312 14.56928253173828 14.56928253173828 C 10.94070434570312 18.19785308837891 8.092185974121094 22.42246627807617 6.102882385253906 27.125732421875 C 4.043960571289062 31.99356079101562 3 37.16621398925781 3 42.5 C 3 47.83378601074219 4.043960571289062 53.00643920898438 6.102882385253906 57.87425231933594 C 8.092185974121094 62.57753372192383 10.94070434570312 66.80213165283203 14.56928253173828 70.43071746826172 C 18.19786834716797 74.05929565429688 22.42246627807617 76.90781402587891 27.125732421875 78.89711761474609 C 31.99356079101562 80.95603942871094 37.16621398925781 82 42.5 82 C 47.83378601074219 82 53.00642395019531 80.95603942871094 57.87425231933594 78.89711761474609 C 62.57753372192383 76.90781402587891 66.80213165283203 74.05929565429688 70.43071746826172 70.43071746826172 C 74.05929565429688 66.80213165283203 76.90781402587891 62.57753372192383 78.89711761474609 57.87425231933594 C 80.95603942871094 53.00642395019531 82 47.83378601074219 82 42.5 C 82 37.16621398925781 80.95603942871094 31.99356079101562 78.89711761474609 27.125732421875 C 76.90781402587891 22.42246627807617 74.05929565429688 18.19786834716797 70.43071746826172 14.56928253173828 C 66.80213165283203 10.94070434570312 62.57753372192383 8.092185974121094 57.87425231933594 6.102882385253906 C 53.00643920898438 4.043960571289062 47.83378601074219 3 42.5 3 M 42.5 0 C 65.97209167480469 0 85 19.02789306640625 85 42.5 C 85 65.97209167480469 65.97209167480469 85 42.5 85 C 19.02789306640625 85 0 65.97209167480469 0 42.5 C 0 19.02789306640625 19.02789306640625 0 42.5 0 Z" stroke="none" fill="#56678d"/>
                        </g>
                      </g>
                    </g>
                  </g>
                </g>
              </g>
            </g>
          </g>
        </g>
      </g>
    </g>
    <g id="libro-de-leyes_1_" data-name="libro-de-leyes (1)" transform="translate(187.09 10554.627)">
      <g id="Grupo_1211081" data-name="Grupo 1211081" transform="translate(1.058 0.699)">
        <g id="Grupo_1211074" data-name="Grupo 1211074">
          <path id="Trazado_1082978" data-name="Trazado 1082978" d="M321.757,320.711v12.047H313.64V321.535Z" transform="translate(-285.124 -291.502)" fill="gray"/>
          <path id="Trazado_1082979" data-name="Trazado 1082979" d="M74.083,359.076a4.633,4.633,0,0,1,0-4.965l-13.757-2.4h-17.2v9.156h23.8Z" transform="translate(-39.834 -319.613)" fill="#f6f6f6"/>
          <path id="Trazado_1082980" data-name="Trazado 1082980" d="M44.487,9.293V40.2l-30.564.74-1.749.05L7.855,44.48V13.568A6.075,6.075,0,0,1,13.923,7.5H42.7a1.792,1.792,0,0,1,1.792,1.793Z" transform="translate(-7.855 -7.5)" fill="gray"/>
          <path id="Trazado_1082981" data-name="Trazado 1082981" d="M13.923,7.5V40.944l-1.749.05L7.855,44.48V13.568A6.075,6.075,0,0,1,13.923,7.5Z" transform="translate(-7.855 -7.5)" fill="#595959"/>
          <path id="Trazado_1082982" data-name="Trazado 1082982" d="M42.7,351.113H13.926a6.068,6.068,0,0,1,0-12.136H42.7a1.793,1.793,0,0,1,0,3.585H13.926a2.483,2.483,0,1,0,0,4.966H42.7a1.792,1.792,0,1,1,0,3.585Z" transform="translate(-7.858 -308.065)" fill="#595959"/>
          <path id="Trazado_1082983" data-name="Trazado 1082983" d="M87.124,377.426v10.7a1.143,1.143,0,0,1-1.849.9l-1.428-1.12a1.146,1.146,0,0,0-1.411,0l-1.428,1.12a1.142,1.142,0,0,1-1.848-.9v-10.7Z" transform="translate(-72.51 -342.928)" fill="#ffe07d"/>
          <path id="Trazado_1082984" data-name="Trazado 1082984" d="M79.159,377.426h7.964v4.412H79.159Z" transform="translate(-72.509 -342.928)" fill="#ffd064"/>
        </g>
        <g id="Grupo_1211075" data-name="Grupo 1211075" transform="translate(11.296 3.583)">
          <path id="Trazado_1082985" data-name="Trazado 1082985" d="M226.835,65.62h-2.958V47.4a1.479,1.479,0,1,1,2.958,0Z" transform="translate(-215.028 -45.918)" fill="#ffd064"/>
          <path id="Trazado_1082986" data-name="Trazado 1082986" d="M158.3,86.223H144.007a1.963,1.963,0,0,0,0,3.926h3.222a3.926,3.926,0,1,0,7.851,0H158.3a1.963,1.963,0,0,0,0-3.926Z" transform="translate(-140.826 -82.464)" fill="#ffe07d"/>
          <path id="Trazado_1082987" data-name="Trazado 1082987" d="M128.988,184.481a3.18,3.18,0,1,0,6.361,0Z" transform="translate(-128.988 -171.559)" fill="#ffe07d"/>
          <circle id="Elipse_14314" data-name="Elipse 14314" cx="1.39" cy="1.39" r="1.39" transform="translate(8.938 6.274)" fill="#ffd064"/>
          <path id="Trazado_1082988" data-name="Trazado 1082988" d="M183.646,244.348h-9.578a1.472,1.472,0,1,1,0-2.944h9.578a1.472,1.472,0,1,1,0,2.944Z" transform="translate(-168.529 -223.174)" fill="#ffe07d"/>
        </g>
        <g id="Grupo_1211080" data-name="Grupo 1211080" transform="translate(17.062 13.593)">
          <g id="Grupo_1211076" data-name="Grupo 1211076" transform="translate(0 0)">
            <path id="Trazado_1082989" data-name="Trazado 1082989" d="M220.032,164.489V176.4a10.669,10.669,0,0,1-1.719,5.808h0a6.6,6.6,0,0,0-1.064,3.594v.216H202.594v-.838a3.219,3.219,0,0,0-.943-2.275l-9.935-9.935a3.083,3.083,0,0,1,4.36-4.361l2.792,2.792V158.47a2.775,2.775,0,1,1,5.55,0v-2.377a2.821,2.821,0,0,1,2.8-2.824,2.773,2.773,0,0,1,2.751,2.774v2.867a2.774,2.774,0,1,1,5.549,0v5.579a2.258,2.258,0,1,1,4.516,0Z" transform="translate(-190.812 -153.269)" fill="#ffddce"/>
          </g>
          <g id="Grupo_1211077" data-name="Grupo 1211077" transform="translate(24.704 8.961)">
            <path id="Trazado_1082990" data-name="Trazado 1082990" d="M455.717,258.157v-6.546a2.257,2.257,0,0,1,2.786-2.2,2.259,2.259,0,0,0-1.729,2.2V257.1A1.057,1.057,0,0,1,455.717,258.157Z" transform="translate(-455.717 -249.353)" fill="#ffcbbe"/>
          </g>
          <g id="Grupo_1211078" data-name="Grupo 1211078" transform="translate(8.055)">
            <path id="Trazado_1082991" data-name="Trazado 1082991" d="M280.627,179.364a2.776,2.776,0,0,0-2.114,2.7v13.579h-.678l-.643-.643V182.059a2.774,2.774,0,0,1,3.435-2.7Z" transform="translate(-277.192 -176.857)" fill="#ffcbbe"/>
            <path id="Trazado_1082992" data-name="Trazado 1082992" d="M336.7,168.281V156.039a2.775,2.775,0,0,1,3.435-2.7,2.776,2.776,0,0,0-2.114,2.7V166.96A1.321,1.321,0,0,1,336.7,168.281Z" transform="translate(-331.151 -153.264)" fill="#ffcbbe"/>
            <path id="Trazado_1082993" data-name="Trazado 1082993" d="M396.208,196.241v-9.462a2.775,2.775,0,0,1,3.435-2.7,2.776,2.776,0,0,0-2.114,2.7v8.141A1.321,1.321,0,0,1,396.208,196.241Z" transform="translate(-385.109 -181.137)" fill="#ffcbbe"/>
          </g>
          <g id="Grupo_1211079" data-name="Grupo 1211079" transform="translate(0.001 14.723)">
            <path id="Trazado_1082994" data-name="Trazado 1082994" d="M206.3,326.814v2.357H202.6v-.838a3.213,3.213,0,0,0-.943-2.275l-9.935-9.935a3.084,3.084,0,0,1,.9-4.984,3.086,3.086,0,0,0,.625,3.464l12.108,9.935A3.219,3.219,0,0,1,206.3,326.814Z" transform="translate(-190.822 -311.14)" fill="#ffcbbe"/>
          </g>
        </g>
      </g>
      <g id="Grupo_1211082" data-name="Grupo 1211082" transform="translate(0.359 0)">
        <path id="Trazado_1082995" data-name="Trazado 1082995" d="M221.514,107.789a2.089,2.089,0,1,0-2.089,2.089A2.091,2.091,0,0,0,221.514,107.789Zm-2.779,0a.69.69,0,1,1,.69.69A.691.691,0,0,1,218.735,107.789Z" transform="translate(-197.102 -95.843)"/>
        <path id="Trazado_1082996" data-name="Trazado 1082996" d="M45.082,22.555A2.939,2.939,0,0,0,43.523,23V19.934a3.472,3.472,0,0,0-5.132-3.051V2.492A2.5,2.5,0,0,0,35.9,0H13.088a.7.7,0,0,0,0,1.4H35.9a1.094,1.094,0,0,1,1.093,1.093V14.648l-.035-.037a3.459,3.459,0,0,0-2.427-1.017H34.5a3.424,3.424,0,0,0-2.424,1.01q-.1.1-.2.214l-1.055-2.345a2.662,2.662,0,0,0-.995-5.131H24.86V5.761a2.178,2.178,0,1,0-4.356,0v1.58h-4.97a2.662,2.662,0,0,0-.995,5.131L12.726,16.5h-.371a.7.7,0,0,0-.7.7,3.88,3.88,0,1,0,7.76,0,.7.7,0,0,0-.7-.7h-.371l-1.728-3.839H18.11A4.637,4.637,0,0,0,20.5,16.045v5.768H17.893a2.171,2.171,0,1,0,0,4.342h7.583v4.587l-1.6-1.6a3.785,3.785,0,0,0-6.348,1.768h-9.7V1.4h2.465a.7.7,0,0,0,0-1.4H7.126A6.775,6.775,0,0,0,.359,6.768V37.68a6.774,6.774,0,0,0,6.649,6.764V45.9a1.843,1.843,0,0,0,2.98,1.45l1.428-1.12a.443.443,0,0,1,.548,0l1.428,1.12a1.843,1.843,0,0,0,2.98-1.45V44.447H28.482a2.536,2.536,0,0,1,.72,1.763v.838a.7.7,0,0,0,1.4,0v-.838a3.944,3.944,0,0,0-1.148-2.77L19.518,33.5a2.384,2.384,0,0,1,3.371-3.371l2.792,2.792a.7.7,0,0,0,1.194-.495V19.494a2.075,2.075,0,0,1,4.151,0h0V29.31a.7.7,0,1,0,1.4,0V17.117a2.159,2.159,0,0,1,.639-1.521,2.035,2.035,0,0,1,1.439-.6h.016a2.074,2.074,0,0,1,2.058,2.075V23a.7.7,0,1,0,1.4,0V19.942s0,0,0-.007a2.075,2.075,0,1,1,4.15,0V32.058a.7.7,0,1,0,1.4,0V25.513s0,0,0,0a1.559,1.559,0,0,1,3.117,0V37.428a9.948,9.948,0,0,1-1.606,5.427l-.015.023a7.285,7.285,0,0,0-1.162,3.952v.216a.7.7,0,1,0,1.4,0v-.216a5.889,5.889,0,0,1,.951-3.213l.014-.023a11.344,11.344,0,0,0,1.817-6.166V25.513a2.961,2.961,0,0,0-2.957-2.958ZM1.758,6.768A5.376,5.376,0,0,1,6.427,1.446V4.477A6.766,6.766,0,0,0,1.758,7.1Zm0,4.427A5.376,5.376,0,0,1,6.427,5.887V9.138a6.766,6.766,0,0,0-4.669,2.618Zm0,4.661a5.376,5.376,0,0,1,4.669-5.307v9.671a6.766,6.766,0,0,0-4.669,2.618Zm0,11.081a5.376,5.376,0,0,1,4.669-5.307V24.88A6.766,6.766,0,0,0,1.758,27.5Zm0,4.661a5.376,5.376,0,0,1,4.669-5.308v4.659a6.766,6.766,0,0,0-4.669,2.618Zm0,6.083a5.375,5.375,0,0,1,5.369-5.369H17.453a3.755,3.755,0,0,0,1.076,2.183l0,0H7.127a3.182,3.182,0,0,0-.119,6.362v2.186a5.373,5.373,0,0,1-5.25-5.365ZM16.371,35.9h3.56L23.5,39.463H16.371V35.9ZM7.008,39.457a1.781,1.781,0,0,1,0-3.555ZM14.722,46.3a.432.432,0,0,1-.468-.05l-1.428-1.12a1.838,1.838,0,0,0-2.275,0l-1.428,1.12a.444.444,0,0,1-.718-.349V35.9h6.565V45.9A.432.432,0,0,1,14.722,46.3Zm1.649-5.439H24.9l2.186,2.186H16.371ZM21.9,5.761a.779.779,0,1,1,1.558,0v1.58H21.9ZM15.535,19.685A2.485,2.485,0,0,1,13.154,17.9h4.761a2.486,2.486,0,0,1-2.381,1.782ZM14.259,16.5l1.275-2.834L16.81,16.5Zm5.2-4.538a.7.7,0,0,0-.7-.7H15.535a1.263,1.263,0,0,1,0-2.527H29.83a1.263,1.263,0,0,1,0,2.527H26.608a.7.7,0,0,0-.7.7,3.226,3.226,0,0,1-6.452,0ZM21.9,16.525a4.585,4.585,0,0,0,1.558,0v5.289H21.9V16.525Zm-4.01,8.232a.773.773,0,0,1-.773-.772.773.773,0,0,1,.773-.772h7.583v1.544Zm8.6-7.719a3.455,3.455,0,0,0-1.018,2.456v2.319H24.86V16.045a4.637,4.637,0,0,0,2.394-3.379h1.494l-1.792,3.983A3.5,3.5,0,0,0,26.493,17.038Zm2.457-1.019c-.06,0-.12,0-.179,0l1.058-2.353,1.258,2.795c-.017.086-.03.173-.04.26A3.454,3.454,0,0,0,28.95,16.019Z" transform="translate(-0.359 0)"/>
        <path id="Trazado_1082997" data-name="Trazado 1082997" d="M389.407,269.17a.7.7,0,0,0-.7.7v3.6a.7.7,0,1,0,1.4,0v-3.6A.7.7,0,0,0,389.407,269.17Z" transform="translate(-352.492 -244.068)"/>
      </g>
    </g>
  </g>
</svg>
