<svg xmlns="http://www.w3.org/2000/svg" xmlns:xlink="http://www.w3.org/1999/xlink" width="610" height="217" viewBox="0 0 610 217">
  <defs>
    <clipPath id="clip-path">
      <rect id="Rectángulo_418962" data-name="Rectángulo 418962" width="610" height="217" transform="translate(180 13131)" fill="#fff" stroke="#707070" stroke-width="1"/>
    </clipPath>
    <clipPath id="clip-path-2">
      <rect id="Rectángulo_418960" data-name="Rectángulo 418960" width="359.454" height="199.422" fill="none"/>
    </clipPath>
    <clipPath id="clip-path-4">
      <rect id="Rectángulo_418938" data-name="Rectángulo 418938" width="75.258" height="42.22" fill="none"/>
    </clipPath>
    <clipPath id="clip-path-5">
      <rect id="Rectángulo_418939" data-name="Rectángulo 418939" width="82.222" height="33.573" fill="none"/>
    </clipPath>
    <clipPath id="clip-path-6">
      <rect id="Rectángulo_418940" data-name="Rectángulo 418940" width="19.888" height="18.845" fill="none"/>
    </clipPath>
    <clipPath id="clip-path-7">
      <rect id="Rectángulo_418941" data-name="Rectángulo 418941" width="7.203" height="5.968" fill="none"/>
    </clipPath>
    <clipPath id="clip-path-8">
      <rect id="Rectángulo_418942" data-name="Rectángulo 418942" width="3.583" height="121.091" fill="none"/>
    </clipPath>
    <clipPath id="clip-path-9">
      <rect id="Rectángulo_418943" data-name="Rectángulo 418943" width="68.532" height="25.687" fill="none"/>
    </clipPath>
    <clipPath id="clip-path-10">
      <rect id="Rectángulo_418944" data-name="Rectángulo 418944" width="66.736" height="25.656" fill="none"/>
    </clipPath>
    <clipPath id="clip-path-11">
      <rect id="Rectángulo_418945" data-name="Rectángulo 418945" width="47.084" height="28.036" fill="none"/>
    </clipPath>
    <clipPath id="clip-path-12">
      <rect id="Rectángulo_418946" data-name="Rectángulo 418946" width="41.714" height="28.816" fill="none"/>
    </clipPath>
    <clipPath id="clip-path-13">
      <rect id="Rectángulo_418947" data-name="Rectángulo 418947" width="47.084" height="28.035" fill="none"/>
    </clipPath>
    <clipPath id="clip-path-14">
      <rect id="Rectángulo_418948" data-name="Rectángulo 418948" width="41.714" height="28.815" fill="none"/>
    </clipPath>
    <clipPath id="clip-path-15">
      <rect id="Rectángulo_418949" data-name="Rectángulo 418949" width="122.895" height="54.303" fill="none"/>
    </clipPath>
    <clipPath id="clip-path-16">
      <rect id="Rectángulo_418950" data-name="Rectángulo 418950" width="38.378" height="72.797" fill="none"/>
    </clipPath>
    <clipPath id="clip-path-17">
      <rect id="Rectángulo_418951" data-name="Rectángulo 418951" width="15.477" height="19.963" fill="none"/>
    </clipPath>
    <clipPath id="clip-path-18">
      <rect id="Rectángulo_418954" data-name="Rectángulo 418954" width="13.993" height="9.611" fill="none"/>
    </clipPath>
    <clipPath id="clip-path-19">
      <rect id="Rectángulo_418952" data-name="Rectángulo 418952" width="8.295" height="9.611" fill="none"/>
    </clipPath>
    <clipPath id="clip-path-20">
      <rect id="Rectángulo_418953" data-name="Rectángulo 418953" width="3.501" height="9.193" fill="none"/>
    </clipPath>
    <clipPath id="clip-path-21">
      <rect id="Rectángulo_418957" data-name="Rectángulo 418957" width="14.03" height="9.55" fill="none"/>
    </clipPath>
    <clipPath id="clip-path-22">
      <rect id="Rectángulo_418955" data-name="Rectángulo 418955" width="8.325" height="9.55" fill="none"/>
    </clipPath>
    <clipPath id="clip-path-23">
      <rect id="Rectángulo_418956" data-name="Rectángulo 418956" width="3.532" height="9.144" fill="none"/>
    </clipPath>
    <clipPath id="clip-path-24">
      <rect id="Rectángulo_418958" data-name="Rectángulo 418958" width="22.399" height="19.081" fill="none"/>
    </clipPath>
  </defs>
  <g id="Enmascarar_grupo_1098914" data-name="Enmascarar grupo 1098914" transform="translate(-180 -13131)" clip-path="url(#clip-path)">
    <g id="Grupo_1211380" data-name="Grupo 1211380">
      <rect id="Rectángulo_418961" data-name="Rectángulo 418961" width="440" height="111" rx="30" transform="translate(265 13205)" fill="#f2d944"/>
      <g id="Grupo_1211379" data-name="Grupo 1211379" transform="translate(306.773 13148.578)">
        <g id="Grupo_1211378" data-name="Grupo 1211378" clip-path="url(#clip-path-2)">
          <g id="Grupo_1211377" data-name="Grupo 1211377">
            <g id="Grupo_1211376" data-name="Grupo 1211376" clip-path="url(#clip-path-2)">
              <path id="Trazado_1083434" data-name="Trazado 1083434" d="M338.167,62.744C272.68,54.628,227.613,35.028,213.274,28.116a10.649,10.649,0,0,0-9.926.618C173.883,45.933,93.1,71.7,81.615,75.622a2.424,2.424,0,0,0-1.646,2.267v4.9a2.17,2.17,0,0,0,2.3,2.174l23.057-1.842c-.513,18.721,4.969,18.794,5.236,18.787l-4.962.181a3.549,3.549,0,0,0-3.518,3.367,3.225,3.225,0,0,0,3.489,3.113l2.933-.1c-10.49,4.392-2.875,95.6-2.875,95.6l-3.338.008a3.415,3.415,0,0,0-3.564,3.214,3.376,3.376,0,0,0,3.541,3.2h20.561a3.488,3.488,0,0,0,3.652-3.233,3.394,3.394,0,0,0-3.589-3.231l-3.384.008s8.783-92.159-1.816-95.881l2.961-.1a3.6,3.6,0,0,0,3.585-3.382,3.239,3.239,0,0,0-3.527-3.137l-5,.183c.268-.012,5.8-.49,5.536-19.3l19.288-.851c-.719,18.988,4.913,19.059,5.187,19.051l-5.1.187a3.672,3.672,0,0,0-3.649,3.416,3.256,3.256,0,0,0,3.553,3.155l3.015-.1c-10.822,4.458-3.777,96.71-3.777,96.71l-3.428.008a3.532,3.532,0,0,0-3.693,3.257,3.408,3.408,0,0,0,3.6,3.241H157.36a3.609,3.609,0,0,0,3.785-3.277,3.426,3.426,0,0,0-3.653-3.274l-3.476.009s9.816-93.227-1.037-97l3.044-.1a3.729,3.729,0,0,0,3.718-3.431,3.269,3.269,0,0,0-3.591-3.18l-5.141.188c.275-.012,5.966-.5,5.888-19.579l19.831-.874c-.936,19.262,4.852,19.331,5.134,19.323l-5.244.192a3.8,3.8,0,0,0-3.786,3.466,3.288,3.288,0,0,0,3.618,3.2l3.1-.105c-11.168,4.527-4.727,97.849-4.727,97.849l-3.522.009a3.656,3.656,0,0,0-3.828,3.3h0a3.44,3.44,0,0,0,3.668,3.285h21.7a3.738,3.738,0,0,0,3.924-3.322,3.46,3.46,0,0,0-3.72-3.319l-3.572.009s10.9-94.325-.212-98.143l3.13-.107a3.864,3.864,0,0,0,3.858-3.483,3.3,3.3,0,0,0-3.658-3.224L187.3,99.1c.284-.012,6.139-.51,6.257-19.866l20.4-.9c-1.166,19.545,4.784,19.612,5.074,19.6l-5.394.2a3.941,3.941,0,0,0-3.929,3.519,3.322,3.322,0,0,0,3.687,3.243l3.187-.109c-11.529,4.6-5.73,99.021-5.73,99.021l-3.62.009a3.786,3.786,0,0,0-3.969,3.347A3.473,3.473,0,0,0,207,210.5h22.3a3.873,3.873,0,0,0,4.068-3.368c.08-1.863-1.618-3.371-3.788-3.365l-3.671.009s12.05-95.453.66-99.322l3.219-.11a4.007,4.007,0,0,0,4-3.536,3.337,3.337,0,0,0-3.727-3.269l-5.439.2c.291-.012,6.318-.521,6.645-20.161l20.99-.926c-1.408,19.835,4.711,19.9,5.009,19.892l-5.55.2a4.089,4.089,0,0,0-4.079,3.573c-.086,1.891,1.595,3.363,3.757,3.289l3.28-.111c-11.907,4.67-6.787,100.224-6.787,100.224l-3.722.009a3.926,3.926,0,0,0-4.115,3.394c-.084,1.866,1.618,3.377,3.8,3.377h22.929c2.228,0,4.118-1.529,4.22-3.416s-1.628-3.418-3.86-3.413l-3.775.01s13.257-96.615,1.581-100.536l3.313-.113a4.159,4.159,0,0,0,4.157-3.59c.1-1.911-1.6-3.4-3.8-3.316l-5.6.2c.3-.014,6.5-.532,7.053-20.466l21.607-.953c-1.664,20.135,4.631,20.2,4.939,20.189l-5.713.21a4.245,4.245,0,0,0-4.236,3.628c-.11,1.919,1.6,3.412,3.83,3.336l3.376-.115c-12.3,4.746-7.9,101.464-7.9,101.464l-3.828.009c-2.253.006-4.163,1.548-4.269,3.442s1.628,3.425,3.876,3.425h23.585c2.291,0,4.253-1.55,4.378-3.465s-1.637-3.467-3.934-3.461l-3.884.01s14.529-97.81,2.556-101.785l3.41-.116c2.259-.077,4.193-1.708,4.318-3.646s-1.611-3.447-3.874-3.364l-5.762.211c.309-.014,6.7-.543,7.482-20.78l26.941-1.188a2.854,2.854,0,0,0,2.761-2.459l.394-5.5a2.1,2.1,0,0,0-1.961-2.212" transform="translate(-32.602 -11.076)" fill="#cadefc" stroke="#9ec6e0" stroke-width="1"/>
              <path id="Trazado_1083435" data-name="Trazado 1083435" d="M399.6,229.77s-19.083,62.4-49.688,62.4h85.745c30.605,0,49.688-62.4,49.688-62.4a463.7,463.7,0,0,1-85.745,0" transform="translate(-142.651 -93.673)" fill="#fff"/>
              <path id="Trazado_1083436" data-name="Trazado 1083436" d="M508.081,242.615l-51.018-.281-14.407-.079c-.877,0-.878,1.478,0,1.483l51.018.281,14.407.079c.877,0,.878-1.478,0-1.483" transform="translate(-180.193 -98.762)" fill="#aac8ff"/>
              <path id="Trazado_1083437" data-name="Trazado 1083437" d="M495.3,254H439.168c-.877,0-.878,1.483,0,1.483H495.3c.877,0,.878-1.483,0-1.483" transform="translate(-178.772 -103.552)" fill="#aac8ff"/>
              <path id="Trazado_1083438" data-name="Trazado 1083438" d="M486.363,265.767l-38.93-.094-11.171-.027c-.877,0-.878,1.481,0,1.483l38.93.094,11.171.027c.877,0,.878-1.481,0-1.483" transform="translate(-177.587 -108.299)" fill="#aac8ff"/>
              <path id="Trazado_1083439" data-name="Trazado 1083439" d="M471.726,278.332l-40.115-.1c-.877,0-.878,1.481,0,1.483l40.115.1c.877,0,.878-1.481,0-1.483" transform="translate(-175.691 -113.429)" fill="#aac8ff"/>
              <path id="Trazado_1083440" data-name="Trazado 1083440" d="M486.07,289.685l-46.331-.329-13.068-.093c-.877-.006-.878,1.477,0,1.483l46.331.329,13.068.092c.877.007.878-1.476,0-1.483" transform="translate(-173.677 -117.927)" fill="#aac8ff"/>
              <path id="Trazado_1083441" data-name="Trazado 1083441" d="M465.5,300.426,430.609,300l-10.043-.122c-.877-.011-.878,1.472,0,1.483l34.894.425,10.043.122c.877.011.878-1.472,0-1.483" transform="translate(-171.188 -122.255)" fill="#aac8ff"/>
              <path id="Trazado_1083442" data-name="Trazado 1083442" d="M469.9,310.546l-43.194-.429-12.244-.122c-.877-.008-.878,1.474,0,1.483l43.194.429,12.244.121c.877.009.878-1.474,0-1.483" transform="translate(-168.699 -126.379)" fill="#aac8ff"/>
              <path id="Trazado_1083443" data-name="Trazado 1083443" d="M283.521,164.982H197.776c35.557,0,59.507,100.774,90.111,100.774h85.745c-30.6,0-54.554-100.774-90.111-100.774" transform="translate(-80.629 -67.26)" fill="#f7d7b5"/>
              <path id="Trazado_1083444" data-name="Trazado 1083444" d="M156.9,265.757s39.441-100.774,75-100.774H146.156c-35.556,0-75,100.774-75,100.774a515.183,515.183,0,0,1,85.745,0" transform="translate(-29.01 -67.26)" fill="#fff"/>
              <path id="Trazado_1083445" data-name="Trazado 1083445" d="M241.6,182.06H178.583c-.877,0-.878,1.483,0,1.483H241.6c.877,0,.878-1.483,0-1.483" transform="translate(-72.536 -74.222)" fill="#aac8ff"/>
              <path id="Trazado_1083446" data-name="Trazado 1083446" d="M217.493,192.021H165.067c-.877,0-.878,1.483,0,1.483h52.426c.877,0,.878-1.483,0-1.483" transform="translate(-67.026 -78.283)" fill="#aac8ff"/>
              <path id="Trazado_1083447" data-name="Trazado 1083447" d="M205.14,203.88h-50.1c-.877,0-.878,1.483,0,1.483h50.1c.877,0,.878-1.483,0-1.483" transform="translate(-62.938 -83.118)" fill="#aac8ff"/>
              <path id="Trazado_1083448" data-name="Trazado 1083448" d="M195.64,240.923l-49.325.694-13.947.2c-.877.012-.879,1.5,0,1.483l49.325-.694,13.947-.2c.877-.012.879-1.5,0-1.483" transform="translate(-53.695 -98.219)" fill="#aac8ff"/>
              <path id="Trazado_1083449" data-name="Trazado 1083449" d="M174.362,254.915l-38.824.124-11.02.035c-.877,0-.878,1.486,0,1.483l38.824-.123,11.02-.035c.877,0,.878-1.486,0-1.483" transform="translate(-50.495 -103.924)" fill="#aac8ff"/>
              <path id="Trazado_1083450" data-name="Trazado 1083450" d="M171.358,268.853l-41.234.183-11.708.052c-.877,0-.879,1.487,0,1.483l41.234-.183,11.708-.052c.877,0,.878-1.487,0-1.483" transform="translate(-48.007 -109.606)" fill="#aac8ff"/>
              <path id="Trazado_1083451" data-name="Trazado 1083451" d="M154.776,280.953l-40.287-.586c-.877-.012-.878,1.47,0,1.483l40.287.585c.877.013.878-1.47,0-1.483" transform="translate(-46.407 -114.3)" fill="#aac8ff"/>
              <path id="Trazado_1083452" data-name="Trazado 1083452" d="M165.414,294.744l-42.094.135-11.882.038c-.877,0-.878,1.486,0,1.483l42.094-.135,11.881-.038c.877,0,.878-1.486,0-1.483" transform="translate(-45.163 -120.161)" fill="#aac8ff"/>
              <path id="Trazado_1083453" data-name="Trazado 1083453" d="M197.922,214.972l-37.857-.438-10.695-.124c-.877-.01-.878,1.473,0,1.483l37.857.438,10.695.124c.877.01.878-1.473,0-1.483" transform="translate(-60.627 -87.411)" fill="#aac8ff"/>
              <path id="Trazado_1083454" data-name="Trazado 1083454" d="M194.66,310.651c0,3-4.781,5.432-10.68,5.432s-10.68-2.432-10.68-5.432,4.781-5.432,10.68-5.432,10.68,2.432,10.68,5.432" transform="translate(-70.651 -124.432)" fill="#ffb552"/>
              <path id="Trazado_1083455" data-name="Trazado 1083455" d="M293.533,76.226l.628,6.4c-1.419.116-2.838.232-4.258.337q-12.119.972-24.258,1.793c-9.5.691-19.023,1.253-28.541,1.866l-7.065.459a5.258,5.258,0,0,0-4.253,2.878,4.42,4.42,0,0,0-.412,1.278c-.009.058-.021.1-.035.174l-.028.24-.062.482-.126.952-.506,3.833-1.029,7.65-1.066,7.647-.538,3.819-.271,1.912a6.93,6.93,0,0,1-.206,1.09,5.582,5.582,0,0,1-.421,1.08,5.452,5.452,0,0,1-1.057,1.413,5.383,5.383,0,0,1-2.145,1.279,5.579,5.579,0,0,1-3.965-.249,5.459,5.459,0,0,1-2.834-2.973l-.165-.508c-.038-.178-.076-.351-.11-.53l-.057-.528-.022-.486-.1-1.937.518-.044.283,1.921.068.482.09.435.13.42.164.394a4.266,4.266,0,0,0,2.429,2.145,4.312,4.312,0,0,0,3.064-.1,4.033,4.033,0,0,0,2.115-2.07,3.4,3.4,0,0,0,.222-.711,5.954,5.954,0,0,0,.087-.813l.145-1.93.278-3.864.567-7.723.605-7.716.31-3.855.082-.966.037-.479.022-.246.034-.3a8.633,8.633,0,0,1,.627-2.385,8.9,8.9,0,0,1,6.973-5.381l7.172-.791c9.478-1.018,18.947-2.086,28.428-3.019q14.223-1.468,28.453-2.766" transform="translate(-85.869 -31.076)" fill="#7d97d3"/>
              <g id="Grupo_1211315" data-name="Grupo 1211315" transform="translate(134.158 48.227)" style="mix-blend-mode: multiply;isolation: isolate">
                <g id="Grupo_1211314" data-name="Grupo 1211314">
                  <g id="Grupo_1211313" data-name="Grupo 1211313" clip-path="url(#clip-path-4)">
                    <path id="Trazado_1083456" data-name="Trazado 1083456" d="M301.755,81.421l-1.361.922-4.022,2.734q-12.119.972-24.258,1.793c-9.5.691-19.023,1.253-28.541,1.866l-7.065.459a5.258,5.258,0,0,0-4.253,2.878,4.4,4.4,0,0,0-.412,1.278c-.01.058-.022.1-.036.174l-.028.24-.062.482-.126.952-.505,3.833-1.029,7.65-1.066,7.647-.539,3.819-.271,1.912a6.927,6.927,0,0,1-.206,1.09,5.582,5.582,0,0,1-.421,1.08,5.451,5.451,0,0,1-1.057,1.413c1.84-1.6,2.913-18.656,4.355-30.813a5.54,5.54,0,0,1,4.822-4.906l64.643-6.361Z" transform="translate(-226.496 -81.421)" fill="#b1c8e5"/>
                  </g>
                </g>
              </g>
              <path id="Trazado_1083457" data-name="Trazado 1083457" d="M349.807,73.234l.628,6.4c1.418-.127,2.835-.255,4.252-.394q12.106-1.107,24.2-2.367c9.481-.938,18.949-2.007,28.427-3.024l7.036-.752a5.407,5.407,0,0,1,4.743,2.106,4.524,4.524,0,0,1,.655,1.186c.021.054.04.093.068.164l.075.232.155.463.309.915,1.244,3.682,2.5,7.347,2.537,7.338,1.273,3.663.64,1.834a7.033,7.033,0,0,0,.415,1.037,5.7,5.7,0,0,0,.625.99,5.612,5.612,0,0,0,1.314,1.209,5.526,5.526,0,0,0,6.209-.028,5.275,5.275,0,0,0,2.208-3.406l.063-.527c0-.182.007-.358,0-.54l-.047-.529-.073-.482-.278-1.922-.518.044.1,1.937.027.486,0,.442-.046.435-.084.416a4.12,4.12,0,0,1-1.971,2.523,4.3,4.3,0,0,1-3.033.419,4.174,4.174,0,0,1-2.482-1.676,3.49,3.49,0,0,1-.357-.662,6.076,6.076,0,0,1-.244-.784l-.518-1.873-1.026-3.752-2.062-7.5-2.1-7.483-1.056-3.738-.269-.935-.129-.466-.07-.238-.091-.287a8.86,8.86,0,0,0-1.082-2.238,9.171,9.171,0,0,0-7.9-4.1l-7.207.443c-9.519.613-19.037,1.175-28.541,1.872q-14.272.978-28.516,2.125" transform="translate(-142.609 -28.044)" fill="#7d97d3"/>
              <g id="Grupo_1211318" data-name="Grupo 1211318" transform="translate(206.073 43.642)" style="mix-blend-mode: multiply;isolation: isolate">
                <g id="Grupo_1211317" data-name="Grupo 1211317">
                  <g id="Grupo_1211316" data-name="Grupo 1211316" clip-path="url(#clip-path-5)">
                    <path id="Trazado_1083458" data-name="Trazado 1083458" d="M347.908,78.552l1.518.675,4.487,2q12.106-1.107,24.2-2.367c9.481-.939,18.95-2.007,28.428-3.024l7.036-.752a5.408,5.408,0,0,1,4.743,2.106,4.505,4.505,0,0,1,.654,1.186c.021.054.041.092.069.164l.075.232.155.463.309.915,1.244,3.682,2.5,7.347,2.538,7.338,1.273,3.662.639,1.834a7.107,7.107,0,0,0,.415,1.037,5.7,5.7,0,0,0,.624.99,5.628,5.628,0,0,0,1.314,1.209c-2.121-1.257-6.5-17.847-10.283-29.556a5.715,5.715,0,0,0-5.7-4l-64.8,4.752Z" transform="translate(-347.908 -73.679)" fill="#b1c8e5"/>
                  </g>
                </g>
              </g>
              <path id="Trazado_1083459" data-name="Trazado 1083459" d="M354.58,74.667c-2.1,6.08-7.975,9.748-13.116,8.194s-7.6-7.744-5.5-13.824,7.975-9.748,13.116-8.194,7.6,7.744,5.5,13.824" transform="translate(-136.66 -24.659)" fill="#7d97d3"/>
              <g id="Grupo_1211321" data-name="Grupo 1211321" transform="translate(198.786 39.712)" style="mix-blend-mode: multiply;isolation: isolate">
                <g id="Grupo_1211320" data-name="Grupo 1211320">
                  <g id="Grupo_1211319" data-name="Grupo 1211319" clip-path="url(#clip-path-6)">
                    <path id="Trazado_1083460" data-name="Trazado 1083460" d="M354.742,77.343c-2.1,6.075-7.976,9.745-13.118,8.19a8.936,8.936,0,0,1-6.019-7.088,8.311,8.311,0,0,0,4.6,3.531c5.142,1.555,11.014-2.108,13.118-8.19a12.8,12.8,0,0,0,.512-6.742,11.9,11.9,0,0,1,.9,10.3" transform="translate(-335.605 -67.045)" fill="#b1c8e5"/>
                  </g>
                </g>
              </g>
              <g id="Grupo_1211324" data-name="Grupo 1211324" transform="translate(202.966 37.276)" style="mix-blend-mode: soft-light;isolation: isolate">
                <g id="Grupo_1211323" data-name="Grupo 1211323">
                  <g id="Grupo_1211322" data-name="Grupo 1211322" clip-path="url(#clip-path-7)">
                    <path id="Trazado_1083461" data-name="Trazado 1083461" d="M347.07,67.941c-1.938,1.211-3.87,1.286-4.314.168s.766-3.005,2.7-4.217,3.87-1.286,4.314-.168-.766,3.006-2.7,4.217" transform="translate(-342.663 -62.933)" fill="#fff"/>
                  </g>
                </g>
              </g>
              <path id="Trazado_1083462" data-name="Trazado 1083462" d="M353.4,218.417h-12.91c2.634-35.451,2.893-76.466,2.537-121.091H350.3c-.64,43.642.06,84.657,3.1,121.091" transform="translate(-138.811 -39.678)" fill="#7d97d3"/>
              <g id="Grupo_1211327" data-name="Grupo 1211327" transform="translate(204.169 57.648)" style="mix-blend-mode: soft-light;isolation: isolate">
                <g id="Grupo_1211326" data-name="Grupo 1211326">
                  <g id="Grupo_1211325" data-name="Grupo 1211325" clip-path="url(#clip-path-8)">
                    <path id="Trazado_1083463" data-name="Trazado 1083463" d="M348.276,97.326l-.733,121.091h-2.85c2.718-29.554,1.813-102.055,1.522-121.091Z" transform="translate(-344.693 -97.326)" fill="#fff"/>
                  </g>
                </g>
              </g>
              <path id="Trazado_1083464" data-name="Trazado 1083464" d="M351.372,253.837h-8.928a1.978,1.978,0,1,0,0,3.954h8.928a1.978,1.978,0,1,0,0-3.954" transform="translate(-138.775 -103.484)" fill="#42669a"/>
              <path id="Trazado_1083465" data-name="Trazado 1083465" d="M350.731,213.692h-7.068c-2.154,0-2.158,3.954,0,3.954h7.068c2.154,0,2.158-3.954,0-3.954" transform="translate(-139.445 -87.118)" fill="#42669a"/>
              <path id="Trazado_1083466" data-name="Trazado 1083466" d="M350.731,174.9h-7.068c-2.154,0-2.158,3.954,0,3.954h7.068c2.154,0,2.158-3.954,0-3.954" transform="translate(-139.445 -71.305)" fill="#42669a"/>
              <path id="Trazado_1083467" data-name="Trazado 1083467" d="M350.732,136.117H344.4c-1.93,0-1.934,3.954,0,3.954h6.335c1.93,0,1.934-3.954,0-3.954" transform="translate(-139.813 -55.492)" fill="#42669a"/>
              <path id="Trazado_1083468" data-name="Trazado 1083468" d="M350.731,97.329h-7.068c-2.154,0-2.158,3.954,0,3.954h7.068c2.154,0,2.158-3.954,0-3.954" transform="translate(-139.445 -39.679)" fill="#42669a"/>
              <path id="Trazado_1083469" data-name="Trazado 1083469" d="M359.948,303.321H312.46a6,6,0,0,1,.284-.592c1.13-2.065,6.026-8.9,21.658-9.386a.616.616,0,0,1,.071-.006c.562-.018,1.137-.024,1.731-.024,17.059,0,22.284,7.272,23.459,9.416a6.008,6.008,0,0,1,.284.592" transform="translate(-127.384 -119.578)" fill="#42669a"/>
              <path id="Trazado_1083470" data-name="Trazado 1083470" d="M363.757,315.28H291.8a7.133,7.133,0,0,1,.891-1.256c.11-.133.233-.284.375-.435,1.583-1.721,4.9-4.445,11.258-6.571a54.42,54.42,0,0,1,6.982-1.794,88.564,88.564,0,0,1,16.478-1.39A92.046,92.046,0,0,1,342.4,304.9a.112.112,0,0,1,.026.006,55.98,55.98,0,0,1,8.817,2.114c6.356,2.126,9.67,4.85,11.252,6.571a8.23,8.23,0,0,1,1.266,1.691" transform="translate(-118.959 -123.867)" fill="#7d97d3"/>
              <path id="Trazado_1083471" data-name="Trazado 1083471" d="M373.906,328.8H236.835s6.11-6.492,33.82-9.7c2.028-.235,4.166-.453,6.433-.646.142-.012.271-.024.381-.036l.226-.018.213-.018c7.7-.634,16.781-1.027,27.465-1.027,10,0,18.6.345,25.966.912,3.133.242,6.039.52,8.746.833,27.71,3.207,33.82,9.7,33.82,9.7" transform="translate(-96.553 -129.38)" fill="#42669a"/>
              <g id="Grupo_1211330" data-name="Grupo 1211330" transform="translate(208.821 173.735)" style="mix-blend-mode: multiply;isolation: isolate">
                <g id="Grupo_1211329" data-name="Grupo 1211329">
                  <g id="Grupo_1211328" data-name="Grupo 1211328" clip-path="url(#clip-path-9)">
                    <path id="Trazado_1083472" data-name="Trazado 1083472" d="M421.079,319H403.3c-3.643-3.605-9.96-6.263-15.309-8.009a87.91,87.91,0,0,0-9.475-2.524,14.965,14.965,0,0,0-5.232-5.145,25.075,25.075,0,0,0-6.091-2.706.105.105,0,0,0-.025-.006c-3.824-5.369-14.617-7.3-14.617-7.3,17.059,0,22.284,7.272,23.46,9.416,6.356,2.126,9.669,4.85,11.252,6.571,27.71,3.207,33.82,9.7,33.82,9.7" transform="translate(-352.547 -293.313)" fill="#b1c8e5"/>
                  </g>
                </g>
              </g>
              <g id="Grupo_1211333" data-name="Grupo 1211333" transform="translate(140.282 173.765)" style="mix-blend-mode: soft-light;isolation: isolate">
                <g id="Grupo_1211332" data-name="Grupo 1211332">
                  <g id="Grupo_1211331" data-name="Grupo 1211331" clip-path="url(#clip-path-10)">
                    <path id="Trazado_1083473" data-name="Trazado 1083473" d="M303.571,293.364c-.917.049-10.813.767-14.675,7.592a.006.006,0,0,0-.007.006,26.626,26.626,0,0,0-5.619,2.38,12.522,12.522,0,0,0-5.361,5.26l-.213.018c-.065.006-.136.012-.226.018-.11.012-.239.024-.381.036a67,67,0,0,0-6.808,1.082c-6.1,1.3-14.333,3.956-18.758,9.264H236.835s6.11-6.492,33.82-9.7c1.582-1.721,4.9-4.445,11.258-6.571,1.13-2.066,6.026-8.9,21.658-9.386" transform="translate(-236.835 -293.364)" fill="#fff"/>
                  </g>
                </g>
              </g>
              <path id="Trazado_1083474" data-name="Trazado 1083474" d="M155.18,192.42l39.107-42.141,39.185,42.141" transform="translate(-63.264 -61.266)" fill="none" stroke="#ffb552" stroke-linecap="round" stroke-linejoin="round" stroke-width="1.801"/>
              <line id="Línea_3601" data-name="Línea 3601" x2="15.377" y2="42.141" transform="translate(131.023 89.013)" fill="none" stroke="#ffb552" stroke-linecap="round" stroke-linejoin="round" stroke-width="1.801"/>
              <path id="Trazado_1083475" data-name="Trazado 1083475" d="M237.749,216.541s-5.564,26.611-47.084,26.611c-.477,0-.948-.007-1.42-.013-40.222-.6-45.658-26.6-45.658-26.6,1.788-.234,3.576-.462,5.365-.663q8.092-.956,16.178-1.541a349.666,349.666,0,0,1,60.622.78q6,.605,12,1.425" transform="translate(-58.538 -86.992)" fill="#ffb552"/>
              <g id="Grupo_1211336" data-name="Grupo 1211336" transform="translate(132.128 128.125)" style="mix-blend-mode: multiply;isolation: isolate">
                <g id="Grupo_1211335" data-name="Grupo 1211335">
                  <g id="Grupo_1211334" data-name="Grupo 1211334" clip-path="url(#clip-path-11)">
                    <path id="Trazado_1083476" data-name="Trazado 1083476" d="M270.152,217.735s-5.564,26.611-47.084,26.611c0,0,25.8-5.131,35.087-28.036q6,.605,12,1.425" transform="translate(-223.068 -216.31)" fill="#f7e1c6"/>
                  </g>
                </g>
              </g>
              <g id="Grupo_1211339" data-name="Grupo 1211339" transform="translate(90.414 127.345)" opacity="0.5" style="mix-blend-mode: soft-light;isolation: isolate">
                <g id="Grupo_1211338" data-name="Grupo 1211338">
                  <g id="Grupo_1211337" data-name="Grupo 1211337" clip-path="url(#clip-path-12)">
                    <path id="Trazado_1083477" data-name="Trazado 1083477" d="M194.358,243.809c-.477,0-.948-.006-1.42-.013-24.436-.546-35.395-15.127-40.294-27.262q8.092-.956,16.178-1.541c6.083,23.138,25.536,28.816,25.536,28.816" transform="translate(-152.644 -214.993)" fill="#fff"/>
                  </g>
                </g>
              </g>
              <path id="Trazado_1083478" data-name="Trazado 1083478" d="M430.13,170.561l39.107-42.141,39.185,42.141" transform="translate(-175.355 -52.354)" fill="none" stroke="#ffb552" stroke-linecap="round" stroke-linejoin="round" stroke-width="1.801"/>
              <line id="Línea_3602" data-name="Línea 3602" x2="15.377" y2="42.141" transform="translate(293.882 76.066)" fill="none" stroke="#ffb552" stroke-linecap="round" stroke-linejoin="round" stroke-width="1.801"/>
              <path id="Trazado_1083479" data-name="Trazado 1083479" d="M512.7,194.683s-5.564,26.611-47.084,26.611c-.477,0-.948-.007-1.42-.013-40.221-.6-45.658-26.6-45.658-26.6,1.788-.234,3.576-.462,5.365-.663q8.092-.956,16.178-1.541a349.605,349.605,0,0,1,60.622.781q6,.6,12,1.424" transform="translate(-170.629 -78.081)" fill="#ffb552"/>
              <g id="Grupo_1211342" data-name="Grupo 1211342" transform="translate(294.986 115.178)" style="mix-blend-mode: multiply;isolation: isolate">
                <g id="Grupo_1211341" data-name="Grupo 1211341">
                  <g id="Grupo_1211340" data-name="Grupo 1211340" clip-path="url(#clip-path-13)">
                    <path id="Trazado_1083480" data-name="Trazado 1083480" d="M545.1,195.877s-5.564,26.611-47.084,26.611c0,0,25.8-5.131,35.087-28.035q6,.6,12,1.424" transform="translate(-498.018 -194.452)" fill="#f7e1c6"/>
                  </g>
                </g>
              </g>
              <g id="Grupo_1211345" data-name="Grupo 1211345" transform="translate(253.273 114.398)" opacity="0.5" style="mix-blend-mode: soft-light;isolation: isolate">
                <g id="Grupo_1211344" data-name="Grupo 1211344">
                  <g id="Grupo_1211343" data-name="Grupo 1211343" clip-path="url(#clip-path-14)">
                    <path id="Trazado_1083481" data-name="Trazado 1083481" d="M469.308,221.95c-.477,0-.948-.007-1.42-.013-24.436-.546-35.395-15.126-40.294-27.262q8.092-.956,16.178-1.541c6.083,23.138,25.535,28.816,25.535,28.816" transform="translate(-427.594 -193.135)" fill="#fff"/>
                  </g>
                </g>
              </g>
              <path id="Trazado_1083482" data-name="Trazado 1083482" d="M484.129,290.98H430.2c.274-.7.268-2.459.476-3.149l49.659,1.068,1.534-12.711H430.922c-.208-.691.329-3.188.055-3.878l53.152.787c1.741,5.113,1.473,11.827,0,17.882" transform="translate(-175.384 -111.016)" fill="#42669a"/>
              <path id="Trazado_1083483" data-name="Trazado 1083483" d="M564.3,293.239l-43.385-1.724a44.271,44.271,0,0,0-.485-17.887l43.87,2.032c2.7,5.169,2.424,11.549,0,17.579" transform="translate(-212.17 -111.553)" fill="#5e80bb"/>
              <path id="Trazado_1083484" data-name="Trazado 1083484" d="M483.241,291.569l-45.917-.987c1.964-3.957,2.1-7.186,0-11.723h47.45Z" transform="translate(-178.288 -113.685)" fill="#fff"/>
              <path id="Trazado_1083485" data-name="Trazado 1083485" d="M564.249,286.953c0,2.116-6.826,3.831-15.246,3.831s-15.246-1.715-15.246-3.831,6.826-3.831,15.246-3.831,15.246,1.715,15.246,3.831" transform="translate(-217.602 -115.423)" fill="#42669a"/>
              <path id="Trazado_1083486" data-name="Trazado 1083486" d="M479.663,284.159l-31.807-.743a.534.534,0,0,0,0,1.067l31.807.743a.534.534,0,0,0,0-1.067" transform="translate(-182.372 -115.543)" fill="#aac8ff"/>
              <path id="Trazado_1083487" data-name="Trazado 1083487" d="M484.882,291,459,290.347a.534.534,0,0,0,0,1.067l25.878.653a.534.534,0,0,0,0-1.067" transform="translate(-186.916 -118.368)" fill="#aac8ff"/>
              <path id="Trazado_1083488" data-name="Trazado 1083488" d="M470.189,322.682H405.317c.33-.836.871-2.379,1.122-3.209l61.031.706v-15.29l-60.9,1.106c-.251-.83-.922-2.773-1.252-3.6h64.872c2.094,6.151,1.772,13.007,0,20.291" transform="translate(-165.24 -123.279)" fill="#32547c"/>
              <path id="Trazado_1083489" data-name="Trazado 1083489" d="M567.033,321.581l-52.189,1.1c1.338-7.239,1.561-14.082,0-20.289l52.189,1.986c3.245,6.218,2.917,9.953,0,17.207" transform="translate(-209.891 -123.277)" fill="#42669a"/>
              <path id="Trazado_1083490" data-name="Trazado 1083490" d="M470.964,321.9l-56.5-.654c2.362-4.759,1.947-8.141-.582-13.6l57.079-1.037Z" transform="translate(-168.733 -124.997)" fill="#fff"/>
              <path id="Trazado_1083491" data-name="Trazado 1083491" d="M464.487,312.869l-28.557.388-8.1.11a.534.534,0,0,0,0,1.067l28.557-.389,8.1-.11a.534.534,0,0,0,0-1.067" transform="translate(-174.207 -127.55)" fill="#aac8ff"/>
              <path id="Trazado_1083492" data-name="Trazado 1083492" d="M472.527,319.879l-32.331.487-9.18.139a.534.534,0,0,0,0,1.067l32.331-.487,9.18-.139a.534.534,0,0,0,0-1.067" transform="translate(-175.506 -130.408)" fill="#aac8ff"/>
              <path id="Trazado_1083493" data-name="Trazado 1083493" d="M482.054,324.171h5.37a24.221,24.221,0,0,1-16.474,7.323,5.926,5.926,0,0,0,2.844-1.824,27.654,27.654,0,0,1-8.651,1.09s12.248-1.908,16.911-6.589" transform="translate(-189.629 -132.158)" fill="#ffb552"/>
              <path id="Trazado_1083494" data-name="Trazado 1083494" d="M239.061,290.2a4.287,4.287,0,0,1-.91,1.481c-11.139,12.012-92.979-33.635-92.979-33.635s-8.512,7.075-13.537-4.386l-10.854-2.542s-1.574,4.1-5.523.729l6.479-17.511s3.937,1.285,3.438,4.907l9.332,6.656s9.309-6.328,12.891,4.77c0,0,97.866,22.772,91.665,39.53" transform="translate(-46.988 -95.532)" fill="#32547c"/>
              <g id="Grupo_1211348" data-name="Grupo 1211348" transform="translate(68.268 143.855)" style="mix-blend-mode: multiply;isolation: isolate">
                <g id="Grupo_1211347" data-name="Grupo 1211347">
                  <g id="Grupo_1211346" data-name="Grupo 1211346" clip-path="url(#clip-path-15)">
                    <path id="Trazado_1083495" data-name="Trazado 1083495" d="M238.151,295.157c-11.139,12.012-92.979-33.635-92.979-33.635s-8.513,7.075-13.537-4.386l-10.855-2.541s-1.574,4.1-5.523.729l4.583-12.387c.141-.025.287-.049.431-.069q.146,3.7.295,7.389a45.724,45.724,0,0,0,12.48,3.008,9.04,9.04,0,0,0,13.346,4.18c23.621,12.764,48.127,25.441,73.487,34.269,5.884,2.047,12.159,3.891,18.272,3.443" transform="translate(-115.256 -242.868)" fill="#b1c8e5"/>
                  </g>
                </g>
              </g>
              <path id="Trazado_1083496" data-name="Trazado 1083496" d="M66.66,291.5c-1.952.328-5.5-.12-9.754-1.071l-.007,0a137.775,137.775,0,0,1-17.094-5.145,168.739,168.739,0,0,1-23.432-11.422,3.245,3.245,0,0,1-1.276-1.438c-.612-1.434-1.272-4.137,1.634-5.477a3.409,3.409,0,0,1,2.568-.027l38.8,14.357.01,0,9.433,3.49A3.012,3.012,0,0,1,69.7,287.53c-.094,1.774-.388,3.523-3.04,3.974" transform="translate(-5.939 -108.724)" fill="#32547c"/>
              <path id="Trazado_1083497" data-name="Trazado 1083497" d="M71.632,281.856a1.716,1.716,0,0,1-1.3.849,4.488,4.488,0,0,1-.62.079,25.4,25.4,0,0,1-6.255-.922l-.005,0a137.314,137.314,0,0,1-15.187-4.7,176.006,176.006,0,0,1-19.09-8.77,2.9,2.9,0,0,1-1.086-1c-.069-.121-.146-.251-.213-.393a3.441,3.441,0,0,1-.281-.778,1.709,1.709,0,0,1,1.3-2.2c.048-.022.092-.034.138-.05a3.243,3.243,0,0,1,2.018.14l38.946,14.411a4.154,4.154,0,0,1,.474.209,2.286,2.286,0,0,1,1.388,1.688,2.894,2.894,0,0,1-.225,1.438" transform="translate(-11.22 -107.573)" fill="#7d97d3"/>
              <path id="Trazado_1083498" data-name="Trazado 1083498" d="M69.52,279.963c-.124,0-.254,0-.392-.016a47.09,47.09,0,0,1-8.24-1.718l-.01,0c-4.679-1.293-10.376-3.154-15.621-5.1-4.349-1.615-9.394-3.8-13.608-5.715-2.633-1.2-4.948-2.3-6.563-3.1-.7-.342-1.267-.632-1.677-.845a3.825,3.825,0,0,1-1.28-1.029c-.7-.954-1.579-2.7.819-3.195a4.359,4.359,0,0,1,2.253.272l44.343,16.408c1.21.448,2.121,1.245,2.2,1.937.116,1.087.049,2.129-2.224,2.108" transform="translate(-8.715 -105.664)" fill="#42669a"/>
              <path id="Trazado_1083499" data-name="Trazado 1083499" d="M84.638,223.839c-3.287,9.144-9.856,17.415-12.744,20.782-.15.175-.3.339-.425.488a2.464,2.464,0,0,1-.729.573,2.579,2.579,0,0,1-1.732.224q-2.554-.567-5.1-1.228a166.074,166.074,0,0,1-34.25-13.364,2.446,2.446,0,0,1-.5-.342,2.526,2.526,0,0,1-.884-1.759c-.014-.224-.03-.471-.043-.746a62.986,62.986,0,0,1,3.837-24.078A48.752,48.752,0,0,1,46.444,184.3c1.2-.992,1.952-1.5,1.952-1.5L82.4,195.734l5.015,1.907s.079.753.146,2.064c.239,4.378.374,14.956-2.925,24.134" transform="translate(-11.49 -74.525)" fill="#7d97d3"/>
              <path id="Trazado_1083500" data-name="Trazado 1083500" d="M102.005,198.011a21.611,21.611,0,0,1-3.972-.577c-1.824-.389-4.011-.962-6.4-1.65-4.313-1.253-9.275-2.9-13.891-4.612-7.457-2.759-16.952-7.2-20.828-9.144-.4-.2-.748-.377-1.019-.518a3.775,3.775,0,0,1-1.28-1.029c-.694-.952-1.579-2.7.823-3.193a4.363,4.363,0,0,1,2.254.272l44.338,16.405c1.21.448,2.126,1.247,2.2,1.937.116,1.087.053,2.131-2.224,2.108" transform="translate(-21.96 -72.255)" fill="#42669a"/>
              <path id="Trazado_1083501" data-name="Trazado 1083501" d="M103.954,191.871a4.051,4.051,0,0,1-.639.084,32.36,32.36,0,0,1-8.1-1.38l0,0c-4.057-1.052-8.894-2.595-13.344-4.246a175.986,175.986,0,0,1-19.09-8.771,2.841,2.841,0,0,1-1.085-1c-.074-.123-.145-.255-.216-.4a2.134,2.134,0,0,1-.027-2.279,2.3,2.3,0,0,1,1.189-.739,3.287,3.287,0,0,1,2.018.14L103.6,187.687c1.066.394,1.838,1.18,1.861,1.9a5.812,5.812,0,0,1-.014.669,1.644,1.644,0,0,1-1.5,1.614" transform="translate(-24.92 -70.543)" fill="#7d97d3"/>
              <path id="Trazado_1083502" data-name="Trazado 1083502" d="M107.678,183.905a18.069,18.069,0,0,1-5.455-.059,89.368,89.368,0,0,1-13.087-2.911l-.01,0c-1.212-.353-2.438-.728-3.658-1.118-2.034-.652-4.062-1.351-6.026-2.078-1.466-.542-2.992-1.163-4.537-1.83a178.924,178.924,0,0,1-16.682-8.441c-1.417-.811-2.534-1.483-3.225-1.935a3.306,3.306,0,0,1-1.3-1.594c-.6-1.609-1.2-4.662,1.915-6.282a3.41,3.41,0,0,1,2.726-.114l50.5,18.687a3.15,3.15,0,0,1,2.19,3.056c-.158,2.025-.527,4.022-3.353,4.621" transform="translate(-21.694 -64.133)" fill="#32547c"/>
              <g id="Grupo_1211351" data-name="Grupo 1211351" transform="translate(50.967 110.089)" style="mix-blend-mode: multiply;isolation: isolate">
                <g id="Grupo_1211350" data-name="Grupo 1211350">
                  <g id="Grupo_1211349" data-name="Grupo 1211349" clip-path="url(#clip-path-16)">
                    <path id="Trazado_1083503" data-name="Trazado 1083503" d="M121.063,195.544a18.069,18.069,0,0,1-5.455-.059,1.644,1.644,0,0,1-1.5,1.614l1.035.383c1.21.448,2.125,1.247,2.2,1.937.116,1.087.053,2.131-2.224,2.108a21.605,21.605,0,0,1-3.972-.577c.239,4.378.373,14.957-2.926,24.135-3.286,9.144-9.855,17.415-12.744,20.782l.425.157c1.211.448,2.121,1.245,2.2,1.937.116,1.087.049,2.129-2.224,2.108-.125,0-.254,0-.393-.016a1.711,1.711,0,0,1-1.3.849l2.5.923a3.011,3.011,0,0,1,2.155,2.751c-.093,1.773-.388,3.523-3.04,3.974-1.953.328-5.5-.12-9.754-1.071,6.548-3.1,1.449-7.268,1.268-7.421l-.005,0-.066-1.726c1.413-.684.26-2.408.26-2.408.365-.387.723-.771,1.071-1.159.334-.365.656-.729.974-1.094,18.375-21.169,15.206-44.37,15.206-44.37a1.717,1.717,0,0,0,1.24-2.321,4.246,4.246,0,0,0-.617-1.177l0,0c.937-.782-.1-1.711-1.18-2.374a13.825,13.825,0,0,0-1.669-.853,24.642,24.642,0,0,0,8.565-.649c6.006-1.759,5.718-6.065,5.718-6.065l5.422,2.006a3.15,3.15,0,0,1,2.19,3.056c-.158,2.025-.527,4.022-3.353,4.621" transform="translate(-86.046 -185.861)" fill="#b1c8e5"/>
                  </g>
                </g>
              </g>
              <g id="Grupo_1211354" data-name="Grupo 1211354" transform="translate(23.205 113.691)" opacity="0.5" style="mix-blend-mode: soft-light;isolation: isolate">
                <g id="Grupo_1211353" data-name="Grupo 1211353">
                  <g id="Grupo_1211352" data-name="Grupo 1211352" clip-path="url(#clip-path-17)">
                    <path id="Trazado_1083504" data-name="Trazado 1083504" d="M50.239,204.287c-3.858,5.355-8.475,8.637-10.311,7.332s-.2-6.7,3.662-12.058,8.474-8.637,10.311-7.332.2,6.7-3.662,12.058" transform="translate(-39.176 -191.942)" fill="#fff"/>
                  </g>
                </g>
              </g>
              <path id="Trazado_1083505" data-name="Trazado 1083505" d="M79.526,314.674H16.331l.135-.843L18,304.466q4.911.35,9.778.6,3.748.2,7.47.32c1,.037,1.993.068,2.984.1.91.024,1.815.043,2.713.061q13.052.268,25.739-.338,5.7-.267,11.322-.738l1.391,9.371Z" transform="translate(-6.658 -124.125)" fill="#7d97d3"/>
              <g id="Grupo_1211363" data-name="Grupo 1211363" transform="translate(20.3 180.938)" opacity="0.5">
                <g id="Grupo_1211362" data-name="Grupo 1211362">
                  <g id="Grupo_1211361" data-name="Grupo 1211361" clip-path="url(#clip-path-18)">
                    <g id="Grupo_1211357" data-name="Grupo 1211357" style="mix-blend-mode: soft-light;isolation: isolate">
                      <g id="Grupo_1211356" data-name="Grupo 1211356">
                        <g id="Grupo_1211355" data-name="Grupo 1211355" clip-path="url(#clip-path-19)">
                          <path id="Trazado_1083506" data-name="Trazado 1083506" d="M42.566,305.793l-.892,9.292h-7.4l.825-9.612q3.749.2,7.471.32" transform="translate(-34.271 -305.473)" fill="#fff"/>
                        </g>
                      </g>
                    </g>
                    <g id="Grupo_1211360" data-name="Grupo 1211360" transform="translate(10.491 0.418)" style="mix-blend-mode: soft-light;isolation: isolate">
                      <g id="Grupo_1211359" data-name="Grupo 1211359">
                        <g id="Grupo_1211358" data-name="Grupo 1211358" clip-path="url(#clip-path-20)">
                          <path id="Trazado_1083507" data-name="Trazado 1083507" d="M55.485,306.241l-.874,9.132H51.984l.788-9.193c.91.025,1.815.043,2.713.062" transform="translate(-51.984 -306.179)" fill="#fff"/>
                        </g>
                      </g>
                    </g>
                  </g>
                </g>
              </g>
              <path id="Trazado_1083508" data-name="Trazado 1083508" d="M82.43,329.654H0l1.631-10.209q4.09.277,8.178.492c1.108.062,2.221.117,3.329.166q3.756.185,7.507.314c.984.037,1.969.073,2.953.092.917.037,1.834.062,2.751.08q7.532.194,15.07.191,9.949,0,19.9-.332,5.714-.194,11.426-.5c2.776-.142,5.545-.314,8.32-.5Z" transform="translate(0 -130.231)" fill="#42669a"/>
              <g id="Grupo_1211372" data-name="Grupo 1211372" transform="translate(12.319 189.872)" opacity="0.5">
                <g id="Grupo_1211371" data-name="Grupo 1211371">
                  <g id="Grupo_1211370" data-name="Grupo 1211370" clip-path="url(#clip-path-21)">
                    <g id="Grupo_1211366" data-name="Grupo 1211366" style="mix-blend-mode: soft-light;isolation: isolate">
                      <g id="Grupo_1211365" data-name="Grupo 1211365">
                        <g id="Grupo_1211364" data-name="Grupo 1211364" clip-path="url(#clip-path-22)">
                          <path id="Trazado_1083509" data-name="Trazado 1083509" d="M29.124,320.871l-.88,9.236H20.8l.819-9.55q3.756.185,7.507.314" transform="translate(-20.798 -320.557)" fill="#fff"/>
                        </g>
                      </g>
                    </g>
                    <g id="Grupo_1211369" data-name="Grupo 1211369" transform="translate(10.498 0.406)" style="mix-blend-mode: soft-light;isolation: isolate">
                      <g id="Grupo_1211368" data-name="Grupo 1211368">
                        <g id="Grupo_1211367" data-name="Grupo 1211367" clip-path="url(#clip-path-23)">
                          <path id="Trazado_1083510" data-name="Trazado 1083510" d="M42.053,321.323l-.868,9.064H38.521l.781-9.144c.917.037,1.834.062,2.751.08" transform="translate(-38.521 -321.243)" fill="#fff"/>
                        </g>
                      </g>
                    </g>
                  </g>
                </g>
              </g>
              <g id="Grupo_1211375" data-name="Grupo 1211375" transform="translate(60.032 180.341)" style="mix-blend-mode: multiply;isolation: isolate">
                <g id="Grupo_1211374" data-name="Grupo 1211374">
                  <g id="Grupo_1211373" data-name="Grupo 1211373" clip-path="url(#clip-path-24)">
                    <path id="Trazado_1083511" data-name="Trazado 1083511" d="M123.749,323.547h-8.473l-1.594-6.234-10.011-2.639-1.028-.271-.006-.062-1.286-9.138q5.7-.268,11.322-.739l1.39,9.372c2.776-.142,5.545-.314,8.32-.5Z" transform="translate(-101.35 -304.465)" fill="#b1c8e5"/>
                  </g>
                </g>
              </g>
              <path id="Trazado_1083512" data-name="Trazado 1083512" d="M271.95,27.29A13.389,13.389,0,0,0,276.9,41.521a13.243,13.243,0,0,0,15.044-.046,13.1,13.1,0,0,0,4.644-14.285c-1.724-5.252-7.1-8.6-12.442-9.226C278.735,17.335,273.362,22.381,271.95,27.29Z" transform="translate(-110.675 -7.302)" fill="none" stroke="#aac8ff" stroke-linecap="round" stroke-linejoin="round" stroke-width="1.801"/>
              <path id="Trazado_1083513" data-name="Trazado 1083513" d="M284.593,27.29c-.6,5.145.237,11.124,2,14.231s4.329,3.1,6.08-.046,2.552-9.2,1.878-14.285c-.7-5.252-2.87-8.6-5.029-9.226C287.335,17.335,285.164,22.381,284.593,27.29Z" transform="translate(-115.944 -7.302)" fill="none" stroke="#aac8ff" stroke-linecap="round" stroke-linejoin="round" stroke-width="1.801"/>
              <line id="Línea_3603" data-name="Línea 3603" x2="25.701" transform="translate(160.799 23.575)" fill="none" stroke="#aac8ff" stroke-linecap="round" stroke-linejoin="round" stroke-width="1.801"/>
              <path id="Trazado_1083514" data-name="Trazado 1083514" d="M275.927,26.662A24.751,24.751,0,0,0,296.922,27.8" transform="translate(-112.49 -10.87)" fill="none" stroke="#aac8ff" stroke-linecap="round" stroke-linejoin="round" stroke-width="1.801"/>
              <path id="Trazado_1083515" data-name="Trazado 1083515" d="M274.746,49.825s7.644-4.114,22.442-.991" transform="translate(-112.008 -19.431)" fill="none" stroke="#aac8ff" stroke-linecap="round" stroke-linejoin="round" stroke-width="1.801"/>
              <path id="Trazado_1083516" data-name="Trazado 1083516" d="M429.458,11A122.028,122.028,0,0,0,449.673.9C454.257,4.945,461,8.2,468.963,11Z" transform="translate(-175.081 -0.367)" fill="none" stroke="#aac8ff" stroke-linecap="round" stroke-linejoin="round" stroke-width="1.801"/>
              <path id="Trazado_1083517" data-name="Trazado 1083517" d="M437.532,17.953l-.763,17.531h3.055V17.953Z" transform="translate(-178.062 -7.319)" fill="none" stroke="#aac8ff" stroke-linecap="round" stroke-linejoin="round" stroke-width="1.801"/>
              <path id="Trazado_1083518" data-name="Trazado 1083518" d="M448.769,17.953,448,35.484h3.055V17.953Z" transform="translate(-182.643 -7.319)" fill="none" stroke="#aac8ff" stroke-linecap="round" stroke-linejoin="round" stroke-width="1.801"/>
              <path id="Trazado_1083519" data-name="Trazado 1083519" d="M460.006,17.953l-.763,17.531H462.3V17.953Z" transform="translate(-187.224 -7.319)" fill="none" stroke="#aac8ff" stroke-linecap="round" stroke-linejoin="round" stroke-width="1.801"/>
              <path id="Trazado_1083520" data-name="Trazado 1083520" d="M471.244,17.953l-.764,17.531h3.055V17.953Z" transform="translate(-191.805 -7.319)" fill="none" stroke="#aac8ff" stroke-linecap="round" stroke-linejoin="round" stroke-width="1.801"/>
              <path id="Trazado_1083521" data-name="Trazado 1083521" d="M481.928,17.953l-.764,17.531h3.055V17.953Z" transform="translate(-196.161 -7.319)" fill="none" stroke="#aac8ff" stroke-linecap="round" stroke-linejoin="round" stroke-width="1.801"/>
              <path id="Trazado_1083522" data-name="Trazado 1083522" d="M430.628,47.55h36.658v2.886H429.459Z" transform="translate(-175.082 -19.385)" fill="none" stroke="#aac8ff" stroke-linecap="round" stroke-linejoin="round" stroke-width="1.801"/>
              <path id="Trazado_1083523" data-name="Trazado 1083523" d="M28.894,112.962c13.154-4.724,14.48-17.167,14.829-19.593s3.371-7.29,3.371-7.29c-12.719-1.756-17.847-9.851-17.847-9.851s-5.282,8-18.033,9.506c0,0,2.928,4.922,3.231,7.354S15.833,107.985,28.894,112.962Z" transform="translate(-4.572 -31.076)" fill="none" stroke="#aac8ff" stroke-linecap="round" stroke-linejoin="round" stroke-width="1.801"/>
              <path id="Trazado_1083524" data-name="Trazado 1083524" d="M31.7,112.557c10.185-3.774,11.215-13.709,11.486-15.646S45.8,91.089,45.8,91.089c-9.847-1.4-13.815-7.861-13.815-7.861s-4.092,6.385-13.964,7.594c0,0,2.266,3.929,2.5,5.87S21.588,108.587,31.7,112.557Z" transform="translate(-7.345 -33.93)" fill="none" stroke="#aac8ff" stroke-linecap="round" stroke-linejoin="round" stroke-width="1.801"/>
              <path id="Trazado_1083525" data-name="Trazado 1083525" d="M32.974,105.5a71.176,71.176,0,0,0,4.617-5.686" transform="translate(-13.443 -40.691)" fill="none" stroke="#aac8ff" stroke-linecap="round" stroke-linejoin="round" stroke-width="1.801"/>
              <path id="Trazado_1083526" data-name="Trazado 1083526" d="M36.687,113.157q3.753-5.907,7.817-11.608" transform="translate(-14.957 -41.399)" fill="none" stroke="#aac8ff" stroke-linecap="round" stroke-linejoin="round" stroke-width="1.801"/>
              <path id="Trazado_1083527" data-name="Trazado 1083527" d="M546.975,103.151l-2.529-2.975s18.672-23.681,24.6-18.716S546.975,103.151,546.975,103.151Z" transform="translate(-221.96 -32.931)" fill="none" stroke="#aac8ff" stroke-linecap="round" stroke-linejoin="round" stroke-width="1.801"/>
              <path id="Trazado_1083528" data-name="Trazado 1083528" d="M542.981,116.5l-6.045,5.138-2.288-2.692,5.8-5.422" transform="translate(-217.965 -46.283)" fill="none" stroke="#aac8ff" stroke-linecap="round" stroke-linejoin="round" stroke-width="1.801"/>
              <path id="Trazado_1083529" data-name="Trazado 1083529" d="M532.18,125.355s1.474,4.6-9.2,5.256c0,0,1.239-8.5,6.91-7.948" transform="translate(-213.209 -49.997)" fill="none" stroke="#aac8ff" stroke-linecap="round" stroke-linejoin="round" stroke-width="1.801"/>
              <path id="Trazado_1083530" data-name="Trazado 1083530" d="M565.167,93.414s-.191-4.245-5.158-6.069l-1.539-1.81s-7.664,7-10.1,10.864" transform="translate(-223.559 -34.871)" fill="none" stroke="#aac8ff" stroke-linecap="round" stroke-linejoin="round" stroke-width="1.801"/>
              <path id="Trazado_1083531" data-name="Trazado 1083531" d="M121.93,13.527a60.717,60.717,0,0,0,18.19,1.108l-.226,3.718L121.7,17.245Z" transform="translate(-49.616 -5.515)" fill="none" stroke="#aac8ff" stroke-linecap="round" stroke-linejoin="round" stroke-width="1.801"/>
              <path id="Trazado_1083532" data-name="Trazado 1083532" d="M148.079,21.451s3.244,9.724-.964,15.817" transform="translate(-59.976 -8.745)" fill="none" stroke="#aac8ff" stroke-linecap="round" stroke-linejoin="round" stroke-width="1.801"/>
              <path id="Trazado_1083533" data-name="Trazado 1083533" d="M119.922,46.508l18.19,1.108-.225,3.691A62.946,62.946,0,0,0,119.7,50.2Z" transform="translate(-48.798 -18.96)" fill="none" stroke="#aac8ff" stroke-linecap="round" stroke-linejoin="round" stroke-width="1.801"/>
              <path id="Trazado_1083534" data-name="Trazado 1083534" d="M150.73,32.21s33.273-4.192,33.577-.076-33.138,2.686-33.138,2.686" transform="translate(-61.45 -12.362)" fill="none" stroke="#aac8ff" stroke-linecap="round" stroke-linejoin="round" stroke-width="1.801"/>
              <path id="Trazado_1083535" data-name="Trazado 1083535" d="M123.651,20.041s-5.663,8.255-.964,15.817" transform="translate(-49.257 -8.17)" fill="none" stroke="#aac8ff" stroke-linecap="round" stroke-linejoin="round" stroke-width="1.801"/>
              <path id="Trazado_1083536" data-name="Trazado 1083536" d="M151.776,72.457l1.185,4.235,4.235,1.185-4.235,1.186L151.776,83.3l-1.185-4.234-4.235-1.186,4.235-1.185Z" transform="translate(-59.666 -29.539)" fill="#ffb552"/>
              <path id="Trazado_1083537" data-name="Trazado 1083537" d="M301.984,133.642l1.185,4.234,4.235,1.185-4.235,1.186-1.185,4.234-1.185-4.234-4.235-1.186,4.235-1.185Z" transform="translate(-120.903 -54.483)" fill="#ffb552"/>
              <path id="Trazado_1083538" data-name="Trazado 1083538" d="M167.286,90.758l.722,2.789,2.581.781-2.581.781-.722,2.789-.722-2.789-2.581-.781,2.581-.781Z" transform="translate(-66.853 -37)" fill="#ffb552"/>
              <path id="Trazado_1083539" data-name="Trazado 1083539" d="M545.772,142.564l.722,2.789,2.581.781-2.581.781-.722,2.789-.722-2.789-2.581-.781,2.581-.781Z" transform="translate(-221.154 -58.12)" fill="#ffb552"/>
              <path id="Trazado_1083540" data-name="Trazado 1083540" d="M403.044,48.584l.722,2.789,2.581.781-2.581.781-.722,2.789-.722-2.789-2.581-.781,2.581-.781Z" transform="translate(-162.966 -19.807)" fill="#ffb552"/>
              <path id="Trazado_1083541" data-name="Trazado 1083541" d="M552.269,161.309l.924,3.567,3.3,1-3.3,1-.924,3.567-.924-3.567-3.3-1,3.3-1Z" transform="translate(-223.427 -65.762)" fill="#ffb552"/>
              <path id="Trazado_1083542" data-name="Trazado 1083542" d="M25.552,155.283l.722,2.789,2.581.781-2.581.781-.722,2.789-.722-2.789-2.581-.781,2.581-.781Z" transform="translate(-9.071 -63.306)" fill="#ffb552"/>
            </g>
          </g>
        </g>
      </g>
    </g>
  </g>
</svg>
