<svg xmlns="http://www.w3.org/2000/svg" xmlns:xlink="http://www.w3.org/1999/xlink" width="108" height="108" viewBox="0 0 108 108">
  <defs>
    <filter id="Trazado_978624" x="0" y="0" width="108" height="108" filterUnits="userSpaceOnUse">
      <feOffset dy="3" input="SourceAlpha"/>
      <feGaussianBlur stdDeviation="3" result="blur"/>
      <feFlood flood-opacity="0.161"/>
      <feComposite operator="in" in2="blur"/>
      <feComposite in="SourceGraphic"/>
    </filter>
    <filter id="Trazado_1076716" x="0" y="0" width="108" height="108" filterUnits="userSpaceOnUse">
      <feOffset dy="3" input="SourceAlpha"/>
      <feGaussianBlur stdDeviation="3" result="blur-2"/>
      <feFlood flood-opacity="0.161"/>
      <feComposite operator="in" in2="blur-2"/>
      <feComposite in="SourceGraphic"/>
    </filter>
  </defs>
  <g id="Grupo_1211412" data-name="Grupo 1211412" transform="translate(-197 -15086)">
    <g id="Grupo_1210254" data-name="Grupo 1210254" transform="translate(206 15092)">
      <g id="Grupo_1208078" data-name="Grupo 1208078" transform="translate(0)">
        <g id="Grupo_1181203" data-name="Grupo 1181203">
          <g id="Grupo_1172348" data-name="Grupo 1172348">
            <g id="Grupo_1171897" data-name="Grupo 1171897">
              <g id="Grupo_1171052" data-name="Grupo 1171052">
                <g id="Grupo_1164581" data-name="Grupo 1164581">
                  <g id="Grupo_1144123" data-name="Grupo 1144123">
                    <g transform="matrix(1, 0, 0, 1, -9, -6)" filter="url(#Trazado_978624)">
                      <g id="Trazado_978624-2" data-name="Trazado 978624" transform="translate(9 6)" fill="#f7f4ed">
                        <path d="M 45 88.5 C 39.12687683105469 88.5 33.43022537231445 87.35007476806641 28.06830024719238 85.08217620849609 C 22.88852500915527 82.89131164550781 18.23629951477051 79.75458526611328 14.2408504486084 75.75914764404297 C 10.24541282653809 71.76370239257812 7.108687400817871 67.11147308349609 4.917825222015381 61.93170166015625 C 2.649924993515015 56.56977462768555 1.5 50.87312316894531 1.5 45 C 1.5 39.12687683105469 2.649924993515015 33.43022537231445 4.917825222015381 28.06830024719238 C 7.108687400817871 22.88852500915527 10.24541282653809 18.23629951477051 14.2408504486084 14.2408504486084 C 18.23629951477051 10.24541282653809 22.88852500915527 7.108687400817871 28.06830024719238 4.917825222015381 C 33.43022537231445 2.649924993515015 39.12687683105469 1.5 45 1.5 C 50.87312316894531 1.5 56.56977462768555 2.649924993515015 61.93170166015625 4.917825222015381 C 67.11147308349609 7.108687400817871 71.76370239257812 10.24541282653809 75.75914764404297 14.2408504486084 C 79.75458526611328 18.23629951477051 82.89131164550781 22.88852500915527 85.08217620849609 28.06830024719238 C 87.35007476806641 33.43022537231445 88.5 39.12687683105469 88.5 45 C 88.5 50.87312316894531 87.35007476806641 56.56977462768555 85.08217620849609 61.93170166015625 C 82.89131164550781 67.11147308349609 79.75458526611328 71.76370239257812 75.75914764404297 75.75914764404297 C 71.76370239257812 79.75458526611328 67.11147308349609 82.89131164550781 61.93170166015625 85.08217620849609 C 56.56977462768555 87.35007476806641 50.87312316894531 88.5 45 88.5 Z" stroke="none"/>
                        <path d="M 45 3 C 39.32871246337891 3 33.82865524291992 4.110054016113281 28.65262985229492 6.299339294433594 C 23.65165710449219 8.414573669433594 19.15968322753906 11.44334411621094 15.301513671875 15.301513671875 C 11.44334411621094 19.15968322753906 8.414573669433594 23.65165710449219 6.299339294433594 28.65262985229492 C 4.110054016113281 33.82865524291992 3 39.32871246337891 3 45 C 3 50.67128753662109 4.110054016113281 56.17134475708008 6.299339294433594 61.34737396240234 C 8.414573669433594 66.34834289550781 11.44334411621094 70.84031677246094 15.301513671875 74.698486328125 C 19.15968322753906 78.55665588378906 23.65165710449219 81.58542633056641 28.65262985229492 83.70066070556641 C 33.82865524291992 85.88994598388672 39.32871246337891 87 45 87 C 50.67128753662109 87 56.17134475708008 85.88994598388672 61.34737396240234 83.70066070556641 C 66.34834289550781 81.58542633056641 70.84031677246094 78.55665588378906 74.698486328125 74.698486328125 C 78.55665588378906 70.84031677246094 81.58542633056641 66.34834289550781 83.70066070556641 61.34737396240234 C 85.88994598388672 56.17134475708008 87 50.67128753662109 87 45 C 87 39.32871246337891 85.88994598388672 33.82865524291992 83.70066070556641 28.65262985229492 C 81.58542633056641 23.65165710449219 78.55665588378906 19.15968322753906 74.698486328125 15.301513671875 C 70.84031677246094 11.44334411621094 66.34834289550781 8.414573669433594 61.34737396240234 6.299339294433594 C 56.17134475708008 4.110054016113281 50.67128753662109 3 45 3 M 45 0 C 69.85281372070312 0 90 20.14718627929688 90 45 C 90 69.85281372070312 69.85281372070312 90 45 90 C 20.14718627929688 90 0 69.85281372070312 0 45 C 0 20.14718627929688 20.14718627929688 0 45 0 Z" stroke="none" fill="#ba9c5a"/>
                      </g>
                    </g>
                    <g transform="matrix(1, 0, 0, 1, -9, -6)" filter="url(#Trazado_1076716)">
                      <g id="Trazado_1076716-2" data-name="Trazado 1076716" transform="translate(9 6)" fill="#f7f4ed">
                        <path d="M 45 88.5 C 39.12687683105469 88.5 33.43022537231445 87.35007476806641 28.06830024719238 85.08217620849609 C 22.88852500915527 82.89131164550781 18.23629951477051 79.75458526611328 14.2408504486084 75.75914764404297 C 10.24541282653809 71.76370239257812 7.108687400817871 67.11147308349609 4.917825222015381 61.93170166015625 C 2.649924993515015 56.56977462768555 1.5 50.87312316894531 1.5 45 C 1.5 39.12687683105469 2.649924993515015 33.43022537231445 4.917825222015381 28.06830024719238 C 7.108687400817871 22.88852500915527 10.24541282653809 18.23629951477051 14.2408504486084 14.2408504486084 C 18.23629951477051 10.24541282653809 22.88852500915527 7.108687400817871 28.06830024719238 4.917825222015381 C 33.43022537231445 2.649924993515015 39.12687683105469 1.5 45 1.5 C 50.87312316894531 1.5 56.56977462768555 2.649924993515015 61.93170166015625 4.917825222015381 C 67.11147308349609 7.108687400817871 71.76370239257812 10.24541282653809 75.75914764404297 14.2408504486084 C 79.75458526611328 18.23629951477051 82.89131164550781 22.88852500915527 85.08217620849609 28.06830024719238 C 87.35007476806641 33.43022537231445 88.5 39.12687683105469 88.5 45 C 88.5 50.87312316894531 87.35007476806641 56.56977462768555 85.08217620849609 61.93170166015625 C 82.89131164550781 67.11147308349609 79.75458526611328 71.76370239257812 75.75914764404297 75.75914764404297 C 71.76370239257812 79.75458526611328 67.11147308349609 82.89131164550781 61.93170166015625 85.08217620849609 C 56.56977462768555 87.35007476806641 50.87312316894531 88.5 45 88.5 Z" stroke="none"/>
                        <path d="M 45 3 C 39.32871246337891 3 33.82865524291992 4.110054016113281 28.65262985229492 6.299339294433594 C 23.65165710449219 8.414573669433594 19.15968322753906 11.44334411621094 15.301513671875 15.301513671875 C 11.44334411621094 19.15968322753906 8.414573669433594 23.65165710449219 6.299339294433594 28.65262985229492 C 4.110054016113281 33.82865524291992 3 39.32871246337891 3 45 C 3 50.67128753662109 4.110054016113281 56.17134475708008 6.299339294433594 61.34737396240234 C 8.414573669433594 66.34834289550781 11.44334411621094 70.84031677246094 15.301513671875 74.698486328125 C 19.15968322753906 78.55665588378906 23.65165710449219 81.58542633056641 28.65262985229492 83.70066070556641 C 33.82865524291992 85.88994598388672 39.32871246337891 87 45 87 C 50.67128753662109 87 56.17134475708008 85.88994598388672 61.34737396240234 83.70066070556641 C 66.34834289550781 81.58542633056641 70.84031677246094 78.55665588378906 74.698486328125 74.698486328125 C 78.55665588378906 70.84031677246094 81.58542633056641 66.34834289550781 83.70066070556641 61.34737396240234 C 85.88994598388672 56.17134475708008 87 50.67128753662109 87 45 C 87 39.32871246337891 85.88994598388672 33.82865524291992 83.70066070556641 28.65262985229492 C 81.58542633056641 23.65165710449219 78.55665588378906 19.15968322753906 74.698486328125 15.301513671875 C 70.84031677246094 11.44334411621094 66.34834289550781 8.414573669433594 61.34737396240234 6.299339294433594 C 56.17134475708008 4.110054016113281 50.67128753662109 3 45 3 M 45 0 C 69.85281372070312 0 90 20.14718627929688 90 45 C 90 69.85281372070312 69.85281372070312 90 45 90 C 20.14718627929688 90 0 69.85281372070312 0 45 C 0 20.14718627929688 20.14718627929688 0 45 0 Z" stroke="none" fill="#ba9c5a"/>
                      </g>
                    </g>
                  </g>
                </g>
              </g>
            </g>
          </g>
        </g>
      </g>
    </g>
    <g id="justicia" transform="translate(220 15106)">
      <g id="Grupo_1211410" data-name="Grupo 1211410">
        <g id="Grupo_1211382" data-name="Grupo 1211382">
          <path id="Trazado_1083543" data-name="Trazado 1083543" d="M31,5a6,6,0,1,1-6,6A6,6,0,0,1,31,5Zm2,6a2,2,0,1,0-2,2A2.006,2.006,0,0,0,33,11Z" fill="#ef7385"/>
        </g>
        <g id="Grupo_1211383" data-name="Grupo 1211383">
          <path id="Trazado_1083544" data-name="Trazado 1083544" d="M37,11a6,6,0,1,0-6,6A6,6,0,0,0,37,11ZM21.34,9a2,2,0,0,0,1.42-3.41l-.25-.25,2.83-2.83.25.25A2,2,0,0,0,29,1.34V1h4v.34a2,2,0,0,0,3.41,1.42l.25-.25,2.83,2.83-.25.25A2,2,0,0,0,40.66,9H41v4h-.34a2,2,0,0,0-1.42,3.41l.25.25-2.83,2.83-.25-.25A2,2,0,0,0,33,20.66V21H29v-.34a2,2,0,0,0-3.41-1.42l-.25.25-2.83-2.83.25-.25A2,2,0,0,0,21.34,13H21V9Z" fill="#ef7385"/>
        </g>
        <g id="Grupo_1211384" data-name="Grupo 1211384">
          <path id="Trazado_1083545" data-name="Trazado 1083545" d="M41,23H55a6.009,6.009,0,0,1-6,6H47A6,6,0,0,1,41,23Z" fill="#dfb28b"/>
        </g>
        <g id="Grupo_1211385" data-name="Grupo 1211385">
          <path id="Trazado_1083546" data-name="Trazado 1083546" d="M7,23H21a6.009,6.009,0,0,1-6,6H13A6,6,0,0,1,7,23Z" fill="#dfb28b"/>
        </g>
        <g id="Grupo_1211386" data-name="Grupo 1211386">
          <path id="Trazado_1083547" data-name="Trazado 1083547" d="M55,10v2a1,1,0,0,1-1,1H41V9H54A1,1,0,0,1,55,10Z" fill="#b27946"/>
        </g>
        <g id="Grupo_1211387" data-name="Grupo 1211387">
          <path id="Trazado_1083548" data-name="Trazado 1083548" d="M21,9v4H8a1,1,0,0,1-1-1V10A1,1,0,0,1,8,9Z" fill="#b27946"/>
        </g>
        <g id="Grupo_1211388" data-name="Grupo 1211388">
          <path id="Trazado_1083549" data-name="Trazado 1083549" d="M33,21V32.95a7.55,7.55,0,0,1-.83.05H29V21Z" fill="#b27946"/>
        </g>
        <g id="Grupo_1211389" data-name="Grupo 1211389">
          <path id="Trazado_1083550" data-name="Trazado 1083550" d="M23,43V38a5,5,0,0,1,5-5h4.17a7.55,7.55,0,0,0,.83-.05A6.863,6.863,0,0,0,37,31a11.943,11.943,0,0,1,2,6.61V43H37v-.23a2.007,2.007,0,0,0-1.75-1.99l-3.11-.39a5.006,5.006,0,0,1-2.4-.98v.01l-3.37,1.12A2.009,2.009,0,0,0,25,42.44V43Z" fill="#fcd770"/>
        </g>
        <g id="Grupo_1211390" data-name="Grupo 1211390">
          <path id="Trazado_1083551" data-name="Trazado 1083551" d="M49.74,39.41v.01l-3.37,1.12A2.009,2.009,0,0,0,45,42.44V45a5.994,5.994,0,0,0,3.8,5.58v.01L48,53a5.107,5.107,0,0,0-2.31,1.57,4.777,4.777,0,0,0-.57.84A10.291,10.291,0,0,1,41,47.17V43a10,10,0,0,1,20,0v4.17a10.291,10.291,0,0,1-4.12,8.24,4.777,4.777,0,0,0-.57-.84A5.107,5.107,0,0,0,54,53l-.8-2.41v-.01a5.84,5.84,0,0,0,2.04-1.34A5.944,5.944,0,0,0,57,45V42.77a2.007,2.007,0,0,0-1.75-1.99l-3.11-.39A5.006,5.006,0,0,1,49.74,39.41Z" fill="#b27946"/>
        </g>
        <g id="Grupo_1211391" data-name="Grupo 1211391">
          <path id="Trazado_1083552" data-name="Trazado 1083552" d="M9.74,39.42,6.37,40.54A2.009,2.009,0,0,0,5,42.44V43H3V41a8,8,0,1,1,16,0v2H17v-.23a2.007,2.007,0,0,0-1.75-1.99l-3.11-.39a5.006,5.006,0,0,1-2.4-.98Z" fill="#b27946"/>
        </g>
        <g id="Grupo_1211392" data-name="Grupo 1211392">
          <path id="Trazado_1083553" data-name="Trazado 1083553" d="M57.45,57.13,58,61H51V55l3-2a5.107,5.107,0,0,1,2.31,1.57,4.777,4.777,0,0,1,.57.84A5.13,5.13,0,0,1,57.45,57.13Z" fill="#ef7385"/>
        </g>
        <g id="Grupo_1211393" data-name="Grupo 1211393">
          <path id="Trazado_1083554" data-name="Trazado 1083554" d="M51,55v6H44l.55-3.87a5.13,5.13,0,0,1,.57-1.72,4.777,4.777,0,0,1,.57-.84A5.107,5.107,0,0,1,48,53Z" fill="#ef7385"/>
        </g>
        <g id="Grupo_1211394" data-name="Grupo 1211394">
          <path id="Trazado_1083555" data-name="Trazado 1083555" d="M34,53a5.107,5.107,0,0,1,3.45,4.13L38,61H33l-1-6Z" fill="#e6e9ed"/>
        </g>
        <g id="Grupo_1211395" data-name="Grupo 1211395">
          <path id="Trazado_1083556" data-name="Trazado 1083556" d="M30,55l-1,6H24l.55-3.87A5.107,5.107,0,0,1,28,53Z" fill="#e6e9ed"/>
        </g>
        <g id="Grupo_1211396" data-name="Grupo 1211396">
          <path id="Trazado_1083557" data-name="Trazado 1083557" d="M14,53a5.107,5.107,0,0,1,3.45,4.13L18,61H13l-1-6Z" fill="#e6e9ed"/>
        </g>
        <g id="Grupo_1211397" data-name="Grupo 1211397">
          <path id="Trazado_1083558" data-name="Trazado 1083558" d="M10,55,9,61H4l.55-3.87A5.121,5.121,0,0,1,8,53Z" fill="#e6e9ed"/>
        </g>
        <g id="Grupo_1211398" data-name="Grupo 1211398">
          <path id="Trazado_1083559" data-name="Trazado 1083559" d="M32,55l1,6H29l1-6Z" fill="#ef7385"/>
        </g>
        <g id="Grupo_1211399" data-name="Grupo 1211399">
          <path id="Trazado_1083560" data-name="Trazado 1083560" d="M12,55l1,6H9l1-6Z" fill="#ef7385"/>
        </g>
        <g id="Grupo_1211400" data-name="Grupo 1211400">
          <path id="Trazado_1083561" data-name="Trazado 1083561" d="M54,53l-3,2-3-2,.8-2.41v-.01A5.94,5.94,0,0,0,51,51l2.2-.42v.01Z" fill="#f5e0cd"/>
        </g>
        <g id="Grupo_1211401" data-name="Grupo 1211401">
          <path id="Trazado_1083562" data-name="Trazado 1083562" d="M57,42.77V45a5.944,5.944,0,0,1-1.76,4.24,5.84,5.84,0,0,1-2.04,1.34L51,51a6.007,6.007,0,0,1-6-6V42.44a2.009,2.009,0,0,1,1.37-1.9l3.37-1.12v-.01a5.006,5.006,0,0,0,2.4.98l3.11.39A2.007,2.007,0,0,1,57,42.77Z" fill="#f5e0cd"/>
        </g>
        <g id="Grupo_1211402" data-name="Grupo 1211402">
          <path id="Trazado_1083563" data-name="Trazado 1083563" d="M37,43v2a5.942,5.942,0,0,1-1.76,4.24,5.84,5.84,0,0,1-2.04,1.34A6.006,6.006,0,0,1,25.34,47,6.043,6.043,0,0,1,25,45V42.44a2.009,2.009,0,0,1,1.37-1.9l3.37-1.12v-.01a5.006,5.006,0,0,0,2.4.98l3.11.39A2.007,2.007,0,0,1,37,42.77Z" fill="#f5e0cd"/>
        </g>
        <g id="Grupo_1211403" data-name="Grupo 1211403">
          <path id="Trazado_1083564" data-name="Trazado 1083564" d="M33.2,50.59,34,53l-2,2H30l-2-2,.8-2.41v-.01a5.972,5.972,0,0,0,4.4,0Z" fill="#f5e0cd"/>
        </g>
        <g id="Grupo_1211404" data-name="Grupo 1211404">
          <path id="Trazado_1083565" data-name="Trazado 1083565" d="M40.41,46.41A1.955,1.955,0,0,1,39,47H36.66A6.043,6.043,0,0,0,37,45V43h2a2.006,2.006,0,0,1,2,2A1.955,1.955,0,0,1,40.41,46.41Z" fill="#f5e0cd"/>
        </g>
        <g id="Grupo_1211405" data-name="Grupo 1211405">
          <path id="Trazado_1083566" data-name="Trazado 1083566" d="M25.34,47H23a2.015,2.015,0,0,1-2-2,2.006,2.006,0,0,1,2-2h2v2A6.043,6.043,0,0,0,25.34,47Z" fill="#f5e0cd"/>
        </g>
        <g id="Grupo_1211406" data-name="Grupo 1211406">
          <path id="Trazado_1083567" data-name="Trazado 1083567" d="M19,43a2.006,2.006,0,0,1,2,2,2.015,2.015,0,0,1-2,2H16.66A6.043,6.043,0,0,0,17,45V43Z" fill="#f5e0cd"/>
        </g>
        <g id="Grupo_1211407" data-name="Grupo 1211407">
          <path id="Trazado_1083568" data-name="Trazado 1083568" d="M17,43v2a5.942,5.942,0,0,1-1.76,4.24,5.966,5.966,0,0,1-6.43,1.34A5.971,5.971,0,0,1,5,45V42.44a2.009,2.009,0,0,1,1.37-1.9l3.37-1.12v-.01a5.006,5.006,0,0,0,2.4.98l3.11.39A2.007,2.007,0,0,1,17,42.77Z" fill="#f5e0cd"/>
        </g>
        <g id="Grupo_1211408" data-name="Grupo 1211408">
          <path id="Trazado_1083569" data-name="Trazado 1083569" d="M13.19,50.58,14,53l-2,2H10L8,53l.81-2.42a5.92,5.92,0,0,0,4.38,0Z" fill="#f5e0cd"/>
        </g>
        <g id="Grupo_1211409" data-name="Grupo 1211409">
          <path id="Trazado_1083570" data-name="Trazado 1083570" d="M5,45a6.043,6.043,0,0,0,.34,2H3a1.955,1.955,0,0,1-1.41-.59A1.955,1.955,0,0,1,1,45a2.006,2.006,0,0,1,2-2H5Z" fill="#f5e0cd"/>
        </g>
      </g>
      <g id="Grupo_1211411" data-name="Grupo 1211411">
        <path id="Trazado_1083571" data-name="Trazado 1083571" d="M52,45.586a1.451,1.451,0,0,1-2,0l-.293-.293-1.414,1.414.293.293a3.414,3.414,0,0,0,4.828,0l.293-.293-1.414-1.414Z"/>
        <path id="Trazado_1083572" data-name="Trazado 1083572" d="M32,45.586a1.451,1.451,0,0,1-2,0l-.293-.293-1.414,1.414.293.293a3.414,3.414,0,0,0,4.828,0l.293-.293-1.414-1.414Z"/>
        <path id="Trazado_1083573" data-name="Trazado 1083573" d="M13.414,47l.293-.293-1.414-1.414L12,45.586a1.451,1.451,0,0,1-2,0l-.293-.293L8.293,46.707,8.586,47a3.414,3.414,0,0,0,4.828,0Z"/>
        <path id="Trazado_1083574" data-name="Trazado 1083574" d="M62,47.169V43a10.994,10.994,0,0,0-21.959-.8L40,42.184V37.6a12.87,12.87,0,0,0-2.168-7.16l-.677-1.015-.862.862A5.84,5.84,0,0,1,34,31.7V20.657a1,1,0,0,1,1.707-.708l.95.95L40.9,16.657l-.95-.95A1,1,0,0,1,40.657,14h3.725L40,22.764V23a7.009,7.009,0,0,0,7,7h2a7.009,7.009,0,0,0,7-7v-.236L51.618,14H54a2,2,0,0,0,2-2V10a2,2,0,0,0-2-2H40.657a1,1,0,0,1-.708-1.707l.95-.95L36.657,1.1l-.95.95A1,1,0,0,1,34,1.343V0H28V1.343a.985.985,0,0,1-.617.925.978.978,0,0,1-1.09-.217l-.95-.95L21.1,5.343l.95.95A1,1,0,0,1,21.343,8H8a2,2,0,0,0-2,2v2a2,2,0,0,0,2,2h2.382L6,22.764V23a7.009,7.009,0,0,0,7,7h2a7.009,7.009,0,0,0,7-7v-.236L17.618,14h3.725a1,1,0,0,1,.708,1.707l-.95.95L25.343,20.9l.95-.95A1,1,0,0,1,28,20.657V32a6.006,6.006,0,0,0-6,6v4.184a2.989,2.989,0,0,0-1,.6,2.972,2.972,0,0,0-1-.6V41A9,9,0,0,0,2,41v1.184A2.993,2.993,0,0,0,3,48H4.685a7.045,7.045,0,0,0,2.894,3.1L7.2,52.235A6.083,6.083,0,0,0,3.562,56.99L2.847,62H59.154l-.716-5.011a6.186,6.186,0,0,0-.343-1.3,11.344,11.344,0,0,0,3.9-8.52ZM49,28H47a5,5,0,0,1-4.884-4H53.884A5,5,0,0,1,49,28Zm4.382-6H42.618l4-8h2.764ZM54,10v2H42V10ZM15,28H13a5,5,0,0,1-4.884-4H19.884A5,5,0,0,1,15,28Zm4.382-6H8.618l4-8h2.764ZM8,12V10H20v2ZM51,50a5.006,5.006,0,0,1-5-5V42.441a1,1,0,0,1,.684-.949l2.908-.969a6,6,0,0,0,2.422.861l3.11.389a1,1,0,0,1,.876.993V45A5.006,5.006,0,0,1,51,50Zm0,2a6.976,6.976,0,0,0,1.553-.18l.257.771L51,53.8l-1.81-1.206.257-.771A7.035,7.035,0,0,0,51,52Zm-3.114,2.126L50,55.535V60H45.153l.39-2.728a4.087,4.087,0,0,1,2.343-3.146Zm-4.323,2.863L43.132,60H38.867l-.43-3.011A6.083,6.083,0,0,0,34.8,52.234L34.42,51.1A7.04,7.04,0,0,0,37.314,48H39a2.963,2.963,0,0,0,1.038-.2,11.335,11.335,0,0,0,3.868,7.885,6.167,6.167,0,0,0-.343,1.3ZM10.847,56h.306l.667,4H10.18Zm2.224-.657,1.165-1.165a4.1,4.1,0,0,1,2.222,3.094L16.847,60h-3Zm5.367,1.646A6.083,6.083,0,0,0,14.8,52.234L14.421,51.1A7.04,7.04,0,0,0,17.315,48H19a2.981,2.981,0,0,0,2-.78A2.976,2.976,0,0,0,23,48h1.685a7.045,7.045,0,0,0,2.894,3.1L27.2,52.234a6.083,6.083,0,0,0-3.639,4.755L23.132,60H18.867ZM18,45V44h1a1,1,0,0,1,0,2H17.92A7.026,7.026,0,0,0,18,45Zm14.856,7.73L31.586,54H30.414l-1.27-1.27.3-.91a6.789,6.789,0,0,0,3.106,0ZM31,50a5.006,5.006,0,0,1-5-5V42.441a1,1,0,0,1,.684-.949l2.908-.969a5.993,5.993,0,0,0,2.422.861l3.11.389a1,1,0,0,1,.876.993V45A5.006,5.006,0,0,1,31,50Zm-5.457,7.272a4.091,4.091,0,0,1,2.222-3.094l1.165,1.165L28.153,60h-3ZM30.847,56h.306l.667,4H30.18Zm2.224-.657,1.165-1.165a4.1,4.1,0,0,1,2.222,3.094L36.847,60h-3ZM38,45V44h1a1,1,0,0,1,0,2H37.92A7.026,7.026,0,0,0,38,45ZM25.392,18.12,23.88,16.608A3.008,3.008,0,0,0,22,12.069V9.931a3.008,3.008,0,0,0,1.88-4.539L25.392,3.88a2.95,2.95,0,0,0,2.756.235A2.946,2.946,0,0,0,29.931,2H32.07a2.946,2.946,0,0,0,1.783,2.115,2.944,2.944,0,0,0,2.756-.235l1.512,1.512A3.009,3.009,0,0,0,40,9.931V12.07a3.008,3.008,0,0,0-1.88,4.539l-1.512,1.512A3.008,3.008,0,0,0,32.069,20H29.93a3.009,3.009,0,0,0-4.538-1.881ZM30,22h2V32H30ZM28,34h4.172a7.883,7.883,0,0,0,4.572-1.477A10.875,10.875,0,0,1,38,37.6V42h-.112a3,3,0,0,0-2.516-2.211l-3.11-.389a4.042,4.042,0,0,1-3.313-2.717l-1.9.633a5.931,5.931,0,0,0,.862,1.658l-1.863.621A3,3,0,0,0,24.036,42H24V38A4,4,0,0,1,28,34ZM23,44h1v1a7.026,7.026,0,0,0,.08,1H23a1,1,0,1,1,0-2ZM11,34a7.009,7.009,0,0,1,7,7v1h-.112a3,3,0,0,0-2.516-2.211l-3.11-.389a4.042,4.042,0,0,1-3.313-2.717l-1.9.633a5.931,5.931,0,0,0,.862,1.658L6.052,39.6A3,3,0,0,0,4.035,42H4V41a7.009,7.009,0,0,1,7-7ZM3,46a1,1,0,1,1,0-2H4v1a7.026,7.026,0,0,0,.08,1Zm3-1V42.441a1,1,0,0,1,.684-.949l2.908-.969a5.993,5.993,0,0,0,2.422.861l3.11.389a1,1,0,0,1,.876.993V45A5,5,0,0,1,6,45Zm5,7a6.976,6.976,0,0,0,1.553-.18l.3.91L11.586,54H10.414l-1.27-1.27.3-.91A6.976,6.976,0,0,0,11,52ZM5.543,57.272a4.091,4.091,0,0,1,2.222-3.094L8.93,55.343,8.153,60h-3ZM52,60V55.535l2.114-1.409a4.087,4.087,0,0,1,2.343,3.147L56.847,60Zm2.8-7.766L54.421,51.1A7,7,0,0,0,58,45V42.766a3,3,0,0,0-2.628-2.977l-3.11-.389a4.042,4.042,0,0,1-3.313-2.717l-1.9.633a5.931,5.931,0,0,0,.862,1.658l-1.863.621A3,3,0,0,0,44,42.441V45a7,7,0,0,0,3.579,6.1L47.2,52.235a6.074,6.074,0,0,0-2.275,1.7A9.349,9.349,0,0,1,42,47.169V43a9,9,0,1,1,18,0v4.17a9.342,9.342,0,0,1-2.927,6.768,6.092,6.092,0,0,0-2.274-1.7Z"/>
        <path id="Trazado_1083575" data-name="Trazado 1083575" d="M34,11a3,3,0,1,0-3,3A3,3,0,0,0,34,11Zm-4,0a1,1,0,1,1,1,1A1,1,0,0,1,30,11Z"/>
        <path id="Trazado_1083576" data-name="Trazado 1083576" d="M38,11a7,7,0,1,0-7,7A7.009,7.009,0,0,0,38,11ZM26,11a5,5,0,1,1,5,5A5.006,5.006,0,0,1,26,11Z"/>
      </g>
    </g>
  </g>
</svg>
