<svg xmlns="http://www.w3.org/2000/svg" xmlns:xlink="http://www.w3.org/1999/xlink" width="108" height="108" viewBox="0 0 108 108">
  <defs>
    <filter id="Trazado_978624" x="0" y="0" width="108" height="108" filterUnits="userSpaceOnUse">
      <feOffset dy="3" input="SourceAlpha"/>
      <feGaussianBlur stdDeviation="3" result="blur"/>
      <feFlood flood-opacity="0.161"/>
      <feComposite operator="in" in2="blur"/>
      <feComposite in="SourceGraphic"/>
    </filter>
    <filter id="Trazado_1076716" x="0" y="0" width="108" height="108" filterUnits="userSpaceOnUse">
      <feOffset dy="3" input="SourceAlpha"/>
      <feGaussianBlur stdDeviation="3" result="blur-2"/>
      <feFlood flood-opacity="0.161"/>
      <feComposite operator="in" in2="blur-2"/>
      <feComposite in="SourceGraphic"/>
    </filter>
  </defs>
  <g id="Grupo_1210465" data-name="Grupo 1210465" transform="translate(-195.5 -3126)">
    <g id="Grupo_1209740" data-name="Grupo 1209740" transform="translate(204.5 3132)">
      <g id="Grupo_1208075" data-name="Grupo 1208075" transform="translate(0)">
        <g id="Grupo_1181203" data-name="Grupo 1181203">
          <g id="Grupo_1172348" data-name="Grupo 1172348">
            <g id="Grupo_1171897" data-name="Grupo 1171897">
              <g id="Grupo_1171052" data-name="Grupo 1171052">
                <g id="Grupo_1164581" data-name="Grupo 1164581">
                  <g id="Grupo_1144123" data-name="Grupo 1144123">
                    <g transform="matrix(1, 0, 0, 1, -9, -6)" filter="url(#Trazado_978624)">
                      <g id="Trazado_978624-2" data-name="Trazado 978624" transform="translate(9 6)" fill="#edeef2">
                        <path d="M 45 88.5 C 39.12687683105469 88.5 33.43022537231445 87.35007476806641 28.06830024719238 85.08217620849609 C 22.88852500915527 82.89131164550781 18.23629951477051 79.75458526611328 14.2408504486084 75.75914764404297 C 10.24541282653809 71.76370239257812 7.108687400817871 67.11147308349609 4.917825222015381 61.93170166015625 C 2.649924993515015 56.56977462768555 1.5 50.87312316894531 1.5 45 C 1.5 39.12687683105469 2.649924993515015 33.43022537231445 4.917825222015381 28.06830024719238 C 7.108687400817871 22.88852500915527 10.24541282653809 18.23629951477051 14.2408504486084 14.2408504486084 C 18.23629951477051 10.24541282653809 22.88852500915527 7.108687400817871 28.06830024719238 4.917825222015381 C 33.43022537231445 2.649924993515015 39.12687683105469 1.5 45 1.5 C 50.87312316894531 1.5 56.56977462768555 2.649924993515015 61.93170166015625 4.917825222015381 C 67.11147308349609 7.108687400817871 71.76370239257812 10.24541282653809 75.75914764404297 14.2408504486084 C 79.75458526611328 18.23629951477051 82.89131164550781 22.88852500915527 85.08217620849609 28.06830024719238 C 87.35007476806641 33.43022537231445 88.5 39.12687683105469 88.5 45 C 88.5 50.87312316894531 87.35007476806641 56.56977462768555 85.08217620849609 61.93170166015625 C 82.89131164550781 67.11147308349609 79.75458526611328 71.76370239257812 75.75914764404297 75.75914764404297 C 71.76370239257812 79.75458526611328 67.11147308349609 82.89131164550781 61.93170166015625 85.08217620849609 C 56.56977462768555 87.35007476806641 50.87312316894531 88.5 45 88.5 Z" stroke="none"/>
                        <path d="M 45 3 C 39.32871246337891 3 33.82865524291992 4.110054016113281 28.65262985229492 6.299339294433594 C 23.65165710449219 8.414573669433594 19.15968322753906 11.44334411621094 15.301513671875 15.301513671875 C 11.44334411621094 19.15968322753906 8.414573669433594 23.65165710449219 6.299339294433594 28.65262985229492 C 4.110054016113281 33.82865524291992 3 39.32871246337891 3 45 C 3 50.67128753662109 4.110054016113281 56.17134475708008 6.299339294433594 61.34737396240234 C 8.414573669433594 66.34834289550781 11.44334411621094 70.84031677246094 15.301513671875 74.698486328125 C 19.15968322753906 78.55665588378906 23.65165710449219 81.58542633056641 28.65262985229492 83.70066070556641 C 33.82865524291992 85.88994598388672 39.32871246337891 87 45 87 C 50.67128753662109 87 56.17134475708008 85.88994598388672 61.34737396240234 83.70066070556641 C 66.34834289550781 81.58542633056641 70.84031677246094 78.55665588378906 74.698486328125 74.698486328125 C 78.55665588378906 70.84031677246094 81.58542633056641 66.34834289550781 83.70066070556641 61.34737396240234 C 85.88994598388672 56.17134475708008 87 50.67128753662109 87 45 C 87 39.32871246337891 85.88994598388672 33.82865524291992 83.70066070556641 28.65262985229492 C 81.58542633056641 23.65165710449219 78.55665588378906 19.15968322753906 74.698486328125 15.301513671875 C 70.84031677246094 11.44334411621094 66.34834289550781 8.414573669433594 61.34737396240234 6.299339294433594 C 56.17134475708008 4.110054016113281 50.67128753662109 3 45 3 M 45 0 C 69.85281372070312 0 90 20.14718627929688 90 45 C 90 69.85281372070312 69.85281372070312 90 45 90 C 20.14718627929688 90 0 69.85281372070312 0 45 C 0 20.14718627929688 20.14718627929688 0 45 0 Z" stroke="none" fill="#56678d"/>
                      </g>
                    </g>
                    <g transform="matrix(1, 0, 0, 1, -9, -6)" filter="url(#Trazado_1076716)">
                      <g id="Trazado_1076716-2" data-name="Trazado 1076716" transform="translate(9 6)" fill="#edeef2">
                        <path d="M 45 88.5 C 39.12687683105469 88.5 33.43022537231445 87.35007476806641 28.06830024719238 85.08217620849609 C 22.88852500915527 82.89131164550781 18.23629951477051 79.75458526611328 14.2408504486084 75.75914764404297 C 10.24541282653809 71.76370239257812 7.108687400817871 67.11147308349609 4.917825222015381 61.93170166015625 C 2.649924993515015 56.56977462768555 1.5 50.87312316894531 1.5 45 C 1.5 39.12687683105469 2.649924993515015 33.43022537231445 4.917825222015381 28.06830024719238 C 7.108687400817871 22.88852500915527 10.24541282653809 18.23629951477051 14.2408504486084 14.2408504486084 C 18.23629951477051 10.24541282653809 22.88852500915527 7.108687400817871 28.06830024719238 4.917825222015381 C 33.43022537231445 2.649924993515015 39.12687683105469 1.5 45 1.5 C 50.87312316894531 1.5 56.56977462768555 2.649924993515015 61.93170166015625 4.917825222015381 C 67.11147308349609 7.108687400817871 71.76370239257812 10.24541282653809 75.75914764404297 14.2408504486084 C 79.75458526611328 18.23629951477051 82.89131164550781 22.88852500915527 85.08217620849609 28.06830024719238 C 87.35007476806641 33.43022537231445 88.5 39.12687683105469 88.5 45 C 88.5 50.87312316894531 87.35007476806641 56.56977462768555 85.08217620849609 61.93170166015625 C 82.89131164550781 67.11147308349609 79.75458526611328 71.76370239257812 75.75914764404297 75.75914764404297 C 71.76370239257812 79.75458526611328 67.11147308349609 82.89131164550781 61.93170166015625 85.08217620849609 C 56.56977462768555 87.35007476806641 50.87312316894531 88.5 45 88.5 Z" stroke="none"/>
                        <path d="M 45 3 C 39.32871246337891 3 33.82865524291992 4.110054016113281 28.65262985229492 6.299339294433594 C 23.65165710449219 8.414573669433594 19.15968322753906 11.44334411621094 15.301513671875 15.301513671875 C 11.44334411621094 19.15968322753906 8.414573669433594 23.65165710449219 6.299339294433594 28.65262985229492 C 4.110054016113281 33.82865524291992 3 39.32871246337891 3 45 C 3 50.67128753662109 4.110054016113281 56.17134475708008 6.299339294433594 61.34737396240234 C 8.414573669433594 66.34834289550781 11.44334411621094 70.84031677246094 15.301513671875 74.698486328125 C 19.15968322753906 78.55665588378906 23.65165710449219 81.58542633056641 28.65262985229492 83.70066070556641 C 33.82865524291992 85.88994598388672 39.32871246337891 87 45 87 C 50.67128753662109 87 56.17134475708008 85.88994598388672 61.34737396240234 83.70066070556641 C 66.34834289550781 81.58542633056641 70.84031677246094 78.55665588378906 74.698486328125 74.698486328125 C 78.55665588378906 70.84031677246094 81.58542633056641 66.34834289550781 83.70066070556641 61.34737396240234 C 85.88994598388672 56.17134475708008 87 50.67128753662109 87 45 C 87 39.32871246337891 85.88994598388672 33.82865524291992 83.70066070556641 28.65262985229492 C 81.58542633056641 23.65165710449219 78.55665588378906 19.15968322753906 74.698486328125 15.301513671875 C 70.84031677246094 11.44334411621094 66.34834289550781 8.414573669433594 61.34737396240234 6.299339294433594 C 56.17134475708008 4.110054016113281 50.67128753662109 3 45 3 M 45 0 C 69.85281372070312 0 90 20.14718627929688 90 45 C 90 69.85281372070312 69.85281372070312 90 45 90 C 20.14718627929688 90 0 69.85281372070312 0 45 C 0 20.14718627929688 20.14718627929688 0 45 0 Z" stroke="none" fill="#56678d"/>
                      </g>
                    </g>
                  </g>
                </g>
              </g>
            </g>
          </g>
        </g>
      </g>
    </g>
    <g id="delito" transform="translate(214.245 3136.053)">
      <g id="Grupo_1210463" data-name="Grupo 1210463" transform="translate(1.108 11.565)">
        <g id="Grupo_1210462" data-name="Grupo 1210462" transform="translate(0 0)">
          <path id="Trazado_1080723" data-name="Trazado 1080723" d="M25.05,183.093a17.55,17.55,0,1,0,17.55,17.55A17.55,17.55,0,0,0,25.05,183.093Zm0,29.217a11.667,11.667,0,1,1,11.667-11.667A11.68,11.68,0,0,1,25.05,212.31Z" transform="translate(-7.5 -161.693)" fill="#cbc4cc"/>
          <path id="Trazado_1080724" data-name="Trazado 1080724" d="M16.977,145.5v4.755a1.467,1.467,0,0,1-.724,1.27,17.554,17.554,0,0,0,5.3,32.389,2.943,2.943,0,0,0,1.143-5.773A11.687,11.687,0,0,1,13.383,166.6,11.854,11.854,0,0,1,25.2,155.05h3.874A4.051,4.051,0,0,0,33.123,151v-5.5a2.216,2.216,0,0,0-2.216-2.216H19.193A2.216,2.216,0,0,0,16.977,145.5Z" transform="translate(-7.5 -127.767)" fill="#e2dee2"/>
          <path id="Trazado_1080725" data-name="Trazado 1080725" d="M113.152,102.135a2.281,2.281,0,0,1-2.281-2.281V93.009a2.281,2.281,0,0,1,4.563,0v6.845A2.281,2.281,0,0,1,113.152,102.135Z" transform="translate(-95.602 -82.971)" fill="#cbc4cc"/>
          <path id="Trazado_1080726" data-name="Trazado 1080726" d="M113.258,90.757v6.912a2.281,2.281,0,0,1-2.281,2.281c-.027,0-.054,0-.082,0a2.28,2.28,0,0,0,4.56-.068V93.034A2.28,2.28,0,0,0,113.258,90.757Z" transform="translate(-95.623 -82.995)" fill="#b5adb6"/>
          <path id="Trazado_1080727" data-name="Trazado 1080727" d="M166.769,40.491a2.281,2.281,0,0,1,2.281-2.281H175.9a2.281,2.281,0,1,1,0,4.563H169.05A2.281,2.281,0,0,1,166.769,40.491Z" transform="translate(-143.244 -38.21)" fill="#cbc4cc"/>
          <path id="Trazado_1080728" data-name="Trazado 1080728" d="M176,38.229c0,.06.009.119.009.18a2.281,2.281,0,0,1-2.281,2.281h-6.9a2.28,2.28,0,0,0,2.272,2.1h6.845a2.28,2.28,0,0,0,.057-4.56Z" transform="translate(-143.297 -38.226)" fill="#b5adb6"/>
          <g id="Grupo_1210461" data-name="Grupo 1210461" transform="translate(38.31 26.869)">
            <path id="Trazado_1080729" data-name="Trazado 1080729" d="M284.415,259.919a17.55,17.55,0,1,0,17.55,17.55A17.55,17.55,0,0,0,284.415,259.919Zm0,29.217a11.667,11.667,0,1,1,11.667-11.667A11.68,11.68,0,0,1,284.415,289.136Z" transform="translate(-266.865 -254.04)" fill="#cbc4cc"/>
            <path id="Trazado_1080730" data-name="Trazado 1080730" d="M276.342,222.331v4.755a1.466,1.466,0,0,1-.724,1.27,17.554,17.554,0,0,0,5.3,32.389,2.942,2.942,0,0,0,1.143-5.773,11.687,11.687,0,0,1-9.309-11.543,11.854,11.854,0,0,1,11.816-11.552h3.874a4.051,4.051,0,0,0,4.051-4.051v-5.5a2.216,2.216,0,0,0-2.216-2.216H278.558a2.216,2.216,0,0,0-2.216,2.216Z" transform="translate(-266.865 -220.115)" fill="#e2dee2"/>
          </g>
          <path id="Trazado_1080731" data-name="Trazado 1080731" d="M299.879,63.526a2.282,2.282,0,0,1,3.227,0l4.84,4.84a2.281,2.281,0,1,1-3.227,3.227l-4.84-4.84A2.282,2.282,0,0,1,299.879,63.526Z" transform="translate(-256.123 -59.217)" fill="#cbc4cc"/>
          <path id="Trazado_1080732" data-name="Trazado 1080732" d="M331.35,91.754,329.895,90.3a2.614,2.614,0,0,1-3.224,3.229l1.452,1.452a2.282,2.282,0,0,0,3.227-3.227Z" transform="translate(-279.527 -82.605)" fill="#b5adb6"/>
          <path id="Trazado_1080733" data-name="Trazado 1080733" d="M372.518,178.962a2.282,2.282,0,0,1-2.281-2.281v-6.845a2.281,2.281,0,0,1,4.563,0v6.845A2.281,2.281,0,0,1,372.518,178.962Z" transform="translate(-316.658 -148.449)" fill="#cbc4cc"/>
          <path id="Trazado_1080734" data-name="Trazado 1080734" d="M372.723,167.615v6.933a2.282,2.282,0,0,1-2.281,2.282c-.059,0-.116,0-.174-.009a2.28,2.28,0,0,0,4.558-.089v-6.845A2.28,2.28,0,0,0,372.723,167.615Z" transform="translate(-316.684 -148.501)" fill="#b5adb6"/>
        </g>
      </g>
      <g id="Grupo_1210464" data-name="Grupo 1210464" transform="translate(0 6.947)">
        <path id="Trazado_1080735" data-name="Trazado 1080735" d="M353.608,262.27h.141a1.108,1.108,0,1,0,0-2.216h-.141a1.108,1.108,0,1,0,0,2.216Z" transform="translate(-300.434 -222.668)"/>
        <path id="Trazado_1080736" data-name="Trazado 1080736" d="M404.022,262.27h.141a1.108,1.108,0,1,0,0-2.216h-.141a1.108,1.108,0,0,0,0,2.216Z" transform="translate(-343.401 -222.668)"/>
        <path id="Trazado_1080737" data-name="Trazado 1080737" d="M94.382,185.444a1.108,1.108,0,0,0,0-2.216h-.141a1.108,1.108,0,0,0,0,2.216Z" transform="translate(-79.378 -157.19)"/>
        <path id="Trazado_1080738" data-name="Trazado 1080738" d="M144.8,185.444a1.108,1.108,0,0,0,0-2.216h-.14a1.108,1.108,0,0,0,0,2.216Z" transform="translate(-122.346 -157.19)"/>
        <path id="Trazado_1080739" data-name="Trazado 1080739" d="M66.148,45.617V40.649a3.327,3.327,0,0,0-3.323-3.323H60.357V33.92A6.895,6.895,0,0,0,61.8,23.057l-2.42-2.42a6.894,6.894,0,0,0-6.732-1.768l-3.086-3.086a6.9,6.9,0,0,0-6.622-8.836H39.523a6.884,6.884,0,0,0-6.011,3.51H26.876A6.9,6.9,0,0,0,16.3,9.469l-2.42,2.42a6.9,6.9,0,0,0,1.39,10.83v3.259H12.8A3.327,3.327,0,0,0,9.477,29.3v4.755a.359.359,0,0,1-.172.312,18.66,18.66,0,0,0-4.981,28.09,1.108,1.108,0,0,0,1.7-1.419,16.444,16.444,0,0,1,4.392-24.755,2.581,2.581,0,0,0,1.276-2.228V29.3A1.109,1.109,0,0,1,12.8,28.194h2.468v.255a3.389,3.389,0,1,0,6.779,0v-.255h2.468A1.109,1.109,0,0,1,25.623,29.3v5.5A2.946,2.946,0,0,1,22.68,37.74H18.807l-.078,0h-.005a12.914,12.914,0,0,0-8.957,3.7,12.59,12.59,0,0,0-3.883,8.943A12.8,12.8,0,0,0,16.076,63.028a1.838,1.838,0,0,1,.8,3.228,1.79,1.79,0,0,1-1.495.374,16.282,16.282,0,0,1-5.735-2.364,1.108,1.108,0,0,0-1.217,1.852A18.487,18.487,0,0,0,14.937,68.8l.029.005A18.67,18.67,0,0,0,37.315,50.515a18.586,18.586,0,0,0-1.189-6.563,1.108,1.108,0,0,0-2.074.78A16.448,16.448,0,0,1,19.168,66.949a4.05,4.05,0,0,0,.6-2.123,4,4,0,0,0-.32-1.561,12.767,12.767,0,0,0,5.522-23.846,5.188,5.188,0,0,0,2.525-2.77A16.646,16.646,0,0,1,31.7,40.5a1.108,1.108,0,1,0,1.756-1.351,18.867,18.867,0,0,0-5.614-4.876V29.3a3.327,3.327,0,0,0-3.323-3.323H22.047V22.832a6.87,6.87,0,0,0,1.588-1.186l2.42-2.42a6.927,6.927,0,0,0,1.386-1.99h6.07a6.884,6.884,0,0,0,6.011,3.51h3.422a6.872,6.872,0,0,0,1.766-.231l3.149,3.149a6.893,6.893,0,0,0,1.768,6.732l2.42,2.42a6.865,6.865,0,0,0,1.531,1.153v3.358H51.11a3.327,3.327,0,0,0-3.323,3.323V45.4a.359.359,0,0,1-.172.312,18.662,18.662,0,0,0,5.633,34.433l.04.007A18.661,18.661,0,0,0,66.148,45.617Zm-36.931,4.9a10.56,10.56,0,1,1-21.119-.1,10.391,10.391,0,0,1,3.212-7.376,10.711,10.711,0,0,1,7.416-3.077,10.584,10.584,0,0,1,10.49,10.558ZM19.832,28.448a1.174,1.174,0,0,1-2.347,0V21.6a1.174,1.174,0,0,1,2.347,0Zm4.657-10.789-2.42,2.42c-.087.087-.178.17-.271.249a3.388,3.388,0,0,0-6.222-.131c-.043-.04-.088-.077-.13-.119a4.684,4.684,0,0,1,0-6.624l2.42-2.42a4.684,4.684,0,0,1,6.624,0c.077.077.15.157.222.239a3.385,3.385,0,0,0,.48,5.488A4.663,4.663,0,0,1,24.489,17.659Zm9.27-2.639H26.914a1.174,1.174,0,1,1,0-2.347h6.845a1.174,1.174,0,1,1,0,2.347Zm10.321.07a3.391,3.391,0,0,0-.829,3.428c-.1.007-.2.011-.307.011H39.522a4.674,4.674,0,0,1-3.79-1.931,3.384,3.384,0,0,0,0-5.506,4.673,4.673,0,0,1,3.79-1.931h3.422a4.689,4.689,0,0,1,4.684,4.684q0,.227-.022.45a3.39,3.39,0,0,0-3.526.794Zm1.567,3.226a1.174,1.174,0,0,1,1.66-1.66l4.84,4.84a1.174,1.174,0,1,1-1.66,1.66Zm5.547,10.511a4.678,4.678,0,0,1-1.368-3.461,3.385,3.385,0,0,0,4.533-4.531,4.678,4.678,0,0,1,3.46,1.368l2.42,2.42a4.689,4.689,0,0,1,0,6.624c-.074.074-.15.143-.228.212a3.388,3.388,0,0,0-6.109.051c-.1-.084-.195-.171-.287-.263Zm6.948,4.123V39.8a1.174,1.174,0,1,1-2.347,0V32.951a1.174,1.174,0,0,1,2.347,0ZM55.182,77.6a1.792,1.792,0,0,1-1.495.374,16.447,16.447,0,0,1-4.96-30.346A2.581,2.581,0,0,0,50,45.4V40.649a1.109,1.109,0,0,1,1.108-1.108h2.468V39.8a3.389,3.389,0,1,0,6.779,0v-.255h2.468a1.109,1.109,0,0,1,1.108,1.108v5.5a2.946,2.946,0,0,1-2.943,2.943l-3.952,0h0a12.914,12.914,0,0,0-8.96,3.7,12.591,12.591,0,0,0-3.883,8.943A12.8,12.8,0,0,0,54.3,74.356h0l.08.018h0a1.839,1.839,0,0,1,.8,3.228Zm2.3.693a4.05,4.05,0,0,0,.6-2.123,4,4,0,0,0-.321-1.563,12.787,12.787,0,0,0,11.669-9.918,1.108,1.108,0,0,0-2.161-.491,10.558,10.558,0,0,1-20.854-2.444,10.391,10.391,0,0,1,3.212-7.376A10.711,10.711,0,0,1,57.037,51.3a10.429,10.429,0,0,1,6.582,2.366,10.622,10.622,0,0,1,3.643,5.852,1.108,1.108,0,0,0,2.161-.491,12.846,12.846,0,0,0-4.4-7.079,12.7,12.7,0,0,0-1.737-1.188A5.19,5.19,0,0,0,65.8,48a16.442,16.442,0,0,1-8.326,30.3Z" transform="translate(0 -6.947)"/>
      </g>
    </g>
  </g>
</svg>
