<svg xmlns="http://www.w3.org/2000/svg" width="85" height="103" viewBox="0 0 85 103">
  <g id="Grupo_1211572" data-name="Grupo 1211572" transform="translate(-180 -3934)">
    <rect id="Rectángulo_419010" data-name="Rectángulo 419010" width="54" height="103" transform="translate(211 3934)" fill="#e9e0cc"/>
    <g id="Grupo_1210476" data-name="Grupo 1210476" transform="translate(12.808 13.287)">
      <g id="Grupo_1210475" data-name="Grupo 1210475" transform="translate(167.192 3939.31)">
        <g id="derecho-civil" transform="translate(0 0)">
          <g id="Grupo_1210474" data-name="Grupo 1210474" transform="translate(1.236 1.236)">
            <g id="Grupo_1210466" data-name="Grupo 1210466" transform="translate(1.538 8.048)">
              <path id="Trazado_1080740" data-name="Trazado 1080740" d="M93.6,60.48h-74.7a2.079,2.079,0,1,1,0-4.158H93.6a2.079,2.079,0,1,1,0,4.158Z" transform="translate(-16.829 -56.322)" fill="#ffd52b"/>
            </g>
            <g id="Grupo_1210470" data-name="Grupo 1210470" transform="translate(27.37)">
              <g id="Grupo_1210468" data-name="Grupo 1210468">
                <g id="Grupo_1210467" data-name="Grupo 1210467">
                  <path id="Trazado_1080741" data-name="Trazado 1080741" d="M202.8,81.517H173.531V95.785a13.459,13.459,0,0,0,2.142,7.285,11.325,11.325,0,0,1,2.142,6.3v41.877h18.524V109.277a9.529,9.529,0,0,1,2.8-6.742l2.573-2.57a14.552,14.552,0,0,0,4.27-10.3V84.686A3.171,3.171,0,0,0,202.8,81.517Z" transform="translate(-173.531 -69.315)" fill="#e68d35"/>
                  <path id="Trazado_1080742" data-name="Trazado 1080742" d="M256.075,24.387a3.174,3.174,0,0,1-5.58-2.067V10.67a3.173,3.173,0,0,1,6.347,0V23.49" transform="translate(-237.808 -7.5)" fill="#e68d35"/>
                  <path id="Trazado_1080743" data-name="Trazado 1080743" d="M261.393,7.5a3.156,3.156,0,0,0-1.648.465,3.164,3.164,0,0,1,1.525,2.705V22.31a3.2,3.2,0,0,1-1.522,2.718,3.167,3.167,0,0,0,4.052-.641l.767-.9V10.67a3.172,3.172,0,0,0-3.173-3.17Z" transform="translate(-245.533 -7.5)" fill="#d47619"/>
                  <path id="Trazado_1080744" data-name="Trazado 1080744" d="M295.321,24.991h-6.343a0,0,0,0,1,0,0V17.007a3.173,3.173,0,1,1,6.347,0v7.982A0,0,0,0,1,295.321,24.991Z" transform="translate(-269.945 -12.79)" fill="#e68d35"/>
                  <path id="Trazado_1080745" data-name="Trazado 1080745" d="M299.875,13.833a3.154,3.154,0,0,0-1.648.466,3.168,3.168,0,0,1,1.525,2.708v7.982a0,0,0,0,1,0,0h3.3a0,0,0,0,0,0,0V17.007A3.173,3.173,0,0,0,299.875,13.833Z" transform="translate(-277.671 -12.789)" fill="#d47619"/>
                  <path id="Trazado_1080746" data-name="Trazado 1080746" d="M189.7,89.7a9.593,9.593,0,0,1,9.6-9.588v-2.43H196.08a5.311,5.311,0,0,1-5.314-5.308,1.032,1.032,0,0,1,1.032-1.031H202.8a3.171,3.171,0,0,1,3.173,3.169V79.5a14.551,14.551,0,0,1-4.27,10.3l-2.573,2.57a9.529,9.529,0,0,0-2.8,6.742v41.969H177.815V99.2a11.326,11.326,0,0,0-2.142-6.3,13.459,13.459,0,0,1-2.142-7.284V69.34" transform="translate(-173.531 -59.146)" fill="none"/>
                  <path id="Trazado_1080747" data-name="Trazado 1080747" d="M176.7,36.025a3.173,3.173,0,0,1-3.173-3.173V26.139a3.173,3.173,0,0,1,6.347,0v6.712A3.173,3.173,0,0,1,176.7,36.025Z" transform="translate(-173.531 -20.416)" fill="#e68d35"/>
                  <path id="Trazado_1080748" data-name="Trazado 1080748" d="M184.429,22.966a3.154,3.154,0,0,0-1.648.466,3.168,3.168,0,0,1,1.525,2.708v6.712a3.168,3.168,0,0,1-1.525,2.708,3.169,3.169,0,0,0,4.822-2.708V26.139A3.173,3.173,0,0,0,184.429,22.966Z" transform="translate(-181.256 -20.416)" fill="#d47619"/>
                  <path id="Trazado_1080749" data-name="Trazado 1080749" d="M215.186,29.9a3.173,3.173,0,0,1-3.173-3.173V17.007a3.173,3.173,0,0,1,6.347,0v9.723A3.173,3.173,0,0,1,215.186,29.9Z" transform="translate(-205.669 -12.79)" fill="#e68d35"/>
                  <path id="Trazado_1080750" data-name="Trazado 1080750" d="M222.911,13.833a3.154,3.154,0,0,0-1.648.466,3.168,3.168,0,0,1,1.525,2.708V26.73a3.168,3.168,0,0,1-1.525,2.708,3.169,3.169,0,0,0,4.822-2.708V17.007A3.173,3.173,0,0,0,222.911,13.833Z" transform="translate(-213.394 -12.789)" fill="#d47619"/>
                </g>
              </g>
              <g id="Grupo_1210469" data-name="Grupo 1210469" transform="translate(2.061 41.905)">
                <path id="Trazado_1080751" data-name="Trazado 1080751" d="M186.032,287.16H209.1v35.828H186.032Z" transform="translate(-186.032 -282.964)" fill="#6deba9"/>
                <path id="Trazado_1080752" data-name="Trazado 1080752" d="M285.969,287.16h6.594v35.828h-6.594Z" transform="translate(-269.495 -282.964)" fill="#49de90"/>
                <path id="Trazado_1080753" data-name="Trazado 1080753" d="M186.032,261.705H209.1v8.175H186.032Z" transform="translate(-186.032 -261.705)" fill="#1caf6c"/>
                <path id="Trazado_1080754" data-name="Trazado 1080754" d="M285.969,261.705h6.594v8.175h-6.594Z" transform="translate(-269.495 -261.705)" fill="#0ea05e"/>
              </g>
              <path id="Trazado_1080755" data-name="Trazado 1080755" d="M278.079,82.548a1.032,1.032,0,0,1,1.032-1.031h11.007l-3.51,6.339h-3.215A5.311,5.311,0,0,1,278.079,82.548Z" transform="translate(-260.844 -69.315)" fill="#e68d35"/>
            </g>
            <g id="Grupo_1210471" data-name="Grupo 1210471" transform="translate(0 34.431)">
              <ellipse id="Elipse_11889" data-name="Elipse 11889" cx="3.734" cy="3.73" rx="3.734" ry="3.73" transform="translate(12.761)" fill="#ffd52b"/>
              <path id="Trazado_1080756" data-name="Trazado 1080756" d="M33.473,384.768H14.518A7.018,7.018,0,0,1,7.5,377.75H40.49A7.018,7.018,0,0,1,33.473,384.768Z" transform="translate(-7.5 -351.146)" fill="#ffd52b"/>
              <path id="Trazado_1080757" data-name="Trazado 1080757" d="M132.073,377.75a7.018,7.018,0,0,1-7.018,7.018h6.594a7.018,7.018,0,0,0,7.018-7.017h-6.594Z" transform="translate(-105.676 -351.146)" fill="#fcca00"/>
            </g>
            <g id="Grupo_1210473" data-name="Grupo 1210473" transform="translate(48.939 34.431)">
              <g id="Grupo_1210472" data-name="Grupo 1210472" transform="translate(12.761)">
                <ellipse id="Elipse_11890" data-name="Elipse 11890" cx="3.734" cy="3.73" rx="3.734" ry="3.73" fill="#ffd52b"/>
              </g>
              <path id="Trazado_1080758" data-name="Trazado 1080758" d="M311.392,384.768h18.955a7.018,7.018,0,0,0,7.018-7.018h-32.99A7.018,7.018,0,0,0,311.392,384.768Z" transform="translate(-304.375 -351.146)" fill="#ffd52b"/>
              <path id="Trazado_1080759" data-name="Trazado 1080759" d="M428.948,377.75a7.018,7.018,0,0,1-7.018,7.018h6.594a7.018,7.018,0,0,0,7.018-7.017h-6.594Z" transform="translate(-402.551 -351.146)" fill="#fcca00"/>
            </g>
          </g>
          <path id="Trazado_1080760" data-name="Trazado 1080760" d="M83.166,81.93H54.972V70.219a8.229,8.229,0,0,0,2.222.306H76.149A8.263,8.263,0,0,0,84.4,62.272a1.236,1.236,0,0,0-1.236-1.236H79.755L70.043,43.041a4.962,4.962,0,0,0-2.136-8.455V14.679h3.07v.691a1.237,1.237,0,0,0,2.473,0v-.691h6.1c4.256,0,4.262-6.631,0-6.631h-6.1V6.8a1.237,1.237,0,0,0-2.473,0V8.048h-3.07V6.8a1.237,1.237,0,0,0-2.473,0V8.048H55.221V5.454a4.406,4.406,0,0,0-7.09-3.5,4.408,4.408,0,0,0-7.326,0A4.4,4.4,0,0,0,34.266,3.32a4.407,4.407,0,0,0-6.9,3.64V8.048h-8.4V6.8a1.237,1.237,0,0,0-2.473,0V8.048h-3.07V6.8a1.237,1.237,0,0,0-2.473,0V8.048h-6.1c-4.256,0-4.262,6.631,0,6.631h6.1v.691a1.237,1.237,0,0,0,2.473,0V14.68H16.5V34.587a4.962,4.962,0,0,0-2.135,8.455L4.647,61.035H1.236A1.236,1.236,0,0,0,0,62.272a8.263,8.263,0,0,0,8.254,8.254H27.209a8.229,8.229,0,0,0,2.222-.306V81.93H1.236a1.236,1.236,0,0,0,0,2.473h81.93a1.236,1.236,0,1,0,0-2.473ZM76.945,61.035H74.459a1.236,1.236,0,1,0,0,2.473H81.8a5.791,5.791,0,0,1-5.648,4.545H57.193a5.791,5.791,0,0,1-5.648-4.545H67.877V61.035H56.4l9.078-16.818a4.96,4.96,0,0,0,2.393,0ZM31.9,44.378H52.5v5.7H31.9ZM69.168,39.4a2.5,2.5,0,1,1-2.5-2.494A2.5,2.5,0,0,1,69.168,39.4Zm-3.734-4.811A4.962,4.962,0,0,0,63.3,43.041L54.972,58.469V43.142a1.236,1.236,0,0,0-1.236-1.236H52.651a8.623,8.623,0,0,1,2.433-6.575C59,31.417,62.29,27.471,62.29,21.589V16.607a4.374,4.374,0,0,0-.445-1.928h3.59V34.586ZM79.549,10.521a.843.843,0,0,1,0,1.686h-6.1V10.521Zm-8.572,0v1.686h-3.07V10.521Zm-5.542,0v1.686L55.221,12.2V10.521Zm-14.624-7a1.939,1.939,0,0,1,1.937,1.937V12.2H48.877V5.392A1.938,1.938,0,0,1,50.811,3.517ZM44.467,2.473A1.938,1.938,0,0,1,46.4,4.407l0,7.845a2.271,2.271,0,0,0-1.8,2.217,6.5,6.5,0,0,0,.864,3.243,1.953,1.953,0,0,1-2.939-1.654V4.407a1.938,1.938,0,0,1,1.937-1.934ZM38.123,3.517a1.938,1.938,0,0,1,1.934,1.875v9.847a1.936,1.936,0,0,1-3.871-.062V5.454A1.939,1.939,0,0,1,38.123,3.517ZM29.843,6.959A1.936,1.936,0,0,1,33.714,6.9v6.836a1.936,1.936,0,0,1-3.871-.062ZM27.37,10.521v1.686h-8.4V10.521ZM4.854,12.207a.843.843,0,0,1,0-1.686h6.1v1.686Zm8.572,0V10.521H16.5v1.686h-3.07ZM27.37,14.679v5.775a1.236,1.236,0,0,0,2.473,0V17.632a4.4,4.4,0,0,0,4.423-.321,4.4,4.4,0,0,0,6.614,1.3,4.407,4.407,0,0,0,6.213.981,6.52,6.52,0,0,0,4.063,1.416h1.978v.027a10.844,10.844,0,0,0-9.6,10.754,1.236,1.236,0,0,0,2.473,0,8.366,8.366,0,0,1,8.363-8.351,1.236,1.236,0,0,0,1.236-1.236v-2.43A1.236,1.236,0,0,0,54.37,18.54H51.155a4.08,4.08,0,0,1-4.073-3.866q5.451,0,10.9.005a1.936,1.936,0,0,1,1.834,1.928v4.982c0,5.209-3.043,8.558-6.48,11.991a11.309,11.309,0,0,0-3.159,8.325H34.127a12.884,12.884,0,0,0-2.343-7.592,12.2,12.2,0,0,1-1.941-6.608,1.236,1.236,0,0,0-2.473,0,14.666,14.666,0,0,0,2.339,7.954,10.591,10.591,0,0,1,1.945,6.246h-.987a1.236,1.236,0,0,0-1.236,1.236V58.469L21.1,43.041a4.962,4.962,0,0,0-2.136-8.455V14.679ZM17.732,36.9a2.494,2.494,0,1,1-2.5,2.494A2.5,2.5,0,0,1,17.732,36.9Zm-1.2,7.314a4.964,4.964,0,0,0,2.393,0l9.078,16.818H7.457ZM8.254,68.053a5.791,5.791,0,0,1-5.648-4.545H32.857a5.791,5.791,0,0,1-5.648,4.545ZM31.9,81.93V69.055a8.249,8.249,0,0,0,3.56-6.784,1.236,1.236,0,0,0-1.236-1.236H31.9V52.553H52.5v8.482H50.176a1.236,1.236,0,0,0-1.236,1.236,8.249,8.249,0,0,0,3.56,6.784V81.93Z" transform="translate(0 0)" fill="#060606"/>
        </g>
      </g>
    </g>
  </g>
</svg>
