<svg xmlns="http://www.w3.org/2000/svg" xmlns:xlink="http://www.w3.org/1999/xlink" width="113" height="113" viewBox="0 0 113 113">
  <defs>
    <filter id="Trazado_982547" x="0" y="0" width="113" height="113" filterUnits="userSpaceOnUse">
      <feOffset dy="3" input="SourceAlpha"/>
      <feGaussianBlur stdDeviation="3" result="blur"/>
      <feFlood flood-opacity="0.161"/>
      <feComposite operator="in" in2="blur"/>
      <feComposite in="SourceGraphic"/>
    </filter>
  </defs>
  <g id="Grupo_1210961" data-name="Grupo 1210961" transform="translate(-1162.5 -4583.534)">
    <g id="Grupo_1209937" data-name="Grupo 1209937" transform="translate(0 -2945.274)">
      <g id="Grupo_1208707" data-name="Grupo 1208707" transform="translate(-1.454 3213.429)">
        <g id="Grupo_1148635" data-name="Grupo 1148635" transform="translate(908.908 600.047)">
          <g id="Grupo_1148525" data-name="Grupo 1148525" transform="translate(264.046 3721.333)">
            <g transform="matrix(1, 0, 0, 1, -9, -6)" filter="url(#Trazado_982547)">
              <g id="Trazado_982547-2" data-name="Trazado 982547" transform="translate(9 6)" fill="#e6d567">
                <path d="M 47.5 93.5 C 41.28937149047852 93.5 35.26533508300781 92.28397369384766 29.59518623352051 89.88570404052734 C 24.11771965026855 87.56893157958984 19.19813346862793 84.25196075439453 14.97309303283691 80.02691650390625 C 10.74804019927979 75.80186462402344 7.431066513061523 70.88229370117188 5.114293098449707 65.40481567382812 C 2.716026782989502 59.73468017578125 1.5 53.71062850952148 1.5 47.5 C 1.5 41.28937149047852 2.716026782989502 35.26533508300781 5.114293098449707 29.59518623352051 C 7.431066513061523 24.11771965026855 10.74804019927979 19.19813346862793 14.97309303283691 14.97309303283691 C 19.19813346862793 10.74804019927979 24.11771965026855 7.431066513061523 29.59518623352051 5.114293098449707 C 35.26533508300781 2.716026782989502 41.28937149047852 1.5 47.5 1.5 C 53.71062850952148 1.5 59.73468017578125 2.716026782989502 65.40481567382812 5.114293098449707 C 70.88229370117188 7.431066513061523 75.80186462402344 10.74804019927979 80.02691650390625 14.97309303283691 C 84.25196075439453 19.19813346862793 87.56893157958984 24.11771965026855 89.88570404052734 29.59518623352051 C 92.28397369384766 35.26533508300781 93.5 41.28937149047852 93.5 47.5 C 93.5 53.71062850952148 92.28397369384766 59.73468017578125 89.88570404052734 65.40481567382812 C 87.56893157958984 70.88229370117188 84.25196075439453 75.80186462402344 80.02691650390625 80.02691650390625 C 75.80186462402344 84.25196075439453 70.88229370117188 87.56893157958984 65.40481567382812 89.88570404052734 C 59.73468017578125 92.28397369384766 53.71062850952148 93.5 47.5 93.5 Z" stroke="none"/>
                <path d="M 47.5 3 C 41.49121475219727 3 35.66376876831055 4.176155090332031 30.17950439453125 6.495796203613281 C 24.88084411621094 8.736953735351562 20.12152099609375 11.94598388671875 16.03375244140625 16.03375244140625 C 11.94598388671875 20.12152099609375 8.736953735351562 24.88084411621094 6.495796203613281 30.17950439453125 C 4.176155090332031 35.66376876831055 3 41.49121475219727 3 47.5 C 3 53.50878524780273 4.176155090332031 59.33623123168945 6.495796203613281 64.82049560546875 C 8.736953735351562 70.11915588378906 11.94598388671875 74.87847900390625 16.03375244140625 78.96624755859375 C 20.12152099609375 83.05401611328125 24.88084411621094 86.26304626464844 30.17950439453125 88.50419616699219 C 35.66376876831055 90.82384490966797 41.49121475219727 92 47.5 92 C 53.50878524780273 92 59.33623123168945 90.82384490966797 64.82049560546875 88.50419616699219 C 70.11915588378906 86.26304626464844 74.87847900390625 83.05401611328125 78.96624755859375 78.96624755859375 C 83.05401611328125 74.87847900390625 86.26304626464844 70.11915588378906 88.50419616699219 64.82049560546875 C 90.82384490966797 59.33623123168945 92 53.50878524780273 92 47.5 C 92 41.49121475219727 90.82384490966797 35.66376876831055 88.50419616699219 30.17950439453125 C 86.26304626464844 24.88084411621094 83.05401611328125 20.12152099609375 78.96624755859375 16.03375244140625 C 74.87847900390625 11.94598388671875 70.11915588378906 8.736953735351562 64.82049560546875 6.495796203613281 C 59.33623123168945 4.176155090332031 53.50878524780273 3 47.5 3 M 47.5 0 C 73.7335205078125 0 95 21.2664794921875 95 47.5 C 95 73.7335205078125 73.7335205078125 95 47.5 95 C 21.2664794921875 95 0 73.7335205078125 0 47.5 C 0 21.2664794921875 21.2664794921875 0 47.5 0 Z" stroke="none" fill="#ba9c5a"/>
              </g>
            </g>
          </g>
        </g>
      </g>
    </g>
    <g id="pago" transform="translate(1184.565 4604.357)">
      <g id="Colour" transform="translate(1.211 1.207)">
        <path id="Trazado_1082593" data-name="Trazado 1082593" d="M52.759,38.676a11.551,11.551,0,0,1-.061,1.308L45.37,46.113a3.824,3.824,0,0,0-3.743-2.822H29.286a2.284,2.284,0,0,1-1.466-.5,8.388,8.388,0,0,0-5.378-1.926,19.8,19.8,0,0,0-7.97,1.5A13.271,13.271,0,0,1,14,38.676c0-8.6,6.31-22.347,14.825-25.665V13a2.737,2.737,0,0,0,.315.012h8.478a3.311,3.311,0,0,0,.606-.061l-.073.157C46.557,16.571,52.759,30.149,52.759,38.676Z" transform="translate(1.745 1.529)" fill="#91562d"/>
        <path id="Trazado_1082594" data-name="Trazado 1082594" d="M34.574,13.107l.073-.157a3.311,3.311,0,0,1-.606.061H30.985l-.045.1c8.406,3.464,14.607,17.042,14.607,25.568a11.551,11.551,0,0,1-.061,1.308l-4.979,4.164a3.555,3.555,0,0,1,1.285,1.965l7.328-6.129a11.551,11.551,0,0,0,.061-1.308c0-8.527-6.2-22.1-14.607-25.568Z" transform="translate(5.323 1.529)" fill="#6d4122"/>
        <path id="Trazado_1082595" data-name="Trazado 1082595" d="M38.543,11.028A3.016,3.016,0,0,1,36.121,14a3.311,3.311,0,0,1-.606.061H27.037a2.737,2.737,0,0,1-.315-.012A3.028,3.028,0,0,1,27.037,8h8.478a3.028,3.028,0,0,1,3.028,3.028Z" transform="translate(3.849 0.484)" fill="#ffdf00"/>
        <path id="Trazado_1082596" data-name="Trazado 1082596" d="M34.134,8H30.5a3.028,3.028,0,0,1,.606,6,3.312,3.312,0,0,1-.606.061h3.634A3.311,3.311,0,0,0,34.739,14a3.028,3.028,0,0,0-.606-6Z" transform="translate(5.23 0.484)" fill="#fec108"/>
        <path id="Trazado_1082597" data-name="Trazado 1082597" d="M39.542,5.385a6.142,6.142,0,0,1-2.967,3.646,5.7,5.7,0,0,1-2.338.448H28.713a5.7,5.7,0,0,1-2.338-.448,6.142,6.142,0,0,1-2.967-3.646,4.263,4.263,0,0,1-.218-2.992,2.3,2.3,0,0,1,2.483-1.369,5.942,5.942,0,0,1,3.21,1.986,3.643,3.643,0,0,0,2.592,1.453,3.643,3.643,0,0,0,2.592-1.453,5.942,5.942,0,0,1,3.21-1.986A2.3,2.3,0,0,1,39.76,2.394a4.263,4.263,0,0,1-.218,2.992Z" transform="translate(3.65 -0.996)" fill="#91562d"/>
        <path id="Trazado_1082598" data-name="Trazado 1082598" d="M38.437,2.394a2.3,2.3,0,0,0-2.483-1.369,4.186,4.186,0,0,0-1.636.659,2.195,2.195,0,0,1,.484.71,4.263,4.263,0,0,1-.218,2.992,6.142,6.142,0,0,1-2.967,3.646,5.7,5.7,0,0,1-2.336.448h3.634a5.7,5.7,0,0,0,2.338-.448,6.142,6.142,0,0,0,2.967-3.646,4.263,4.263,0,0,0,.218-2.992Z" transform="translate(4.973 -0.996)" fill="#6d4122"/>
        <path id="Trazado_1082599" data-name="Trazado 1082599" d="M64.116,38.215,49,53.609a4.724,4.724,0,0,1-3.222,1.4h-21.8A4.858,4.858,0,0,0,20.1,56.952l-5.087,6.783a2.422,2.422,0,0,1-1.938.969H3.422A2.43,2.43,0,0,1,1,62.282V55.826a2.41,2.41,0,0,1,.484-1.453c3.537-4.7,7.7-10,9.169-11.47a20.469,20.469,0,0,1,6.565-4.554,19.8,19.8,0,0,1,7.97-1.5,8.388,8.388,0,0,1,5.378,1.926,2.284,2.284,0,0,0,1.466.5H44.373a3.824,3.824,0,0,1,3.743,2.822l7.328-6.129,3.718-3.113a3.655,3.655,0,0,1,4.954,5.366Z" transform="translate(-1 5.551)" fill="#ffe0b2"/>
        <g id="Grupo_1210960" data-name="Grupo 1210960" transform="translate(8.442 37.554)">
          <path id="Trazado_1082600" data-name="Trazado 1082600" d="M14.995,52.938,9.908,59.721a2.422,2.422,0,0,1-1.938.969H11.6a2.422,2.422,0,0,0,1.938-.969l5.087-6.783A4.858,4.858,0,0,1,22.5,51H18.871a4.858,4.858,0,0,0-3.876,1.938Z" transform="translate(-7.97 -27.988)" fill="#dfc49c"/>
          <path id="Trazado_1082601" data-name="Trazado 1082601" d="M57.135,33.308a3.643,3.643,0,0,0-4.623-.815,3.612,3.612,0,0,1,.99.815,3.671,3.671,0,0,1-.194,4.905L38.192,53.608a4.724,4.724,0,0,1-3.222,1.4H38.6a4.724,4.724,0,0,0,3.222-1.4L56.941,38.213A3.671,3.671,0,0,0,57.135,33.308Z" transform="translate(-2.268 -32.001)" fill="#dfc49c"/>
        </g>
      </g>
      <g id="Outline" transform="translate(0 -0.003)">
        <path id="Trazado_1082602" data-name="Trazado 1082602" d="M58.6,38.679l-1.728,1.447c-.51-7.847-5.529-19.727-13.323-24.391a4.2,4.2,0,0,0-.259-6.249A8.584,8.584,0,0,0,45.541,6.01a5.4,5.4,0,0,0,.194-3.876,3.512,3.512,0,0,0-3.769-2.1A7.041,7.041,0,0,0,38.06,2.387c-1.343,1.393-2.1,1.393-3.447,0a7.032,7.032,0,0,0-3.9-2.347,3.5,3.5,0,0,0-3.77,2.1,5.393,5.393,0,0,0,.193,3.876,8.573,8.573,0,0,0,2.256,3.476,4.2,4.2,0,0,0-.259,6.25c-8.233,4.92-13.381,17.9-13.381,25.671a15.069,15.069,0,0,0,.309,3,22.32,22.32,0,0,0-6.04,4.392C8.478,50.344,4.239,55.739.727,60.4A3.6,3.6,0,0,0,0,62.58v6.459a3.634,3.634,0,0,0,3.634,3.634h9.659A3.646,3.646,0,0,0,16.2,71.219l5.087-6.783a3.651,3.651,0,0,1,2.907-1.453H46.026a5.908,5.908,0,0,0,4.05-1.767l15.116-15.39a4.868,4.868,0,0,0-6.6-7.146ZM32.1,14.535a1.817,1.817,0,0,1,0-3.634h8.478a1.817,1.817,0,0,1,0,3.634ZM29.177,3.059a1.069,1.069,0,0,1,1.185-.621,4.823,4.823,0,0,1,2.507,1.63,4.881,4.881,0,0,0,3.468,1.814A4.881,4.881,0,0,0,39.8,4.066a4.832,4.832,0,0,1,2.508-1.631,1.082,1.082,0,0,1,1.183.623,3.028,3.028,0,0,1-.23,2.122,4.944,4.944,0,0,1-2.312,2.955,4.64,4.64,0,0,1-1.85.345H33.568a4.64,4.64,0,0,1-1.85-.343,4.944,4.944,0,0,1-2.312-2.955,3.028,3.028,0,0,1-.23-2.122ZM18.168,41.412c0-8.57,6.177-21.305,13.888-24.454h8.561C48.327,20.107,54.5,32.841,54.5,41.412c0,.248-.019.484-.033.727l-5.718,4.784a5.1,5.1,0,0,0-4.169-2.107H32.245a1.09,1.09,0,0,1-.7-.22,9.671,9.671,0,0,0-6.142-2.2,22.072,22.072,0,0,0-7.075,1.09,13.525,13.525,0,0,1-.162-2.071Zm45.3,2.714L48.354,59.514a3.474,3.474,0,0,1-2.359,1.046h-21.8a6.081,6.081,0,0,0-4.845,2.422l-5.087,6.783a1.211,1.211,0,0,1-.969.484H3.634a1.211,1.211,0,0,1-1.211-1.211V62.582a1.192,1.192,0,0,1,.242-.727c3.347-4.444,7.611-9.894,9.062-11.339a18.04,18.04,0,0,1,13.678-5.7,7.146,7.146,0,0,1,4.6,1.648,3.52,3.52,0,0,0,2.237.774h12.34a2.625,2.625,0,0,1,2.544,1.817,1.134,1.134,0,0,0,.042.179,2.218,2.218,0,0,1,.036.3,2.422,2.422,0,0,1-2.422,2.544H31.461a1.211,1.211,0,0,0,0,2.422H44.784A4.838,4.838,0,0,0,49.622,49.4v-.053L60.159,40.53a2.436,2.436,0,0,1,3.44.306,2.472,2.472,0,0,1-.132,3.29Z" transform="translate(0 0.003)"/>
        <path id="Trazado_1082603" data-name="Trazado 1082603" d="M30.845,31.323a1.211,1.211,0,0,0-1.211,1.211v.874a2.414,2.414,0,0,1-1.211-2.086,1.211,1.211,0,0,0-2.422,0A4.845,4.845,0,0,0,29.634,36v.172a1.211,1.211,0,0,0,2.422,0V36a4.835,4.835,0,0,0-1.211-9.518,2.415,2.415,0,0,1-1.211-4.508v.874a1.211,1.211,0,1,0,2.422,0V21.97a2.414,2.414,0,0,1,1.211,2.086,1.211,1.211,0,0,0,2.422,0,4.845,4.845,0,0,0-3.634-4.673v-.172a1.211,1.211,0,1,0-2.422,0v.172A4.835,4.835,0,0,0,30.845,28.9a2.415,2.415,0,0,1,1.211,4.508v-.874A1.211,1.211,0,0,0,30.845,31.323Z" transform="translate(5.491 3.806)"/>
      </g>
    </g>
  </g>
</svg>
