<svg xmlns="http://www.w3.org/2000/svg" xmlns:xlink="http://www.w3.org/1999/xlink" width="108" height="108" viewBox="0 0 108 108">
  <defs>
    <filter id="Trazado_978624" x="0" y="0" width="108" height="108" filterUnits="userSpaceOnUse">
      <feOffset dy="3" input="SourceAlpha"/>
      <feGaussianBlur stdDeviation="3" result="blur"/>
      <feFlood flood-opacity="0.161"/>
      <feComposite operator="in" in2="blur"/>
      <feComposite in="SourceGraphic"/>
    </filter>
    <filter id="Trazado_1076716" x="0" y="0" width="108" height="108" filterUnits="userSpaceOnUse">
      <feOffset dy="3" input="SourceAlpha"/>
      <feGaussianBlur stdDeviation="3" result="blur-2"/>
      <feFlood flood-opacity="0.161"/>
      <feComposite operator="in" in2="blur-2"/>
      <feComposite in="SourceGraphic"/>
    </filter>
  </defs>
  <g id="Grupo_1210258" data-name="Grupo 1210258" transform="translate(-196 -299)">
    <g id="Grupo_1209735" data-name="Grupo 1209735" transform="translate(202.481 301.697)">
      <g id="Grupo_1200660" data-name="Grupo 1200660" transform="translate(2.519 3.303)">
        <g id="Grupo_1181203" data-name="Grupo 1181203">
          <g id="Grupo_1172348" data-name="Grupo 1172348">
            <g id="Grupo_1171897" data-name="Grupo 1171897">
              <g id="Grupo_1171052" data-name="Grupo 1171052">
                <g id="Grupo_1164581" data-name="Grupo 1164581">
                  <g id="Grupo_1144123" data-name="Grupo 1144123">
                    <g transform="matrix(1, 0, 0, 1, -9, -6)" filter="url(#Trazado_978624)">
                      <g id="Trazado_978624-2" data-name="Trazado 978624" transform="translate(9 6)" fill="#f7f4ed">
                        <path d="M 45 88.5 C 39.12687683105469 88.5 33.43022537231445 87.35007476806641 28.06830024719238 85.08217620849609 C 22.88852500915527 82.89131164550781 18.23629951477051 79.75458526611328 14.2408504486084 75.75914764404297 C 10.24541282653809 71.76370239257812 7.108687400817871 67.11147308349609 4.917825222015381 61.93170166015625 C 2.649924993515015 56.56977462768555 1.5 50.87312316894531 1.5 45 C 1.5 39.12687683105469 2.649924993515015 33.43022537231445 4.917825222015381 28.06830024719238 C 7.108687400817871 22.88852500915527 10.24541282653809 18.23629951477051 14.2408504486084 14.2408504486084 C 18.23629951477051 10.24541282653809 22.88852500915527 7.108687400817871 28.06830024719238 4.917825222015381 C 33.43022537231445 2.649924993515015 39.12687683105469 1.5 45 1.5 C 50.87312316894531 1.5 56.56977462768555 2.649924993515015 61.93170166015625 4.917825222015381 C 67.11147308349609 7.108687400817871 71.76370239257812 10.24541282653809 75.75914764404297 14.2408504486084 C 79.75458526611328 18.23629951477051 82.89131164550781 22.88852500915527 85.08217620849609 28.06830024719238 C 87.35007476806641 33.43022537231445 88.5 39.12687683105469 88.5 45 C 88.5 50.87312316894531 87.35007476806641 56.56977462768555 85.08217620849609 61.93170166015625 C 82.89131164550781 67.11147308349609 79.75458526611328 71.76370239257812 75.75914764404297 75.75914764404297 C 71.76370239257812 79.75458526611328 67.11147308349609 82.89131164550781 61.93170166015625 85.08217620849609 C 56.56977462768555 87.35007476806641 50.87312316894531 88.5 45 88.5 Z" stroke="none"/>
                        <path d="M 45 3 C 39.32871246337891 3 33.82865524291992 4.110054016113281 28.65262985229492 6.299339294433594 C 23.65165710449219 8.414573669433594 19.15968322753906 11.44334411621094 15.301513671875 15.301513671875 C 11.44334411621094 19.15968322753906 8.414573669433594 23.65165710449219 6.299339294433594 28.65262985229492 C 4.110054016113281 33.82865524291992 3 39.32871246337891 3 45 C 3 50.67128753662109 4.110054016113281 56.17134475708008 6.299339294433594 61.34737396240234 C 8.414573669433594 66.34834289550781 11.44334411621094 70.84031677246094 15.301513671875 74.698486328125 C 19.15968322753906 78.55665588378906 23.65165710449219 81.58542633056641 28.65262985229492 83.70066070556641 C 33.82865524291992 85.88994598388672 39.32871246337891 87 45 87 C 50.67128753662109 87 56.17134475708008 85.88994598388672 61.34737396240234 83.70066070556641 C 66.34834289550781 81.58542633056641 70.84031677246094 78.55665588378906 74.698486328125 74.698486328125 C 78.55665588378906 70.84031677246094 81.58542633056641 66.34834289550781 83.70066070556641 61.34737396240234 C 85.88994598388672 56.17134475708008 87 50.67128753662109 87 45 C 87 39.32871246337891 85.88994598388672 33.82865524291992 83.70066070556641 28.65262985229492 C 81.58542633056641 23.65165710449219 78.55665588378906 19.15968322753906 74.698486328125 15.301513671875 C 70.84031677246094 11.44334411621094 66.34834289550781 8.414573669433594 61.34737396240234 6.299339294433594 C 56.17134475708008 4.110054016113281 50.67128753662109 3 45 3 M 45 0 C 69.85281372070312 0 90 20.14718627929688 90 45 C 90 69.85281372070312 69.85281372070312 90 45 90 C 20.14718627929688 90 0 69.85281372070312 0 45 C 0 20.14718627929688 20.14718627929688 0 45 0 Z" stroke="none" fill="#ba9c5a"/>
                      </g>
                    </g>
                    <g transform="matrix(1, 0, 0, 1, -9, -6)" filter="url(#Trazado_1076716)">
                      <g id="Trazado_1076716-2" data-name="Trazado 1076716" transform="translate(9 6)" fill="#f7f4ed">
                        <path d="M 45 88.5 C 39.12687683105469 88.5 33.43022537231445 87.35007476806641 28.06830024719238 85.08217620849609 C 22.88852500915527 82.89131164550781 18.23629951477051 79.75458526611328 14.2408504486084 75.75914764404297 C 10.24541282653809 71.76370239257812 7.108687400817871 67.11147308349609 4.917825222015381 61.93170166015625 C 2.649924993515015 56.56977462768555 1.5 50.87312316894531 1.5 45 C 1.5 39.12687683105469 2.649924993515015 33.43022537231445 4.917825222015381 28.06830024719238 C 7.108687400817871 22.88852500915527 10.24541282653809 18.23629951477051 14.2408504486084 14.2408504486084 C 18.23629951477051 10.24541282653809 22.88852500915527 7.108687400817871 28.06830024719238 4.917825222015381 C 33.43022537231445 2.649924993515015 39.12687683105469 1.5 45 1.5 C 50.87312316894531 1.5 56.56977462768555 2.649924993515015 61.93170166015625 4.917825222015381 C 67.11147308349609 7.108687400817871 71.76370239257812 10.24541282653809 75.75914764404297 14.2408504486084 C 79.75458526611328 18.23629951477051 82.89131164550781 22.88852500915527 85.08217620849609 28.06830024719238 C 87.35007476806641 33.43022537231445 88.5 39.12687683105469 88.5 45 C 88.5 50.87312316894531 87.35007476806641 56.56977462768555 85.08217620849609 61.93170166015625 C 82.89131164550781 67.11147308349609 79.75458526611328 71.76370239257812 75.75914764404297 75.75914764404297 C 71.76370239257812 79.75458526611328 67.11147308349609 82.89131164550781 61.93170166015625 85.08217620849609 C 56.56977462768555 87.35007476806641 50.87312316894531 88.5 45 88.5 Z" stroke="none"/>
                        <path d="M 45 3 C 39.32871246337891 3 33.82865524291992 4.110054016113281 28.65262985229492 6.299339294433594 C 23.65165710449219 8.414573669433594 19.15968322753906 11.44334411621094 15.301513671875 15.301513671875 C 11.44334411621094 19.15968322753906 8.414573669433594 23.65165710449219 6.299339294433594 28.65262985229492 C 4.110054016113281 33.82865524291992 3 39.32871246337891 3 45 C 3 50.67128753662109 4.110054016113281 56.17134475708008 6.299339294433594 61.34737396240234 C 8.414573669433594 66.34834289550781 11.44334411621094 70.84031677246094 15.301513671875 74.698486328125 C 19.15968322753906 78.55665588378906 23.65165710449219 81.58542633056641 28.65262985229492 83.70066070556641 C 33.82865524291992 85.88994598388672 39.32871246337891 87 45 87 C 50.67128753662109 87 56.17134475708008 85.88994598388672 61.34737396240234 83.70066070556641 C 66.34834289550781 81.58542633056641 70.84031677246094 78.55665588378906 74.698486328125 74.698486328125 C 78.55665588378906 70.84031677246094 81.58542633056641 66.34834289550781 83.70066070556641 61.34737396240234 C 85.88994598388672 56.17134475708008 87 50.67128753662109 87 45 C 87 39.32871246337891 85.88994598388672 33.82865524291992 83.70066070556641 28.65262985229492 C 81.58542633056641 23.65165710449219 78.55665588378906 19.15968322753906 74.698486328125 15.301513671875 C 70.84031677246094 11.44334411621094 66.34834289550781 8.414573669433594 61.34737396240234 6.299339294433594 C 56.17134475708008 4.110054016113281 50.67128753662109 3 45 3 M 45 0 C 69.85281372070312 0 90 20.14718627929688 90 45 C 90 69.85281372070312 69.85281372070312 90 45 90 C 20.14718627929688 90 0 69.85281372070312 0 45 C 0 20.14718627929688 20.14718627929688 0 45 0 Z" stroke="none" fill="#ba9c5a"/>
                      </g>
                    </g>
                  </g>
                </g>
              </g>
            </g>
          </g>
        </g>
      </g>
    </g>
    <g id="Layer_x0020_1" transform="translate(187.813 301.108)">
      <path id="Trazado_1079317" data-name="Trazado 1079317" d="M48.276,141.007v-2.121H41.565a7.512,7.512,0,1,1,0-15.024H91.948a.98.98,0,0,1,.98.98v.981h.479a3.022,3.022,0,0,0,0-6.044H41.565a11.594,11.594,0,1,0,0,23.188h6.712Z" transform="translate(-1.076 -45.286)" fill="#fb8a69" fill-rule="evenodd"/>
      <path id="Trazado_1079318" data-name="Trazado 1079318" d="M81.448,92.813h0a.981.981,0,0,0,.98-.981v-6.14a26.743,26.743,0,0,0-.673-5.008c-.648-3.28-1.262-6.387.5-8.518q.125-.151.266-.3a.981.981,0,0,0-.671-1.666h-.062a.977.977,0,0,0-.67.3,6.59,6.59,0,0,0-1,1.316c-1.572,2.727-.893,6.163-.283,9.248a24.966,24.966,0,0,1,.635,4.628v6.14a.981.981,0,0,0,.981.98ZM79.33,94.9h8.5V92.934a.124.124,0,0,0-.121-.121H79.451a.124.124,0,0,0-.121.121Z" transform="translate(-21.393 -24.806)" fill="#ffcc80" fill-rule="evenodd"/>
      <path id="Trazado_1079319" data-name="Trazado 1079319" d="M82.808,58.064a.981.981,0,0,0,.981-.981V44.45H82.126a.978.978,0,0,1-.3-.046v12.68a.981.981,0,0,0,.981.981Zm3.731,0h-4a.741.741,0,0,0,0,1.482H86.81a.741.741,0,1,0,0-1.482Z" transform="translate(-22.487 -14.147)" fill="#ffcc80" fill-rule="evenodd"/>
      <path id="Trazado_1079320" data-name="Trazado 1079320" d="M85.321,23.757h0Zm-4.113,1.962h4.538a2.764,2.764,0,0,0,.556-.056,2.493,2.493,0,0,0,2.048-2.391,2.461,2.461,0,0,0-1.82-2.334.791.791,0,0,1-.486-.352,3.306,3.306,0,0,1-.262-.522,3.176,3.176,0,0,1-.146-.476.981.981,0,1,0-1.914.427,5.17,5.17,0,0,0,.441,1.224,3.881,3.881,0,0,1-2.776,0,5.169,5.169,0,0,0,.441-1.224.981.981,0,1,0-1.914-.426,3.175,3.175,0,0,1-.146.475,3.32,3.32,0,0,1-.262.523.791.791,0,0,1-.486.352,2.461,2.461,0,0,0-1.82,2.334,2.492,2.492,0,0,0,2.048,2.391,2.765,2.765,0,0,0,.556.056Z" transform="translate(-20.587 -3.577)" fill="#ffcc80" fill-rule="evenodd"/>
      <g id="_301282456" transform="translate(27.366 10.16)">
        <path id="_301283512" d="M110.243,40.713a.986.986,0,0,1-.273-.038,18.346,18.346,0,0,1-4.342-2.191A26.46,26.46,0,0,0,90.34,33.835a.981.981,0,0,1,.008-1.961h.009a28.518,28.518,0,0,1,16.3,4.938,17.066,17.066,0,0,0,3.861,1.979.981.981,0,0,1-.272,1.923Zm.266,2.929c-.028,0-.056,0-.084,0a16.663,16.663,0,0,1-6.329-2.26A22.523,22.523,0,0,0,90.423,38.3a.981.981,0,1,1-.149-1.956A24.5,24.5,0,0,1,105,39.638a14.971,14.971,0,0,0,5.593,2.047.98.98,0,0,1-.082,1.957Z" transform="translate(-52.98 -19.13)" fill-rule="evenodd"/>
        <path id="_301283992" d="M83.969,12.121a1.917,1.917,0,1,0,1.917,1.918A1.92,1.92,0,0,0,83.969,12.121Zm0,5.8a3.879,3.879,0,1,1,3.878-3.879A3.883,3.883,0,0,1,83.969,17.917Z" transform="translate(-49.147 -10.16)" fill-rule="evenodd"/>
        <path id="_301283896" d="M81.157,66.3a.741.741,0,0,0,0,1.482h4.272a.741.741,0,1,0,0-1.482Zm4.272,3.443H81.157a2.7,2.7,0,1,1,0-5.4h4.272a2.7,2.7,0,0,1,0,5.4Z" transform="translate(-48.471 -32.542)" fill-rule="evenodd"/>
        <path id="_301283704" d="M89.38,92.812a.981.981,0,0,1-.981-.98v-6.14a26.751,26.751,0,0,1,.672-5.008c.679-3.436,1.321-6.68-.763-8.814a.981.981,0,1,1,1.4-1.371c2.805,2.872,2,6.959,1.285,10.565a24.986,24.986,0,0,0-.635,4.628v6.14a.98.98,0,0,1-.981.98Z" transform="translate(-52.427 -34.965)" fill-rule="evenodd"/>
        <path id="_301283728" d="M88.526,118.643a.981.981,0,0,1-.981-.981v-3.2a.222.222,0,0,0-.219-.219H72.72a.222.222,0,0,0-.219.219v3.2a.981.981,0,1,1-1.961,0v-3.2a2.183,2.183,0,0,1,2.181-2.181H87.326a2.183,2.183,0,0,1,2.181,2.181v3.2A.981.981,0,0,1,88.526,118.643Z" transform="translate(-45.202 -52.348)" fill-rule="evenodd"/>
        <path id="_301283416" d="M87.557,111.394a.98.98,0,0,1-.981-.98v-2.946a.124.124,0,0,0-.121-.121H78.2a.124.124,0,0,0-.121.121v2.945a.981.981,0,1,1-1.961,0v-2.946a2.084,2.084,0,0,1,2.082-2.082h8.258a2.085,2.085,0,0,1,2.082,2.082v2.945A.98.98,0,0,1,87.557,111.394Z" transform="translate(-47.505 -49.5)" fill-rule="evenodd"/>
        <path id="_301283776" d="M82.829,56.716a.981.981,0,0,1-.981-.981V42.121a.981.981,0,0,1,1.962,0V55.735A.981.981,0,0,1,82.829,56.716Zm3.731,0a.981.981,0,0,1-.981-.981V42.121a.981.981,0,0,1,1.961,0V55.735A.981.981,0,0,1,86.56,56.716Z" transform="translate(-49.874 -22.959)" fill-rule="evenodd"/>
        <path id="_301283872" d="M86.762,37.356H81.668a.981.981,0,0,1-.981-.981V28.213a.981.981,0,1,1,1.961,0v7.181h3.133V28.213a.981.981,0,1,1,1.961,0v8.162a.981.981,0,0,1-.981.981Z" transform="translate(-49.394 -17.213)" fill-rule="evenodd"/>
        <path id="_301283344" d="M126.2,43.408a1.558,1.558,0,1,0,1.557,1.558,1.56,1.56,0,0,0-1.557-1.558Zm0,5.077a3.519,3.519,0,1,1,3.519-3.519A3.523,3.523,0,0,1,126.2,48.485Z" transform="translate(-66.741 -23.086)" fill-rule="evenodd"/>
        <path id="_301283608" d="M47.583,40.713a.981.981,0,0,1-.272-1.923,17.062,17.062,0,0,0,3.861-1.979,28.517,28.517,0,0,1,16.3-4.938h.009a.981.981,0,0,1,.008,1.961A26.46,26.46,0,0,0,52.2,38.484a18.345,18.345,0,0,1-4.342,2.192.983.983,0,0,1-.273.038Zm-.266,2.929a.98.98,0,0,1-.082-1.957,14.983,14.983,0,0,0,5.593-2.047,24.5,24.5,0,0,1,14.724-3.294A.981.981,0,0,1,67.4,38.3c-6.742-.513-10.424,1.4-13.672,3.079A16.669,16.669,0,0,1,47.4,43.64c-.028,0-.056,0-.084,0Z" transform="translate(-35.203 -19.13)" fill-rule="evenodd"/>
        <path id="_301283752" d="M42.247,43.408A1.558,1.558,0,1,0,43.8,44.966,1.559,1.559,0,0,0,42.247,43.408Zm0,5.077a3.519,3.519,0,1,1,3.519-3.519A3.523,3.523,0,0,1,42.247,48.485Z" transform="translate(-32.06 -23.086)" fill-rule="evenodd"/>
        <path id="_301282792" d="M113.385,82.53c.637,2.88,4.035,5.086,8.118,5.086s7.481-2.205,8.118-5.085Zm8.118,7.047c-5.617,0-10.187-3.6-10.187-8.027a.981.981,0,0,1,.981-.981h18.412a.981.981,0,0,1,.981.981C131.69,85.976,127.12,89.577,121.5,89.577Z" transform="translate(-62.047 -39.247)" fill-rule="evenodd"/>
        <path id="_301283080" d="M29.435,82.53c.638,2.88,4.035,5.086,8.118,5.086s7.481-2.205,8.118-5.085Zm8.118,7.047c-5.617,0-10.187-3.6-10.187-8.027a.981.981,0,0,1,.981-.981H46.759a.981.981,0,0,1,.981.981C47.74,85.976,43.17,89.577,37.553,89.577Z" transform="translate(-27.366 -39.247)" fill-rule="evenodd"/>
        <path id="_301283056" d="M112.3,69.942a.981.981,0,0,1-.871-1.43l9.206-17.883a.981.981,0,0,1,.872-.532h0a.981.981,0,0,1,.872.532l9.206,17.883a.981.981,0,1,1-1.744.9L121.5,53.22l-8.334,16.189a.981.981,0,0,1-.873.532Z" transform="translate(-62.047 -26.659)" fill-rule="evenodd"/>
        <path id="_301282720" d="M46.76,69.942a.981.981,0,0,1-.873-.532L37.553,53.221,29.219,69.41a.981.981,0,1,1-1.744-.9l9.206-17.884a.981.981,0,0,1,1.744,0l9.206,17.883a.981.981,0,0,1-.871,1.43Z" transform="translate(-27.366 -26.659)" fill-rule="evenodd"/>
        <path id="_301282600" d="M81.448,92.812a.981.981,0,0,1-.981-.98v-6.14a24.966,24.966,0,0,0-.635-4.628c-.713-3.606-1.52-7.693,1.285-10.565a.981.981,0,0,1,1.4,1.371c-2.084,2.133-1.442,5.378-.764,8.813a26.743,26.743,0,0,1,.673,5.008v6.14A.981.981,0,0,1,81.448,92.812Z" transform="translate(-48.758 -34.965)" fill-rule="evenodd"/>
        <path id="_301282624" d="M85.745,25.718H79.8a2.532,2.532,0,0,1-2.6-2.448,2.461,2.461,0,0,1,1.82-2.334.791.791,0,0,0,.486-.352,3.254,3.254,0,0,0,.408-1,.981.981,0,1,1,1.914.426,5.2,5.2,0,0,1-.652,1.6,2.728,2.728,0,0,1-1.6,1.2.528.528,0,0,0-.418.454c0,.259.3.486.643.486h5.943c.342,0,.643-.227.643-.486a.528.528,0,0,0-.418-.454,2.728,2.728,0,0,1-1.6-1.2,5.2,5.2,0,0,1-.653-1.6.981.981,0,1,1,1.914-.427,3.244,3.244,0,0,0,.408,1,.791.791,0,0,0,.486.352,2.461,2.461,0,0,1,1.82,2.334,2.533,2.533,0,0,1-2.6,2.448Z" transform="translate(-47.952 -13.737)" fill-rule="evenodd"/>
        <path id="_301282672" d="M44.033,69.941a.981.981,0,0,1-.981-.98V51.077a.981.981,0,0,1,1.961,0V68.961A.98.98,0,0,1,44.033,69.941Z" transform="translate(-33.846 -26.659)" fill-rule="evenodd"/>
        <path id="_301283128" d="M127.983,69.941a.981.981,0,0,1-.981-.98V51.077a.981.981,0,0,1,1.962,0V68.961A.98.98,0,0,1,127.983,69.941Z" transform="translate(-68.527 -26.659)" fill-rule="evenodd"/>
        <path id="_301282552" d="M49.257,142.968H41.565a11.594,11.594,0,1,1,0-23.188H93.407a3.022,3.022,0,0,1,0,6.044H41.565a5.551,5.551,0,0,0,0,11.1h7.692a.981.981,0,0,1,0,1.962H41.565a7.512,7.512,0,1,1,0-15.024H93.407a1.06,1.06,0,0,0,0-2.121H41.565a9.633,9.633,0,0,0,0,19.266h7.692a.981.981,0,1,1,0,1.961Zm44.15,0H56.228a.98.98,0,1,1,0-1.961H93.407a1.06,1.06,0,0,0,0-2.12H56.228a.981.981,0,0,1,0-1.961H93.407a3.022,3.022,0,0,1,0,6.043Z" transform="translate(-28.442 -55.446)" fill-rule="evenodd"/>
        <path id="_301282528" d="M134.885,141.76a.981.981,0,0,1-.981-.981V127.717a.981.981,0,0,1,1.961,0V140.78a.98.98,0,0,1-.98.981Z" transform="translate(-71.379 -58.32)" fill-rule="evenodd"/>
        <path id="_301282024" d="M100.62,135.466H51.945a.981.981,0,0,1,0-1.962H100.62a.981.981,0,0,1,0,1.962Z" transform="translate(-37.115 -61.116)" fill-rule="evenodd"/>
        <path id="_301281904" d="M57.93,143.822H51.945a.981.981,0,1,1,0-1.961H57.93a.981.981,0,0,1,0,1.962Zm42.691,0H64.9a.981.981,0,0,1,0-1.961h35.719a.981.981,0,0,1,0,1.962Z" transform="translate(-37.115 -64.568)" fill-rule="evenodd"/>
        <path id="_301281784" d="M69.114,150.954a.981.981,0,0,1-.742-.339l-2.744-3.173-2.744,3.172a.981.981,0,0,1-1.722-.642V134.485a.981.981,0,0,1,1.961,0V147.34l1.763-2.038a.981.981,0,0,1,1.484,0l1.763,2.038V134.485a.981.981,0,1,1,1.961,0v15.488a.981.981,0,0,1-.981.981Z" transform="translate(-41.328 -61.116)" fill-rule="evenodd"/>
      </g>
      <path id="Trazado_1079321" data-name="Trazado 1079321" d="M85.349,17.336a1.917,1.917,0,1,0-1.917-1.917A1.919,1.919,0,0,0,85.349,17.336Z" transform="translate(-23.162 -1.381)" fill="#ffcc80" fill-rule="evenodd"/>
      <path id="Trazado_1079322" data-name="Trazado 1079322" d="M87.162,30.575H84.029v1.735c0,.006,0,.012,0,.017v4.449h3.133v-6.2Z" transform="translate(-23.409 -8.434)" fill="#a1887f" fill-rule="evenodd"/>
      <path id="Trazado_1079323" data-name="Trazado 1079323" d="M107.008,39.88a26.358,26.358,0,0,0-14.3-4.626v2.424a24.453,24.453,0,0,1,13.669,3.356,21.845,21.845,0,0,0,3.937,1.737,3.544,3.544,0,0,1,.048-1.049A25.026,25.026,0,0,1,107.008,39.88Z" transform="translate(-26.995 -10.367)" fill="#ffe0b2" fill-rule="evenodd"/>
      <path id="Trazado_1079324" data-name="Trazado 1079324" d="M68.26,37.678V35.254a26.358,26.358,0,0,0-14.3,4.626,25.054,25.054,0,0,1-3.356,1.842,3.519,3.519,0,0,1,.067.685,3.556,3.556,0,0,1-.019.363,21.843,21.843,0,0,0,3.938-1.737A24.448,24.448,0,0,1,68.26,37.678Z" transform="translate(-9.601 -10.367)" fill="#ffe0b2" fill-rule="evenodd"/>
      <path id="Trazado_1079325" data-name="Trazado 1079325" d="M127.577,44.789a1.558,1.558,0,0,0,0,3.115h.019a1.558,1.558,0,0,0-.019-3.115Z" transform="translate(-40.756 -14.306)" fill="#ffcc80" fill-rule="evenodd"/>
      <g id="Grupo_1210257" data-name="Grupo 1210257" transform="translate(29.435 30.303)">
        <path id="Trazado_1079326" data-name="Trazado 1079326" d="M86.961,56.135V44.482H85.191V56.135Z" transform="translate(-53.324 -44.482)" fill="#a1887f" fill-rule="evenodd"/>
        <path id="Trazado_1079327" data-name="Trazado 1079327" d="M86.279,73.546H83.628c-1.76,2.131-1.146,5.238-.5,8.518a26.743,26.743,0,0,1,.673,5.008v5.159h2.3V87.073a26.751,26.751,0,0,1,.672-5.008c.648-3.281,1.263-6.387-.5-8.518Z" transform="translate(-52.202 -56.489)" fill="#a1887f" fill-rule="evenodd"/>
        <path id="Trazado_1079328" data-name="Trazado 1079328" d="M122.958,83.91H114.84c.637,2.88,4.035,5.086,8.118,5.086s7.481-2.205,8.118-5.085Z" transform="translate(-65.572 -60.771)" fill="#a1887f" fill-rule="evenodd"/>
        <path id="Trazado_1079329" data-name="Trazado 1079329" d="M39.881,50.629l-.017-.031a.981.981,0,0,0-.787-.5l-.038,0a.98.98,0,0,1,.842.531Zm-.872,24.4c4.083,0,7.481-2.205,8.118-5.085H30.891C31.529,72.822,34.926,75.027,39.009,75.027Z" transform="translate(-30.891 -46.802)" fill="#a1887f" fill-rule="evenodd"/>
      </g>
      <path id="Trazado_1079330" data-name="Trazado 1079330" d="M43.627,47.9a1.558,1.558,0,1,0-1.557-1.558A1.56,1.56,0,0,0,43.627,47.9Z" transform="translate(-6.075 -14.306)" fill="#ffcc80" fill-rule="evenodd"/>
      <path id="Trazado_1079331" data-name="Trazado 1079331" d="M111.121,152.336H76.383v2.121h36.2a1.06,1.06,0,0,0,0-2.12Z" transform="translate(-20.25 -58.736)" fill="#fb8a69" fill-rule="evenodd"/>
      <path id="Trazado_1079332" data-name="Trazado 1079332" d="M76.383,147.428h33.758V145.2H76.383Z" transform="translate(-20.25 -55.789)" fill="#bac2c6" fill-rule="evenodd"/>
      <path id="Trazado_1079333" data-name="Trazado 1079333" d="M76.383,139.79h33.758v-2.943H76.383Z" transform="translate(-20.25 -52.337)" fill="#bac2c6" fill-rule="evenodd"/>
      <path id="Trazado_1079334" data-name="Trazado 1079334" d="M69.514,144.956v-8.11H64.5v11.874l1.763-2.038a.981.981,0,0,1,1.484,0l1.763,2.038Z" transform="translate(-15.343 -52.337)" fill="#ffe0b2" fill-rule="evenodd"/>
      <path id="Trazado_1079335" data-name="Trazado 1079335" d="M47.526,136.993h5V134.05h-5a.981.981,0,0,1,0-1.962H95.221v-2.011h-49.4a5.551,5.551,0,0,0,0,11.1H52.53v-2.225h-5a.981.981,0,1,1,0-1.961Z" transform="translate(-5.33 -49.54)" fill="#bac2c6" fill-rule="evenodd"/>
      <path id="Trazado_1079336" data-name="Trazado 1079336" d="M73.881,118.063H88.926v-2.22a.222.222,0,0,0-.219-.219H74.1a.222.222,0,0,0-.219.219Z" transform="translate(-19.216 -43.569)" fill="#ffcc80" fill-rule="evenodd"/>
    </g>
  </g>
</svg>
