<svg xmlns="http://www.w3.org/2000/svg" xmlns:xlink="http://www.w3.org/1999/xlink" width="110" height="110" viewBox="0 0 110 110">
  <defs>
    <filter id="Trazado_982547" x="0" y="0" width="110" height="110" filterUnits="userSpaceOnUse">
      <feOffset dy="3" input="SourceAlpha"/>
      <feGaussianBlur stdDeviation="3" result="blur"/>
      <feFlood flood-opacity="0.161"/>
      <feComposite operator="in" in2="blur"/>
      <feComposite in="SourceGraphic"/>
    </filter>
  </defs>
  <g id="Grupo_1210976" data-name="Grupo 1210976" transform="translate(-377 -6073.28)">
    <g id="Grupo_1200150" data-name="Grupo 1200150" transform="translate(386 6079.28)">
      <g id="Grupo_1185951" data-name="Grupo 1185951" transform="translate(0 0)">
        <g id="Grupo_1184083" data-name="Grupo 1184083" transform="translate(0 0)">
          <g id="Grupo_1183743" data-name="Grupo 1183743" transform="translate(0 0)">
            <g id="Grupo_1181545" data-name="Grupo 1181545">
              <g id="Grupo_1177562" data-name="Grupo 1177562">
                <g id="Grupo_1173147" data-name="Grupo 1173147" transform="translate(0 0)">
                  <g id="Grupo_1163801" data-name="Grupo 1163801" transform="translate(0 0)">
                    <g id="Grupo_1163014" data-name="Grupo 1163014" transform="translate(0 0)">
                      <g id="Grupo_1157015" data-name="Grupo 1157015" transform="translate(0 0)">
                        <g id="Grupo_1155792" data-name="Grupo 1155792" transform="translate(0 0)">
                          <g id="Grupo_1154703" data-name="Grupo 1154703" transform="translate(0 0)">
                            <g id="Grupo_1150789" data-name="Grupo 1150789">
                              <g id="Grupo_1154212" data-name="Grupo 1154212">
                                <g id="Grupo_1152583" data-name="Grupo 1152583">
                                  <g id="Grupo_1146973" data-name="Grupo 1146973">
                                    <g id="Grupo_1146954" data-name="Grupo 1146954">
                                      <g transform="matrix(1, 0, 0, 1, -9, -6)" filter="url(#Trazado_982547)">
                                        <g id="Trazado_982547-2" data-name="Trazado 982547" transform="translate(9 6)" fill="#f2d944">
                                          <path d="M 46.00000762939453 90.49988555908203 C 39.99188613891602 90.49988555908203 34.16427612304688 89.32352447509766 28.67906188964844 87.00347137451172 C 23.38020706176758 84.76226043701172 18.62104797363281 81.55342864990234 14.53375434875488 77.46615600585938 C 10.44647407531738 73.37887573242188 7.237647533416748 68.61971282958984 4.996420860290527 63.32085800170898 C 2.676367521286011 57.83565902709961 1.500007629394531 52.00806045532227 1.500007629394531 45.99993896484375 C 1.500007629394531 39.99181747436523 2.676367521286011 34.16421890258789 4.996420860290527 28.67901802062988 C 7.237647533416748 23.38017845153809 10.44647407531738 18.62101936340332 14.53375434875488 14.53373908996582 C 18.62104797363281 10.44645881652832 23.38020706176758 7.237632274627686 28.67906188964844 4.996418952941895 C 34.16427612304688 2.676365613937378 39.99188613891602 1.500005602836609 46.00000762939453 1.500005602836609 C 52.00812911987305 1.500005602836609 57.83573913574219 2.676365613937378 63.32095336914062 4.996418952941895 C 68.61980438232422 7.237632274627686 73.37896728515625 10.44645881652832 77.46626281738281 14.53373908996582 C 81.55354309082031 18.62101936340332 84.76236724853516 23.38017845153809 87.00359344482422 28.67901802062988 C 89.32364654541016 34.16421890258789 90.50000762939453 39.99181747436523 90.50000762939453 45.99993896484375 C 90.50000762939453 52.00806045532227 89.32364654541016 57.83565902709961 87.00359344482422 63.32085800170898 C 84.76236724853516 68.61971282958984 81.55354309082031 73.37887573242188 77.46626281738281 77.46615600585938 C 73.37896728515625 81.55342864990234 68.61980438232422 84.76226043701172 63.32095336914062 87.00347137451172 C 57.83573913574219 89.32352447509766 52.00812911987305 90.49988555908203 46.00000762939453 90.49988555908203 Z" stroke="none"/>
                                          <path d="M 46.00000762939453 2.999992370605469 C 40.19372177124023 2.999992370605469 34.56270599365234 4.136497497558594 29.26339340209961 6.377906799316406 C 24.14333343505859 8.543510437011719 19.54441833496094 11.64437866210938 15.59440612792969 15.59439849853516 C 11.6444091796875 19.54439544677734 8.543525695800781 24.14329528808594 6.377922058105469 29.26335144042969 C 4.136505126953125 34.56266784667969 3.000007629394531 40.19366836547852 3.000007629394531 45.99993896484375 C 3.000007629394531 51.80620956420898 4.136505126953125 57.43722534179688 6.377922058105469 62.73654174804688 C 8.543525695800781 67.85658264160156 11.6444091796875 72.45548248291016 15.59440612792969 76.40549468994141 C 19.54441833496094 80.35549926757812 24.14333343505859 83.45636749267578 29.26337814331055 85.62196350097656 C 34.56270599365234 87.86338043212891 40.19372177124023 88.9998779296875 46.00000762939453 88.9998779296875 C 51.80629348754883 88.9998779296875 57.43730926513672 87.86338043212891 62.73662185668945 85.62196350097656 C 67.85668182373047 83.45636749267578 72.45558166503906 80.35549926757812 76.40559387207031 76.40549468994141 C 80.35560607910156 72.45548248291016 83.45648193359375 67.85658264160156 85.62207794189453 62.73654174804688 C 87.86351013183594 57.43722534179688 89.00000762939453 51.80620956420898 89.00000762939453 45.99993896484375 C 89.00000762939453 40.19366836547852 87.86351013183594 34.56266784667969 85.62207794189453 29.26335144042969 C 83.45648193359375 24.14329528808594 80.35560607910156 19.54439544677734 76.40559387207031 15.59439849853516 C 72.45558166503906 11.64437866210938 67.85668182373047 8.543510437011719 62.73662185668945 6.377906799316406 C 57.43729400634766 4.136497497558594 51.80629348754883 2.999992370605469 46.00000762939453 2.999992370605469 M 46.00000762939453 -7.62939453125e-06 C 71.40509033203125 -7.62939453125e-06 92.00000762939453 20.59487915039062 92.00000762939453 45.99993896484375 C 92.00000762939453 71.40501403808594 71.40509033203125 91.99988555908203 46.00000762939453 91.99988555908203 C 20.59490966796875 91.99988555908203 7.62939453125e-06 71.40501403808594 7.62939453125e-06 45.99993896484375 C 7.62939453125e-06 20.59487915039062 20.59490966796875 -7.62939453125e-06 46.00000762939453 -7.62939453125e-06 Z" stroke="none" fill="#ba9c5a"/>
                                        </g>
                                      </g>
                                    </g>
                                  </g>
                                </g>
                              </g>
                            </g>
                          </g>
                        </g>
                      </g>
                    </g>
                  </g>
                </g>
              </g>
            </g>
          </g>
        </g>
      </g>
    </g>
    <g id="escritura" transform="translate(389.894 6096.28)">
      <path id="Trazado_1082781" data-name="Trazado 1082781" d="M49.652,364.832a7.283,7.283,0,0,0,7.283,7.283H24.783a7.283,7.283,0,0,1-7.283-7.283V352.6H49.652Z" transform="translate(-6.536 -307.297)" fill="#ff9478"/>
      <path id="Trazado_1082782" data-name="Trazado 1082782" d="M24.579,364.832V352.6H17.5v12.233a7.283,7.283,0,0,0,7.283,7.283h7.079A7.283,7.283,0,0,1,24.579,364.832Z" transform="translate(-6.536 -307.297)" fill="#ff7956"/>
      <path id="Trazado_1082783" data-name="Trazado 1082783" d="M395.691,27.016H381.125V14.783A7.283,7.283,0,0,1,388.408,7.5h0a7.283,7.283,0,0,1,7.283,7.283V27.016Z" transform="translate(-323.443 -6.536)" fill="#ff9478"/>
      <path id="Trazado_1082784" data-name="Trazado 1082784" d="M390.96,7.961a7.266,7.266,0,0,0-2.552-.461h0a7.283,7.283,0,0,0-7.283,7.283V27.016h5.1V14.783A7.285,7.285,0,0,1,390.96,7.961Z" transform="translate(-323.443 -6.536)" fill="#ff7956"/>
      <path id="Trazado_1082785" data-name="Trazado 1082785" d="M47.661,71.614C56.512,80.465,58.1,93.228,58.1,93.228s-12.762-1.589-21.614-10.44-10.44-21.614-10.44-21.614S38.809,62.763,47.661,71.614Z" transform="translate(-13.985 -53.314)" fill="#fff"/>
      <path id="Trazado_1082786" data-name="Trazado 1082786" d="M42.326,82.787c-7.057-7.057-9.5-16.6-10.2-20.179a38.353,38.353,0,0,0-6.082-1.434s1.589,12.762,10.44,21.614S58.1,93.227,58.1,93.227s-.065-.525-.243-1.434A38.35,38.35,0,0,1,42.326,82.787Z" transform="translate(-13.985 -53.314)" fill="#d8d7da"/>
      <path id="Trazado_1082787" data-name="Trazado 1082787" d="M138.158,7.5a7.283,7.283,0,0,0-7.283,7.283V18.9a34.131,34.131,0,0,1,8.146,5.934c8.851,8.851,10.44,21.614,10.44,21.614a42.668,42.668,0,0,1-18.586-7.785V51.838h17.586V64.071a7.283,7.283,0,0,0,14.567,0V14.783A7.283,7.283,0,0,1,170.31,7.5Z" transform="translate(-105.345 -6.536)" fill="#ffdaaa"/>
      <g id="Grupo_1210973" data-name="Grupo 1210973" transform="translate(25.53 0.964)">
        <path id="Trazado_1082788" data-name="Trazado 1082788" d="M273.634,364.832V352.6H267.75v12.233a7.283,7.283,0,0,0,10.225,6.663A7.283,7.283,0,0,1,273.634,364.832Z" transform="translate(-250.164 -308.261)" fill="#ff9478"/>
        <path id="Trazado_1082789" data-name="Trazado 1082789" d="M149.215,45a38.372,38.372,0,0,0,6.13,1.449s-1.589-12.762-10.44-21.614a34.134,34.134,0,0,0-8.146-5.934V14.783A7.283,7.283,0,0,1,144.042,7.5h-5.884a7.283,7.283,0,0,0-7.283,7.283V18.9a34.131,34.131,0,0,1,8.146,5.934C146.068,31.884,148.511,41.41,149.215,45Z" transform="translate(-130.875 -7.5)" fill="#ff9478"/>
        <path id="Trazado_1082790" data-name="Trazado 1082790" d="M130.875,250.068v13.173h5.884v-9.5A36.71,36.71,0,0,1,130.875,250.068Z" transform="translate(-130.875 -218.903)" fill="#ff9478"/>
      </g>
      <g id="Grupo_1210974" data-name="Grupo 1210974" transform="translate(24.219 3.532)">
        <rect id="Rectángulo_418770" data-name="Rectángulo 418770" width="1.927" height="1.927" transform="translate(0 44.905)" fill="#fff"/>
        <rect id="Rectángulo_418771" data-name="Rectángulo 418771" width="1.927" height="1.927" transform="translate(3.212 44.905)" fill="#fff"/>
        <rect id="Rectángulo_418772" data-name="Rectángulo 418772" width="10.208" height="1.927" transform="translate(6.424 44.905)" fill="#fff"/>
        <rect id="Rectángulo_418773" data-name="Rectángulo 418773" width="1.927" height="1.927" transform="translate(14.852)" fill="#fff"/>
        <rect id="Rectángulo_418774" data-name="Rectángulo 418774" width="9.216" height="1.927" transform="translate(21.276)" fill="#fff"/>
        <rect id="Rectángulo_418775" data-name="Rectángulo 418775" width="1.927" height="1.927" transform="translate(18.064)" fill="#fff"/>
      </g>
      <g id="Grupo_1210975" data-name="Grupo 1210975" transform="translate(10)">
        <rect id="Rectángulo_418776" data-name="Rectángulo 418776" width="1.927" height="1.927" transform="translate(27.586 17.793)" fill="#1d1d1f"/>
        <rect id="Rectángulo_418777" data-name="Rectángulo 418777" width="7.122" height="1.927" transform="translate(34.01 17.793)" fill="#1d1d1f"/>
        <rect id="Rectángulo_418778" data-name="Rectángulo 418778" width="1.927" height="1.927" transform="translate(30.798 17.793)" fill="#1d1d1f"/>
        <rect id="Rectángulo_418779" data-name="Rectángulo 418779" width="9.131" height="1.927" transform="translate(32 24.04)" fill="#1d1d1f"/>
        <rect id="Rectángulo_418780" data-name="Rectángulo 418780" width="5.029" height="1.927" transform="translate(36.103 30.287)" fill="#1d1d1f"/>
        <rect id="Rectángulo_418781" data-name="Rectángulo 418781" width="4.895" height="1.927" transform="translate(36.236 36.533)" fill="#1d1d1f"/>
        <rect id="Rectángulo_418782" data-name="Rectángulo 418782" width="1.927" height="1.927" transform="translate(53.029 16.253)" fill="#1d1d1f"/>
        <rect id="Rectángulo_418783" data-name="Rectángulo 418783" width="1.927" height="1.927" transform="translate(56.241 16.253)" fill="#1d1d1f"/>
        <rect id="Rectángulo_418784" data-name="Rectángulo 418784" width="1.927" height="1.927" transform="translate(49.817 16.253)" fill="#1d1d1f"/>
        <path id="Trazado_1082791" data-name="Trazado 1082791" d="M64.965,0H32.813a8.256,8.256,0,0,0-8.247,8.247V9.8h1.927V9.21h4.192V7.283H26.567a6.33,6.33,0,0,1,6.246-5.356H59.673a8.232,8.232,0,0,0-2.954,6.32V30.6H53.041v1.927h3.678V52.013H49.272V53.94h7.446v3.3H53.041v1.927H56.5a6.319,6.319,0,0,1-12.425-1.63v-13.2H10v13.2a8.256,8.256,0,0,0,8.247,8.247h32.16a8.256,8.256,0,0,0,8.239-8.247V8.247a6.32,6.32,0,0,1,12.566-.964H63.478V9.21h7.807v1.261H68.523V12.4h2.762v7.118H60.252v1.927h12.96V8.247A8.256,8.256,0,0,0,64.965,0ZM18.247,63.854a6.327,6.327,0,0,1-6.32-6.32V46.266h3.062v4.741h1.927V46.265h2.313v2.385h1.927V46.265h21V56.571H33.1V58.5h9.106a8.238,8.238,0,0,0,2.9,5.356Z" transform="translate(-10)" fill="#1d1d1f"/>
        <path id="Trazado_1082792" data-name="Trazado 1082792" d="M19.514,61.456a38.858,38.858,0,0,0,8.767,14.489,38.86,38.86,0,0,0,14.489,8.767,42.776,42.776,0,0,0,7.352,1.9l4.55,4.55L56.036,89.8l-4.55-4.55a42.765,42.765,0,0,0-1.9-7.351,38.858,38.858,0,0,0-8.767-14.489,38.856,38.856,0,0,0-14.489-8.767,40.833,40.833,0,0,0-7.687-1.948l-1.228-.153.153,1.228A40.851,40.851,0,0,0,19.514,61.456ZM25.5,56.4v3.311h1.927v-2.6a37.978,37.978,0,0,1,8.988,5v7.055h1.927V63.718q.565.509,1.112,1.054a31.446,31.446,0,0,1,4.189,5.236v5.908h1.927V73.385a44.538,44.538,0,0,1,3.441,9.392L27.964,61.728,26.6,63.09,47.653,84.143c-3.964-.963-11.066-3.291-16.828-8.445h4.391V73.771H28.865a32,32,0,0,1-3.393-4.4h2.476V67.444H24.314A44.056,44.056,0,0,1,19.7,54.828,43.745,43.745,0,0,1,25.5,56.4Z" transform="translate(-16.461 -45.791)" fill="#1d1d1f"/>
        <rect id="Rectángulo_418785" data-name="Rectángulo 418785" width="1.927" height="8.034" transform="translate(14.566 34.699)" fill="#1d1d1f"/>
      </g>
    </g>
  </g>
</svg>
