<svg xmlns="http://www.w3.org/2000/svg" xmlns:xlink="http://www.w3.org/1999/xlink" width="110" height="110" viewBox="0 0 110 110">
  <defs>
    <filter id="Trazado_982547" x="0" y="0" width="110" height="110" filterUnits="userSpaceOnUse">
      <feOffset dy="3" input="SourceAlpha"/>
      <feGaussianBlur stdDeviation="3" result="blur"/>
      <feFlood flood-opacity="0.161"/>
      <feComposite operator="in" in2="blur"/>
      <feComposite in="SourceGraphic"/>
    </filter>
  </defs>
  <g id="Grupo_1211028" data-name="Grupo 1211028" transform="translate(-3653 -6215.28)">
    <g id="Grupo_1209918" data-name="Grupo 1209918" transform="translate(3662 6221.28)">
      <g id="Grupo_1185952" data-name="Grupo 1185952" transform="translate(0 0)">
        <g id="Grupo_1184115" data-name="Grupo 1184115">
          <g id="Grupo_1183744" data-name="Grupo 1183744" transform="translate(0 0)">
            <g id="Grupo_1181546" data-name="Grupo 1181546">
              <g id="Grupo_1177563" data-name="Grupo 1177563">
                <g id="Grupo_1173148" data-name="Grupo 1173148" transform="translate(0 0)">
                  <g id="Grupo_1163803" data-name="Grupo 1163803" transform="translate(0 0)">
                    <g id="Grupo_1163015" data-name="Grupo 1163015" transform="translate(0 0)">
                      <g id="Grupo_1157017" data-name="Grupo 1157017" transform="translate(0 0)">
                        <g id="Grupo_1155793" data-name="Grupo 1155793" transform="translate(0 0)">
                          <g id="Grupo_1154704" data-name="Grupo 1154704" transform="translate(0 0)">
                            <g id="Grupo_1150790" data-name="Grupo 1150790">
                              <g id="Grupo_1154214" data-name="Grupo 1154214">
                                <g id="Grupo_1152583" data-name="Grupo 1152583">
                                  <g id="Grupo_1146973" data-name="Grupo 1146973">
                                    <g id="Grupo_1146954" data-name="Grupo 1146954">
                                      <g transform="matrix(1, 0, 0, 1, -9, -6)" filter="url(#Trazado_982547)">
                                        <g id="Trazado_982547-2" data-name="Trazado 982547" transform="translate(9 6)" fill="#f2d944">
                                          <path d="M 46.00000762939453 90.49988555908203 C 39.99188613891602 90.49988555908203 34.16427612304688 89.32352447509766 28.67906188964844 87.00347137451172 C 23.38020706176758 84.76226043701172 18.62104797363281 81.55342864990234 14.53375434875488 77.46615600585938 C 10.44647407531738 73.37887573242188 7.237647533416748 68.61971282958984 4.996420860290527 63.32085800170898 C 2.676367521286011 57.83565902709961 1.500007629394531 52.00806045532227 1.500007629394531 45.99993896484375 C 1.500007629394531 39.99181747436523 2.676367521286011 34.16421890258789 4.996420860290527 28.67901802062988 C 7.237647533416748 23.38017845153809 10.44647407531738 18.62101936340332 14.53375434875488 14.53373908996582 C 18.62104797363281 10.44645881652832 23.38020706176758 7.237632274627686 28.67906188964844 4.996418952941895 C 34.16427612304688 2.676365613937378 39.99188613891602 1.500005602836609 46.00000762939453 1.500005602836609 C 52.00812911987305 1.500005602836609 57.83573913574219 2.676365613937378 63.32095336914062 4.996418952941895 C 68.61980438232422 7.237632274627686 73.37896728515625 10.44645881652832 77.46626281738281 14.53373908996582 C 81.55354309082031 18.62101936340332 84.76236724853516 23.38017845153809 87.00359344482422 28.67901802062988 C 89.32364654541016 34.16421890258789 90.50000762939453 39.99181747436523 90.50000762939453 45.99993896484375 C 90.50000762939453 52.00806045532227 89.32364654541016 57.83565902709961 87.00359344482422 63.32085800170898 C 84.76236724853516 68.61971282958984 81.55354309082031 73.37887573242188 77.46626281738281 77.46615600585938 C 73.37896728515625 81.55342864990234 68.61980438232422 84.76226043701172 63.32095336914062 87.00347137451172 C 57.83573913574219 89.32352447509766 52.00812911987305 90.49988555908203 46.00000762939453 90.49988555908203 Z" stroke="none"/>
                                          <path d="M 46.00000762939453 2.999992370605469 C 40.19372177124023 2.999992370605469 34.56270599365234 4.136497497558594 29.26339340209961 6.377906799316406 C 24.14333343505859 8.543510437011719 19.54441833496094 11.64437866210938 15.59440612792969 15.59439849853516 C 11.6444091796875 19.54439544677734 8.543525695800781 24.14329528808594 6.377922058105469 29.26335144042969 C 4.136505126953125 34.56266784667969 3.000007629394531 40.19366836547852 3.000007629394531 45.99993896484375 C 3.000007629394531 51.80620956420898 4.136505126953125 57.43722534179688 6.377922058105469 62.73654174804688 C 8.543525695800781 67.85658264160156 11.6444091796875 72.45548248291016 15.59440612792969 76.40549468994141 C 19.54441833496094 80.35549926757812 24.14333343505859 83.45636749267578 29.26337814331055 85.62196350097656 C 34.56270599365234 87.86338043212891 40.19372177124023 88.9998779296875 46.00000762939453 88.9998779296875 C 51.80629348754883 88.9998779296875 57.43730926513672 87.86338043212891 62.73662185668945 85.62196350097656 C 67.85668182373047 83.45636749267578 72.45558166503906 80.35549926757812 76.40559387207031 76.40549468994141 C 80.35560607910156 72.45548248291016 83.45648193359375 67.85658264160156 85.62207794189453 62.73654174804688 C 87.86351013183594 57.43722534179688 89.00000762939453 51.80620956420898 89.00000762939453 45.99993896484375 C 89.00000762939453 40.19366836547852 87.86351013183594 34.56266784667969 85.62207794189453 29.26335144042969 C 83.45648193359375 24.14329528808594 80.35560607910156 19.54439544677734 76.40559387207031 15.59439849853516 C 72.45558166503906 11.64437866210938 67.85668182373047 8.543510437011719 62.73662185668945 6.377906799316406 C 57.43729400634766 4.136497497558594 51.80629348754883 2.999992370605469 46.00000762939453 2.999992370605469 M 46.00000762939453 -7.62939453125e-06 C 71.40509033203125 -7.62939453125e-06 92.00000762939453 20.59487915039062 92.00000762939453 45.99993896484375 C 92.00000762939453 71.40501403808594 71.40509033203125 91.99988555908203 46.00000762939453 91.99988555908203 C 20.59490966796875 91.99988555908203 7.62939453125e-06 71.40501403808594 7.62939453125e-06 45.99993896484375 C 7.62939453125e-06 20.59487915039062 20.59490966796875 -7.62939453125e-06 46.00000762939453 -7.62939453125e-06 Z" stroke="none" fill="#ba9c5a"/>
                                        </g>
                                      </g>
                                    </g>
                                  </g>
                                </g>
                              </g>
                            </g>
                          </g>
                        </g>
                      </g>
                    </g>
                  </g>
                </g>
              </g>
            </g>
          </g>
        </g>
      </g>
    </g>
    <g id="scroll_676338" transform="translate(3677.209 6208.289)">
      <path id="Trazado_1082885" data-name="Trazado 1082885" d="M414.046,376.206a5.783,5.783,0,1,1-5.783,5.783A5.788,5.788,0,0,1,414.046,376.206Z" transform="translate(-359.159 -302.757)" fill="#82613e"/>
      <path id="Trazado_1082886" data-name="Trazado 1082886" d="M414.046,80.111a5.788,5.788,0,0,0-5.783,5.783V45.412a5.783,5.783,0,0,1,11.566,0V85.894A5.788,5.788,0,0,0,414.046,80.111Z" transform="translate(-359.159 -6.662)" fill="#a67c52"/>
      <path id="Trazado_1082887" data-name="Trazado 1082887" d="M13.356,376.206a5.783,5.783,0,1,1-5.783,5.783A5.788,5.788,0,0,1,13.356,376.206Z" transform="translate(-6.662 -302.757)" fill="#82613e"/>
      <path id="Trazado_1082888" data-name="Trazado 1082888" d="M19.139,83.966v1.928a5.783,5.783,0,0,0-11.566,0V45.412a5.783,5.783,0,0,1,11.566,0V83.966Z" transform="translate(-6.662 -6.662)" fill="#a67c52"/>
      <rect id="Rectángulo_418786" data-name="Rectángulo 418786" width="36.626" height="38.555" transform="translate(12.478 38.749)" fill="#c59c73"/>
      <path id="Trazado_1082889" data-name="Trazado 1082889" d="M12.392,382.625v-5.7a5.779,5.779,0,1,0,3.373,10.947A5.784,5.784,0,0,1,12.392,382.625Z" transform="translate(-6.662 -303.393)" fill="#654b2e"/>
      <path id="Trazado_1082890" data-name="Trazado 1082890" d="M12.392,80.2V45.412a5.784,5.784,0,0,1,3.373-5.251,5.772,5.772,0,0,0-8.193,5.251V85.894A5.785,5.785,0,0,1,12.392,80.2Z" transform="translate(-6.662 -6.662)" fill="#916d47"/>
      <rect id="Rectángulo_418787" data-name="Rectángulo 418787" width="6.746" height="38.555" transform="translate(12.478 38.749)" fill="#a3825f"/>
      <path id="Trazado_1082891" data-name="Trazado 1082891" d="M143.945,128.22v2.892h-2.034V128.22h-5.677v3.8h1.822v-1.981h2.034v2.892h5.677v-2.892H147.8v2.892h5.677v-2.892h2.034v2.892h5.677v-2.892h2.034v1.981h1.822v-3.8h-5.677v2.892h-2.034V128.22h-5.677v2.892h-2.034V128.22Z" transform="translate(-119.848 -84.598)" fill="#fff"/>
      <path id="Trazado_1082892" data-name="Trazado 1082892" d="M136.234,193.241v3.8h5.677v-2.892h2.034v2.892h5.677v-2.892h2.034v2.892h5.677v-2.892h2.034v2.892h5.677v-3.8h-1.822v1.981h-2.034V192.33h-5.677v2.892h-2.034V192.33H147.8v2.892h-2.034V192.33h-5.677v2.892h-2.034v-1.981Z" transform="translate(-119.848 -140.997)" fill="#231f20"/>
      <path id="Trazado_1082893" data-name="Trazado 1082893" d="M136.234,260.242h1.822v-1.981h2.034v2.892h5.677v-2.892H147.8v2.892h5.677v-2.892h2.034v2.892h5.677v-2.892h2.034v1.981h1.822v-3.8h-5.677v2.892h-2.034V256.44h-5.677v2.892h-2.034V256.44h-5.677v2.892h-2.034V256.44h-5.677Z" transform="translate(-119.848 -197.396)" fill="#fff"/>
      <rect id="Rectángulo_418788" data-name="Rectángulo 418788" width="1.928" height="1.822" transform="translate(16.332 66.755)" fill="#231f20"/>
      <rect id="Rectángulo_418789" data-name="Rectángulo 418789" width="1.928" height="1.822" transform="translate(20.188 66.755)" fill="#fff"/>
      <rect id="Rectángulo_418790" data-name="Rectángulo 418790" width="1.928" height="1.822" transform="translate(43.32 66.755)" fill="#231f20"/>
      <rect id="Rectángulo_418791" data-name="Rectángulo 418791" width="28.916" height="1.822" transform="translate(16.332 70.61)" fill="#fff"/>
      <g id="Grupo_1211027" data-name="Grupo 1211027" transform="translate(0 32.056)">
        <path id="Trazado_1082894" data-name="Trazado 1082894" d="M13.388,39.661H26.935V37.839H13.324A6.693,6.693,0,0,0,0,38.75V66.7H1.822V38.75a4.872,4.872,0,0,1,9.744,0v35.9a6.679,6.679,0,0,0-9.744,0V69.594H0v9.639a6.694,6.694,0,0,0,13.318.964h.07V78.215h2.945V76.393H13.388V39.661ZM6.694,84.1a4.872,4.872,0,1,1,4.872-4.872A4.878,4.878,0,0,1,6.694,84.1Z" transform="translate(0 -32.056)" fill="#231f20"/>
        <path id="Trazado_1082895" data-name="Trazado 1082895" d="M202.191,46.461V38.75a6.693,6.693,0,0,0-13.324-.911h-18.43v1.822H188.8V76.393H159.834v1.822H188.8v1.017a6.694,6.694,0,0,0,13.318.964h.07V49.352h-1.822v25.3a6.679,6.679,0,0,0-9.744,0V38.75a4.872,4.872,0,0,1,9.744,0v7.711ZM195.5,74.36a4.872,4.872,0,1,1-4.872,4.872A4.878,4.878,0,0,1,195.5,74.36Z" transform="translate(-140.61 -32.056)" fill="#231f20"/>
        <path id="Trazado_1082896" data-name="Trazado 1082896" d="M34.893,404.544a1.017,1.017,0,1,1,0-2.034v-1.822a2.839,2.839,0,1,0,2.839,2.839H35.91A1.018,1.018,0,0,1,34.893,404.544Z" transform="translate(-28.199 -356.351)" fill="#231f20"/>
        <path id="Trazado_1082897" data-name="Trazado 1082897" d="M435.583,406.365a2.842,2.842,0,0,0,2.839-2.839H436.6a1.017,1.017,0,1,1-1.017-1.017v-1.822a2.839,2.839,0,0,0,0,5.677Z" transform="translate(-380.695 -356.351)" fill="#231f20"/>
        <rect id="Rectángulo_418792" data-name="Rectángulo 418792" width="1.822" height="21.205" transform="translate(3.855 8.622)" fill="#231f20"/>
        <rect id="Rectángulo_418793" data-name="Rectángulo 418793" width="1.822" height="1.928" transform="translate(3.855 31.754)" fill="#231f20"/>
      </g>
      <rect id="Rectángulo_418794" data-name="Rectángulo 418794" width="1.822" height="1.928" transform="translate(3.855 67.666)" fill="#fff"/>
      <rect id="Rectángulo_418795" data-name="Rectángulo 418795" width="1.822" height="21.205" transform="translate(52.048 40.678)" fill="#231f20"/>
      <rect id="Rectángulo_418796" data-name="Rectángulo 418796" width="1.822" height="1.928" transform="translate(52.048 63.81)" fill="#fff"/>
      <rect id="Rectángulo_418797" data-name="Rectángulo 418797" width="1.822" height="1.928" transform="translate(52.048 67.666)" fill="#231f20"/>
    </g>
  </g>
</svg>
