<svg xmlns="http://www.w3.org/2000/svg" xmlns:xlink="http://www.w3.org/1999/xlink" width="295" height="241" viewBox="0 0 295 241">
  <defs>
    <clipPath id="clip-path">
      <rect id="Rectángulo_419004" data-name="Rectángulo 419004" width="295" height="241" transform="translate(180 883)" fill="#fff" stroke="#707070" stroke-width="1"/>
    </clipPath>
    <clipPath id="clip-path-2">
      <path id="Trazado_1083620" data-name="Trazado 1083620" d="M217.756,419.637H153.99c-4.283,0-7.788,3.157-7.788,7.015s3.5,7.015,7.788,7.015h63.765Z" transform="translate(-146.202 -419.637)"/>
    </clipPath>
    <clipPath id="clip-path-3">
      <path id="Trazado_1083625" data-name="Trazado 1083625" d="M129.751,391.83h63.765c4.283,0,7.788,3.157,7.788,7.015s-3.5,7.015-7.788,7.015H129.751Z" transform="translate(-129.751 -391.83)"/>
    </clipPath>
    <clipPath id="clip-path-4">
      <path id="Trazado_1083630" data-name="Trazado 1083630" d="M206.6,364.159H153.99c-4.283,0-7.788,3.157-7.788,7.015s3.5,7.015,7.788,7.015H206.6v-14.03Z" transform="translate(-146.202 -364.159)"/>
    </clipPath>
  </defs>
  <g id="Enmascarar_grupo_1098918" data-name="Enmascarar grupo 1098918" transform="translate(-180 -883)" clip-path="url(#clip-path)">
    <g id="Grupo_1211504" data-name="Grupo 1211504">
      <rect id="Rectángulo_419003" data-name="Rectángulo 419003" width="295" height="117" rx="17" transform="translate(180 965)" fill="#cbd0dc"/>
      <g id="Grupo_1211503" data-name="Grupo 1211503" transform="translate(-4.998 24.215)">
        <g id="OBJECTS" transform="translate(195 889.072)">
          <ellipse id="Elipse_14317" data-name="Elipse 14317" cx="108.873" cy="6.725" rx="108.873" ry="6.725" transform="translate(26.495 198.129)" fill="#efe3d8"/>
          <g id="Grupo_1211502" data-name="Grupo 1211502" transform="translate(0 0)">
            <g id="Grupo_1211436" data-name="Grupo 1211436" transform="translate(169.821 88.956)">
              <g id="Grupo_1211418" data-name="Grupo 1211418">
                <path id="Trazado_1083579" data-name="Trazado 1083579" d="M452.267,290.876s11.713,3.931,6.771,17.067L447.482,303.6Z" transform="translate(-350.71 -272.199)" fill="#d9ae5f"/>
                <path id="Trazado_1083580" data-name="Trazado 1083580" d="M357.293,263.064l-.008.022c-13.159-4.428-16.333,8.349-16.333,8.349l-30.007,79.757,58.777,22.114,34.793-92.476Z" transform="translate(-302.957 -262.154)" fill="#f2e4ce"/>
                <path id="Trazado_1083581" data-name="Trazado 1083581" d="M392.622,283.995a81.272,81.272,0,0,1-4.564,18.194c-11.871,31.552-40.322,50.047-63.548,41.308a33.635,33.635,0,0,1-6.547-3.324l-7.02,18.658,58.777,22.114,34.793-92.475Z" transform="translate(-302.957 -269.793)" fill="#061726" opacity="0.1"/>
                <path id="Trazado_1083582" data-name="Trazado 1083582" d="M358.655,394.947l-47.221-17.766-11.556-4.348c-4.942,13.136,6.771,17.067,6.771,17.067l58.531,22.022C363.536,411.27,354.136,406.957,358.655,394.947Z" transform="translate(-298.661 -300.863)" fill="#d9ae5f"/>
              </g>
              <g id="Grupo_1211435" data-name="Grupo 1211435" transform="translate(20.039 12.303)">
                <g id="Grupo_1211421" data-name="Grupo 1211421" transform="translate(34.216)">
                  <g id="Grupo_1211419" data-name="Grupo 1211419" transform="translate(0 4.744)">
                    <path id="Trazado_1083583" data-name="Trazado 1083583" d="M384.377,298.648l.73-3.361L382.1,293.62l11.585-5.251,2.279,5.028Z" transform="translate(-382.098 -288.369)" fill="#d9ae5f"/>
                    <path id="Trazado_1083584" data-name="Trazado 1083584" d="M402.75,304.235l1.667-3.009,3.362.73-5.251-11.586-5.029,2.279Z" transform="translate(-387.484 -289.069)" fill="#d9ae5f"/>
                  </g>
                  <g id="Grupo_1211420" data-name="Grupo 1211420" transform="translate(4.894)">
                    <path id="Trazado_1083585" data-name="Trazado 1083585" d="M404.368,291.326c-.194.516-1.2.606-1.5,1.047s.009,1.419-.376,1.786-1.341.017-1.8.291-.6,1.28-1.115,1.446-1.211-.565-1.751-.516-1.091.893-1.632.819c-.523-.072-.836-1.034-1.352-1.228s-1.385.323-1.827.032-.319-1.306-.687-1.692-1.383-.3-1.657-.766.282-1.31.116-1.822-1.115-.868-1.163-1.407.821-1.051.895-1.591c.072-.523-.628-1.258-.434-1.773s1.2-.606,1.5-1.047-.009-1.419.376-1.786,1.341-.017,1.8-.291.6-1.28,1.115-1.446,1.211.565,1.751.516,1.091-.893,1.632-.819c.523.072.837,1.034,1.352,1.228s1.385-.323,1.827-.032.319,1.306.687,1.692,1.383.3,1.658.766-.282,1.31-.116,1.822,1.115.868,1.163,1.407-.821,1.051-.895,1.591C403.862,290.076,404.562,290.81,404.368,291.326Z" transform="translate(-389.624 -281.074)" fill="#d9ae5f"/>
                    <path id="Trazado_1083586" data-name="Trazado 1083586" d="M403.6,291.672c-.146.386-.9.454-1.121.785s.007,1.064-.282,1.34-1.006.013-1.351.218-.451.96-.836,1.085-.908-.424-1.313-.388-.818.67-1.223.615-.628-.775-1.014-.921-1.038.242-1.369.024-.239-.979-.515-1.269-1.037-.229-1.243-.574.211-.982.086-1.366-.836-.651-.872-1.055.615-.788.67-1.193-.471-.943-.326-1.329.9-.454,1.121-.785-.007-1.064.282-1.34,1.006-.013,1.351-.218.451-.96.836-1.085.908.424,1.313.388.818-.67,1.223-.615.627.775,1.014.921,1.038-.242,1.369-.024.239.979.515,1.269,1.037.229,1.243.574-.211.982-.086,1.366.836.651.872,1.055-.615.788-.67,1.193S403.75,291.286,403.6,291.672Z" transform="translate(-390.648 -282.092)" fill="#f2e4ce"/>
                  </g>
                </g>
                <g id="Grupo_1211434" data-name="Grupo 1211434" transform="translate(0 15.951)">
                  <g id="Grupo_1211424" data-name="Grupo 1211424" transform="translate(13.779 0)">
                    <g id="Grupo_1211422" data-name="Grupo 1211422" transform="translate(2.296)">
                      <rect id="Rectángulo_418965" data-name="Rectángulo 418965" width="0.652" height="52.229" transform="translate(0 0.61) rotate(-69.383)" fill="#d9ae5f"/>
                    </g>
                    <g id="Grupo_1211423" data-name="Grupo 1211423" transform="translate(0 6.103)">
                      <rect id="Rectángulo_418966" data-name="Rectángulo 418966" width="0.652" height="52.229" transform="translate(0 0.61) rotate(-69.383)" fill="#d9ae5f"/>
                    </g>
                  </g>
                  <g id="Grupo_1211427" data-name="Grupo 1211427" transform="translate(9.186 12.206)">
                    <g id="Grupo_1211425" data-name="Grupo 1211425" transform="translate(2.296 0)">
                      <rect id="Rectángulo_418967" data-name="Rectángulo 418967" width="0.652" height="52.229" transform="translate(0 0.61) rotate(-69.383)" fill="#d9ae5f"/>
                    </g>
                    <g id="Grupo_1211426" data-name="Grupo 1211426" transform="translate(0 6.103)">
                      <rect id="Rectángulo_418968" data-name="Rectángulo 418968" width="0.652" height="52.229" transform="translate(0 0.61) rotate(-69.383)" fill="#d9ae5f"/>
                    </g>
                  </g>
                  <g id="Grupo_1211430" data-name="Grupo 1211430" transform="translate(4.593 24.412)">
                    <g id="Grupo_1211428" data-name="Grupo 1211428" transform="translate(2.296 0)">
                      <rect id="Rectángulo_418969" data-name="Rectángulo 418969" width="0.652" height="52.229" transform="translate(0 0.61) rotate(-69.383)" fill="#d9ae5f"/>
                    </g>
                    <g id="Grupo_1211429" data-name="Grupo 1211429" transform="translate(0 6.102)">
                      <rect id="Rectángulo_418970" data-name="Rectángulo 418970" width="0.652" height="52.229" transform="translate(0 0.61) rotate(-69.383)" fill="#d9ae5f"/>
                    </g>
                  </g>
                  <g id="Grupo_1211433" data-name="Grupo 1211433" transform="translate(0 36.617)">
                    <g id="Grupo_1211431" data-name="Grupo 1211431" transform="translate(2.297 0)">
                      <rect id="Rectángulo_418971" data-name="Rectángulo 418971" width="0.652" height="52.229" transform="translate(0 0.61) rotate(-69.383)" fill="#d9ae5f"/>
                    </g>
                    <g id="Grupo_1211432" data-name="Grupo 1211432" transform="translate(0 6.103)">
                      <rect id="Rectángulo_418972" data-name="Rectángulo 418972" width="0.652" height="52.229" transform="translate(0 0.61) rotate(-69.383)" fill="#d9ae5f"/>
                    </g>
                  </g>
                </g>
              </g>
            </g>
            <g id="Grupo_1211439" data-name="Grupo 1211439" transform="translate(0 88.274)">
              <path id="Trazado_1083587" data-name="Trazado 1083587" d="M102.866,261.1,43.372,280.37a8.513,8.513,0,0,0-5.46,10.69l24.613,76a8.513,8.513,0,0,0,10.69,5.46l59.494-19.266Z" transform="translate(-37.501 -261.104)" fill="#f2e4ce"/>
              <g id="Grupo_1211438" data-name="Grupo 1211438" transform="translate(15.709 12.906)">
                <path id="Trazado_1083588" data-name="Trazado 1083588" d="M131.079,349.081l-21.34-65.9a3.115,3.115,0,0,1-3.922-2c-.025-.076-.031-.153-.049-.229l-42.2,13.666c.03.073.07.138.094.215a3.114,3.114,0,0,1-2,3.922L83,364.651a3.114,3.114,0,0,1,3.922,2L129.076,353A3.115,3.115,0,0,1,131.079,349.081Z" transform="translate(-61.658 -280.951)" fill="#d9ae5f"/>
                <g id="Grupo_1211437" data-name="Grupo 1211437" transform="translate(9.175 11.872)">
                  <rect id="Rectángulo_418973" data-name="Rectángulo 418973" width="36.138" height="17.037" transform="translate(0 11.134) rotate(-17.944)" fill="#f2e4ce"/>
                  <text id="LAW" transform="translate(7.704 20.717) rotate(-17.944)" fill="#d9ae5f" font-size="9" font-family="Montserrat-Black, Montserrat" font-weight="800"><tspan x="0" y="0">LAW</tspan></text>
                </g>
              </g>
              <path id="Trazado_1083589" data-name="Trazado 1083589" d="M44.654,290.094l-1.282.415a8.513,8.513,0,0,0-5.46,10.69l24.613,76a8.513,8.513,0,0,0,10.69,5.46l1.282-.415Z" transform="translate(-37.501 -271.243)" fill="#d9ae5f"/>
              <path id="Trazado_1083590" data-name="Trazado 1083590" d="M104.817,264.455a87.015,87.015,0,0,1,9.654,20.438c10.869,33.564.3,67.049-23.606,74.79a34.414,34.414,0,0,1-18.2.719l2.158,6.663a8.513,8.513,0,0,0,10.69,5.46l59.494-19.266L115.165,261.1Z" transform="translate(-49.799 -261.104)" fill="#061726" opacity="0.1"/>
            </g>
            <g id="Grupo_1211446" data-name="Grupo 1211446" transform="translate(36.529 139.287)">
              <g id="Grupo_1211442" data-name="Grupo 1211442" transform="translate(157.469)">
                <g id="Grupo_1211440" data-name="Grupo 1211440" transform="translate(4.973)">
                  <path id="Trazado_1083591" data-name="Trazado 1083591" d="M343.574,387.271a26.572,26.572,0,0,1-.021-3.968q.111-1.914.384-3.736a50.521,50.521,0,0,1,1.57-7.014,60.833,60.833,0,0,1,5.474-12.695,60.136,60.136,0,0,1,8.137-11.173,49.942,49.942,0,0,1,5.247-4.913q1.435-1.158,3.029-2.225a26.343,26.343,0,0,1,3.439-1.991,26.421,26.421,0,0,1,.031,3.973q-.108,1.916-.378,3.74a49.977,49.977,0,0,1-1.567,7.016,60.107,60.107,0,0,1-5.491,12.685,60.808,60.808,0,0,1-8.155,11.163,50.533,50.533,0,0,1-5.244,4.915q-1.434,1.159-3.023,2.228A26.5,26.5,0,0,1,343.574,387.271Z" transform="translate(-343.489 -339.555)" fill="#065691"/>
                  <path id="Trazado_1083592" data-name="Trazado 1083592" d="M346.193,386.069c1.636-3.661,3.436-7.229,5.293-10.764.913-1.776,1.886-3.519,2.831-5.277l2.923-5.224,3.013-5.173c1.036-1.706,2.04-3.43,3.107-5.118,2.1-3.4,4.26-6.757,6.586-10.025-1.634,3.662-3.433,7.23-5.29,10.765-.912,1.776-1.888,3.517-2.831,5.276l-2.926,5.222-3.015,5.172c-1.035,1.707-2.041,3.429-3.108,5.118C350.675,379.438,348.516,382.8,346.193,386.069Z" transform="translate(-344.435 -341.281)" fill="#1a72b5"/>
                </g>
                <g id="Grupo_1211441" data-name="Grupo 1211441" transform="translate(0 21.571)">
                  <path id="Trazado_1083593" data-name="Trazado 1083593" d="M335.841,403.572A26.635,26.635,0,0,1,337.568,400q.942-1.67,1.99-3.186a50.49,50.49,0,0,1,4.5-5.606,60.832,60.832,0,0,1,10.5-8.989,60.155,60.155,0,0,1,12.225-6.45,49.945,49.945,0,0,1,6.875-2.1q1.8-.408,3.7-.665a26.389,26.389,0,0,1,3.964-.274,26.416,26.416,0,0,1-1.721,3.581q-.941,1.672-1.986,3.191a50.06,50.06,0,0,1-4.5,5.609,60.12,60.12,0,0,1-10.515,8.972,60.865,60.865,0,0,1-12.237,6.433,50.465,50.465,0,0,1-6.873,2.1q-1.8.409-3.7.67A26.732,26.732,0,0,1,335.841,403.572Z" transform="translate(-335.841 -372.727)" fill="#035aa6"/>
                  <path id="Trazado_1083594" data-name="Trazado 1083594" d="M340.134,402.8c3.081-2.567,6.267-4.978,9.491-7.334,1.6-1.193,3.242-2.329,4.865-3.491l4.924-3.4,4.982-3.318c1.682-1.076,3.342-2.182,5.043-3.228,3.381-2.124,6.8-4.192,10.327-6.1-3.08,2.569-6.265,4.98-9.49,7.336-1.6,1.193-3.243,2.327-4.865,3.491l-4.926,3.4-4.984,3.316c-1.68,1.077-3.343,2.18-5.043,3.228C347.077,398.815,343.658,400.883,340.134,402.8Z" transform="translate(-337.342 -373.844)" fill="#3a8cc9"/>
                </g>
              </g>
              <g id="Grupo_1211445" data-name="Grupo 1211445">
                <g id="Grupo_1211443" data-name="Grupo 1211443" transform="translate(13.076)">
                  <path id="Trazado_1083595" data-name="Trazado 1083595" d="M141.134,387.271a26.568,26.568,0,0,0,.021-3.968q-.111-1.914-.384-3.736a50.514,50.514,0,0,0-1.57-7.014,60.831,60.831,0,0,0-5.474-12.695,60.11,60.11,0,0,0-8.137-11.173,49.941,49.941,0,0,0-5.247-4.913q-1.435-1.158-3.029-2.225a26.345,26.345,0,0,0-3.439-1.991,26.419,26.419,0,0,0-.031,3.973q.108,1.916.378,3.74a49.985,49.985,0,0,0,1.567,7.016,60.109,60.109,0,0,0,5.491,12.685,60.812,60.812,0,0,0,8.155,11.163,50.534,50.534,0,0,0,5.244,4.915q1.434,1.159,3.023,2.228A26.552,26.552,0,0,0,141.134,387.271Z" transform="translate(-113.785 -339.555)" fill="#065691"/>
                  <path id="Trazado_1083596" data-name="Trazado 1083596" d="M140.495,386.069c-1.636-3.661-3.436-7.229-5.293-10.764-.913-1.776-1.886-3.519-2.831-5.277l-2.923-5.224-3.013-5.173c-1.036-1.706-2.041-3.43-3.108-5.118-2.1-3.4-4.26-6.757-6.586-10.025,1.634,3.662,3.433,7.23,5.29,10.765.912,1.776,1.888,3.517,2.831,5.276l2.926,5.222,3.015,5.172c1.035,1.707,2.041,3.429,3.108,5.118C136.013,379.438,138.172,382.8,140.495,386.069Z" transform="translate(-114.82 -341.281)" fill="#1a72b5"/>
                </g>
                <g id="Grupo_1211444" data-name="Grupo 1211444" transform="translate(0 21.571)">
                  <path id="Trazado_1083597" data-name="Trazado 1083597" d="M139.159,403.572A26.642,26.642,0,0,0,137.431,400q-.943-1.67-1.99-3.186a50.488,50.488,0,0,0-4.5-5.606,60.832,60.832,0,0,0-10.5-8.989,60.154,60.154,0,0,0-12.225-6.45,49.945,49.945,0,0,0-6.875-2.1q-1.8-.408-3.7-.665a26.388,26.388,0,0,0-3.964-.274,26.4,26.4,0,0,0,1.721,3.581q.941,1.672,1.986,3.191a50.06,50.06,0,0,0,4.5,5.609,60.145,60.145,0,0,0,10.515,8.972,60.864,60.864,0,0,0,12.237,6.433,50.463,50.463,0,0,0,6.873,2.1q1.8.409,3.7.67A26.745,26.745,0,0,0,139.159,403.572Z" transform="translate(-93.677 -372.727)" fill="#035aa6"/>
                  <path id="Trazado_1083598" data-name="Trazado 1083598" d="M138.012,402.8c-3.081-2.567-6.267-4.978-9.491-7.334-1.6-1.193-3.242-2.329-4.865-3.491l-4.924-3.4-4.982-3.318c-1.682-1.076-3.342-2.182-5.043-3.228-3.381-2.124-6.8-4.192-10.327-6.1,3.08,2.569,6.265,4.98,9.49,7.336,1.6,1.193,3.243,2.327,4.865,3.491l4.926,3.4,4.984,3.316c1.68,1.077,3.343,2.18,5.043,3.228C131.069,398.815,134.488,400.883,138.012,402.8Z" transform="translate(-95.322 -373.844)" fill="#3a8cc9"/>
                </g>
              </g>
            </g>
            <g id="Grupo_1211452" data-name="Grupo 1211452" transform="translate(56.681 66.169)">
              <g id="Grupo_1211451" data-name="Grupo 1211451">
                <rect id="Rectángulo_418974" data-name="Rectángulo 418974" width="142.473" height="126.405" transform="translate(10.087 7.062)" fill="#bf7c63"/>
                <rect id="Rectángulo_418975" data-name="Rectángulo 418975" width="151.4" height="24.531" transform="translate(5.624 2.678)" fill="#b25f46"/>
                <rect id="Rectángulo_418976" data-name="Rectángulo 418976" width="162.647" height="8.055" fill="#a54832"/>
                <g id="Grupo_1211448" data-name="Grupo 1211448" transform="translate(10.087 27.209)">
                  <rect id="Rectángulo_418977" data-name="Rectángulo 418977" width="26.513" height="106.258" fill="#a54832"/>
                  <g id="Grupo_1211447" data-name="Grupo 1211447" transform="translate(6.816)">
                    <rect id="Rectángulo_418978" data-name="Rectángulo 418978" width="3.303" height="106.258" fill="#b25f46"/>
                    <rect id="Rectángulo_418979" data-name="Rectángulo 418979" width="3.303" height="106.258" transform="translate(9.83)" fill="#b25f46"/>
                  </g>
                </g>
                <g id="Grupo_1211450" data-name="Grupo 1211450" transform="translate(126.048 27.209)">
                  <rect id="Rectángulo_418980" data-name="Rectángulo 418980" width="26.513" height="106.258" transform="translate(0)" fill="#a54832"/>
                  <g id="Grupo_1211449" data-name="Grupo 1211449" transform="translate(6.816)">
                    <rect id="Rectángulo_418981" data-name="Rectángulo 418981" width="3.303" height="106.258" fill="#b25f46"/>
                    <rect id="Rectángulo_418982" data-name="Rectángulo 418982" width="3.303" height="106.258" transform="translate(9.83)" fill="#b25f46"/>
                  </g>
                </g>
                <path id="Trazado_1083599" data-name="Trazado 1083599" d="M265.489,358.587V299.161A10.791,10.791,0,0,1,254.7,288.369h-46.61a10.791,10.791,0,0,1-10.792,10.792v59.426a10.791,10.791,0,0,1,10.792,10.792H254.7A10.792,10.792,0,0,1,265.489,358.587Z" transform="translate(-150.068 -248.536)" fill="#af6c58"/>
                <path id="Trazado_1083600" data-name="Trazado 1083600" d="M260.141,355.9V316.638a7.13,7.13,0,0,1-7.129-7.129H222.22a7.13,7.13,0,0,1-7.129,7.129V355.9a7.13,7.13,0,0,1,7.129,7.129h30.792A7.13,7.13,0,0,1,260.141,355.9Z" transform="translate(-156.292 -255.929)" fill="#bf7c63"/>
                <rect id="Rectángulo_418983" data-name="Rectángulo 418983" width="156.829" height="7.326" transform="translate(2.909 20.01)" fill="#bc6551"/>
              </g>
            </g>
            <g id="Grupo_1211473" data-name="Grupo 1211473" transform="translate(68.927 0)">
              <g id="Grupo_1211471" data-name="Grupo 1211471">
                <g id="Grupo_1211467" data-name="Grupo 1211467" transform="translate(0 0.211)">
                  <g id="Grupo_1211459" data-name="Grupo 1211459" transform="translate(67.679)">
                    <g id="Grupo_1211456" data-name="Grupo 1211456" transform="translate(36.233 3.528)">
                      <path id="Trazado_1083601" data-name="Trazado 1083601" d="M337.023,157.2,323.3,134.563l-1.965-3.243a.455.455,0,0,0-.778,0l-13.718,22.639-1.965,3.243a.451.451,0,0,0,.778.455l13.718-22.639,1.576-2.6,13.33,22,1.965,3.243A.451.451,0,0,0,337.023,157.2Z" transform="translate(-303.829 -131.102)" fill="#e5ceae"/>
                      <g id="Grupo_1211455" data-name="Grupo 1211455" transform="translate(0 24.838)">
                        <g id="Grupo_1211453" data-name="Grupo 1211453" transform="translate(1.437 1.488)">
                          <path id="Trazado_1083602" data-name="Trazado 1083602" d="M321.2,187.273a15.684,15.684,0,0,0,15.684-15.684H305.512A15.685,15.685,0,0,0,321.2,187.273Z" transform="translate(-305.512 -171.589)" fill="#d9ae5f"/>
                          <path id="Trazado_1083603" data-name="Trazado 1083603" d="M336.479,171.589a15.686,15.686,0,0,1-12.2,15.291,15.678,15.678,0,0,0,19.166-15.291Z" transform="translate(-312.075 -171.589)" fill="#061726" opacity="0.1"/>
                        </g>
                        <g id="Grupo_1211454" data-name="Grupo 1211454">
                          <path id="Trazado_1083604" data-name="Trazado 1083604" d="M304.74,172.277h31.368a1.489,1.489,0,0,0,0-2.977H304.74a1.489,1.489,0,0,0,0,2.977Z" transform="translate(-303.302 -169.3)" fill="#bf7c63"/>
                        </g>
                      </g>
                    </g>
                    <g id="Grupo_1211458" data-name="Grupo 1211458">
                      <path id="Trazado_1083605" data-name="Trazado 1083605" d="M304.158,129.414a3.738,3.738,0,1,0-6.26,2.744c-3.618,2.325-7.234,4.653-10.867,6.953a10.631,10.631,0,0,1-6.436,1.467,11.011,11.011,0,0,1-5.253-1.856c-2.714-1.71-5.384-3.649-8.258-5.086a30.317,30.317,0,0,0-9.854-3,70.284,70.284,0,0,0-8.344-.122,1.351,1.351,0,0,0,0,2.7c2.456,0,4.95-.133,7.4.031a25.5,25.5,0,0,1,8.6,2.325,76.545,76.545,0,0,1,8.832,5.32,14.127,14.127,0,0,0,4.926,2.139,13.966,13.966,0,0,0,9.013-1.153c2.388-1.257,4.619-2.919,6.888-4.372l7.185-4.6A3.731,3.731,0,0,0,304.158,129.414Z" transform="translate(-247.581 -125.676)" fill="#d9ae5f"/>
                      <g id="Grupo_1211457" data-name="Grupo 1211457" transform="translate(0 3.002)" opacity="0.1">
                        <path id="Trazado_1083606" data-name="Trazado 1083606" d="M301.731,133.077l-7.185,4.6c-2.269,1.453-4.5,3.116-6.888,4.372a13.965,13.965,0,0,1-9.013,1.153,14.126,14.126,0,0,1-4.926-2.139,76.459,76.459,0,0,0-8.832-5.32,25.526,25.526,0,0,0-8.6-2.325c-2.45-.164-4.943-.031-7.4-.031a1.225,1.225,0,0,1-1.123-.629,1.356,1.356,0,0,0,1.123,2.07c2.456,0,4.95-.133,7.4.031a25.5,25.5,0,0,1,8.6,2.325,76.547,76.547,0,0,1,8.832,5.32,14.127,14.127,0,0,0,4.926,2.139,13.966,13.966,0,0,0,9.013-1.153c2.388-1.257,4.619-2.919,6.888-4.372l7.185-4.6a3.717,3.717,0,0,0,2.353-4.225A3.739,3.739,0,0,1,301.731,133.077Z" transform="translate(-247.581 -130.293)" fill="#061726"/>
                      </g>
                    </g>
                  </g>
                  <g id="Grupo_1211466" data-name="Grupo 1211466">
                    <g id="Grupo_1211463" data-name="Grupo 1211463" transform="translate(0 3.528)">
                      <path id="Trazado_1083607" data-name="Trazado 1083607" d="M145.076,157.2l13.718-22.639,1.965-3.243a.455.455,0,0,1,.777,0l13.718,22.639,1.965,3.243a.451.451,0,0,1-.778.455l-13.718-22.639-1.576-2.6-13.33,22-1.965,3.243A.45.45,0,0,1,145.076,157.2Z" transform="translate(-144.027 -131.102)" fill="#e5ceae"/>
                      <g id="Grupo_1211462" data-name="Grupo 1211462" transform="translate(0 24.838)">
                        <g id="Grupo_1211460" data-name="Grupo 1211460" transform="translate(1.438 1.488)">
                          <path id="Trazado_1083608" data-name="Trazado 1083608" d="M161.395,187.273a15.684,15.684,0,0,1-15.684-15.684h31.368A15.684,15.684,0,0,1,161.395,187.273Z" transform="translate(-145.711 -171.589)" fill="#d9ae5f"/>
                          <path id="Trazado_1083609" data-name="Trazado 1083609" d="M152.675,171.589a15.686,15.686,0,0,0,12.2,15.291,15.678,15.678,0,0,1-19.166-15.291Z" transform="translate(-145.711 -171.589)" fill="#061726" opacity="0.1"/>
                        </g>
                        <g id="Grupo_1211461" data-name="Grupo 1211461">
                          <path id="Trazado_1083610" data-name="Trazado 1083610" d="M176.305,172.277H144.938a1.489,1.489,0,0,1,0-2.977h31.368a1.489,1.489,0,0,1,0,2.977Z" transform="translate(-143.5 -169.3)" fill="#bf7c63"/>
                        </g>
                      </g>
                    </g>
                    <g id="Grupo_1211465" data-name="Grupo 1211465" transform="translate(13.899)">
                      <path id="Trazado_1083611" data-name="Trazado 1083611" d="M164.875,129.414a3.738,3.738,0,1,1,6.259,2.744c3.618,2.325,7.234,4.653,10.867,6.953a10.631,10.631,0,0,0,6.436,1.467,11.011,11.011,0,0,0,5.253-1.856c2.714-1.71,5.384-3.649,8.258-5.086a30.317,30.317,0,0,1,9.854-3,70.272,70.272,0,0,1,8.343-.122,1.351,1.351,0,0,1,0,2.7c-2.456,0-4.95-.133-7.4.031a25.5,25.5,0,0,0-8.6,2.325,76.546,76.546,0,0,0-8.832,5.32,14.127,14.127,0,0,1-4.926,2.139,13.963,13.963,0,0,1-9.012-1.153c-2.388-1.257-4.619-2.919-6.888-4.372l-7.185-4.6A3.732,3.732,0,0,1,164.875,129.414Z" transform="translate(-164.875 -125.676)" fill="#d9ae5f"/>
                      <g id="Grupo_1211464" data-name="Grupo 1211464" transform="translate(0 3.002)" opacity="0.1">
                        <path id="Trazado_1083612" data-name="Trazado 1083612" d="M167.3,133.077l7.185,4.6c2.269,1.453,4.5,3.116,6.888,4.372a13.964,13.964,0,0,0,9.012,1.153,14.126,14.126,0,0,0,4.926-2.139,76.459,76.459,0,0,1,8.832-5.32,25.526,25.526,0,0,1,8.6-2.325c2.45-.164,4.943-.031,7.4-.031a1.225,1.225,0,0,0,1.123-.629,1.356,1.356,0,0,1-1.123,2.07c-2.456,0-4.95-.133-7.4.031a25.5,25.5,0,0,0-8.6,2.325,76.549,76.549,0,0,0-8.832,5.32,14.127,14.127,0,0,1-4.926,2.139,13.963,13.963,0,0,1-9.012-1.153c-2.388-1.257-4.619-2.919-6.888-4.372l-7.185-4.6a3.717,3.717,0,0,1-2.353-4.225A3.738,3.738,0,0,0,167.3,133.077Z" transform="translate(-164.875 -130.293)" fill="#061726"/>
                      </g>
                    </g>
                  </g>
                </g>
                <g id="Grupo_1211470" data-name="Grupo 1211470" transform="translate(62.679)">
                  <g id="Grupo_1211468" data-name="Grupo 1211468" transform="translate(2.402 5.809)">
                    <path id="Trazado_1083613" data-name="Trazado 1083613" d="M251.577,191.648a.69.69,0,0,1-.693.72h-6.6a.691.691,0,0,1-.694-.72l2.107-56.643a.756.756,0,0,1,.747-.72h2.283a.756.756,0,0,1,.747.72Z" transform="translate(-243.585 -134.286)" fill="#d9ae5f"/>
                    <path id="Trazado_1083614" data-name="Trazado 1083614" d="M251.075,135.007a.755.755,0,0,0-.747-.72h-2.154a.756.756,0,0,1,.747.72l2.107,56.643a.69.69,0,0,1-.693.72h2.154a.69.69,0,0,0,.693-.72Z" transform="translate(-245.19 -134.286)" fill="#061726" opacity="0.1"/>
                  </g>
                  <g id="Grupo_1211469" data-name="Grupo 1211469" transform="translate(0)">
                    <circle id="Elipse_14318" data-name="Elipse 14318" cx="5.298" cy="5.298" r="5.298" transform="translate(0 10.299) rotate(-76.385)" fill="#d9ae5f"/>
                    <path id="Trazado_1083615" data-name="Trazado 1083615" d="M251.328,133.335a3.453,3.453,0,1,1-3.453-3.454A3.453,3.453,0,0,1,251.328,133.335Z" transform="translate(-241.475 -126.936)" fill="#f2e4ce"/>
                  </g>
                </g>
              </g>
              <g id="Grupo_1211472" data-name="Grupo 1211472" transform="translate(48.661 57.839)">
                <path id="Trazado_1083616" data-name="Trazado 1083616" d="M259.166,222.631c-3.15-4.87-11.1-8.33-20.417-8.33s-17.267,3.459-20.417,8.33Z" transform="translate(-218.333 -214.3)" fill="#d9ae5f"/>
                <path id="Trazado_1083617" data-name="Trazado 1083617" d="M236.8,215.862c8.284,0,15.478,2.738,19.188,6.768h8.171c-3.15-4.87-11.1-8.33-20.417-8.33a33.757,33.757,0,0,0-11.145,1.812A36.574,36.574,0,0,1,236.8,215.862Z" transform="translate(-223.32 -214.3)" fill="#061726" opacity="0.1"/>
              </g>
            </g>
            <g id="Grupo_1211492" data-name="Grupo 1211492" transform="translate(59.986 153.26)">
              <g id="Grupo_1211479" data-name="Grupo 1211479" transform="translate(3.287 36.075)">
                <g id="Grupo_1211478" data-name="Grupo 1211478" transform="translate(0.001)">
                  <g id="Grupo_1211477" data-name="Grupo 1211477">
                    <path id="Trazado_1083618" data-name="Trazado 1083618" d="M213.77,416.522H144.843c-5.52,0-10.036,4.068-10.036,9.04s4.517,9.041,10.036,9.041h68.928V416.522Z" transform="translate(-134.807 -416.522)" fill="#035aa6"/>
                    <g id="Grupo_1211476" data-name="Grupo 1211476" transform="translate(7.41 2.026)">
                      <path id="Trazado_1083619" data-name="Trazado 1083619" d="M217.756,419.637H153.99c-4.283,0-7.788,3.157-7.788,7.015s3.5,7.015,7.788,7.015h63.765Z" transform="translate(-146.202 -419.637)" fill="#f2e4ce"/>
                      <g id="Grupo_1211475" data-name="Grupo 1211475">
                        <g id="Grupo_1211474" data-name="Grupo 1211474" clip-path="url(#clip-path-2)">
                          <rect id="Rectángulo_418984" data-name="Rectángulo 418984" width="87.749" height="0.558" transform="translate(-4.636 1.639)" fill="#d9ae5f"/>
                          <rect id="Rectángulo_418985" data-name="Rectángulo 418985" width="87.749" height="0.558" transform="translate(-4.636 4.984)" fill="#d9ae5f"/>
                          <rect id="Rectángulo_418986" data-name="Rectángulo 418986" width="87.749" height="0.557" transform="translate(-4.636 8.33)" fill="#d9ae5f"/>
                          <rect id="Rectángulo_418987" data-name="Rectángulo 418987" width="87.749" height="0.558" transform="translate(-4.636 11.675)" fill="#d9ae5f"/>
                          <rect id="Rectángulo_418988" data-name="Rectángulo 418988" width="87.749" height="0.558" transform="translate(-4.636 15.021)" fill="#d9ae5f"/>
                        </g>
                      </g>
                    </g>
                  </g>
                  <path id="Trazado_1083621" data-name="Trazado 1083621" d="M217.306,432.381H153.54c-3.833,0-6.951-2.772-6.951-6.179s3.119-6.179,6.951-6.179h63.765V418.35H153.54c-4.755,0-8.624,3.522-8.624,7.851s3.868,7.852,8.624,7.852h63.765Z" transform="translate(-138.343 -417.161)" fill="#267ebf"/>
                </g>
                <path id="Trazado_1083622" data-name="Trazado 1083622" d="M134.806,430.425c0,4.972,4.517,9.04,10.037,9.04H213.77v-9.04Z" transform="translate(-134.806 -421.385)" fill="#061726" opacity="0.1"/>
              </g>
              <g id="Grupo_1211485" data-name="Grupo 1211485" transform="translate(0 17.993)">
                <g id="Grupo_1211484" data-name="Grupo 1211484">
                  <g id="Grupo_1211483" data-name="Grupo 1211483">
                    <path id="Trazado_1083623" data-name="Trazado 1083623" d="M129.751,388.715h68.928c5.52,0,10.036,4.069,10.036,9.041s-4.517,9.04-10.036,9.04H129.751Z" transform="translate(-129.751 -388.715)" fill="#d9ae5f"/>
                    <g id="Grupo_1211482" data-name="Grupo 1211482" transform="translate(0 2.026)">
                      <path id="Trazado_1083624" data-name="Trazado 1083624" d="M129.751,391.83h63.765c4.283,0,7.788,3.157,7.788,7.015s-3.5,7.015-7.788,7.015H129.751Z" transform="translate(-129.751 -391.83)" fill="#f2e4ce"/>
                      <g id="Grupo_1211481" data-name="Grupo 1211481">
                        <g id="Grupo_1211480" data-name="Grupo 1211480" clip-path="url(#clip-path-3)">
                          <rect id="Rectángulo_418989" data-name="Rectángulo 418989" width="87.749" height="0.557" transform="translate(-11.558 1.639)" fill="#d9ae5f"/>
                          <rect id="Rectángulo_418990" data-name="Rectángulo 418990" width="87.749" height="0.558" transform="translate(-11.558 4.985)" fill="#d9ae5f"/>
                          <rect id="Rectángulo_418991" data-name="Rectángulo 418991" width="87.749" height="0.558" transform="translate(-11.558 8.33)" fill="#d9ae5f"/>
                          <rect id="Rectángulo_418992" data-name="Rectángulo 418992" width="87.749" height="0.558" transform="translate(-11.558 11.675)" fill="#d9ae5f"/>
                          <rect id="Rectángulo_418993" data-name="Rectángulo 418993" width="87.749" height="0.558" transform="translate(-11.558 15.021)" fill="#d9ae5f"/>
                        </g>
                      </g>
                    </g>
                  </g>
                  <path id="Trazado_1083626" data-name="Trazado 1083626" d="M129.751,404.575h63.765c3.833,0,6.951-2.772,6.951-6.179s-3.119-6.179-6.951-6.179H129.751v-1.672h63.765c4.755,0,8.624,3.522,8.624,7.851s-3.869,7.852-8.624,7.852H129.751Z" transform="translate(-129.751 -389.355)" fill="#db9526"/>
                </g>
                <path id="Trazado_1083627" data-name="Trazado 1083627" d="M208.715,402.619c0,4.973-4.517,9.04-10.036,9.04H129.751v-9.04Z" transform="translate(-129.751 -393.578)" fill="#061726" opacity="0.1"/>
              </g>
              <g id="Grupo_1211491" data-name="Grupo 1211491" transform="translate(3.287)">
                <g id="Grupo_1211490" data-name="Grupo 1211490" transform="translate(0.001)">
                  <g id="Grupo_1211489" data-name="Grupo 1211489">
                    <path id="Trazado_1083628" data-name="Trazado 1083628" d="M202.619,361.044H144.843c-5.52,0-10.036,4.068-10.036,9.04s4.517,9.041,10.036,9.041h57.776Z" transform="translate(-134.807 -361.044)" fill="#061726"/>
                    <g id="Grupo_1211488" data-name="Grupo 1211488" transform="translate(7.41 2.026)">
                      <path id="Trazado_1083629" data-name="Trazado 1083629" d="M206.6,364.159H153.99c-4.283,0-7.788,3.157-7.788,7.015s3.5,7.015,7.788,7.015H206.6v-14.03Z" transform="translate(-146.202 -364.159)" fill="#f2e4ce"/>
                      <g id="Grupo_1211487" data-name="Grupo 1211487">
                        <g id="Grupo_1211486" data-name="Grupo 1211486" clip-path="url(#clip-path-4)">
                          <rect id="Rectángulo_418994" data-name="Rectángulo 418994" width="76.598" height="0.558" transform="translate(-4.636 1.639)" fill="#d9ae5f"/>
                          <rect id="Rectángulo_418995" data-name="Rectángulo 418995" width="76.598" height="0.558" transform="translate(-4.636 4.984)" fill="#d9ae5f"/>
                          <rect id="Rectángulo_418996" data-name="Rectángulo 418996" width="76.598" height="0.558" transform="translate(-4.636 8.33)" fill="#d9ae5f"/>
                          <rect id="Rectángulo_418997" data-name="Rectángulo 418997" width="76.598" height="0.558" transform="translate(-4.636 11.675)" fill="#d9ae5f"/>
                          <rect id="Rectángulo_418998" data-name="Rectángulo 418998" width="76.598" height="0.558" transform="translate(-4.636 15.021)" fill="#d9ae5f"/>
                        </g>
                      </g>
                    </g>
                  </g>
                  <path id="Trazado_1083631" data-name="Trazado 1083631" d="M206.154,376.9H153.54c-3.833,0-6.951-2.772-6.951-6.179s3.119-6.179,6.951-6.179h52.614v-1.672H153.54c-4.755,0-8.624,3.522-8.624,7.851s3.868,7.852,8.624,7.852h52.614V376.9Z" transform="translate(-138.343 -361.683)" fill="#22597a"/>
                </g>
                <path id="Trazado_1083632" data-name="Trazado 1083632" d="M134.806,374.947c0,4.973,4.517,9.041,10.037,9.041h57.776v-9.041Z" transform="translate(-134.806 -365.906)" fill="#061726" opacity="0.1"/>
              </g>
            </g>
            <g id="Grupo_1211498" data-name="Grupo 1211498" transform="translate(152.012 147.78)">
              <g id="Grupo_1211493" data-name="Grupo 1211493" transform="translate(0.006 51.591)">
                <rect id="Rectángulo_418999" data-name="Rectángulo 418999" width="38.672" height="7.529" transform="translate(2.334)" fill="#d9ae5f"/>
                <path id="Trazado_1083633" data-name="Trazado 1083633" d="M313.369,441.784H272.535a1.257,1.257,0,0,1-1.254-1.254v-.748a1.257,1.257,0,0,1,1.254-1.254h40.834a1.257,1.257,0,0,1,1.254,1.254v.748A1.257,1.257,0,0,1,313.369,441.784Z" transform="translate(-271.281 -434.255)" fill="#d69d41"/>
              </g>
              <g id="Grupo_1211497" data-name="Grupo 1211497" transform="translate(0)">
                <path id="Trazado_1083634" data-name="Trazado 1083634" d="M358.674,358.519c-10.285,4.428-22.436,9.518-28.884,12.208a4.093,4.093,0,0,0-5.68-.359,5.581,5.581,0,1,0,2.443,7.219,4.092,4.092,0,0,0,4.294-3.734c6.757-1.778,19.5-5.113,30.362-7.841,15.615-3.922,12.966-8.564,12.966-8.564S373.462,352.152,358.674,358.519Z" transform="translate(-286.878 -353.583)" fill="#061726"/>
                <path id="Trazado_1083635" data-name="Trazado 1083635" d="M373.736,357.194c-.126,1.576-1.932,4.758-13.128,7.57-10.861,2.727-23.606,6.062-30.362,7.84a4.092,4.092,0,0,1-4.294,3.734,5.572,5.572,0,0,1-9.956.4,5.574,5.574,0,0,0,10.593,1.488,4.092,4.092,0,0,0,4.294-3.734c6.757-1.778,19.5-5.113,30.362-7.841,15.615-3.922,12.966-8.564,12.966-8.564A1.85,1.85,0,0,0,373.736,357.194Z" transform="translate(-286.914 -354.217)" fill="#061726" opacity="0.1"/>
                <g id="Grupo_1211496" data-name="Grupo 1211496" transform="translate(0)">
                  <path id="Trazado_1083636" data-name="Trazado 1083636" d="M310.822,393.793a3.489,3.489,0,0,1-2.18,4.41l-18.039,6.1a3.488,3.488,0,0,1-4.41-2.18l-13.135-38.814a3.488,3.488,0,0,1,2.18-4.41l18.039-6.1a3.489,3.489,0,0,1,4.41,2.18Z" transform="translate(-271.833 -352.616)" fill="#061726"/>
                  <g id="Grupo_1211495" data-name="Grupo 1211495" transform="translate(0 5.259)">
                    <rect id="Rectángulo_419000" data-name="Rectángulo 419000" width="31.289" height="33.034" transform="translate(0 10.031) rotate(-18.699)" fill="#22597a"/>
                    <g id="Grupo_1211494" data-name="Grupo 1211494" transform="translate(1.037 3.066)">
                      <rect id="Rectángulo_419001" data-name="Rectángulo 419001" width="31.289" height="1.714" transform="translate(7.966 33.566) rotate(-18.699)" fill="#d9ae5f"/>
                      <rect id="Rectángulo_419002" data-name="Rectángulo 419002" width="31.289" height="1.714" transform="translate(0 10.031) rotate(-18.699)" fill="#d9ae5f"/>
                    </g>
                  </g>
                  <path id="Trazado_1083637" data-name="Trazado 1083637" d="M305.818,358.74l-1.273-3.761a3.489,3.489,0,0,0-4.41-2.18l-3.129,1.059q.5,1.281.954,2.6c5.541,16.372,2.955,33.1-5.477,43.989l.568,1.679a3.489,3.489,0,0,0,4.41,2.18l18.039-6.1a3.488,3.488,0,0,0,2.18-4.41l-1.273-3.761,2.5-.847-10.589-31.292Z" transform="translate(-278.691 -352.616)" fill="#061726" opacity="0.1"/>
                </g>
              </g>
            </g>
          </g>
        </g>
      </g>
    </g>
  </g>
</svg>
