<svg xmlns="http://www.w3.org/2000/svg" xmlns:xlink="http://www.w3.org/1999/xlink" width="400" height="263" viewBox="0 0 400 263">
  <defs>
    <clipPath id="clip-path">
      <rect id="Rectángulo_418912" data-name="Rectángulo 418912" width="400" height="263" transform="translate(999.316 9522.82)" fill="#fff" stroke="#707070" stroke-width="1"/>
    </clipPath>
    <clipPath id="clip-path-2">
      <rect id="Rectángulo_418911" data-name="Rectángulo 418911" width="300.628" height="230.093" fill="none"/>
    </clipPath>
    <clipPath id="clip-path-3">
      <rect id="Rectángulo_418910" data-name="Rectángulo 418910" width="300.628" height="230.093" fill="none" stroke="#847625" stroke-width="1"/>
    </clipPath>
    <clipPath id="clip-path-4">
      <rect id="Rectángulo_418892" data-name="Rectángulo 418892" width="82.424" height="63.586" fill="none" stroke="#847625" stroke-width="1"/>
    </clipPath>
    <clipPath id="clip-path-5">
      <rect id="Rectángulo_418893" data-name="Rectángulo 418893" width="68.051" height="73.421" fill="none" stroke="#847625" stroke-width="1"/>
    </clipPath>
    <clipPath id="clip-path-6">
      <rect id="Rectángulo_418894" data-name="Rectángulo 418894" width="64.831" height="22.736" fill="none" stroke="#847625" stroke-width="1"/>
    </clipPath>
    <clipPath id="clip-path-8">
      <rect id="Rectángulo_418896" data-name="Rectángulo 418896" width="8.599" height="112.661" fill="none" stroke="#847625" stroke-width="1"/>
    </clipPath>
    <clipPath id="clip-path-9">
      <rect id="Rectángulo_418897" data-name="Rectángulo 418897" width="15.111" height="15.111" fill="none" stroke="#847625" stroke-width="1"/>
    </clipPath>
    <clipPath id="clip-path-10">
      <rect id="Rectángulo_418898" data-name="Rectángulo 418898" width="69.213" height="25.154" fill="none" stroke="#847625" stroke-width="1"/>
    </clipPath>
    <clipPath id="clip-path-11">
      <rect id="Rectángulo_418899" data-name="Rectángulo 418899" width="30.44" height="27.392" fill="none" stroke="#847625" stroke-width="1"/>
    </clipPath>
    <clipPath id="clip-path-12">
      <rect id="Rectángulo_418900" data-name="Rectángulo 418900" width="23.942" height="27.665" fill="none" stroke="#847625" stroke-width="1"/>
    </clipPath>
    <clipPath id="clip-path-15">
      <rect id="Rectángulo_418903" data-name="Rectángulo 418903" width="81.354" height="43.019" fill="none" stroke="#847625" stroke-width="1"/>
    </clipPath>
    <clipPath id="clip-path-16">
      <rect id="Rectángulo_418904" data-name="Rectángulo 418904" width="75.702" height="14.605" fill="none" stroke="#847625" stroke-width="1"/>
    </clipPath>
    <clipPath id="clip-path-17">
      <rect id="Rectángulo_418905" data-name="Rectángulo 418905" width="84.98" height="9.401" fill="none" stroke="#847625" stroke-width="1"/>
    </clipPath>
    <clipPath id="clip-path-18">
      <rect id="Rectángulo_418906" data-name="Rectángulo 418906" width="92.002" height="26.085" fill="none" stroke="#847625" stroke-width="1"/>
    </clipPath>
    <clipPath id="clip-path-19">
      <rect id="Rectángulo_418907" data-name="Rectángulo 418907" width="46.163" height="76.301" fill="none" stroke="#847625" stroke-width="1"/>
    </clipPath>
    <clipPath id="clip-path-20">
      <rect id="Rectángulo_418908" data-name="Rectángulo 418908" width="44.679" height="45.885" fill="none" stroke="#847625" stroke-width="1"/>
    </clipPath>
    <clipPath id="clip-path-21">
      <rect id="Rectángulo_418909" data-name="Rectángulo 418909" width="29.997" height="42.148" fill="none" stroke="#847625" stroke-width="1"/>
    </clipPath>
  </defs>
  <g id="Grupo_1211727" data-name="Grupo 1211727" transform="translate(-1020 -9588)">
    <rect id="Rectángulo_419054" data-name="Rectángulo 419054" width="230" height="234" rx="30" transform="translate(1105 9617)" fill="#f2d944"/>
    <g id="Enmascarar_grupo_1098913" data-name="Enmascarar grupo 1098913" transform="translate(20.684 65.18)" clip-path="url(#clip-path)">
      <g id="Grupo_1211237" data-name="Grupo 1211237" transform="translate(1033.011 9551)">
        <g id="Grupo_1211236" data-name="Grupo 1211236" transform="translate(21 4.735)">
          <g id="Grupo_1211235" data-name="Grupo 1211235" clip-path="url(#clip-path-2)">
            <path id="Trazado_1083206" data-name="Trazado 1083206" d="M45.1,77.774l.285,7.268H272.52l-.228-5.806Z" transform="translate(-13.094 -22.582)" fill="none" stroke="#847625" stroke-linecap="round" stroke-linejoin="round" stroke-width="1.306"/>
            <path id="Trazado_1083207" data-name="Trazado 1083207" d="M56.311,97.667l.285,7.268H268.928l-.228-5.806Z" transform="translate(-16.35 -28.358)" fill="none" stroke="#847625" stroke-linecap="round" stroke-linejoin="round" stroke-width="1.306"/>
            <g id="Grupo_1211234" data-name="Grupo 1211234">
              <g id="Grupo_1211233" data-name="Grupo 1211233" clip-path="url(#clip-path-3)">
                <path id="Trazado_1083208" data-name="Trazado 1083208" d="M54.932,55.382,147.384,4.654a33.326,33.326,0,0,1,33.187.881l85.184,51.248" transform="translate(-15.949 -0.19)" fill="none" stroke="#847625" stroke-linecap="round" stroke-linejoin="round" stroke-width="1.306"/>
                <path id="Trazado_1083209" data-name="Trazado 1083209" d="M81.884,53.532l80.073-36.769a23.225,23.225,0,0,1,20.5.666L256,56.173Z" transform="translate(-23.775 -4.267)" fill="none" stroke="#847625" stroke-linecap="round" stroke-linejoin="round" stroke-width="1.306"/>
                <line id="Línea_3583" data-name="Línea 3583" x2="0.272" y2="6.921" transform="translate(50.041 62.461)" fill="none" stroke="#847625" stroke-miterlimit="10" stroke-width="1.306"/>
                <line id="Línea_3584" data-name="Línea 3584" x2="0.306" y2="7.786" transform="translate(241.608 62.914)" fill="none" stroke="#847625" stroke-linecap="round" stroke-linejoin="round" stroke-width="1.306"/>
                <path id="Trazado_1083210" data-name="Trazado 1083210" d="M79.182,108.345s-1.44,8.776,13.094,8.776,11.129-8.776,11.129-8.776" transform="translate(-22.979 -31.458)" fill="none" stroke="#847625" stroke-linecap="round" stroke-linejoin="round" stroke-width="1.306"/>
                <line id="Línea_3585" data-name="Línea 3585" x1="0.872" y2="112.157" transform="translate(60.841 84.528)" fill="none" stroke="#847625" stroke-linecap="round" stroke-linejoin="round" stroke-width="1.306"/>
                <line id="Línea_3586" data-name="Línea 3586" x2="4.42" y2="112.508" transform="translate(74.462 85.182)" fill="none" stroke="#847625" stroke-linecap="round" stroke-linejoin="round" stroke-width="1.306"/>
                <path id="Trazado_1083211" data-name="Trazado 1083211" d="M81.1,282.94s-2.1-8.076,12.21-7.218,12.268,7.218,12.268,7.218" transform="translate(-23.516 -80.037)" fill="none" stroke="#847625" stroke-linecap="round" stroke-linejoin="round" stroke-width="1.306"/>
                <path id="Trazado_1083212" data-name="Trazado 1083212" d="M132.909,108.345s-1.44,8.776,13.094,8.776,11.129-8.776,11.129-8.776" transform="translate(-38.579 -31.458)" fill="none" stroke="#847625" stroke-linecap="round" stroke-linejoin="round" stroke-width="1.306"/>
                <line id="Línea_3587" data-name="Línea 3587" x1="0.872" y2="112.157" transform="translate(98.968 84.528)" fill="none" stroke="#847625" stroke-linecap="round" stroke-linejoin="round" stroke-width="1.306"/>
                <line id="Línea_3588" data-name="Línea 3588" x2="4.42" y2="112.508" transform="translate(112.59 85.182)" fill="none" stroke="#847625" stroke-linecap="round" stroke-linejoin="round" stroke-width="1.306"/>
                <path id="Trazado_1083213" data-name="Trazado 1083213" d="M134.828,282.94s-2.1-8.076,12.21-7.218,12.268,7.218,12.268,7.218" transform="translate(-39.116 -80.037)" fill="none" stroke="#847625" stroke-linecap="round" stroke-linejoin="round" stroke-width="1.306"/>
                <path id="Trazado_1083214" data-name="Trazado 1083214" d="M186.636,108.345s-1.44,8.776,13.094,8.776,11.129-8.776,11.129-8.776" transform="translate(-54.178 -31.458)" fill="none" stroke="#847625" stroke-linecap="round" stroke-linejoin="round" stroke-width="1.306"/>
                <line id="Línea_3589" data-name="Línea 3589" x1="0.872" y2="112.157" transform="translate(137.096 84.528)" fill="none" stroke="#847625" stroke-linecap="round" stroke-linejoin="round" stroke-width="1.306"/>
                <line id="Línea_3590" data-name="Línea 3590" x2="4.42" y2="112.508" transform="translate(150.717 85.182)" fill="none" stroke="#847625" stroke-linecap="round" stroke-linejoin="round" stroke-width="1.306"/>
                <path id="Trazado_1083215" data-name="Trazado 1083215" d="M188.556,282.94s-2.1-8.076,12.21-7.218,12.268,7.218,12.268,7.218" transform="translate(-54.716 -80.037)" fill="none" stroke="#847625" stroke-linecap="round" stroke-linejoin="round" stroke-width="1.306"/>
                <path id="Trazado_1083216" data-name="Trazado 1083216" d="M240.364,108.345s-1.44,8.776,13.094,8.776,11.129-8.776,11.129-8.776" transform="translate(-69.778 -31.458)" fill="none" stroke="#847625" stroke-linecap="round" stroke-linejoin="round" stroke-width="1.306"/>
                <line id="Línea_3591" data-name="Línea 3591" x1="0.872" y2="112.157" transform="translate(175.223 84.528)" fill="none" stroke="#847625" stroke-linecap="round" stroke-linejoin="round" stroke-width="1.306"/>
                <line id="Línea_3592" data-name="Línea 3592" x2="4.42" y2="112.508" transform="translate(188.845 85.182)" fill="none" stroke="#847625" stroke-linecap="round" stroke-linejoin="round" stroke-width="1.306"/>
                <path id="Trazado_1083217" data-name="Trazado 1083217" d="M242.283,282.94s-2.1-8.076,12.21-7.218,12.268,7.218,12.268,7.218" transform="translate(-70.315 -80.037)" fill="none" stroke="#847625" stroke-linecap="round" stroke-linejoin="round" stroke-width="1.306"/>
                <path id="Trazado_1083218" data-name="Trazado 1083218" d="M294.091,108.345s-1.44,8.776,13.094,8.776,11.129-8.776,11.129-8.776" transform="translate(-85.378 -31.458)" fill="none" stroke="#847625" stroke-linecap="round" stroke-linejoin="round" stroke-width="1.306"/>
                <line id="Línea_3593" data-name="Línea 3593" x1="0.872" y2="112.157" transform="translate(213.351 84.528)" fill="none" stroke="#847625" stroke-linecap="round" stroke-linejoin="round" stroke-width="1.306"/>
                <line id="Línea_3594" data-name="Línea 3594" x2="4.42" y2="112.508" transform="translate(226.973 85.182)" fill="none" stroke="#847625" stroke-linecap="round" stroke-linejoin="round" stroke-width="1.306"/>
                <path id="Trazado_1083219" data-name="Trazado 1083219" d="M296.01,282.94s-2.1-8.076,12.21-7.218,12.268,7.218,12.268,7.218" transform="translate(-85.915 -80.037)" fill="none" stroke="#847625" stroke-linecap="round" stroke-linejoin="round" stroke-width="1.306"/>
                <path id="Trazado_1083220" data-name="Trazado 1083220" d="M55.783,285.643l199.409.2.267,6.8,7.968.987.306,7.788h7.512l.3,7.682L38.2,307.42l-.3-7.63h7.094l.554-7.149h7.929Z" transform="translate(-11.004 -82.936)" fill="none" stroke="#847625" stroke-linecap="round" stroke-linejoin="round" stroke-width="1.306"/>
                <line id="Línea_3595" data-name="Línea 3595" x2="201.981" transform="translate(42.473 209.705)" fill="none" stroke="#847625" stroke-linecap="round" stroke-linejoin="round" stroke-width="1.306"/>
                <line id="Línea_3596" data-name="Línea 3596" x2="218.738" y2="1.626" transform="translate(33.99 216.854)" fill="none" stroke="#847625" stroke-linecap="round" stroke-linejoin="round" stroke-width="1.306"/>
                <path id="Trazado_1083221" data-name="Trazado 1083221" d="M389.9,231.047c-.087.3-.179.593-.27.891a70.2,70.2,0,0,1-7.235,15.8c-.206.334-.411.671-.622,1a82.236,82.236,0,0,1-8.654,11.3q-.5.553-1.008,1.091a92.326,92.326,0,0,1-14.154,12.236s-.01,0-.014.01c-.56.394-1.129.783-1.7,1.158-14.26,9.541-31.744,15.475-48.282,19.923-.162.042-.324.088-.485.13.063-.4.125-.8.2-1.2a76.015,76.015,0,0,1,12.19-29.893c.383-.563.77-1.123,1.172-1.673A74.924,74.924,0,0,1,336,246.348q2.147-1.66,4.414-3.146c.435-.292.874-.573,1.314-.845a75.229,75.229,0,0,1,12.285-6.233c.383-.154.766-.307,1.155-.451A76.818,76.818,0,0,1,373.41,231.2c.378-.052.752-.094,1.132-.127A73.856,73.856,0,0,1,389.391,231c.17.011.344.032.514.048" transform="translate(-89.277 -66.972)" fill="#ffb552" stroke="#847625" stroke-width="1"/>
                <g id="Grupo_1211181" data-name="Grupo 1211181" transform="translate(218.204 164.028)" style="mix-blend-mode: multiply;isolation: isolate">
                  <g id="Grupo_1211180" data-name="Grupo 1211180">
                    <g id="Grupo_1211179" data-name="Grupo 1211179" clip-path="url(#clip-path-4)">
                      <path id="Trazado_1083222" data-name="Trazado 1083222" d="M374.018,240.015c-4.529,2.766-8.872,5.8-13.1,8.983q10.737-.557,21.483-1.118c-.206.333-.411.671-.622,1L360.03,250.01a.446.446,0,0,1-.314-.1c-5.111,3.9-10.066,8.02-14.987,12.166q4.064-.031,8.116-.2,10.172-.428,20.278-1.7c-.334.368-.669.731-1.008,1.09a242.875,242.875,0,0,1-27.533,1.773.463.463,0,0,1-.479-.435q-1.487,1.251-2.96,2.5c-4.146,3.5-8.292,7.018-12.4,10.569q4.97-.139,9.933-.428,9.665-.577,19.283-1.745c0,.006-.009.006-.013.011-.56.394-1.129.783-1.7,1.157q-13.948,1.617-28,1.989a.439.439,0,0,1-.4-.207c-6.78,5.874-13.459,11.87-19.882,18.141-.162.041-.324.088-.485.129.063-.4.125-.8.2-1.2q5.293-5.139,10.787-10.061a.38.38,0,0,1-.231-.39q.206-4.111.528-8.219.444-5.62,1.106-11.222c.383-.563.77-1.122,1.172-1.672q-1.305,10.379-1.826,20.83,2.987-2.691,6.02-5.341,3.922-3.416,7.884-6.791a.422.422,0,0,1-.048-.311q.808-4.076,1.786-8.116,2.313-9.58,5.556-18.894c.434-.291.874-.573,1.314-.844-.026.064-.051.133-.072.2a203.6,203.6,0,0,0-7.48,27.07q4.141-3.528,8.3-7.033,3.628-3.062,7.276-6.092a.475.475,0,0,1-.155-.417,106.174,106.174,0,0,1,4.415-19.957c.383-.154.766-.307,1.155-.452a105.329,105.329,0,0,0-4.561,20.124c2.653-2.183,5.327-4.328,8.051-6.423,3.069-2.357,6.213-4.641,9.431-6.813a.437.437,0,0,1-.006-.419q2.664-5.476,5.329-10.945c.379-.053.753-.094,1.132-.128l-5.185,10.639a112.992,112.992,0,0,1,20.035-10.707c.17.011.344.031.514.048-.087.3-.179.592-.27.891a105.376,105.376,0,0,0-15.617,7.937" transform="translate(-307.481 -231.139)" fill="#d6c8ab" stroke="#847625" stroke-width="1"/>
                    </g>
                  </g>
                </g>
                <path id="Trazado_1083223" data-name="Trazado 1083223" d="M365.331,188.073a10.265,10.265,0,0,1-2.353,4.026c-5.629,6.913-11.481,14.241-17.106,21.155,2.377-2.839,4.8-5.718,7.883-7.778,1.331-.882,3.012-1.622,4.476-.991a.54.54,0,0,1,.085.045,2.479,2.479,0,0,1,.775.554,4.071,4.071,0,0,1,.945,3.6,10.011,10.011,0,0,1-2.458,4.232A149.371,149.371,0,0,1,341.038,229.5a17.144,17.144,0,0,1,4.861-2.119c1.685-.447,3.857-.445,4.751,1.05a1.956,1.956,0,0,1,.136.277,2.351,2.351,0,0,1,.2,1.038,5.8,5.8,0,0,1-1.525,3.35c-6.138,7.387-16.107,10.087-24.313,15.074a47.994,47.994,0,0,0-18.6,20.726c-1.275-.477-2.543-.957-3.818-1.434-.3-.112-.607-.224-.908-.341-.763-.284-1.521-.572-2.284-.856.593-10.57-1.023-21.013-1.316-31.6s.456-21.464,4.8-31.117c.752-1.679,1.763-3.447,3.5-4.066a4.025,4.025,0,0,1,3.317.37,5.408,5.408,0,0,1,.832.561,5.9,5.9,0,0,1,1.737,2.365c.9,2.321.5,4.929-.077,7.35s-1.369,5.38-1.108,7.855q3.314-12.412,6.625-24.829a10.867,10.867,0,0,1,2.317-5.014,4.365,4.365,0,0,1,3.086-1.282,3.048,3.048,0,0,1,.938.159,2.619,2.619,0,0,1,.986.587c1.175,1.115,1.119,2.973.9,4.574a47.053,47.053,0,0,1-2.795,10.684q5.155-12.411,10.307-24.826c.767-1.839,1.6-3.772,3.21-4.953a4.5,4.5,0,0,1,2.413-.839,3.93,3.93,0,0,1,.969.067,2.872,2.872,0,0,1,1.93,1.24c.81,1.258.475,2.911.067,4.353a76.971,76.971,0,0,1-3.638,10.357q8.285-15.921,16.573-31.841a16.569,16.569,0,0,1,3.218-4.755,6.047,6.047,0,0,1,4.367-1.725,4.155,4.155,0,0,1,.923.166c.01,0,.018.007.028.008a5.457,5.457,0,0,1,3.338,3.489,12.336,12.336,0,0,1,.453,4.985,46.039,46.039,0,0,1-5.549,17.9,122.558,122.558,0,0,1-8.482,13.538,21.346,21.346,0,0,1,6.359-5.3c1.189-.652,2.623-1.19,3.873-.673.009,0,.014.006.023.008a2.424,2.424,0,0,1,.774.525,3.824,3.824,0,0,1,.893,3.48" transform="translate(-86.574 -43.533)" fill="#ff837b" stroke="#847625" stroke-width="1"/>
                <path id="Trazado_1083224" data-name="Trazado 1083224" d="M328.25,222.263c-1.443,2.119-2.908,4.23-4.368,6.337a72.86,72.86,0,0,0,9.184-3.433,74.105,74.105,0,0,0,16.054-9.941,73.15,73.15,0,0,0,10.692-10.692,2.469,2.469,0,0,1,.775.554q-2.23,2.76-4.723,5.288A75.156,75.156,0,0,1,340.9,222.13a73.809,73.809,0,0,1-17.443,7.593.478.478,0,0,1-.332-.025c-2.811,4.075-5.591,8.169-8.167,12.39a64.642,64.642,0,0,0,9.123-.952,65.442,65.442,0,0,0,28.2-12.422,2.355,2.355,0,0,1,.2,1.039q-2.258,1.72-4.668,3.224a66.264,66.264,0,0,1-33.29,10.076.447.447,0,0,1-.136-.023c-.567.946-1.125,1.893-1.665,2.852a73.756,73.756,0,0,0-8.494,21.587c-.3-.112-.608-.225-.909-.341a63.712,63.712,0,0,1,3.9-12.312.407.407,0,0,1-.167-.3q-.7-6.479-.825-12.994a148.882,148.882,0,0,1,5.1-41.664,5.409,5.409,0,0,1,.832.561q-1.172,4.368-2.068,8.8a148.442,148.442,0,0,0-2.206,44.074,103.646,103.646,0,0,1,5.493-10.422c.827-1.39,1.681-2.758,2.553-4.119a.465.465,0,0,1-.026-.167q.248-6.346.9-12.673a203.872,203.872,0,0,1,7.937-39.043,3.045,3.045,0,0,1,.937.158q-1.149,3.71-2.143,7.453a203.141,203.141,0,0,0-6.615,42.729c3.914-6.024,8.133-11.858,12.131-17.828.132-.2.259-.4.391-.6a.432.432,0,0,1-.06-.31q1.1-5.743,2.347-11.464,3.811-17.545,8.972-34.757a3.932,3.932,0,0,1,.969.067q-.939,3.111-1.828,6.239-5.42,18.992-9.194,38.4,7.308-11.124,13.671-22.834,7.019-12.91,12.84-26.426,3.778-8.768,7.029-17.75a4.161,4.161,0,0,1,.923.166c.009,0,.018.007.027.008q-3.886,10.767-8.543,21.24-5.938,13.371-13.07,26.166-3.052,5.477-6.318,10.824,3.568-2.057,6.956-4.415a97.379,97.379,0,0,0,20.967-19.873c.009,0,.013.006.023.008a2.424,2.424,0,0,1,.774.525q-1.458,1.877-3.017,3.683a98.409,98.409,0,0,1-26.571,21.663.5.5,0,0,1-.131.045q-3.843,6.227-7.964,12.274" transform="translate(-88.069 -43.537)" fill="#a73027" stroke="#847625" stroke-width="1"/>
                <path id="Trazado_1083225" data-name="Trazado 1083225" d="M64.94,287.044c-.371.507-1.331.573-3.235.061a111.061,111.061,0,0,1-20.672-7.837l-1.255-.634c-.79-.409-1.57-.822-2.35-1.25a109.8,109.8,0,0,1-15.247-10.01q-.663-.514-1.311-1.044-.451-.359-.9-.733A74.057,74.057,0,0,1,6.2,250.736c-.273-.4-.536-.8-.794-1.2C2.421,244.858.291,239.814.028,234.816Q0,234.295,0,233.773a17.587,17.587,0,0,1,1.467-7.118,17.771,17.771,0,0,1,8.5-8.679c.282-.136.564-.272.856-.4a21.1,21.1,0,0,1,1.988-.766,23.75,23.75,0,0,1,6.916-1.189c.315,0,.625-.009.94,0A26.5,26.5,0,0,1,33.756,219.5c.291.169.583.348.869.532a33.954,33.954,0,0,1,10.536,10.846c.047.066.084.136.127.2l.507.861a97.372,97.372,0,0,1,8.058,18.792c.174.536.348,1.077.517,1.612,2.092,6.6,3.86,13.319,5.928,19.887,1.114,3.535,2.313,7.048,3.7,10.489a16.4,16.4,0,0,1,1.1,3.235,1.458,1.458,0,0,1-.16,1.086" transform="translate(0 -62.604)" fill="#ffb552" stroke="#847625" stroke-width="1"/>
                <g id="Grupo_1211184" data-name="Grupo 1211184" transform="translate(0 153.012)" style="mix-blend-mode: multiply;isolation: isolate">
                  <g id="Grupo_1211183" data-name="Grupo 1211183">
                    <g id="Grupo_1211182" data-name="Grupo 1211182" clip-path="url(#clip-path-5)">
                      <path id="Trazado_1083226" data-name="Trazado 1083226" d="M67.225,288.925q-1.15-.93-2.285-1.881-4.6-3.836-8.993-7.917a94.785,94.785,0,0,1-16.168-.494c-.791-.409-1.57-.822-2.351-1.25a94.163,94.163,0,0,0,17.56.851q-1.7-1.6-3.371-3.235-3.554-3.5-6.939-7.155a.551.551,0,0,1-.08.018q-3.928.12-7.856.1-7.285-.041-14.561-.588-.662-.514-1.311-1.044a212.85,212.85,0,0,0,22.976.612q-5.543-6.05-10.625-12.5a.47.47,0,0,1-.146.028c-2.3,0-4.612-.085-6.911-.249A99.906,99.906,0,0,1,6.2,250.736c-.273-.4-.536-.8-.794-1.2q1.9.564,3.827,1.043A99.1,99.1,0,0,0,32.5,253.518q-2.6-3.335-5.073-6.765-1.41-1.967-2.783-3.968a.44.44,0,0,1-.39.084q-3.245-.726-6.451-1.612A126.381,126.381,0,0,1,.028,234.816Q0,234.295,0,233.773c.879.4,1.763.79,2.647,1.17a124.846,124.846,0,0,0,21.373,6.906A216.367,216.367,0,0,1,9.962,217.976c.282-.136.564-.272.856-.4q3.829,7.6,8.265,14.88c.358.588.725,1.161,1.086,1.744q-.226-9.289-.447-18.58c.315,0,.626-.009.94,0q.233,9.661.466,19.318a.4.4,0,0,1-.244.4q4.217,6.692,8.914,13.055.43-3.124.855-6.243l3.1-22.646c.292.169.583.348.87.532q-.381,2.736-.752,5.477l-3.249,23.709a.4.4,0,0,1-.075.2q3.724,4.992,7.734,9.769.508-3.251,1.133-6.483a175.6,175.6,0,0,1,5.745-21.824c.047.066.084.136.127.2l.507.861c-.366,1.133-.728,2.266-1.077,3.4A175.3,175.3,0,0,0,39.1,260.021a.423.423,0,0,1-.033.079c.658.776,1.316,1.552,1.983,2.313,2.529,2.9,5.149,5.717,7.828,8.472q2.094-10.169,4.979-20.15c.174.536.348,1.077.517,1.612q-2.672,9.443-4.645,19.069a.4.4,0,0,1-.122.216q3.335,3.4,6.812,6.643a.18.18,0,0,1,.052.052q4.217,3.928,8.631,7.631,1.383,1.163,2.788,2.3c.475.381-.2,1.044-.663.668" transform="translate(0 -215.616)" fill="#d6c8ab" stroke="#847625" stroke-width="1"/>
                    </g>
                  </g>
                </g>
                <path id="Trazado_1083227" data-name="Trazado 1083227" d="M90.337,267.411q-3.483.236-6.957.463c-.3.023-.6.043-.893.061l-5.149.343c.163-5.885-5.845-10.6-10.466-14.25-4.2-3.318-8.738-7.519-9.13-12.666a8.386,8.386,0,0,1-.028-.957c0-.2.016-.4.033-.607.161-1.849.886-3.623.962-5.476.185-4.606-3.562-8.348-7.207-11.169-2.844-2.2-5.974-4.472-7.747-7.491a11.417,11.417,0,0,1-.634-1.255,9.824,9.824,0,0,1-.5-1.49c-1.429-5.723,2.648-11.557,3.225-17.288.033-.324.053-.652.06-.975a10.252,10.252,0,0,0-.366-3.114c-1.027-3.624-4.166-6.29-5.532-9.8a16.055,16.055,0,0,1-.656-7.791c.038-.329.08-.658.131-.987.207-1.462.49-2.927.739-4.364.764-4.378,1.062-9.325-1.692-12.811-1.389-1.761-3.408-2.926-4.861-4.63s-2.213-4.431-.731-6.112a3.3,3.3,0,0,1,.741-.618,3.854,3.854,0,0,1,.935-.4,7.845,7.845,0,0,1,4.146.243,23.613,23.613,0,0,1,11.856,8.175c.248.319.488.644.715.977a22.558,22.558,0,0,1,2.568,4.818c1.43,3.721,1.911,7.823,3.889,11.284a27.138,27.138,0,0,0,4.093,5.133c.246.262.5.522.75.783,2.944,3.052,5.87,6.037,6.265,10.122.415,4.317-2.274,8.721-.954,12.85a7.269,7.269,0,0,0,.328.835,6.773,6.773,0,0,0,.487.9c2.329,3.691,7.525,5.325,10.537,8.777a11.854,11.854,0,0,1,1.922,3.043,13.405,13.405,0,0,1,.573,1.482c1.906,5.87.671,13.192,3.306,19.036,1.692,3.753,4.873,6.637,6.832,10.26,4.227,7.823,2.172,16.605-1.587,24.663" transform="translate(-9.329 -41.764)" fill="#ff837b" stroke="#847625" stroke-width="1"/>
                <path id="Trazado_1083228" data-name="Trazado 1083228" d="M80.477,247.606a36.113,36.113,0,0,1,3.535,20.343c-.3.023-.6.043-.893.061a35.709,35.709,0,0,0-.131-9.549,35.041,35.041,0,0,0-2.1-7.775,36.384,36.384,0,0,0-3.139-5.989.376.376,0,0,1-.124.023,58.1,58.1,0,0,1-6.054-.3,56.866,56.866,0,0,1-13.2-2.985,8.723,8.723,0,0,1-.028-.957,55.979,55.979,0,0,0,18.848,3.342c-.067-.1-.131-.2-.194-.3a37.6,37.6,0,0,1-3.985-6.975,23.941,23.941,0,0,1-1.268-7.778,30.742,30.742,0,0,0-.883-7.945,10.987,10.987,0,0,0-.4-1.078,51.332,51.332,0,0,1-6.886.253,52.88,52.88,0,0,1-19.189-4.266,11.419,11.419,0,0,1-.634-1.255c.756.344,1.52.675,2.292.982a51.769,51.769,0,0,0,24,3.429,12.48,12.48,0,0,0-2.935-3.535c-3.019-2.565-6.843-4.2-9.416-7.276a9.2,9.2,0,0,1-2.186-5.552,13.753,13.753,0,0,1,.352-3.458,39.221,39.221,0,0,1-9.378-3.367c.033-.324.053-.652.06-.975a38.491,38.491,0,0,0,9.522,3.467c.237-.93.515-1.853.788-2.767.694-2.332,1.418-4.772,1.115-7.236-.3-2.484-1.747-4.619-3.2-6.588-.389-.532-.786-1.055-1.174-1.587a.359.359,0,0,1-.281.023,49.594,49.594,0,0,1-13.329-6.016c.038-.329.08-.659.131-.988a48.615,48.615,0,0,0,12.728,5.933,18.661,18.661,0,0,1-2.019-3.58,30.9,30.9,0,0,1-1.668-8.243,28.674,28.674,0,0,0-1.82-8.079,25.235,25.235,0,0,0-3.975-6.312,55.4,55.4,0,0,0-9.051-8.253,3.893,3.893,0,0,1,.935-.4c.084.068.172.131.256.2,3.97,3.078,7.862,6.456,10.638,10.685a23.449,23.449,0,0,1,2.458,4.871,24.6,24.6,0,0,0,2.651-7.336c.248.319.488.644.715.977a25.321,25.321,0,0,1-2.9,7.354.505.505,0,0,1-.1.116c.09.3.172.605.25.91.681,2.758.814,5.606,1.232,8.408a18.411,18.411,0,0,0,2.888,7.835,70.3,70.3,0,0,1,4.226,6.13,11.488,11.488,0,0,1,.789,1.861,39.941,39.941,0,0,0,4.162-11.379c.246.261.5.522.75.783a40.714,40.714,0,0,1-4.446,11.608.445.445,0,0,1-.15.155,11.248,11.248,0,0,1,.139,3.792,63.525,63.525,0,0,1-1.875,7.343,9.228,9.228,0,0,0,3.259,10.872.326.326,0,0,1,.056-.052,35.189,35.189,0,0,0,8.654-9.912,6.7,6.7,0,0,0,.488.9,36.187,36.187,0,0,1-8.49,9.623.119.119,0,0,0,.033.03c3.21,2.447,7.15,4.254,9.425,7.732,2.787,4.264,1.969,9.572,2.513,14.416a54.738,54.738,0,0,0,3.182-4.965,55.124,55.124,0,0,0,5.8-15.015,13.548,13.548,0,0,1,.574,1.482,56.181,56.181,0,0,1-9.264,19.623.493.493,0,0,1-.107.1c.977,5.468,5,9.52,7.429,14.357" transform="translate(-9.962 -41.84)" fill="#a73027" stroke="#847625" stroke-width="1"/>
                <path id="Trazado_1083229" data-name="Trazado 1083229" d="M177.077,25.823a.4.4,0,0,0-.078.013,20.661,20.661,0,0,1-7.407-.207,33.71,33.71,0,0,1-6.692-2.188c-2.1-.921-4.1-1.954-6.05-2.992l-5.777-3.142a40.734,40.734,0,0,0-11.645-4.576,21.22,21.22,0,0,0-11.956,1.284,20.866,20.866,0,0,0-9.432,7.627,22.163,22.163,0,0,0-3.8,11.633c0,.162-.006.324-.006.48-.026,1.934.305,3.934.39,6.069a11.228,11.228,0,0,1-1.584,6.855,6.238,6.238,0,0,1-2.908,2.343,5.177,5.177,0,0,1-3.8.059,3.766,3.766,0,0,1-1.6-1.208,4.443,4.443,0,0,1-.812-1.778,4.012,4.012,0,0,1,.065-1.96,3.123,3.123,0,0,1,1.155-1.682.641.641,0,0,1,.9.143.648.648,0,0,1-.13.9,2.208,2.208,0,0,0-.61,2.291,2.569,2.569,0,0,0,1.59,1.883,3.627,3.627,0,0,0,2.622-.163,4.583,4.583,0,0,0,2.071-1.793,9.5,9.5,0,0,0,1.064-5.784c-.149-2.09-.617-4.284-.617-6.614a24.533,24.533,0,0,1,3.778-13.119,23.605,23.605,0,0,1,4.53-5.283A24.752,24.752,0,0,1,140,9.219a44.188,44.188,0,0,1,12.9,4.518l5.881,2.935c1.954.96,3.882,1.875,5.829,2.641a29.132,29.132,0,0,0,5.835,1.7,15.808,15.808,0,0,0,5.667-.019l.039-.006a2.459,2.459,0,0,1,2.876,1.954c0,.012.006.031.006.045a2.464,2.464,0,0,1-1.96,2.836" transform="translate(-30.147 -2.598)" fill="#7d97d3" stroke="#847625" stroke-width="1"/>
                <g id="Grupo_1211187" data-name="Grupo 1211187" transform="translate(84.095 7.94)" style="mix-blend-mode: multiply;isolation: isolate">
                  <g id="Grupo_1211186" data-name="Grupo 1211186">
                    <g id="Grupo_1211185" data-name="Grupo 1211185" clip-path="url(#clip-path-6)">
                      <path id="Trazado_1083230" data-name="Trazado 1083230" d="M181.337,26.473a.4.4,0,0,0-.078.013,20.661,20.661,0,0,1-7.407-.207,33.71,33.71,0,0,1-6.692-2.188c-2.1-.921-4.1-1.954-6.05-2.992l-5.777-3.142a40.734,40.734,0,0,0-11.645-4.576,21.22,21.22,0,0,0-11.956,1.284,20.866,20.866,0,0,0-9.432,7.627,22.163,22.163,0,0,0-3.8,11.633,24.877,24.877,0,0,1,4.68-14.287,20.721,20.721,0,0,1,13.489-8.257c5.595-.792,11.242.961,16.364,3.343s9.938,5.42,15.209,7.439c4.784,1.824,10.146,2.771,15.053,1.473a2.464,2.464,0,0,1-1.96,2.836" transform="translate(-118.502 -11.189)" fill="#c5d4ea" stroke="#847625" stroke-width="1"/>
                    </g>
                  </g>
                </g>
                <path id="Trazado_1083231" data-name="Trazado 1083231" d="M204.756,25.823a.4.4,0,0,1,.078.013,20.657,20.657,0,0,0,7.406-.207,33.716,33.716,0,0,0,6.693-2.188c2.1-.921,4.1-1.954,6.05-2.992l5.777-3.142A40.738,40.738,0,0,1,242.4,12.731a21.222,21.222,0,0,1,11.957,1.284,20.87,20.87,0,0,1,9.432,7.627,22.163,22.163,0,0,1,3.8,11.633c0,.162.006.324.006.48.026,1.934-.305,3.934-.39,6.069a11.228,11.228,0,0,0,1.584,6.855,6.234,6.234,0,0,0,2.908,2.343,5.177,5.177,0,0,0,3.8.059,3.77,3.77,0,0,0,1.6-1.208,4.432,4.432,0,0,0,.811-1.778,4.021,4.021,0,0,0-.065-1.96,3.123,3.123,0,0,0-1.155-1.682.641.641,0,0,0-.9.143.648.648,0,0,0,.13.9,2.208,2.208,0,0,1,.61,2.291,2.568,2.568,0,0,1-1.59,1.883,3.627,3.627,0,0,1-2.622-.163,4.583,4.583,0,0,1-2.071-1.793,9.5,9.5,0,0,1-1.065-5.784c.149-2.09.617-4.284.617-6.614a24.533,24.533,0,0,0-3.778-13.119,23.623,23.623,0,0,0-4.53-5.283,24.753,24.753,0,0,0-19.656-5.694,44.19,44.19,0,0,0-12.9,4.518l-5.881,2.935c-1.954.96-3.882,1.875-5.829,2.641a29.132,29.132,0,0,1-5.835,1.7,15.808,15.808,0,0,1-5.667-.019l-.039-.006a2.459,2.459,0,0,0-2.876,1.954c0,.012-.006.031-.006.045a2.463,2.463,0,0,0,1.96,2.836" transform="translate(-58.871 -2.598)" fill="#7d97d3" stroke="#847625" stroke-width="1"/>
                <g id="Grupo_1211190" data-name="Grupo 1211190" transform="translate(143.889 7.94)" style="mix-blend-mode: multiply;isolation: isolate">
                  <g id="Grupo_1211189" data-name="Grupo 1211189">
                    <g id="Grupo_1211188" data-name="Grupo 1211188" clip-path="url(#clip-path-6)">
                      <path id="Trazado_1083232" data-name="Trazado 1083232" d="M204.756,26.473a.4.4,0,0,1,.078.013,20.657,20.657,0,0,0,7.406-.207,33.717,33.717,0,0,0,6.693-2.188c2.1-.921,4.1-1.954,6.05-2.992l5.777-3.142A40.738,40.738,0,0,1,242.4,13.382a21.222,21.222,0,0,1,11.957,1.284,20.87,20.87,0,0,1,9.432,7.627,22.163,22.163,0,0,1,3.8,11.633,24.877,24.877,0,0,0-4.68-14.287,20.721,20.721,0,0,0-13.489-8.257c-5.595-.792-11.242.961-16.364,3.343s-9.938,5.42-15.209,7.439c-4.784,1.824-10.145,2.771-15.052,1.473a2.463,2.463,0,0,0,1.96,2.836" transform="translate(-202.76 -11.189)" fill="#c5d4ea" stroke="#847625" stroke-width="1"/>
                    </g>
                  </g>
                </g>
                <path id="Trazado_1083233" data-name="Trazado 1083233" d="M198.863,141.585c-.091.006-.175.006-.266.006-16.994,0-1.688-64.289-1.688-64.289h.48L200.1,27.944h2.817V77.3s12.541,63.614-4.057,64.282" transform="translate(-55.335 -8.114)" fill="#7d97d3" stroke="#847625" stroke-width="1"/>
                <g id="Grupo_1211193" data-name="Grupo 1211193" transform="translate(143.528 20.81)" style="mix-blend-mode: multiply;isolation: isolate">
                  <g id="Grupo_1211192" data-name="Grupo 1211192">
                    <g id="Grupo_1211191" data-name="Grupo 1211191" clip-path="url(#clip-path-8)">
                      <path id="Trazado_1083234" data-name="Trazado 1083234" d="M202.252,141.986c3.518-9.49,4.79-19.772,4.732-29.925a233.944,233.944,0,0,0-2.752-34.928l.9-47.8c.4,0,.792,0,1.175-.006V77.7s12.541,63.614-4.057,64.282" transform="translate(-202.252 -29.325)" fill="#c5d4ea" stroke="#847625" stroke-width="1"/>
                    </g>
                  </g>
                </g>
                <path id="Trazado_1083235" data-name="Trazado 1083235" d="M208.915,91.393a8.153,8.153,0,1,1-8.153-8.153,8.153,8.153,0,0,1,8.153,8.153" transform="translate(-55.924 -24.169)" fill="#42669a" stroke="#847625" stroke-width="1"/>
                <g id="Grupo_1211196" data-name="Grupo 1211196" transform="translate(137.881 60.264)" style="mix-blend-mode: multiply;isolation: isolate">
                  <g id="Grupo_1211195" data-name="Grupo 1211195">
                    <g id="Grupo_1211194" data-name="Grupo 1211194" clip-path="url(#clip-path-9)">
                      <path id="Trazado_1083236" data-name="Trazado 1083236" d="M209.405,91.879a8.151,8.151,0,0,1-15.111,4.245,8.068,8.068,0,0,0,4.245,1.194,8.155,8.155,0,0,0,8.153-8.153A8.068,8.068,0,0,0,205.5,84.92a8.147,8.147,0,0,1,3.907,6.959" transform="translate(-194.294 -84.92)" fill="#c5d4ea" stroke="#847625" stroke-width="1"/>
                    </g>
                  </g>
                </g>
                <path id="Trazado_1083237" data-name="Trazado 1083237" d="M204.957,73.391l-4.994.114c-2.694.061-2.7,4.254,0,4.193l4.994-.114c2.694-.062,2.7-4.255,0-4.193" transform="translate(-57.471 -21.309)" fill="#42669a" stroke="#847625" stroke-width="1"/>
                <path id="Trazado_1083238" data-name="Trazado 1083238" d="M209.894,26.85a6.068,6.068,0,1,1-6.068-6.068,6.068,6.068,0,0,1,6.068,6.068" transform="translate(-57.419 -6.034)" fill="#42669a" stroke="#847625" stroke-width="1"/>
                <path id="Trazado_1083239" data-name="Trazado 1083239" d="M208.392,27.89a3.526,3.526,0,1,1-3.526-3.526A3.525,3.525,0,0,1,208.392,27.89Z" transform="translate(-58.459 -7.074)" fill="none" stroke="#847625" stroke-miterlimit="10" stroke-width="0.871"/>
                <path id="Trazado_1083240" data-name="Trazado 1083240" d="M221.344,193.373v12.138l-11.786-.587-50.285-2.514.111-1.71.375-5.8.5-7.74s32.323-9.455,58.237,4.572c.955.508,1.905,1.062,2.845,1.643" transform="translate(-46.245 -53.437)" fill="#42669a" stroke="#847625" stroke-width="1"/>
                <path id="Trazado_1083241" data-name="Trazado 1083241" d="M221.344,200.8v9.154l-62.071-3.1.486-7.51c10.457.346,47.167,1.145,61.585,1.458" transform="translate(-46.245 -57.879)" fill="#ffb552" stroke="#847625" stroke-width="1"/>
                <path id="Trazado_1083242" data-name="Trazado 1083242" d="M230.672,222.667l-68.782.922-17.973.241,1.174-16.692,9.836.268,53.766,1.453,8.193.224,11.635.313Z" transform="translate(-41.786 -60.142)" fill="#32547c" stroke="#847625" stroke-width="1"/>
                <g id="Grupo_1211199" data-name="Grupo 1211199" transform="translate(119.673 138.293)" style="mix-blend-mode: multiply;isolation: isolate">
                  <g id="Grupo_1211198" data-name="Grupo 1211198">
                    <g id="Grupo_1211197" data-name="Grupo 1211197" clip-path="url(#clip-path-10)">
                      <path id="Trazado_1083243" data-name="Trazado 1083243" d="M237.849,219.107l-68.782.922-.43-1.134s29.49-1.833,43.64-10.825a22.554,22.554,0,0,0,3.593-2.772c2.643-2.537,4.325-6.225,5.348-10.422.956.508,1.906,1.062,2.845,1.643v9l11.635.313Z" transform="translate(-168.636 -194.875)" fill="#c5d4ea" stroke="#847625" stroke-width="1"/>
                    </g>
                  </g>
                </g>
                <path id="Trazado_1083244" data-name="Trazado 1083244" d="M66.4,100.264l31.326-36.6,32.859,36.6" transform="translate(-19.279 -18.486)" fill="none" stroke="#847625" stroke-linecap="round" stroke-linejoin="round" stroke-width="0.871"/>
                <line id="Línea_3597" data-name="Línea 3597" x1="13.124" y2="35.611" transform="translate(65.323 45.183)" fill="none" stroke="#847625" stroke-linecap="round" stroke-linejoin="round" stroke-width="0.871"/>
                <path id="Trazado_1083245" data-name="Trazado 1083245" d="M101.166,139.423c-.942.058-1.915.084-2.915.084-.156.006-.312.006-.468.006-2.09,0-4.049-.091-5.887-.26-29.235-2.707-27.93-25.569-27.93-25.569s4.049-.59,10.5-1.207c2.259-.214,4.816-.435,7.594-.629a231.186,231.186,0,0,1,38.337.182c3.83.4,7.6.935,11.2,1.655,0,0,1.382,24.147-30.43,25.738" transform="translate(-18.57 -32.269)" fill="#ffb552" stroke="#847625" stroke-width="1"/>
                <g id="Grupo_1211202" data-name="Grupo 1211202" transform="translate(82.596 79.761)" style="mix-blend-mode: multiply;isolation: isolate">
                  <g id="Grupo_1211201" data-name="Grupo 1211201">
                    <g id="Grupo_1211200" data-name="Grupo 1211200" clip-path="url(#clip-path-11)">
                      <path id="Trazado_1083246" data-name="Trazado 1083246" d="M116.39,139.787c18.276-4.752,19.623-18.658,19.233-27.392,3.83.4,7.6.935,11.2,1.655,0,0,1.382,24.147-30.43,25.738" transform="translate(-116.389 -112.395)" fill="#d6c8ab" stroke="#847625" stroke-width="1"/>
                    </g>
                  </g>
                </g>
                <g id="Grupo_1211205" data-name="Grupo 1211205" transform="translate(55.739 79.579)" style="mix-blend-mode: soft-light;isolation: isolate">
                  <g id="Grupo_1211204" data-name="Grupo 1211204">
                    <g id="Grupo_1211203" data-name="Grupo 1211203" clip-path="url(#clip-path-12)">
                      <path id="Trazado_1083247" data-name="Trazado 1083247" d="M102.486,139.8c-.155.006-.312.006-.467.006-2.091,0-4.051-.091-5.888-.26A24.93,24.93,0,0,1,78.7,112.768c2.259-.214,4.816-.435,7.595-.629a24.713,24.713,0,0,0,2.785,16.812,24.194,24.194,0,0,0,13.4,10.847" transform="translate(-78.544 -112.139)" fill="#fff" stroke="#847625" stroke-width="1"/>
                    </g>
                  </g>
                </g>
                <path id="Trazado_1083248" data-name="Trazado 1083248" d="M258.216,100.264l31.326-36.6,32.859,36.6" transform="translate(-74.973 -18.486)" fill="none" stroke="#847625" stroke-linecap="round" stroke-linejoin="round" stroke-width="0.871"/>
                <line id="Línea_3598" data-name="Línea 3598" x1="13.124" y2="35.611" transform="translate(201.446 45.183)" fill="none" stroke="#847625" stroke-linecap="round" stroke-linejoin="round" stroke-width="0.871"/>
                <path id="Trazado_1083249" data-name="Trazado 1083249" d="M292.983,139.423c-.941.058-1.915.084-2.915.084-.156.006-.312.006-.468.006-2.09,0-4.05-.091-5.887-.26-29.236-2.707-27.931-25.569-27.931-25.569s4.05-.59,10.5-1.207c2.26-.214,4.817-.435,7.595-.629a231.187,231.187,0,0,1,38.337.182c3.829.4,7.6.935,11.2,1.655,0,0,1.382,24.147-30.43,25.738" transform="translate(-74.264 -32.269)" fill="#ffb552" stroke="#847625" stroke-width="1"/>
                <g id="Grupo_1211208" data-name="Grupo 1211208" transform="translate(218.719 79.761)" style="mix-blend-mode: multiply;isolation: isolate">
                  <g id="Grupo_1211207" data-name="Grupo 1211207">
                    <g id="Grupo_1211206" data-name="Grupo 1211206" clip-path="url(#clip-path-11)">
                      <path id="Trazado_1083250" data-name="Trazado 1083250" d="M308.207,139.787c18.276-4.752,19.624-18.658,19.234-27.392,3.829.4,7.6.935,11.2,1.655,0,0,1.382,24.147-30.431,25.738" transform="translate(-308.207 -112.395)" fill="#d6c8ab" stroke="#847625" stroke-width="1"/>
                    </g>
                  </g>
                </g>
                <g id="Grupo_1211211" data-name="Grupo 1211211" transform="translate(191.863 79.579)" style="mix-blend-mode: soft-light;isolation: isolate">
                  <g id="Grupo_1211210" data-name="Grupo 1211210">
                    <g id="Grupo_1211209" data-name="Grupo 1211209" clip-path="url(#clip-path-12)">
                      <path id="Trazado_1083251" data-name="Trazado 1083251" d="M294.3,139.8c-.155.006-.312.006-.467.006-2.091,0-4.051-.091-5.888-.26a24.93,24.93,0,0,1-17.428-26.776c2.259-.214,4.816-.435,7.594-.629a24.717,24.717,0,0,0,2.785,16.812A24.194,24.194,0,0,0,294.3,139.8" transform="translate(-270.362 -112.139)" fill="#fff" stroke="#847625" stroke-width="1"/>
                    </g>
                  </g>
                </g>
                <path id="Trazado_1083252" data-name="Trazado 1083252" d="M183.668,225.568l-8.011,43.019-30.8-.634-5.338-.116-36.964-.762c-.083-.148-.167-.288-.243-.436q-11.294-19.7.243-39.392l35.515-.737,5.2-.109,9.3-.192Z" transform="translate(-28.085 -65.494)" fill="#42669a" stroke="#847625" stroke-width="1"/>
                <path id="Trazado_1083253" data-name="Trazado 1083253" d="M119.52,227.462s-13.852,17.509,0,40.328l14.094.292s-12.872-16.927,0-40.911Z" transform="translate(-32.915 -65.959)" fill="#0e2a3a" stroke="#847625" stroke-width="1"/>
                <path id="Trazado_1083254" data-name="Trazado 1083254" d="M159.872,268.293l-5.338-.116a42.629,42.629,0,0,1-1.448-41.327l5.2-.109a38.149,38.149,0,0,0,1.59,41.551" transform="translate(-43.098 -65.834)" fill="#32547c" stroke="#847625" stroke-width="1"/>
                <g id="Grupo_1211214" data-name="Grupo 1211214" transform="translate(74.229 160.074)" style="mix-blend-mode: multiply;isolation: isolate">
                  <g id="Grupo_1211213" data-name="Grupo 1211213">
                    <g id="Grupo_1211212" data-name="Grupo 1211212" clip-path="url(#clip-path-15)">
                      <path id="Trazado_1083255" data-name="Trazado 1083255" d="M185.954,225.568l-8.011,43.019-30.8-.634-5.338-.116-36.964-.762c-.083-.148-.167-.288-.243-.436a53.272,53.272,0,0,0,50.26-40.43Z" transform="translate(-104.6 -225.568)" fill="#c5d4ea" stroke="#847625" stroke-width="1"/>
                    </g>
                  </g>
                </g>
                <path id="Trazado_1083256" data-name="Trazado 1083256" d="M228.183,260.71l.971-29.6h38.369v-7.285l-82.257,1.7a43.479,43.479,0,0,0,0,42.25l82.257,1.7v-7.849Z" transform="translate(-52.202 -64.988)" fill="#7d97d3" stroke="#847625" stroke-width="1"/>
                <path id="Trazado_1083257" data-name="Trazado 1083257" d="M259.908,250.889a53.739,53.739,0,0,0,2.608,13.56l-72.369-1.7a29.234,29.234,0,0,1-3.333-12.906,35.058,35.058,0,0,1,3.333-15.751h72.369a36.018,36.018,0,0,0-2.608,16.8" transform="translate(-54.238 -67.969)" fill="#fff" stroke="#847625" stroke-width="1"/>
                <path id="Trazado_1083258" data-name="Trazado 1083258" d="M198.363,241.2Q205.687,240.98,213,241c4.879,0,9.757.073,14.634.161,4.877.113,9.753.241,14.628.444q7.313.277,14.621.8-7.324.221-14.642.2c-4.88,0-9.757-.073-14.634-.163-4.877-.114-9.753-.243-14.628-.446q-7.313-.279-14.621-.8" transform="translate(-57.595 -69.975)" fill="#7d97d3" stroke="#847625" stroke-width="1"/>
                <path id="Trazado_1083259" data-name="Trazado 1083259" d="M236.127,250.723c2.649-.212,5.3-.3,7.941-.341s5.29-.024,7.935.016c2.643.064,5.287.144,7.929.3s5.283.339,7.921.658c-2.649.214-5.3.3-7.941.342s-5.29.024-7.935-.017c-2.643-.065-5.287-.145-7.928-.3s-5.283-.338-7.922-.656" transform="translate(-68.559 -72.69)" fill="#7d97d3" stroke="#847625" stroke-width="1"/>
                <path id="Trazado_1083260" data-name="Trazado 1083260" d="M223.576,266.979c2.069-.233,4.134-.339,6.2-.4s4.131-.064,6.2-.044c2.064.044,4.127.1,6.19.238s4.124.3,6.185.6c-2.069.234-4.135.341-6.2.4s-4.13.064-6.195.043c-2.064-.045-4.128-.106-6.19-.241s-4.124-.3-6.185-.6" transform="translate(-64.915 -77.384)" fill="#7d97d3" stroke="#847625" stroke-width="1"/>
                <path id="Trazado_1083261" data-name="Trazado 1083261" d="M200.985,259.495q5.489-.293,10.976-.341c3.658-.049,7.314-.024,10.97.016,3.656.064,7.312.144,10.966.3q5.483.205,10.962.658-5.491.295-10.976.343c-3.658.049-7.314.023-10.97-.018-3.656-.065-7.312-.145-10.967-.3q-5.482-.205-10.961-.656" transform="translate(-58.356 -75.237)" fill="#7d97d3" stroke="#847625" stroke-width="1"/>
                <g id="Grupo_1211217" data-name="Grupo 1211217" transform="translate(132.577 181.875)" style="mix-blend-mode: multiply;isolation: isolate">
                  <g id="Grupo_1211216" data-name="Grupo 1211216">
                    <g id="Grupo_1211215" data-name="Grupo 1211215" clip-path="url(#clip-path-16)">
                      <path id="Trazado_1083262" data-name="Trazado 1083262" d="M262.522,270.894l-72.369-1.7a29.225,29.225,0,0,1-3.333-12.906q36.537,1.163,73.093,1.045a53.74,53.74,0,0,0,2.608,13.56" transform="translate(-186.82 -256.289)" fill="#c5d4ea" stroke="#847625" stroke-width="1"/>
                    </g>
                  </g>
                </g>
                <path id="Trazado_1083263" data-name="Trazado 1083263" d="M204.712,250.355h-8.795c4.657,6.7,5.886,14.131,3.553,21.473,2.562-1.455,5.217-2.932,7.778-4.388a20.532,20.532,0,0,0,3.641,4.581,24.616,24.616,0,0,0-6.177-21.667" transform="translate(-56.884 -72.69)" fill="#a73027" stroke="#847625" stroke-width="1"/>
                <path id="Trazado_1083264" data-name="Trazado 1083264" d="M219.163,284.937l-90.8-2.005-92.792-2.045v3.489l36.015,1.365v19.954l-36.015.671v3.826l95.31-.84,88.281-.782c5.024-8.106,4.9-15.976,0-23.633" transform="translate(-10.328 -81.555)" fill="#32547c" stroke="#847625" stroke-width="1"/>
                <path id="Trazado_1083265" data-name="Trazado 1083265" d="M257.127,309.409l-10.28.089-58.533.518-2.268.018-17.2.155c.048-.125.1-.25.143-.375,5.327-13.578.369-22.334-2.661-26.048l15.221.339,5.322.119,45.687,1.006,13.881.309,10.685.233c4.905,7.661,5.024,15.53,0,23.638" transform="translate(-48.294 -82.391)" fill="#5e80bb" stroke="#847625" stroke-width="1"/>
                <path id="Trazado_1083266" data-name="Trazado 1083266" d="M131.7,298.351a15.1,15.1,0,0,1-2.07,7.857l-82.911,1.544a22.552,22.552,0,0,0,2.384-8.183,22.12,22.12,0,0,0-3.422-13.38l83.949,3.179a21.95,21.95,0,0,1,2.07,8.984" transform="translate(-13.264 -83.095)" fill="#fff" stroke="#847625" stroke-width="1"/>
                <path id="Trazado_1083267" data-name="Trazado 1083267" d="M54.855,291.014q7.324-.219,14.642-.194c4.879,0,9.757.073,14.634.161,4.877.112,9.753.241,14.628.444q7.313.277,14.621.8-7.324.221-14.642.2c-4.88,0-9.757-.073-14.634-.163-4.877-.114-9.753-.243-14.628-.446q-7.313-.279-14.621-.8" transform="translate(-15.927 -84.439)" fill="#7d97d3" stroke="#847625" stroke-width="1"/>
                <path id="Trazado_1083268" data-name="Trazado 1083268" d="M113.779,299.575c2.649-.212,5.3-.3,7.942-.341s5.29-.024,7.934.016c2.643.064,5.287.144,7.929.3s5.283.339,7.921.658c-2.649.214-5.3.3-7.941.342s-5.29.024-7.935-.017c-2.643-.065-5.287-.145-7.928-.3s-5.283-.338-7.922-.656" transform="translate(-33.036 -86.875)" fill="#7d97d3" stroke="#847625" stroke-width="1"/>
                <path id="Trazado_1083269" data-name="Trazado 1083269" d="M59.285,307.35q5.49-.293,10.976-.341c3.658-.05,7.314-.024,10.97.016,3.656.064,7.312.144,10.966.3q5.483.2,10.962.658-5.489.295-10.975.343c-3.658.049-7.315.023-10.971-.018-3.656-.065-7.312-.145-10.967-.3q-5.482-.205-10.961-.656" transform="translate(-17.213 -89.132)" fill="#7d97d3" stroke="#847625" stroke-width="1"/>
                <path id="Trazado_1083270" data-name="Trazado 1083270" d="M255.254,309.683l-58.533.519c5.03-10.772.967-21.173-1.442-25.793l59.565,1.314c4.608,9.093,2.134,19.1.41,23.961" transform="translate(-56.699 -82.578)" fill="#32547c" stroke="#847625" stroke-width="1"/>
                <path id="Trazado_1083271" data-name="Trazado 1083271" d="M254.748,300.876c0,2.3-9.519,4.169-21.26,4.169s-21.26-1.866-21.26-4.169,9.519-4.169,21.26-4.169,21.26,1.866,21.26,4.169" transform="translate(-61.62 -86.149)" fill="#42669a" stroke="#847625" stroke-width="1"/>
                <g id="Grupo_1211220" data-name="Grupo 1211220" transform="translate(33.458 215.256)" style="mix-blend-mode: multiply;isolation: isolate">
                  <g id="Grupo_1211219" data-name="Grupo 1211219">
                    <g id="Grupo_1211218" data-name="Grupo 1211218" clip-path="url(#clip-path-17)">
                      <path id="Trazado_1083272" data-name="Trazado 1083272" d="M132.128,303.327a15.1,15.1,0,0,1-2.07,7.857l-82.911,1.544a22.552,22.552,0,0,0,2.384-8.183q41.3.23,82.6-1.218" transform="translate(-47.147 -303.327)" fill="#c5d4ea" stroke="#847625" stroke-width="1"/>
                    </g>
                  </g>
                </g>
                <g id="Grupo_1211223" data-name="Grupo 1211223" transform="translate(120.555 201.713)" style="mix-blend-mode: multiply;isolation: isolate">
                  <g id="Grupo_1211222" data-name="Grupo 1211222">
                    <g id="Grupo_1211221" data-name="Grupo 1211221" clip-path="url(#clip-path-18)">
                      <path id="Trazado_1083273" data-name="Trazado 1083273" d="M258.157,309.548l-10.28.089-58.533.518-2.268.018-17.2.155c.048-.125.1-.25.143-.375a32.145,32.145,0,0,0,8.476-5.869,30.667,30.667,0,0,1,4.084-19.84l5.322.119,45.687,1.006,13.881.309,10.685.233c4.905,7.661,5.024,15.53,0,23.638" transform="translate(-169.879 -284.243)" fill="#c5d4ea" stroke="#847625" stroke-width="1"/>
                    </g>
                  </g>
                </g>
                <path id="Trazado_1083274" data-name="Trazado 1083274" d="M142.483,296.707H147a16.159,16.159,0,0,1-3.966,12.233,15.657,15.657,0,0,1-11.672,5.188c.5-1.236.858-2.258,1.359-3.494a36.81,36.81,0,0,1-7.076.306c3.789-.808,7.747-1.93,10.975-4.122a13.406,13.406,0,0,0,5.858-10.11" transform="translate(-36.482 -86.149)" fill="#ffb552" stroke="#847625" stroke-width="1"/>
                <path id="Trazado_1083275" data-name="Trazado 1083275" d="M316.2,232.055c-.073.244-.145.5-.23.759l-7.39,1.809A11.561,11.561,0,0,1,302.12,232a7.54,7.54,0,0,1-2.394-5.912,16.223,16.223,0,0,1,1.094-5.346s-6.16-1.516-2.877-6.493c0,0-40.591-53.033-29.879-58.358a3.407,3.407,0,0,1,2.6-.138c11.687,3.511,33.161,55.747,33.161,55.747s6.965,1.21,3.663,6.462c0,0,12.2,1.749,8.714,14.092" transform="translate(-77.309 -45.168)" fill="#32547c" stroke="#847625" stroke-width="1"/>
                <g id="Grupo_1211226" data-name="Grupo 1211226" transform="translate(193.355 110.586)" style="mix-blend-mode: multiply;isolation: isolate">
                  <g id="Grupo_1211225" data-name="Grupo 1211225">
                    <g id="Grupo_1211224" data-name="Grupo 1211224" clip-path="url(#clip-path-19)">
                      <path id="Trazado_1083276" data-name="Trazado 1083276" d="M318,232.133c-4.689-.02-9.386-.053-14.081-.053a7.54,7.54,0,0,1-2.394-5.912,20.755,20.755,0,0,1,8.771-3.247,7.347,7.347,0,0,0-4.332-3.9,3.765,3.765,0,0,0,.783-3.692,4.1,4.1,0,0,0-3.127-2.4,220.6,220.6,0,0,0-31.159-57.1c11.687,3.511,33.161,55.747,33.161,55.747s6.965,1.21,3.663,6.462c0,0,12.2,1.749,8.714,14.092" transform="translate(-272.465 -155.832)" fill="#c5d4ea" stroke="#847625" stroke-width="1"/>
                    </g>
                  </g>
                </g>
                <path id="Trazado_1083277" data-name="Trazado 1083277" d="M379.408,277.644c-.529-10.926-6.517-19.789-14.043-21.71l-.056-.02a13.774,13.774,0,0,0-9.167-.026l.512,1.033c-6.508,3.3-10.9,12.154-10.407,22.331.52,10.736,6.311,19.483,13.653,21.607l-1.109.732a10.61,10.61,0,0,0,7.429-.579l.021-.01c7.985-1.947,13.727-11.8,13.167-23.357" transform="translate(-100.522 -74.081)" fill="#7d97d3" stroke="#847625" stroke-width="1"/>
                <path id="Trazado_1083278" data-name="Trazado 1083278" d="M373.235,278.107c.612,12.643-6.314,23.252-15.471,23.7s-17.077-9.445-17.689-22.089,6.314-23.252,15.471-23.7,17.077,9.445,17.689,22.089" transform="translate(-98.73 -74.331)" fill="#0e2a3a" stroke="#847625" stroke-width="1"/>
                <path id="Trazado_1083279" data-name="Trazado 1083279" d="M355.726,283.72a21.876,21.876,0,0,1-17.57,18.427,91.834,91.834,0,0,1-26.825.96,122.748,122.748,0,0,1-12.278-1.86l-1.964-40.532a77.879,77.879,0,0,1,40.962-3.4c.65.124,1.289.271,1.911.45a21.88,21.88,0,0,1,15.932,19.085,31.229,31.229,0,0,1-.167,6.874" transform="translate(-86.259 -74.334)" fill="#42669a" stroke="#847625" stroke-width="1"/>
                <g id="Grupo_1211229" data-name="Grupo 1211229" transform="translate(225.071 183.427)" style="mix-blend-mode: multiply;isolation: isolate">
                  <g id="Grupo_1211228" data-name="Grupo 1211228">
                    <g id="Grupo_1211227" data-name="Grupo 1211227" clip-path="url(#clip-path-20)">
                      <path id="Trazado_1083280" data-name="Trazado 1083280" d="M361.553,284.434a21.876,21.876,0,0,1-17.57,18.427,91.834,91.834,0,0,1-26.826.96,43.675,43.675,0,0,0,27.682-16,30.512,30.512,0,0,0,5.92-11.634,19.306,19.306,0,0,0-1.165-12.846,15.042,15.042,0,0,0-3.806-4.863A21.88,21.88,0,0,1,361.72,277.56a31.227,31.227,0,0,1-.167,6.874" transform="translate(-317.157 -258.475)" fill="#c5d4ea" stroke="#847625" stroke-width="1"/>
                    </g>
                  </g>
                </g>
                <path id="Trazado_1083281" data-name="Trazado 1083281" d="M316.126,280.711c-.529-10.926-6.517-19.789-14.043-21.71l-.055-.02a13.774,13.774,0,0,0-9.167-.026l.512,1.033c-6.507,3.3-10.9,12.154-10.407,22.331.52,10.736,6.311,19.483,13.653,21.607l-1.109.731a10.608,10.608,0,0,0,7.429-.578l.021-.01c7.985-1.947,13.727-11.8,13.167-23.357" transform="translate(-82.148 -74.971)" fill="#0e2a3a" stroke="#847625" stroke-width="1"/>
                <path id="Trazado_1083282" data-name="Trazado 1083282" d="M309.953,281.174c.612,12.64-6.311,23.25-15.468,23.695a13.606,13.606,0,0,1-9.477-3.468,19.23,19.23,0,0,1-2.65-2.774,22.235,22.235,0,0,1-2.024-3.031,28.54,28.54,0,0,1-3.317-10.281c-.106-.829-.183-1.678-.224-2.534-.613-12.646,6.31-23.256,15.473-23.7a12.058,12.058,0,0,1,2.72.172,14.706,14.706,0,0,1,7.6,4.071,20.371,20.371,0,0,1,2.3,2.636,24.192,24.192,0,0,1,2.131,3.526,29.61,29.61,0,0,1,2.939,11.687" transform="translate(-80.356 -75.22)" fill="#42669a" stroke="#847625" stroke-width="1"/>
                <path id="Trazado_1083283" data-name="Trazado 1083283" d="M306.783,281.528c.523,10.785-5.327,21.056-13.137,21.435s-14.531-7.33-15.054-18.115,5.35-20.561,13.161-20.94,14.507,6.835,15.03,17.619" transform="translate(-80.88 -76.622)" fill="#7d97d3" stroke="#847625" stroke-width="1"/>
                <g id="Grupo_1211232" data-name="Grupo 1211232" transform="translate(196.661 184.033)" opacity="0.5" style="mix-blend-mode: soft-light;isolation: isolate">
                  <g id="Grupo_1211231" data-name="Grupo 1211231">
                    <g id="Grupo_1211230" data-name="Grupo 1211230" clip-path="url(#clip-path-21)">
                      <path id="Trazado_1083284" data-name="Trazado 1083284" d="M302.692,263.4l-22.251,32.271a28.564,28.564,0,0,1-3.317-10.281l17.969-26.063a14.713,14.713,0,0,1,7.6,4.072" transform="translate(-277.124 -259.329)" fill="#fff" stroke="#847625" stroke-width="1"/>
                      <path id="Trazado_1083285" data-name="Trazado 1083285" d="M309.306,272.307,287.3,304.221a19.189,19.189,0,0,1-2.649-2.774l22.524-32.666a24.193,24.193,0,0,1,2.132,3.526" transform="translate(-279.309 -262.073)" fill="#fff" stroke="#847625" stroke-width="1"/>
                    </g>
                  </g>
                </g>
              </g>
            </g>
          </g>
        </g>
      </g>
    </g>
  </g>
</svg>
