<svg xmlns="http://www.w3.org/2000/svg" xmlns:xlink="http://www.w3.org/1999/xlink" width="113" height="113" viewBox="0 0 113 113">
  <defs>
    <filter id="Trazado_982547" x="0" y="-0.001" width="113" height="113" filterUnits="userSpaceOnUse">
      <feOffset dy="3" input="SourceAlpha"/>
      <feGaussianBlur stdDeviation="3" result="blur"/>
      <feFlood flood-opacity="0.161"/>
      <feComposite operator="in" in2="blur"/>
      <feComposite in="SourceGraphic"/>
    </filter>
  </defs>
  <g id="Grupo_1211239" data-name="Grupo 1211239" transform="translate(-325 -11553.101)">
    <g id="Grupo_1210099" data-name="Grupo 1210099" transform="translate(0 4024.292)">
      <g id="Grupo_1208705" data-name="Grupo 1208705" transform="translate(-1.454 3213.429)">
        <g id="Grupo_1148633" data-name="Grupo 1148633" transform="translate(71.408 600.047)">
          <g id="Grupo_1148525" data-name="Grupo 1148525" transform="translate(264.046 3721.333)">
            <g transform="matrix(1, 0, 0, 1, -9, -6)" filter="url(#Trazado_982547)">
              <g id="Trazado_982547-2" data-name="Trazado 982547" transform="translate(9 6)" fill="#e6d567">
                <path d="M 47.5 93.5 C 41.28937149047852 93.5 35.26533508300781 92.28397369384766 29.59518623352051 89.88570404052734 C 24.11771965026855 87.56893157958984 19.19813346862793 84.25196075439453 14.97309303283691 80.02691650390625 C 10.74804019927979 75.80186462402344 7.431066513061523 70.88229370117188 5.114293098449707 65.40481567382812 C 2.716026782989502 59.73468017578125 1.5 53.71062850952148 1.5 47.5 C 1.5 41.28937149047852 2.716026782989502 35.26533508300781 5.114293098449707 29.59518623352051 C 7.431066513061523 24.11771965026855 10.74804019927979 19.19813346862793 14.97309303283691 14.97309303283691 C 19.19813346862793 10.74804019927979 24.11771965026855 7.431066513061523 29.59518623352051 5.114293098449707 C 35.26533508300781 2.716026782989502 41.28937149047852 1.5 47.5 1.5 C 53.71062850952148 1.5 59.73468017578125 2.716026782989502 65.40481567382812 5.114293098449707 C 70.88229370117188 7.431066513061523 75.80186462402344 10.74804019927979 80.02691650390625 14.97309303283691 C 84.25196075439453 19.19813346862793 87.56893157958984 24.11771965026855 89.88570404052734 29.59518623352051 C 92.28397369384766 35.26533508300781 93.5 41.28937149047852 93.5 47.5 C 93.5 53.71062850952148 92.28397369384766 59.73468017578125 89.88570404052734 65.40481567382812 C 87.56893157958984 70.88229370117188 84.25196075439453 75.80186462402344 80.02691650390625 80.02691650390625 C 75.80186462402344 84.25196075439453 70.88229370117188 87.56893157958984 65.40481567382812 89.88570404052734 C 59.73468017578125 92.28397369384766 53.71062850952148 93.5 47.5 93.5 Z" stroke="none"/>
                <path d="M 47.5 3 C 41.49121475219727 3 35.66376876831055 4.176155090332031 30.17950439453125 6.495796203613281 C 24.88084411621094 8.736953735351562 20.12152099609375 11.94598388671875 16.03375244140625 16.03375244140625 C 11.94598388671875 20.12152099609375 8.736953735351562 24.88084411621094 6.495796203613281 30.17950439453125 C 4.176155090332031 35.66376876831055 3 41.49121475219727 3 47.5 C 3 53.50878524780273 4.176155090332031 59.33623123168945 6.495796203613281 64.82049560546875 C 8.736953735351562 70.11915588378906 11.94598388671875 74.87847900390625 16.03375244140625 78.96624755859375 C 20.12152099609375 83.05401611328125 24.88084411621094 86.26304626464844 30.17950439453125 88.50419616699219 C 35.66376876831055 90.82384490966797 41.49121475219727 92 47.5 92 C 53.50878524780273 92 59.33623123168945 90.82384490966797 64.82049560546875 88.50419616699219 C 70.11915588378906 86.26304626464844 74.87847900390625 83.05401611328125 78.96624755859375 78.96624755859375 C 83.05401611328125 74.87847900390625 86.26304626464844 70.11915588378906 88.50419616699219 64.82049560546875 C 90.82384490966797 59.33623123168945 92 53.50878524780273 92 47.5 C 92 41.49121475219727 90.82384490966797 35.66376876831055 88.50419616699219 30.17950439453125 C 86.26304626464844 24.88084411621094 83.05401611328125 20.12152099609375 78.96624755859375 16.03375244140625 C 74.87847900390625 11.94598388671875 70.11915588378906 8.736953735351562 64.82049560546875 6.495796203613281 C 59.33623123168945 4.176155090332031 53.50878524780273 3 47.5 3 M 47.5 0 C 73.7335205078125 0 95 21.2664794921875 95 47.5 C 95 73.7335205078125 73.7335205078125 95 47.5 95 C 21.2664794921875 95 0 73.7335205078125 0 47.5 C 0 21.2664794921875 21.2664794921875 0 47.5 0 Z" stroke="none" fill="#ba9c5a"/>
              </g>
            </g>
          </g>
        </g>
      </g>
    </g>
    <g id="no-toxic_5221537" transform="translate(346.906 11572.014)">
      <path id="Trazado_1083287" data-name="Trazado 1083287" d="M41.443,14.369A27.089,27.089,0,1,0,68.532,41.457,27.219,27.219,0,0,0,41.443,14.369ZM74.872,41.457A33.428,33.428,0,1,1,41.443,8.029,33.428,33.428,0,0,1,74.872,41.457Z" transform="translate(-6.853 -6.872)" fill="#ff6d7a"/>
      <path id="Trazado_1083288" data-name="Trazado 1083288" d="M264.976,147.654A27.2,27.2,0,0,1,234.5,174.533a.762.762,0,0,1,.1-1.52,27.218,27.218,0,0,0,27.21-27.088,26.831,26.831,0,0,0-4.357-14.655.763.763,0,0,1,1.227-.9A26.911,26.911,0,0,1,264.976,147.654Z" transform="translate(-200.127 -111.34)" fill="#ff8c95"/>
      <path id="Trazado_1083289" data-name="Trazado 1083289" d="M11.219,41.609a33.208,33.208,0,0,0,7.759,22.859.577.577,0,0,1-.844.785A33.311,33.311,0,0,1,8.049,39.88c.923-20.452,20.4-35.8,40.831-31.08a.576.576,0,0,1-.2,1.134A33.563,33.563,0,0,0,11.219,41.609Z" transform="translate(-6.853 -6.798)" fill="#ff8c95"/>
      <path id="Trazado_1083290" data-name="Trazado 1083290" d="M158.147,126.6a16.571,16.571,0,1,0-30.992,8.163,6.054,6.054,0,0,0,5.632,8.263l.667,2.071a3.46,3.46,0,0,0,3.292,2.4h9.66a3.46,3.46,0,0,0,3.292-2.4l.667-2.071A6.054,6.054,0,0,0,156,134.759a16.484,16.484,0,0,0,2.148-8.163Z" transform="translate(-106.986 -94.173)" fill="#cbe3fa"/>
      <path id="Trazado_1083291" data-name="Trazado 1083291" d="M146.048,110.585a1.148,1.148,0,0,1-.277,2.257,16.584,16.584,0,0,0-14.521,24.336,1.115,1.115,0,0,1,.072.851,6.065,6.065,0,0,0-.191,2.725,1.151,1.151,0,0,1-1.781,1.149,6.049,6.049,0,0,1-2.2-7.2,16.574,16.574,0,0,1,18.894-24.122Z" transform="translate(-106.985 -94.12)" fill="#eef7ff"/>
      <circle id="Elipse_14315" data-name="Elipse 14315" cx="5.043" cy="5.043" r="5.043" transform="translate(22.92 30.983)" fill="#9ec7f0"/>
      <circle id="Elipse_14316" data-name="Elipse 14316" cx="5.043" cy="5.043" r="5.043" transform="translate(36.176 30.983)" fill="#9ec7f0"/>
      <g id="Grupo_1211238" data-name="Grupo 1211238" transform="translate(0.009 0)">
        <path id="Trazado_1083292" data-name="Trazado 1083292" d="M72.25,46.334a25.769,25.769,0,0,1,12.315,3.149,1.153,1.153,0,1,0,1.105-2.023,28.446,28.446,0,1,0,6.512,4.879,1.153,1.153,0,0,0-1.63,0l-2.547,2.547a1.153,1.153,0,0,0,1.63,1.63L91.349,54.8A25.7,25.7,0,0,1,98.186,72.27,25.922,25.922,0,0,1,54.753,91.4c6.007-6.007,5.561-5.551,5.647-5.665a1.154,1.154,0,0,0-.162-1.56,4.9,4.9,0,0,1-1.337-5.48,1.153,1.153,0,0,0-.07-.99,15.417,15.417,0,1,1,26.839,0,1.153,1.153,0,0,0-.07.99,4.9,4.9,0,0,1-4.56,6.689,1.152,1.152,0,0,0-1.1.8l-.668,2.07a2.3,2.3,0,0,1-2.194,1.6H67.42a2.3,2.3,0,0,1-2.194-1.6,1.153,1.153,0,0,0-2.194.708,4.6,4.6,0,0,0,4.388,3.2h9.661a4.6,4.6,0,0,0,4.388-3.2l.426-1.322a7.214,7.214,0,0,0,6.034-9.261,17.723,17.723,0,1,0-31.358,0,7.2,7.2,0,0,0,1.3,6.646l-4.745,4.745A25.922,25.922,0,0,1,72.25,46.334Z" transform="translate(-37.669 -37.685)"/>
        <path id="Trazado_1083293" data-name="Trazado 1083293" d="M59,10.179A34.574,34.574,0,0,0,.109,37.2a1.153,1.153,0,0,0,2.3-.175C.974,18.2,16.366,2.309,34.591,2.309a32.276,32.276,0,1,1,0,64.552A32.654,32.654,0,0,1,3.822,44.281a1.153,1.153,0,1,0-2.2.7,35.152,35.152,0,0,0,12.39,17.325A34.514,34.514,0,0,0,59,10.179Z" transform="translate(-0.009 0)"/>
        <path id="Trazado_1083294" data-name="Trazado 1083294" d="M156.548,209.811a1.153,1.153,0,0,0-.386-2.273,6.2,6.2,0,1,0,5.563,1.872,1.153,1.153,0,0,0-1.682,1.577,3.89,3.89,0,1,1-3.5-1.176Z" transform="translate(-129.252 -177.62)"/>
        <path id="Trazado_1083295" data-name="Trazado 1083295" d="M250.717,217.116a3.853,3.853,0,0,1-2.838-1.23,1.153,1.153,0,1,0-1.681,1.577,6.195,6.195,0,1,0-1.363-6.187,1.153,1.153,0,1,0,2.189.725,3.891,3.891,0,1,1,3.694,5.115Z" transform="translate(-209.507 -177.199)"/>
        <path id="Trazado_1083296" data-name="Trazado 1083296" d="M222.8,293.373l-.753,1.232a1.875,1.875,0,0,0,1.6,2.85h1.506a1.875,1.875,0,0,0,1.6-2.85l-.753-1.232A1.873,1.873,0,0,0,222.8,293.373Z" transform="translate(-189.815 -250.334)"/>
      </g>
    </g>
  </g>
</svg>
