<svg xmlns="http://www.w3.org/2000/svg" xmlns:xlink="http://www.w3.org/1999/xlink" width="113" height="113" viewBox="0 0 113 113">
  <defs>
    <filter id="Trazado_982547" x="0" y="-0.001" width="113" height="113" filterUnits="userSpaceOnUse">
      <feOffset dy="3" input="SourceAlpha"/>
      <feGaussianBlur stdDeviation="3" result="blur"/>
      <feFlood flood-opacity="0.161"/>
      <feComposite operator="in" in2="blur"/>
      <feComposite in="SourceGraphic"/>
    </filter>
  </defs>
  <g id="Grupo_1211241" data-name="Grupo 1211241" transform="translate(-742.046 -11553.101)">
    <g id="Grupo_1210100" data-name="Grupo 1210100" transform="translate(0 4024.292)">
      <g id="Grupo_1208706" data-name="Grupo 1208706" transform="translate(-1.454 3213.429)">
        <g id="Grupo_1148634" data-name="Grupo 1148634" transform="translate(488.454 600.047)">
          <g id="Grupo_1148525" data-name="Grupo 1148525" transform="translate(264.046 3721.333)">
            <g transform="matrix(1, 0, 0, 1, -9, -6)" filter="url(#Trazado_982547)">
              <g id="Trazado_982547-2" data-name="Trazado 982547" transform="translate(9 6)" fill="#e6d567">
                <path d="M 47.5 93.5 C 41.28937149047852 93.5 35.26533508300781 92.28397369384766 29.59518623352051 89.88570404052734 C 24.11771965026855 87.56893157958984 19.19813346862793 84.25196075439453 14.97309303283691 80.02691650390625 C 10.74804019927979 75.80186462402344 7.431066513061523 70.88229370117188 5.114293098449707 65.40481567382812 C 2.716026782989502 59.73468017578125 1.5 53.71062850952148 1.5 47.5 C 1.5 41.28937149047852 2.716026782989502 35.26533508300781 5.114293098449707 29.59518623352051 C 7.431066513061523 24.11771965026855 10.74804019927979 19.19813346862793 14.97309303283691 14.97309303283691 C 19.19813346862793 10.74804019927979 24.11771965026855 7.431066513061523 29.59518623352051 5.114293098449707 C 35.26533508300781 2.716026782989502 41.28937149047852 1.5 47.5 1.5 C 53.71062850952148 1.5 59.73468017578125 2.716026782989502 65.40481567382812 5.114293098449707 C 70.88229370117188 7.431066513061523 75.80186462402344 10.74804019927979 80.02691650390625 14.97309303283691 C 84.25196075439453 19.19813346862793 87.56893157958984 24.11771965026855 89.88570404052734 29.59518623352051 C 92.28397369384766 35.26533508300781 93.5 41.28937149047852 93.5 47.5 C 93.5 53.71062850952148 92.28397369384766 59.73468017578125 89.88570404052734 65.40481567382812 C 87.56893157958984 70.88229370117188 84.25196075439453 75.80186462402344 80.02691650390625 80.02691650390625 C 75.80186462402344 84.25196075439453 70.88229370117188 87.56893157958984 65.40481567382812 89.88570404052734 C 59.73468017578125 92.28397369384766 53.71062850952148 93.5 47.5 93.5 Z" stroke="none"/>
                <path d="M 47.5 3 C 41.49121475219727 3 35.66376876831055 4.176155090332031 30.17950439453125 6.495796203613281 C 24.88084411621094 8.736953735351562 20.12152099609375 11.94598388671875 16.03375244140625 16.03375244140625 C 11.94598388671875 20.12152099609375 8.736953735351562 24.88084411621094 6.495796203613281 30.17950439453125 C 4.176155090332031 35.66376876831055 3 41.49121475219727 3 47.5 C 3 53.50878524780273 4.176155090332031 59.33623123168945 6.495796203613281 64.82049560546875 C 8.736953735351562 70.11915588378906 11.94598388671875 74.87847900390625 16.03375244140625 78.96624755859375 C 20.12152099609375 83.05401611328125 24.88084411621094 86.26304626464844 30.17950439453125 88.50419616699219 C 35.66376876831055 90.82384490966797 41.49121475219727 92 47.5 92 C 53.50878524780273 92 59.33623123168945 90.82384490966797 64.82049560546875 88.50419616699219 C 70.11915588378906 86.26304626464844 74.87847900390625 83.05401611328125 78.96624755859375 78.96624755859375 C 83.05401611328125 74.87847900390625 86.26304626464844 70.11915588378906 88.50419616699219 64.82049560546875 C 90.82384490966797 59.33623123168945 92 53.50878524780273 92 47.5 C 92 41.49121475219727 90.82384490966797 35.66376876831055 88.50419616699219 30.17950439453125 C 86.26304626464844 24.88084411621094 83.05401611328125 20.12152099609375 78.96624755859375 16.03375244140625 C 74.87847900390625 11.94598388671875 70.11915588378906 8.736953735351562 64.82049560546875 6.495796203613281 C 59.33623123168945 4.176155090332031 53.50878524780273 3 47.5 3 M 47.5 0 C 73.7335205078125 0 95 21.2664794921875 95 47.5 C 95 73.7335205078125 73.7335205078125 95 47.5 95 C 21.2664794921875 95 0 73.7335205078125 0 47.5 C 0 21.2664794921875 21.2664794921875 0 47.5 0 Z" stroke="none" fill="#ba9c5a"/>
              </g>
            </g>
          </g>
        </g>
      </g>
    </g>
    <g id="pena" transform="translate(773.9 11573.975)">
      <path id="Trazado_1083297" data-name="Trazado 1083297" d="M49.325,8H10.175A2.181,2.181,0,0,0,8,10.175v52.2l8.7,8.7H49.325A2.181,2.181,0,0,0,51.5,68.9V10.175A2.181,2.181,0,0,0,49.325,8Zm0,0" transform="translate(-6.912 -6.912)" fill="#e2c8ac"/>
      <path id="Trazado_1083298" data-name="Trazado 1083298" d="M14.525,408H8l8.7,8.7v-6.525A2.181,2.181,0,0,0,14.525,408Zm0,0" transform="translate(-6.912 -352.538)" fill="#ceb195"/>
      <path id="Trazado_1083299" data-name="Trazado 1083299" d="M209.447,246.185,187.262,224,184,227.262l22.185,22.185a2.307,2.307,0,0,0,3.262-3.262Zm0,0" transform="translate(-158.987 -193.55)" fill="#5b4349"/>
      <path id="Trazado_1083300" data-name="Trazado 1083300" d="M71.789,136.1l16.3-16.3,8.689,8.689-16.3,16.3Zm0,0" transform="translate(-62.03 -103.509)" fill="#704d4d"/>
      <path id="Trazado_1083301" data-name="Trazado 1083301" d="M204.615,95.971,195.7,87.053a2.1,2.1,0,0,0-3.045,0A2.147,2.147,0,0,0,192,88.575v2.393l8.7,8.7h2.393a2.182,2.182,0,0,0,2.175-2.175,2.147,2.147,0,0,0-.653-1.522Zm0,0" transform="translate(-165.9 -74.655)" fill="#5b4349"/>
      <path id="Trazado_1083302" data-name="Trazado 1083302" d="M40.573,240a2.182,2.182,0,0,0-2.175,2.175,2.147,2.147,0,0,0,.653,1.522l8.918,8.918a2.1,2.1,0,0,0,3.045,0,2.147,2.147,0,0,0,.653-1.522V248.7l-8.7-8.7Zm0,0" transform="translate(-33.178 -207.375)" fill="#5b4349"/>
      <path id="Trazado_1083303" data-name="Trazado 1083303" d="M242.422,60.579l2.153-2.153,1.538,1.538-2.153,2.153Zm0,0" transform="translate(-209.468 -50.483)" fill="#8e6a65"/>
      <path id="Trazado_1083304" data-name="Trazado 1083304" d="M266.5,70.324l4.383-4.383,1.538,1.538-4.383,4.383Zm0,0" transform="translate(-230.273 -56.977)" fill="#8e6a65"/>
      <path id="Trazado_1083305" data-name="Trazado 1083305" d="M290.582,80.556l6.536-6.536,1.538,1.538-6.536,6.536Zm0,0" transform="translate(-251.081 -63.958)" fill="#8e6a65"/>
      <g id="Grupo_1211240" data-name="Grupo 1211240" transform="translate(5.438 5.438)">
        <path id="Trazado_1083306" data-name="Trazado 1083306" d="M120,40h13.05v2.175H120Zm0,0" transform="translate(-109.125 -40)" fill="#5da364"/>
        <path id="Trazado_1083307" data-name="Trazado 1083307" d="M40,80H57.4v2.175H40Zm0,0" transform="translate(-40 -74.563)" fill="#5da364"/>
        <path id="Trazado_1083308" data-name="Trazado 1083308" d="M40,120H53.05v2.175H40Zm0,0" transform="translate(-40 -109.125)" fill="#5da364"/>
        <path id="Trazado_1083309" data-name="Trazado 1083309" d="M40,160h8.7v2.175H40Zm0,0" transform="translate(-40 -143.688)" fill="#5da364"/>
        <path id="Trazado_1083310" data-name="Trazado 1083310" d="M40,200h3.262v2.175H40Zm0,0" transform="translate(-40 -178.25)" fill="#5da364"/>
        <path id="Trazado_1083311" data-name="Trazado 1083311" d="M40,360H70.45v2.175H40Zm0,0" transform="translate(-40 -316.5)" fill="#5da364"/>
        <path id="Trazado_1083312" data-name="Trazado 1083312" d="M104,392h26.1v2.175H104Zm0,0" transform="translate(-95.3 -344.15)" fill="#5da364"/>
        <path id="Trazado_1083313" data-name="Trazado 1083313" d="M104,424h26.1v2.175H104Zm0,0" transform="translate(-95.3 -371.801)" fill="#5da364"/>
      </g>
      <path id="Trazado_1083314" data-name="Trazado 1083314" d="M51.221,51.874l-5.546-5.546V18.487H43.5V44.152L30.341,30.994,35.235,26.1h1.958a3.2,3.2,0,0,0,3.262-3.262,2.962,2.962,0,0,0-.979-2.284l-8.917-8.917a3.263,3.263,0,0,0-5.546,2.283v1.958L9.353,31.537H7.4A3.2,3.2,0,0,0,4.133,34.8a2.962,2.962,0,0,0,.979,2.284L14.029,46a3.263,3.263,0,0,0,5.546-2.283V41.76l5.981-5.981L43.5,53.722v8.265a1.027,1.027,0,0,1-1.087,1.087H10.875V57.637a3.2,3.2,0,0,0-3.262-3.262H2.175V3.263A1.027,1.027,0,0,1,3.263,2.175h39.15A1.027,1.027,0,0,1,43.5,3.263v4.35h2.175V3.263A3.2,3.2,0,0,0,42.412,0H3.263A3.2,3.2,0,0,0,0,3.263V55.9l9.353,9.353h33.06a3.2,3.2,0,0,0,3.262-3.262V55.9l.761.761a3.383,3.383,0,1,0,4.785-4.785ZM8.7,57.637v3.915l-5-5H7.613A1.027,1.027,0,0,1,8.7,57.637ZM27.514,13.159a1.052,1.052,0,0,1,1.523,0l8.917,8.917a1.052,1.052,0,0,1,0,1.523.987.987,0,0,1-.761.326H35.235l-8.047-8.047V13.92a1.175,1.175,0,0,1,.326-.761ZM26.1,17.835l7.178,7.178L18.488,39.8,11.31,32.625ZM17.074,44.478a1.052,1.052,0,0,1-1.523,0L6.634,35.561a1.052,1.052,0,0,1,0-1.523.987.987,0,0,1,.761-.326H9.353L17.4,41.76v1.958a1.175,1.175,0,0,1-.326.761ZM48.828,55.462a1.235,1.235,0,0,1-.87-.326l-20.88-20.88,1.74-1.74L49.7,53.4a1.322,1.322,0,0,1,0,1.74,1.237,1.237,0,0,1-.87.326Zm0,0"/>
      <path id="Trazado_1083315" data-name="Trazado 1083315" d="M242.422,60.579l2.153-2.153,1.538,1.538-2.153,2.153Zm0,0" transform="translate(-209.468 -50.483)"/>
      <path id="Trazado_1083316" data-name="Trazado 1083316" d="M266.5,70.324l4.383-4.383,1.538,1.538-4.383,4.383Zm0,0" transform="translate(-230.273 -56.977)"/>
      <path id="Trazado_1083317" data-name="Trazado 1083317" d="M290.582,80.556l6.536-6.536,1.538,1.538-6.536,6.536Zm0,0" transform="translate(-251.081 -63.958)"/>
      <path id="Trazado_1083318" data-name="Trazado 1083318" d="M120,40h13.05v2.175H120Zm0,0" transform="translate(-103.687 -34.562)"/>
      <path id="Trazado_1083319" data-name="Trazado 1083319" d="M40,80H57.4v2.175H40Zm0,0" transform="translate(-34.562 -69.125)"/>
      <path id="Trazado_1083320" data-name="Trazado 1083320" d="M40,120H53.05v2.175H40Zm0,0" transform="translate(-34.562 -103.688)"/>
      <path id="Trazado_1083321" data-name="Trazado 1083321" d="M40,160h8.7v2.175H40Zm0,0" transform="translate(-34.562 -138.25)"/>
      <path id="Trazado_1083322" data-name="Trazado 1083322" d="M40,200h3.262v2.175H40Zm0,0" transform="translate(-34.562 -172.813)"/>
      <path id="Trazado_1083323" data-name="Trazado 1083323" d="M40,360H70.45v2.175H40Zm0,0" transform="translate(-34.562 -311.063)"/>
      <path id="Trazado_1083324" data-name="Trazado 1083324" d="M104,392h26.1v2.175H104Zm0,0" transform="translate(-89.862 -338.713)"/>
      <path id="Trazado_1083325" data-name="Trazado 1083325" d="M104,424h26.1v2.175H104Zm0,0" transform="translate(-89.862 -366.363)"/>
    </g>
  </g>
</svg>
