<svg xmlns="http://www.w3.org/2000/svg" xmlns:xlink="http://www.w3.org/1999/xlink" width="113" height="113" viewBox="0 0 113 113">
  <defs>
    <filter id="Trazado_982547" x="0" y="-0.001" width="113" height="113" filterUnits="userSpaceOnUse">
      <feOffset dy="3" input="SourceAlpha"/>
      <feGaussianBlur stdDeviation="3" result="blur"/>
      <feFlood flood-opacity="0.161"/>
      <feComposite operator="in" in2="blur"/>
      <feComposite in="SourceGraphic"/>
    </filter>
  </defs>
  <g id="Grupo_1211243" data-name="Grupo 1211243" transform="translate(-1162.5 -11553.101)">
    <g id="Grupo_1210101" data-name="Grupo 1210101" transform="translate(0 4024.292)">
      <g id="Grupo_1208707" data-name="Grupo 1208707" transform="translate(-1.454 3213.429)">
        <g id="Grupo_1148635" data-name="Grupo 1148635" transform="translate(908.908 600.047)">
          <g id="Grupo_1148525" data-name="Grupo 1148525" transform="translate(264.046 3721.333)">
            <g transform="matrix(1, 0, 0, 1, -9, -6)" filter="url(#Trazado_982547)">
              <g id="Trazado_982547-2" data-name="Trazado 982547" transform="translate(9 6)" fill="#e6d567">
                <path d="M 47.5 93.5 C 41.28937149047852 93.5 35.26533508300781 92.28397369384766 29.59518623352051 89.88570404052734 C 24.11771965026855 87.56893157958984 19.19813346862793 84.25196075439453 14.97309303283691 80.02691650390625 C 10.74804019927979 75.80186462402344 7.431066513061523 70.88229370117188 5.114293098449707 65.40481567382812 C 2.716026782989502 59.73468017578125 1.5 53.71062850952148 1.5 47.5 C 1.5 41.28937149047852 2.716026782989502 35.26533508300781 5.114293098449707 29.59518623352051 C 7.431066513061523 24.11771965026855 10.74804019927979 19.19813346862793 14.97309303283691 14.97309303283691 C 19.19813346862793 10.74804019927979 24.11771965026855 7.431066513061523 29.59518623352051 5.114293098449707 C 35.26533508300781 2.716026782989502 41.28937149047852 1.5 47.5 1.5 C 53.71062850952148 1.5 59.73468017578125 2.716026782989502 65.40481567382812 5.114293098449707 C 70.88229370117188 7.431066513061523 75.80186462402344 10.74804019927979 80.02691650390625 14.97309303283691 C 84.25196075439453 19.19813346862793 87.56893157958984 24.11771965026855 89.88570404052734 29.59518623352051 C 92.28397369384766 35.26533508300781 93.5 41.28937149047852 93.5 47.5 C 93.5 53.71062850952148 92.28397369384766 59.73468017578125 89.88570404052734 65.40481567382812 C 87.56893157958984 70.88229370117188 84.25196075439453 75.80186462402344 80.02691650390625 80.02691650390625 C 75.80186462402344 84.25196075439453 70.88229370117188 87.56893157958984 65.40481567382812 89.88570404052734 C 59.73468017578125 92.28397369384766 53.71062850952148 93.5 47.5 93.5 Z" stroke="none"/>
                <path d="M 47.5 3 C 41.49121475219727 3 35.66376876831055 4.176155090332031 30.17950439453125 6.495796203613281 C 24.88084411621094 8.736953735351562 20.12152099609375 11.94598388671875 16.03375244140625 16.03375244140625 C 11.94598388671875 20.12152099609375 8.736953735351562 24.88084411621094 6.495796203613281 30.17950439453125 C 4.176155090332031 35.66376876831055 3 41.49121475219727 3 47.5 C 3 53.50878524780273 4.176155090332031 59.33623123168945 6.495796203613281 64.82049560546875 C 8.736953735351562 70.11915588378906 11.94598388671875 74.87847900390625 16.03375244140625 78.96624755859375 C 20.12152099609375 83.05401611328125 24.88084411621094 86.26304626464844 30.17950439453125 88.50419616699219 C 35.66376876831055 90.82384490966797 41.49121475219727 92 47.5 92 C 53.50878524780273 92 59.33623123168945 90.82384490966797 64.82049560546875 88.50419616699219 C 70.11915588378906 86.26304626464844 74.87847900390625 83.05401611328125 78.96624755859375 78.96624755859375 C 83.05401611328125 74.87847900390625 86.26304626464844 70.11915588378906 88.50419616699219 64.82049560546875 C 90.82384490966797 59.33623123168945 92 53.50878524780273 92 47.5 C 92 41.49121475219727 90.82384490966797 35.66376876831055 88.50419616699219 30.17950439453125 C 86.26304626464844 24.88084411621094 83.05401611328125 20.12152099609375 78.96624755859375 16.03375244140625 C 74.87847900390625 11.94598388671875 70.11915588378906 8.736953735351562 64.82049560546875 6.495796203613281 C 59.33623123168945 4.176155090332031 53.50878524780273 3 47.5 3 M 47.5 0 C 73.7335205078125 0 95 21.2664794921875 95 47.5 C 95 73.7335205078125 73.7335205078125 95 47.5 95 C 21.2664794921875 95 0 73.7335205078125 0 47.5 C 0 21.2664794921875 21.2664794921875 0 47.5 0 Z" stroke="none" fill="#ba9c5a"/>
              </g>
            </g>
          </g>
        </g>
      </g>
    </g>
    <g id="Page-1" transform="translate(1183.672 11571.271)">
      <g id="_040---Implement-Laws" data-name="040---Implement-Laws" transform="translate(-0.001 0)">
        <g id="Icons" transform="translate(1.18 1.148)">
          <path id="Shape" d="M62.111,42.982l-7.69,7.89a4.749,4.749,0,0,1-2.532,1.342l-10.5,1.909a1.178,1.178,0,0,0-.967,1.159v6.093a1.178,1.178,0,0,1-1.178,1.178H32.178A1.178,1.178,0,0,1,31,61.375V47.986a6.321,6.321,0,0,1,3.98-5.876,6.638,6.638,0,0,1,3.9-.271l1.766.447a4.8,4.8,0,0,0,1.919.071l3.309-.542a3.522,3.522,0,0,1,3.851,2.167l.459,1.142a4.736,4.736,0,0,0,1.141-.447l7.742-5.238a2.4,2.4,0,0,1,2.922.118,2.346,2.346,0,0,1,.124,3.424Z" transform="translate(5.504 5.779)" fill="#ffe0b2"/>
          <path id="Shape-2" data-name="Shape" d="M61.277,39.555a2.4,2.4,0,0,0-2.922-.118l-.443.3a2.333,2.333,0,0,1-.045,3.243l-7.69,7.89a4.75,4.75,0,0,1-2.531,1.342l-10.5,1.909a1.178,1.178,0,0,0-.967,1.159v6.1A1.178,1.178,0,0,1,35,62.553h3.533a1.178,1.178,0,0,0,1.178-1.178V55.282a1.178,1.178,0,0,1,.967-1.159l10.5-1.909a4.75,4.75,0,0,0,2.531-1.342l7.69-7.89a2.346,2.346,0,0,0-.124-3.427Z" transform="translate(6.215 5.779)" fill="#dfc49c"/>
          <path id="Shape-3" data-name="Shape" d="M.684,42.982l7.69,7.89a4.749,4.749,0,0,0,2.532,1.342l10.5,1.909a1.178,1.178,0,0,1,.967,1.159v6.093a1.178,1.178,0,0,0,1.178,1.178h7.066A1.178,1.178,0,0,0,31.8,61.375V47.986a6.321,6.321,0,0,0-3.98-5.876,6.638,6.638,0,0,0-3.9-.271l-1.766.447a4.8,4.8,0,0,1-1.919.071l-3.309-.542a3.522,3.522,0,0,0-3.851,2.167l-.458,1.142a4.737,4.737,0,0,1-1.142-.447L3.729,39.439a2.4,2.4,0,0,0-2.922.118,2.346,2.346,0,0,0-.124,3.424Z" transform="translate(-0.001 5.779)" fill="#ffe0b2"/>
          <path id="Shape-4" data-name="Shape" d="M24.251,41.708a6.638,6.638,0,0,0-3.9-.271l-.284.072a6.08,6.08,0,0,1,.649.2,6.321,6.321,0,0,1,3.98,5.876V60.972a1.178,1.178,0,0,1-1.178,1.178h3.533a1.178,1.178,0,0,0,1.178-1.178V47.584a6.321,6.321,0,0,0-3.98-5.876Z" transform="translate(3.563 6.181)" fill="#dfc49c"/>
          <path id="Shape-5" data-name="Shape" d="M53.982,26.466a4.51,4.51,0,0,0,.771-3.087,4.51,4.51,0,0,0-.771-3.087l-1.9-.38A19.886,19.886,0,0,0,48.763,11.9l1.074-1.611s0-1.09-1.637-2.727-2.727-1.637-2.727-1.637L43.862,7A19.886,19.886,0,0,0,35.846,3.68l-.38-1.9A4.51,4.51,0,0,0,32.379,1a4.51,4.51,0,0,0-3.087.771l-.38,1.9A19.886,19.886,0,0,0,20.9,7L19.285,5.921s-1.09,0-2.727,1.637-1.637,2.727-1.637,2.727L16,11.9a19.886,19.886,0,0,0-3.315,8.016l-1.9.38A4.51,4.51,0,0,0,10,23.379a4.51,4.51,0,0,0,.771,3.087l1.9.38A19.886,19.886,0,0,0,16,34.862l-1.074,1.611s0,1.09,1.637,2.727,2.727,1.637,2.727,1.637L20.9,39.763a19.886,19.886,0,0,0,8.016,3.315l.38,1.9a4.51,4.51,0,0,0,3.087.771,4.51,4.51,0,0,0,3.086-.771l.38-1.9a19.886,19.886,0,0,0,8.016-3.315l1.611,1.074s1.09,0,2.727-1.637,1.637-2.727,1.637-2.727l-1.074-1.611a19.886,19.886,0,0,0,3.315-8.016Z" transform="translate(1.77 -0.974)" fill="#7f8e94"/>
          <g id="Grupo_1211242" data-name="Grupo 1211242" transform="translate(32.383)">
            <path id="Shape-6" data-name="Shape" d="M28.82,1.776l.38,1.9A19.886,19.886,0,0,1,37.216,7l1.611-1.074a1.778,1.778,0,0,1,.273.046A19.874,19.874,0,0,0,32.733,3.68l-.38-1.9A4.51,4.51,0,0,0,29.266,1,7.464,7.464,0,0,0,27.5,1.2a3.062,3.062,0,0,1,1.32.579Z" transform="translate(-27.5 -0.974)" fill="#545c60"/>
            <path id="Shape-7" data-name="Shape" d="M38.827,34.987l-1.611-1.074A19.886,19.886,0,0,1,29.2,37.228l-.38,1.9a3.062,3.062,0,0,1-1.32.579,7.463,7.463,0,0,0,1.766.192,4.51,4.51,0,0,0,3.087-.771l.38-1.9A19.9,19.9,0,0,0,39.1,34.941a1.778,1.778,0,0,1-.273.046Z" transform="translate(-27.5 4.876)" fill="#545c60"/>
            <path id="Shape-8" data-name="Shape" d="M48.856,19.546l-1.9-.38a19.886,19.886,0,0,0-3.315-8.016l1.074-1.611s0-1.09-1.637-2.727-2.727-1.637-2.727-1.637l-1.51,1.007a8.584,8.584,0,0,1,.707.63c1.637,1.637,1.637,2.727,1.637,2.727L40.107,11.15a19.886,19.886,0,0,1,3.315,8.016l1.9.38a4.51,4.51,0,0,1,.769,3.087,4.51,4.51,0,0,1-.771,3.087l-1.9.38A19.886,19.886,0,0,1,40.1,34.116l1.074,1.611s0,1.09-1.637,2.727a8.584,8.584,0,0,1-.707.63l1.51,1.007s1.09,0,2.727-1.637,1.637-2.727,1.637-2.727l-1.074-1.611A19.886,19.886,0,0,0,46.95,26.1l1.9-.38a4.51,4.51,0,0,0,.774-3.087,4.51,4.51,0,0,0-.771-3.087Z" transform="translate(-25.487 -0.228)" fill="#545c60"/>
          </g>
          <circle id="Oval" cx="2.5" cy="2.5" r="2.5" transform="translate(31.476 15.509)" fill="#ffdc00"/>
          <path id="Shape-9" data-name="Shape" d="M22.178,22h2.355a1.178,1.178,0,0,1,1.178,1.178v1.178a2.355,2.355,0,1,1-4.71,0V23.178A1.178,1.178,0,0,1,22.178,22Z" transform="translate(3.728 2.76)" fill="#ffdc00"/>
          <path id="Shape-10" data-name="Shape" d="M34.178,22h2.355a1.178,1.178,0,0,1,1.178,1.178v1.178a2.355,2.355,0,1,1-4.71,0V23.178A1.178,1.178,0,0,1,34.178,22Z" transform="translate(5.86 2.76)" fill="#ffdc00"/>
        </g>
        <g id="Icons_copy">
          <path id="Shape-11" data-name="Shape" d="M53,43.726a4.71,4.71,0,0,0-5.134-2.895l-3.314.543a3.618,3.618,0,0,1-1.437-.051l-1.789-.453a7.772,7.772,0,0,0-4.593.324A7.455,7.455,0,0,0,32,48.165V61.553a2.355,2.355,0,0,0,2.355,2.355h7.066a2.355,2.355,0,0,0,2.355-2.355V55.46l10.5-1.909a5.9,5.9,0,0,0,3.163-1.679l7.683-7.882a3.523,3.523,0,0,0-.177-5.136,3.56,3.56,0,0,0-4.365-.213l-7.571,5.13ZM61.9,40.592a1.222,1.222,0,0,1,1.477.02,1.2,1.2,0,0,1,.415.871,1.123,1.123,0,0,1-.333.837l-.016.018-7.685,7.89a3.555,3.555,0,0,1-1.9,1.009l-10.5,1.909a2.355,2.355,0,0,0-1.935,2.314v6.093H34.355V48.165a5.116,5.116,0,0,1,3.237-4.782,5.355,5.355,0,0,1,1.955-.36,5.454,5.454,0,0,1,1.219.137l1.781.451a5.9,5.9,0,0,0,2.383.088l3.314-.543a2.348,2.348,0,0,1,2.529,1.374l-4.55,1.3a7.723,7.723,0,0,0-3.28,1.935,1.178,1.178,0,1,0,1.665,1.664,5.331,5.331,0,0,1,2.268-1.337l5.806-1.649a5.377,5.377,0,0,0,1.479-.6Z" transform="translate(4.507 6.748)"/>
          <path id="Shape-12" data-name="Shape" d="M2.2,38.854A3.533,3.533,0,0,0,1,41.426,3.5,3.5,0,0,0,2.025,43.99L9.71,51.88a5.9,5.9,0,0,0,3.162,1.676l10.5,1.9v6.093a2.355,2.355,0,0,0,2.355,2.355H32.8a2.355,2.355,0,0,0,2.355-2.355V48.165a7.455,7.455,0,0,0-4.723-6.97,7.8,7.8,0,0,0-4.621-.318l-1.752.444a3.651,3.651,0,0,1-1.454.053l-3.307-.541a4.723,4.723,0,0,0-5.136,2.889c-.006.015-.013.029-.019.045L6.568,38.642a3.556,3.556,0,0,0-4.365.212Zm12.265,7.581,5.795,1.649a5.336,5.336,0,0,1,2.28,1.34,1.178,1.178,0,0,0,1.665-1.665,7.727,7.727,0,0,0-3.289-1.937l-4.541-1.3a2.355,2.355,0,0,1,2.533-1.373l3.307.541a5.975,5.975,0,0,0,2.4-.091l1.744-.442a5.478,5.478,0,0,1,3.2.218A5.116,5.116,0,0,1,32.8,48.165V61.553H25.73V55.46A2.355,2.355,0,0,0,23.8,53.143l-10.5-1.909a3.549,3.549,0,0,1-1.9-1.006L3.709,42.339l-.016-.018a1.123,1.123,0,0,1-.337-.837,1.2,1.2,0,0,1,.415-.871,1.067,1.067,0,0,1,.717-.257,1.359,1.359,0,0,1,.76.236L13,45.836a5.382,5.382,0,0,0,1.471.6Z" transform="translate(-0.999 6.748)"/>
          <path id="Shape-13" data-name="Shape" d="M33.486,38.973A16.486,16.486,0,1,0,17,22.486,16.486,16.486,0,0,0,33.486,38.973Zm0-20.019a1.178,1.178,0,1,1,1.178-1.178A1.178,1.178,0,0,1,33.486,18.954Zm0-10.6a14.131,14.131,0,0,1,1.178,28.2V21.092A3.533,3.533,0,0,0,36.8,18.954h2.572v4.71a2.355,2.355,0,0,0-2.355,2.355V27.2a3.533,3.533,0,1,0,7.066,0V26.019a2.355,2.355,0,0,0-2.355-2.355v-4.71h1.178a1.178,1.178,0,1,0,0-2.355H36.8a3.512,3.512,0,0,0-6.632,0h-6.1a1.178,1.178,0,1,0,0,2.355h1.178v4.71a2.355,2.355,0,0,0-2.355,2.355V27.2a3.533,3.533,0,0,0,7.066,0V26.019A2.355,2.355,0,0,0,27.6,23.664v-4.71H30.17a3.533,3.533,0,0,0,2.139,2.139V36.558a14.131,14.131,0,0,1,1.178-28.2ZM41.73,26.019V27.2a1.178,1.178,0,0,1-2.355,0V26.019Zm-14.131,0V27.2a1.178,1.178,0,1,1-2.355,0V26.019Z" transform="translate(1.843 1.066)"/>
          <path id="Shape-14" data-name="Shape" d="M12.718,19.313a1.189,1.189,0,0,0-.6.321C11.93,19.82,11,20.885,11,23.552s.93,3.732,1.116,3.919a1.178,1.178,0,0,0,.6.321l1.129.226a20.89,20.89,0,0,0,2.9,7.019l-.636.955a1.178,1.178,0,0,0-.2.654c0,.263.1,1.673,1.981,3.561s3.3,1.981,3.561,1.981a1.187,1.187,0,0,0,.654-.2l.954-.636a20.928,20.928,0,0,0,7.019,2.9l.226,1.129a1.191,1.191,0,0,0,.323.6c.186.186,1.251,1.116,3.919,1.116s3.733-.93,3.919-1.116a1.178,1.178,0,0,0,.323-.6l.226-1.129a20.928,20.928,0,0,0,7.019-2.9l.954.636a1.187,1.187,0,0,0,.654.2c.264,0,1.673-.1,3.561-1.982s1.981-3.3,1.981-3.56a1.178,1.178,0,0,0-.2-.654l-.636-.955a20.89,20.89,0,0,0,2.9-7.019l1.129-.226a1.178,1.178,0,0,0,.6-.321c.186-.187,1.116-1.252,1.116-3.919s-.93-3.732-1.116-3.919a1.189,1.189,0,0,0-.6-.321l-1.129-.226a20.89,20.89,0,0,0-2.9-7.019l.636-.955a1.178,1.178,0,0,0,.2-.654c0-.264-.1-1.675-1.981-3.561s-3.3-1.981-3.561-1.981a1.187,1.187,0,0,0-.654.2l-.954.636a20.928,20.928,0,0,0-7.019-2.9l-.228-1.129a1.178,1.178,0,0,0-.323-.6C38.285.93,37.221,0,34.552,0s-3.733.93-3.919,1.116a1.191,1.191,0,0,0-.323.6l-.226,1.129a20.928,20.928,0,0,0-7.019,2.9l-.954-.636a1.187,1.187,0,0,0-.654-.2c-.264,0-1.673.1-3.561,1.982s-1.981,3.3-1.981,3.56a1.178,1.178,0,0,0,.2.654l.636.955a20.89,20.89,0,0,0-2.9,7.019Zm3.3.977a18.606,18.606,0,0,1,3.118-7.537,1.178,1.178,0,0,0,.014-1.331l-.79-1.186a5.174,5.174,0,0,1,1.2-1.667A5.376,5.376,0,0,1,21.225,7.36l1.191.794a1.178,1.178,0,0,0,1.33-.016,18.628,18.628,0,0,1,7.543-3.118,1.178,1.178,0,0,0,.952-.929l.28-1.4a5.222,5.222,0,0,1,2.033-.332,5.37,5.37,0,0,1,2.031.319l.281,1.413a1.178,1.178,0,0,0,.951.929,18.628,18.628,0,0,1,7.543,3.118,1.178,1.178,0,0,0,1.33.016l1.186-.789a5.2,5.2,0,0,1,1.667,1.2,5.384,5.384,0,0,1,1.209,1.662l-.795,1.194a1.178,1.178,0,0,0,.016,1.33,18.606,18.606,0,0,1,3.118,7.537,1.178,1.178,0,0,0,.929.952l1.4.28a5.209,5.209,0,0,1,.326,2.031,5.209,5.209,0,0,1-.326,2.031l-1.4.28a1.178,1.178,0,0,0-.929.952,18.606,18.606,0,0,1-3.118,7.537,1.178,1.178,0,0,0-.016,1.33l.79,1.186a5.206,5.206,0,0,1-1.2,1.667,5.376,5.376,0,0,1-1.663,1.209l-1.191-.794a1.178,1.178,0,0,0-1.33.016,18.628,18.628,0,0,1-7.543,3.118,1.178,1.178,0,0,0-.951.929l-.28,1.4a5.222,5.222,0,0,1-2.033.332,5.37,5.37,0,0,1-2.031-.319l-.281-1.413a1.178,1.178,0,0,0-.952-.929,18.629,18.629,0,0,1-7.543-3.109,1.178,1.178,0,0,0-1.33-.016l-1.185.789a5.187,5.187,0,0,1-1.669-1.2,5.384,5.384,0,0,1-1.209-1.662l.795-1.192a1.178,1.178,0,0,0-.016-1.33,18.606,18.606,0,0,1-3.118-7.537,1.178,1.178,0,0,0-.929-.952l-1.4-.28a5.209,5.209,0,0,1-.326-2.043,5.357,5.357,0,0,1,.319-2.03l1.413-.281a1.178,1.178,0,0,0,.926-.952Z" transform="translate(0.777 0)"/>
        </g>
      </g>
    </g>
  </g>
</svg>
