<svg xmlns="http://www.w3.org/2000/svg" xmlns:xlink="http://www.w3.org/1999/xlink" width="113" height="113" viewBox="0 0 113 113">
  <defs>
    <filter id="Trazado_982547" x="0" y="0" width="113" height="113" filterUnits="userSpaceOnUse">
      <feOffset dy="3" input="SourceAlpha"/>
      <feGaussianBlur stdDeviation="3" result="blur"/>
      <feFlood flood-opacity="0.161"/>
      <feComposite operator="in" in2="blur"/>
      <feComposite in="SourceGraphic"/>
    </filter>
  </defs>
  <g id="Grupo_1210391" data-name="Grupo 1210391" transform="translate(-1162.5 -1212.808)">
    <g id="Grupo_1209739" data-name="Grupo 1209739" transform="translate(0 -6316)">
      <g id="Grupo_1208707" data-name="Grupo 1208707" transform="translate(-1.454 3213.429)">
        <g id="Grupo_1148635" data-name="Grupo 1148635" transform="translate(908.908 600.047)">
          <g id="Grupo_1148525" data-name="Grupo 1148525" transform="translate(264.046 3721.333)">
            <g transform="matrix(1, 0, 0, 1, -9, -6)" filter="url(#Trazado_982547)">
              <g id="Trazado_982547-2" data-name="Trazado 982547" transform="translate(9 6)" fill="#e6d567">
                <path d="M 47.5 93.5 C 41.28937149047852 93.5 35.26533508300781 92.28397369384766 29.59518623352051 89.88570404052734 C 24.11771965026855 87.56893157958984 19.19813346862793 84.25196075439453 14.97309303283691 80.02691650390625 C 10.74804019927979 75.80186462402344 7.431066513061523 70.88229370117188 5.114293098449707 65.40481567382812 C 2.716026782989502 59.73468017578125 1.5 53.71062850952148 1.5 47.5 C 1.5 41.28937149047852 2.716026782989502 35.26533508300781 5.114293098449707 29.59518623352051 C 7.431066513061523 24.11771965026855 10.74804019927979 19.19813346862793 14.97309303283691 14.97309303283691 C 19.19813346862793 10.74804019927979 24.11771965026855 7.431066513061523 29.59518623352051 5.114293098449707 C 35.26533508300781 2.716026782989502 41.28937149047852 1.5 47.5 1.5 C 53.71062850952148 1.5 59.73468017578125 2.716026782989502 65.40481567382812 5.114293098449707 C 70.88229370117188 7.431066513061523 75.80186462402344 10.74804019927979 80.02691650390625 14.97309303283691 C 84.25196075439453 19.19813346862793 87.56893157958984 24.11771965026855 89.88570404052734 29.59518623352051 C 92.28397369384766 35.26533508300781 93.5 41.28937149047852 93.5 47.5 C 93.5 53.71062850952148 92.28397369384766 59.73468017578125 89.88570404052734 65.40481567382812 C 87.56893157958984 70.88229370117188 84.25196075439453 75.80186462402344 80.02691650390625 80.02691650390625 C 75.80186462402344 84.25196075439453 70.88229370117188 87.56893157958984 65.40481567382812 89.88570404052734 C 59.73468017578125 92.28397369384766 53.71062850952148 93.5 47.5 93.5 Z" stroke="none"/>
                <path d="M 47.5 3 C 41.49121475219727 3 35.66376876831055 4.176155090332031 30.17950439453125 6.495796203613281 C 24.88084411621094 8.736953735351562 20.12152099609375 11.94598388671875 16.03375244140625 16.03375244140625 C 11.94598388671875 20.12152099609375 8.736953735351562 24.88084411621094 6.495796203613281 30.17950439453125 C 4.176155090332031 35.66376876831055 3 41.49121475219727 3 47.5 C 3 53.50878524780273 4.176155090332031 59.33623123168945 6.495796203613281 64.82049560546875 C 8.736953735351562 70.11915588378906 11.94598388671875 74.87847900390625 16.03375244140625 78.96624755859375 C 20.12152099609375 83.05401611328125 24.88084411621094 86.26304626464844 30.17950439453125 88.50419616699219 C 35.66376876831055 90.82384490966797 41.49121475219727 92 47.5 92 C 53.50878524780273 92 59.33623123168945 90.82384490966797 64.82049560546875 88.50419616699219 C 70.11915588378906 86.26304626464844 74.87847900390625 83.05401611328125 78.96624755859375 78.96624755859375 C 83.05401611328125 74.87847900390625 86.26304626464844 70.11915588378906 88.50419616699219 64.82049560546875 C 90.82384490966797 59.33623123168945 92 53.50878524780273 92 47.5 C 92 41.49121475219727 90.82384490966797 35.66376876831055 88.50419616699219 30.17950439453125 C 86.26304626464844 24.88084411621094 83.05401611328125 20.12152099609375 78.96624755859375 16.03375244140625 C 74.87847900390625 11.94598388671875 70.11915588378906 8.736953735351562 64.82049560546875 6.495796203613281 C 59.33623123168945 4.176155090332031 53.50878524780273 3 47.5 3 M 47.5 0 C 73.7335205078125 0 95 21.2664794921875 95 47.5 C 95 73.7335205078125 73.7335205078125 95 47.5 95 C 21.2664794921875 95 0 73.7335205078125 0 47.5 C 0 21.2664794921875 21.2664794921875 0 47.5 0 Z" stroke="none" fill="#ba9c5a"/>
              </g>
            </g>
          </g>
        </g>
      </g>
    </g>
    <g id="derecho-penal" transform="translate(1182.134 1233.295)">
      <g id="Grupo_1210363" data-name="Grupo 1210363" transform="translate(1 53.619)">
        <g id="Grupo_1210361" data-name="Grupo 1210361">
          <g id="Grupo_1210358" data-name="Grupo 1210358" transform="translate(0 7.507)">
            <g id="Grupo_1210357" data-name="Grupo 1210357">
              <path id="Trazado_1080572" data-name="Trazado 1080572" d="M2,55.7H71.464v7.058H2Z" transform="translate(-0.88 -54.58)" fill="#64c4f6"/>
              <path id="Trazado_1080573" data-name="Trazado 1080573" d="M71.584,64H2.12A1.059,1.059,0,0,1,1,62.879V55.82A1.059,1.059,0,0,1,2.12,54.7H71.584a1.059,1.059,0,0,1,1.12,1.12v7.058A1.059,1.059,0,0,1,71.584,64ZM3.241,61.758H70.464V56.941H3.241Z" transform="translate(-1 -54.7)" fill="#101f2d"/>
            </g>
          </g>
          <g id="Grupo_1210359" data-name="Grupo 1210359" transform="translate(2.353)">
            <path id="Trazado_1080574" data-name="Trazado 1080574" d="M36.6,57.747H4.22a1.059,1.059,0,0,1-1.12-1.12V49.12A1.059,1.059,0,0,1,4.22,48H31c4.145,0,6.722,2.129,6.722,5.6v3.025A1.059,1.059,0,0,1,36.6,57.747ZM5.341,55.507H35.479V53.6c0-2.8-2.465-3.361-4.482-3.361H5.341Z" transform="translate(-3.1 -48)" fill="#101f2d"/>
          </g>
          <g id="Grupo_1210360" data-name="Grupo 1210360" transform="translate(34.732)">
            <path id="Trazado_1080575" data-name="Trazado 1080575" d="M65.5,57.747H33.12A1.059,1.059,0,0,1,32,56.627V53.6c0-3.473,2.577-5.6,6.722-5.6H65.5a1.059,1.059,0,0,1,1.12,1.12v7.507A1.059,1.059,0,0,1,65.5,57.747ZM34.241,55.507H64.379V50.241H38.722c-2.017,0-4.482.56-4.482,3.361Z" transform="translate(-32 -48)" fill="#101f2d"/>
          </g>
        </g>
        <g id="Grupo_1210362" data-name="Grupo 1210362" transform="translate(27.225 7.395)">
          <path id="Trazado_1080576" data-name="Trazado 1080576" d="M33.807,64.675A7.507,7.507,0,0,1,26.3,57.169V55.6H41.2v1.569A7.276,7.276,0,0,1,33.807,64.675Z" transform="translate(-25.18 -54.48)" fill="#ef6561"/>
          <path id="Trazado_1080577" data-name="Trazado 1080577" d="M33.927,65.916A8.7,8.7,0,0,1,25.3,57.289V55.72a1.059,1.059,0,0,1,1.12-1.12h14.9a1.059,1.059,0,0,1,1.12,1.12v1.569a8.1,8.1,0,0,1-2.353,6.05A8.372,8.372,0,0,1,33.927,65.916Zm-6.386-9.075v.448a6.456,6.456,0,0,0,6.386,6.386,6.346,6.346,0,0,0,4.594-1.9A6.069,6.069,0,0,0,40.2,57.289v-.448Z" transform="translate(-25.3 -54.6)" fill="#101f2d"/>
        </g>
      </g>
      <g id="Grupo_1210390" data-name="Grupo 1210390" transform="translate(1.086 1.326)">
        <g id="Grupo_1210377" data-name="Grupo 1210377" transform="translate(0 15.432)">
          <g id="Grupo_1210369" data-name="Grupo 1210369">
            <g id="Grupo_1210364" data-name="Grupo 1210364">
              <path id="Trazado_1080578" data-name="Trazado 1080578" d="M18.684,23.731,18.348,16l-9.3.448L9.5,23.955A12.312,12.312,0,0,0,2.1,35.943a12.187,12.187,0,0,0,13,11.764,12.354,12.354,0,0,0,3.585-23.976Z" transform="translate(-0.956 -14.992)" fill="#64c4f6"/>
              <path id="Trazado_1080579" data-name="Trazado 1080579" d="M14.435,48.936A13.366,13.366,0,0,1,1.1,36.051,13.215,13.215,0,0,1,8.5,23.391l-.448-6.722a1.149,1.149,0,0,1,1.12-1.12l9.3-.448a1.149,1.149,0,0,1,1.12,1.12l.336,6.946a13.488,13.488,0,0,1-4.594,25.881,2.784,2.784,0,0,0-.9-.112ZM10.4,17.677l.336,6.274a1.232,1.232,0,0,1-.672,1.12A11.064,11.064,0,0,0,3.344,35.939,10.93,10.93,0,0,0,15.108,46.583,11.474,11.474,0,0,0,25.863,34.595a11.323,11.323,0,0,0-7.395-9.859,1.076,1.076,0,0,1-.784-1.008l-.336-6.5Z" transform="translate(-1.077 -15.1)" fill="#101f2d"/>
            </g>
            <g id="Grupo_1210365" data-name="Grupo 1210365" transform="translate(5.168 11.873)">
              <path id="Trazado_1080580" data-name="Trazado 1080580" d="M21.042,33.635A7.178,7.178,0,1,1,13.536,26.8,7.3,7.3,0,0,1,21.042,33.635Z" transform="translate(-5.569 -25.565)" fill="#fff"/>
              <path id="Trazado_1080581" data-name="Trazado 1080581" d="M13.88,42.394A7.93,7.93,0,0,1,8.5,40.265,8.3,8.3,0,0,1,13.544,25.7a8.513,8.513,0,0,1,8.739,7.843,8.222,8.222,0,0,1-7.843,8.739,1.01,1.01,0,0,1-.56.112Zm0-14.341h-.224A6.142,6.142,0,0,0,9.4,30.07a5.993,5.993,0,0,0-1.457,4.257,6.142,6.142,0,0,0,2.017,4.257,5.993,5.993,0,0,0,4.257,1.457,6.142,6.142,0,0,0,4.257-2.017,6.031,6.031,0,0,0-4.594-9.971Z" transform="translate(-5.689 -25.698)" fill="#101f2d"/>
            </g>
            <g id="Grupo_1210366" data-name="Grupo 1210366" transform="translate(11.79 3.249)">
              <path id="Trazado_1080582" data-name="Trazado 1080582" d="M12.944,23.154a1.105,1.105,0,0,1-1.12-1.008L11.6,19.232A1.219,1.219,0,0,1,12.608,18a1.219,1.219,0,0,1,1.232,1.008l.224,2.913A1.152,1.152,0,0,1,12.944,23.154Z" transform="translate(-11.6 -18)" fill="#101f2d"/>
            </g>
            <g id="Grupo_1210367" data-name="Grupo 1210367" transform="translate(10.446 6.05)">
              <path id="Trazado_1080583" data-name="Trazado 1080583" d="M11.52,22.965a1.105,1.105,0,0,1-1.12-1.008,1.219,1.219,0,0,1,1.008-1.232l3.025-.224a1.313,1.313,0,0,1,1.232,1.008,1.219,1.219,0,0,1-1.008,1.232Z" transform="translate(-10.4 -20.5)" fill="#101f2d"/>
            </g>
            <g id="Grupo_1210368" data-name="Grupo 1210368" transform="translate(12.014 7.619)">
              <path id="Trazado_1080584" data-name="Trazado 1080584" d="M12.92,28.622a1.017,1.017,0,0,1-.784-.336,1.083,1.083,0,0,1,0-1.569l4.594-4.482A1.109,1.109,0,0,1,18.3,23.8L13.7,28.286A1.017,1.017,0,0,1,12.92,28.622Z" transform="translate(-11.8 -21.9)" fill="#101f2d"/>
            </g>
          </g>
          <g id="Grupo_1210376" data-name="Grupo 1210376" transform="translate(44.48 0.098)">
            <g id="Grupo_1210372" data-name="Grupo 1210372">
              <g id="Grupo_1210370" data-name="Grupo 1210370">
                <path id="Trazado_1080585" data-name="Trazado 1080585" d="M59.941,24.379l.56-7.507L51.314,16.2l-.56,7.283A12.548,12.548,0,0,0,41.9,34.574a12.409,12.409,0,1,0,18.038-10.2Z" transform="translate(-40.644 -15.065)" fill="#ef6561"/>
                <path id="Trazado_1080586" data-name="Trazado 1080586" d="M54.359,49.037h-.9A13.613,13.613,0,0,1,40.8,34.584a13.758,13.758,0,0,1,8.963-11.876l.448-6.5A1.07,1.07,0,0,1,51.446,15.2l9.187.672a1.017,1.017,0,0,1,.784.336.743.743,0,0,1,.224.784l-.448,6.834a13.511,13.511,0,0,1-6.834,25.209Zm-1.9-31.483-.448,6.162a1.076,1.076,0,0,1-.784,1.008,11.573,11.573,0,0,0-8.067,10.083,10.939,10.939,0,0,0,2.8,8.179A11.4,11.4,0,0,0,53.687,46.8a11.294,11.294,0,0,0,5.938-21.287.982.982,0,0,1-.56-1.12L59.513,18Z" transform="translate(-40.777 -15.187)" fill="#101f2d"/>
              </g>
              <g id="Grupo_1210371" data-name="Grupo 1210371" transform="translate(5.365 12.091)">
                <path id="Trazado_1080587" data-name="Trazado 1080587" d="M60.832,34.621A7.132,7.132,0,1,1,54.221,27a7.147,7.147,0,0,1,6.61,7.619Z" transform="translate(-45.443 -25.859)" fill="#fff"/>
                <path id="Trazado_1080588" data-name="Trazado 1080588" d="M53.9,42.472h-.672A8.258,8.258,0,0,1,54.455,26a7.994,7.994,0,0,1,5.6,2.8,8.351,8.351,0,0,1,2.017,5.938A8.2,8.2,0,0,1,53.9,42.472Zm-.112-14.229a6.072,6.072,0,0,0-5.938,5.6,6.008,6.008,0,0,0,5.6,6.386,5.783,5.783,0,0,0,4.37-1.457,5.89,5.89,0,0,0,2.017-4.145,5.951,5.951,0,0,0-5.6-6.386Z" transform="translate(-45.565 -25.979)" fill="#101f2d"/>
              </g>
            </g>
            <g id="Grupo_1210373" data-name="Grupo 1210373" transform="translate(13.583 3.807)">
              <path id="Trazado_1080589" data-name="Trazado 1080589" d="M54.02,23.756a1.152,1.152,0,0,1-1.12-1.232l.224-2.913a1.126,1.126,0,0,1,2.241.224l-.224,2.913A1.105,1.105,0,0,1,54.02,23.756Z" transform="translate(-52.9 -18.585)" fill="#101f2d"/>
            </g>
            <g id="Grupo_1210374" data-name="Grupo 1210374" transform="translate(12.126 6.737)">
              <path id="Trazado_1080590" data-name="Trazado 1080590" d="M55.633,23.553l-2.913-.112a1.123,1.123,0,0,1-1.12-1.12,1.2,1.2,0,0,1,1.12-1.12l2.913.112a1.12,1.12,0,0,1,0,2.241Z" transform="translate(-51.6 -21.2)" fill="#101f2d"/>
            </g>
            <g id="Grupo_1210375" data-name="Grupo 1210375" transform="translate(13.746 8.244)">
              <path id="Trazado_1080591" data-name="Trazado 1080591" d="M54.115,28.769a1.017,1.017,0,0,1-.784-.336,1.089,1.089,0,0,1,.112-1.569l4.482-4.033a1.112,1.112,0,1,1,1.457,1.681L54.9,28.545a2.077,2.077,0,0,1-.784.224Z" transform="translate(-53.045 -22.545)" fill="#101f2d"/>
            </g>
          </g>
        </g>
        <g id="Grupo_1210378" data-name="Grupo 1210378" transform="translate(54.511 8.122)">
          <path id="Trazado_1080592" data-name="Trazado 1080592" d="M51.6,18.35a1.076,1.076,0,0,1-1.008-.784c0-.112-.112-.224-.112-.336-.112-.112-.112-.336-.224-.56-1.232-3.585-.224-7.058,2.241-7.955a3.875,3.875,0,0,1,2.913.336,7.783,7.783,0,0,1,3.7,4.594,6.918,6.918,0,0,1,.448,3.7c-.112.56-.672,1.12-1.232,1.008a1.313,1.313,0,0,1-1.008-1.232,5.587,5.587,0,0,0-.336-2.689A6.3,6.3,0,0,0,54.4,11.068a1.623,1.623,0,0,0-1.232-.112c-1.232.448-1.681,2.8-.9,5.042,0,.112.112.224.112.448.112.112.112.336.224.56a1.165,1.165,0,0,1-.672,1.457.412.412,0,0,0-.336-.112Z" transform="translate(-49.731 -8.575)" fill="#101f2d"/>
        </g>
        <g id="Grupo_1210379" data-name="Grupo 1210379" transform="translate(9.429 5.124)">
          <path id="Trazado_1080593" data-name="Trazado 1080593" d="M13.2,18.56a3.288,3.288,0,0,1-1.793-.448c-2.241-1.344-2.577-5.042-.672-8.291a8.075,8.075,0,0,1,4.482-3.809,4.174,4.174,0,0,1,2.913.336,3.8,3.8,0,0,1,1.793,2.465,7.986,7.986,0,0,1-1.008,5.826,8.075,8.075,0,0,1-4.482,3.809,5.024,5.024,0,0,1-1.232.112Zm3.137-10.42a1.01,1.01,0,0,0-.56.112,5.937,5.937,0,0,0-3.137,2.689c-1.344,2.241-1.12,4.594,0,5.154a1.623,1.623,0,0,0,1.232.112,5.937,5.937,0,0,0,3.137-2.689,5.86,5.86,0,0,0,.784-4.145,1.336,1.336,0,0,0-1.457-1.232Z" transform="translate(-9.492 -5.9)" fill="#101f2d"/>
        </g>
        <g id="Grupo_1210380" data-name="Grupo 1210380" transform="translate(22.855 0.759)">
          <path id="Trazado_1080594" data-name="Trazado 1080594" d="M27.553,11.523c-3.137,0-5.6-1.569-6.05-3.809a3.611,3.611,0,0,1,.784-2.8,7.822,7.822,0,0,1,5.266-2.8c3.7-.56,6.946,1.12,7.395,3.7a3.321,3.321,0,0,1-.784,2.8,7.822,7.822,0,0,1-5.266,2.8,5.455,5.455,0,0,1-1.344.112ZM28.9,4.128a4.2,4.2,0,0,0-1.12.112,6.177,6.177,0,0,0-3.809,1.9,1.2,1.2,0,0,0-.336,1.12c.224,1.232,2.241,2.241,4.93,1.9a5.867,5.867,0,0,0,3.7-1.9,1.247,1.247,0,0,0,.336-1.12C32.595,5.025,31.026,4.128,28.9,4.128Z" transform="translate(-21.475 -2.004)" fill="#101f2d"/>
        </g>
        <g id="Grupo_1210381" data-name="Grupo 1210381" transform="translate(39.938)">
          <path id="Trazado_1080595" data-name="Trazado 1080595" d="M44.428,10.932a12.346,12.346,0,0,1-2.017-.224,7.651,7.651,0,0,1-5.042-3.025,3.855,3.855,0,0,1-.56-2.913,3.329,3.329,0,0,1,1.569-2.353,7.977,7.977,0,0,1,5.938-.9A8.215,8.215,0,0,1,49.47,4.546a3.855,3.855,0,0,1,.56,2.913,4.431,4.431,0,0,1-2.8,3.025A12.162,12.162,0,0,1,44.428,10.932ZM42.411,3.538a5.183,5.183,0,0,0-2.8.672,1.632,1.632,0,0,0-.672,1.008,2.216,2.216,0,0,0,.224,1.232,5.745,5.745,0,0,0,3.7,2.129,6.012,6.012,0,0,0,3.473-.224c.448-.224,1.344-.672,1.457-1.457a1.247,1.247,0,0,0-.336-1.12,5.745,5.745,0,0,0-3.7-2.129,5.023,5.023,0,0,0-1.344-.112Z" transform="translate(-36.723 -1.326)" fill="#101f2d"/>
        </g>
        <g id="Grupo_1210382" data-name="Grupo 1210382" transform="translate(14.857 4.83)">
          <path id="Trazado_1080596" data-name="Trazado 1080596" d="M15.416,11.309a1.076,1.076,0,0,1-1.008-.784,1.165,1.165,0,0,1,.672-1.457l10.2-3.361a1.134,1.134,0,0,1,.784,2.129L15.864,11.2A.847.847,0,0,1,15.416,11.309Z" transform="translate(-14.337 -5.637)" fill="#101f2d"/>
        </g>
        <g id="Grupo_1210383" data-name="Grupo 1210383" transform="translate(32.293 3.668)">
          <path id="Trazado_1080597" data-name="Trazado 1080597" d="M31.02,7.625A1.105,1.105,0,0,1,29.9,6.617a1.219,1.219,0,0,1,1.008-1.232L41.888,4.6a1.219,1.219,0,0,1,1.232,1.008,1.219,1.219,0,0,1-1.008,1.232Z" transform="translate(-29.9 -4.6)" fill="#101f2d"/>
        </g>
        <g id="Grupo_1210384" data-name="Grupo 1210384" transform="translate(48.798 4.263)">
          <path id="Trazado_1080598" data-name="Trazado 1080598" d="M53.671,12.715A1.592,1.592,0,0,1,53,12.491L45.156,7.225a1.134,1.134,0,0,1,1.232-1.9l7.843,5.266a1.1,1.1,0,0,1,.336,1.569,1.143,1.143,0,0,1-.9.56Z" transform="translate(-44.631 -5.131)" fill="#101f2d"/>
        </g>
        <g id="Grupo_1210389" data-name="Grupo 1210389" transform="translate(24.675 11.847)">
          <g id="Grupo_1210385" data-name="Grupo 1210385" transform="translate(4.145 1.905)">
            <path id="Trazado_1080599" data-name="Trazado 1080599" d="M27.8,14.6H40.124v9.075H27.8Z" transform="translate(-26.68 -13.48)" fill="#ef6561"/>
            <path id="Trazado_1080600" data-name="Trazado 1080600" d="M40.245,24.916H27.92A1.059,1.059,0,0,1,26.8,23.8V14.72a1.059,1.059,0,0,1,1.12-1.12H40.245a1.059,1.059,0,0,1,1.12,1.12V23.8A1.059,1.059,0,0,1,40.245,24.916Zm-11.2-2.241H39.124V15.841H29.041Z" transform="translate(-26.8 -13.6)" fill="#101f2d"/>
          </g>
          <g id="Grupo_1210386" data-name="Grupo 1210386" transform="translate(0 0)">
            <path id="Trazado_1080601" data-name="Trazado 1080601" d="M26.117,25.9a2.008,2.008,0,0,0,2.017-2.017V14.917a2.017,2.017,0,1,0-4.033,0V23.88A2.008,2.008,0,0,0,26.117,25.9Z" transform="translate(-22.98 -11.78)" fill="#64c4f6"/>
            <path id="Trazado_1080602" data-name="Trazado 1080602" d="M26.237,27.137A3.206,3.206,0,0,1,23.1,24V15.037a3.137,3.137,0,1,1,6.274,0V24A3.206,3.206,0,0,1,26.237,27.137Zm0-13a.964.964,0,0,0-.9.9V24a.9.9,0,0,0,1.793,0V15.037a.964.964,0,0,0-.9-.9Z" transform="translate(-23.1 -11.9)" fill="#101f2d"/>
          </g>
          <g id="Grupo_1210387" data-name="Grupo 1210387" transform="translate(16.47 0)">
            <path id="Trazado_1080603" data-name="Trazado 1080603" d="M40.817,25.9a2.008,2.008,0,0,0,2.017-2.017V14.917a2.017,2.017,0,1,0-4.033,0V23.88A2.008,2.008,0,0,0,40.817,25.9Z" transform="translate(-37.68 -11.78)" fill="#64c4f6"/>
            <path id="Trazado_1080604" data-name="Trazado 1080604" d="M40.937,27.137A3.206,3.206,0,0,1,37.8,24V15.037a3.137,3.137,0,1,1,6.274,0V24A3.206,3.206,0,0,1,40.937,27.137Zm0-13a.964.964,0,0,0-.9.9V24a.9.9,0,1,0,1.793,0V15.037a.964.964,0,0,0-.9-.9Z" transform="translate(-37.8 -11.9)" fill="#101f2d"/>
          </g>
          <g id="Grupo_1210388" data-name="Grupo 1210388" transform="translate(7.395 10.98)">
            <path id="Trazado_1080605" data-name="Trazado 1080605" d="M33.733,47.805A4.043,4.043,0,0,1,29.7,43.66l.672-20.839a1.2,1.2,0,0,1,1.12-1.12h4.482a1.123,1.123,0,0,1,1.12,1.12l.672,20.839A4.113,4.113,0,0,1,33.733,47.805Zm-1.12-23.864L31.941,43.66a1.8,1.8,0,1,0,3.585,0l-.672-19.719Z" transform="translate(-29.7 -21.7)" fill="#101f2d"/>
          </g>
        </g>
      </g>
    </g>
  </g>
</svg>
