<svg xmlns="http://www.w3.org/2000/svg" xmlns:xlink="http://www.w3.org/1999/xlink" width="301" height="281.457" viewBox="0 0 301 281.457">
  <defs>
    <clipPath id="clip-path">
      <rect id="Rectángulo_418963" data-name="Rectángulo 418963" width="301" height="281" rx="61" transform="translate(3453 15452)" fill="#fff" stroke="#707070" stroke-width="1" opacity="0.59"/>
    </clipPath>
    <clipPath id="clip-path-2">
      <rect id="Rectángulo_418937" data-name="Rectángulo 418937" width="562.02" height="346.907" transform="translate(3214 15415)" fill="none"/>
    </clipPath>
    <clipPath id="clip-path-3">
      <rect id="Rectángulo_418925" data-name="Rectángulo 418925" width="536.761" height="315.741" fill="none"/>
    </clipPath>
    <clipPath id="clip-path-4">
      <rect id="Rectángulo_418916" data-name="Rectángulo 418916" width="96.38" height="241.356" fill="none"/>
    </clipPath>
    <clipPath id="clip-path-5">
      <rect id="Rectángulo_418917" data-name="Rectángulo 418917" width="98.574" height="190.777" fill="none"/>
    </clipPath>
    <clipPath id="clip-path-6">
      <rect id="Rectángulo_418918" data-name="Rectángulo 418918" width="122.657" height="131.776" fill="none"/>
    </clipPath>
    <clipPath id="clip-path-7">
      <rect id="Rectángulo_418919" data-name="Rectángulo 418919" width="103.191" height="94.113" fill="none"/>
    </clipPath>
    <clipPath id="clip-path-8">
      <rect id="Rectángulo_418920" data-name="Rectángulo 418920" width="122.052" height="196.279" fill="none"/>
    </clipPath>
    <clipPath id="clip-path-9">
      <rect id="Rectángulo_418921" data-name="Rectángulo 418921" width="42.479" height="105.71" fill="none"/>
    </clipPath>
    <clipPath id="clip-path-10">
      <rect id="Rectángulo_418922" data-name="Rectángulo 418922" width="125.711" height="55.057" fill="none"/>
    </clipPath>
    <clipPath id="clip-path-11">
      <rect id="Rectángulo_418923" data-name="Rectángulo 418923" width="68.793" height="161.525" fill="none"/>
    </clipPath>
    <clipPath id="clip-path-12">
      <rect id="Rectángulo_418924" data-name="Rectángulo 418924" width="52.641" height="166.67" fill="none"/>
    </clipPath>
    <clipPath id="clip-path-13">
      <rect id="Rectángulo_418936" data-name="Rectángulo 418936" width="562.02" height="346.907" fill="none"/>
    </clipPath>
    <clipPath id="clip-path-14">
      <rect id="Rectángulo_418929" data-name="Rectángulo 418929" width="83.253" height="174.749" fill="none"/>
    </clipPath>
    <clipPath id="clip-path-15">
      <rect id="Rectángulo_418926" data-name="Rectángulo 418926" width="79.306" height="38.097" fill="none"/>
    </clipPath>
    <clipPath id="clip-path-16">
      <rect id="Rectángulo_418927" data-name="Rectángulo 418927" width="23.708" height="46.375" fill="none"/>
    </clipPath>
    <clipPath id="clip-path-17">
      <rect id="Rectángulo_418928" data-name="Rectángulo 418928" width="56.515" height="30.029" fill="none"/>
    </clipPath>
    <clipPath id="clip-path-18">
      <rect id="Rectángulo_418931" data-name="Rectángulo 418931" width="80.822" height="19.892" fill="none"/>
    </clipPath>
    <clipPath id="clip-path-19">
      <rect id="Rectángulo_418932" data-name="Rectángulo 418932" width="54.151" height="13.545" fill="none"/>
    </clipPath>
    <clipPath id="clip-path-22">
      <rect id="Rectángulo_418935" data-name="Rectángulo 418935" width="83.056" height="45.96" fill="none"/>
    </clipPath>
  </defs>
  <g id="Grupo_1211414" data-name="Grupo 1211414" transform="translate(-1119 -15022.543)">
    <g id="Grupo_1210255" data-name="Grupo 1210255" transform="translate(971.906 12237.543)">
      <rect id="Rectángulo_416878" data-name="Rectángulo 416878" width="241" height="281.113" rx="65" transform="translate(207 2785)" fill="#ba9c5a"/>
    </g>
    <g id="Enmascarar_grupo_1098916" data-name="Enmascarar grupo 1098916" transform="translate(-2334 -429)" clip-path="url(#clip-path)">
      <g id="Enmascarar_grupo_1098915" data-name="Enmascarar grupo 1098915" clip-path="url(#clip-path-2)">
        <g id="Grupo_1211280" data-name="Grupo 1211280" transform="translate(3223.788 15415)" clip-path="url(#clip-path-3)">
          <path id="Trazado_1083328" data-name="Trazado 1083328" d="M542.131,395.564c-8.177,8.87-15.956,12.4-24.363,13.093-5.328.441-7.456-6.828-2.657-9.187a46.117,46.117,0,0,1,27.02-3.906" transform="translate(-198.629 -145.58)" fill="#be6e6d"/>
          <path id="Trazado_1083329" data-name="Trazado 1083329" d="M532.113,372.223c-8.111,8.8-15.828,12.317-24.163,13.031-5.328.456-7.461-6.838-2.657-9.186a45.95,45.95,0,0,1,26.819-3.845" transform="translate(-195.011 -136.979)" fill="#be6e6d"/>
          <path id="Trazado_1083330" data-name="Trazado 1083330" d="M521.732,352.8c-7.181,7.789-14.039,11.233-21.345,12.224-5.559.753-7.8-7.023-2.663-9.269a44.165,44.165,0,0,1,24.008-2.955" transform="translate(-192.144 -129.831)" fill="#be6e6d"/>
          <path id="Trazado_1083331" data-name="Trazado 1083331" d="M508.165,334.156c-6.051,6.563-11.864,9.935-17.934,11.326-6.109,1.4-8.632-7.383-2.725-9.477a43.441,43.441,0,0,1,20.658-1.849" transform="translate(-188.207 -122.966)" fill="#be6e6d"/>
          <path id="Trazado_1083332" data-name="Trazado 1083332" d="M489.626,318.968c-5.743,6.228-11.27,9.583-17.007,11.1-6.115,1.615-8.76-7.589-2.749-9.556a43.72,43.72,0,0,1,19.756-1.541" transform="translate(-181.693 -117.369)" fill="#be6e6d"/>
          <path id="Trazado_1083333" data-name="Trazado 1083333" d="M470.418,305.4c-4.869,5.281-9.549,8.036-14.426,9.208-4.979,1.2-7.067-6.11-2.227-7.782a35.607,35.607,0,0,1,16.653-1.427" transform="translate(-175.998 -112.403)" fill="#be6e6d"/>
          <path id="Trazado_1083334" data-name="Trazado 1083334" d="M581.357,364.411c-4.725,8.713-12.1,13.355-21.557,17.258a42.265,42.265,0,0,1,14.147-23.341c4.116-3.487,9.982,1.34,7.41,6.083" transform="translate(-216.084 -131.611)" fill="#be6e6d"/>
          <path id="Trazado_1083335" data-name="Trazado 1083335" d="M566.864,333.848c-2.551,9.482-8.594,15.68-16.8,21.649a42.09,42.09,0,0,1,8.169-25.821c3.173-4.364,10.033-1.039,8.632,4.172" transform="translate(-212.493 -120.748)" fill="#be6e6d"/>
          <path id="Trazado_1083336" data-name="Trazado 1083336" d="M548.622,314.275c-.926,8.48-5.178,15.02-11.239,21.747a39.994,39.994,0,0,1,1.873-24.139c2.121-5.292,9.986-3.275,9.366,2.392" transform="translate(-207.435 -113.801)" fill="#be6e6d"/>
          <path id="Trazado_1083337" data-name="Trazado 1083337" d="M529.859,300.739c-.873,7.107-4.3,13.058-9.12,19.256a38.6,38.6,0,0,1-.56-21.025c1.49-5.889,10.421-4.26,9.681,1.769" transform="translate(-201.042 -108.822)" fill="#be6e6d"/>
          <path id="Trazado_1083338" data-name="Trazado 1083338" d="M501.364,284.727c1.1,6.475-.118,12.807-2.4,19.747a38.608,38.608,0,0,1-7.429-18.166c-.846-6.389,8.751-7.934,9.834-1.581" transform="translate(-190.906 -103.431)" fill="#be6e6d"/>
          <path id="Trazado_1083339" data-name="Trazado 1083339" d="M466.457,278.507c3.9,4.315,5.753,9.588,7.024,15.846a31.583,31.583,0,0,1-13.308-10.8c-2.864-4.05,2.957-8.729,6.284-5.049" transform="translate(-179.086 -102.143)" fill="#be6e6d"/>
          <path id="Trazado_1083340" data-name="Trazado 1083340" d="M453.726,295.389c-6.182,2.55-11.153,3.078-15.584,2.193-5-1-3.654-8.6,1.409-7.959a30.748,30.748,0,0,1,14.176,5.765" transform="translate(-170.093 -106.718)" fill="#be6e6d"/>
          <path id="Trazado_1083341" data-name="Trazado 1083341" d="M527.16,371.631c-6.294-36.407-34.372-64.2-63.126-73.27" transform="translate(-180.792 -109.951)" fill="none" stroke="#321131" stroke-linecap="round" stroke-linejoin="round" stroke-width="1.5"/>
          <path id="Trazado_1083342" data-name="Trazado 1083342" d="M624.475,314.143c1.99-25.028,30.623-37.4,39.427-56.669s-.064-33.475,7.765-46.708,19.911-12.518,23.023-31.2-6.932-16.789-5.5-29.933,17.961-24.167,4-37.1-18.932-10.486-17.642-27.778-14.9-27.712-27.567-19.88S632.6,91.862,641.205,99.723s14.7,17.59,5.348,22.108-15.824,18.3-10.372,29.654,1.521,25.4-4.093,27.488-15.124,3.43-15.574,16.528,6.317,28.666-.7,34.279-17.728,6.619-18.981,24.987,8.326,32.564,8.473,40.142,19.172,19.234,19.172,19.234" transform="translate(-229.688 -22.932)" fill="#bb7598"/>
          <g id="Grupo_1211255" data-name="Grupo 1211255" transform="translate(371.426 41.026)" opacity="0.62" style="mix-blend-mode: multiply;isolation: isolate">
            <g id="Grupo_1211254" data-name="Grupo 1211254" transform="translate(0)">
              <g id="Grupo_1211253" data-name="Grupo 1211253" clip-path="url(#clip-path-4)">
                <path id="Trazado_1083343" data-name="Trazado 1083343" d="M604.181,306.543c2.262-34.673,35.462-60.017,51.479-99.352s23.929-101.148-4.927-140.771" transform="translate(-603.865 -65.502)" fill="none" stroke="#bb7598" stroke-linecap="round" stroke-linejoin="round" stroke-width="1"/>
                <path id="Trazado_1083344" data-name="Trazado 1083344" d="M660.755,81.08c13.585,18.186,26,18.083,26,18.083a61.293,61.293,0,0,0,2-33.7" transform="translate(-624.714 -65.151)" fill="none" stroke="#bb7598" stroke-linecap="round" stroke-linejoin="round" stroke-width="1"/>
                <path id="Trazado_1083345" data-name="Trazado 1083345" d="M679.284,129.094c8.769,5.747,17.853,10.7,17.853,10.7s8.7-10.6,10.061-21.719" transform="translate(-631.542 -84.538)" fill="none" stroke="#bb7598" stroke-linecap="round" stroke-linejoin="round" stroke-width="1"/>
                <path id="Trazado_1083346" data-name="Trazado 1083346" d="M664.426,159.913a131,131,0,0,0,27.092,21.1s22.557-16.311,30.613-31.3" transform="translate(-626.067 -96.196)" fill="none" stroke="#bb7598" stroke-linecap="round" stroke-linejoin="round" stroke-width="1"/>
                <path id="Trazado_1083347" data-name="Trazado 1083347" d="M663.333,221.747c4.8,19.4,19.772,26.714,19.772,26.714a123.137,123.137,0,0,0,36.614-19.186" transform="translate(-625.664 -122.743)" fill="none" stroke="#bb7598" stroke-linecap="round" stroke-linejoin="round" stroke-width="1"/>
                <path id="Trazado_1083348" data-name="Trazado 1083348" d="M633.532,257.117c3.452,16.727,24.065,38.366,24.065,38.366a198.318,198.318,0,0,1,27.636-12.9" transform="translate(-614.682 -135.778)" fill="none" stroke="#bb7598" stroke-linecap="round" stroke-linejoin="round" stroke-width="1"/>
                <path id="Trazado_1083349" data-name="Trazado 1083349" d="M626.579,327.56a47.044,47.044,0,0,0,4.7,29.517s27.526-14.232,47.639-21.091" transform="translate(-611.884 -161.737)" fill="none" stroke="#bb7598" stroke-linecap="round" stroke-linejoin="round" stroke-width="1"/>
              </g>
            </g>
          </g>
          <g id="Grupo_1211258" data-name="Grupo 1211258" transform="translate(367.027 100.435)" opacity="0.4" style="mix-blend-mode: multiply;isolation: isolate">
            <g id="Grupo_1211257" data-name="Grupo 1211257" transform="translate(0)">
              <g id="Grupo_1211256" data-name="Grupo 1211256" clip-path="url(#clip-path-5)">
                <path id="Trazado_1083350" data-name="Trazado 1083350" d="M624.475,349.822c1.99-25.028,30.623-37.4,39.427-56.669s-.064-33.475,7.765-46.708,19.911-12.518,23.023-31.2c1-5.981.641-9.849-.251-12.781a55.731,55.731,0,0,0-14.547,2.1c-12.994,4.045-23.825,45.265-31.591,40.021-6.124-4.136,5.115-50.839-4.336-85.539-7.892,5.589-12.716,17.843-7.783,28.118,5.452,11.357,1.521,25.4-4.093,27.488s-15.124,3.43-15.574,16.528,6.317,28.666-.7,34.279-17.728,6.619-18.981,24.987,8.326,32.564,8.473,40.142,19.172,19.234,19.172,19.234" transform="translate(-596.715 -159.046)" fill="#bb7598"/>
              </g>
            </g>
          </g>
          <path id="Trazado_1083351" data-name="Trazado 1083351" d="M684.578,448.172c18.724,7.883,38.141-2.986,39.436-13.548s19.81-21.451,29.226-27.645,7.6-11.336,4.879-21.647,7.222-20.257,14.128-31.022,12.522-28.823-1.084-30.98S755.529,336.711,750.7,343.6s-18.19,11.712-27.581,12.755-9.2,9.763-12.242,20.25-18.137,9.735-26.179,19.041-11.853,31.43-18.723,33.973-8.855,20.762-8.855,20.762Z" transform="translate(-251.946 -119.078)" fill="#bb7598"/>
          <g id="Grupo_1211261" data-name="Grupo 1211261" transform="translate(404.998 203.937)" opacity="0.62" style="mix-blend-mode: multiply;isolation: isolate">
            <g id="Grupo_1211260" data-name="Grupo 1211260" transform="translate(0)">
              <g id="Grupo_1211259" data-name="Grupo 1211259" clip-path="url(#clip-path-6)">
                <path id="Trazado_1083352" data-name="Trazado 1083352" d="M657.344,454.593c29.367-12.29,59.107-40.217,72.866-59.056s24.09-27.811,32.365-44.032,8.671-28.056,8.671-28.056" transform="translate(-657.028 -323.133)" fill="none" stroke="#bb7598" stroke-linecap="round" stroke-linejoin="round" stroke-width="1"/>
                <path id="Trazado_1083353" data-name="Trazado 1083353" d="M814.914,335.94c-2.242,7.979,3.291,24.305,3.291,24.305s11.709-7.749,19.035-18.956" transform="translate(-714.898 -327.736)" fill="none" stroke="#bb7598" stroke-linecap="round" stroke-linejoin="round" stroke-width="1"/>
                <path id="Trazado_1083354" data-name="Trazado 1083354" d="M792.593,365.9c-1.9,6.891,5.425,22.478,5.425,22.478a47.079,47.079,0,0,0,15.789-6.439" transform="translate(-706.754 -338.776)" fill="none" stroke="#bb7598" stroke-linecap="round" stroke-linejoin="round" stroke-width="1"/>
                <path id="Trazado_1083355" data-name="Trazado 1083355" d="M755.938,377.262c-.741,12.63,13.945,33.618,13.945,33.618,7.885-3.854,20.113-1.391,26.507,2.081" transform="translate(-693.352 -342.964)" fill="none" stroke="#bb7598" stroke-linecap="round" stroke-linejoin="round" stroke-width="1"/>
                <path id="Trazado_1083356" data-name="Trazado 1083356" d="M731.614,420.062c-.64,12.155,10.883,28.616,10.883,28.616s23.969-4.936,34.514-3.594" transform="translate(-684.389 -358.737)" fill="none" stroke="#bb7598" stroke-linecap="round" stroke-linejoin="round" stroke-width="1"/>
                <path id="Trazado_1083357" data-name="Trazado 1083357" d="M699.026,440.186c1.894,12.22,14.856,31.288,14.856,31.288s19.138-4.276,28.9-1.012" transform="translate(-672.389 -366.153)" fill="none" stroke="#bb7598" stroke-linecap="round" stroke-linejoin="round" stroke-width="1"/>
                <path id="Trazado_1083358" data-name="Trazado 1083358" d="M683.351,472.717c-2.739,12.415,4.656,25.467,4.656,25.467s16.238,5.48,25.057,7.633" transform="translate(-666.388 -378.141)" fill="none" stroke="#bb7598" stroke-linecap="round" stroke-linejoin="round" stroke-width="1"/>
              </g>
            </g>
          </g>
          <g id="Grupo_1211264" data-name="Grupo 1211264" transform="translate(405.17 237.68)" opacity="0.4" style="mix-blend-mode: multiply;isolation: isolate">
            <g id="Grupo_1211263" data-name="Grupo 1211263" transform="translate(0)">
              <g id="Grupo_1211262" data-name="Grupo 1211262" clip-path="url(#clip-path-7)">
                <path id="Trazado_1083359" data-name="Trazado 1083359" d="M705.171,434.646c-5.4-6.289,20.5-31.41,15.867-58.261-7.3,2.058-7.363,10.2-10.165,19.848-3.046,10.486-18.137,9.734-26.179,19.04s-11.853,31.43-18.723,33.973-8.855,20.762-8.855,20.762l27.462-2.21c18.724,7.884,38.141-2.986,39.436-13.547s19.81-21.452,29.226-27.646c6.194-4.075,7.529-7.7,6.941-12.631-15.142,8.213-50.172,26.306-55.01,20.672" transform="translate(-657.117 -376.384)" fill="#bb7598"/>
              </g>
            </g>
          </g>
          <path id="Trazado_1083360" data-name="Trazado 1083360" d="M655.58,384.534c23.408-9.545,27.866-14.333,26.439-22.085s4.985-18.662,13.523-24.6,17.341-8.191,13.031-20.946-10.891-20.764,2.213-25.487,25.268-4.04,28.32-15.976-6.725-19.531,4.042-29.527,20.733-17.247,21.105-34.045-3.922-40.354-18.653-31.743-9.582,32.346-16.11,39.7-30.972,10.485-35.929,21.95-2.019,29.293-14.593,33.488-14.854,6.308-19.282,19.612-17.963,21.71-18.811,39.456,14.706,50.21,14.706,50.21" transform="translate(-245.949 -65.701)" fill="#db9e8f"/>
          <g id="Grupo_1211267" data-name="Grupo 1211267" transform="translate(395.703 112.301)" opacity="0.62" style="mix-blend-mode: multiply;isolation: isolate">
            <g id="Grupo_1211266" data-name="Grupo 1211266">
              <g id="Grupo_1211265" data-name="Grupo 1211265" clip-path="url(#clip-path-8)">
                <path id="Trazado_1083361" data-name="Trazado 1083361" d="M642.925,373.984c13.167-14.337,18.173-36.488,27.76-59.949S698.007,275.5,713.5,260.5s48.4-49.461,38.006-82.165" transform="translate(-642.42 -178.022)" fill="none" stroke="#db9e8f" stroke-linecap="round" stroke-linejoin="round" stroke-width="1"/>
                <path id="Trazado_1083362" data-name="Trazado 1083362" d="M796.14,191.81a111.923,111.923,0,0,0,7.83,29.313s10.8-10.929,16.532-19.546" transform="translate(-698.882 -182.986)" fill="none" stroke="#db9e8f" stroke-linecap="round" stroke-linejoin="round" stroke-width="1"/>
                <path id="Trazado_1083363" data-name="Trazado 1083363" d="M786.356,230.887c-.114,10.7,4.388,21.148,4.388,21.148s20.4-5.97,26.268-13.474" transform="translate(-695.276 -197.387)" fill="none" stroke="#db9e8f" stroke-linecap="round" stroke-linejoin="round" stroke-width="1"/>
                <path id="Trazado_1083364" data-name="Trazado 1083364" d="M767.116,252.339c-3.137,8.654-.276,27.263-.276,27.263s11.227,2.127,18.036-.631" transform="translate(-687.645 -205.292)" fill="none" stroke="#db9e8f" stroke-linecap="round" stroke-linejoin="round" stroke-width="1"/>
                <path id="Trazado_1083365" data-name="Trazado 1083365" d="M736.775,266.057c-2.976,10.5,4.771,32.791,4.771,32.791s22.868,8.141,33.145,5.325" transform="translate(-676.754 -210.348)" fill="none" stroke="#db9e8f" stroke-linecap="round" stroke-linejoin="round" stroke-width="1"/>
                <path id="Trazado_1083366" data-name="Trazado 1083366" d="M715.247,314.814c-2.265,13.108-.508,21.142-.508,21.142s16.528.778,25.322,5" transform="translate(-668.645 -228.315)" fill="none" stroke="#db9e8f" stroke-linecap="round" stroke-linejoin="round" stroke-width="1"/>
                <path id="Trazado_1083367" data-name="Trazado 1083367" d="M675.338,350.542a31.625,31.625,0,0,0,8.393,24.288s19.823-6.378,33.195-5.87" transform="translate(-654.323 -241.482)" fill="none" stroke="#db9e8f" stroke-linecap="round" stroke-linejoin="round" stroke-width="1"/>
                <path id="Trazado_1083368" data-name="Trazado 1083368" d="M654.458,390.2c-1.843,10.208,12.172,23.9,12.172,23.9s31.945-8.668,46.931-8.462" transform="translate(-646.608 -256.096)" fill="none" stroke="#db9e8f" stroke-linecap="round" stroke-linejoin="round" stroke-width="1"/>
                <path id="Trazado_1083369" data-name="Trazado 1083369" d="M683.066,442.77c-10.539-2.6-30.489,3.7-30.489,3.7l-9.952-32.375" transform="translate(-642.309 -264.901)" fill="none" stroke="#db9e8f" stroke-linecap="round" stroke-linejoin="round" stroke-width="1"/>
              </g>
            </g>
          </g>
          <g id="Grupo_1211270" data-name="Grupo 1211270" transform="translate(397.395 213.122)" opacity="0.38" style="mix-blend-mode: multiply;isolation: isolate">
            <g id="Grupo_1211269" data-name="Grupo 1211269" transform="translate(0)">
              <g id="Grupo_1211268" data-name="Grupo 1211268" clip-path="url(#clip-path-9)">
                <path id="Trazado_1083370" data-name="Trazado 1083370" d="M671.57,337.495c-5.27,2.9-7.323,6.727-10.424,16.045-3.229,9.7-11.3,16.8-15.759,26.814-.481,9.349-.6,20.358-.58,30.079,4.206,16.016,12.234,32.773,12.234,32.773,23.409-9.545,27.867-14.333,26.439-22.085-.784-4.259.8-9.47,3.8-14.288-7.025-14.867-15.219-35.858-15.713-69.337" transform="translate(-644.804 -337.495)" fill="#db9e8f"/>
              </g>
            </g>
          </g>
          <path id="Trazado_1083371" data-name="Trazado 1083371" d="M674.171,506.125c7.087-14.149,31.258-37.246,40.6-36.241s11.547,9.773,15.943,8.987,12.166-19.984,27.514-20.536,15.389,10.842,25.188,14.912,15.874-1.815,20.9,5.9-.8,21.82-15.966,21.719S771.7,494.5,761.606,494.85s-13.887,9.332-19.931,12.7-9.231,4.233-19.956,3.918-21.89,4.334-21.89,4.334l-27.4-5.828Z" transform="translate(-257.588 -168.897)" fill="#db9e8f"/>
          <g id="Grupo_1211273" data-name="Grupo 1211273" transform="translate(422.683 290.699)" opacity="0.62" style="mix-blend-mode: multiply;isolation: isolate">
            <g id="Grupo_1211272" data-name="Grupo 1211272" transform="translate(0)">
              <g id="Grupo_1211271" data-name="Grupo 1211271" clip-path="url(#clip-path-10)">
                <path id="Trazado_1083372" data-name="Trazado 1083372" d="M685.349,529.738c15.43-15.928,41.083-29.7,78.568-29.63s46.511,4.026,46.511,4.026" transform="translate(-685.033 -474.998)" fill="none" stroke="#db9e8f" stroke-linecap="round" stroke-linejoin="round" stroke-width="1"/>
                <path id="Trazado_1083373" data-name="Trazado 1083373" d="M722.687,481.226a70.775,70.775,0,0,0-5.171,25.965s28.056-.3,44.657,5.791" transform="translate(-696.886 -468.039)" fill="none" stroke="#db9e8f" stroke-linecap="round" stroke-linejoin="round" stroke-width="1"/>
                <path id="Trazado_1083374" data-name="Trazado 1083374" d="M751.414,484.183c-4.855,3.987-5.117,16.089-5.117,16.089s25.069-1.1,35.849,5.855" transform="translate(-707.494 -469.129)" fill="none" stroke="#db9e8f" stroke-linecap="round" stroke-linejoin="round" stroke-width="1"/>
                <path id="Trazado_1083375" data-name="Trazado 1083375" d="M791.309,460.844C779.8,470,780.854,486.507,780.854,486.507s19.206,2.669,23.23,9.332" transform="translate(-720.219 -460.528)" fill="none" stroke="#db9e8f" stroke-linecap="round" stroke-linejoin="round" stroke-width="1"/>
                <path id="Trazado_1083376" data-name="Trazado 1083376" d="M826.953,473.476c-13.745,1.02-17.186,16.818-17.186,16.818s14.9,4.626,21.595,15.462" transform="translate(-730.883 -465.183)" fill="none" stroke="#db9e8f" stroke-linecap="round" stroke-linejoin="round" stroke-width="1"/>
                <path id="Trazado_1083377" data-name="Trazado 1083377" d="M851.456,484.4c-10.633,2.384-12.117,10.341-12.117,10.341s12.471,11.891,20.639,13.178" transform="translate(-741.781 -469.208)" fill="none" stroke="#db9e8f" stroke-linecap="round" stroke-linejoin="round" stroke-width="1"/>
              </g>
            </g>
          </g>
          <path id="Trazado_1083378" data-name="Trazado 1083378" d="M581.728,285.6c3.282-8.937-4.891-16.842-14.066-23.625s-14.226-14.361-16.752-29.516S527,206.835,517.167,214.279s-12.7,34.464-4.317,39.583,18.485,11.293,15.959,19.256-14.413,29.258-3.418,41.66-8.581,20.935,3.418,39.4,33.469,45.041,45.783,24.492,7.137-93.073,7.137-93.073" transform="translate(-196.965 -78.061)" fill="#db9e8f"/>
          <g id="Grupo_1211276" data-name="Grupo 1211276" transform="translate(311.241 135.903)" opacity="0.62" style="mix-blend-mode: multiply;isolation: isolate">
            <g id="Grupo_1211275" data-name="Grupo 1211275" transform="translate(0)">
              <g id="Grupo_1211274" data-name="Grupo 1211274" clip-path="url(#clip-path-11)">
                <path id="Trazado_1083379" data-name="Trazado 1083379" d="M569.658,376.606c5.594-28.417-14.532-117.819-47.093-160.894" transform="translate(-513.603 -215.396)" fill="none" stroke="#db9e8f" stroke-linecap="round" stroke-linejoin="round" stroke-width="1"/>
                <path id="Trazado_1083380" data-name="Trazado 1083380" d="M508.873,235.712c10.815,9.472,27.411,14.138,27.411,14.138s6.137-15.209,4.875-29.2" transform="translate(-508.557 -217.217)" fill="none" stroke="#db9e8f" stroke-linecap="round" stroke-linejoin="round" stroke-width="1"/>
                <path id="Trazado_1083381" data-name="Trazado 1083381" d="M532.019,280.533c11.986,1.944,22.6,9.758,22.6,9.758s6.557-11.855,8.709-24.99" transform="translate(-517.087 -233.671)" fill="none" stroke="#db9e8f" stroke-linecap="round" stroke-linejoin="round" stroke-width="1"/>
                <path id="Trazado_1083382" data-name="Trazado 1083382" d="M535.231,311.793c8.063.45,28.045,11.183,28.045,11.183s12.26-16.112,14.452-31.735" transform="translate(-518.271 -243.23)" fill="none" stroke="#db9e8f" stroke-linecap="round" stroke-linejoin="round" stroke-width="1"/>
                <path id="Trazado_1083383" data-name="Trazado 1083383" d="M528.446,349.267c7.3,7.816,39.1,17.137,39.1,17.137l16.7-30.6" transform="translate(-515.77 -259.653)" fill="none" stroke="#db9e8f" stroke-linecap="round" stroke-linejoin="round" stroke-width="1"/>
                <path id="Trazado_1083384" data-name="Trazado 1083384" d="M539.354,397.487c7.986,12.638,36.784,21.667,36.784,21.667" transform="translate(-519.79 -282.384)" fill="none" stroke="#db9e8f" stroke-linecap="round" stroke-linejoin="round" stroke-width="1"/>
              </g>
            </g>
          </g>
          <g id="Grupo_1211279" data-name="Grupo 1211279" transform="translate(324.452 133.877)" opacity="0.38" style="mix-blend-mode: multiply;isolation: isolate">
            <g id="Grupo_1211278" data-name="Grupo 1211278" transform="translate(0)">
              <g id="Grupo_1211277" data-name="Grupo 1211277" clip-path="url(#clip-path-12)">
                <path id="Trazado_1083385" data-name="Trazado 1083385" d="M575.54,262.041c-9.174-6.783-14.226-14.361-16.752-29.516-.04-.242-.1-.48-.149-.721-5.818-6.478-11.648-12.914-16.129-17.846a25.733,25.733,0,0,0-7.307-1.954c4.094,32.575,13.055,55.755.444,79.009a76.419,76.419,0,0,0-6.353,16.1,17.65,17.65,0,0,0,3.975,7.736c11,12.4-8.581,20.935,3.418,39.4,5.292,8.146,12.428,17.867,19.808,24.428l7.948-3.927s14.307-81.548,17.493-107.533a82.17,82.17,0,0,0-6.394-5.174" transform="translate(-529.293 -212.005)" fill="#db9e8f"/>
              </g>
            </g>
          </g>
        </g>
        <g id="Grupo_1211310" data-name="Grupo 1211310" transform="translate(3214 15415)">
          <g id="Grupo_1211309" data-name="Grupo 1211309" clip-path="url(#clip-path-13)">
            <path id="Trazado_1083386" data-name="Trazado 1083386" d="M556.307,329.017c-4.907,2.459-6.794,11.556-6.794,11.556L572.238,358s34.531-1.566,34.631-2.993,19-34.264,19.021-34.58-.023-11.546,0-11.614-14.413-3.936-14.413-3.936Z" transform="translate(-202.505 -112.352)" fill="#4d3353"/>
            <path id="Trazado_1083387" data-name="Trazado 1083387" d="M541,346.269S556.927,190.5,553,184.609c-11.367-17.05-8.385-44.14-11.281-57.8s6.169-22.262,13.525-26.182c6.194-3.3,10.735-3.76,11.18-3.564,9.255-9.157,18.63-12.291,28.1-10.418,8.732-4.592,16.876-7.009,22.864-1.456,0,0,12.756-1.151,18.415,2.878s-2.092,25.454-2.092,25.454,7.385,2.02,8.152,12.711-9.842,44.233-16.246,52.06c-5.683,6.946-8.841,8.209-8.841,8.209L628.46,345.953Z" transform="translate(-199.368 -30.212)" fill="#935353"/>
            <g id="Grupo_1211293" data-name="Grupo 1211293" transform="translate(342.414 96.617)" opacity="0.58" style="mix-blend-mode: multiply;isolation: isolate">
              <g id="Grupo_1211292" data-name="Grupo 1211292" transform="translate(0)">
                <g id="Grupo_1211291" data-name="Grupo 1211291" clip-path="url(#clip-path-14)">
                  <g id="Grupo_1211284" data-name="Grupo 1211284" transform="translate(3.947 136.652)" opacity="0.53" style="mix-blend-mode: multiply;isolation: isolate">
                    <g id="Grupo_1211283" data-name="Grupo 1211283">
                      <g id="Grupo_1211282" data-name="Grupo 1211282" clip-path="url(#clip-path-15)">
                        <path id="Trazado_1083388" data-name="Trazado 1083388" d="M625.2,369.4l-74.472,9.537c-.749,8.386-1.509,16.655-2.24,24.445,34.888,12.066,58.107-5.908,63.764-9.29,4.055-2.425,11.036,5.023,15.541,10.7Z" transform="translate(-548.488 -369.398)" fill="#935353"/>
                      </g>
                    </g>
                  </g>
                  <g id="Grupo_1211287" data-name="Grupo 1211287" transform="translate(54.705 59.614)" opacity="0.53" style="mix-blend-mode: multiply;isolation: isolate">
                    <g id="Grupo_1211286" data-name="Grupo 1211286" transform="translate(0)">
                      <g id="Grupo_1211285" data-name="Grupo 1211285" clip-path="url(#clip-path-16)">
                        <path id="Trazado_1083389" data-name="Trazado 1083389" d="M649.177,247.4c-5.559,1.563-11.852,2.232-16.912,3.06-8.682,1.421,1.42,7.745,6.473,10.582s5.138,20.516,10.779,28.727a46,46,0,0,0,3.058,4.006Z" transform="translate(-628.867 -247.403)" fill="#935353"/>
                      </g>
                    </g>
                  </g>
                  <g id="Grupo_1211290" data-name="Grupo 1211290" transform="translate(0)" opacity="0.53" style="mix-blend-mode: multiply;isolation: isolate">
                    <g id="Grupo_1211289" data-name="Grupo 1211289">
                      <g id="Grupo_1211288" data-name="Grupo 1211288" clip-path="url(#clip-path-17)">
                        <path id="Trazado_1083390" data-name="Trazado 1083390" d="M543.185,160.052c11.809-1.925,11.986.335,18.211,11.06,6.9,11.883,8.793,11.252,17.634,11.883s19.723-7.811,19.723-7.811c-1.759.67-3.27-2.631-4.747-6.465,0,0-.773,8.814-3.771,8.73-4.89-.136-9.924-7.034-9.924-7.034s-.649,8.161-3.764,7.746c-5.259-.7-9.37-7.757-11.968-14.407S560.74,153,560.74,153h-18.5a65.625,65.625,0,0,1,.947,7.052" transform="translate(-542.238 -153)" fill="#935353"/>
                      </g>
                    </g>
                  </g>
                </g>
              </g>
            </g>
            <rect id="Rectángulo_418930" data-name="Rectángulo 418930" width="154.713" height="8.209" transform="translate(314.479 88.723)" fill="#4d3353"/>
            <path id="Trazado_1083391" data-name="Trazado 1083391" d="M481.643,138.289c-1.263,12.63-17.682,22.1-20.207,11.367a5.986,5.986,0,0,1,.635-4.118,5.681,5.681,0,1,0,1.891-11.038c-.186,0-.369.01-.551.028-.028-.009-.052-.019-.081-.028-11.367,1.894-16.016,28.036,4.42,26.522,17.05-1.263,20.512-22.733,20.512-22.733Z" transform="translate(-167.164 -49.566)" fill="#4d3353"/>
            <path id="Trazado_1083392" data-name="Trazado 1083392" d="M740.137,138.289c1.263,12.63,17.682,22.1,20.207,11.367a5.986,5.986,0,0,0-.635-4.118,5.681,5.681,0,1,1-1.891-11.038c.186,0,.369.01.551.028.028-.009.052-.019.081-.028,11.367,1.894,16.016,28.036-4.42,26.522-17.05-1.263-20.512-22.733-20.512-22.733Z" transform="translate(-270.314 -49.566)" fill="#4d3353"/>
            <path id="Trazado_1083393" data-name="Trazado 1083393" d="M483.082,345.463s1.843-6.043,6.263-6.043,5.515,6.7,5.515,6.7" transform="translate(-178.024 -125.082)" fill="none" stroke="#321131" stroke-linecap="round" stroke-linejoin="round" stroke-width="1.5"/>
            <line id="Línea_3599" data-name="Línea 3599" x1="11.972" y1="109.589" transform="translate(299.349 104.749)" fill="none" stroke="#321131" stroke-linecap="round" stroke-linejoin="round" stroke-width="1.5"/>
            <path id="Trazado_1083394" data-name="Trazado 1083394" d="M393,359.52s7.119,31.245,43.975,31.245,49.485-31.245,49.485-31.245Z" transform="translate(-144.827 -132.489)" fill="#724b7b"/>
            <g id="Grupo_1211296" data-name="Grupo 1211296" transform="translate(253.261 238.384)" opacity="0.34" style="mix-blend-mode: multiply;isolation: isolate">
              <g id="Grupo_1211295" data-name="Grupo 1211295" transform="translate(0)">
                <g id="Grupo_1211294" data-name="Grupo 1211294" clip-path="url(#clip-path-18)">
                  <path id="Trazado_1083395" data-name="Trazado 1083395" d="M401.058,377.5c5.666,8.937,17.063,19.892,38.886,19.892,21.371,0,34.6-10.505,41.936-19.333-15.283,6.263-50.86,12.859-80.822-.559" transform="translate(-401.058 -377.499)" fill="#724b7b"/>
                </g>
              </g>
            </g>
            <path id="Trazado_1083396" data-name="Trazado 1083396" d="M486.459,355.558c0,3.75-20.922,6.79-46.73,6.79s-46.73-3.04-46.73-6.79,20.922-6.79,46.73-6.79,46.73,3.04,46.73,6.79" transform="translate(-144.827 -128.527)" fill="#4d3353"/>
            <g id="Grupo_1211299" data-name="Grupo 1211299" transform="translate(287.481 220.275)" opacity="0.59" style="mix-blend-mode: multiply;isolation: isolate">
              <g id="Grupo_1211298" data-name="Grupo 1211298" transform="translate(0)">
                <g id="Grupo_1211297" data-name="Grupo 1211297" clip-path="url(#clip-path-19)">
                  <path id="Trazado_1083397" data-name="Trazado 1083397" d="M455.248,362.281q3.627.084,7.421.086c25.808,0,46.73-3.039,46.73-6.789,0-3.523-18.47-6.419-42.109-6.756-.912,5.041-6.161,9.706-12.042,13.459" transform="translate(-455.248 -348.822)" fill="#724b7b"/>
                </g>
              </g>
            </g>
            <path id="Trazado_1083398" data-name="Trazado 1083398" d="M401.508,360.132s-.93-8.925-4.719-9.516S393,356.225,393,356.225" transform="translate(-144.827 -129.193)" fill="none" stroke="#321131" stroke-linecap="round" stroke-linejoin="round" stroke-width="1.5"/>
            <path id="Trazado_1083399" data-name="Trazado 1083399" d="M507.681,364.308s.635-6.615,4.622-7.148c4.42-.59,5.542,5.83,5.542,5.83" transform="translate(-187.089 -131.606)" fill="none" stroke="#321131" stroke-linecap="round" stroke-linejoin="round" stroke-width="1.5"/>
            <path id="Trazado_1083400" data-name="Trazado 1083400" d="M472.252,286.684,446.387,165.878,399,282.551" transform="translate(-147.038 -61.129)" fill="none" stroke="#321131" stroke-linecap="round" stroke-linejoin="round" stroke-width="1.5"/>
            <path id="Trazado_1083401" data-name="Trazado 1083401" d="M777.082,345.463s1.843-6.043,6.263-6.043,5.515,6.7,5.515,6.7" transform="translate(-286.368 -125.082)" fill="none" stroke="#321131" stroke-linecap="round" stroke-linejoin="round" stroke-width="1.5"/>
            <line id="Línea_3600" data-name="Línea 3600" x1="11.972" y1="109.589" transform="translate(485.005 104.749)" fill="none" stroke="#321131" stroke-linecap="round" stroke-linejoin="round" stroke-width="1.5"/>
            <path id="Trazado_1083402" data-name="Trazado 1083402" d="M687,359.52s7.119,31.245,43.975,31.245,49.485-31.245,49.485-31.245Z" transform="translate(-253.171 -132.489)" fill="#724b7b"/>
            <g id="Grupo_1211302" data-name="Grupo 1211302" transform="translate(438.917 238.384)" opacity="0.34" style="mix-blend-mode: multiply;isolation: isolate">
              <g id="Grupo_1211301" data-name="Grupo 1211301" transform="translate(0)">
                <g id="Grupo_1211300" data-name="Grupo 1211300" clip-path="url(#clip-path-18)">
                  <path id="Trazado_1083403" data-name="Trazado 1083403" d="M695.058,377.5c5.666,8.937,17.063,19.892,38.887,19.892,21.371,0,34.595-10.505,41.935-19.333-15.283,6.263-50.86,12.859-80.821-.559" transform="translate(-695.058 -377.499)" fill="#724b7b"/>
                </g>
              </g>
            </g>
            <path id="Trazado_1083404" data-name="Trazado 1083404" d="M687,355.558c0,3.75,20.922,6.79,46.73,6.79s46.73-3.04,46.73-6.79-20.922-6.79-46.73-6.79-46.73,3.04-46.73,6.79" transform="translate(-253.171 -128.527)" fill="#4d3353"/>
            <g id="Grupo_1211305" data-name="Grupo 1211305" transform="translate(433.829 220.275)" opacity="0.59" style="mix-blend-mode: multiply;isolation: isolate">
              <g id="Grupo_1211304" data-name="Grupo 1211304" transform="translate(0)">
                <g id="Grupo_1211303" data-name="Grupo 1211303" clip-path="url(#clip-path-19)">
                  <path id="Trazado_1083405" data-name="Trazado 1083405" d="M741.151,362.281q-3.627.084-7.421.086c-25.808,0-46.73-3.039-46.73-6.789,0-3.523,18.47-6.419,42.108-6.756.912,5.041,6.161,9.706,12.042,13.459" transform="translate(-687 -348.822)" fill="#724b7b"/>
                </g>
              </g>
            </g>
            <path id="Trazado_1083406" data-name="Trazado 1083406" d="M687,356.224s0-6.2,3.789-5.609,4.719,9.516,4.719,9.516" transform="translate(-253.171 -129.193)" fill="none" stroke="#321131" stroke-linecap="round" stroke-linejoin="round" stroke-width="1.5"/>
            <path id="Trazado_1083407" data-name="Trazado 1083407" d="M801.68,364.308s.635-6.615,4.622-7.148c4.42-.59,5.542,5.83,5.542,5.83" transform="translate(-295.433 -131.606)" fill="none" stroke="#321131" stroke-linecap="round" stroke-linejoin="round" stroke-width="1.5"/>
            <path id="Trazado_1083408" data-name="Trazado 1083408" d="M766.252,286.684,740.387,165.878,693,282.551" transform="translate(-255.382 -61.129)" fill="none" stroke="#321131" stroke-linecap="round" stroke-linejoin="round" stroke-width="1.5"/>
            <path id="Trazado_1083409" data-name="Trazado 1083409" d="M567.751,138.071a79.831,79.831,0,0,0,2.905,10.461l48.233,1.894,1.117-2.6,31.574,1.263c.631-5.052-.632-10.735-4.3-13.554Z" transform="translate(-209.226 -49.947)" fill="#935353"/>
            <path id="Trazado_1083410" data-name="Trazado 1083410" d="M626.131,250.847c6.138.959,18.05-2.838,18.05-2.838" transform="translate(-230.74 -91.396)" fill="none" stroke="#321131" stroke-linecap="round" stroke-linejoin="round" stroke-width="1.5"/>
            <path id="Trazado_1083411" data-name="Trazado 1083411" d="M567.379,126.158c4.161,17.628,10.97,34.412,18.432,34.949s3.622-52.186-9.668-55.24" transform="translate(-209.089 -39.014)" fill="none" stroke="#321131" stroke-linecap="round" stroke-linejoin="round" stroke-width="1.5"/>
            <path id="Trazado_1083412" data-name="Trazado 1083412" d="M628.988,97.979c-.592-3.66-1.621-6.661-3.224-8.608" transform="translate(-230.604 -32.935)" fill="none" stroke="#321131" stroke-linecap="round" stroke-linejoin="round" stroke-width="1.5"/>
            <path id="Trazado_1083413" data-name="Trazado 1083413" d="M602.318,161.341c2.986,7.455,9.968,11.061,11.771,7.57,1.065-2.061,5.245-19.851,6.534-36.457" transform="translate(-221.964 -48.811)" fill="none" stroke="#321131" stroke-linecap="round" stroke-linejoin="round" stroke-width="1.5"/>
            <path id="Trazado_1083414" data-name="Trazado 1083414" d="M629.179,183.878c-1.973.01-3.556-2.647-4.377-8.145" transform="translate(-230.25 -64.761)" fill="none" stroke="#321131" stroke-linecap="round" stroke-linejoin="round" stroke-width="1.5"/>
            <path id="Trazado_1083415" data-name="Trazado 1083415" d="M646.315,156.832c-1.384,4.372-2.718,8.133-3.805,10.706q-.8,1.881-1.59,3.394" transform="translate(-236.19 -57.795)" fill="none" stroke="#321131" stroke-linecap="round" stroke-linejoin="round" stroke-width="1.5"/>
            <path id="Trazado_1083416" data-name="Trazado 1083416" d="M661.269,87.064c1.373,2.48.571,9.859-1.2,18.574" transform="translate(-243.245 -32.085)" fill="none" stroke="#321131" stroke-linecap="round" stroke-linejoin="round" stroke-width="1.5"/>
            <path id="Trazado_1083417" data-name="Trazado 1083417" d="M644.108,175.728c-.223-.577-.442-1.227-.67-1.943" transform="translate(-237.118 -64.043)" fill="none" stroke="#321131" stroke-linecap="round" stroke-linejoin="round" stroke-width="1.5"/>
            <path id="Trazado_1083418" data-name="Trazado 1083418" d="M629.512,158.336c6.931-10.274,20.166-14.493,20.166-14.493s-15.322-11.475-19.1-21.045-2.7-18.346-.746-19.856,27.881,14.071,35.962,18.268" transform="translate(-231.447 -37.898)" fill="none" stroke="#321131" stroke-linecap="round" stroke-linejoin="round" stroke-width="1.5"/>
            <path id="Trazado_1083419" data-name="Trazado 1083419" d="M560,244.5c5.683,8.209,20.207,8.841,20.207,8.841" transform="translate(-206.369 -90.103)" fill="none" stroke="#321131" stroke-linecap="round" stroke-linejoin="round" stroke-width="1.5"/>
            <path id="Trazado_1083420" data-name="Trazado 1083420" d="M677.18,315.7l.014,1.941a5.686,5.686,0,0,0-.014-1.941" transform="translate(-249.552 -116.34)" fill="#724b7b"/>
            <path id="Trazado_1083421" data-name="Trazado 1083421" d="M629.025,342.89c0-.208,0-.407,0-.607l-.176-23.512c-.283,2.218-1.615,6.228-6.816,11.483-8.153,8.238-34.379,21-50,21.251s-17.781.883-20.489-1.329-5.563-7.186-5.563-7.186l.044,22.413a10.386,10.386,0,0,0,0,1.852v.035l0,.008a12.691,12.691,0,0,0,2.805,6.557c10.735,13.893,70.365-.744,77.951-20.961a30.712,30.712,0,0,0,2.235-9.9l.005-.008Z" transform="translate(-201.203 -117.473)" fill="#724b7b"/>
            <path id="Trazado_1083422" data-name="Trazado 1083422" d="M551.685,333.734l.581-7.045s-11.471,8.277-3.433,18.679c10.735,13.893,70.364-.743,77.951-20.961,7.3-19.453-5.517-19.532-5.517-19.532l.532,7.258s5.97,15.554-24.965,25.735c-44.568,14.668-47.444.449-45.148-4.134" transform="translate(-201.201 -112.352)" fill="#724b7b"/>
            <g id="Grupo_1211308" data-name="Grupo 1211308" transform="translate(344.774 192.523)" opacity="0.4" style="mix-blend-mode: screen;isolation: isolate">
              <g id="Grupo_1211307" data-name="Grupo 1211307" transform="translate(0)">
                <g id="Grupo_1211306" data-name="Grupo 1211306" clip-path="url(#clip-path-22)">
                  <path id="Trazado_1083423" data-name="Trazado 1083423" d="M551.685,333.734l.581-7.045s-11.471,8.277-3.433,18.679c10.735,13.893,70.364-.743,77.951-20.961,7.3-19.453-5.517-19.532-5.517-19.532l.532,7.258s5.97,15.554-24.965,25.735c-44.568,14.668-47.444.449-45.148-4.134" transform="translate(-545.975 -304.875)" fill="#724b7b"/>
                </g>
              </g>
            </g>
            <path id="Trazado_1083424" data-name="Trazado 1083424" d="M550.5,356.767c10.735,13.893,70.364-.743,77.951-20.961" transform="translate(-202.868 -123.75)" fill="none" stroke="#321131" stroke-linecap="round" stroke-linejoin="round" stroke-width="1.5"/>
            <path id="Trazado_1083425" data-name="Trazado 1083425" d="M548.8,406.758c-2.07,2.727-9.9,13.648-4.438,15.988,4.257,1.824,16.183-16.091,10.036-18.55C551.355,402.979,548.8,406.758,548.8,406.758Z" transform="translate(-199.906 -148.864)" fill="none" stroke="#321131" stroke-linecap="round" stroke-linejoin="round" stroke-width="1.5"/>
            <path id="Trazado_1083426" data-name="Trazado 1083426" d="M537.3,429.937c-4.257-5.474-20.977,5.025-16.558,13.18C525.14,451.224,543.728,438.2,537.3,429.937Z" transform="translate(-191.632 -157.881)" fill="none" stroke="#321131" stroke-linecap="round" stroke-linejoin="round" stroke-width="1.5"/>
            <path id="Trazado_1083427" data-name="Trazado 1083427" d="M492.047,464.442c-2.749-6.367-20.036-1.536-17.95,7.5C475.922,479.851,496.194,474.048,492.047,464.442Z" transform="translate(-174.648 -170.086)" fill="none" stroke="#321131" stroke-linecap="round" stroke-linejoin="round" stroke-width="1.5"/>
            <path id="Trazado_1083428" data-name="Trazado 1083428" d="M515.38,449.88c-2.91-5.195-18.746,7.3-16.29,11.227C502.13,465.972,518.334,455.152,515.38,449.88Z" transform="translate(-183.828 -165.33)" fill="none" stroke="#321131" stroke-linecap="round" stroke-linejoin="round" stroke-width="1.5"/>
            <path id="Trazado_1083429" data-name="Trazado 1083429" d="M438.563,469.752c0,5.474,22.5,9.123,24.328,3.041s-11.556-7.3-11.556-7.3" transform="translate(-161.618 -171.543)" fill="none" stroke="#321131" stroke-linecap="round" stroke-linejoin="round" stroke-width="1.5"/>
            <path id="Trazado_1083430" data-name="Trazado 1083430" d="M417.374,450.849c6.082-1.824,7.3,4.257,7.3,4.257" transform="translate(-153.809 -166.02)" fill="none" stroke="#321131" stroke-linecap="round" stroke-linejoin="round" stroke-width="1.5"/>
            <path id="Trazado_1083431" data-name="Trazado 1083431" d="M409.348,465.532c-2.881,4.866,4.919,8.5,9.892,3.66" transform="translate(-150.623 -171.557)" fill="none" stroke="#321131" stroke-linecap="round" stroke-linejoin="round" stroke-width="1.5"/>
            <path id="Trazado_1083432" data-name="Trazado 1083432" d="M427.521,475.951c4.866-2.433,4.258-6.082,4.258-6.082" transform="translate(-157.549 -173.155)" fill="none" stroke="#321131" stroke-linecap="round" stroke-linejoin="round" stroke-width="1.5"/>
            <path id="Trazado_1083433" data-name="Trazado 1083433" d="M555.383,387c-2.434,3.649-3.65,11.555,2.432,12.772,7.957,1.591,13.141-10.319,13.141-10.319" transform="translate(-203.933 -142.616)" fill="none" stroke="#321131" stroke-linecap="round" stroke-linejoin="round" stroke-width="1.5"/>
          </g>
        </g>
      </g>
    </g>
  </g>
</svg>
