<svg xmlns="http://www.w3.org/2000/svg" xmlns:xlink="http://www.w3.org/1999/xlink" width="400" height="289" viewBox="0 0 400 289">
  <defs>
    <clipPath id="clip-path">
      <rect id="Rectángulo_419009" data-name="Rectángulo 419009" width="400" height="289" transform="translate(966.589 2060.605)" fill="#fff" stroke="#707070" stroke-width="1" opacity="0.74"/>
    </clipPath>
    <clipPath id="clip-path-2">
      <rect id="Rectángulo_419008" data-name="Rectángulo 419008" width="400" height="351" transform="translate(-35.825 0.329)"/>
    </clipPath>
  </defs>
  <g id="Enmascarar_grupo_1098919" data-name="Enmascarar grupo 1098919" transform="translate(-966.589 -2060.605)" clip-path="url(#clip-path)">
    <g id="Grupo_1211571" data-name="Grupo 1211571" transform="translate(982.414 2006.276)">
      <g id="OBJECTS" transform="translate(0 0)">
        <path id="Trazado_1083638" data-name="Trazado 1083638" d="M111.286,397.61H274.643a134.715,134.715,0,1,0-163.356,0Z" transform="translate(-17.496 -46.303)" fill="#cbd0dc"/>
        <g id="Grupo_1211505" data-name="Grupo 1211505" transform="translate(246.386 106.138)">
          <rect id="Rectángulo_419005" data-name="Rectángulo 419005" width="5.547" height="22.388" transform="translate(32.047 35.626) rotate(45)" fill="#d37739"/>
          <path id="Trazado_1083639" data-name="Trazado 1083639" d="M374.409,226.283l-15.34,15.34a4.76,4.76,0,0,1-6.732-6.733l15.34-15.34Z" transform="translate(-350.942 -171.413)" fill="#682f28"/>
          <path id="Trazado_1083640" data-name="Trazado 1083640" d="M376.542,227.113l-15.316,15.316a4.628,4.628,0,0,1-1.716-1.093,4.758,4.758,0,0,1,0-6.733l12.261-12.261Z" transform="translate(-353.076 -172.244)" fill="#7f3c2f"/>
          <circle id="Elipse_14319" data-name="Elipse 14319" cx="23.826" cy="23.826" r="23.826" transform="translate(23.949)" fill="#ec8a47"/>
          <path id="Trazado_1083641" data-name="Trazado 1083641" d="M424.232,190.234a18.635,18.635,0,1,1,0-26.353A18.494,18.494,0,0,1,424.232,190.234Z" transform="translate(-363.278 -153.231)" fill="#97babf"/>
          <path id="Trazado_1083642" data-name="Trazado 1083642" d="M426.495,190.234a18.5,18.5,0,0,1-5.759,3.917,18.634,18.634,0,0,1-9.5-35.612,18.635,18.635,0,0,1,15.258,31.695Z" transform="translate(-365.54 -153.231)" fill="#b2d1d8"/>
          <path id="Trazado_1083643" data-name="Trazado 1083643" d="M434.1,182.4a3.806,3.806,0,1,1,0-5.382A3.806,3.806,0,0,1,434.1,182.4Z" transform="translate(-373.744 -158.432)" fill="#fff"/>
          <circle id="Elipse_14320" data-name="Elipse 14320" cx="2.37" cy="2.37" r="2.37" transform="translate(54.921 28.943)" fill="#fff"/>
        </g>
        <g id="Grupo_1211509" data-name="Grupo 1211509" transform="translate(28.801 105.87)">
          <g id="Grupo_1211506" data-name="Grupo 1211506">
            <path id="Trazado_1083644" data-name="Trazado 1083644" d="M42.524,192.648l5.039-5.039a1.982,1.982,0,0,1,2.8,0l16.418,16.419a1.982,1.982,0,0,1,0,2.8l-5.039,5.039a4.4,4.4,0,0,1-6.223,0l-13-13A4.4,4.4,0,0,1,42.524,192.648Z" transform="translate(-41.236 -161.472)" fill="#7f3c2f"/>
            <path id="Trazado_1083645" data-name="Trazado 1083645" d="M89.466,151.943l12.992,12.992a4.4,4.4,0,0,1,0,6.223L97.419,176.2a1.982,1.982,0,0,1-2.8,0L78.2,159.778a1.982,1.982,0,0,1,0-2.8l5.032-5.032A4.409,4.409,0,0,1,89.466,151.943Z" transform="translate(-52.058 -150.652)" fill="#7f3c2f"/>
          </g>
          <path id="Trazado_1083646" data-name="Trazado 1083646" d="M129.979,230.947a5.978,5.978,0,1,1-8.446,8.446L82.808,197.327l5.1-5.1,40.277,37.086Z" transform="translate(-53.601 -163.017)" fill="#7f3c2f"/>
          <path id="Trazado_1083647" data-name="Trazado 1083647" d="M129.979,231.962a5.978,5.978,0,1,1-8.446,8.446L82.808,198.342l2.708-2.708,35.993,35.992s3.894,3.584,6.683-1.3Z" transform="translate(-53.601 -164.032)" fill="#682f28"/>
          <rect id="Rectángulo_419006" data-name="Rectángulo 419006" width="24.056" height="21.334" transform="translate(9.795 26.804) rotate(-45)" fill="#b24842"/>
          <rect id="Rectángulo_419007" data-name="Rectángulo 419007" width="24.056" height="9.623" transform="translate(13.935 30.944) rotate(-45)" fill="#d36354"/>
          <g id="Grupo_1211507" data-name="Grupo 1211507" transform="translate(5.683 29.385)">
            <path id="Trazado_1083648" data-name="Trazado 1083648" d="M65.245,207.9,49.926,192.581a.351.351,0,0,0-.5.5L64.748,208.4a.351.351,0,0,0,.5-.5Z" transform="translate(-49.326 -192.478)" fill="#682f28"/>
          </g>
          <g id="Grupo_1211508" data-name="Grupo 1211508" transform="translate(28.869 5.372)">
            <path id="Trazado_1083649" data-name="Trazado 1083649" d="M98.661,174.134,82.928,158.4a.351.351,0,0,0-.5.5l15.733,15.733a.351.351,0,0,0,.5-.5Z" transform="translate(-82.328 -158.298)" fill="#682f28"/>
          </g>
        </g>
        <g id="Grupo_1211520" data-name="Grupo 1211520" transform="translate(45.47 75.286)">
          <path id="Trazado_1083650" data-name="Trazado 1083650" d="M258.661,288.915h-30.04l5.255-147.154h19.53Z" transform="translate(-113.642 -117.423)" fill="#7f3c2f"/>
          <path id="Trazado_1083651" data-name="Trazado 1083651" d="M252.937,288.915H242.75l1.782-147.154h6.622Z" transform="translate(-117.845 -117.423)" fill="#682f28"/>
          <g id="Grupo_1211518" data-name="Grupo 1211518" transform="translate(0 9.303)">
            <g id="Grupo_1211513" data-name="Grupo 1211513">
              <path id="Trazado_1083652" data-name="Trazado 1083652" d="M209.762,146.776l-.351-.07-.323-.063-56.949-11.248c-9.555,15.035-20.782,16.131-29.563,8.389q-1.518-1.338-2.81-2.712c-8.585-9.084-9.372-18.1,4.567-5.677,8.754,7.805,17.142-2.684,19.011-9.007a.3.3,0,0,0,.014-.035,8.5,8.5,0,0,1,8.171-5.993l53.4,3.513,1.131,5.368,2.677,12.667.674,3.2.323,1.532Z" transform="translate(-79.412 -120.36)" fill="#d37739"/>
              <g id="Grupo_1211512" data-name="Grupo 1211512" transform="translate(0 13.993)">
                <g id="Grupo_1211510" data-name="Grupo 1211510" transform="translate(6.054)">
                  <path id="Trazado_1083653" data-name="Trazado 1083653" d="M74.228,217.106l-.649-.268,31.609-76.56,31.52,76.561-.649.268-30.872-74.985Z" transform="translate(-73.579 -140.278)" fill="#ec8a47"/>
                </g>
                <g id="Grupo_1211511" data-name="Grupo 1211511" transform="translate(0 70.19)">
                  <path id="Trazado_1083654" data-name="Trazado 1083654" d="M138.266,250.49l-12.583,14.128a14.885,14.885,0,0,1-1.1,1.11,16.528,16.528,0,0,1-11.262,4.433H94.891a16.546,16.546,0,0,1-12.358-5.543L69.95,250.49h68.316Z" transform="translate(-66.446 -243.25)" fill="#d37739"/>
                  <path id="Trazado_1083655" data-name="Trazado 1083655" d="M124.588,265.728a16.528,16.528,0,0,1-11.262,4.433H94.891a16.546,16.546,0,0,1-12.358-5.543L69.95,250.49H82.94c2.606,5.627,7.5,10.946,12.3,13.341a27.626,27.626,0,0,0,8.9,2.283C110.888,266.979,118.033,267.232,124.588,265.728Z" transform="translate(-66.446 -243.25)" fill="#c16c33"/>
                  <path id="Trazado_1083656" data-name="Trazado 1083656" d="M138.126,240.185h-71a2.161,2.161,0,0,0-2.161,2.161v4.378a2.161,2.161,0,0,0,2.161,2.161h71a2.161,2.161,0,0,0,2.161-2.161v-4.378A2.161,2.161,0,0,0,138.126,240.185Z" transform="translate(-64.962 -240.185)" fill="#ec8a47"/>
                </g>
              </g>
              <circle id="Elipse_14321" data-name="Elipse 14321" cx="8.511" cy="8.511" r="8.511" transform="translate(27.501 21.363) rotate(-77.391)" fill="#d37739"/>
              <circle id="Elipse_14322" data-name="Elipse 14322" cx="3.563" cy="3.563" r="3.563" transform="translate(34.1 11.353)" fill="#ec8a47"/>
            </g>
            <g id="Grupo_1211517" data-name="Grupo 1211517" transform="translate(40.353)">
              <path id="Trazado_1083657" data-name="Trazado 1083657" d="M345.567,131.8c-.745,2.838-3.969,7.658-8.88,11.986-8.782,7.742-20.009,6.646-29.563-8.388l-56.949,11.248-.323.063-.351.07.028-.133.323-1.532.674-3.2L253.2,129.24l1.131-5.368,53.4-3.513a8.507,8.507,0,0,1,8.185,6.028,17.209,17.209,0,0,0,1.152,2.838c0,.007,0,.007.007.014,3.077,6.056,10.328,12.864,17.852,6.154C343.474,127.779,346.487,128.222,345.567,131.8Z" transform="translate(-160.205 -120.36)" fill="#d37739"/>
              <path id="Trazado_1083658" data-name="Trazado 1083658" d="M307.762,136.6c-.745,2.838-3.969,7.658-8.88,11.986-8.782,7.742-20.009,6.646-29.563-8.388l-56.949,11.248.028.133-.351-.07-.351.07.028-.133L154.774,140.2c-9.555,15.035-20.782,16.131-29.563,8.388q-1.518-1.338-2.81-2.712l.871-2.234s5.761,6.864,13.953,6.808,16.643-13.932,16.643-13.932l53.085,10.194H218.72l51.5-10.194s6.569,11.852,17.782,13.524,16.376-13.524,16.376-13.524Z" transform="translate(-122.4 -125.167)" fill="#c16c33"/>
              <path id="Trazado_1083659" data-name="Trazado 1083659" d="M217.552,123.873l1.131,5.368h-8.606s-33.357-3.864-42.715-5.62c-8.866-1.665-11.164,2.311-11.381,2.733a8.5,8.5,0,0,1,8.171-5.993Z" transform="translate(-132.388 -120.36)" fill="#ec8a47"/>
              <path id="Trazado_1083660" data-name="Trazado 1083660" d="M318.639,129.226a14.6,14.6,0,0,0-10.665-6.014l-44.6,6.028H254.77l1.131-5.368,53.4-3.513a8.507,8.507,0,0,1,8.185,6.028A17.211,17.211,0,0,0,318.639,129.226Z" transform="translate(-161.773 -120.36)" fill="#ec8a47"/>
              <g id="Grupo_1211516" data-name="Grupo 1211516" transform="translate(144.32 13.993)">
                <g id="Grupo_1211514" data-name="Grupo 1211514" transform="translate(6.142)">
                  <path id="Trazado_1083661" data-name="Trazado 1083661" d="M399.044,217.106l-30.959-74.985-30.872,74.985-.649-.268,31.519-76.561,31.609,76.56Z" transform="translate(-336.565 -140.278)" fill="#ec8a47"/>
                </g>
                <g id="Grupo_1211515" data-name="Grupo 1211515" transform="translate(0 70.19)">
                  <path id="Trazado_1083662" data-name="Trazado 1083662" d="M401.126,250.49l-12.583,14.128c-.239.267-.485.527-.738.773a16.528,16.528,0,0,1-11.62,4.77H357.751a16.546,16.546,0,0,1-12.358-5.543L332.81,250.49Z" transform="translate(-329.306 -243.25)" fill="#d37739"/>
                  <path id="Trazado_1083663" data-name="Trazado 1083663" d="M387.806,265.391a16.528,16.528,0,0,1-11.62,4.77H357.751a16.546,16.546,0,0,1-12.358-5.543L332.81,250.49h12.969c-.112,1.3.281,2.824,1.356,5.058a20.262,20.262,0,0,0,9.47,9.161c5.838,2.81,12.569,3.19,19.032,2.67A74.241,74.241,0,0,0,387.806,265.391Z" transform="translate(-329.306 -243.25)" fill="#c16c33"/>
                  <path id="Trazado_1083664" data-name="Trazado 1083664" d="M329.983,240.185h71a2.161,2.161,0,0,1,2.161,2.161v4.378a2.161,2.161,0,0,1-2.161,2.161h-71a2.161,2.161,0,0,1-2.161-2.161v-4.378A2.161,2.161,0,0,1,329.983,240.185Z" transform="translate(-327.822 -240.185)" fill="#ec8a47"/>
                </g>
              </g>
              <circle id="Elipse_14323" data-name="Elipse 14323" cx="8.511" cy="8.511" r="8.511" transform="translate(171.55 8.906) rotate(-15.094)" fill="#d37739"/>
              <circle id="Elipse_14324" data-name="Elipse 14324" cx="3.563" cy="3.563" r="3.563" transform="translate(178.42 11.353)" fill="#ec8a47"/>
            </g>
          </g>
          <path id="Trazado_1083665" data-name="Trazado 1083665" d="M272.129,339.914a4.536,4.536,0,0,1-.04.736H195.415a4.529,4.529,0,0,1-.04-.736c0-14.943,17.173-27.029,38.377-27.029S272.129,324.972,272.129,339.914Z" transform="translate(-103.753 -168.323)" fill="#366d89"/>
          <g id="Grupo_1211519" data-name="Grupo 1211519" transform="translate(113.576)">
            <path id="Trazado_1083666" data-name="Trazado 1083666" d="M229.669,149.84h26.755a3.045,3.045,0,0,0,3.045-3.045v-28.16a5.908,5.908,0,0,0-3.128-5.213l-10.514-5.608a5.909,5.909,0,0,0-5.561,0l-10.514,5.608a5.908,5.908,0,0,0-3.128,5.213v28.16A3.045,3.045,0,0,0,229.669,149.84Z" transform="translate(-226.624 -107.119)" fill="#ec8a47"/>
            <path id="Trazado_1083667" data-name="Trazado 1083667" d="M235.2,146.489h19.475a2.217,2.217,0,0,0,2.217-2.217v-20.5a4.3,4.3,0,0,0-2.277-3.794l-7.654-4.082a4.3,4.3,0,0,0-4.047,0l-7.654,4.082a4.3,4.3,0,0,0-2.277,3.794v20.5A2.217,2.217,0,0,0,235.2,146.489Z" transform="translate(-228.516 -109.58)" fill="#d37739"/>
          </g>
          <path id="Trazado_1083668" data-name="Trazado 1083668" d="M271.658,346.1H190.678a3.99,3.99,0,0,0-3.99,3.991v4.874h88.96v-4.874A3.991,3.991,0,0,0,271.658,346.1Z" transform="translate(-101.169 -178.202)" fill="#2a5c70"/>
        </g>
        <g id="Grupo_1211567" data-name="Grupo 1211567" transform="translate(0 0)">
          <g id="Grupo_1211566" data-name="Grupo 1211566" clip-path="url(#clip-path-2)">
            <g id="Grupo_1211531" data-name="Grupo 1211531" transform="translate(50.126 99.609)">
              <path id="Trazado_1083669" data-name="Trazado 1083669" d="M345.894,296.571s20.469,3.907,32.86,47.2,21.883,63.48,21.883,63.48l-35.649,14.932s-41.741-49.562-41.3-81.4S337.457,297.958,345.894,296.571Z" transform="translate(-146.575 -187.794)" fill="#366d89"/>
              <path id="Trazado_1083670" data-name="Trazado 1083670" d="M122.15,299.253s-15.5,4.579-20.8,20.437C96.648,333.778,71.589,410.1,71.589,410.1l49.218,14.813,14.664-66.284S138.58,308.3,122.15,299.253Z" transform="translate(-71.589 -188.592)" fill="#366d89"/>
              <path id="Trazado_1083671" data-name="Trazado 1083671" d="M143.549,292.482c-.685,2.576,20.512,101.662,15.1,137.05,20.94,2.853,40.78,9.125,61.9,8.324,9.913-.376,46.411-1.692,59.328-5.216-1.621-41.958,4.806-100.752,12.434-142.043-12.215-3.972-33.082-8.929-45.676-11.448s-16.916-1.269-29.718-2.307c-9.482-.769-16.5-.4-29.9,2.3C168.455,282.886,143.549,292.482,143.549,292.482Z" transform="translate(-92.989 -181.82)" fill="#366d89"/>
              <path id="Trazado_1083672" data-name="Trazado 1083672" d="M199.178,276.487s-8.225-.911-13.879,26.126a176.462,176.462,0,0,0-3.28,31.642l14.97.913-5.716,12.824s28.573,18.824,40.565,18.1C231.838,366.091,201.948,305.283,199.178,276.487Z" transform="translate(-104.436 -181.819)" fill="#2a5c70"/>
              <path id="Trazado_1083673" data-name="Trazado 1083673" d="M278.354,277.465s9.475-1.6,15.13,25.434a176.462,176.462,0,0,1,3.28,31.642l-14.97.913,5.716,12.824s-22.25,18.824-34.242,18.1C253.268,366.378,275.584,306.262,278.354,277.465Z" transform="translate(-125.629 -182.105)" fill="#2a5c70"/>
              <path id="Trazado_1083674" data-name="Trazado 1083674" d="M250.387,343.332A167.42,167.42,0,0,1,238.795,364.7a59.556,59.556,0,0,1-14.529-14.978c-19.826-28.685-18.849-71.97-18.849-71.97,29.851-13.4,59.619.007,59.619.007C266.307,302.6,257.982,326.8,250.387,343.332Z" transform="translate(-111.393 -180.424)" fill="#c6c6c6"/>
              <path id="Trazado_1083675" data-name="Trazado 1083675" d="M258.371,353.046a167.414,167.414,0,0,1-11.592,21.365,59.556,59.556,0,0,1-14.529-14.978l5.873-40.038-5.227-8.712,11.381-6.232,13.356,5.213-5.234,9.885Z" transform="translate(-119.377 -190.137)" fill="#ec8a47"/>
              <path id="Trazado_1083676" data-name="Trazado 1083676" d="M261.281,262.7s0,9.945-12,11.877l-9.958,7.693L228.7,276.325c-13.1-2.658-13.1-13.622-13.1-13.622.5-.426,1.112-5.781,1.678-12.042.846-9.365,1.586-20.775,1.672-20.775,10.291,4,27.649,4.489,38.626,3.41.126,3.177.792,10.571,1.559,17.151C259.889,256.863,260.735,262.5,261.281,262.7Z" transform="translate(-114.425 -167.959)" fill="#f0aca1"/>
              <path id="Trazado_1083677" data-name="Trazado 1083677" d="M259.847,250.449c-4.5,6.008-11.676,14.227-20.789,13.861-9.451-.373-16.712-8.3-21.068-13.648.846-9.365,1.586-20.775,1.672-20.775,10.291,4,27.649,4.489,38.626,3.41C258.415,236.474,259.081,243.867,259.847,250.449Z" transform="translate(-115.136 -167.959)" fill="#e09890"/>
              <path id="Trazado_1083678" data-name="Trazado 1083678" d="M213.836,265.112s-5.83,2.192-8.411,10.279c0,0,.363,20.357,16.928,31.938L236.3,292.383l16.795,14.31s12.721-22,11.95-31.3c0,0-7.038-14.042-8.47-11.12-9.158,18.689-20.275,28.106-20.275,28.106S218.946,281.309,213.836,265.112Z" transform="translate(-111.398 -178.069)" fill="#fff"/>
              <path id="Trazado_1083679" data-name="Trazado 1083679" d="M260.383,166.1c-11.848-8.332-28.31-7.1-42.929-4.717-2.826.46-5.732.98-8.124,2.456-4.734,2.921-6.235,8.825-5.975,14.113.341,6.933,1.9,20.183,3.237,29.964a67.881,67.881,0,0,0,2.8,12.453c.739,1.513,7.9,14.808,24.58,15.968,14.419,1,22.9-13.856,24.872-15.439,4.247-3.4,4.043-34.519,4.472-44.55C263.4,174.426,262.106,167.315,260.383,166.1Z" transform="translate(-110.774 -147.057)" fill="#f0aca1"/>
              <path id="Trazado_1083680" data-name="Trazado 1083680" d="M282.023,174.995s-.459,20.536-.451,25.907H287.4s3.125-3.877,3.617-11.42c.245-3.757,1.315-10.548.826-14.654a16.8,16.8,0,0,0-4.443-10.05C283.667,160.583,282.284,164.274,282.023,174.995Z" transform="translate(-134.048 -148.09)" fill="#6d253a"/>
              <path id="Trazado_1083681" data-name="Trazado 1083681" d="M277.546,170.363c-.979,3.817-4.543,6.527-8.326,7.607s-10.471.813-14.394.54a10.274,10.274,0,0,1-4.989-1.213c-4.323-2.811-2.637-10.371-6.721-13.521-3.071-2.371-7.587-.833-10.744,1.412-8.619,6.128-16.279,5.549-20.975,1.985a12.131,12.131,0,0,1-4.689-11.783c.806-4.609,4.33-9.285,11.51-12.262a17.129,17.129,0,0,1,15.127.779c1.825,1.092,3.67,2.638,5.775,2.338,1.519-.22,2.711-1.372,4.023-2.165,4.849-2.911,13.821-1.945,18.59,1.085,4.09,2.591,8,7.373,8.733,12.156.386,2.5-.14,5.076.04,7.58a10.22,10.22,0,0,0,.247,1.672C271.451,169.583,274.316,170.722,277.546,170.363Z" transform="translate(-111.727 -141.74)" fill="#6d253a"/>
              <path id="Trazado_1083682" data-name="Trazado 1083682" d="M208.06,172.9l-.006.007c-4.862,5.109-.247,18.77-.606,27.376,0,0-5.036,1.259-7.453-1.879-2.478-3.224-3.99-12.389-4.5-18.777-.133-1.685-.193-3.177-.186-4.316a61.406,61.406,0,0,1,1.192-7.44c1.272-5.781,4.143-7.367,6.867-6.754,2.758.613,5.369,3.477,6.035,6.521A5.643,5.643,0,0,1,208.06,172.9Z" transform="translate(-108.39 -147.466)" fill="#6d253a"/>
              <path id="Trazado_1083683" data-name="Trazado 1083683" d="M203.647,215.793s-.13-14.452-9.647-11.3c-6.634,2.2-.834,16.256,1.537,18.094S205.433,227.223,203.647,215.793Z" transform="translate(-107.084 -160.272)" fill="#f0aca1"/>
              <circle id="Elipse_14325" data-name="Elipse 14325" cx="2.412" cy="2.412" r="2.412" transform="translate(111.105 47.211)" fill="#6d253a"/>
              <circle id="Elipse_14326" data-name="Elipse 14326" cx="2.412" cy="2.412" r="2.412" transform="translate(130.609 47.211)" fill="#6d253a"/>
              <g id="Grupo_1211521" data-name="Grupo 1211521" transform="translate(119.862 47.08)">
                <path id="Trazado_1083684" data-name="Trazado 1083684" d="M244.855,209.392c1.711.738,2.939,3.466,3.72,5.042,1.03,2.078.881,4.144.926,6.421.024,1.209.044,2.418.041,3.627a7.487,7.487,0,0,1-.049,2.245c-.325.394-2.107.445-2.63.488a7.056,7.056,0,0,1-4.139-.628.351.351,0,0,0-.355.606,7.1,7.1,0,0,0,3.866.759,8.272,8.272,0,0,0,3.443-.546c1.176-.712.568-3.837.552-4.989-.034-2.515.312-5.332-.735-7.677-.824-1.846-2.278-5.089-4.286-5.956-.41-.176-.768.429-.353.608Z" transform="translate(-242.198 -208.753)" fill="#bc6561"/>
              </g>
              <g id="Grupo_1211522" data-name="Grupo 1211522" transform="translate(116.198 71.318)">
                <path id="Trazado_1083685" data-name="Trazado 1083685" d="M237.234,243.939a36.44,36.44,0,0,0,14.3.365c.445-.077.256-.754-.187-.677a35.5,35.5,0,0,1-13.93-.365c-.441-.1-.629.578-.187.677Z" transform="translate(-236.982 -243.252)" fill="#bc6561"/>
              </g>
              <g id="Grupo_1211523" data-name="Grupo 1211523" transform="translate(120.992 75.526)">
                <path id="Trazado_1083686" data-name="Trazado 1083686" d="M244.245,250.363a17.237,17.237,0,0,1,5.16-.363c.451.035.448-.667,0-.7a17.854,17.854,0,0,0-5.347.389c-.441.1-.254.776.187.677Z" transform="translate(-243.807 -249.242)" fill="#bc6561"/>
              </g>
              <path id="Trazado_1083687" data-name="Trazado 1083687" d="M218.427,204.444s8.477-4.2,14.54-1.212c0,0,1.921-1.1.558-3.7,0,0-5.851-3.594-15.1,1.851Z" transform="translate(-115.266 -158.583)" fill="#6d253a"/>
              <path id="Trazado_1083688" data-name="Trazado 1083688" d="M268.515,204.444s-8.477-4.2-14.54-1.212c0,0-1.921-1.1-.558-3.7,0,0,5.851-3.594,15.1,1.851Z" transform="translate(-125.528 -158.583)" fill="#6d253a"/>
              <g id="Grupo_1211524" data-name="Grupo 1211524" transform="translate(86.564 47.141)">
                <path id="Trazado_1083689" data-name="Trazado 1083689" d="M200.162,210.276c-.958-.92-2.741-1.842-4.111-1.249-1.244.539-1.267,3.519-1.244,4.734.072,3.805,2.314,7.389,6.158,8.263.44.1.628-.577.187-.677a7.248,7.248,0,0,1-5.381-5.505,10.553,10.553,0,0,1,.039-4.808c.483-2.143,2.627-1.442,3.856-.261.326.313.823-.183.5-.5Z" transform="translate(-194.803 -208.839)" fill="#bc6561"/>
              </g>
              <path id="Trazado_1083690" data-name="Trazado 1083690" d="M285.379,215.793s.13-14.452,9.647-11.3c6.634,2.2.834,16.256-1.537,18.094S283.593,227.223,285.379,215.793Z" transform="translate(-135.099 -160.272)" fill="#f0aca1"/>
              <g id="Grupo_1211525" data-name="Grupo 1211525" transform="translate(153.678 47.092)">
                <path id="Trazado_1083691" data-name="Trazado 1083691" d="M292.069,210.752A3.9,3.9,0,0,1,294,209.668c1.152-.238,1.433.187,1.857,1.036.655,1.313.433,3.775.11,5.117a7.246,7.246,0,0,1-5.381,5.505c-.441.1-.254.778.187.677,3.827-.87,6.108-4.461,6.158-8.263.015-1.107-.013-4.028-1.007-4.679-1.284-.84-3.442.324-4.347,1.194-.327.315.17.811.5.5Z" transform="translate(-290.332 -208.77)" fill="#bc6561"/>
              </g>
              <path id="Trazado_1083692" data-name="Trazado 1083692" d="M225.1,222.291A3.291,3.291,0,1,1,221.807,219,3.291,3.291,0,0,1,225.1,222.291Z" transform="translate(-115.292 -164.721)" fill="#e5948c"/>
              <path id="Trazado_1083693" data-name="Trazado 1083693" d="M273.562,222.291A3.291,3.291,0,1,1,270.271,219,3.291,3.291,0,0,1,273.562,222.291Z" transform="translate(-129.707 -164.721)" fill="#e5948c"/>
              <g id="Grupo_1211526" data-name="Grupo 1211526" transform="translate(95.766 62.15)">
                <path id="Trazado_1083694" data-name="Trazado 1083694" d="M207.9,230.454c.674,5.7,1.754,11.319,5.8,15.649a40.262,40.262,0,0,0,6,5.59,36.727,36.727,0,0,0,7.879,4.08,24,24,0,0,0,8.965,1.975,23.67,23.67,0,0,0,8.521-2.136c4.165-1.773,8.184-5.19,11.338-8.411a23.75,23.75,0,0,0,7.05-16.4.264.264,0,0,0-.527,0c-.205,10.09-7.129,17.722-15.281,22.89a25.407,25.407,0,0,1-8.535,3.2,17.909,17.909,0,0,1-9.046-.805,33.247,33.247,0,0,1-13.94-8.232,23.8,23.8,0,0,1-5.46-7.341,36.9,36.9,0,0,1-2.232-10.063c-.039-.333-.566-.337-.526,0Z" transform="translate(-207.9 -230.203)" fill="#c6817b"/>
              </g>
              <path id="Trazado_1083695" data-name="Trazado 1083695" d="M255.479,158.98a6.91,6.91,0,0,0,1.665,4.869c-3.883.027-5.222-5.062-7.82-7.947-3.417-3.783-9.285-3.67-14.374-3.257a16.876,16.876,0,0,0,7.9,4.316c-6.921,2.172-13.155-5.271-20.349-6.194-11.257-1.446-11.3,5.371-13.444,5.971,2.937,1.332,3.519,5.173.348,5.173a9.726,9.726,0,0,0-.979.046,8.422,8.422,0,0,0-3.75,1.312c-1.892,1.206-2.358,9.555-2.238,11.766-.313-1.305-1.512-9.042-1.825-10.354-2,2.025-3.117,6.987-5.115,9.219-.133-1.685-.193-3.177-.186-4.316a61.412,61.412,0,0,1,1.192-7.44c1.272-5.781,4.143-7.367,6.867-6.754.806-4.609,4.33-9.285,11.51-12.262a17.129,17.129,0,0,1,15.127.779c1.825,1.092,3.67,2.638,5.775,2.338,1.519-.22,2.711-1.372,4.024-2.165,4.849-2.911,13.821-1.945,18.59,1.085,4.09,2.591,8,7.373,8.733,12.156.386,2.5-.14,5.076.04,7.58C262.765,164.509,258.982,161.691,255.479,158.98Z" transform="translate(-108.389 -141.74)" fill="#8e354a"/>
              <g id="Grupo_1211527" data-name="Grupo 1211527" transform="translate(145.702 85.822)">
                <path id="Trazado_1083696" data-name="Trazado 1083696" d="M279.1,264.482c3.513,2.932,5.7,6.973,7.52,11.1.182.412.788.056.606-.355-1.846-4.179-4.073-8.273-7.63-11.242-.344-.287-.844.207-.5.5Z" transform="translate(-278.979 -263.898)" fill="#c6c6c6"/>
              </g>
              <g id="Grupo_1211528" data-name="Grupo 1211528" transform="translate(93.678 86.681)">
                <path id="Trazado_1083697" data-name="Trazado 1083697" d="M205.616,275.854c.943-4.371,3.863-8.476,8.166-10.034.422-.152.24-.832-.187-.677-4.534,1.641-7.659,5.9-8.657,10.524-.095.441.582.629.678.187Z" transform="translate(-204.929 -265.12)" fill="#c6c6c6"/>
              </g>
              <g id="Grupo_1211529" data-name="Grupo 1211529" transform="translate(77.231 94.313)">
                <path id="Trazado_1083698" data-name="Trazado 1083698" d="M198.221,276c-6.28,1.61-8.979,10.219-10.657,15.614a127.109,127.109,0,0,0-4.508,20.726c-.962,7.211-1.29,14.5-1.536,21.769a.357.357,0,0,0,.351.351c4.951.3,9.964.141,14.877.9l-.245-.432a116.943,116.943,0,0,1-5.681,12.74.359.359,0,0,0,.126.481c12.656,8.1,25.782,15.89,40.887,18.136.442.066.633-.611.187-.677-15.047-2.236-28.113-9.994-40.719-18.065q.063.24.126.48a118.335,118.335,0,0,0,5.752-12.908.352.352,0,0,0-.245-.432,72.36,72.36,0,0,0-8.726-.655,32.375,32.375,0,0,1-4.985-.192c-.523-.1-.634.136-.977-.419a6.26,6.26,0,0,1,.05-1.381q.058-1.542.128-3.083a148.858,148.858,0,0,1,1.98-20.673c1.405-7.486,2.885-15.141,5.9-22.17,1.565-3.647,3.909-8.358,8.1-9.432a.352.352,0,0,0-.187-.678Z" transform="translate(-181.519 -275.983)" fill="#204651"/>
              </g>
              <g id="Grupo_1211530" data-name="Grupo 1211530" transform="translate(127.062 94.997)">
                <path id="Trazado_1083699" data-name="Trazado 1083699" d="M252.786,366.584a22.821,22.821,0,0,0,7.314-1.839,100.183,100.183,0,0,0,10.183-4.5,103.736,103.736,0,0,0,10.181-5.782,27.581,27.581,0,0,0,6.434-5.188c.212-.26.665-.707.707-1.049.105-.836-1.107-2.311-1.471-3.116a87.51,87.51,0,0,1-3.3-9.555L282.5,336l14.309-1.293a.36.36,0,0,0,.351-.351,129.151,129.151,0,0,0-2.49-27.324c-1.571-8.3-3.624-17.376-8.381-24.509-1.67-2.5-3.94-4.994-7.035-5.559-.442-.081-.632.6-.187.677,3.289.6,5.567,3.47,7.209,6.172a52.059,52.059,0,0,1,5.125,12.467,132.482,132.482,0,0,1,4.96,30.756q.093,1.912.12,3.827.012.9.006,1.793a3.982,3.982,0,0,1-.008.692c-.149.7.163.352-.353.719-.566.4-2.717.245-3.407.308l-3.066.277-7.154.646a.356.356,0,0,0-.339.445c.773,2.421,1.456,4.875,2.351,7.255.384,1.022.806,2.028,1.272,3.015a14.509,14.509,0,0,1,.859,1.705c.157.5.192.375-.053.823a9.783,9.783,0,0,1-2.4,2.375,43.549,43.549,0,0,1-3.77,2.74,103.718,103.718,0,0,1-19.332,9.966c-2.584,1.01-5.478,2.217-8.3,2.259a.352.352,0,0,0,0,.7Z" transform="translate(-252.447 -276.956)" fill="#204651"/>
              </g>
            </g>
            <g id="Grupo_1211532" data-name="Grupo 1211532" transform="translate(256.557 271.057)">
              <path id="Trazado_1083700" data-name="Trazado 1083700" d="M425.923,438.874c-1.78,3.889-12.872,20.359-37.78,8.115-6.075-2.986-10.922-8.236-14.632-13.9-5.493-8.381-6.847-18.732-7.9-28.7a14.485,14.485,0,0,1,.118-5.41c1.173-4.195,5.653-6.4,9.666-8.088a68.769,68.769,0,0,1,13.069-4.505c12.158-2.434,25.649,2.5,33.732,11.9C430.395,407.813,431.165,427.417,425.923,438.874Z" transform="translate(-365.419 -385.774)" fill="#366d89"/>
              <path id="Trazado_1083701" data-name="Trazado 1083701" d="M438.759,435.1c-3.847,20.473-20.243,13.283-21.752,9.253-2.061-5.5-3.632-11.312-3.346-17.181s2.64-11.842,7.257-15.475c4.768-3.752,10.736-12.007,14.843-6.572C440.332,411.179,439.987,428.571,438.759,435.1Z" transform="translate(-379.758 -390.996)" fill="#fff"/>
              <path id="Trazado_1083702" data-name="Trazado 1083702" d="M437.957,419.958s2.73,21.578-6.605,26.32-16.112-9.487-16.112-9.487,1.356-25.073,9.487-24.395S437.957,419.958,437.957,419.958Z" transform="translate(-380.238 -393.689)" fill="#e09890"/>
            </g>
            <g id="Grupo_1211533" data-name="Grupo 1211533" transform="translate(31.655 271.057)">
              <path id="Trazado_1083703" data-name="Trazado 1083703" d="M47.52,438.874c.951,4.17,5.112,9.821,8.915,11.778,10.3,5.3,24-.277,28.865-3.663,5.556-3.865,10.922-8.236,14.632-13.9,5.493-8.381,6.847-18.732,7.9-28.7a14.484,14.484,0,0,0-.118-5.41c-1.173-4.195-5.653-6.4-9.666-8.088a68.769,68.769,0,0,0-13.069-4.505c-12.158-2.434-25.649,2.5-33.732,11.9C43.048,407.813,44.909,427.431,47.52,438.874Z" transform="translate(-45.298 -385.774)" fill="#366d89"/>
              <path id="Trazado_1083704" data-name="Trazado 1083704" d="M50.277,435.1c1.138,6.463,2.814,11.5,8.947,13.832,6.312,2.4,11.3-.549,12.805-4.579,2.061-5.5,3.632-11.312,3.346-17.181s-2.64-11.842-7.257-15.475c-4.768-3.752-10.736-12.007-14.843-6.572C48.7,411.179,49.125,428.557,50.277,435.1Z" transform="translate(-46.552 -390.996)" fill="#fff"/>
              <path id="Trazado_1083705" data-name="Trazado 1083705" d="M52.268,419.958s-2.73,21.578,6.605,26.32,16.112-9.487,16.112-9.487S73.629,411.719,65.5,412.4,52.268,419.958,52.268,419.958Z" transform="translate(-47.261 -393.689)" fill="#e09890"/>
            </g>
            <path id="Trazado_1083706" data-name="Trazado 1083706" d="M76.7,312.583s-1.355-.691,10.842-8.426l2.76.515v-2.8l14.988-6.01s56.808,4.184,93.61,31c0,0,34.687-26.821,97.353-29.828l8.053,5.482v2.016L289.03,306.61l18.07-2.453,13.553,8.426L198.9,345.006Z" transform="translate(-22.971 -87.974)" fill="#fff"/>
            <g id="Grupo_1211540" data-name="Grupo 1211540" transform="translate(59.367 207.708)">
              <g id="Grupo_1211536" data-name="Grupo 1211536">
                <g id="Grupo_1211534" data-name="Grupo 1211534" transform="translate(7.788)">
                  <path id="Trazado_1083707" data-name="Trazado 1083707" d="M96.1,301.948a148.513,148.513,0,0,1,14.946-5.993c.211-.075.12-.415-.093-.339a149.106,149.106,0,0,0-15.03,6.029c-.2.1-.025.4.177.3Z" transform="translate(-95.829 -295.605)" fill="#c6c6c6"/>
                </g>
                <g id="Grupo_1211535" data-name="Grupo 1211535" transform="translate(0 8.299)">
                  <path id="Trazado_1083708" data-name="Trazado 1083708" d="M85.048,311.085a29.083,29.083,0,0,1,4.991-3.339.176.176,0,0,0-.177-.3,29.4,29.4,0,0,0-5.062,3.394c-.169.151.08.4.248.249Z" transform="translate(-84.744 -307.418)" fill="#c6c6c6"/>
                </g>
              </g>
              <g id="Grupo_1211539" data-name="Grupo 1211539" transform="translate(5.033 6.014)">
                <g id="Grupo_1211537" data-name="Grupo 1211537" transform="translate(2.763)">
                  <path id="Trazado_1083709" data-name="Trazado 1083709" d="M95.964,304.512c10.376,2.831,21.244,4.263,31.363,7.981.213.078.3-.261.093-.339-10.117-3.718-20.987-5.15-31.363-7.981a.176.176,0,0,0-.093.339Z" transform="translate(-95.84 -304.166)" fill="#c6c6c6"/>
                </g>
                <g id="Grupo_1211538" data-name="Grupo 1211538" transform="translate(0 2.289)">
                  <path id="Trazado_1083710" data-name="Trazado 1083710" d="M92.035,307.766c9.706,1.6,19.418,3.174,29.117,4.817,1.667.282,3.35.526,5,.879.221.047.315-.292.093-.339-9.836-2.1-19.912-3.365-29.836-4.993q-2.143-.352-4.286-.7c-.221-.037-.317.3-.093.339Z" transform="translate(-91.908 -307.424)" fill="#c6c6c6"/>
                </g>
              </g>
            </g>
            <g id="Grupo_1211546" data-name="Grupo 1211546" transform="translate(263.851 208.887)">
              <g id="Grupo_1211544" data-name="Grupo 1211544">
                <g id="Grupo_1211541" data-name="Grupo 1211541" transform="translate(9.263)">
                  <path id="Trazado_1083711" data-name="Trazado 1083711" d="M389.07,297.612c2.789,1.678,5.323,3.717,8.053,5.482.19.123.367-.181.177-.3-2.729-1.766-5.264-3.8-8.053-5.482a.176.176,0,0,0-.177.3Z" transform="translate(-388.986 -297.283)" fill="#c6c6c6"/>
                </g>
                <g id="Grupo_1211542" data-name="Grupo 1211542" transform="translate(0 7.12)">
                  <path id="Trazado_1083712" data-name="Trazado 1083712" d="M376.021,310.487c6.586-1.441,13.372-1.93,20.058-2.717.222-.026.224-.378,0-.351-6.715.79-13.535,1.282-20.151,2.729-.221.048-.127.387.093.339Z" transform="translate(-375.802 -307.417)" fill="#c6c6c6"/>
                </g>
                <g id="Grupo_1211543" data-name="Grupo 1211543" transform="translate(20.106 7.118)">
                  <path id="Trazado_1083713" data-name="Trazado 1083713" d="M404.5,307.745c2.26,1.4,4.578,2.736,6.787,4.22.188.126.364-.178.177-.3-2.209-1.484-4.527-2.816-6.787-4.22-.193-.119-.369.185-.177.3Z" transform="translate(-404.42 -307.414)" fill="#c6c6c6"/>
                </g>
              </g>
              <g id="Grupo_1211545" data-name="Grupo 1211545" transform="translate(0.007 5.484)">
                <path id="Trazado_1083714" data-name="Trazado 1083714" d="M376.024,309.794a74.332,74.332,0,0,1,8.108-2.1c3.069-.75,6.151-1.459,9.208-2.259a.176.176,0,0,0-.093-.339c-3.057.8-6.138,1.509-9.208,2.259a74.181,74.181,0,0,0-8.108,2.1c-.21.077-.119.417.093.339Z" transform="translate(-375.811 -305.089)" fill="#c6c6c6"/>
              </g>
            </g>
            <path id="Trazado_1083715" data-name="Trazado 1083715" d="M68.453,313.52,72,311.161l111.935,17.706s10.88,8.447,25.168,0l110.46-16.879,4.907,1.532L209.107,340.127l-25.125,1.167Z" transform="translate(-20.531 -92.524)" fill="#8e354a"/>
            <g id="Grupo_1211549" data-name="Grupo 1211549" transform="translate(47.922 220.996)">
              <path id="Trazado_1083716" data-name="Trazado 1083716" d="M68.453,314.519l10.835,135.9L186.1,470.566l-2.28-138.15Z" transform="translate(-68.453 -314.519)" fill="#b5475c"/>
              <path id="Trazado_1083717" data-name="Trazado 1083717" d="M383.059,314.519l-10.836,135.9L265.412,470.566l2.28-138.15Z" transform="translate(-127.038 -314.519)" fill="#b5475c"/>
              <g id="Grupo_1211547" data-name="Grupo 1211547" transform="translate(6.39 6.884)">
                <path id="Trazado_1083718" data-name="Trazado 1083718" d="M183.041,465.906l-.42-.075-95.18-16.988-.022-.271-9.87-124.255.438.067,102.928,15.7,0,.3ZM88.1,448.246l94.226,16.818-2.1-124.376L78.32,325.147Z" transform="translate(-77.549 -324.318)" fill="#8e354a"/>
              </g>
              <g id="Grupo_1211548" data-name="Grupo 1211548" transform="translate(144.655 6.885)">
                <path id="Trazado_1083719" data-name="Trazado 1083719" d="M274.352,465.907l.007-.427,2.118-125.4.294-.044,103.074-15.721-.036.443-9.857,124.082-.267.047Zm2.818-125.217-2.1,124.376,94.226-16.818,9.779-123.1Z" transform="translate(-274.352 -324.319)" fill="#8e354a"/>
              </g>
              <path id="Trazado_1083720" data-name="Trazado 1083720" d="M232.663,339.993s9.95,9.229,25.288,0l-2.28,138.15s-12.319,8.131-20.728,0Z" transform="translate(-117.297 -322.096)" fill="#8e354a"/>
            </g>
            <g id="Grupo_1211550" data-name="Grupo 1211550" transform="translate(82.748 210.372)">
              <path id="Trazado_1083721" data-name="Trazado 1083721" d="M118.277,300.08c26.663,4.829,53.274,11.169,77.775,23.042.405.2.762-.41.355-.606-24.558-11.9-51.217-18.271-77.943-23.113-.443-.081-.632.6-.187.677Z" transform="translate(-118.023 -299.396)" fill="#e3e7e8"/>
            </g>
            <g id="Grupo_1211551" data-name="Grupo 1211551" transform="translate(75.641 212.929)">
              <path id="Trazado_1083722" data-name="Trazado 1083722" d="M108.16,303.721c17.848,3.623,35.711,7.57,53.12,12.958,4.9,1.515,9.758,3.161,14.5,5.124.417.173.6-.507.187-.677a217.292,217.292,0,0,0-27.144-8.75c-9.392-2.512-18.862-4.73-28.362-6.792q-6.046-1.313-12.109-2.54c-.441-.09-.63.587-.187.677Z" transform="translate(-107.907 -303.036)" fill="#e3e7e8"/>
            </g>
            <g id="Grupo_1211552" data-name="Grupo 1211552" transform="translate(189.629 212.806)">
              <path id="Trazado_1083723" data-name="Trazado 1083723" d="M270.69,323.821c17.135-8.228,34.9-14.806,53.7-17.995a184.135,184.135,0,0,1,20.451-2.262c.45-.025.452-.728,0-.7a183.578,183.578,0,0,0-61.175,14.305c-4.5,1.9-8.929,3.936-13.327,6.047-.407.2-.051.8.355.607Z" transform="translate(-270.155 -302.861)" fill="#e3e7e8"/>
            </g>
            <g id="Grupo_1211553" data-name="Grupo 1211553" transform="translate(213.551 218.628)">
              <path id="Trazado_1083724" data-name="Trazado 1083724" d="M304.628,324.217c3.066-1.2,6.013-2.684,9.094-3.862a130.06,130.06,0,0,1,19.8-5.7c5.869-1.23,11.8-2.129,17.759-2.8.444-.051.449-.753,0-.7-14.556,1.651-29.091,4.621-42.568,10.506-1.423.622-2.822,1.315-4.268,1.882-.416.164-.235.843.187.678Z" transform="translate(-304.206 -311.148)" fill="#e3e7e8"/>
            </g>
            <g id="Grupo_1211559" data-name="Grupo 1211559" transform="translate(274.129 265.524)">
              <path id="Trazado_1083725" data-name="Trazado 1083725" d="M408.777,389.58c-3.683.113-7.208,1.436-10.654,2.743l-5.942,2.254a2.8,2.8,0,0,0-1.565,1.058c-.774,1.384,1.044,2.745,2.529,3.3-3.235,1.043-2.713,5.1,0,5.1,3.063.6,8.014-.6,11.076,0,3.128.61,4.871,3.6,7.7,5.218-4.428-.169-8.641-.736-12.286,1.784-1.517,1.048-5.108,3.947-5.354,5.774s1.517,1.39,3.356,1.257A8.484,8.484,0,0,0,401,416.879c3.172-2.108,5.524.712,9.3,1.225a52,52,0,0,0,5.03,11.518c.766,1.3,1.705,2.655,3.147,3.09a5.063,5.063,0,0,0,4.222-1.041c4.637-3.251,6-9.417,6.863-15.014.537-3.474.59-3.468,1.021-6.957.19-1.537-3.275-14.382-4.146-15.638l-9.409-13.556a4.686,4.686,0,0,0-4.731-2.6c-3-.131-6.009,1.77-9.013,1.64a43.964,43.964,0,0,0-6.443.478c-.957,2.616,2.115,5.062,4.89,5.306s5.639-.65,8.321.1a16.744,16.744,0,0,1,4.1,4.8C411.86,388.819,411.5,389.5,408.777,389.58Z" transform="translate(-390.431 -377.899)" fill="#f0aca1"/>
              <g id="Grupo_1211554" data-name="Grupo 1211554" transform="translate(2.454 18.608)">
                <path id="Trazado_1083726" data-name="Trazado 1083726" d="M416.8,407.6c-2.078-.532-3.749-1.847-5.7-2.667a8.4,8.4,0,0,0-5.507-.174c-3.786.836-7.7.939-11.48,1.8-.33.075-.19.583.14.508,3.518-.8,7.145-.948,10.683-1.633,2.438-.471,4.327-.84,6.666.317a26.374,26.374,0,0,0,5.058,2.359.264.264,0,0,0,.141-.509Z" transform="translate(-393.925 -404.385)" fill="#bc6561"/>
              </g>
              <g id="Grupo_1211555" data-name="Grupo 1211555" transform="translate(21.228 31.098)">
                <path id="Trazado_1083727" data-name="Trazado 1083727" d="M420.781,422.648c1.241.624,2.524,1.16,3.766,1.784.3.152.569-.3.266-.455-1.241-.624-2.524-1.16-3.766-1.784-.3-.152-.57.3-.266.455Z" transform="translate(-420.648 -422.162)" fill="#bc6561"/>
              </g>
              <g id="Grupo_1211556" data-name="Grupo 1211556" transform="translate(23.463 12.065)">
                <path id="Trazado_1083728" data-name="Trazado 1083728" d="M423.948,395.572c1.617,1.067,3.294,2.04,4.911,3.107.284.188.548-.269.266-.455-1.617-1.067-3.294-2.04-4.912-3.107-.283-.187-.547.269-.266.455Z" transform="translate(-423.828 -395.072)" fill="#bc6561"/>
              </g>
              <g id="Grupo_1211557" data-name="Grupo 1211557" transform="translate(28.359 18.865)">
                <path id="Trazado_1083729" data-name="Trazado 1083729" d="M432.849,405.276c2.034.737.006,3.076-.471,4.053a3.449,3.449,0,0,0-.347,2.2c.172,1.15.735,2.1.723,3.306a5.468,5.468,0,0,1-1.874,4c-.25.23.124.6.372.372a6.03,6.03,0,0,0,1.964-3.556,5.849,5.849,0,0,0,.017-1.639c-.129-.974-.81-2.063-.743-3.048.11-1.614,3.444-5.134.5-6.2-.32-.116-.457.393-.141.508Z" transform="translate(-430.797 -404.751)" fill="#bc6561"/>
              </g>
              <g id="Grupo_1211558" data-name="Grupo 1211558" transform="translate(19.559 40.527)">
                <path id="Trazado_1083730" data-name="Trazado 1083730" d="M418.29,435.9c1.029,2.642,2,5.315,3.1,7.928a13.7,13.7,0,0,0,3.245,4.992c.249.229.623-.143.372-.372a14.882,14.882,0,0,1-3.515-5.759c-.92-2.3-1.8-4.619-2.7-6.928-.122-.313-.632-.177-.508.14Z" transform="translate(-418.271 -435.584)" fill="#bc6561"/>
              </g>
            </g>
            <g id="Grupo_1211565" data-name="Grupo 1211565" transform="translate(36.654 265.521)">
              <path id="Trazado_1083731" data-name="Trazado 1083731" d="M74.223,389.578c3.683.113,7.208,1.436,10.654,2.743l5.942,2.254a2.8,2.8,0,0,1,1.565,1.058c.774,1.384-1.044,2.745-2.528,3.3,1.594,1.626,1.55,4.729-1.163,4.729a34.678,34.678,0,0,1-9.914.847c-3.18-.223-4.576,4.134-7.7,4.744,4.428-.169,9.261-1.868,11.253-1.017,1.7.725,7.529,1.782,9.421,3.157,1.492,1.083-1.893,4.749-9.421,2.265-.633-.209-5.847,3.931-9.621,4.444-.835,2.708-1.5,6.332-3.634,9.95a9.771,9.771,0,0,1-4.576,3.232,6.019,6.019,0,0,1-5.243-.455c-4.442-2.489-4.944-8.577-5.809-14.173-.537-3.474-.59-3.468-1.021-6.957-.19-1.537,3.275-14.382,4.146-15.638,3.946-5.686,13.181-16.115,14.139-16.157,3-.131,6.066,1.043,9.013,1.64a21.5,21.5,0,0,1,7.4,3.095c-.01,4.2-3.073,2.446-5.848,2.69s-5.639-.65-8.321.1a16.744,16.744,0,0,0-4.1,4.8C71.14,388.818,71.5,389.495,74.223,389.578Z" transform="translate(-52.414 -377.895)" fill="#f0aca1"/>
              <g id="Grupo_1211560" data-name="Grupo 1211560" transform="translate(13.728 18.604)">
                <path id="Trazado_1083732" data-name="Trazado 1083732" d="M72.281,409.506a15.926,15.926,0,0,0,4.792-2.709,12.231,12.231,0,0,1,3.07-1.732,7.042,7.042,0,0,1,3.786.159c3.85.847,7.823.967,11.667,1.84.33.075.471-.433.14-.508-4.179-.949-8.521-1.318-12.739-2.08-4.505-.814-6.866,3.464-10.857,4.521a.264.264,0,0,0,.141.508Z" transform="translate(-71.954 -404.375)" fill="#bc6561"/>
              </g>
              <g id="Grupo_1211561" data-name="Grupo 1211561" transform="translate(11.275 12.071)">
                <path id="Trazado_1083733" data-name="Trazado 1083733" d="M68.853,398.648c1.637-1.022,3.269-2.053,4.906-3.075.287-.179.023-.635-.266-.455-1.637,1.022-3.269,2.053-4.906,3.075-.287.18-.022.636.266.455Z" transform="translate(-68.463 -395.076)" fill="#bc6561"/>
              </g>
              <g id="Grupo_1211562" data-name="Grupo 1211562" transform="translate(5.873 18.089)">
                <path id="Trazado_1083734" data-name="Trazado 1083734" d="M61.672,403.66c-1.734.662-.593,2.541.37,3.32a3.072,3.072,0,0,1,1.445,2.986c-.056.589-.194,1.165-.266,1.752a2.763,2.763,0,0,0,.7,2.62c.247.232.62-.14.372-.372-1.422-1.334.038-3.575-.284-5.248a2.732,2.732,0,0,0-.6-1.267c-.415-.5-3.586-2.523-1.6-3.282.314-.12.178-.63-.14-.509Z" transform="translate(-60.774 -403.642)" fill="#bc6561"/>
              </g>
              <g id="Grupo_1211563" data-name="Grupo 1211563" transform="translate(14.981 31.096)">
                <path id="Trazado_1083735" data-name="Trazado 1083735" d="M74.067,423.887a13.483,13.483,0,0,0,3.483-1.241c.3-.162.032-.617-.266-.455a12.947,12.947,0,0,1-3.357,1.188c-.331.076-.191.584.14.509Z" transform="translate(-73.738 -422.156)" fill="#bc6561"/>
              </g>
              <g id="Grupo_1211564" data-name="Grupo 1211564" transform="translate(4.486 39.956)">
                <path id="Trazado_1083736" data-name="Trazado 1083736" d="M58.829,445.582c1.966,4.066,7.072,3.838,10.283,1.477,4.03-2.964,4.244-7.562,5.748-11.97.11-.322-.4-.459-.508-.14-1.121,3.285-1.369,7.352-3.751,10.038-2.839,3.2-8.949,5.224-11.316.329-.148-.306-.6-.039-.455.266Z" transform="translate(-58.8 -434.768)" fill="#bc6561"/>
              </g>
            </g>
          </g>
        </g>
      </g>
      <g id="TEXTS" transform="translate(227.524 265.164)">
        <g id="Grupo_1211570" data-name="Grupo 1211570" transform="translate(0 0)">
          <g id="Grupo_1211569" data-name="Grupo 1211569">
            <g id="Grupo_1211568" data-name="Grupo 1211568">
              <path id="Trazado_1083737" data-name="Trazado 1083737" d="M324.094,397.856V384.781c1.287,0,1.944-.016,3.275-.072a6.666,6.666,0,0,1,1.79.128,2.716,2.716,0,0,1,1.185.568,2.271,2.271,0,0,1,.651.97,3.823,3.823,0,0,1,.2,1.289,4.074,4.074,0,0,1-.191,1.212,2.578,2.578,0,0,1-.617,1.035,2.422,2.422,0,0,1-1.2.625,2.777,2.777,0,0,1,1.431.593,2.374,2.374,0,0,1,.725,1.092,4.353,4.353,0,0,1,.2,1.336,6.261,6.261,0,0,1-.172,1.453,3.334,3.334,0,0,1-.587,1.242,3.213,3.213,0,0,1-1.131.911,4.835,4.835,0,0,1-1.8.451C326.326,397.737,325.574,397.786,324.094,397.856Zm1.416-7.5c.825-.03,1.241-.049,2.081-.1a2.743,2.743,0,0,0,1.382-.382,1.751,1.751,0,0,0,.678-.86,3.634,3.634,0,0,0,.2-1.244,2.666,2.666,0,0,0-.258-1.267,1.451,1.451,0,0,0-.9-.688,5.674,5.674,0,0,0-1.821-.149c-.548.021-.82.03-1.361.041C325.51,387.562,325.51,388.492,325.51,390.354Zm0,6.5c.816-.046,1.227-.074,2.056-.136a2.584,2.584,0,0,0,2.019-.852,3.824,3.824,0,0,0,.518-2.179,3.671,3.671,0,0,0-.228-1.364,1.679,1.679,0,0,0-.779-.885,2.749,2.749,0,0,0-1.485-.244c-.847.051-1.267.072-2.1.1C325.509,393.52,325.509,394.631,325.508,396.859Z" transform="translate(-324.094 -379.562)" fill="#77283f"/>
              <path id="Trazado_1083738" data-name="Trazado 1083738" d="M341.382,396.218a4.741,4.741,0,0,1-2.484-.165,2.265,2.265,0,0,1-1.244-1.239,5.081,5.081,0,0,1-.347-2.007c.015-2.126.022-3.188.038-5.311a5.21,5.21,0,0,1,.4-2.069,3.288,3.288,0,0,1,1.3-1.475,6.2,6.2,0,0,1,2.5-.778,5.284,5.284,0,0,1,2.472.13,2.154,2.154,0,0,1,1.27,1.14,4.516,4.516,0,0,1,.345,1.967c-.037,2.124-.056,3.185-.093,5.3a5.683,5.683,0,0,1-.4,2.076,3.574,3.574,0,0,1-1.279,1.567A5.591,5.591,0,0,1,341.382,396.218Zm.012-.96a3.455,3.455,0,0,0,1.606-.566,2.179,2.179,0,0,0,.776-1.056,4.662,4.662,0,0,0,.23-1.437c.036-2.309.055-3.464.091-5.776a3.945,3.945,0,0,0-.188-1.372,1.344,1.344,0,0,0-.757-.812,3.17,3.17,0,0,0-1.62-.1,3.842,3.842,0,0,0-1.654.53,2,2,0,0,0-.787,1.014,4.5,4.5,0,0,0-.221,1.428c-.021,2.316-.032,3.475-.053,5.792a4.141,4.141,0,0,0,.193,1.388,1.422,1.422,0,0,0,.759.849A2.939,2.939,0,0,0,341.394,395.258Z" transform="translate(-328.024 -379.085)" fill="#77283f"/>
              <path id="Trazado_1083739" data-name="Trazado 1083739" d="M356.123,393.821a4.756,4.756,0,0,1-2.467-.058,2.087,2.087,0,0,1-1.232-1.168,4.814,4.814,0,0,1-.324-1.973c.042-2.111.063-3.169.105-5.287a5.433,5.433,0,0,1,.428-2.091,3.678,3.678,0,0,1,1.319-1.555,6.338,6.338,0,0,1,2.465-.912,4.775,4.775,0,0,1,2.391.029,1.975,1.975,0,0,1,1.208,1.106,4.685,4.685,0,0,1,.318,1.967c-.047,2.134-.07,3.2-.117,5.314a5.916,5.916,0,0,1-.4,2.084,3.712,3.712,0,0,1-1.253,1.6A5.714,5.714,0,0,1,356.123,393.821Zm.022-.955a3.527,3.527,0,0,0,1.584-.623,2.3,2.3,0,0,0,.767-1.078,4.847,4.847,0,0,0,.235-1.442c.053-2.306.079-3.462.131-5.784a4.066,4.066,0,0,0-.171-1.371,1.243,1.243,0,0,0-.724-.788,2.909,2.909,0,0,0-1.572-.034,3.914,3.914,0,0,0-1.63.615,2.2,2.2,0,0,0-.791,1.059,4.691,4.691,0,0,0-.237,1.441c-.049,2.316-.073,3.471-.122,5.776a4,4,0,0,0,.176,1.369,1.31,1.31,0,0,0,.746.809A2.9,2.9,0,0,0,356.145,392.865Z" transform="translate(-332.424 -378.356)" fill="#77283f"/>
              <path id="Trazado_1083740" data-name="Trazado 1083740" d="M366.921,391.5c.1-5.068.153-7.613.255-12.784l1.418-.286c-.048,2.735-.072,4.092-.12,6.79,1.645-3.015,2.446-4.529,3.953-7.576l1.241-.256c-1.121,2.459-1.714,3.682-2.933,6.121,1.413,2.628,2.113,3.934,3.533,6.519l-1.329.271c-1.258-2.266-1.881-3.408-3.139-5.7-.537.938-.808,1.406-1.357,2.342-.031,1.717-.046,2.572-.077,4.279Z" transform="translate(-336.833 -377.387)" fill="#77283f"/>
              <path id="Trazado_1083741" data-name="Trazado 1083741" d="M342.595,422.851a4.571,4.571,0,0,1-2.425-.089,2.126,2.126,0,0,1-1.214-1.192,5.064,5.064,0,0,1-.337-1.992c.018-2.125.027-3.187.045-5.313a5.418,5.418,0,0,1,.395-2.084,3.4,3.4,0,0,1,1.278-1.512,5.988,5.988,0,0,1,2.44-.831,5.014,5.014,0,0,1,2.415.091,2.08,2.08,0,0,1,1.24,1.116,4.516,4.516,0,0,1,.334,1.949c-.04,2.11-.06,3.165-.1,5.275a5.816,5.816,0,0,1-.4,2.075,3.672,3.672,0,0,1-1.254,1.587A5.591,5.591,0,0,1,342.595,422.851Zm.013-.959a3.45,3.45,0,0,0,1.57-.6,2.252,2.252,0,0,0,.761-1.07,4.79,4.79,0,0,0,.228-1.437c.039-2.3.06-3.451.1-5.752a3.967,3.967,0,0,0-.181-1.362,1.293,1.293,0,0,0-.738-.8,3,3,0,0,0-1.581-.074,3.741,3.741,0,0,0-1.617.565,2.062,2.062,0,0,0-.771,1.033,4.655,4.655,0,0,0-.218,1.433c-.025,2.315-.037,3.473-.06,5.788a4.177,4.177,0,0,0,.186,1.379,1.344,1.344,0,0,0,.74.823A2.809,2.809,0,0,0,342.608,421.892Z" transform="translate(-328.414 -387.011)" fill="#77283f"/>
              <path id="Trazado_1083742" data-name="Trazado 1083742" d="M353.445,420.759c.108-5.066.161-7.592.269-12.659,2.278-.4,3.416-.606,5.663-1.031-.008.355-.012.533-.02.889-1.661.315-2.5.47-4.177.771-.042,1.905-.063,2.858-.106,4.762,1.394-.254,2.09-.384,3.477-.648-.008.349-.012.524-.02.873-1.387.265-2.083.395-3.476.65-.055,2.448-.081,3.671-.136,6.121C354.33,420.6,354.034,420.651,353.445,420.759Z" transform="translate(-332.824 -386.216)" fill="#77283f"/>
              <path id="Trazado_1083743" data-name="Trazado 1083743" d="M330.375,452.061c.011-5.138.015-7.723.025-12.905.569-.093.854-.14,1.425-.236-.015,4.8-.024,7.195-.039,11.964,1.706-.327,2.561-.489,4.278-.811,0,.36,0,.54-.008.9C333.775,451.4,332.641,451.617,330.375,452.061Z" transform="translate(-325.962 -395.69)" fill="#77283f"/>
              <path id="Trazado_1083744" data-name="Trazado 1083744" d="M339.312,450.148c1.324-5.348,2-8.022,3.376-13.351l1.53-.274c1.237,4.853,1.844,7.267,3.052,12.146l-1.423.264c-.278-1.314-.417-1.971-.7-3.282l-3.647.675c-.326,1.425-.488,2.138-.81,3.563Zm2.41-4.726,3.254-.6c-.606-2.632-.911-3.945-1.527-6.575C342.752,441.113,342.406,442.548,341.722,445.422Z" transform="translate(-328.621 -394.977)" fill="#77283f"/>
              <path id="Trazado_1083745" data-name="Trazado 1083745" d="M354.347,446.7c-.94-4.94-1.41-7.378-2.362-12.261l1.253-.235c.738,3.97,1.1,5.955,1.836,9.961,1.032-4.267,1.553-6.391,2.593-10.623l1.223-.24c.88,3.861,1.321,5.793,2.22,9.707.866-4.341,1.3-6.494,2.143-10.774l1.248-.258c-1.1,5.276-1.671,7.934-2.81,13.311l-1.164.229c-.926-4.062-1.38-6.064-2.287-10.058-1.082,4.387-1.625,6.59-2.7,11.017Z" transform="translate(-332.39 -393.625)" fill="#77283f"/>
            </g>
          </g>
        </g>
      </g>
    </g>
  </g>
</svg>
